<svg xmlns="http://www.w3.org/2000/svg" viewBox="0 0 28 27"><path d="M27 27H9.4c-.6 0-1-.4-1-1V1c0-.6.4-1 1-1H27c.6 0 1 .4 1 1v25c0 .6-.4 1-1 1zm-16.6-2H26V2H10.4v23zm-7.3 2c-.4 0-.8-.3-.9-.7l-2-5.4c-.1-.2-.2-.4-.2-.6V2.2c0-.3.2-.6.4-.8L2.1.2c.2-.1.4-.2.6-.2h.8c.2 0 .4.1.6.2l1.7 1.2c.2.2.4.5.4.8v18.1c0 .2-.1.4-.2.6l-2 5.4c-.1.4-.5.7-.9.7zm-.6-5.7l.6 1.7.6-1.7H2.5zM2 19.2h2.2V6.3H2v12.9zm0-15h2.2V2.7l-1-.7H3l-1 .7v1.5zm21.6 18.6H12.7c-.6 0-1-.4-1-1s.4-1 1-1h10.9c.6 0 1 .4 1 1s-.4 1-1 1zm0-4.1H12.7c-.6 0-1-.4-1-1s.4-1 1-1h10.9c.6 0 1 .4 1 1s-.4 1-1 1zm0-4.2H12.7c-.6 0-1-.4-1-1s.4-1 1-1h10.9c.6 0 1 .4 1 1s-.4 1-1 1zm0-4.2H12.7c-.6 0-1-.4-1-1s.4-1 1-1h10.9c.6 0 1 .4 1 1s-.4 1-1 1zm0-4.1H12.7c-.6 0-1-.4-1-1s.4-1 1-1h10.9c.6 0 1 .4 1 1s-.4 1-1 1z"/></svg>