<svg xmlns="http://www.w3.org/2000/svg" viewBox="0 0 28 32"><path d="M27 32H1c-.6 0-1-.4-1-1V1c0-.6.4-1 1-1h26c.6 0 1 .4 1 1v30c0 .6-.4 1-1 1zm-14-2h13V2H2v28h2V16c0-.6.4-1 1-1h7c.6 0 1 .4 1 1v14zm-7 0h5v-1H6v1zm0-3h5V17H6v4h2c.6 0 1 .4 1 1s-.4 1-1 1H6v4zm17 0h-7c-.6 0-1-.4-1-1V16c0-.6.4-1 1-1h7c.6 0 1 .4 1 1v10c0 .6-.4 1-1 1zm-6-2h5v-3h-5v3zm0-5h5v-3h-5v3zm6-7h-7c-.6 0-1-.4-1-1V5c0-.6.4-1 1-1h7c.6 0 1 .4 1 1v7c0 .6-.4 1-1 1zm-6-2h5v-1h-5v1zm0-3h5V6h-5v2zm-5 5H5c-.6 0-1-.4-1-1V5c0-.6.4-1 1-1h7c.6 0 1 .4 1 1v7c0 .6-.4 1-1 1zm-6-2h5v-1H6v1zm0-3h5V6H6v2z"/></svg>