<svg xmlns="http://www.w3.org/2000/svg"><symbol id="icon-category-default" viewBox="0 0 28 32"><path d="M27 32H1c-.6 0-1-.4-1-1V1c0-.6.4-1 1-1h26c.6 0 1 .4 1 1v30c0 .6-.4 1-1 1zm-14-2h13V2H2v28h2V16c0-.6.4-1 1-1h7c.6 0 1 .4 1 1v14zm-7 0h5v-1H6v1zm0-3h5V17H6v4h2c.6 0 1 .4 1 1s-.4 1-1 1H6v4zm17 0h-7c-.6 0-1-.4-1-1V16c0-.6.4-1 1-1h7c.6 0 1 .4 1 1v10c0 .6-.4 1-1 1zm-6-2h5v-3h-5v3zm0-5h5v-3h-5v3zm6-7h-7c-.6 0-1-.4-1-1V5c0-.6.4-1 1-1h7c.6 0 1 .4 1 1v7c0 .6-.4 1-1 1zm-6-2h5v-1h-5v1zm0-3h5V6h-5v2zm-5 5H5c-.6 0-1-.4-1-1V5c0-.6.4-1 1-1h7c.6 0 1 .4 1 1v7c0 .6-.4 1-1 1zm-6-2h5v-1H6v1zm0-3h5V6H6v2z"/></symbol><symbol id="icon-category-education" viewBox="0 0 28 27"><path d="M27 27H9.4c-.6 0-1-.4-1-1V1c0-.6.4-1 1-1H27c.6 0 1 .4 1 1v25c0 .6-.4 1-1 1zm-16.6-2H26V2H10.4v23zm-7.3 2c-.4 0-.8-.3-.9-.7l-2-5.4c-.1-.2-.2-.4-.2-.6V2.2c0-.3.2-.6.4-.8L2.1.2c.2-.1.4-.2.6-.2h.8c.2 0 .4.1.6.2l1.7 1.2c.2.2.4.5.4.8v18.1c0 .2-.1.4-.2.6l-2 5.4c-.1.4-.5.7-.9.7zm-.6-5.7l.6 1.7.6-1.7H2.5zM2 19.2h2.2V6.3H2v12.9zm0-15h2.2V2.7l-1-.7H3l-1 .7v1.5zm21.6 18.6H12.7c-.6 0-1-.4-1-1s.4-1 1-1h10.9c.6 0 1 .4 1 1s-.4 1-1 1zm0-4.1H12.7c-.6 0-1-.4-1-1s.4-1 1-1h10.9c.6 0 1 .4 1 1s-.4 1-1 1zm0-4.2H12.7c-.6 0-1-.4-1-1s.4-1 1-1h10.9c.6 0 1 .4 1 1s-.4 1-1 1zm0-4.2H12.7c-.6 0-1-.4-1-1s.4-1 1-1h10.9c.6 0 1 .4 1 1s-.4 1-1 1zm0-4.1H12.7c-.6 0-1-.4-1-1s.4-1 1-1h10.9c.6 0 1 .4 1 1s-.4 1-1 1z"/></symbol><symbol id="icon-category-financial" viewBox="0 0 28 21"><path d="M15.6 21c-.4 0-.7-.2-.9-.5L8.6 10l-2.2 3.4c.2.5.4 1 .4 1.6 0 1.9-1.5 3.5-3.4 3.5S0 16.9 0 15s1.5-3.5 3.4-3.5c.6 0 1.1.1 1.6.4L6.8 9c-.6-.5-1-1.3-1-2.3 0-1.7 1.3-3 2.9-3 1.6 0 2.9 1.3 2.9 3 0 1-.5 1.9-1.2 2.4l5.2 8.9 6.3-10.8c-1-.7-1.6-1.9-1.6-3.2 0-2.2 1.7-4 3.9-4C26.3 0 28 1.8 28 4s-1.7 4-3.9 4h-.4l-7.3 12.5c-.1.3-.5.5-.8.5zM3.4 13.5c-.8 0-1.4.7-1.4 1.5s.6 1.5 1.4 1.5c.8 0 1.4-.7 1.4-1.5s-.6-1.5-1.4-1.5zm5.3-7.8c-.5 0-.9.4-.9 1s.4 1 .9 1 .9-.4.9-1-.4-1-.9-1zM24.1 2c-1 0-1.9.9-1.9 2s.8 2 1.9 2c1 0 1.9-.9 1.9-2s-.8-2-1.9-2z"/></symbol><symbol id="icon-category-food" viewBox="0 0 22 32"><path d="M4.6 32c-.6 0-1-.4-1-1V1c0-.6.4-1 1-1s1 .4 1 1v30c0 .6-.4 1-1 1z"/><path d="M4.6 13.5C1.4 13.5 0 7 0 1c0-.6.4-1 1-1s1 .4 1 1c0 7 1.8 10.5 2.6 10.5S7.3 8 7.3 1c0-.6.4-1 1-1s1 .4 1 1c0 6-1.5 12.5-4.7 12.5zM17.4 32c-.6 0-1-.4-1-1V13.3c0-.6.4-1 1-1s1 .4 1 1V31c0 .6-.5 1-1 1z"/><path d="M17.5 13.6c-2.7 0-4.8-3-4.8-6.8S14.8 0 17.5 0c.6 0 1 .4 1 1s-.4 1-1 1c-1.5 0-2.8 2.2-2.8 4.8 0 2.6 1.3 4.8 2.8 4.8.6 0 1 .4 1 1s-.4 1-1 1z"/><path d="M17.2 13.6c-.6 0-1-.4-1-1s.4-1 1-1c1.5 0 2.8-2.2 2.8-4.8C20 4.2 18.7 2 17.2 2c-.6 0-1-.4-1-1s.4-1 1-1C19.9 0 22 3 22 6.8s-2.1 6.8-4.8 6.8z"/></symbol><symbol id="icon-category-gyms" viewBox="0 0 28 15"><path d="M23.1 15c-1.9 0-3.4-1.2-3.4-2.6v-1.7H8.3v1.7c0 1.5-1.5 2.6-3.4 2.6s-3.4-1.2-3.4-2.6V9.9C.6 9.5 0 8.6 0 7.5 0 6.3.6 5.4 1.5 5V2.6C1.5 1.2 2.9 0 4.9 0c1.9 0 3.4 1.2 3.4 2.6v1.7h11.5V2.6c0-1.5 1.5-2.6 3.4-2.6s3.4 1.2 3.4 2.6V5c.8.4 1.4 1.3 1.4 2.5s-.6 2.1-1.5 2.4v2.5c0 1.4-1.4 2.6-3.4 2.6zm0-13c-.9 0-1.4.4-1.4.6v9.8c0 .2.5.6 1.4.6s1.4-.4 1.4-.6V2.6c0-.2-.4-.6-1.4-.6zM3.5 10.1v2.3c0 .2.5.6 1.4.6.9 0 1.4-.4 1.4-.6V2.6c0-.2-.5-.6-1.4-.6-1 0-1.4.4-1.4.6v7.5zm4.8-1.4h11.5V6.3H8.3v2.4z"/></symbol><symbol id="icon-category-health" viewBox="0 0 30 31"><path d="M29 31H1c-.6 0-1-.4-1-1V6c0-.6.4-1 1-1h8.1C9.7 2.7 12 0 15 0s5.3 2.7 5.9 5H29c.6 0 1 .4 1 1v24c0 .6-.4 1-1 1zM2 29h26V7H2v22zm9.2-24h7.6c-.5-1.4-2.1-3-3.8-3s-3.2 1.6-3.8 3zM15 25c-.6 0-1-.4-1-1v-5H9c-.6 0-1-.4-1-1s.4-1 1-1h5v-5c0-.6.4-1 1-1s1 .4 1 1v5h5c.6 0 1 .4 1 1s-.4 1-1 1h-5v5c0 .6-.4 1-1 1z"/></symbol><symbol id="icon-triangle" viewBox="0 0 10 5.1"><path d="M0 0l5 5.1L10 0z"/></symbol><symbol id="select-bg" viewBox="0 0 10 14"><style>.st0{fill:#1f1c57}</style><path class="st0" d="M0 9l5 5 5-5.1zm5-9L0 5.1h10z"/></symbol></svg>