<svg xmlns="http://www.w3.org/2000/svg"><symbol id="history-pattern" viewBox="0 0 1375.2 214"><style>.st0{fill:#363469}.st1{fill:#4c4a79}</style><path class="st0" d="M294.4 35h-53.1c-.6 0-1-.4-1-1 0-5.7 4.8-10.5 10.4-10.5 2 0 3.9.5 5.5 1.5 3-4.6 8.1-7.4 13.6-7.4 7 0 13.1 4.4 15.3 10.9 1.1-.8 2.4-1.2 3.8-1.2 3.6 0 6.6 3 6.6 6.7-.1.6-.5 1-1.1 1zm-52.1-2h51c-.5-2.1-2.3-3.7-4.5-3.7-1.4 0-2.7.6-3.5 1.6-.2.3-.6.4-1 .3-.4-.1-.7-.4-.7-.7-1.5-6.4-7.2-10.9-13.8-10.9-5.2 0-9.9 2.8-12.4 7.3-.1.3-.4.4-.7.5-.3.1-.6 0-.8-.2-1.4-1.1-3.2-1.7-5.1-1.7-4.4 0-8 3.4-8.5 7.5zm169.3-14.4h-.3c-.5-.1-.9-.7-.7-1.2.8-3.1-.1-6.3-2.3-8.6-2.2-2.2-5.5-3.1-8.6-2.3-.5.1-1.1-.2-1.2-.7-.1-.5.2-1.1.7-1.2 3.7-1 7.8.1 10.5 2.8 2.7 2.7 3.8 6.7 2.8 10.5 0 .4-.4.7-.9.7z"/><path class="st0" d="M416.6 47.2c-1.5 0-2.9-.6-4.1-1.7-.2-.2-.5-.3-.7-.3-.2 0-.4.1-.6.3-1.1 1.1-2.5 1.7-4 1.7-2.4 0-5.4-1.8-8.3-5-4.3-4.8-8.5-13.3-7.4-22.5.8-4.9 4.7-8.6 9.5-9 4.6-.5 8.9 2 10.8 6.1 2-4.1 6.3-6.5 10.9-6.1 4.8.5 8.8 4.2 9.6 9 1.1 9.3-3.1 17.7-7.4 22.5-2.9 3.2-5.9 5-8.3 5zm-4.8-4c.8 0 1.6.3 2.1.9.7.7 1.7 1.1 2.7 1.1 1.8 0 4.4-1.7 6.8-4.4 4-4.5 7.9-12.3 6.9-20.9-.7-3.9-3.9-6.9-7.8-7.3-4.1-.4-7.9 2-9.3 5.9-.2.7-.9.9-1.2 1-.2.1-.4.1-.7 0-.2-.1-.8-.3-1-1-1.4-3.9-5.1-6.3-9.2-5.9-3.9.4-7.1 3.4-7.8 7.3-1 8.5 2.9 16.4 6.9 20.9 2.4 2.7 5 4.4 6.8 4.4 1 0 1.8-.4 2.6-1.1.8-.6 1.4-.9 2.2-.9z"/><path class="st0" d="M408.2 43.1c-1.8 0-4.4-1.7-6.7-4.3-1.5-1.7-2.8-3.6-3.9-5.8-.3-.5-.1-1.1.4-1.3.5-.3 1.1-.1 1.3.4 1 2 2.3 3.8 3.6 5.3 2.4 2.7 4.4 3.7 5.2 3.7.3 0 .6-.1 1.2-.6.4-.4 1-.4 1.4 0 .4.4.4 1 0 1.4-.8.8-1.6 1.2-2.5 1.2zm7.4-1c-1.4 0-2.3-.9-2.6-1.2-.4-.4-.4-1 0-1.4.4-.4 1-.4 1.4 0 .3.3.7.6 1.2.6.8 0 2.8-1 5.2-3.7 2-2.3 3.8-5.2 4.9-8.2.2-.5.8-.8 1.3-.6.5.2.8.8.6 1.3-1.2 3.3-3.1 6.4-5.3 8.9-2.3 2.7-4.9 4.3-6.7 4.3zM414.5 20c-.9 0-1.9-.1-2.8-.4-.3-.1-.6-.4-.7-.7-1-3.7.1-7.8 2.8-10.5s6.7-3.8 10.5-2.8c.3.1.6.4.7.7 1 3.7-.1 7.8-2.8 10.5-2 2.1-4.8 3.2-7.7 3.2zm-1.7-2.2c2.9.6 5.9-.3 8-2.4 2.1-2.1 3-5.1 2.4-8-2.9-.6-5.9.3-8 2.4-2 2.1-2.9 5.1-2.4 8z"/><path class="st0" d="M412 19.6c-.3 0-.5-.1-.7-.3-.4-.4-.4-1 0-1.4l7.5-7.5c.4-.4 1-.4 1.4 0s.4 1 0 1.4l-7.5 7.5c-.2.2-.5.3-.7.3zM520 45c-.6 0-1-.4-1-1v-6c0-.6.4-1 1-1s1 .4 1 1v6c0 .6-.4 1-1 1z"/><path class="st0" d="M516.3 41.4c-1.1 0-2.2-.4-3.1-1.3-.8-.8-1.3-1.9-1.3-3.1 0-1.2.5-2.3 1.3-3.1l7.5-7.5c1.7-1.7 4.5-1.7 6.2 0 .8.8 1.3 1.9 1.3 3.1 0 1.2-.5 2.3-1.3 3.1l-7.5 7.5c-.9.8-2 1.3-3.1 1.3zm7.5-14.3c-.6 0-1.2.2-1.7.7l-7.5 7.5c-.4.4-.7 1-.7 1.7s.2 1.2.7 1.7c.9.9 2.4.9 3.4 0l7.5-7.5c.4-.4.7-1 .7-1.7s-.2-1.2-.7-1.7c-.5-.5-1.1-.7-1.7-.7z"/><path class="st0" d="M523.8 41.4c-1.2 0-2.3-.5-3.1-1.3l-7.5-7.5c-.8-.8-1.3-1.9-1.3-3.1 0-1.2.5-2.3 1.3-3.1.8-.8 1.9-1.3 3.1-1.3 1.2 0 2.3.5 3.1 1.3l7.5 7.5c1.7 1.7 1.7 4.5 0 6.2-.8.8-1.9 1.3-3.1 1.3zm-7.5-14.3c-.6 0-1.2.2-1.7.7-.4.4-.7 1-.7 1.7 0 .6.2 1.2.7 1.7l7.5 7.5c.9.9 2.5.9 3.4 0 .9-.9.9-2.4 0-3.4l-7.5-7.5c-.5-.5-1.1-.7-1.7-.7zM565 45c-.6 0-1-.4-1-1v-6c0-.6.4-1 1-1s1 .4 1 1v6c0 .6-.4 1-1 1z"/><path class="st0" d="M561.3 41.4c-1.1 0-2.2-.4-3.1-1.3-.8-.8-1.3-1.9-1.3-3.1 0-1.2.5-2.3 1.3-3.1l7.5-7.5c1.7-1.7 4.5-1.7 6.2 0 .8.8 1.3 1.9 1.3 3.1 0 1.2-.5 2.3-1.3 3.1l-7.5 7.5c-.9.8-2 1.3-3.1 1.3zm7.5-14.3c-.6 0-1.2.2-1.7.7l-7.5 7.5c-.4.4-.7 1-.7 1.7s.2 1.2.7 1.7c.9.9 2.4.9 3.4 0l7.5-7.5c.4-.4.7-1 .7-1.7s-.2-1.2-.7-1.7c-.5-.5-1.1-.7-1.7-.7z"/><path class="st0" d="M568.8 41.4c-1.2 0-2.3-.5-3.1-1.3l-7.5-7.5c-.8-.8-1.3-1.9-1.3-3.1 0-1.2.5-2.3 1.3-3.1.8-.8 1.9-1.3 3.1-1.3 1.2 0 2.3.5 3.1 1.3l7.5 7.5c1.7 1.7 1.7 4.5 0 6.2-.8.8-1.9 1.3-3.1 1.3zm-7.5-14.3c-.6 0-1.2.2-1.7.7-.4.4-.7 1-.7 1.7 0 .6.2 1.2.7 1.7l7.5 7.5c.9.9 2.5.9 3.4 0 .9-.9.9-2.4 0-3.4l-7.5-7.5c-.5-.5-1.1-.7-1.7-.7zM542 20c-.6 0-1-.4-1-1v-6c0-.6.4-1 1-1s1 .4 1 1v6c0 .6-.4 1-1 1z"/><path class="st0" d="M538.3 16.4c-1.1 0-2.2-.4-3.1-1.3-.8-.8-1.3-1.9-1.3-3.1 0-1.2.5-2.3 1.3-3.1l7.5-7.5c1.7-1.7 4.5-1.7 6.2 0 .8.8 1.3 1.9 1.3 3.1 0 1.2-.5 2.3-1.3 3.1l-7.5 7.5c-.9.8-2 1.3-3.1 1.3zm7.5-14.3c-.6 0-1.2.2-1.7.7l-7.5 7.5c-.4.4-.7 1-.7 1.7s.2 1.2.7 1.7c.9.9 2.4.9 3.4 0l7.5-7.5c.4-.4.7-1 .7-1.7s-.2-1.2-.7-1.7c-.5-.5-1.1-.7-1.7-.7z"/><path class="st0" d="M545.8 16.4c-1.2 0-2.3-.5-3.1-1.3l-7.5-7.5c-.8-.8-1.3-1.9-1.3-3.1 0-1.2.5-2.3 1.3-3.1.8-.8 1.9-1.3 3.1-1.3 1.2 0 2.3.5 3.1 1.3l7.5 7.5c1.7 1.7 1.7 4.5 0 6.2-.8.8-1.9 1.3-3.1 1.3zm-7.5-14.3c-.6 0-1.2.2-1.7.7-.4.4-.7 1-.7 1.7 0 .6.2 1.2.7 1.7l7.5 7.5c.9.9 2.5.9 3.4 0 .9-.9.9-2.4 0-3.4L540 2.8c-.5-.5-1.1-.7-1.7-.7zM587 20c-.6 0-1-.4-1-1v-6c0-.6.4-1 1-1s1 .4 1 1v6c0 .6-.4 1-1 1z"/><path class="st0" d="M583.3 16.4c-1.1 0-2.2-.4-3.1-1.3-.8-.8-1.3-1.9-1.3-3.1 0-1.2.5-2.3 1.3-3.1l7.5-7.5c1.7-1.7 4.5-1.7 6.2 0 .8.8 1.3 1.9 1.3 3.1 0 1.2-.5 2.3-1.3 3.1l-7.5 7.5c-.9.8-2 1.3-3.1 1.3zm7.5-14.3c-.6 0-1.2.2-1.7.7l-7.5 7.5c-.4.4-.7 1-.7 1.7s.2 1.2.7 1.7c.9.9 2.4.9 3.4 0l7.5-7.5c.4-.4.7-1 .7-1.7s-.2-1.2-.7-1.7c-.5-.5-1.1-.7-1.7-.7z"/><path class="st0" d="M590.8 16.4c-1.2 0-2.3-.5-3.1-1.3l-7.5-7.5c-.8-.8-1.3-1.9-1.3-3.1 0-1.2.5-2.3 1.3-3.1.8-.8 1.9-1.3 3.1-1.3 1.2 0 2.3.5 3.1 1.3l7.5 7.5c1.7 1.7 1.7 4.5 0 6.2-.8.8-1.9 1.3-3.1 1.3zm-7.5-14.3c-.6 0-1.2.2-1.7.7-.4.4-.7 1-.7 1.7 0 .6.2 1.2.7 1.7l7.5 7.5c.9.9 2.5.9 3.4 0 .9-.9.9-2.4 0-3.4L585 2.8c-.5-.5-1.1-.7-1.7-.7z"/><path class="st1" d="M125.2 52.6c-.5 0-1-.3-1.3-.8l-19.1-33.1c-.3-.5-.3-1 0-1.5L114.4.7c.3-.5.8-.8 1.3-.8h19.1c.5 0 1 .3 1.3.8l9.6 16.5c.3.5.3 1 0 1.5l-19.1 33.1c-.4.6-.9.8-1.4.8zM107.8 18l17.4 30.1L142.6 18l-8.7-15h-17.4l-8.7 15z"/><path class="st1" d="M125.2 26.6c-4.8 0-8.8-3.9-8.8-8.8s3.9-8.8 8.8-8.8 8.8 3.9 8.8 8.8-4 8.8-8.8 8.8zm0-15c-3.5 0-6.3 2.8-6.3 6.3s2.8 6.3 6.3 6.3 6.3-2.8 6.3-6.3-2.9-6.3-6.3-6.3z"/><path class="st0" d="M869.4 35h-53.1c-.6 0-1-.4-1-1 0-5.7 4.8-10.5 10.4-10.5 2 0 3.9.5 5.5 1.5 3-4.6 8.1-7.4 13.6-7.4 7 0 13.1 4.4 15.3 10.9 1.1-.8 2.4-1.2 3.8-1.2 3.6 0 6.6 3 6.6 6.7-.1.6-.5 1-1.1 1zm-52.1-2h51c-.5-2.1-2.3-3.7-4.5-3.7-1.4 0-2.7.6-3.5 1.6-.2.3-.6.4-1 .3-.4-.1-.7-.4-.7-.7-1.5-6.4-7.2-10.9-13.8-10.9-5.2 0-9.9 2.8-12.4 7.3-.1.3-.4.4-.7.5-.3.1-.6 0-.8-.2-1.4-1.1-3.2-1.7-5.2-1.7-4.3 0-7.9 3.4-8.4 7.5zm169.3-14.4h-.3c-.5-.1-.8-.7-.7-1.2.8-3.1-.1-6.3-2.3-8.6s-5.5-3.1-8.6-2.3c-.5.1-1.1-.2-1.2-.7-.1-.5.2-1.1.7-1.2 3.7-1 7.8.1 10.5 2.8 2.7 2.7 3.8 6.7 2.8 10.5 0 .4-.4.7-.9.7z"/><path class="st0" d="M991.6 47.2c-1.5 0-2.9-.6-4.1-1.7-.2-.2-.5-.3-.7-.3-.2 0-.4.1-.6.3-1.1 1.1-2.5 1.7-4 1.7-2.4 0-5.4-1.8-8.3-5-4.3-4.8-8.5-13.3-7.4-22.5.8-4.9 4.7-8.6 9.5-9 4.6-.5 8.9 2 10.8 6.1 2-4.1 6.3-6.5 10.9-6.1 4.8.5 8.8 4.2 9.6 9 1.1 9.3-3.1 17.7-7.4 22.5-2.9 3.2-5.9 5-8.3 5zm-4.8-4c.8 0 1.6.3 2.1.9.7.7 1.7 1.1 2.7 1.1 1.8 0 4.4-1.7 6.8-4.4 4-4.5 7.9-12.3 6.9-20.9-.7-3.9-3.9-6.9-7.8-7.3-4.1-.4-7.9 2-9.3 5.9-.2.7-.9.9-1.2 1-.2.1-.4.1-.7 0-.2-.1-.8-.3-1-1-1.4-3.9-5.2-6.3-9.2-5.9-3.9.4-7.1 3.4-7.8 7.3-1 8.5 2.9 16.4 6.9 20.9 2.4 2.7 5 4.4 6.8 4.4 1 0 1.8-.4 2.6-1.1.8-.6 1.4-.9 2.2-.9z"/><path class="st0" d="M983.2 43.1c-1.8 0-4.4-1.7-6.7-4.3-1.5-1.7-2.8-3.6-3.9-5.8-.3-.5-.1-1.1.4-1.3.5-.3 1.1-.1 1.3.4 1 2 2.3 3.8 3.6 5.3 2.4 2.7 4.4 3.7 5.2 3.7.3 0 .6-.1 1.2-.6.4-.4 1-.4 1.4 0 .4.4.4 1 0 1.4-.8.8-1.6 1.2-2.5 1.2zm7.4-1c-1.4 0-2.3-.9-2.6-1.2-.4-.4-.4-1 0-1.4.4-.4 1-.4 1.4 0 .3.3.7.6 1.2.6.8 0 2.8-1 5.2-3.7 2-2.3 3.8-5.2 4.9-8.2.2-.5.8-.8 1.3-.6.5.2.8.8.6 1.3-1.2 3.3-3.1 6.4-5.3 8.9-2.3 2.7-4.9 4.3-6.7 4.3zM989.5 20c-.9 0-1.9-.1-2.8-.4-.3-.1-.6-.4-.7-.7-1-3.7.1-7.8 2.8-10.5 2.7-2.7 6.7-3.8 10.5-2.8.3.1.6.4.7.7 1 3.7-.1 7.8-2.8 10.5-2 2.1-4.8 3.2-7.7 3.2zm-1.7-2.2c2.9.6 5.9-.3 8-2.4 2.1-2.1 3-5.1 2.4-8-2.9-.6-5.9.3-8 2.4-2 2.1-2.9 5.1-2.4 8z"/><path class="st0" d="M987 19.6c-.3 0-.5-.1-.7-.3-.4-.4-.4-1 0-1.4l7.5-7.5c.4-.4 1-.4 1.4 0s.4 1 0 1.4l-7.5 7.5c-.2.2-.5.3-.7.3zM1095 45c-.6 0-1-.4-1-1v-6c0-.6.4-1 1-1s1 .4 1 1v6c0 .6-.4 1-1 1z"/><path class="st0" d="M1091.3 41.4c-1.1 0-2.2-.4-3.1-1.3-.8-.8-1.3-1.9-1.3-3.1 0-1.2.5-2.3 1.3-3.1l7.5-7.5c1.7-1.7 4.5-1.7 6.2 0 1.7 1.7 1.7 4.5 0 6.2l-7.5 7.5c-.9.8-2 1.3-3.1 1.3zm7.5-14.3c-.6 0-1.2.2-1.7.7l-7.5 7.5c-.4.4-.7 1-.7 1.7s.2 1.2.7 1.7c.9.9 2.4.9 3.4 0l7.5-7.5c.9-.9.9-2.4 0-3.4-.5-.5-1.1-.7-1.7-.7z"/><path class="st0" d="M1098.8 41.4c-1.1 0-2.2-.4-3.1-1.3l-7.5-7.5c-.8-.8-1.3-1.9-1.3-3.1 0-1.2.5-2.3 1.3-3.1s1.9-1.3 3.1-1.3c1.2 0 2.3.5 3.1 1.3l7.5 7.5c1.7 1.7 1.7 4.5 0 6.2-.9.8-2 1.3-3.1 1.3zm-7.5-14.3c-.6 0-1.2.2-1.7.7-.4.4-.7 1-.7 1.7 0 .6.2 1.2.7 1.7l7.5 7.5c.9.9 2.4.9 3.4 0 .9-.9.9-2.4 0-3.4l-7.5-7.5c-.5-.5-1.1-.7-1.7-.7zM1140 45c-.6 0-1-.4-1-1v-6c0-.6.4-1 1-1s1 .4 1 1v6c0 .6-.4 1-1 1z"/><path class="st0" d="M1136.3 41.4c-1.1 0-2.2-.4-3.1-1.3-.8-.8-1.3-1.9-1.3-3.1 0-1.2.5-2.3 1.3-3.1l7.5-7.5c1.7-1.7 4.5-1.7 6.2 0 1.7 1.7 1.7 4.5 0 6.2l-7.5 7.5c-.9.8-2 1.3-3.1 1.3zm7.5-14.3c-.6 0-1.2.2-1.7.7l-7.5 7.5c-.4.4-.7 1-.7 1.7s.2 1.2.7 1.7c.9.9 2.4.9 3.4 0l7.5-7.5c.9-.9.9-2.4 0-3.4-.5-.5-1.1-.7-1.7-.7z"/><path class="st0" d="M1143.8 41.4c-1.1 0-2.2-.4-3.1-1.3l-7.5-7.5c-.8-.8-1.3-1.9-1.3-3.1 0-1.2.5-2.3 1.3-3.1s1.9-1.3 3.1-1.3c1.2 0 2.3.5 3.1 1.3l7.5 7.5c1.7 1.7 1.7 4.5 0 6.2-.9.8-2 1.3-3.1 1.3zm-7.5-14.3c-.6 0-1.2.2-1.7.7-.4.4-.7 1-.7 1.7 0 .6.2 1.2.7 1.7l7.5 7.5c.9.9 2.4.9 3.4 0 .9-.9.9-2.4 0-3.4l-7.5-7.5c-.5-.5-1.1-.7-1.7-.7zM1117 20c-.6 0-1-.4-1-1v-6c0-.6.4-1 1-1s1 .4 1 1v6c0 .6-.4 1-1 1z"/><path class="st0" d="M1113.3 16.4c-1.1 0-2.2-.4-3.1-1.3-.8-.8-1.3-1.9-1.3-3.1 0-1.2.5-2.3 1.3-3.1l7.5-7.5c1.7-1.7 4.5-1.7 6.2 0 1.7 1.7 1.7 4.5 0 6.2l-7.5 7.5c-.9.8-2 1.3-3.1 1.3zm7.5-14.3c-.6 0-1.2.2-1.7.7l-7.5 7.5c-.4.4-.7 1-.7 1.7s.2 1.2.7 1.7c.9.9 2.4.9 3.4 0l7.5-7.5c.9-.9.9-2.4 0-3.4-.5-.5-1.1-.7-1.7-.7z"/><path class="st0" d="M1120.8 16.4c-1.1 0-2.2-.4-3.1-1.3l-7.5-7.5c-.8-.8-1.3-1.9-1.3-3.1 0-1.2.5-2.3 1.3-3.1s1.9-1.3 3.1-1.3c1.2 0 2.3.5 3.1 1.3l7.5 7.5c1.7 1.7 1.7 4.5 0 6.2-.9.8-2 1.3-3.1 1.3zm-7.5-14.3c-.6 0-1.2.2-1.7.7-.4.4-.7 1-.7 1.7 0 .6.2 1.2.7 1.7l7.5 7.5c.9.9 2.4.9 3.4 0s.9-2.4 0-3.4l-7.5-7.5c-.5-.5-1.1-.7-1.7-.7zM1162 20c-.6 0-1-.4-1-1v-6c0-.6.4-1 1-1s1 .4 1 1v6c0 .6-.4 1-1 1z"/><path class="st0" d="M1158.3 16.4c-1.1 0-2.2-.4-3.1-1.3-.8-.8-1.3-1.9-1.3-3.1 0-1.2.5-2.3 1.3-3.1l7.5-7.5c1.7-1.7 4.5-1.7 6.2 0 1.7 1.7 1.7 4.5 0 6.2l-7.5 7.5c-.9.8-2 1.3-3.1 1.3zm7.5-14.3c-.6 0-1.2.2-1.7.7l-7.5 7.5c-.4.4-.7 1-.7 1.7s.2 1.2.7 1.7c.9.9 2.4.9 3.4 0l7.5-7.5c.9-.9.9-2.4 0-3.4-.5-.5-1.1-.7-1.7-.7z"/><path class="st0" d="M1165.8 16.4c-1.1 0-2.2-.4-3.1-1.3l-7.5-7.5c-.8-.8-1.3-1.9-1.3-3.1 0-1.2.5-2.3 1.3-3.1s1.9-1.3 3.1-1.3c1.2 0 2.3.5 3.1 1.3l7.5 7.5c1.7 1.7 1.7 4.5 0 6.2-.9.8-2 1.3-3.1 1.3zm-7.5-14.3c-.6 0-1.2.2-1.7.7-.4.4-.7 1-.7 1.7 0 .6.2 1.2.7 1.7l7.5 7.5c.9.9 2.4.9 3.4 0s.9-2.4 0-3.4l-7.5-7.5c-.5-.5-1.1-.7-1.7-.7z"/><path class="st1" d="M700.2 52.6c-.5 0-1-.3-1.3-.8l-19.1-33.1c-.3-.5-.3-1 0-1.5L689.4.7c.3-.5.8-.8 1.3-.8h19.1c.5 0 1 .3 1.3.8l9.6 16.5c.3.5.3 1 0 1.5l-19.1 33.1c-.4.6-.9.8-1.4.8zM682.8 18l17.4 30.1L717.6 18l-8.7-15h-17.4l-8.7 15z"/><path class="st1" d="M700.2 26.6c-4.8 0-8.8-3.9-8.8-8.8s3.9-8.8 8.8-8.8 8.8 3.9 8.8 8.8-4 8.8-8.8 8.8zm0-15c-3.5 0-6.3 2.8-6.3 6.3s2.8 6.3 6.3 6.3 6.3-2.8 6.3-6.3-2.9-6.3-6.3-6.3zM1276.2 52.6c-.5 0-1-.3-1.3-.8l-19.1-33.1c-.3-.5-.3-1 0-1.5l9.6-16.5c.3-.5.8-.8 1.3-.8h19.1c.5 0 1 .3 1.3.8l9.6 16.5c.3.5.3 1 0 1.5l-19.1 33.1c-.4.6-.9.8-1.4.8zM1258.8 18l17.4 30.1 17.4-30.1-8.7-15h-17.4l-8.7 15z"/><path class="st1" d="M1276.2 26.6c-4.8 0-8.8-3.9-8.8-8.8s3.9-8.8 8.8-8.8 8.8 3.9 8.8 8.8-4 8.8-8.8 8.8zm0-15c-3.5 0-6.3 2.8-6.3 6.3s2.8 6.3 6.3 6.3 6.3-2.8 6.3-6.3-2.9-6.3-6.3-6.3z"/><path class="st0" d="M412 140c-.6 0-1-.4-1-1v-11c0-.6.4-1 1-1s1 .4 1 1v11c0 .6-.4 1-1 1zm-6 73c-.6 0-1-.4-1-1v-50c0-.6.4-1 1-1s1 .4 1 1v50c0 .6-.4 1-1 1zm12 0c-.6 0-1-.4-1-1v-50c0-.6.4-1 1-1s1 .4 1 1v50c0 .6-.4 1-1 1z"/><path class="st0" d="M418.6 184.4c-.3 0-.7-.2-.9-.5l-5.5-9.5c-.3-.5-.1-1.1.4-1.4.5-.3 1.1-.1 1.4.4l5.5 9.5c.3.5.1 1.1-.4 1.4-.2.1-.3.1-.5.1z"/><path class="st0" d="M405.9 184.5c-.2 0-.3 0-.5-.1-.5-.3-.6-.9-.4-1.4l5.5-9.5c.3-.5.9-.6 1.4-.4.5.3.6.9.4 1.4l-5.5 9.5c-.2.3-.5.5-.9.5zm24.2 28.9c-.3 0-.7-.2-.9-.5L412.5 184c-.3-.5-.1-1.1.4-1.4.5-.3 1.1-.1 1.4.4l16.7 28.9c.3.5.1 1.1-.4 1.4-.2 0-.4.1-.5.1z"/><path class="st0" d="M394.9 212.8c-.2 0-.3 0-.5-.1-.5-.3-.6-.9-.4-1.4l16.4-28.3c.3-.5.9-.6 1.4-.4.5.3.6.9.4 1.4l-16.4 28.3c-.3.3-.6.5-.9.5zm23.7.3c-.3 0-.7-.2-.9-.5l-5.5-9.5c-.3-.5-.1-1.1.4-1.4.5-.3 1.1-.1 1.4.4l5.5 9.5c.3.5.1 1.1-.4 1.4-.2 0-.3.1-.5.1z"/><path class="st0" d="M405.9 213.1c-.2 0-.3 0-.5-.1-.5-.3-.6-.9-.4-1.4l5.5-9.5c.3-.5.9-.6 1.4-.4.5.3.6.9.4 1.4l-5.5 9.5c-.2.3-.5.5-.9.5z"/><path class="st0" d="M413.1 203.5c-.2 0-.3 0-.5-.1-.5-.3-.6-.9-.4-1.4l5.5-9.5c.3-.5.9-.6 1.4-.4.5.3.6.9.4 1.4L414 203c-.2.3-.6.5-.9.5z"/><path class="st0" d="M411.5 203.5c-.3 0-.7-.2-.9-.5l-5.5-9.5c-.3-.5-.1-1.1.4-1.4.5-.3 1.1-.1 1.4.4l5.5 9.5c.3.5.1 1.1-.4 1.4-.2.1-.4.1-.5.1zm.5-19.5h-6c-.6 0-1-.4-1-1s.4-1 1-1h6c.6 0 1 .4 1 1s-.4 1-1 1z"/><path class="st0" d="M418 184h-6c-.6 0-1-.4-1-1s.4-1 1-1h6c.6 0 1 .4 1 1s-.4 1-1 1zm-6 20h-12c-.6 0-1-.4-1-1s.4-1 1-1h12c.6 0 1 .4 1 1s-.4 1-1 1z"/><path class="st0" d="M424 204h-12c-.6 0-1-.4-1-1s.4-1 1-1h12c.6 0 1 .4 1 1s-.4 1-1 1zm-11.7-29.1c-7.4 0-12.9-5.6-12.9-12.9 0-.6.4-1 1-1h23.8c.6 0 1 .4 1 1 0 7.4-5.6 12.9-12.9 12.9zM401.4 163c.5 5.7 5 9.9 10.9 9.9s10.4-4.2 10.9-9.9h-21.8zm22.8-12h-23.8c-.6 0-1-.4-1-1 0-6.9 6-12.9 12.9-12.9s12.9 6 12.9 12.9c0 .6-.5 1-1 1zm-22.8-2h21.7c-.5-4.9-5-9.9-10.9-9.9s-10.3 5-10.8 9.9z"/><path class="st0" d="M425 163h-25c-.6 0-1-.4-1-1v-12c0-.6.4-1 1-1h25c.6 0 1 .4 1 1v12c0 .6-.4 1-1 1zm-24-2h23v-10h-23v10z"/><path class="st0" d="M425 160h-25c-.6 0-1-.4-1-1s.4-1 1-1h25c.6 0 1 .4 1 1s-.4 1-1 1z"/><path class="st0" d="M403 163c-.6 0-1-.4-1-1v-3c0-.6.4-1 1-1s1 .4 1 1v3c0 .6-.4 1-1 1zm4 0c-.6 0-1-.4-1-1v-3c0-.6.4-1 1-1s1 .4 1 1v3c0 .6-.4 1-1 1zm2 0c-.6 0-1-.4-1-1v-3c0-.6.4-1 1-1s1 .4 1 1v3c0 .6-.4 1-1 1zm3 0c-.6 0-1-.4-1-1v-3c0-.6.4-1 1-1s1 .4 1 1v3c0 .6-.4 1-1 1zm3 0c-.6 0-1-.4-1-1v-3c0-.6.4-1 1-1s1 .4 1 1v3c0 .6-.4 1-1 1zm7 0c-.6 0-1-.4-1-1v-3c0-.6.4-1 1-1s1 .4 1 1v3c0 .6-.4 1-1 1zm-4 0c-.6 0-1-.4-1-1v-3c0-.6.4-1 1-1s1 .4 1 1v3c0 .6-.4 1-1 1zm-6 50c-.6 0-1-.4-1-1v-38c0-.6.4-1 1-1s1 .4 1 1v38c0 .6-.4 1-1 1zM246 214c-.6 0-1-.4-1-1v-35c0-.6.4-1 1-1s1 .4 1 1v35c0 .6-.4 1-1 1zm7-1c-.6 0-1-.4-1-1v-34c0-.6.4-1 1-1s1 .4 1 1v34c0 .6-.4 1-1 1zm9-21c-.6 0-1-.4-1-1v-13c0-.6.4-1 1-1s1 .4 1 1v13c0 .6-.4 1-1 1zm7-7c-.6 0-1-.4-1-1v-6c0-.6.4-1 1-1s1 .4 1 1v6c0 .6-.4 1-1 1zm8 7c-.6 0-1-.4-1-1v-13c0-.6.4-1 1-1s1 .4 1 1v13c0 .6-.4 1-1 1zm8 21c-.6 0-1-.4-1-1v-34c0-.6.4-1 1-1s1 .4 1 1v34c0 .6-.4 1-1 1zm8 0c-.6 0-1-.4-1-1v-34c0-.6.4-1 1-1s1 .4 1 1v34c0 .6-.4 1-1 1z"/><path class="st0" d="M258 213.5c-.2 0-.5-.1-.6-.2l-.6-.5c-.3-.3-.4-.7-.3-1.1.1-.3.3-.5.6-.6V191c0-.6.4-1 1-1h22.8c.3 0 .6.1.7.3l.2.2c.2.2.3.4.3.7V212c0 .6-.4 1-1 1H259c-.1.2-.3.3-.5.4-.2.1-.4.1-.5.1zm1-2.5h21v-19h-21v19zm24-61c-.6 0-1-.4-1-1v-13h-25v13c0 .6-.4 1-1 1s-1-.4-1-1v-14c0-.6.4-1 1-1h26.7c.4 0 .8.2.9.6l.3.7c.1.1.1.3.1.4V149c0 .6-.4 1-1 1z"/><path class="st0" d="M300 213h-62c-.6 0-1-.4-1-1v-34c0-.6.4-1 1-1h62c.6 0 1 .4 1 1v34c0 .6-.4 1-1 1zm-61-2h60v-32h-60v32z"/><path class="st0" d="M237.9 178.6c-.3 0-.5-.1-.7-.3s-.3-.6-.3-.9c0-17.8 14.5-32.4 32.3-32.4 8.6 0 16.7 3.5 22.8 9.6 6.1 6.1 9.4 14.3 9.4 22.9 0 .6-.4 1-1 1l-62.5.1zm31.2-31.6c-16.3 0-29.7 13.2-30.2 29.4l60.5.1c-.2-7.7-3.4-15-8.8-20.5-5.8-5.7-13.4-9-21.5-9zm6.8 45h-13.6c-.6 0-1-.4-1-1 0-4.4 3.3-7.8 7.8-7.8 4.3 0 7.4 6.6 7.7 7.4.1.3.1.7-.1 1-.1.2-.4.4-.8.4zm-12.4-2h10.8c-1.1-2-3.2-4.8-5.1-4.8-3 0-5.3 2-5.7 4.8z"/><path class="st0" d="M272.6 145h-6.8c-.6 0-1-.3-1-.8 0-2.5 1.9-4.2 4.4-4.2 2.4 0 4 3.1 4.3 3.8.1.3.1.6-.1.9-.2.2-.5.3-.8.3zm-5.6-2h3.9c-.5-.8-1.2-1.4-1.7-1.4-1.1 0-1.9.6-2.2 1.4zm2 70c-.6 0-1-.4-1-1v-21c0-.6.4-1 1-1s1 .4 1 1v21c0 .6-.4 1-1 1zm6-42h-12c-.6 0-1-.4-1-1v-11c0-.6.4-1 1-1h12c.6 0 1 .4 1 1v11c0 .6-.4 1-1 1zm-11-2h10v-9h-10v9z"/><path class="st0" d="M280.8 213.5c-.2 0-.5-.1-.7-.3l-23.4-21.3c-.4-.4-.4-1-.1-1.4.4-.4 1-.4 1.4-.1l23.4 21.3c.4.4.4 1 .1 1.4-.1.3-.4.4-.7.4z"/><path class="st0" d="M257.4 213.5c-.3 0-.5-.1-.7-.3-.4-.4-.3-1 .1-1.4l23.4-21.3c.4-.4 1-.3 1.4.1.4.4.3 1-.1 1.4L258 213.3c-.1.1-.4.2-.6.2zm25.3-77.5h-27.1c-.4 0-.8-.3-.9-.7-.1-.4 0-.8.3-1.1l13.5-10.6c.4-.3.9-.3 1.2 0l13.6 10.6c.3.3.5.7.3 1.1-.1.4-.5.7-.9.7zm-24.2-2h21.3l-10.7-8.4-10.6 8.4z"/><g><path class="st0" d="M594 192h-74c-.6 0-1-.4-1-1v-43c0-.6.4-1 1-1h74c.6 0 1 .4 1 1v43c0 .6-.4 1-1 1zm-73-2h72v-41h-72v41z"/><path class="st0" d="M588.1 154.9c-4 0-7.2-3.2-7.2-7.2 0-.6.4-1 1-1s1 .4 1 1c0 2.9 2.3 5.2 5.2 5.2 2.9 0 5.2-2.3 5.2-5.2 0-.6.4-1 1-1s1 .4 1 1c0 4-3.2 7.2-7.2 7.2zm-24.9 0c-4 0-7.2-3.2-7.2-7.2 0-.6.4-1 1-1s1 .4 1 1c0 2.9 2.3 5.2 5.2 5.2 2.9 0 5.2-2.3 5.2-5.2 0-.6.4-1 1-1s1 .4 1 1c0 4-3.2 7.2-7.2 7.2zm-12.6 15.3c-.6 0-1-.4-1-1 0-4 3.2-7.2 7.2-7.2s7.2 3.2 7.2 7.2c0 .6-.4 1-1 1s-1-.4-1-1c0-2.9-2.3-5.2-5.2-5.2-2.9 0-5.2 2.3-5.2 5.2 0 .6-.5 1-1 1z"/><path class="st0" d="M550.8 154.9c-4 0-7.2-3.2-7.2-7.2 0-.6.4-1 1-1s1 .4 1 1c0 2.9 2.3 5.2 5.2 5.2 2.9 0 5.2-2.3 5.2-5.2 0-.6.4-1 1-1s1 .4 1 1c0 4-3.2 7.2-7.2 7.2zm-24.9 0c-4 0-7.2-3.2-7.2-7.2 0-.6.4-1 1-1s1 .4 1 1c0 2.9 2.3 5.2 5.2 5.2 2.9 0 5.2-2.3 5.2-5.2 0-.6.4-1 1-1s1 .4 1 1c0 4-3.2 7.2-7.2 7.2z"/><path class="st0" d="M538.3 154.9c-4 0-7.2-3.2-7.2-7.2 0-.6.4-1 1-1s1 .4 1 1c0 2.9 2.3 5.2 5.2 5.2 2.9 0 5.2-2.3 5.2-5.2 0-.6.4-1 1-1s1 .4 1 1c0 4-3.2 7.2-7.2 7.2zm37.4 0c-4 0-7.2-3.2-7.2-7.2 0-.6.4-1 1-1s1 .4 1 1c0 2.9 2.3 5.2 5.2 5.2 2.9 0 5.2-2.3 5.2-5.2 0-.6.4-1 1-1s1 .4 1 1c0 4-3.2 7.2-7.2 7.2zM563 192h-12c-.6 0-1-.4-1-1v-21.2c-.3-.2-.5-.7-.4-1.1.1-.4.5-.7 1-.7H563c.6 0 1 .4 1 1v22.1c0 .5-.5.9-1 .9zm-11-2h10v-20h-10v20zm-8-9h-11c-.6 0-1-.4-1-1v-10h-.1c-.5-.1-.8-.6-.7-1.1s.5-.9 1-.9H544c.6 0 1 .4 1 1v10.1c.3.2.6.5.6.9 0 .5-.4 1-1 1h-.6zm-10-2h9v-9h-9v9zm48 2h-12c-.6 0-1-.4-1-1v-10.1c-.4-.2-.6-.7-.5-1.1.1-.5.5-.8 1-.8H582c.6 0 1 .4 1 1v11c0 .3-.1.5-.3.7-.2.2-.4.3-.7.3zm-11-2h10v-9h-10v9z"/><path class="st0" d="M550.6 181c-.6 0-1-.4-1-1s.4-1 1-1H563c.6 0 1 .4 1 1s-.4 1-1 1h-12.4zm6.2-10.8c-.3 0-.7-.2-.9-.5l-3.1-5.4c-.3-.5-.1-1.1.4-1.4.5-.3 1.1-.1 1.4.4l3.1 5.4c.3.5.1 1.1-.4 1.4-.2.1-.4.1-.5.1z"/><path class="st0" d="M556.8 170.2c-.2 0-.3 0-.5-.1-.5-.3-.6-.9-.4-1.4l3.1-5.4c.3-.5.9-.6 1.4-.4.5.3.6.9.4 1.4l-3.1 5.4c-.2.4-.6.5-.9.5zM544 170h-11c-.6 0-1-.4-1-1v-2c0-.6.4-1 1-1h11c.6 0 1 .4 1 1v2c0 .6-.4 1-1 1zm-10-2h9-9zm48 2h-12c-.6 0-1-.4-1-1v-2c0-.6.4-1 1-1h12c.6 0 1 .4 1 1v2c0 .6-.4 1-1 1zm-11-2h10-10z"/></g><g><path class="st0" d="M587.2 101c-2 0-3.6-1.6-3.6-3.6 0-.6.4-1 1-1s1 .4 1 1c0 .9.7 1.6 1.6 1.6.6 0 1 .4 1 1s-.4 1-1 1z"/><path class="st0" d="M587.2 101c-.6 0-1-.4-1-1s.4-1 1-1c.9 0 1.6-.7 1.6-1.6 0-.6.4-1 1-1s1 .4 1 1c0 2-1.6 3.6-3.6 3.6z"/><path class="st0" d="M592.4 101c-2 0-3.6-1.6-3.6-3.6 0-.6.4-1 1-1s1 .4 1 1c0 .9.7 1.6 1.6 1.6.6 0 1 .4 1 1s-.5 1-1 1z"/><path class="st0" d="M592.4 101c-.6 0-1-.4-1-1s.4-1 1-1c.9 0 1.6-.7 1.6-1.6 0-.6.4-1 1-1s1 .4 1 1c0 2-1.7 3.6-3.6 3.6z"/><path class="st0" d="M597.5 101c-2 0-3.6-1.6-3.6-3.6 0-.6.4-1 1-1s1 .4 1 1c0 .9.7 1.6 1.6 1.6.6 0 1 .4 1 1s-.4 1-1 1z"/><path class="st0" d="M597.5 101c-.6 0-1-.4-1-1s.4-1 1-1c.9 0 1.6-.7 1.6-1.6 0-.6.4-1 1-1s1 .4 1 1c0 2-1.6 3.6-3.6 3.6z"/><path class="st0" d="M602.7 101c-2 0-3.6-1.6-3.6-3.6 0-.6.4-1 1-1s1 .4 1 1c0 .9.7 1.6 1.6 1.6.6 0 1 .4 1 1s-.5 1-1 1zm60.3 11.6c-.6 0-1-.4-1-1s.4-1 1-1c.9 0 1.6-.7 1.6-1.6 0-.6.4-1 1-1s1 .4 1 1c0 2-1.6 3.6-3.6 3.6zm10.3 0c-.6 0-1-.4-1-1s.4-1 1-1c.9 0 1.6-.7 1.6-1.6 0-.6.4-1 1-1s1 .4 1 1c0 2-1.6 3.6-3.6 3.6z"/><path class="st0" d="M668.2 112.6c-2 0-3.6-1.6-3.6-3.6 0-.6.4-1 1-1s1 .4 1 1c0 .9.7 1.6 1.6 1.6.6 0 1 .4 1 1s-.5 1-1 1zm10.3 0c-2 0-3.6-1.6-3.6-3.6 0-.6.4-1 1-1s1 .4 1 1c0 .9.7 1.6 1.6 1.6.6 0 1 .4 1 1s-.5 1-1 1zm-5.2 0c-2 0-3.6-1.6-3.6-3.6 0-.6.4-1 1-1s1 .4 1 1c0 .9.7 1.6 1.6 1.6.6 0 1 .4 1 1s-.4 1-1 1z"/><path class="st0" d="M668.2 112.6c-.6 0-1-.4-1-1s.4-1 1-1c.9 0 1.6-.7 1.6-1.6 0-.6.4-1 1-1s1 .4 1 1c-.1 2-1.7 3.6-3.6 3.6zM647.6 92c-.6 0-1-.4-1-1s.4-1 1-1c.9 0 1.6-.7 1.6-1.6 0-.6.4-1 1-1s1 .4 1 1c0 2-1.6 3.6-3.6 3.6z"/><path class="st0" d="M652.8 92c-2 0-3.6-1.6-3.6-3.6 0-.6.4-1 1-1s1 .4 1 1c0 .9.7 1.6 1.6 1.6.6 0 1 .4 1 1s-.5 1-1 1z"/><path class="st0" d="M652.8 92c-.6 0-1-.4-1-1s.4-1 1-1c.9 0 1.6-.7 1.6-1.6 0-.6.4-1 1-1s1 .4 1 1c-.1 2-1.7 3.6-3.6 3.6z"/><path class="st0" d="M657.9 92c-2 0-3.6-1.6-3.6-3.6 0-.6.4-1 1-1s1 .4 1 1c0 .9.7 1.6 1.6 1.6.6 0 1 .4 1 1s-.4 1-1 1zm-55.1 20.6c-.6 0-1-.4-1-1s.4-1 1-1c.9 0 1.6-.7 1.6-1.6 0-.6.4-1 1-1s1 .4 1 1c-.1 2-1.7 3.6-3.6 3.6z"/><path class="st0" d="M607.9 112.6c-2 0-3.6-1.6-3.6-3.6 0-.6.4-1 1-1s1 .4 1 1c0 .9.7 1.6 1.6 1.6.6 0 1 .4 1 1s-.4 1-1 1z"/><path class="st0" d="M607.9 112.6c-.6 0-1-.4-1-1s.4-1 1-1c.9 0 1.6-.7 1.6-1.6 0-.6.4-1 1-1s1 .4 1 1c0 2-1.6 3.6-3.6 3.6z"/><path class="st0" d="M613 112.6c-2 0-3.6-1.6-3.6-3.6 0-.6.4-1 1-1s1 .4 1 1c0 .9.7 1.6 1.6 1.6.6 0 1 .4 1 1s-.4 1-1 1zm-3.9-18c-.6 0-1-.4-1-1s.4-1 1-1c.9 0 1.6-.7 1.6-1.6 0-.6.4-1 1-1s1 .4 1 1c-.1 2-1.7 3.6-3.6 3.6z"/><path class="st0" d="M614.2 94.6c-2 0-3.6-1.6-3.6-3.6 0-.6.4-1 1-1s1 .4 1 1c0 .9.7 1.6 1.6 1.6.6 0 1 .4 1 1s-.4 1-1 1z"/><path class="st0" d="M614.2 94.6c-.6 0-1-.4-1-1s.4-1 1-1c.9 0 1.6-.7 1.6-1.6 0-.6.4-1 1-1s1 .4 1 1c0 2-1.6 3.6-3.6 3.6z"/><path class="st0" d="M619.4 94.6c-2 0-3.6-1.6-3.6-3.6 0-.6.4-1 1-1s1 .4 1 1c0 .9.7 1.6 1.6 1.6.6 0 1 .4 1 1s-.5 1-1 1z"/><path class="st0" d="M619.4 94.6c-.6 0-1-.4-1-1s.4-1 1-1c.9 0 1.6-.7 1.6-1.6 0-.6.4-1 1-1s1 .4 1 1c-.1 2-1.7 3.6-3.6 3.6z"/><path class="st0" d="M624.5 94.6c-2 0-3.6-1.6-3.6-3.6 0-.6.4-1 1-1s1 .4 1 1c0 .9.7 1.6 1.6 1.6.6 0 1 .4 1 1s-.4 1-1 1zm7.3 12.7c-.6 0-1-.4-1-1s.4-1 1-1c.9 0 1.7-.7 1.7-1.7 0-.6.4-1 1-1s1 .4 1 1c0 2.1-1.7 3.7-3.7 3.7z"/><path class="st0" d="M637.1 107.3c-2 0-3.7-1.6-3.7-3.7 0-.6.4-1 1-1s1 .4 1 1c0 .9.7 1.7 1.7 1.7.6 0 1 .4 1 1s-.4 1-1 1z"/><path class="st0" d="M637.1 107.3c-.6 0-1-.4-1-1s.4-1 1-1c.9 0 1.7-.7 1.7-1.7 0-.6.4-1 1-1s1 .4 1 1c0 2.1-1.6 3.7-3.7 3.7z"/><path class="st0" d="M642.4 107.3c-2 0-3.6-1.6-3.6-3.6 0-.6.4-1 1-1s1 .4 1 1c0 .9.7 1.6 1.6 1.6.6 0 1 .4 1 1s-.5 1-1 1z"/><path class="st0" d="M642.4 107.3c-.6 0-1-.4-1-1s.4-1 1-1c.9 0 1.6-.7 1.6-1.6 0-.6.4-1 1-1s1 .4 1 1c-.1 2-1.7 3.6-3.6 3.6z"/><path class="st0" d="M647.5 107.3c-2 0-3.6-1.6-3.6-3.6 0-.6.4-1 1-1s1 .4 1 1c0 .9.7 1.6 1.6 1.6.6 0 1 .4 1 1s-.4 1-1 1zM656.6 101c-.6 0-1-.4-1-1s.4-1 1-1c.9 0 1.6-.7 1.6-1.6 0-.6.4-1 1-1s1 .4 1 1c0 2-1.6 3.6-3.6 3.6z"/><path class="st0" d="M661.7 101c-2 0-3.6-1.6-3.6-3.6 0-.6.4-1 1-1s1 .4 1 1c0 .9.7 1.6 1.6 1.6.6 0 1 .4 1 1s-.4 1-1 1z"/><path class="st0" d="M661.7 101c-.6 0-1-.4-1-1s.4-1 1-1c.9 0 1.6-.7 1.6-1.6 0-.6.4-1 1-1s1 .4 1 1c0 2-1.6 3.6-3.6 3.6z"/><path class="st0" d="M666.9 101c-2 0-3.6-1.6-3.6-3.6 0-.6.4-1 1-1s1 .4 1 1c0 .9.7 1.6 1.6 1.6.6 0 1 .4 1 1s-.5 1-1 1z"/><path class="st0" d="M666.9 101c-.6 0-1-.4-1-1s.4-1 1-1c.9 0 1.6-.7 1.6-1.6 0-.6.4-1 1-1s1 .4 1 1c0 2-1.6 3.6-3.6 3.6z"/><path class="st0" d="M672 101c-2 0-3.6-1.6-3.6-3.6 0-.6.4-1 1-1s1 .4 1 1c0 .9.7 1.6 1.6 1.6.6 0 1 .4 1 1s-.4 1-1 1zM624.5 94.6c-.6 0-1-.4-1-1s.4-1 1-1c.9 0 1.6-.7 1.6-1.6 0-.6.4-1 1-1s1 .4 1 1c0 2-1.6 3.6-3.6 3.6z"/><path class="st0" d="M629.6 94.6c-2 0-3.6-1.6-3.6-3.6 0-.6.4-1 1-1s1 .4 1 1c0 .9.7 1.6 1.6 1.6.6 0 1 .4 1 1s-.4 1-1 1z"/><path class="st0" d="M629.6 94.6c-.6 0-1-.4-1-1s.4-1 1-1c.9 0 1.6-.7 1.6-1.6 0-.6.4-1 1-1s1 .4 1 1c0 2-1.6 3.6-3.6 3.6z"/><path class="st0" d="M634.8 94.6c-2 0-3.6-1.6-3.6-3.6 0-.6.4-1 1-1s1 .4 1 1c0 .9.7 1.6 1.6 1.6.6 0 1 .4 1 1s-.5 1-1 1z"/><g><path class="st0" d="M622.8 120.9c-3.2 0-5.7-2.6-5.7-5.7s2.6-5.7 5.7-5.7 5.7 2.6 5.7 5.7-2.5 5.7-5.7 5.7zm0-9.5c-2.1 0-3.7 1.7-3.7 3.7s1.7 3.7 3.7 3.7c2.1 0 3.7-1.7 3.7-3.7s-1.6-3.7-3.7-3.7z"/><path class="st0" d="M623 128c-.6 0-1-.4-1-1v-9c0-.6.4-1 1-1s1 .4 1 1v9c0 .6-.4 1-1 1z"/><path class="st0" d="M622.9 119.3c-.3 0-.7-.2-.9-.5l-1.4-2.4c-.3-.5-.1-1.1.4-1.4.5-.3 1.1-.1 1.4.4l1.4 2.4c.3.5.1 1.1-.4 1.4-.2.1-.4.1-.5.1z"/><path class="st0" d="M622.8 119.6c-.2 0-.3 0-.5-.1-.5-.3-.6-.9-.4-1.4l2.1-3.7c.3-.5.9-.6 1.4-.4.5.3.6.9.4 1.4l-2.1 3.7c-.2.3-.5.5-.9.5z"/></g><g><path class="st0" d="M664 84c-.6 0-1-.4-1-1V64c0-.6.4-1 1-1s1 .4 1 1v19c0 .6-.4 1-1 1z"/><path class="st0" d="M660.3 68.8c-.6 0-1-.4-1-1s.4-1 1-1c1.5 0 2.7-1.2 2.7-2.7 0-.6.4-1 1-1s1 .4 1 1c0 2.6-2.1 4.7-4.7 4.7z"/><path class="st0" d="M660.3 71.8c-.6 0-1-.4-1-1s.4-1 1-1c1.5 0 2.7-1.2 2.7-2.7 0-.6.4-1 1-1s1 .4 1 1c0 2.6-2.1 4.7-4.7 4.7z"/><path class="st0" d="M660.3 74.9c-.6 0-1-.4-1-1s.4-1 1-1c1.5 0 2.7-1.2 2.7-2.7 0-.6.4-1 1-1s1 .4 1 1c0 2.6-2.1 4.7-4.7 4.7z"/><path class="st0" d="M660.3 78c-.6 0-1-.4-1-1s.4-1 1-1c1.5 0 2.7-1.2 2.7-2.7 0-.6.4-1 1-1s1 .4 1 1c0 2.6-2.1 4.7-4.7 4.7zm7.3-9.2c-2.6 0-4.7-2.1-4.7-4.7 0-.6.4-1 1-1s1 .4 1 1c0 1.5 1.2 2.7 2.7 2.7.6 0 1 .4 1 1s-.4 1-1 1z"/><path class="st0" d="M667.6 71.8c-2.6 0-4.7-2.1-4.7-4.7 0-.6.4-1 1-1s1 .4 1 1c0 1.5 1.2 2.7 2.7 2.7.6 0 1 .4 1 1s-.4 1-1 1z"/><path class="st0" d="M667.6 74.9c-2.6 0-4.7-2.1-4.7-4.7 0-.6.4-1 1-1s1 .4 1 1c0 1.5 1.2 2.7 2.7 2.7.6 0 1 .4 1 1s-.4 1-1 1z"/><path class="st0" d="M667.6 78c-2.6 0-4.7-2.1-4.7-4.7 0-.6.4-1 1-1s1 .4 1 1c0 1.5 1.2 2.7 2.7 2.7.6 0 1 .4 1 1s-.4 1-1 1z"/></g><g><path class="st0" d="M593 84c-.6 0-1-.4-1-1V64c0-.6.4-1 1-1s1 .4 1 1v19c0 .6-.4 1-1 1z"/><path class="st0" d="M589 68.8c-.6 0-1-.4-1-1s.4-1 1-1c1.5 0 2.7-1.2 2.7-2.7 0-.6.4-1 1-1s1 .4 1 1c0 2.6-2.1 4.7-4.7 4.7z"/><path class="st0" d="M589 71.9c-.6 0-1-.4-1-1s.4-1 1-1c1.5 0 2.7-1.2 2.7-2.7 0-.6.4-1 1-1s1 .4 1 1c0 2.6-2.1 4.7-4.7 4.7z"/><path class="st0" d="M589 75c-.6 0-1-.4-1-1s.4-1 1-1c1.5 0 2.7-1.2 2.7-2.7 0-.6.4-1 1-1s1 .4 1 1c0 2.6-2.1 4.7-4.7 4.7z"/><path class="st0" d="M589 78c-.6 0-1-.4-1-1s.4-1 1-1c1.5 0 2.7-1.2 2.7-2.7 0-.6.4-1 1-1s1 .4 1 1c0 2.7-2.1 4.7-4.7 4.7zm7.4-9.2c-2.6 0-4.7-2.1-4.7-4.7 0-.6.4-1 1-1s1 .4 1 1c0 1.5 1.2 2.7 2.7 2.7.6 0 1 .4 1 1s-.5 1-1 1z"/><path class="st0" d="M596.4 71.9c-2.6 0-4.7-2.1-4.7-4.7 0-.6.4-1 1-1s1 .4 1 1c0 1.5 1.2 2.7 2.7 2.7.6 0 1 .4 1 1s-.5 1-1 1z"/><path class="st0" d="M596.4 75c-2.6 0-4.7-2.1-4.7-4.7 0-.6.4-1 1-1s1 .4 1 1c0 1.5 1.2 2.7 2.7 2.7.6 0 1 .4 1 1s-.5 1-1 1z"/><path class="st0" d="M596.4 78c-2.6 0-4.7-2.1-4.7-4.7 0-.6.4-1 1-1s1 .4 1 1c0 1.5 1.2 2.7 2.7 2.7.6 0 1 .4 1 1s-.5 1-1 1z"/></g><g><path class="st0" d="M664.3 120H626c-.6 0-1-.4-1-1s.4-1 1-1h38.3c9.2 0 16.7-8 16.7-17.9v-.1c0-9.5-7.3-17-16.7-17h-70.9c-9.6 0-17.4 7.6-17.4 17v.1c0 9.7 8 17.9 17.4 17.9H619c.6 0 1 .4 1 1s-.4 1-1 1h-25.6c-10.5 0-19.4-9.1-19.4-19.9v-.1c0-10.5 8.7-19 19.4-19h70.9c10.5 0 18.7 8.3 18.7 19v.1c0 11-8.4 19.9-18.7 19.9z"/></g><g><path class="st0" d="M630 84c-.6 0-1-.4-1-1v-7c0-.6.4-1 1-1s1 .4 1 1v7c0 .6-.4 1-1 1z"/><path class="st0" d="M629.5 77.1c-1.9 0-3.4-1.5-3.4-3.4s1.5-3.4 3.4-3.4 3.4 1.5 3.4 3.4-1.5 3.4-3.4 3.4zm0-4.9c-.8 0-1.4.6-1.4 1.4s.6 1.4 1.4 1.4 1.4-.6 1.4-1.4-.6-1.4-1.4-1.4z"/><path class="st0" d="M630 73c-.6 0-1-.4-1-1v-4c0-.6.4-1 1-1s1 .4 1 1v4c0 .6-.4 1-1 1zm-3 2h-2c-.6 0-1-.4-1-1s.4-1 1-1h2c.6 0 1 .4 1 1s-.4 1-1 1zm8 0h-3c-.6 0-1-.4-1-1s.4-1 1-1h3c.6 0 1 .4 1 1s-.4 1-1 1zm-7.1-2c-.3 0-.5-.1-.7-.3l-1.7-1.7c-.4-.4-.4-1 0-1.4s1-.4 1.4 0l1.7 1.7c.4.4.4 1 0 1.4-.2.2-.5.3-.7.3z"/><path class="st0" d="M633 78.1c-.3 0-.5-.1-.7-.3l-1.7-1.7c-.4-.4-.4-1 0-1.4s1-.4 1.4 0l1.7 1.7c.4.4.4 1 0 1.4-.2.2-.5.3-.7.3zm-6.9 0c-.3 0-.5-.1-.7-.3-.4-.4-.4-1 0-1.4l1.7-1.7c.4-.4 1-.4 1.4 0s.4 1 0 1.4l-1.7 1.7c-.1.2-.4.3-.7.3zm5.1-5.1c-.3 0-.5-.1-.7-.3-.4-.4-.4-1 0-1.4l1.7-1.7c.4-.4 1-.4 1.4 0s.4 1 0 1.4l-1.7 1.7c-.1.2-.4.3-.7.3z"/></g></g><g><path class="st0" d="M13.2 101c-2 0-3.6-1.6-3.6-3.6 0-.6.4-1 1-1s1 .4 1 1c0 .9.7 1.6 1.6 1.6.6 0 1 .4 1 1s-.4 1-1 1z"/><path class="st0" d="M13.2 101c-.6 0-1-.4-1-1s.4-1 1-1c.9 0 1.6-.7 1.6-1.6 0-.6.4-1 1-1s1 .4 1 1c0 2-1.6 3.6-3.6 3.6z"/><path class="st0" d="M18.4 101c-2 0-3.6-1.6-3.6-3.6 0-.6.4-1 1-1s1 .4 1 1c0 .9.7 1.6 1.6 1.6.6 0 1 .4 1 1s-.5 1-1 1z"/><path class="st0" d="M18.4 101c-.6 0-1-.4-1-1s.4-1 1-1c.9 0 1.6-.7 1.6-1.6 0-.6.4-1 1-1s1 .4 1 1c0 2-1.7 3.6-3.6 3.6z"/><path class="st0" d="M23.5 101c-2 0-3.6-1.6-3.6-3.6 0-.6.4-1 1-1s1 .4 1 1c0 .9.7 1.6 1.6 1.6.6 0 1 .4 1 1s-.4 1-1 1z"/><path class="st0" d="M23.5 101c-.6 0-1-.4-1-1s.4-1 1-1c.9 0 1.6-.7 1.6-1.6 0-.6.4-1 1-1s1 .4 1 1c0 2-1.6 3.6-3.6 3.6z"/><path class="st0" d="M28.7 101c-2 0-3.6-1.6-3.6-3.6 0-.6.4-1 1-1s1 .4 1 1c0 .9.7 1.6 1.6 1.6.6 0 1 .4 1 1s-.5 1-1 1zM89 112.6c-.6 0-1-.4-1-1s.4-1 1-1c.9 0 1.6-.7 1.6-1.6 0-.6.4-1 1-1s1 .4 1 1c0 2-1.6 3.6-3.6 3.6zm10.3 0c-.6 0-1-.4-1-1s.4-1 1-1c.9 0 1.6-.7 1.6-1.6 0-.6.4-1 1-1s1 .4 1 1c0 2-1.6 3.6-3.6 3.6z"/><path class="st0" d="M94.2 112.6c-2 0-3.6-1.6-3.6-3.6 0-.6.4-1 1-1s1 .4 1 1c0 .9.7 1.6 1.6 1.6.6 0 1 .4 1 1s-.5 1-1 1zm10.3 0c-2 0-3.6-1.6-3.6-3.6 0-.6.4-1 1-1s1 .4 1 1c0 .9.7 1.6 1.6 1.6.6 0 1 .4 1 1s-.5 1-1 1zm-5.2 0c-2 0-3.6-1.6-3.6-3.6 0-.6.4-1 1-1s1 .4 1 1c0 .9.7 1.6 1.6 1.6.6 0 1 .4 1 1s-.4 1-1 1z"/><path class="st0" d="M94.2 112.6c-.6 0-1-.4-1-1s.4-1 1-1c.9 0 1.6-.7 1.6-1.6 0-.6.4-1 1-1s1 .4 1 1c-.1 2-1.7 3.6-3.6 3.6zM73.6 92c-.6 0-1-.4-1-1s.4-1 1-1c.9 0 1.6-.7 1.6-1.6 0-.6.4-1 1-1s1 .4 1 1c0 2-1.6 3.6-3.6 3.6z"/><path class="st0" d="M78.8 92c-2 0-3.6-1.6-3.6-3.6 0-.6.4-1 1-1s1 .4 1 1c0 .9.7 1.6 1.6 1.6.6 0 1 .4 1 1s-.5 1-1 1z"/><path class="st0" d="M78.8 92c-.6 0-1-.4-1-1s.4-1 1-1c.9 0 1.6-.7 1.6-1.6 0-.6.4-1 1-1s1 .4 1 1c-.1 2-1.7 3.6-3.6 3.6z"/><path class="st0" d="M83.9 92c-2 0-3.6-1.6-3.6-3.6 0-.6.4-1 1-1s1 .4 1 1c0 .9.7 1.6 1.6 1.6.6 0 1 .4 1 1s-.4 1-1 1zm-55.1 20.6c-.6 0-1-.4-1-1s.4-1 1-1c.9 0 1.6-.7 1.6-1.6 0-.6.4-1 1-1s1 .4 1 1c-.1 2-1.7 3.6-3.6 3.6z"/><path class="st0" d="M33.9 112.6c-2 0-3.6-1.6-3.6-3.6 0-.6.4-1 1-1s1 .4 1 1c0 .9.7 1.6 1.6 1.6.6 0 1 .4 1 1s-.4 1-1 1z"/><path class="st0" d="M33.9 112.6c-.6 0-1-.4-1-1s.4-1 1-1c.9 0 1.6-.7 1.6-1.6 0-.6.4-1 1-1s1 .4 1 1c0 2-1.6 3.6-3.6 3.6z"/><path class="st0" d="M39 112.6c-2 0-3.6-1.6-3.6-3.6 0-.6.4-1 1-1s1 .4 1 1c0 .9.7 1.6 1.6 1.6.6 0 1 .4 1 1s-.4 1-1 1zm-3.9-18c-.6 0-1-.4-1-1s.4-1 1-1c.9 0 1.6-.7 1.6-1.6 0-.6.4-1 1-1s1 .4 1 1c-.1 2-1.7 3.6-3.6 3.6z"/><path class="st0" d="M40.2 94.6c-2 0-3.6-1.6-3.6-3.6 0-.6.4-1 1-1s1 .4 1 1c0 .9.7 1.6 1.6 1.6.6 0 1 .4 1 1s-.4 1-1 1z"/><path class="st0" d="M40.2 94.6c-.6 0-1-.4-1-1s.4-1 1-1c.9 0 1.6-.7 1.6-1.6 0-.6.4-1 1-1s1 .4 1 1c0 2-1.6 3.6-3.6 3.6z"/><path class="st0" d="M45.4 94.6c-2 0-3.6-1.6-3.6-3.6 0-.6.4-1 1-1s1 .4 1 1c0 .9.7 1.6 1.6 1.6.6 0 1 .4 1 1s-.5 1-1 1z"/><path class="st0" d="M45.4 94.6c-.6 0-1-.4-1-1s.4-1 1-1c.9 0 1.6-.7 1.6-1.6 0-.6.4-1 1-1s1 .4 1 1c-.1 2-1.7 3.6-3.6 3.6z"/><path class="st0" d="M50.5 94.6c-2 0-3.6-1.6-3.6-3.6 0-.6.4-1 1-1s1 .4 1 1c0 .9.7 1.6 1.6 1.6.6 0 1 .4 1 1s-.4 1-1 1zm7.3 12.7c-.6 0-1-.4-1-1s.4-1 1-1c.9 0 1.7-.7 1.7-1.7 0-.6.4-1 1-1s1 .4 1 1c0 2.1-1.7 3.7-3.7 3.7z"/><path class="st0" d="M63.1 107.3c-2 0-3.7-1.6-3.7-3.7 0-.6.4-1 1-1s1 .4 1 1c0 .9.7 1.7 1.7 1.7.6 0 1 .4 1 1s-.4 1-1 1z"/><path class="st0" d="M63.1 107.3c-.6 0-1-.4-1-1s.4-1 1-1c.9 0 1.7-.7 1.7-1.7 0-.6.4-1 1-1s1 .4 1 1c0 2.1-1.6 3.7-3.7 3.7z"/><path class="st0" d="M68.4 107.3c-2 0-3.6-1.6-3.6-3.6 0-.6.4-1 1-1s1 .4 1 1c0 .9.7 1.6 1.6 1.6.6 0 1 .4 1 1s-.5 1-1 1z"/><path class="st0" d="M68.4 107.3c-.6 0-1-.4-1-1s.4-1 1-1c.9 0 1.6-.7 1.6-1.6 0-.6.4-1 1-1s1 .4 1 1c-.1 2-1.7 3.6-3.6 3.6z"/><path class="st0" d="M73.5 107.3c-2 0-3.6-1.6-3.6-3.6 0-.6.4-1 1-1s1 .4 1 1c0 .9.7 1.6 1.6 1.6.6 0 1 .4 1 1s-.4 1-1 1zM82.6 101c-.6 0-1-.4-1-1s.4-1 1-1c.9 0 1.6-.7 1.6-1.6 0-.6.4-1 1-1s1 .4 1 1c0 2-1.6 3.6-3.6 3.6z"/><path class="st0" d="M87.7 101c-2 0-3.6-1.6-3.6-3.6 0-.6.4-1 1-1s1 .4 1 1c0 .9.7 1.6 1.6 1.6.6 0 1 .4 1 1s-.4 1-1 1z"/><path class="st0" d="M87.7 101c-.6 0-1-.4-1-1s.4-1 1-1c.9 0 1.6-.7 1.6-1.6 0-.6.4-1 1-1s1 .4 1 1c0 2-1.6 3.6-3.6 3.6z"/><path class="st0" d="M92.9 101c-2 0-3.6-1.6-3.6-3.6 0-.6.4-1 1-1s1 .4 1 1c0 .9.7 1.6 1.6 1.6.6 0 1 .4 1 1s-.5 1-1 1z"/><path class="st0" d="M92.9 101c-.6 0-1-.4-1-1s.4-1 1-1c.9 0 1.6-.7 1.6-1.6 0-.6.4-1 1-1s1 .4 1 1c0 2-1.6 3.6-3.6 3.6z"/><path class="st0" d="M98 101c-2 0-3.6-1.6-3.6-3.6 0-.6.4-1 1-1s1 .4 1 1c0 .9.7 1.6 1.6 1.6.6 0 1 .4 1 1s-.4 1-1 1zM50.5 94.6c-.6 0-1-.4-1-1s.4-1 1-1c.9 0 1.6-.7 1.6-1.6 0-.6.4-1 1-1s1 .4 1 1c0 2-1.6 3.6-3.6 3.6z"/><path class="st0" d="M55.6 94.6c-2 0-3.6-1.6-3.6-3.6 0-.6.4-1 1-1s1 .4 1 1c0 .9.7 1.6 1.6 1.6.6 0 1 .4 1 1s-.4 1-1 1z"/><path class="st0" d="M55.6 94.6c-.6 0-1-.4-1-1s.4-1 1-1c.9 0 1.6-.7 1.6-1.6 0-.6.4-1 1-1s1 .4 1 1c0 2-1.6 3.6-3.6 3.6z"/><path class="st0" d="M60.8 94.6c-2 0-3.6-1.6-3.6-3.6 0-.6.4-1 1-1s1 .4 1 1c0 .9.7 1.6 1.6 1.6.6 0 1 .4 1 1s-.5 1-1 1z"/><g><path class="st0" d="M48.8 120.9c-3.2 0-5.7-2.6-5.7-5.7s2.6-5.7 5.7-5.7 5.7 2.6 5.7 5.7-2.5 5.7-5.7 5.7zm0-9.5c-2.1 0-3.7 1.7-3.7 3.7s1.7 3.7 3.7 3.7c2.1 0 3.7-1.7 3.7-3.7s-1.6-3.7-3.7-3.7z"/><path class="st0" d="M49 128c-.6 0-1-.4-1-1v-9c0-.6.4-1 1-1s1 .4 1 1v9c0 .6-.4 1-1 1z"/><path class="st0" d="M48.9 119.3c-.3 0-.7-.2-.9-.5l-1.4-2.4c-.3-.5-.1-1.1.4-1.4.5-.3 1.1-.1 1.4.4l1.4 2.4c.3.5.1 1.1-.4 1.4-.2.1-.4.1-.5.1z"/><path class="st0" d="M48.8 119.6c-.2 0-.3 0-.5-.1-.5-.3-.6-.9-.4-1.4l2.1-3.7c.3-.5.9-.6 1.4-.4.5.3.6.9.4 1.4l-2.1 3.7c-.2.3-.5.5-.9.5z"/></g><g><path class="st0" d="M90 84c-.6 0-1-.4-1-1V64c0-.6.4-1 1-1s1 .4 1 1v19c0 .6-.4 1-1 1z"/><path class="st0" d="M86.3 68.8c-.6 0-1-.4-1-1s.4-1 1-1c1.5 0 2.7-1.2 2.7-2.7 0-.6.4-1 1-1s1 .4 1 1c0 2.6-2.1 4.7-4.7 4.7z"/><path class="st0" d="M86.3 71.8c-.6 0-1-.4-1-1s.4-1 1-1c1.5 0 2.7-1.2 2.7-2.7 0-.6.4-1 1-1s1 .4 1 1c0 2.6-2.1 4.7-4.7 4.7z"/><path class="st0" d="M86.3 74.9c-.6 0-1-.4-1-1s.4-1 1-1c1.5 0 2.7-1.2 2.7-2.7 0-.6.4-1 1-1s1 .4 1 1c0 2.6-2.1 4.7-4.7 4.7z"/><path class="st0" d="M86.3 78c-.6 0-1-.4-1-1s.4-1 1-1c1.5 0 2.7-1.2 2.7-2.7 0-.6.4-1 1-1s1 .4 1 1c0 2.6-2.1 4.7-4.7 4.7zm7.3-9.2c-2.6 0-4.7-2.1-4.7-4.7 0-.6.4-1 1-1s1 .4 1 1c0 1.5 1.2 2.7 2.7 2.7.6 0 1 .4 1 1s-.4 1-1 1z"/><path class="st0" d="M93.6 71.8c-2.6 0-4.7-2.1-4.7-4.7 0-.6.4-1 1-1s1 .4 1 1c0 1.5 1.2 2.7 2.7 2.7.6 0 1 .4 1 1s-.4 1-1 1z"/><path class="st0" d="M93.6 74.9c-2.6 0-4.7-2.1-4.7-4.7 0-.6.4-1 1-1s1 .4 1 1c0 1.5 1.2 2.7 2.7 2.7.6 0 1 .4 1 1s-.4 1-1 1z"/><path class="st0" d="M93.6 78c-2.6 0-4.7-2.1-4.7-4.7 0-.6.4-1 1-1s1 .4 1 1c0 1.5 1.2 2.7 2.7 2.7.6 0 1 .4 1 1s-.4 1-1 1z"/></g><g><path class="st0" d="M19 84c-.6 0-1-.4-1-1V64c0-.6.4-1 1-1s1 .4 1 1v19c0 .6-.4 1-1 1z"/><path class="st0" d="M15 68.8c-.6 0-1-.4-1-1s.4-1 1-1c1.5 0 2.7-1.2 2.7-2.7 0-.6.4-1 1-1s1 .4 1 1c0 2.6-2.1 4.7-4.7 4.7z"/><path class="st0" d="M15 71.9c-.6 0-1-.4-1-1s.4-1 1-1c1.5 0 2.7-1.2 2.7-2.7 0-.6.4-1 1-1s1 .4 1 1c0 2.6-2.1 4.7-4.7 4.7z"/><path class="st0" d="M15 75c-.6 0-1-.4-1-1s.4-1 1-1c1.5 0 2.7-1.2 2.7-2.7 0-.6.4-1 1-1s1 .4 1 1c0 2.6-2.1 4.7-4.7 4.7z"/><path class="st0" d="M15 78c-.6 0-1-.4-1-1s.4-1 1-1c1.5 0 2.7-1.2 2.7-2.7 0-.6.4-1 1-1s1 .4 1 1c0 2.7-2.1 4.7-4.7 4.7zm7.4-9.2c-2.6 0-4.7-2.1-4.7-4.7 0-.6.4-1 1-1s1 .4 1 1c0 1.5 1.2 2.7 2.7 2.7.6 0 1 .4 1 1s-.5 1-1 1z"/><path class="st0" d="M22.4 71.9c-2.6 0-4.7-2.1-4.7-4.7 0-.6.4-1 1-1s1 .4 1 1c0 1.5 1.2 2.7 2.7 2.7.6 0 1 .4 1 1s-.5 1-1 1z"/><path class="st0" d="M22.4 75c-2.6 0-4.7-2.1-4.7-4.7 0-.6.4-1 1-1s1 .4 1 1c0 1.5 1.2 2.7 2.7 2.7.6 0 1 .4 1 1s-.5 1-1 1z"/><path class="st0" d="M22.4 78c-2.6 0-4.7-2.1-4.7-4.7 0-.6.4-1 1-1s1 .4 1 1c0 1.5 1.2 2.7 2.7 2.7.6 0 1 .4 1 1s-.5 1-1 1z"/></g><g><path class="st0" d="M90.3 120H52c-.6 0-1-.4-1-1s.4-1 1-1h38.3c9.2 0 16.7-8 16.7-17.9v-.1c0-9.5-7.3-17-16.7-17H19.4C9.8 83 2 90.6 2 100v.1c0 9.7 8 17.9 17.4 17.9H45c.6 0 1 .4 1 1s-.4 1-1 1H19.4C8.9 120 0 110.9 0 100.1v-.1c0-10.5 8.7-19 19.4-19h70.9c10.5 0 18.7 8.3 18.7 19v.1c0 11-8.4 19.9-18.7 19.9z"/></g><g><path class="st0" d="M56 84c-.6 0-1-.4-1-1v-7c0-.6.4-1 1-1s1 .4 1 1v7c0 .6-.4 1-1 1z"/><path class="st0" d="M55.5 77.1c-1.9 0-3.4-1.5-3.4-3.4s1.5-3.4 3.4-3.4 3.4 1.5 3.4 3.4-1.5 3.4-3.4 3.4zm0-4.9c-.8 0-1.4.6-1.4 1.4s.6 1.4 1.4 1.4 1.4-.6 1.4-1.4-.6-1.4-1.4-1.4z"/><path class="st0" d="M56 73c-.6 0-1-.4-1-1v-4c0-.6.4-1 1-1s1 .4 1 1v4c0 .6-.4 1-1 1zm-3 2h-2c-.6 0-1-.4-1-1s.4-1 1-1h2c.6 0 1 .4 1 1s-.4 1-1 1zm8 0h-3c-.6 0-1-.4-1-1s.4-1 1-1h3c.6 0 1 .4 1 1s-.4 1-1 1zm-7.1-2c-.3 0-.5-.1-.7-.3L51.5 71c-.4-.4-.4-1 0-1.4s1-.4 1.4 0l1.7 1.7c.4.4.4 1 0 1.4-.2.2-.5.3-.7.3z"/><path class="st0" d="M59 78.1c-.3 0-.5-.1-.7-.3L56.5 76c-.4-.4-.4-1 0-1.4s1-.4 1.4 0l1.7 1.7c.4.4.4 1 0 1.4-.1.3-.4.4-.6.4zm-6.9 0c-.3 0-.5-.1-.7-.3-.4-.4-.4-1 0-1.4l1.7-1.7c.4-.4 1-.4 1.4 0s.4 1 0 1.4l-1.7 1.7c-.1.2-.4.3-.7.3zm5.1-5.1c-.3 0-.5-.1-.7-.3-.4-.4-.4-1 0-1.4l1.7-1.7c.4-.4 1-.4 1.4 0s.4 1 0 1.4L58 72.7c-.2.2-.5.3-.8.3z"/></g></g><g><path class="st0" d="M731.3 185H673c-.6 0-1-.4-1-1 0-5.8 5.2-11 11-11 .9 0 1.7.1 2.6.4.4-9.8 8.4-17.6 18.3-17.6 9.8 0 17.8 7.7 18.3 17.3 5.5.5 10.1 5.4 10.1 10.9 0 .6-.4 1-1 1zm-57.2-2h56.1c-.5-3.9-4.2-8-9-8-.6 0-1-.4-1-1 0-8.9-7.3-16.2-16.3-16.2s-16.3 7.3-16.3 16.3v.6c0 .3-.1.7-.4.9-.3.2-.6.3-.9.1-6.3-2.4-11.5 2.5-12.2 7.3z"/><path class="st0" d="M714.2 182.2c-.6 0-1-.4-1-1s.4-1 1-1c3.3 0 6-2.7 6-6 0-.6.4-1 1-1s1 .4 1 1c.1 4.4-3.5 8-8 8zm-9.9-6.4c-.6 0-1-.4-1-1 0-4.2-3.5-7.7-7.7-7.7s-7.7 3.5-7.7 7.7c0 .6-.4 1-1 1s-1-.4-1-1c0-5.3 4.3-9.7 9.7-9.7s9.7 4.3 9.7 9.7c0 .6-.4 1-1 1z"/></g><g><path class="st0" d="M308.4 110.4h-.2c-.5-.1-.9-.7-.7-1.2.8-3.2 3.3-5.9 6.5-6.9.5-.2 1.1.1 1.3.6.2.5-.1 1.1-.6 1.3-2.6.8-4.5 2.9-5.2 5.5-.2.4-.6.7-1.1.7z"/><path class="st0" d="M308.4 110.4c-.5 0-.9-.3-1-.8-.6-2.6-2.6-4.7-5.2-5.5-.5-.2-.8-.7-.6-1.3s.7-.8 1.3-.6c3.2 1 5.7 3.7 6.5 6.9.1.5-.2 1.1-.7 1.2-.1.1-.2.1-.3.1zm.1-6.8c-3.1 0-5.6-2.5-5.6-5.6s2.5-5.6 5.6-5.6 5.6 2.5 5.6 5.6-2.5 5.6-5.6 5.6zm0-9.1c-2 0-3.6 1.6-3.6 3.6s1.6 3.6 3.6 3.6 3.6-1.6 3.6-3.6-1.6-3.6-3.6-3.6zm43.9 15.9h-.2c-.5-.1-.9-.7-.7-1.2.8-3.2 3.3-5.9 6.5-6.9.5-.2 1.1.1 1.3.6s-.1 1.1-.6 1.3c-2.6.8-4.5 2.9-5.2 5.5-.3.4-.7.7-1.1.7z"/><path class="st0" d="M352.3 110.4c-.5 0-.9-.3-1-.8-.6-2.6-2.6-4.7-5.2-5.5-.5-.2-.8-.7-.6-1.3.2-.5.7-.8 1.3-.6 3.2 1 5.7 3.7 6.5 6.9.1.5-.2 1.1-.7 1.2-.1.1-.2.1-.3.1zm.1-6.8c-3.1 0-5.6-2.5-5.6-5.6s2.5-5.6 5.6-5.6 5.6 2.5 5.6 5.6-2.5 5.6-5.6 5.6zm0-9.1c-2 0-3.6 1.6-3.6 3.6s1.6 3.6 3.6 3.6 3.6-1.6 3.6-3.6-1.6-3.6-3.6-3.6zM330.4 102.4h-.2c-.5-.1-.9-.7-.7-1.2.8-3.2 3.3-5.9 6.5-6.9.5-.2 1.1.1 1.3.6.2.5-.1 1.1-.6 1.3-2.6.8-4.5 2.9-5.2 5.5-.2.4-.7.7-1.1.7z"/><path class="st0" d="M330.4 102.4c-.5 0-.9-.3-1-.8-.6-2.6-2.6-4.7-5.2-5.5-.5-.2-.8-.7-.6-1.3s.7-.8 1.3-.6c3.2 1 5.7 3.7 6.5 6.9.1.5-.2 1.1-.7 1.2-.2.1-.3.1-.3.1zm.1-6.9c-3.1 0-5.6-2.5-5.6-5.6 0-3.1 2.5-5.6 5.6-5.6s5.6 2.5 5.6 5.6c-.1 3.1-2.6 5.6-5.6 5.6zm0-9.1c-2 0-3.6 1.6-3.6 3.6s1.6 3.6 3.6 3.6 3.6-1.6 3.6-3.6-1.7-3.6-3.6-3.6z"/><g><path class="st0" d="M374.3 102.4h-.2c-.5-.1-.9-.7-.7-1.2.8-3.2 3.3-5.9 6.5-6.9.5-.2 1.1.1 1.3.6.2.5-.1 1.1-.6 1.3-2.6.8-4.5 2.9-5.2 5.5-.2.4-.6.7-1.1.7z"/><path class="st0" d="M374.3 102.4c-.5 0-.9-.3-1-.8-.6-2.6-2.6-4.7-5.2-5.5-.5-.2-.8-.7-.6-1.3.2-.5.7-.8 1.3-.6 3.2 1 5.7 3.7 6.5 6.9.1.5-.2 1.1-.7 1.2-.2.1-.2.1-.3.1zm.1-6.9c-3.1 0-5.6-2.5-5.6-5.6 0-3.1 2.5-5.6 5.6-5.6s5.6 2.5 5.6 5.6c-.1 3.1-2.5 5.6-5.6 5.6zm0-9.1c-2 0-3.6 1.6-3.6 3.6s1.6 3.6 3.6 3.6S378 92 378 90s-1.6-3.6-3.6-3.6z"/></g></g><g><path class="st1" d="M490.2 125.5c-.4 0-.9-.2-1.1-.6l-20.8-36.1c-.3-.6-.1-1.4.5-1.7.6-.3 1.4-.1 1.7.5l19.8 34.2 21.9-37.9c.3-.6 1.1-.8 1.7-.5.6.3.8 1.1.5 1.7l-23 39.8c-.3.3-.7.6-1.2.6zM456 106.9c-.2 0-.4-.1-.6-.2-.6-.3-.8-1.1-.5-1.7L465 87.5c.3-.6 1.1-.8 1.7-.5.6.3.8 1.1.5 1.7l-10.1 17.5c-.2.5-.6.7-1.1.7z"/><path class="st1" d="M452.8 119c-4.3 0-7.7-3.5-7.7-7.7s3.5-7.7 7.7-7.7c4.3 0 7.7 3.5 7.7 7.7s-3.5 7.7-7.7 7.7zm0-13c-2.9 0-5.2 2.3-5.2 5.2s2.3 5.2 5.2 5.2c2.9 0 5.2-2.3 5.2-5.2s-2.3-5.2-5.2-5.2zm63.7-19.4c-4.3 0-7.7-3.5-7.7-7.7s3.5-7.7 7.7-7.7c4.3 0 7.7 3.5 7.7 7.7s-3.4 7.7-7.7 7.7zm0-12.9c-2.9 0-5.2 2.3-5.2 5.2s2.3 5.2 5.2 5.2c2.9 0 5.2-2.3 5.2-5.2s-2.3-5.2-5.2-5.2zm-48.7 16.1c-2.5 0-4.5-2-4.5-4.5s2-4.5 4.5-4.5 4.5 2 4.5 4.5-2.1 4.5-4.5 4.5zm0-6.5c-1.1 0-2 .9-2 2s.9 2 2 2 2-.9 2-2-.9-2-2-2z"/></g><g><path class="st1" d="M215.9 116.7c-.3 0-.5-.1-.7-.3l-5.1-5.1c-.4-.4-.4-1 0-1.4.4-.4 1-.4 1.4 0l5.1 5.1c.4.4.4 1 0 1.4-.2.2-.4.3-.7.3zm-30.3-30.3c-.3 0-.5-.1-.7-.3l-5.1-5.1c-.4-.4-.4-1 0-1.4.4-.4 1-.4 1.4 0l5.1 5.1c.4.4.4 1 0 1.4-.2.2-.5.3-.7.3zm25.2 0c-.3 0-.5-.1-.7-.3-.4-.4-.4-1 0-1.4l5.1-5.1c.4-.4 1-.4 1.4 0 .4.4.4 1 0 1.4l-5.1 5.1c-.2.2-.5.3-.7.3zm-30.3 30.3c-.3 0-.5-.1-.7-.3-.4-.4-.4-1 0-1.4l5.1-5.1c.4-.4 1-.4 1.4 0 .4.4.4 1 0 1.4l-5.1 5.1c-.2.2-.5.3-.7.3zM223.3 99H216c-.5 0-1-.5-1-1s.4-1 1-1h7.3c.5 0 1 .5 1 1s-.5 1-1 1zm-42.9 0h-7.3c-.5 0-1-.5-1-1s.4-1 1-1h7.3c.5 0 1 .5 1 1s-.5 1-1 1zM198 81.2c-.5 0-1-.4-1-1v-7.3c0-.5.5-1 1-1s1 .4 1 1v7.3c0 .6-.5 1-1 1zm0 42.9c-.5 0-1-.4-1-1v-7.3c0-.5.5-1 1-1s1 .4 1 1v7.3c0 .5-.5 1-1 1zm16.6-32c-.4 0-.8-.2-.9-.6-.2-.5 0-1.1.5-1.3l6.7-2.8c.5-.2 1.1 0 1.3.5.2.5 0 1.1-.5 1.3L215 92c-.1.1-.3.1-.4.1zM175 108.7c-.4 0-.8-.2-.9-.6-.2-.5 0-1.1.5-1.3l6.7-2.8c.5-.2 1.1 0 1.3.5.2.5 0 1.1-.5 1.3l-6.7 2.8c-.1 0-.2.1-.4.1zm16.3-26.1c-.4 0-.8-.2-.9-.6l-2.8-6.7c-.2-.5 0-1.1.5-1.3.5-.2 1.1 0 1.3.5l2.8 6.7c.2.5 0 1.1-.5 1.3-.1 0-.2.1-.4.1zm16.5 39.5c-.4 0-.8-.2-.9-.6l-2.8-6.7c-.2-.5 0-1.1.5-1.3.5-.2 1.1 0 1.3.5l2.8 6.7c.2.5 0 1.1-.5 1.3-.1.1-.2.1-.4.1zM205 82.5c-.1 0-.3 0-.4-.1-.5-.2-.7-.8-.5-1.3l2.8-6.7c.2-.5.8-.7 1.3-.5.5.2.7.8.5 1.3l-2.8 6.7c-.2.4-.6.6-.9.6zm-16.3 39.7c-.1 0-.3 0-.4-.1-.5-.2-.7-.8-.5-1.3l2.8-6.7c.2-.5.8-.7 1.3-.5.5.2.7.8.5 1.3l-2.8 6.7c-.2.4-.6.6-.9.6zm-7-30c-.1 0-.3 0-.4-.1l-6.7-2.8c-.5-.2-.7-.8-.5-1.3.2-.5.8-.7 1.3-.5l6.7 2.8c.5.2.7.8.5 1.3-.1.4-.5.6-.9.6zm39.7 16.3c-.1 0-.3 0-.4-.1l-6.7-2.8c-.5-.2-.7-.8-.5-1.3.2-.5.8-.7 1.3-.5l6.7 2.8c.5.2.7.8.5 1.3-.2.4-.5.6-.9.6z"/><path class="st1" d="M198.2 116.8c-10.4 0-18.8-8.4-18.8-18.8s8.4-18.8 18.8-18.8S217 87.6 217 98s-8.5 18.8-18.8 18.8zm0-35.6c-9.3 0-16.8 7.5-16.8 16.8s7.5 16.8 16.8 16.8S215 107.3 215 98s-7.5-16.8-16.8-16.8z"/></g><g><path class="st0" d="M987 140c-.6 0-1-.4-1-1v-11c0-.6.4-1 1-1s1 .4 1 1v11c0 .6-.4 1-1 1zm-6 73c-.6 0-1-.4-1-1v-50c0-.6.4-1 1-1s1 .4 1 1v50c0 .6-.4 1-1 1zm12 0c-.6 0-1-.4-1-1v-50c0-.6.4-1 1-1s1 .4 1 1v50c0 .6-.4 1-1 1z"/><path class="st0" d="M993.6 184.4c-.3 0-.7-.2-.9-.5l-5.5-9.5c-.3-.5-.1-1.1.4-1.4.5-.3 1.1-.1 1.4.4l5.5 9.5c.3.5.1 1.1-.4 1.4-.2.1-.3.1-.5.1z"/><path class="st0" d="M980.9 184.5c-.2 0-.3 0-.5-.1-.5-.3-.6-.9-.4-1.4l5.5-9.5c.3-.5.9-.6 1.4-.4s.6.9.4 1.4l-5.5 9.5c-.2.3-.5.5-.9.5zm24.2 28.9c-.3 0-.7-.2-.9-.5L987.5 184c-.3-.5-.1-1.1.4-1.4.5-.3 1.1-.1 1.4.4l16.7 28.9c.3.5.1 1.1-.4 1.4-.2 0-.4.1-.5.1zm-35.2-.6c-.2 0-.3 0-.5-.1-.5-.3-.6-.9-.4-1.4l16.4-28.3c.3-.5.9-.6 1.4-.4s.6.9.4 1.4l-16.4 28.3c-.3.3-.6.5-.9.5zm23.7.3c-.3 0-.7-.2-.9-.5l-5.5-9.5c-.3-.5-.1-1.1.4-1.4.5-.3 1.1-.1 1.4.4l5.5 9.5c.3.5.1 1.1-.4 1.4-.2 0-.3.1-.5.1z"/><path class="st0" d="M980.9 213.1c-.2 0-.3 0-.5-.1-.5-.3-.6-.9-.4-1.4l5.5-9.5c.3-.5.9-.6 1.4-.4s.6.9.4 1.4l-5.5 9.5c-.2.3-.5.5-.9.5z"/><path class="st0" d="M988.1 203.5c-.2 0-.3 0-.5-.1-.5-.3-.6-.9-.4-1.4l5.5-9.5c.3-.5.9-.6 1.4-.4.5.3.6.9.4 1.4L989 203c-.2.3-.6.5-.9.5z"/><path class="st0" d="M986.5 203.5c-.3 0-.7-.2-.9-.5l-5.5-9.5c-.3-.5-.1-1.1.4-1.4.5-.3 1.1-.1 1.4.4l5.5 9.5c.3.5.1 1.1-.4 1.4-.2.1-.4.1-.5.1zm.5-19.5h-6c-.6 0-1-.4-1-1s.4-1 1-1h6c.6 0 1 .4 1 1s-.4 1-1 1z"/><path class="st0" d="M993 184h-6c-.6 0-1-.4-1-1s.4-1 1-1h6c.6 0 1 .4 1 1s-.4 1-1 1zm-6 20h-12c-.6 0-1-.4-1-1s.4-1 1-1h12c.6 0 1 .4 1 1s-.4 1-1 1z"/><path class="st0" d="M999 204h-12c-.6 0-1-.4-1-1s.4-1 1-1h12c.6 0 1 .4 1 1s-.4 1-1 1zm-11.7-29.1c-7.4 0-12.9-5.6-12.9-12.9 0-.6.4-1 1-1h23.8c.6 0 1 .4 1 1 0 7.4-5.6 12.9-12.9 12.9zM976.4 163c.5 5.7 5 9.9 10.9 9.9s10.4-4.2 10.9-9.9h-21.8zm22.8-12h-23.8c-.6 0-1-.4-1-1 0-6.9 6-12.9 12.9-12.9s12.9 6 12.9 12.9c0 .6-.5 1-1 1zm-22.8-2h21.7c-.5-4.9-5-9.9-10.9-9.9s-10.3 5-10.8 9.9z"/><path class="st0" d="M1000 163h-25c-.6 0-1-.4-1-1v-12c0-.6.4-1 1-1h25c.6 0 1 .4 1 1v12c0 .6-.4 1-1 1zm-24-2h23v-10h-23v10z"/><path class="st0" d="M1000 160h-25c-.6 0-1-.4-1-1s.4-1 1-1h25c.6 0 1 .4 1 1s-.4 1-1 1z"/><path class="st0" d="M978 163c-.6 0-1-.4-1-1v-3c0-.6.4-1 1-1s1 .4 1 1v3c0 .6-.4 1-1 1zm4 0c-.6 0-1-.4-1-1v-3c0-.6.4-1 1-1s1 .4 1 1v3c0 .6-.4 1-1 1zm2 0c-.6 0-1-.4-1-1v-3c0-.6.4-1 1-1s1 .4 1 1v3c0 .6-.4 1-1 1zm3 0c-.6 0-1-.4-1-1v-3c0-.6.4-1 1-1s1 .4 1 1v3c0 .6-.4 1-1 1zm3 0c-.6 0-1-.4-1-1v-3c0-.6.4-1 1-1s1 .4 1 1v3c0 .6-.4 1-1 1zm7 0c-.6 0-1-.4-1-1v-3c0-.6.4-1 1-1s1 .4 1 1v3c0 .6-.4 1-1 1zm-4 0c-.6 0-1-.4-1-1v-3c0-.6.4-1 1-1s1 .4 1 1v3c0 .6-.4 1-1 1zm-6 50c-.6 0-1-.4-1-1v-38c0-.6.4-1 1-1s1 .4 1 1v38c0 .6-.4 1-1 1z"/></g><g><path class="st0" d="M821 214c-.6 0-1-.4-1-1v-35c0-.6.4-1 1-1s1 .4 1 1v35c0 .6-.4 1-1 1zm7-1c-.6 0-1-.4-1-1v-34c0-.6.4-1 1-1s1 .4 1 1v34c0 .6-.4 1-1 1zm9-21c-.6 0-1-.4-1-1v-13c0-.6.4-1 1-1s1 .4 1 1v13c0 .6-.4 1-1 1zm7-7c-.6 0-1-.4-1-1v-6c0-.6.4-1 1-1s1 .4 1 1v6c0 .6-.4 1-1 1zm8 7c-.6 0-1-.4-1-1v-13c0-.6.4-1 1-1s1 .4 1 1v13c0 .6-.4 1-1 1zm8 21c-.6 0-1-.4-1-1v-34c0-.6.4-1 1-1s1 .4 1 1v34c0 .6-.4 1-1 1zm8 0c-.6 0-1-.4-1-1v-34c0-.6.4-1 1-1s1 .4 1 1v34c0 .6-.4 1-1 1z"/><path class="st0" d="M833 213.5c-.2 0-.5-.1-.6-.2l-.6-.5c-.3-.3-.4-.7-.3-1.1.1-.3.3-.5.6-.6V191c0-.6.4-1 1-1h22.8c.3 0 .6.1.7.3l.2.2c.2.2.3.4.3.7V212c0 .6-.4 1-1 1H834c-.1.2-.3.3-.5.4-.2.1-.4.1-.5.1zm1-2.5h21v-19h-21v19zm24-61c-.6 0-1-.4-1-1v-13h-25v13c0 .6-.4 1-1 1s-1-.4-1-1v-14c0-.6.4-1 1-1h26.7c.4 0 .8.2.9.6l.3.7c.1.1.1.3.1.4V149c0 .6-.4 1-1 1z"/><path class="st0" d="M875 213h-62c-.6 0-1-.4-1-1v-34c0-.6.4-1 1-1h62c.6 0 1 .4 1 1v34c0 .6-.4 1-1 1zm-61-2h60v-32h-60v32z"/><path class="st0" d="M812.9 178.6c-.3 0-.5-.1-.7-.3s-.3-.6-.3-.9c0-17.8 14.5-32.4 32.3-32.4 8.6 0 16.7 3.5 22.8 9.6s9.4 14.3 9.4 22.9c0 .6-.4 1-1 1l-62.5.1zm31.2-31.6c-16.3 0-29.7 13.2-30.2 29.4l60.5.1c-.2-7.7-3.4-15-8.8-20.5-5.8-5.7-13.4-9-21.5-9zm6.8 45h-13.6c-.6 0-1-.4-1-1 0-4.4 3.3-7.8 7.8-7.8 4.3 0 7.4 6.6 7.7 7.4.1.3.1.7-.1 1-.1.2-.4.4-.8.4zm-12.4-2h10.8c-1.1-2-3.2-4.8-5.1-4.8-3 0-5.3 2-5.7 4.8z"/><path class="st0" d="M847.6 145h-6.8c-.6 0-1-.4-1-1 0-2.5 1.9-4.4 4.4-4.4 2.4 0 4 3.3 4.3 4 .1.3.1.7-.1 1-.2.2-.5.4-.8.4zm-5.6-2h3.9c-.5-.8-1.2-1.4-1.7-1.4-1.1 0-1.9.6-2.2 1.4zm2 70c-.6 0-1-.4-1-1v-21c0-.6.4-1 1-1s1 .4 1 1v21c0 .6-.4 1-1 1zm6-42h-12c-.6 0-1-.4-1-1v-11c0-.6.4-1 1-1h12c.6 0 1 .4 1 1v11c0 .6-.4 1-1 1zm-11-2h10v-9h-10v9z"/><path class="st0" d="M855.8 213.5c-.2 0-.5-.1-.7-.3l-23.4-21.3c-.4-.4-.4-1-.1-1.4.4-.4 1-.4 1.4-.1l23.4 21.3c.4.4.4 1 .1 1.4-.1.3-.4.4-.7.4z"/><path class="st0" d="M832.4 213.5c-.3 0-.5-.1-.7-.3-.4-.4-.3-1 .1-1.4l23.4-21.3c.4-.4 1-.3 1.4.1.4.4.3 1-.1 1.4L833 213.3c-.1.1-.4.2-.6.2zm25.3-77.5h-27.1c-.4 0-.8-.3-.9-.7-.1-.4 0-.8.3-1.1l13.5-10.6c.4-.3.9-.3 1.2 0l13.6 10.6c.3.3.5.7.3 1.1-.1.4-.5.7-.9.7zm-24.2-2h21.3l-10.7-8.4-10.6 8.4z"/></g><g><path class="st0" d="M1169 192h-74c-.6 0-1-.4-1-1v-43c0-.6.4-1 1-1h74c.6 0 1 .4 1 1v43c0 .6-.4 1-1 1zm-73-2h72v-41h-72v41z"/><path class="st0" d="M1163.1 154.9c-4 0-7.2-3.2-7.2-7.2 0-.6.4-1 1-1s1 .4 1 1c0 2.9 2.3 5.2 5.2 5.2 2.9 0 5.2-2.3 5.2-5.2 0-.6.4-1 1-1s1 .4 1 1c0 4-3.2 7.2-7.2 7.2zm-24.9 0c-4 0-7.2-3.2-7.2-7.2 0-.6.4-1 1-1s1 .4 1 1c0 2.9 2.3 5.2 5.2 5.2 2.9 0 5.2-2.3 5.2-5.2 0-.6.4-1 1-1s1 .4 1 1c0 4-3.2 7.2-7.2 7.2zm-12.6 15.3c-.6 0-1-.4-1-1 0-4 3.2-7.2 7.2-7.2s7.2 3.2 7.2 7.2c0 .6-.4 1-1 1s-1-.4-1-1c0-2.9-2.3-5.2-5.2-5.2-2.9 0-5.2 2.3-5.2 5.2 0 .6-.5 1-1 1z"/><path class="st0" d="M1125.8 154.9c-4 0-7.2-3.2-7.2-7.2 0-.6.4-1 1-1s1 .4 1 1c0 2.9 2.3 5.2 5.2 5.2 2.9 0 5.2-2.3 5.2-5.2 0-.6.4-1 1-1s1 .4 1 1c0 4-3.2 7.2-7.2 7.2zm-24.9 0c-4 0-7.2-3.2-7.2-7.2 0-.6.4-1 1-1s1 .4 1 1c0 2.9 2.3 5.2 5.2 5.2 2.9 0 5.2-2.3 5.2-5.2 0-.6.4-1 1-1s1 .4 1 1c0 4-3.2 7.2-7.2 7.2z"/><path class="st0" d="M1113.3 154.9c-4 0-7.2-3.2-7.2-7.2 0-.6.4-1 1-1s1 .4 1 1c0 2.9 2.3 5.2 5.2 5.2 2.9 0 5.2-2.3 5.2-5.2 0-.6.4-1 1-1s1 .4 1 1c0 4-3.2 7.2-7.2 7.2zm37.4 0c-4 0-7.2-3.2-7.2-7.2 0-.6.4-1 1-1s1 .4 1 1c0 2.9 2.3 5.2 5.2 5.2 2.9 0 5.2-2.3 5.2-5.2 0-.6.4-1 1-1s1 .4 1 1c0 4-3.2 7.2-7.2 7.2zM1138 192h-12c-.6 0-1-.4-1-1v-21.2c-.3-.2-.5-.7-.4-1.1.1-.4.5-.7 1-.7h12.4c.6 0 1 .4 1 1v22.1c0 .5-.5.9-1 .9zm-11-2h10v-20h-10v20zm-8-9h-11c-.6 0-1-.4-1-1v-10h-.1c-.5-.1-.8-.6-.7-1.1s.5-.9 1-.9h11.9c.6 0 1 .4 1 1v10.1c.3.2.6.5.6.9 0 .5-.4 1-1 1h-.7zm-10-2h9v-9h-9v9zm48 2h-12c-.6 0-1-.4-1-1v-10.1c-.4-.2-.6-.7-.5-1.1.1-.5.5-.8 1-.8h12.5c.6 0 1 .4 1 1v11c0 .3-.1.5-.3.7-.2.2-.4.3-.7.3zm-11-2h10v-9h-10v9z"/><path class="st0" d="M1125.6 181c-.6 0-1-.4-1-1s.4-1 1-1h12.4c.6 0 1 .4 1 1s-.4 1-1 1h-12.4zm6.2-10.8c-.3 0-.7-.2-.9-.5l-3.1-5.4c-.3-.5-.1-1.1.4-1.4.5-.3 1.1-.1 1.4.4l3.1 5.4c.3.5.1 1.1-.4 1.4-.2.1-.4.1-.5.1z"/><path class="st0" d="M1131.8 170.2c-.2 0-.3 0-.5-.1-.5-.3-.6-.9-.4-1.4l3.1-5.4c.3-.5.9-.6 1.4-.4.5.3.6.9.4 1.4l-3.1 5.4c-.2.4-.6.5-.9.5zm-12.8-.2h-11c-.6 0-1-.4-1-1v-2c0-.6.4-1 1-1h11c.6 0 1 .4 1 1v2c0 .6-.4 1-1 1zm-10-2h9-9zm48 2h-12c-.6 0-1-.4-1-1v-2c0-.6.4-1 1-1h12c.6 0 1 .4 1 1v2c0 .6-.4 1-1 1zm-11-2h10-10z"/></g><g><path class="st0" d="M1162.2 101c-2 0-3.6-1.6-3.6-3.6 0-.6.4-1 1-1s1 .4 1 1c0 .9.7 1.6 1.6 1.6.6 0 1 .4 1 1s-.4 1-1 1z"/><path class="st0" d="M1162.2 101c-.6 0-1-.4-1-1s.4-1 1-1c.9 0 1.6-.7 1.6-1.6 0-.6.4-1 1-1s1 .4 1 1c0 2-1.6 3.6-3.6 3.6z"/><path class="st0" d="M1167.4 101c-2 0-3.6-1.6-3.6-3.6 0-.6.4-1 1-1s1 .4 1 1c0 .9.7 1.6 1.6 1.6.6 0 1 .4 1 1s-.5 1-1 1z"/><path class="st0" d="M1167.4 101c-.6 0-1-.4-1-1s.4-1 1-1c.9 0 1.6-.7 1.6-1.6 0-.6.4-1 1-1s1 .4 1 1c0 2-1.7 3.6-3.6 3.6z"/><path class="st0" d="M1172.5 101c-2 0-3.6-1.6-3.6-3.6 0-.6.4-1 1-1s1 .4 1 1c0 .9.7 1.6 1.6 1.6.6 0 1 .4 1 1s-.4 1-1 1z"/><path class="st0" d="M1172.5 101c-.6 0-1-.4-1-1s.4-1 1-1c.9 0 1.6-.7 1.6-1.6 0-.6.4-1 1-1s1 .4 1 1c0 2-1.6 3.6-3.6 3.6z"/><path class="st0" d="M1177.7 101c-2 0-3.6-1.6-3.6-3.6 0-.6.4-1 1-1s1 .4 1 1c0 .9.7 1.6 1.6 1.6.6 0 1 .4 1 1s-.5 1-1 1zm60.3 11.6c-.6 0-1-.4-1-1s.4-1 1-1c.9 0 1.6-.7 1.6-1.6 0-.6.4-1 1-1s1 .4 1 1c0 2-1.6 3.6-3.6 3.6zm10.3 0c-.6 0-1-.4-1-1s.4-1 1-1c.9 0 1.6-.7 1.6-1.6 0-.6.4-1 1-1s1 .4 1 1c0 2-1.6 3.6-3.6 3.6z"/><path class="st0" d="M1243.2 112.6c-2 0-3.6-1.6-3.6-3.6 0-.6.4-1 1-1s1 .4 1 1c0 .9.7 1.6 1.6 1.6.6 0 1 .4 1 1s-.5 1-1 1zm10.3 0c-2 0-3.6-1.6-3.6-3.6 0-.6.4-1 1-1s1 .4 1 1c0 .9.7 1.6 1.6 1.6.6 0 1 .4 1 1s-.5 1-1 1zm-5.2 0c-2 0-3.6-1.6-3.6-3.6 0-.6.4-1 1-1s1 .4 1 1c0 .9.7 1.6 1.6 1.6.6 0 1 .4 1 1s-.4 1-1 1z"/><path class="st0" d="M1243.2 112.6c-.6 0-1-.4-1-1s.4-1 1-1c.9 0 1.6-.7 1.6-1.6 0-.6.4-1 1-1s1 .4 1 1c-.1 2-1.7 3.6-3.6 3.6zM1222.6 92c-.6 0-1-.4-1-1s.4-1 1-1c.9 0 1.6-.7 1.6-1.6 0-.6.4-1 1-1s1 .4 1 1c0 2-1.6 3.6-3.6 3.6z"/><path class="st0" d="M1227.8 92c-2 0-3.6-1.6-3.6-3.6 0-.6.4-1 1-1s1 .4 1 1c0 .9.7 1.6 1.6 1.6.6 0 1 .4 1 1s-.5 1-1 1z"/><path class="st0" d="M1227.8 92c-.6 0-1-.4-1-1s.4-1 1-1c.9 0 1.6-.7 1.6-1.6 0-.6.4-1 1-1s1 .4 1 1c-.1 2-1.7 3.6-3.6 3.6z"/><path class="st0" d="M1232.9 92c-2 0-3.6-1.6-3.6-3.6 0-.6.4-1 1-1s1 .4 1 1c0 .9.7 1.6 1.6 1.6.6 0 1 .4 1 1s-.4 1-1 1zm-55.1 20.6c-.6 0-1-.4-1-1s.4-1 1-1c.9 0 1.6-.7 1.6-1.6 0-.6.4-1 1-1s1 .4 1 1c-.1 2-1.7 3.6-3.6 3.6z"/><path class="st0" d="M1182.9 112.6c-2 0-3.6-1.6-3.6-3.6 0-.6.4-1 1-1s1 .4 1 1c0 .9.7 1.6 1.6 1.6.6 0 1 .4 1 1s-.4 1-1 1z"/><path class="st0" d="M1182.9 112.6c-.6 0-1-.4-1-1s.4-1 1-1c.9 0 1.6-.7 1.6-1.6 0-.6.4-1 1-1s1 .4 1 1c0 2-1.6 3.6-3.6 3.6z"/><path class="st0" d="M1188 112.6c-2 0-3.6-1.6-3.6-3.6 0-.6.4-1 1-1s1 .4 1 1c0 .9.7 1.6 1.6 1.6.6 0 1 .4 1 1s-.4 1-1 1zm-3.9-18c-.6 0-1-.4-1-1s.4-1 1-1c.9 0 1.6-.7 1.6-1.6 0-.6.4-1 1-1s1 .4 1 1c-.1 2-1.7 3.6-3.6 3.6z"/><path class="st0" d="M1189.2 94.6c-2 0-3.6-1.6-3.6-3.6 0-.6.4-1 1-1s1 .4 1 1c0 .9.7 1.6 1.6 1.6.6 0 1 .4 1 1s-.4 1-1 1z"/><path class="st0" d="M1189.2 94.6c-.6 0-1-.4-1-1s.4-1 1-1c.9 0 1.6-.7 1.6-1.6 0-.6.4-1 1-1s1 .4 1 1c0 2-1.6 3.6-3.6 3.6z"/><path class="st0" d="M1194.4 94.6c-2 0-3.6-1.6-3.6-3.6 0-.6.4-1 1-1s1 .4 1 1c0 .9.7 1.6 1.6 1.6.6 0 1 .4 1 1s-.5 1-1 1z"/><path class="st0" d="M1194.4 94.6c-.6 0-1-.4-1-1s.4-1 1-1c.9 0 1.6-.7 1.6-1.6 0-.6.4-1 1-1s1 .4 1 1c-.1 2-1.7 3.6-3.6 3.6z"/><path class="st0" d="M1199.5 94.6c-2 0-3.6-1.6-3.6-3.6 0-.6.4-1 1-1s1 .4 1 1c0 .9.7 1.6 1.6 1.6.6 0 1 .4 1 1s-.4 1-1 1zm7.3 12.7c-.6 0-1-.4-1-1s.4-1 1-1c.9 0 1.7-.7 1.7-1.7 0-.6.4-1 1-1s1 .4 1 1c0 2.1-1.7 3.7-3.7 3.7z"/><path class="st0" d="M1212.1 107.3c-2 0-3.7-1.6-3.7-3.7 0-.6.4-1 1-1s1 .4 1 1c0 .9.7 1.7 1.7 1.7.6 0 1 .4 1 1s-.4 1-1 1z"/><path class="st0" d="M1212.1 107.3c-.6 0-1-.4-1-1s.4-1 1-1c.9 0 1.7-.7 1.7-1.7 0-.6.4-1 1-1s1 .4 1 1c0 2.1-1.6 3.7-3.7 3.7z"/><path class="st0" d="M1217.4 107.3c-2 0-3.6-1.6-3.6-3.6 0-.6.4-1 1-1s1 .4 1 1c0 .9.7 1.6 1.6 1.6.6 0 1 .4 1 1s-.5 1-1 1z"/><path class="st0" d="M1217.4 107.3c-.6 0-1-.4-1-1s.4-1 1-1c.9 0 1.6-.7 1.6-1.6 0-.6.4-1 1-1s1 .4 1 1c-.1 2-1.7 3.6-3.6 3.6z"/><path class="st0" d="M1222.5 107.3c-2 0-3.6-1.6-3.6-3.6 0-.6.4-1 1-1s1 .4 1 1c0 .9.7 1.6 1.6 1.6.6 0 1 .4 1 1s-.4 1-1 1zM1231.6 101c-.6 0-1-.4-1-1s.4-1 1-1c.9 0 1.6-.7 1.6-1.6 0-.6.4-1 1-1s1 .4 1 1c0 2-1.6 3.6-3.6 3.6z"/><path class="st0" d="M1236.7 101c-2 0-3.6-1.6-3.6-3.6 0-.6.4-1 1-1s1 .4 1 1c0 .9.7 1.6 1.6 1.6.6 0 1 .4 1 1s-.4 1-1 1z"/><path class="st0" d="M1236.7 101c-.6 0-1-.4-1-1s.4-1 1-1c.9 0 1.6-.7 1.6-1.6 0-.6.4-1 1-1s1 .4 1 1c0 2-1.6 3.6-3.6 3.6z"/><path class="st0" d="M1241.9 101c-2 0-3.6-1.6-3.6-3.6 0-.6.4-1 1-1s1 .4 1 1c0 .9.7 1.6 1.6 1.6.6 0 1 .4 1 1s-.5 1-1 1z"/><path class="st0" d="M1241.9 101c-.6 0-1-.4-1-1s.4-1 1-1c.9 0 1.6-.7 1.6-1.6 0-.6.4-1 1-1s1 .4 1 1c0 2-1.7 3.6-3.6 3.6z"/><path class="st0" d="M1247 101c-2 0-3.6-1.6-3.6-3.6 0-.6.4-1 1-1s1 .4 1 1c0 .9.7 1.6 1.6 1.6.6 0 1 .4 1 1s-.4 1-1 1zM1199.5 94.6c-.6 0-1-.4-1-1s.4-1 1-1c.9 0 1.6-.7 1.6-1.6 0-.6.4-1 1-1s1 .4 1 1c0 2-1.6 3.6-3.6 3.6z"/><path class="st0" d="M1204.6 94.6c-2 0-3.6-1.6-3.6-3.6 0-.6.4-1 1-1s1 .4 1 1c0 .9.7 1.6 1.6 1.6.6 0 1 .4 1 1s-.4 1-1 1z"/><path class="st0" d="M1204.6 94.6c-.6 0-1-.4-1-1s.4-1 1-1c.9 0 1.6-.7 1.6-1.6 0-.6.4-1 1-1s1 .4 1 1c0 2-1.6 3.6-3.6 3.6z"/><path class="st0" d="M1209.8 94.6c-2 0-3.6-1.6-3.6-3.6 0-.6.4-1 1-1s1 .4 1 1c0 .9.7 1.6 1.6 1.6.6 0 1 .4 1 1s-.5 1-1 1z"/><g><path class="st0" d="M1197.8 120.9c-3.2 0-5.7-2.6-5.7-5.7s2.6-5.7 5.7-5.7 5.7 2.6 5.7 5.7-2.5 5.7-5.7 5.7zm0-9.5c-2.1 0-3.7 1.7-3.7 3.7s1.7 3.7 3.7 3.7 3.7-1.7 3.7-3.7-1.6-3.7-3.7-3.7z"/><path class="st0" d="M1198 128c-.6 0-1-.4-1-1v-9c0-.6.4-1 1-1s1 .4 1 1v9c0 .6-.4 1-1 1z"/><path class="st0" d="M1197.9 119.3c-.3 0-.7-.2-.9-.5l-1.4-2.4c-.3-.5-.1-1.1.4-1.4.5-.3 1.1-.1 1.4.4l1.4 2.4c.3.5.1 1.1-.4 1.4-.2.1-.4.1-.5.1z"/><path class="st0" d="M1197.8 119.6c-.2 0-.3 0-.5-.1-.5-.3-.6-.9-.4-1.4l2.1-3.7c.3-.5.9-.6 1.4-.4.5.3.6.9.4 1.4l-2.1 3.7c-.2.3-.5.5-.9.5z"/></g><g><path class="st0" d="M1239 84c-.6 0-1-.4-1-1V64c0-.6.4-1 1-1s1 .4 1 1v19c0 .6-.4 1-1 1z"/><path class="st0" d="M1235.3 68.8c-.6 0-1-.4-1-1s.4-1 1-1c1.5 0 2.7-1.2 2.7-2.7 0-.6.4-1 1-1s1 .4 1 1c0 2.6-2.1 4.7-4.7 4.7z"/><path class="st0" d="M1235.3 71.8c-.6 0-1-.4-1-1s.4-1 1-1c1.5 0 2.7-1.2 2.7-2.7 0-.6.4-1 1-1s1 .4 1 1c0 2.6-2.1 4.7-4.7 4.7z"/><path class="st0" d="M1235.3 74.9c-.6 0-1-.4-1-1s.4-1 1-1c1.5 0 2.7-1.2 2.7-2.7 0-.6.4-1 1-1s1 .4 1 1c0 2.6-2.1 4.7-4.7 4.7z"/><path class="st0" d="M1235.3 78c-.6 0-1-.4-1-1s.4-1 1-1c1.5 0 2.7-1.2 2.7-2.7 0-.6.4-1 1-1s1 .4 1 1c0 2.6-2.1 4.7-4.7 4.7zm7.3-9.2c-2.6 0-4.7-2.1-4.7-4.7 0-.6.4-1 1-1s1 .4 1 1c0 1.5 1.2 2.7 2.7 2.7.6 0 1 .4 1 1s-.4 1-1 1z"/><path class="st0" d="M1242.6 71.8c-2.6 0-4.7-2.1-4.7-4.7 0-.6.4-1 1-1s1 .4 1 1c0 1.5 1.2 2.7 2.7 2.7.6 0 1 .4 1 1s-.4 1-1 1z"/><path class="st0" d="M1242.6 74.9c-2.6 0-4.7-2.1-4.7-4.7 0-.6.4-1 1-1s1 .4 1 1c0 1.5 1.2 2.7 2.7 2.7.6 0 1 .4 1 1s-.4 1-1 1z"/><path class="st0" d="M1242.6 78c-2.6 0-4.7-2.1-4.7-4.7 0-.6.4-1 1-1s1 .4 1 1c0 1.5 1.2 2.7 2.7 2.7.6 0 1 .4 1 1s-.4 1-1 1z"/></g><g><path class="st0" d="M1168 84c-.6 0-1-.4-1-1V64c0-.6.4-1 1-1s1 .4 1 1v19c0 .6-.4 1-1 1z"/><path class="st0" d="M1164 68.8c-.6 0-1-.4-1-1s.4-1 1-1c1.5 0 2.7-1.2 2.7-2.7 0-.6.4-1 1-1s1 .4 1 1c0 2.6-2.1 4.7-4.7 4.7z"/><path class="st0" d="M1164 71.9c-.6 0-1-.4-1-1s.4-1 1-1c1.5 0 2.7-1.2 2.7-2.7 0-.6.4-1 1-1s1 .4 1 1c0 2.6-2.1 4.7-4.7 4.7z"/><path class="st0" d="M1164 75c-.6 0-1-.4-1-1s.4-1 1-1c1.5 0 2.7-1.2 2.7-2.7 0-.6.4-1 1-1s1 .4 1 1c0 2.6-2.1 4.7-4.7 4.7z"/><path class="st0" d="M1164 78c-.6 0-1-.4-1-1s.4-1 1-1c1.5 0 2.7-1.2 2.7-2.7 0-.6.4-1 1-1s1 .4 1 1c0 2.7-2.1 4.7-4.7 4.7zm7.4-9.2c-2.6 0-4.7-2.1-4.7-4.7 0-.6.4-1 1-1s1 .4 1 1c0 1.5 1.2 2.7 2.7 2.7.6 0 1 .4 1 1s-.5 1-1 1z"/><path class="st0" d="M1171.4 71.9c-2.6 0-4.7-2.1-4.7-4.7 0-.6.4-1 1-1s1 .4 1 1c0 1.5 1.2 2.7 2.7 2.7.6 0 1 .4 1 1s-.5 1-1 1z"/><path class="st0" d="M1171.4 75c-2.6 0-4.7-2.1-4.7-4.7 0-.6.4-1 1-1s1 .4 1 1c0 1.5 1.2 2.7 2.7 2.7.6 0 1 .4 1 1s-.5 1-1 1z"/><path class="st0" d="M1171.4 78c-2.6 0-4.7-2.1-4.7-4.7 0-.6.4-1 1-1s1 .4 1 1c0 1.5 1.2 2.7 2.7 2.7.6 0 1 .4 1 1s-.5 1-1 1z"/></g><g><path class="st0" d="M1239.3 120H1201c-.6 0-1-.4-1-1s.4-1 1-1h38.3c9.2 0 16.7-8 16.7-17.9v-.1c0-9.5-7.3-17-16.7-17h-70.9c-9.6 0-17.4 7.6-17.4 17v.1c0 9.7 8 17.9 17.4 17.9h25.6c.6 0 1 .4 1 1s-.4 1-1 1h-25.6c-10.5 0-19.4-9.1-19.4-19.9v-.1c0-10.5 8.7-19 19.4-19h70.9c10.5 0 18.7 8.3 18.7 19v.1c0 11-8.4 19.9-18.7 19.9z"/></g><g><path class="st0" d="M1205 84c-.6 0-1-.4-1-1v-7c0-.6.4-1 1-1s1 .4 1 1v7c0 .6-.4 1-1 1z"/><path class="st0" d="M1204.5 77.1c-1.9 0-3.4-1.5-3.4-3.4s1.5-3.4 3.4-3.4 3.4 1.5 3.4 3.4-1.5 3.4-3.4 3.4zm0-4.9c-.8 0-1.4.6-1.4 1.4s.6 1.4 1.4 1.4c.8 0 1.4-.6 1.4-1.4s-.6-1.4-1.4-1.4z"/><path class="st0" d="M1205 73c-.6 0-1-.4-1-1v-4c0-.6.4-1 1-1s1 .4 1 1v4c0 .6-.4 1-1 1zm-3 2h-2c-.6 0-1-.4-1-1s.4-1 1-1h2c.6 0 1 .4 1 1s-.4 1-1 1zm8 0h-3c-.6 0-1-.4-1-1s.4-1 1-1h3c.6 0 1 .4 1 1s-.4 1-1 1z"/><path class="st0" d="M1202.9 73c-.3 0-.5-.1-.7-.3l-1.7-1.7c-.4-.4-.4-1 0-1.4s1-.4 1.4 0l1.7 1.7c.4.4.4 1 0 1.4-.2.2-.5.3-.7.3zm5.1 5.1c-.3 0-.5-.1-.7-.3l-1.7-1.7c-.4-.4-.4-1 0-1.4s1-.4 1.4 0l1.7 1.7c.4.4.4 1 0 1.4-.2.2-.5.3-.7.3zm-6.9 0c-.3 0-.5-.1-.7-.3-.4-.4-.4-1 0-1.4l1.7-1.7c.4-.4 1-.4 1.4 0s.4 1 0 1.4l-1.7 1.7c-.1.2-.4.3-.7.3zm5.1-5.1c-.3 0-.5-.1-.7-.3-.4-.4-.4-1 0-1.4l1.7-1.7c.4-.4 1-.4 1.4 0s.4 1 0 1.4l-1.7 1.7c-.1.2-.4.3-.7.3z"/></g></g><g><path class="st0" d="M1306.3 185H1248c-.6 0-1-.4-1-1 0-5.8 5.2-11 11-11 .9 0 1.7.1 2.6.4.4-9.8 8.4-17.6 18.3-17.6 9.8 0 17.8 7.7 18.3 17.3 5.5.5 10.1 5.4 10.1 10.9 0 .6-.4 1-1 1zm-57.2-2h56.1c-.5-3.9-4.2-8-9-8-.6 0-1-.4-1-1 0-8.9-7.3-16.2-16.3-16.2s-16.3 7.3-16.3 16.3v.6c0 .3-.1.7-.4.9s-.6.2-.9.1c-6.3-2.4-11.5 2.5-12.2 7.3z"/><path class="st0" d="M1289.2 182.2c-.6 0-1-.4-1-1s.4-1 1-1c3.3 0 6-2.7 6-6 0-.6.4-1 1-1s1 .4 1 1c.1 4.4-3.5 8-8 8zm-9.9-6.4c-.6 0-1-.4-1-1 0-4.2-3.5-7.7-7.7-7.7s-7.7 3.5-7.7 7.7c0 .6-.4 1-1 1s-1-.4-1-1c0-5.3 4.3-9.7 9.7-9.7s9.7 4.3 9.7 9.7c0 .6-.4 1-1 1z"/></g><g><path class="st0" d="M155.3 185H97c-.6 0-1-.4-1-1 0-5.8 5.2-11 11-11 .9 0 1.7.1 2.6.4.4-9.8 8.4-17.6 18.3-17.6 9.8 0 17.8 7.7 18.3 17.3 5.5.5 10.1 5.4 10.1 10.9 0 .6-.4 1-1 1zm-57.2-2h56.1c-.5-3.9-4.2-8-9-8-.6 0-1-.4-1-1 0-8.9-7.3-16.2-16.3-16.2s-16.3 7.3-16.3 16.3v.6c0 .3-.1.7-.4.9-.3.2-.6.3-.9.1-6.3-2.4-11.5 2.5-12.2 7.3z"/><path class="st0" d="M138.2 182.2c-.6 0-1-.4-1-1s.4-1 1-1c3.3 0 6-2.7 6-6 0-.6.4-1 1-1s1 .4 1 1c.1 4.4-3.5 8-8 8zm-9.9-6.4c-.6 0-1-.4-1-1 0-4.2-3.5-7.7-7.7-7.7s-7.7 3.5-7.7 7.7c0 .6-.4 1-1 1s-1-.4-1-1c0-5.3 4.3-9.7 9.7-9.7s9.7 4.3 9.7 9.7c0 .6-.4 1-1 1z"/></g><g><path class="st0" d="M883.4 110.4h-.2c-.5-.1-.9-.7-.7-1.2.8-3.2 3.3-5.9 6.5-6.9.5-.2 1.1.1 1.3.6.2.5-.1 1.1-.6 1.3-2.6.8-4.5 2.9-5.2 5.5-.2.4-.6.7-1.1.7z"/><path class="st0" d="M883.4 110.4c-.5 0-.9-.3-1-.8-.6-2.6-2.6-4.7-5.2-5.5-.5-.2-.8-.7-.6-1.3.2-.5.7-.8 1.3-.6 3.2 1 5.7 3.7 6.5 6.9.1.5-.2 1.1-.7 1.2-.2.1-.2.1-.3.1zm.1-6.8c-3.1 0-5.6-2.5-5.6-5.6s2.5-5.6 5.6-5.6 5.6 2.5 5.6 5.6-2.5 5.6-5.6 5.6zm0-9.1c-2 0-3.6 1.6-3.6 3.6s1.6 3.6 3.6 3.6 3.6-1.6 3.6-3.6-1.6-3.6-3.6-3.6zm43.9 15.9h-.2c-.5-.1-.9-.7-.7-1.2.8-3.2 3.3-5.9 6.5-6.9.5-.2 1.1.1 1.3.6.2.5-.1 1.1-.6 1.3-2.6.8-4.5 2.9-5.2 5.5-.3.4-.7.7-1.1.7z"/><path class="st0" d="M927.3 110.4c-.5 0-.9-.3-1-.8-.6-2.6-2.6-4.7-5.2-5.5-.5-.2-.8-.7-.6-1.3.2-.5.7-.8 1.3-.6 3.2 1 5.7 3.7 6.5 6.9.1.5-.2 1.1-.7 1.2-.1.1-.2.1-.3.1zm.1-6.8c-3.1 0-5.6-2.5-5.6-5.6s2.5-5.6 5.6-5.6c3.1 0 5.6 2.5 5.6 5.6s-2.5 5.6-5.6 5.6zm0-9.1c-2 0-3.6 1.6-3.6 3.6s1.6 3.6 3.6 3.6S931 100 931 98s-1.6-3.5-3.6-3.5zM905.4 102.4h-.2c-.5-.1-.9-.7-.7-1.2.8-3.2 3.3-5.9 6.5-6.9.5-.2 1.1.1 1.3.6.2.5-.1 1.1-.6 1.3-2.6.8-4.5 2.9-5.2 5.5-.2.4-.7.7-1.1.7z"/><path class="st0" d="M905.4 102.4c-.5 0-.9-.3-1-.8-.6-2.6-2.6-4.7-5.2-5.5-.5-.2-.8-.7-.6-1.3.2-.5.7-.8 1.3-.6 3.2 1 5.7 3.7 6.5 6.9.1.5-.2 1.1-.7 1.2-.2.1-.3.1-.3.1zm.1-6.9c-3.1 0-5.6-2.5-5.6-5.6 0-3.1 2.5-5.6 5.6-5.6s5.6 2.5 5.6 5.6c-.1 3.1-2.6 5.6-5.6 5.6zm0-9.1c-2 0-3.6 1.6-3.6 3.6s1.6 3.6 3.6 3.6 3.6-1.6 3.6-3.6-1.7-3.6-3.6-3.6z"/><g><path class="st0" d="M949.3 102.4h-.2c-.5-.1-.9-.7-.7-1.2.8-3.2 3.3-5.9 6.5-6.9.5-.2 1.1.1 1.3.6.2.5-.1 1.1-.6 1.3-2.6.8-4.5 2.9-5.2 5.5-.2.4-.6.7-1.1.7z"/><path class="st0" d="M949.3 102.4c-.5 0-.9-.3-1-.8-.6-2.6-2.6-4.7-5.2-5.5-.5-.2-.8-.7-.6-1.3.2-.5.7-.8 1.3-.6 3.2 1 5.7 3.7 6.5 6.9.1.5-.2 1.1-.7 1.2-.2.1-.2.1-.3.1zm.1-6.9c-3.1 0-5.6-2.5-5.6-5.6 0-3.1 2.5-5.6 5.6-5.6s5.6 2.5 5.6 5.6c-.1 3.1-2.5 5.6-5.6 5.6zm0-9.1c-2 0-3.6 1.6-3.6 3.6s1.6 3.6 3.6 3.6S953 92 953 90s-1.7-3.6-3.6-3.6z"/></g></g><g><path class="st1" d="M1065.2 125.5c-.4 0-.9-.2-1.1-.6l-20.8-36.1c-.3-.6-.1-1.4.5-1.7.6-.3 1.4-.1 1.7.5l19.8 34.2 21.9-37.9c.3-.6 1.1-.8 1.7-.5.6.3.8 1.1.5 1.7l-23 39.8c-.3.3-.7.6-1.2.6zm-34.2-18.6c-.2 0-.4-.1-.6-.2-.6-.3-.8-1.1-.5-1.7l10.1-17.5c.3-.6 1.1-.8 1.7-.5.6.3.8 1.1.5 1.7l-10.1 17.5c-.2.5-.6.7-1.1.7z"/><path class="st1" d="M1027.8 119c-4.3 0-7.7-3.5-7.7-7.7s3.5-7.7 7.7-7.7 7.7 3.5 7.7 7.7-3.5 7.7-7.7 7.7zm0-13c-2.9 0-5.2 2.3-5.2 5.2s2.3 5.2 5.2 5.2 5.2-2.3 5.2-5.2-2.3-5.2-5.2-5.2zm63.7-19.4c-4.3 0-7.7-3.5-7.7-7.7s3.5-7.7 7.7-7.7 7.7 3.5 7.7 7.7-3.4 7.7-7.7 7.7zm0-12.9c-2.9 0-5.2 2.3-5.2 5.2s2.3 5.2 5.2 5.2 5.2-2.3 5.2-5.2-2.3-5.2-5.2-5.2zm-48.7 16.1c-2.5 0-4.5-2-4.5-4.5s2-4.5 4.5-4.5 4.5 2 4.5 4.5-2.1 4.5-4.5 4.5zm0-6.5c-1.1 0-2 .9-2 2s.9 2 2 2 2-.9 2-2-.9-2-2-2z"/></g><g><path class="st1" d="M790.9 116.7c-.3 0-.5-.1-.7-.3l-5.1-5.1c-.4-.4-.4-1 0-1.4.4-.4 1-.4 1.4 0l5.1 5.1c.4.4.4 1 0 1.4-.2.2-.4.3-.7.3zm-30.3-30.3c-.3 0-.5-.1-.7-.3l-5.1-5.1c-.4-.4-.4-1 0-1.4.4-.4 1-.4 1.4 0l5.1 5.1c.4.4.4 1 0 1.4-.2.2-.5.3-.7.3zm25.2 0c-.3 0-.5-.1-.7-.3-.4-.4-.4-1 0-1.4l5.1-5.1c.4-.4 1-.4 1.4 0 .4.4.4 1 0 1.4l-5.1 5.1c-.2.2-.5.3-.7.3zm-30.3 30.3c-.3 0-.5-.1-.7-.3-.4-.4-.4-1 0-1.4l5.1-5.1c.4-.4 1-.4 1.4 0 .4.4.4 1 0 1.4l-5.1 5.1c-.2.2-.5.3-.7.3zM798.3 99H791c-.5 0-1-.5-1-1s.4-1 1-1h7.3c.5 0 1 .5 1 1s-.5 1-1 1zm-42.9 0h-7.3c-.5 0-1-.5-1-1s.4-1 1-1h7.3c.5 0 1 .5 1 1s-.5 1-1 1zM773 81.2c-.5 0-1-.4-1-1v-7.3c0-.5.5-1 1-1s1 .4 1 1v7.3c0 .6-.5 1-1 1zm0 42.9c-.5 0-1-.4-1-1v-7.3c0-.5.5-1 1-1s1 .4 1 1v7.3c0 .5-.5 1-1 1zm16.6-32c-.4 0-.8-.2-.9-.6-.2-.5 0-1.1.5-1.3l6.7-2.8c.5-.2 1.1 0 1.3.5.2.5 0 1.1-.5 1.3L790 92c-.1.1-.3.1-.4.1zM750 108.7c-.4 0-.8-.2-.9-.6-.2-.5 0-1.1.5-1.3l6.7-2.8c.5-.2 1.1 0 1.3.5.2.5 0 1.1-.5 1.3l-6.7 2.8c-.1 0-.2.1-.4.1zm16.3-26.1c-.4 0-.8-.2-.9-.6l-2.8-6.7c-.2-.5 0-1.1.5-1.3.5-.2 1.1 0 1.3.5l2.8 6.7c.2.5 0 1.1-.5 1.3-.1 0-.2.1-.4.1zm16.5 39.5c-.4 0-.8-.2-.9-.6l-2.8-6.7c-.2-.5 0-1.1.5-1.3.5-.2 1.1 0 1.3.5l2.8 6.7c.2.5 0 1.1-.5 1.3-.1.1-.2.1-.4.1zM780 82.5c-.1 0-.3 0-.4-.1-.5-.2-.7-.8-.5-1.3l2.8-6.7c.2-.5.8-.7 1.3-.5.5.2.7.8.5 1.3l-2.8 6.7c-.2.4-.6.6-.9.6zm-16.3 39.7c-.1 0-.3 0-.4-.1-.5-.2-.7-.8-.5-1.3l2.8-6.7c.2-.5.8-.7 1.3-.5.5.2.7.8.5 1.3l-2.8 6.7c-.2.4-.6.6-.9.6zm-7-30c-.1 0-.3 0-.4-.1l-6.7-2.8c-.5-.2-.7-.8-.5-1.3.2-.5.8-.7 1.3-.5l6.7 2.8c.5.2.7.8.5 1.3-.1.4-.5.6-.9.6zm39.7 16.3c-.1 0-.3 0-.4-.1l-6.7-2.8c-.5-.2-.7-.8-.5-1.3.2-.5.8-.7 1.3-.5l6.7 2.8c.5.2.7.8.5 1.3-.2.4-.5.6-.9.6z"/><path class="st1" d="M773.2 116.8c-10.4 0-18.8-8.4-18.8-18.8s8.4-18.8 18.8-18.8S792 87.6 792 98s-8.5 18.8-18.8 18.8zm0-35.6c-9.3 0-16.8 7.5-16.8 16.8s7.5 16.8 16.8 16.8S790 107.3 790 98s-7.5-16.8-16.8-16.8z"/></g><g><path class="st1" d="M1366.9 116.7c-.3 0-.5-.1-.7-.3l-5.1-5.1c-.4-.4-.4-1 0-1.4.4-.4 1-.4 1.4 0l5.1 5.1c.4.4.4 1 0 1.4-.2.2-.4.3-.7.3zm-30.3-30.3c-.3 0-.5-.1-.7-.3l-5.1-5.1c-.4-.4-.4-1 0-1.4.4-.4 1-.4 1.4 0l5.1 5.1c.4.4.4 1 0 1.4-.2.2-.5.3-.7.3zm25.2 0c-.3 0-.5-.1-.7-.3-.4-.4-.4-1 0-1.4l5.1-5.1c.4-.4 1-.4 1.4 0 .4.4.4 1 0 1.4l-5.1 5.1c-.2.2-.5.3-.7.3zm-30.3 30.3c-.3 0-.5-.1-.7-.3-.4-.4-.4-1 0-1.4l5.1-5.1c.4-.4 1-.4 1.4 0 .4.4.4 1 0 1.4l-5.1 5.1c-.2.2-.5.3-.7.3zm42.8-17.7h-7.3c-.5 0-1-.5-1-1s.4-1 1-1h7.3c.5 0 1 .5 1 1s-.5 1-1 1zm-42.9 0h-7.3c-.5 0-1-.5-1-1s.4-1 1-1h7.3c.5 0 1 .5 1 1s-.5 1-1 1zm17.6-17.8c-.5 0-1-.4-1-1v-7.3c0-.5.5-1 1-1s1 .4 1 1v7.3c0 .6-.5 1-1 1zm0 42.9c-.5 0-1-.4-1-1v-7.3c0-.5.5-1 1-1s1 .4 1 1v7.3c0 .5-.5 1-1 1zm16.6-32c-.4 0-.8-.2-.9-.6-.2-.5 0-1.1.5-1.3l6.7-2.8c.5-.2 1.1 0 1.3.5.2.5 0 1.1-.5 1.3L1366 92c-.1.1-.3.1-.4.1zm-39.6 16.6c-.4 0-.8-.2-.9-.6-.2-.5 0-1.1.5-1.3l6.7-2.8c.5-.2 1.1 0 1.3.5.2.5 0 1.1-.5 1.3l-6.7 2.8c-.1 0-.2.1-.4.1zm16.3-26.1c-.4 0-.8-.2-.9-.6l-2.8-6.7c-.2-.5 0-1.1.5-1.3.5-.2 1.1 0 1.3.5l2.8 6.7c.2.5 0 1.1-.5 1.3-.1 0-.2.1-.4.1zm16.5 39.5c-.4 0-.8-.2-.9-.6l-2.8-6.7c-.2-.5 0-1.1.5-1.3.5-.2 1.1 0 1.3.5l2.8 6.7c.2.5 0 1.1-.5 1.3-.1.1-.2.1-.4.1zm-2.8-39.6c-.1 0-.3 0-.4-.1-.5-.2-.7-.8-.5-1.3l2.8-6.7c.2-.5.8-.7 1.3-.5.5.2.7.8.5 1.3l-2.8 6.7c-.2.4-.6.6-.9.6zm-16.3 39.7c-.1 0-.3 0-.4-.1-.5-.2-.7-.8-.5-1.3l2.8-6.7c.2-.5.8-.7 1.3-.5.5.2.7.8.5 1.3l-2.8 6.7c-.2.4-.6.6-.9.6zm-7-30c-.1 0-.3 0-.4-.1l-6.7-2.8c-.5-.2-.7-.8-.5-1.3.2-.5.8-.7 1.3-.5l6.7 2.8c.5.2.7.8.5 1.3-.1.4-.5.6-.9.6zm39.7 16.3c-.1 0-.3 0-.4-.1l-6.7-2.8c-.5-.2-.7-.8-.5-1.3.2-.5.8-.7 1.3-.5l6.7 2.8c.5.2.7.8.5 1.3-.2.4-.5.6-.9.6z"/><path class="st1" d="M1349.2 116.8c-10.4 0-18.8-8.4-18.8-18.8s8.4-18.8 18.8-18.8S1368 87.6 1368 98s-8.5 18.8-18.8 18.8zm0-35.6c-9.3 0-16.8 7.5-16.8 16.8s7.5 16.8 16.8 16.8 16.8-7.5 16.8-16.8-7.5-16.8-16.8-16.8z"/></g></symbol><symbol id="shape" viewBox="0 0 296.8 248"><path d="M86.5 23s-141 66-63 146 204 79 204 79 74 4 69-62-82-186-82-186l-44 99-84-76z"/></symbol></svg>