<svg id="Layer_1" xmlns="http://www.w3.org/2000/svg" viewBox="0 0 36 34"><title>MAPS Icon -</title><path d="M27 20.3H9c-.6 0-1-.4-1-1 0-5.5 4.5-10 10-10s10 4.5 10 10c0 .6-.4 1-1 1zm-16.9-2H26c-.5-3.9-3.9-7-7.9-7s-7.5 3.1-8 7z"/><path d="M18 11.3c-.6 0-1-.4-1-1V3.6c0-.6.4-1 1-1s1 .4 1 1v6.7c0 .6-.5 1-1 1z"/><path d="M9 33.3c-.6 0-1-.4-1-1v-9c0-.6.4-1 1-1s1 .4 1 1v9c0 .6-.5 1-1 1z"/><path d="M27 33.3c-.6 0-1-.4-1-1v-8.8c0-.6.4-1 1-1s1 .4 1 1v8.8c0 .6-.5 1-1 1z"/><path d="M21 33.3c-.6 0-1-.4-1-1v-9c0-.6.4-1 1-1s1 .4 1 1v9c0 .6-.5 1-1 1z"/><path d="M15 33.3c-.6 0-1-.4-1-1v-9c0-.6.4-1 1-1s1 .4 1 1v9c0 .6-.5 1-1 1z"/><path d="M27 23.9H9.1c-.6 0-1-.4-1-1s.4-1 1-1H27c.6 0 1 .4 1 1s-.5 1-1 1z"/><path d="M24 7h-6c-.6 0-1-.4-1-1V1.3c0-.6.4-1 1-1h6c.6 0 1 .4 1 1V6c0 .5-.5 1-1 1zm-5-2h4V2.3h-4V5z"/><path d="M30.8 33.7H5.2c-.6 0-1-.4-1-1s.4-1 1-1h25.5c.6 0 1 .4 1 1s-.4 1-.9 1z"/><path d="M27 20.3H9c-.6 0-1-.4-1-1s.4-1 1-1h18c.6 0 1 .4 1 1s-.5 1-1 1z"/><path d="M27 23.9c-.6 0-1-.4-1-1s.4-1 1-1c.4 0 .8-.3.8-.8 0-.4-.3-.8-.8-.8-.6 0-1-.4-1-1s.4-1 1-1c1.5 0 2.8 1.2 2.8 2.8s-1.3 2.8-2.8 2.8z"/><path d="M8.6 23.9c-1.5 0-2.8-1.2-2.8-2.8s1.2-2.8 2.8-2.8c.6 0 1 .4 1 1s-.4 1-1 1c-.4 0-.8.3-.8.8 0 .4.3.8.8.8.6 0 1 .4 1 1s-.4 1-1 1z"/></svg>