<svg id="Layer_1" xmlns="http://www.w3.org/2000/svg" viewBox="0 0 36 34"><title>MAPS Icon -</title><path d="M6.9 23.8c-.6 0-1-.4-1-1v-9.3c0-.3.1-.7.2-1l3.1-9.1c.3-1.8 2-2.9 3.8-2.7 1.8.3 3 2 2.8 3.8v.2L12.5 14c-.2.5-.7.8-1.3.6-.5-.2-.8-.7-.6-1.3l3.1-9.2c.1-.7-.4-1.3-1.1-1.5-.7-.1-1.4.4-1.5 1.1v.2L8 13c0 .1-.1.2-.1.3v9.3c0 .8-.5 1.2-1 1.2z"/><path d="M16.3 23.8c-.6 0-1-.4-1-1V14c0-.7-.6-1.3-1.3-1.3-.8 0-1.4.6-1.4 1.3v4.9c0 .6-.4 1-1 1s-1-.4-1-1V14c0-1.8 1.5-3.3 3.3-3.3 1.9 0 3.3 1.5 3.3 3.3v8.8c.1.6-.4 1-.9 1z"/><path d="M8.4 33.3c-.2 0-.4 0-.5-.2-.5-.3-.6-.9-.3-1.4l2.6-4.3c.2-.3.5-.5.8-.5 2.3 0 4.2-1.9 4.2-4.2 0-.5.5-1 1-1 .6 0 1 .5 1 1 0 3.2-2.5 5.9-5.7 6.2l-2.4 3.8c0 .4-.4.6-.7.6z"/><path d="M1.1 33c-.2 0-.4 0-.5-.2-.5-.3-.6-.9-.3-1.4L6 22.3c.3-.5.9-.6 1.4-.3.5.3.6.9.3 1.4L2 32.5c-.2.3-.5.5-.9.5z"/><path d="M29 23.8c-.6 0-1-.4-1-1v-9.3c0-.1 0-.2-.1-.3L24.8 4v-.2c-.1-.3-.3-.7-.5-.9-.3-.2-.6-.3-1-.2-.7.1-1.2.8-1.1 1.5l3.1 9.2c.2.5-.1 1.1-.6 1.3-.5.2-1.1-.1-1.3-.6l-3.1-9.3v-.2c-.3-1.8.9-3.5 2.7-3.8.9-.2 1.8 0 2.5.5s1.2 1.3 1.4 2.1l3.1 9c.1.3.2.7.2 1v9.3c-.2.7-.7 1.1-1.2 1.1z"/><path d="M19.5 23.8c-.6 0-1-.4-1-1V14c0-1.8 1.5-3.3 3.3-3.3s3.3 1.5 3.3 3.3v4.9c0 .6-.4 1-1 1s-1-.4-1-1V14c0-.7-.6-1.3-1.3-1.3s-1.3.6-1.3 1.3v8.8c0 .6-.4 1-1 1z"/><path d="M27.4 33.2c-.3 0-.7-.2-.8-.5L24.2 29c-3.2-.3-5.6-2.9-5.7-6.2 0-.6.4-1 1-1 .5 0 1 .4 1 1 0 2.3 1.9 4.2 4.2 4.2.3 0 .7.2.8.5l2.6 4.2c.3.5.2 1.1-.3 1.4 0 .1-.2.1-.4.1z"/><path d="M34.9 33.3c-.3 0-.7-.2-.8-.5l-5.9-9.4c-.3-.5-.1-1.1.3-1.4.5-.3 1.1-.1 1.4.3l5.9 9.4c.3.5.1 1.1-.3 1.4-.3.1-.5.2-.6.2z"/></svg>