<svg id="Layer_1" xmlns="http://www.w3.org/2000/svg" viewBox="0 0 36 34"><title>MAPS Icon -</title><path d="M18 31.8c-.6 0-1.3-.2-1.8-.6C12.5 28.4.4 18.8.4 11.4c0-2 .7-4 1.8-5.6 1.5-2 3.7-3.3 6.1-3.6 2.5-.4 4.9.3 6.9 1.8.8.6 1.4 1.2 2 2 .1.1.1.2.2.2.4.3 1 .2 1.3-.2.6-.8 1.2-1.5 2-2 1.6-1.2 3.6-1.8 5.6-1.8 2.5 0 4.8 1 6.6 2.7s2.7 4.1 2.7 6.6c0 7.5-12.1 17.1-15.8 19.8-.5.3-1.2.5-1.8.5zM9.7 4.1c-.4 0-.7 0-1.1.1-1.9.3-3.6 1.3-4.8 2.9-.9 1.3-1.5 2.8-1.4 4.4 0 5.1 8.1 13 15 18.2.4.3.8.3 1.2 0 6.9-5.1 15-13 15-18.2 0-1.9-.8-3.8-2.1-5.2-1.4-1.4-3.2-2.1-5.2-2.1-1.6 0-3.1.5-4.4 1.4-.6.4-1.1 1-1.6 1.6-.9 1.3-2.7 1.6-4.1.7-.3-.2-.5-.4-.7-.7-.4-.6-1-1.1-1.5-1.6-1.2-1-2.7-1.5-4.3-1.5z"/><path d="M11.4 18.2H3.5c-.6 0-1-.4-1-1s.4-1 1-1h7.9c.6 0 1 .4 1 1s-.5 1-1 1z"/><path d="M32.5 18h-7.7c-.6 0-1-.4-1-1s.4-1 1-1h7.7c.6 0 1 .4 1 1s-.4 1-1 1z"/><path d="M16.4 23c-.4 0-.8-.3-.9-.7l-3.3-9.6c-.2-.5.1-1.1.6-1.3.5-.2 1.1.1 1.3.6l3.3 9.6c.2.5-.1 1.1-.6 1.3-.2.1-.3.1-.4.1z"/><path d="M23.1 23c-.4 0-.8-.3-.9-.7l-3.3-9.6c-.2-.5.1-1.1.6-1.3.5-.2 1.1.1 1.3.6l3.3 9.6c.2.5-.1 1.1-.6 1.3-.2.1-.3.1-.4.1z"/><path d="M16.4 23c-.4 0-.8-.3-.9-.7l-1.7-4.9c-.2-.5.1-1.1.6-1.3.5-.2 1.1.1 1.3.6l1.7 4.9c.2.5-.1 1.1-.6 1.3-.2.1-.3.1-.4.1z"/><path d="M16.4 23c-.1 0-.2 0-.3-.1-.5-.2-.8-.7-.6-1.3l3.3-9.6c.2-.5.7-.8 1.3-.6.5.2.8.7.6 1.3l-3.3 9.6c-.2.4-.6.7-1 .7z"/><path d="M16.4 23c-.1 0-.2 0-.3-.1-.5-.2-.8-.7-.6-1.3l1.7-4.9c.2-.5.7-.8 1.3-.6.5.2.8.7.6 1.3l-1.7 4.9c-.2.4-.6.7-1 .7z"/><path d="M11.4 18.2c-.1 0-.2 0-.3-.1-.5-.2-.8-.7-.6-1.3l1.7-4.9c.2-.5.7-.8 1.3-.6.5.2.8.7.6 1.3l-1.7 4.9c-.2.5-.6.7-1 .7z"/><path d="M23.1 23c-.1 0-.2 0-.3-.1-.5-.2-.8-.7-.6-1.3l1.7-4.9c.2-.5.7-.8 1.3-.6.5.2.8.7.6 1.3l-1.7 4.9c-.2.4-.6.7-1 .7z"/></svg>