<svg id="Layer_1" xmlns="http://www.w3.org/2000/svg" viewBox="0 0 36 34"><title>MAPS Icon -</title><path d="M31.5 33h-27c-1.7 0-3-1.3-3-3V10.2c0-1.7 1.3-3 3-3h26.9c1.7 0 3 1.3 3 3V30c.1 1.7-1.3 3-2.9 3zM4.5 9.2c-.6 0-1 .4-1 1V30c0 .6.4 1 1 1h26.9c.6 0 1-.4 1-1V10.2c0-.6-.4-1-1-1H4.5z"/><path d="M24 9H12c-.3 0-.5-.1-.7-.3S11 8.2 11 8c.1-3.8 3.2-6.8 7-7h.1c3.8.1 6.8 3.2 7 7 0 .3-.1.5-.3.7s-.5.3-.8.3zM13.1 7h9.7c-.5-2.2-2.5-3.9-4.9-4-2.3.1-4.2 1.8-4.8 4z"/><path d="M18 27.1c-.6 0-1-.4-1-1v-12c0-.6.4-1 1-1s1 .4 1 1v12c0 .5-.4 1-1 1z"/><path d="M24 21.1H12c-.6 0-1-.4-1-1s.4-1 1-1h12c.6 0 1 .4 1 1s-.4 1-1 1z"/></svg>