<svg id="Layer_1" xmlns="http://www.w3.org/2000/svg" viewBox="0 0 36 34"><title>MAPS Icon -</title><circle cx="16.7" cy="29.4" r="2"/><circle cx="27.5" cy="29.4" r="2"/><path d="M30.1 19.3H12.7c-.6 0-1-.4-1-1s.4-1 1-1H30c.5 0 .9-.3 1-.7l2.2-6.1c.2-.5-.1-1.1-.6-1.3-.1 0-.2-.1-.3-.1h-23c-.6 0-1-.4-1-1s.4-1 1-1h23c.3 0 .7.1 1 .2 1.6.5 2.4 2.2 1.9 3.8L33 17.2c-.5 1.3-1.6 2.1-2.9 2.1z"/><path d="M29.3 25.5h-13c-1.3 0-2.4-.8-2.8-2L6.9 4.3c-.1-.4-.5-.7-1-.7H1.8c-.6 0-1-.4-1-1s.4-1 1-1h4.1c1.3 0 2.4.8 2.8 2.1l6.6 19.2c.1.4.5.7.9.7h13c.6 0 1 .4 1 1s-.3.9-.9.9z"/></svg>