<svg id="Layer_1" xmlns="http://www.w3.org/2000/svg" viewBox="0 0 36 34"><title>MAPS Icon -</title><path d="M24.8 33.7c-2.4 0-4.7-.9-6.6-2.5-2-1.8-3.2-4.2-3.4-6.9v-.4c0-.6.4-1 1-1 .5 0 1 .4 1 1v.3c.1 2.1 1.1 4.1 2.7 5.5 1.6 1.4 3.7 2.1 5.8 2 4.2-.4 7.5-4 7.5-8.3V10.7c0-.6-.4-1-1-1H20.2c-.6 0-1-.4-1-1s.4-1 1-1h11.6c1.7 0 3 1.3 3 3v12.7c.1 5.3-4 9.8-9.3 10.3h-.7z"/><path d="M21.5 18.4c-.5 0-1-.2-1.4-.6-.8-.8-.8-2 0-2.8.8-.8 2-.8 2.8 0 .8.8.8 2 0 2.8-.4.4-.9.6-1.4.6z"/><path d="M27.9 18.4c-.5 0-1-.2-1.4-.6-.4-.4-.6-.9-.6-1.4 0-.5.2-1 .6-1.4.8-.8 2-.8 2.8 0 .4.4.6.9.6 1.4 0 .5-.2 1-.6 1.4-.4.4-.9.6-1.4.6zm-.7-2.7z"/><path d="M20 25.7c-.3 0-.5-.1-.7-.3-.4-.4-.4-1 0-1.4 1.5-1.5 3.4-2.3 5.5-2.3s4 .8 5.5 2.3c.4.4.4 1 0 1.4-.4.4-.9.4-1.3.1l-.1-.1c-1.1-1.1-2.6-1.7-4.1-1.7-1.5 0-3 .6-4.1 1.7-.2.2-.4.3-.7.3z"/><path d="M11.2 26.3c-5.2 0-9.6-4.1-10-9.3V3.3c0-1.7 1.3-3 3-3h14c1.6 0 3 1.3 3 3V16c.1 5.3-4 9.8-9.3 10.3h-.7zm-7-24c-.6 0-1 .4-1 1v13.6c.3 4.4 4.1 7.8 8.5 7.5 4.2-.4 7.5-4 7.5-8.3V3.3c0-.5-.5-1-1-1h-14z"/><path d="M7.9 11c-.5 0-1-.2-1.4-.6-.8-.8-.8-2 0-2.8.8-.8 2-.8 2.8 0 .8.8.8 2 0 2.8-.3.4-.8.6-1.4.6zm0-2zm0 0zm0 0zm0 0zm0 0zm0 0zm0 0z"/><path d="M14.3 11c-.5 0-1-.2-1.4-.6-.8-.8-.8-2 0-2.8.8-.8 2.1-.8 2.8 0 .8.8.8 2 0 2.8-.3.3-.9.6-1.4.6zm-.7-2.8z"/><path d="M11.2 19.3c-2 0-4-.8-5.5-2.3-.3-.3-.4-.9-.1-1.3.3-.5.9-.6 1.4-.3l.2.2c2.2 2.2 5.9 2.2 8.2-.1.4-.4 1-.4 1.4 0 .4.4.4 1 0 1.4-1.6 1.6-3.6 2.4-5.6 2.4z"/></svg>