<svg id="Layer_1" xmlns="http://www.w3.org/2000/svg" viewBox="0 0 36 34"><title>MAPS Icon -</title><path d="M18 31.3H1.1c-.6 0-1-.4-1-1V3.7c0-.6.4-1 1-1H16c1.7 0 3 1.3 3 3v24.7c0 .5-.4.9-1 .9zm-15.9-2H17V5.7c0-.6-.4-1-1-1H2.1v24.6z"/><path d="M14.2 26H5c-.6 0-1-.4-1-1s.4-1 1-1h9.2c.6 0 1 .4 1 1s-.5 1-1 1z"/><path d="M14.2 20.8H5c-.6 0-1-.4-1-1s.4-1 1-1h9.2c.6 0 1 .4 1 1s-.5 1-1 1z"/><path d="M34.9 31.3H18c-.6 0-1-.4-1-1V5.7c0-1.7 1.3-3 3-3h14.9c.6 0 1 .4 1 1v26.7c0 .5-.5.9-1 .9zm-15.9-2h14.9V4.7H20c-.6 0-1 .4-1 1v23.6z"/><path d="M31 10.4h-7.3c-.6 0-1-.4-1-1s.4-1 1-1H31c.6 0 1 .4 1 1s-.4 1-1 1z"/><path d="M31 15.6h-7.3c-.6 0-1-.4-1-1s.4-1 1-1H31c.6 0 1 .4 1 1s-.4 1-1 1z"/><path d="M31 26h-7.3c-.6 0-1-.4-1-1s.4-1 1-1H31c.6 0 1 .4 1 1s-.4 1-1 1z"/><path d="M31 20.8h-7.3c-.6 0-1-.4-1-1s.4-1 1-1H31c.6 0 1 .4 1 1s-.4 1-1 1z"/><path d="M18 26c-.3 0-.5-.1-.7-.3-.4-.4-.4-1 0-1.4l2.9-2.9c.4-.4 1-.4 1.4 0s.4 1 0 1.4l-2.9 2.9c-.1.2-.4.3-.7.3z"/><path d="M23.8 26c-.3 0-.5-.1-.7-.3l-2.8-2.9c-.4-.4-.4-1 0-1.4.4-.4 1-.4 1.4 0l2.8 2.9c.4.4.4 1 0 1.4-.2.2-.5.3-.7.3z"/><path d="M23.8 26c-.6 0-1-.4-1-1V4.2c0-.6.4-1 1-1s1 .4 1 1V25c0 .5-.5 1-1 1z"/><path d="M9.6 15.4c-2.3 0-4.2-1.9-4.2-4.2S7.3 7 9.6 7c2.3 0 4.2 1.9 4.2 4.2s-1.9 4.2-4.2 4.2zm0-6.3c-1.2 0-2.2 1-2.2 2.2s1 2.2 2.2 2.2c1.2 0 2.2-1 2.2-2.2s-1-2.2-2.2-2.2z"/></svg>