<svg id="Layer_1" data-name="Layer 1" xmlns="http://www.w3.org/2000/svg" viewBox="0 0 36 34"><defs><style>.cls-1,.cls-2{fill:none;stroke:#007187;stroke-width:2px}.cls-1{stroke-miterlimit:10}.cls-2{stroke-linecap:round;stroke-linejoin:round}</style></defs><title>MAPS Icon -</title><path class="cls-1" d="M18 1.5A15.5 15.5 0 1 0 33.5 17 15.5 15.5 0 0 0 18 1.5zm0 24.22A8.72 8.72 0 1 1 26.72 17 8.72 8.72 0 0 1 18 25.72z"/><circle class="cls-2" cx="18.08" cy="17" r="3.07"/><path class="cls-2" d="M18.06 13.6V8.51"/><path class="cls-2" d="M18.06 20.4v5.09"/><path class="cls-2" d="M21.46 17h5.02"/><path class="cls-2" d="M14.66 17h-4.65"/><path class="cls-2" d="M15.33 14.36l-3.21-3.21"/><path class="cls-2" d="M20.53 19.56l3.19 3.19"/><path class="cls-2" d="M20.88 14.4l3.25-3.25"/><path class="cls-2" d="M15.72 19.56l-3.28 3.29"/></svg>