<svg id="Layer_1" xmlns="http://www.w3.org/2000/svg" viewBox="0 0 36 34"><title>MAPS Icon -</title><path d="M20.7 28.1c-.6 0-1-.4-1-1V7.5c0-.6.4-1 1-1s1 .4 1 1v19.6c0 .5-.4 1-1 1z"/><path d="M26.5 28.1c-.6 0-1-.4-1-1V7.5c0-.6.4-1 1-1s1 .4 1 1v19.6c0 .5-.5 1-1 1z"/><path d="M15 28.1c-.6 0-1-.4-1-1V7.5c0-.6.4-1 1-1s1 .4 1 1v19.6c0 .5-.5 1-1 1z"/><path d="M9.2 28.1c-.6 0-1-.4-1-1V7.5c0-.6.4-1 1-1s1 .4 1 1v19.6c0 .5-.4 1-1 1z"/><path d="M32 3.4H4c-.6 0-1-.4-1-1s.4-1 1-1h28c.6 0 1 .4 1 1s-.4 1-1 1z"/><path d="M32 9.4c-.6 0-1-.4-1-1s.4-1 1-1c1.1 0 2-.9 2-2 0-.5-.2-1-.6-1.4-.4-.4-.9-.6-1.4-.6-.6 0-1-.4-1-1s.4-1 1-1c1.1 0 2.1.4 2.8 1.2.8.7 1.2 1.7 1.2 2.8 0 2.2-1.8 4-4 4z"/><path d="M32 9.4c-1.1 0-2.1-.4-2.8-1.2-.4-.4-.4-1 0-1.4.4-.4 1-.4 1.4 0 .4.4.9.6 1.4.6.6 0 1 .4 1 1s-.4 1-1 1z"/><path d="M4 9.4c-.6 0-1-.4-1-1s.4-1 1-1c.5 0 1-.2 1.4-.6.4-.4 1-.4 1.4 0 .4.4.4 1 0 1.4C6.1 9 5.1 9.4 4 9.4z"/><path d="M6.1 8.5c-.3 0-.5-.1-.7-.3-.4-.3-.4-1 0-1.4.4-.4.6-.9.6-1.4 0-.6.4-1 1-1s1 .4 1 1c0 1.1-.4 2.1-1.2 2.8-.2.2-.4.3-.7.3z"/><path d="M29.9 8.5c-.3 0-.5-.1-.7-.3-.8-.7-1.2-1.7-1.2-2.8 0-.6.4-1 1-1s1 .4 1 1c0 .5.2 1 .6 1.4.4.4.4 1 0 1.4-.2.2-.5.3-.7.3z"/><path d="M4 9.4c-2.2 0-4-1.8-4-4s1.8-4 4-4c.6 0 1 .4 1 1s-.4 1-1 1c-1.1 0-2 .9-2 2s.9 2 2 2c.6 0 1 .4 1 1s-.4 1-1 1z"/><path d="M26.5 28.1H9.2c-.6 0-1-.4-1-1s.4-1 1-1h17.2c.6 0 1 .4 1 1s-.4 1-.9 1z"/><path d="M31 32.6c-.6 0-1-.4-1-1 0-1.9-1.6-3.5-3.5-3.5-.6 0-1-.4-1-1s.4-1 1-1c3 0 5.5 2.5 5.5 5.5 0 .5-.5 1-1 1z"/><path d="M4.8 32.6c-.6 0-1-.4-1-1 0-3 2.5-5.5 5.5-5.5.6 0 1 .4 1 1s-.4 1-1 1c-1.9 0-3.5 1.6-3.5 3.5 0 .5-.5 1-1 1z"/><path d="M29.7 8.3H6.3c-.6 0-1-.4-1-1s.4-1 1-1h23.4c.6 0 1 .4 1 1s-.4 1-1 1z"/><path d="M26.5 28.1H9.2c-.6 0-1-.4-1-1s.4-1 1-1h17.2c.6 0 1 .4 1 1s-.4 1-.9 1z"/><path d="M31 32.6H4.8c-.6 0-1-.4-1-1s.4-1 1-1H31c.6 0 1 .4 1 1s-.5 1-1 1z"/></svg>