<svg id="Layer_1" data-name="Layer 1" xmlns="http://www.w3.org/2000/svg" viewBox="0 0 36 34"><defs><style>.cls-1{fill:none;stroke:#49ce4f;stroke-linecap:round;stroke-linejoin:round;stroke-width:2px}</style></defs><title>MAPS Icon -</title><path class="cls-1" d="M20.2 8.72h11.6a2 2 0 0 1 2 2v12.69a9.2 9.2 0 0 1-8.4 9.29 9 9 0 0 1-9.6-8.7"/><circle class="cls-1" cx="21.52" cy="16.4" r="1" transform="rotate(-45 21.521 16.396)"/><circle class="cls-1" cx="27.91" cy="16.4" r="1" transform="rotate(-45 27.912 16.398)"/><path class="cls-1" d="M20 24.71a6.8 6.8 0 0 1 9.62 0"/><path class="cls-1" d="M20.2 3.28V16a9.2 9.2 0 0 1-8.4 9.29 9 9 0 0 1-9.6-9v-13a2 2 0 0 1 2-2h14a2 2 0 0 1 2 1.99z"/><circle class="cls-1" cx="7.93" cy="8.96" r="1" transform="rotate(-45 7.93 8.955)"/><circle class="cls-1" cx="14.31" cy="8.96" r="1" transform="rotate(-45 14.309 8.953)"/><path class="cls-1" d="M16 16.27a6.8 6.8 0 0 1-9.62 0"/></svg>