<svg id="Layer_1" xmlns="http://www.w3.org/2000/svg" viewBox="0 0 36 34"><title>MAPS Icon -</title><path d="M8.7 27.9h-.4c-1.1-.1-2.1-.7-2.8-1.5s-1-2-.9-3.1c.1-1.1.7-2.1 1.5-2.8.9-.7 2-1 3.1-.9 2.3.2 4 2.3 3.7 4.6-.1 1.1-.7 2.1-1.5 2.8-.8.6-1.7.9-2.7.9zm0-6.3c-.5 0-1 .2-1.4.5-.4.4-.7.9-.8 1.5-.1.6.1 1.1.5 1.6s.9.7 1.5.8c.6.1 1.1-.1 1.6-.5s.7-.9.8-1.5c.1-.6-.1-1.1-.5-1.6s-.9-.7-1.5-.8h-.2zm-3.1 1.8z"/><path d="M24.4 16.1c-.2 0-.4-.1-.6-.2-.4-.3-.5-1-.2-1.4l4.5-6.1c.8-1 1.2-2.1 1.3-3.1 0-.9-.2-1.6-.7-2-.4-.3-.5-1-.2-1.4.3-.4 1-.5 1.4-.2 1 .8 1.6 2.1 1.5 3.7-.1 1.4-.7 3-1.7 4.2l-4.5 6c-.1.3-.4.5-.8.5z"/><path d="M11.8 25.7c-.2 0-.4-.1-.6-.2-.4-.3-.5-1-.2-1.4L28.5 1.9c.3-.4 1-.5 1.4-.2.4.3.5 1 .2 1.4L12.6 25.3c-.2.3-.5.4-.8.4z"/><path d="M27.3 27.9c-2.1 0-3.9-1.6-4.1-3.7-.2-1.2.1-2.2.8-3.1.7-.9 1.7-1.4 2.8-1.5 1.1-.1 2.2.2 3.1.9.9.7 1.4 1.7 1.5 2.8.2 2.3-1.4 4.3-3.7 4.6h-.4zm0-6.4h-.2c-.6.1-1.1.3-1.5.8s-.5 1-.5 1.6c.1 1.2 1.2 2.1 2.4 1.9 1.2-.1 2.1-1.2 1.9-2.4-.1-.6-.3-1.1-.8-1.5-.3-.2-.8-.4-1.3-.4z"/><path d="M27.8 32.5c-.2 0-.4-.1-.6-.2-1.8-1.5-2.1-4.1-.6-5.9.3-.4 1-.5 1.4-.1.4.3.5 1 .1 1.4-.8.9-.6 2.3.3 3.1.4.3.5 1 .1 1.4-.1.1-.4.3-.7.3z"/><path d="M18.7 17c-.2 0-.4-.1-.6-.2-.5-.3-.6-.9-.2-1.4 1.6-2.3 4.9-2.9 7.2-1.2.4.3.6.9.3 1.4-.3.5-.9.6-1.4.3-1.5-1-3.4-.7-4.4.7-.3.3-.6.4-.9.4z"/><path d="M11.6 16.1c-.3 0-.6-.1-.8-.4L6.2 9.6c-1-1.3-1.6-2.8-1.7-4.2 0-1.5.5-2.9 1.5-3.7.4-.3 1.1-.3 1.4.2.3.4.3 1.1-.2 1.4-.5.4-.8 1.1-.7 2 0 1 .5 2.1 1.3 3.1l4.6 6.1c.3.4.2 1.1-.2 1.4-.2.1-.4.2-.6.2z"/><path d="M24.2 25.7c-.3 0-.6-.1-.8-.4L5.9 3.2c-.3-.5-.3-1.1.2-1.4.4-.3 1.1-.3 1.4.2L25 24.1c.3.4.3 1.1-.2 1.4-.2.1-.4.2-.6.2z"/><path d="M17.3 17c-.3 0-.6-.1-.8-.4-.5-.7-1.2-1.1-2-1.3-.8-.1-1.7 0-2.4.5L11 14.2c1.1-.8 2.5-1.1 3.8-.9 1.4.2 2.5 1 3.3 2.1.3.5.2 1.1-.2 1.4-.2.1-.4.2-.6.2z"/></svg>