<svg id="Layer_1" xmlns="http://www.w3.org/2000/svg" viewBox="0 0 36 34"><title>MAPS Icon -</title><path d="M18 33.5C8.9 33.5 1.5 26.1 1.5 17S8.9.5 18 .5 34.5 7.9 34.5 17 27.1 33.5 18 33.5zm0-31C10 2.5 3.5 9 3.5 17S10 31.5 18 31.5 32.5 25 32.5 17 26 2.5 18 2.5zm0 24.2c-5.4 0-9.7-4.4-9.7-9.7 0-5.4 4.4-9.7 9.7-9.7 5.4 0 9.7 4.4 9.7 9.7 0 5.4-4.3 9.7-9.7 9.7zm0-17.4c-4.3 0-7.7 3.5-7.7 7.7s3.5 7.7 7.7 7.7 7.7-3.5 7.7-7.7-3.4-7.7-7.7-7.7z"/><path d="M18.1 21.1c-2.2 0-4.1-1.8-4.1-4.1s1.8-4.1 4.1-4.1 4.1 1.8 4.1 4.1-1.9 4.1-4.1 4.1zm0-6.2c-1.1 0-2.1.9-2.1 2.1 0 1.1.9 2.1 2.1 2.1s2.1-.9 2.1-2.1c0-1.1-1-2.1-2.1-2.1z"/><path d="M18.1 14.6c-.6 0-1-.4-1-1V8.5c0-.6.4-1 1-1s1 .4 1 1v5.1c0 .6-.5 1-1 1z"/><path d="M18.1 26.5c-.6 0-1-.4-1-1v-5.1c0-.6.4-1 1-1s1 .4 1 1v5.1c0 .5-.5 1-1 1z"/><path d="M26.5 18h-5c-.6 0-1-.4-1-1s.4-1 1-1h5c.6 0 1 .4 1 1s-.5 1-1 1z"/><path d="M14.7 18H10c-.6 0-1-.4-1-1s.4-1 1-1h4.7c.6 0 1 .4 1 1s-.5 1-1 1z"/><path d="M15.3 15.4c-.3 0-.5-.1-.7-.3l-3.2-3.2c-.4-.4-.4-1 0-1.4s1-.4 1.4 0l3.2 3.2c.4.4.4 1 0 1.4-.2.2-.4.3-.7.3z"/><path d="M23.7 23.8c-.3 0-.5-.1-.7-.3l-3.2-3.2c-.4-.4-.4-1 0-1.4s1-.4 1.4 0l3.2 3.2c.4.4.4 1 0 1.4-.2.2-.4.3-.7.3z"/><path d="M20.9 15.4c-.3 0-.5-.1-.7-.3-.4-.4-.4-1 0-1.4l3.2-3.2c.4-.4 1-.4 1.4 0s.4 1 0 1.4l-3.2 3.2c-.2.2-.5.3-.7.3z"/><path d="M12.4 23.8c-.3 0-.5-.1-.7-.3-.4-.4-.4-1 0-1.4l3.3-3.3c.4-.4 1-.4 1.4 0 .4.4.4 1 0 1.4l-3.3 3.3c-.1.3-.4.3-.7.3z"/></svg>