<svg id="Layer_1" xmlns="http://www.w3.org/2000/svg" viewBox="0 0 36 34"><title>MAPS Icon -</title><path d="M18 22.3c-3 0-5.4-2.4-5.4-5.3s2.4-5.4 5.4-5.4 5.3 2.4 5.3 5.4-2.3 5.3-5.3 5.3zm0-8.7c-1.8 0-3.4 1.5-3.4 3.4 0 1.8 1.5 3.3 3.4 3.3 1.8 0 3.3-1.5 3.3-3.3 0-1.8-1.5-3.4-3.3-3.4z"/><path d="M18 33c-3.3 0-6-2.7-6-6v-.2c-.1-1.4.1-2.9.5-4.3-1.4.4-2.9.6-4.3.5H8c-3.3 0-6-2.7-6-6s2.7-6 6-6h.2c1.4-.1 2.9.1 4.3.5-.4-1.4-.6-2.9-.5-4.3V7c0-3.3 2.7-6 6-6s6 2.7 6 6v.2c.1 1.4-.1 2.9-.5 4.3 1.4-.4 2.9-.6 4.3-.5h.1c3.3 0 6 2.7 6 6s-2.7 6-6 6h-.2c-1.4.1-2.9-.1-4.3-.5.4 1.4.6 2.9.5 4.3v.1C24 30.3 21.3 33 18 33zm-3.8-13.2c.3 0 .5.1.7.3.3.3.4.8.2 1.1-.8 1.7-1.2 3.6-1.1 5.5v.2c0 2.2 1.8 4 4 4s4-1.8 4-4v-.2c.1-1.9-.3-3.9-1.1-5.6-.2-.4-.1-.8.2-1.1.3-.3.8-.4 1.1-.2 1.7.8 3.6 1.2 5.5 1.1h.2c2.2 0 4-1.8 4-4s-1.8-4-4-4h-.2c-2-.1-3.9.3-5.6 1.1-.4.2-.8.1-1.1-.2-.3-.3-.4-.8-.2-1.1.8-1.7 1.2-3.6 1.1-5.5L22 7c0-2.2-1.8-4-4-4s-4 1.8-4 4v.2c-.1 1.9.3 3.9 1.1 5.6.2.4.1.8-.2 1.1-.3.3-.8.4-1.1.2-1.7-.8-3.6-1.2-5.5-1.1H8c-2.2 0-4 1.8-4 4s1.8 4 4 4h.2c2 .1 3.9-.3 5.6-1.1.1-.1.2-.1.4-.1z"/><path d="M24.9 30.6c-.8 0-1.7-.2-2.5-.6-.4-.2-.7-.7-.6-1.2.2-.7.2-1.3.2-2v-.2c.1-1.9-.3-3.8-1.1-5.5-.2-.4-.1-.8.2-1.1.3-.3.8-.4 1.1-.2 1.7.8 3.6 1.2 5.5 1.1h.2c.6.1 1.2 0 1.8-.2.5-.1 1 .1 1.2.6 1.1 2.4.5 5.3-1.5 7.2-1.3 1.4-2.9 2.1-4.5 2.1zm-.9-2.1c1.6.4 3.1-.3 4.1-1.3.9-.9 1.8-2.5 1.3-4.3-.5.1-1.1.1-1.6 0-1.4.1-2.9-.1-4.3-.5.4 1.4.6 2.8.5 4.3.1.7 0 1.2 0 1.8z"/><path d="M14.2 14.2c-.1 0-.3 0-.4-.1-1.7-.8-3.6-1.2-5.5-1.1h-.2c-.6-.1-1.2 0-1.8.2-.5.1-1-.1-1.2-.5-1.1-2.5-.5-5.3 1.4-7.3s4.7-2.5 7.1-1.5c.4.2.7.7.6 1.2-.2.7-.2 1.3-.2 2v.1c-.1 1.9.3 3.8 1.1 5.5.2.4.1.8-.2 1.1-.2.3-.5.4-.7.4zM8.9 11c1.2 0 2.4.2 3.6.5-.4-1.4-.6-2.8-.5-4.3V5.5c-1.7-.4-3.2.4-4.1 1.3-.9 1-1.7 2.5-1.3 4.2.5-.1 1-.1 1.6 0h.7z"/><path d="M21.8 14.2c-.3 0-.5-.1-.7-.3-.3-.3-.4-.8-.2-1.1.8-1.7 1.2-3.6 1.1-5.5v-.1-.1c.1-.6 0-1.2-.2-1.8-.1-.5.1-1 .5-1.2 2.4-1.1 5.2-.5 7.2 1.4s2.5 4.7 1.5 7.1c-.2.4-.7.7-1.2.6-.7-.2-1.3-.2-2-.2h-.2c-1.9-.1-3.8.3-5.5 1.1 0 .1-.1.1-.3.1zm2.2-7c.1 1.4-.1 2.9-.5 4.3 1.4-.4 2.8-.6 4.3-.5h1.7c.4-1.7-.4-3.2-1.3-4.1-1-.9-2.5-1.7-4.2-1.3v1.6z"/><path d="M11.1 30.5c-1.7 0-3.3-.7-4.6-2-2-1.9-2.5-4.7-1.5-7.1.2-.4.7-.7 1.2-.6.7.2 1.3.2 2 .2h.1c1.9.1 3.8-.3 5.5-1.1.4-.2.8-.1 1.1.2.3.3.4.8.2 1.1-.8 1.7-1.2 3.6-1.1 5.5v.2c-.1.6 0 1.2.2 1.8.1.5-.1 1-.5 1.2-.9.4-1.8.6-2.6.6zM6.5 23c-.4 1.7.4 3.2 1.3 4.1 1 .9 2.5 1.7 4.2 1.3-.1-.5-.1-1 0-1.6-.1-1.4.1-2.9.5-4.3-1.4.4-2.8.6-4.3.5-.5.1-1.1 0-1.7 0z"/></svg>