<svg id="Layer_1" xmlns="http://www.w3.org/2000/svg" viewBox="0 0 36 34"><title>MAPS Icon - Housing</title><path d="M34.6 21.7c-.6 0-1-.4-1-1 0-5.1-8.1-13-15-18.2-.4-.3-.8-.3-1.2 0-2.5 1.9-15 11.5-15 18.2 0 .6-.4 1-1 1s-1-.4-1-1C.4 13.2 12.5 3.6 16.2.9c1.1-.8 2.5-.8 3.6 0 3.7 2.8 15.8 12.4 15.8 19.8 0 .5-.4 1-1 1z"/><path d="M30 33.8H6c-.6 0-1-.4-1-1V12.1c0-.6.4-1 1-1s1 .4 1 1v19.7h22V12.1c0-.6.4-1 1-1s1 .4 1 1v20.7c0 .5-.4 1-1 1z"/><path d="M22 33.8c-.6 0-1-.4-1-1v-9.6c0-1.7-1.3-3-3-3s-3 1.3-3 3v9.6c0 .6-.4 1-1 1s-1-.4-1-1v-9.6c0-2.8 2.2-5 5-5s5 2.2 5 5v9.6c0 .5-.4 1-1 1z"/><path d="M18 15.8c-2.3 0-4.2-1.9-4.2-4.2s1.9-4.2 4.2-4.2c2.3 0 4.2 1.9 4.2 4.2s-1.9 4.2-4.2 4.2zm0-6.4c-1.2 0-2.2 1-2.2 2.2s1 2.2 2.2 2.2 2.2-1 2.2-2.2-1-2.2-2.2-2.2z"/></svg>