<svg id="Layer_1" xmlns="http://www.w3.org/2000/svg" viewBox="0 0 36 34"><title>MAPS Icon -</title><path d="M27.9 33.5c-.6 0-1-.4-1-1V15.6c0-.6.4-1 1-1s1 .4 1 1v16.9c0 .6-.4 1-1 1z"/><path d="M28 16.6c-2.3 0-4.1-2.7-4.1-6s1.8-6 4.1-6 4.1 2.7 4.1 6-1.8 6-4.1 6zm0-10.1c-1 0-2.1 1.7-2.1 4s1.1 4 2.1 4 2.1-1.7 2.1-4-1.1-4-2.1-4z"/><path d="M8 33.5c-.6 0-1-.4-1-1V15.7c0-.6.4-1 1-1s1 .4 1 1v16.8c0 .6-.4 1-1 1z"/><path d="M8 16.7c-2.3 0-4.1-2.6-4.1-6v-5c0-.6.4-1 1-1s1 .4 1 1v5c0 2.3 1.1 4 2.1 4s2.1-1.6 2.1-4v-5c0-.6.4-1 1-1s1 .4 1 1v5c.1 3.3-1.8 6-4.1 6z"/><path d="M8 11.5c-.6 0-1-.4-1-1v-5c0-.6.4-1 1-1s1 .4 1 1v5c0 .6-.4 1-1 1z"/><path d="M8 17c-2.4 0-4.1-2.5-4.1-6 0-.6.4-1 1-1h6.3c.6 0 1 .4 1 1-.1 3.5-1.8 6-4.2 6zm-2.1-5c.2 1.9 1.2 3 2.1 3 .9 0 1.8-1.1 2.1-3H5.9z"/><path d="M20 23h-4c-.3 0-.5-.1-.7-.3-.3-.2-.4-.5-.3-.7l.3-15c0-3.5 2.2-6.5 4.8-6.5.6 0 1 .4 1 1V22c-.1.6-.5 1-1.1 1zm-3-2h2V2.8C18 3.5 17.2 5 17.2 7L17 21zm-.8-14z"/><path d="M20 33.5c-.6 0-1-.4-1-1V13.2c0-.6.4-1 1-1s1 .4 1 1v19.3c0 .6-.4 1-1 1z"/></svg>