<svg id="Layer_1" xmlns="http://www.w3.org/2000/svg" viewBox="0 0 36 34"><title>MAPS Icon -</title><path d="M34.3 33.2H1.7c-.6 0-1-.4-1-1V13.8c0-.6.4-1 1-1h32.6c.6 0 1 .4 1 1v18.4c0 .5-.4 1-1 1zm-31.6-2h30.6V14.8H2.7v16.4z"/><path d="M29.7 33.2c-.6 0-1-.4-1-1v-7.8c0-.7-.6-1.3-1.3-1.3s-1.4.6-1.4 1.3v7.8c0 .6-.4 1-1 1s-1-.4-1-1v-7.8c0-1.8 1.5-3.3 3.3-3.3s3.3 1.5 3.3 3.3v7.8c.1.5-.4 1-.9 1z"/><path d="M20.3 33.2c-.6 0-1-.4-1-1v-7.8c0-.7-.6-1.3-1.3-1.3-.7 0-1.3.6-1.3 1.3v7.8c0 .6-.4 1-1 1s-1-.4-1-1v-7.8c0-1.8 1.5-3.3 3.3-3.3 1.8 0 3.3 1.5 3.3 3.3v7.8c0 .5-.4 1-1 1z"/><path d="M13.3 14.8c-.3 0-.6-.1-.8-.4-.4-.4-.3-1.1.1-1.4l7.1-6c.3-.3.7-.3 1.1-.1.4.2.6.5.6.9v6c0 .6-.4 1-1 1s-1-.4-1-1V9.9L14 14.5c-.3.2-.5.3-.7.3z"/><path d="M22.6 14.8c-.3 0-.6-.1-.8-.4-.3-.4-.3-1 .2-1.4l7-6c.3-.3.7-.3 1.1-.1.4.2.6.5.6.9v6c0 .6-.4 1-1 1s-1-.4-1-1V9.9l-5.4 4.6c-.2.2-.5.3-.7.3z"/><path d="M11 33.2c-.6 0-1-.4-1-1v-7.8c0-.7-.6-1.3-1.3-1.3-.7 0-1.3.6-1.3 1.3v7.8c0 .6-.4 1-1 1s-1-.4-1-1v-7.8c0-1.8 1.5-3.3 3.3-3.3 1.8 0 3.3 1.5 3.3 3.3v7.8c0 .5-.4 1-1 1z"/><path d="M11 14.8c-.6 0-1-.4-1-1v-11H7.4v11c0 .6-.4 1-1 1s-1-.4-1-1v-12c0-.6.4-1 1-1H11c.6 0 1 .4 1 1v12c0 .5-.4 1-1 1z"/></svg>