<svg id="Layer_1" xmlns="http://www.w3.org/2000/svg" viewBox="0 0 36 34"><title>MAPS Icon -</title><path d="M11 33.5c-.6 0-1-.4-1-1V9c0-.6.4-1 1-1s1 .4 1 1v23.5c0 .6-.4 1-1 1z"/><path d="M15.7 33.5c-.6 0-1-.4-1-1V9c0-.6.4-1 1-1s1 .4 1 1v23.5c0 .6-.5 1-1 1z"/><path d="M24.9 33.5c-.6 0-1-.4-1-1V25c0-.6.4-1 1-1s1 .4 1 1v7.5c0 .6-.5 1-1 1z"/><path d="M29.5 33.5c-.6 0-1-.4-1-1V25c0-.6.4-1 1-1s1 .4 1 1v7.5c0 .6-.4 1-1 1z"/><path d="M27.2 26.5c-3.9 0-7.1-3.2-7.1-7.1 0-2.8 1.6-5.3 4.1-6.4.3-.1.7-.1 1 .1s.5.5.5.8v4.8c.1.6.6 1.2 1.4 1.3.8.1 1.6-.5 1.6-1.4v-4.7c0-.3.2-.7.5-.8.3-.2.6-.2 1-.1 2.5 1.2 4.1 3.7 4.2 6.4-.1 3.9-3.3 7.1-7.2 7.1zm-3.5-10.7c-1 .9-1.5 2.3-1.5 3.6 0 2.8 2.3 5.1 5.1 5.1s5.1-2.3 5.1-5.1c0-1.4-.6-2.7-1.6-3.7v3c-.2 2-1.9 3.5-3.8 3.3-1.7-.2-3-1.5-3.2-3.2l-.1-3z"/><path d="M2.7 16.6c-.6 0-1-.4-1-1 0-7.2 5.8-13.1 13-13.1.5 0 1 .4 1 1s-.4 1-1 1c-6.1.1-11 5-11 11.1 0 .6-.4 1-1 1z"/><path d="M24.8 11.1h-4.6c-.6 0-1-.4-1-1s-.4-1-1-1H5.4c-.6 0-1-.4-1-1s.4-1 1-1h12.7c1.3 0 2.4.8 2.8 2h2.8V2.5h-2.8c-.4 1.2-1.5 2-2.8 2h-3.6c-.6 0-1-.4-1-1s.4-1 1-1h3.6c.6 0 1-.4 1-1s.4-1 1-1h4.6c.6 0 1 .4 1 1v8.6c.1.6-.4 1-.9 1z"/></svg>