<svg id="Layer_1" xmlns="http://www.w3.org/2000/svg" viewBox="0 0 36 34"><title>MAPS Icon -</title><path d="M20.5 25.9H6.7c-.6 0-1-.4-1-1V9.6c0-.6.4-1 1-1h10.7c.6 0 1 .4 1 1s-.4 1-1 1H7.7V24h12.8c.6 0 1 .4 1 1s-.4.9-1 .9z"/><path d="M31.3 21.9H19.5c-1.7 0-3-1.3-3-3V5.6c0-.6.4-1 1-1h13.8c.6 0 1 .4 1 1V21c0 .5-.5.9-1 .9zM18.5 6.6V19c0 .6.4 1 1 1h10.8V6.6H18.5z"/><path d="M20.5 25.9c-.6 0-1-.4-1-1s.4-1 1-1 1-.4 1-1 .4-1 1-1 1 .4 1 1c0 1.7-1.3 3-3 3z"/><path d="M22.5 23.9c-.6 0-1-.4-1-1s-.4-1-1-1-1-.4-1-1 .4-1 1-1c1.7 0 3 1.3 3 3 0 .6-.4 1-1 1z"/><path d="M6.7 33.4c-.6 0-1-.4-1-1V5.6c0-.6.4-1 1-1s1 .4 1 1v26.9c0 .5-.4.9-1 .9z"/><path d="M6.7 6.6c-1.7 0-3-1.3-3-3s1.3-3 3-3 3 1.3 3 3-1.3 3-3 3zm0-4c-.6 0-1 .4-1 1s.4 1 1 1 1-.4 1-1-.4-1-1-1z"/><path d="M17.5 18.2H6.7c-.6 0-1-.4-1-1s.4-1 1-1h10.7c.6 0 1 .4 1 1s-.4 1-.9 1z"/><path d="M31.3 14.2H17.5c-.6 0-1-.4-1-1s.4-1 1-1h13.8c.6 0 1 .4 1 1s-.5 1-1 1z"/></svg>