<svg id="Layer_1" xmlns="http://www.w3.org/2000/svg" viewBox="0 0 36 34"><title>MAPS Icon -</title><path d="M31.3 32.5H4.7c-1.7 0-3-1.3-3-3v-25c0-1.7 1.3-3 3-3h26.7c1.7 0 3 1.3 3 3v24.9c-.1 1.7-1.4 3.1-3.1 3.1zM4.7 3.5c-.6 0-1 .4-1 1v24.9c0 .6.4 1 1 1h26.7c.6 0 1-.4 1-1V4.5c0-.6-.4-1-1-1H4.7z"/><path d="M33.3 7.8H2.7c-.6 0-1-.4-1-1s.4-1 1-1h30.7c.6 0 1 .4 1 1s-.5 1-1.1 1z"/><path d="M33.3 28.6H2.7c-.6 0-1-.4-1-1s.4-1 1-1h30.7c.6 0 1 .4 1 1s-.5 1-1.1 1z"/><path d="M2.9 24.2c-.3 0-.6-.2-.8-.4-.3-.5-.2-1.1.3-1.4L26.5 6c.5-.3 1.1-.2 1.4.3.3.5.2 1.1-.3 1.4L3.4 24c-.2.1-.4.2-.5.2z"/><path d="M8.9 28.6c-.3 0-.6-.2-.8-.4-.3-.5-.2-1.1.3-1.4l24.3-16.5c.5-.3 1.1-.2 1.4.3s.2 1.1-.3 1.4L9.4 28.4c-.2.2-.3.2-.5.2z"/><path d="M10.3 19.1c-.6 0-1-.4-1-1V6.8c0-.6.4-1 1-1s1 .4 1 1v11.3c0 .6-.4 1-1 1z"/><path d="M18 14c-.6 0-1-.4-1-1V6.8c0-.6.4-1 1-1s1 .4 1 1V13c0 .5-.4 1-1 1z"/><path d="M18 28.6c-.6 0-1-.4-1-1v-6.1c0-.6.4-1 1-1s1 .4 1 1v6.1c0 .6-.4 1-1 1z"/><path d="M25.7 28.6c-.6 0-1-.4-1-1V16.2c0-.6.4-1 1-1s1 .4 1 1v11.4c0 .6-.5 1-1 1z"/></svg>