<svg id="Layer_1" xmlns="http://www.w3.org/2000/svg" viewBox="0 0 585.2 556"><defs><style>.ipa0{fill:#fff}</style><pattern id="impactPatternAnimated" width="585.2" height="556" patternUnits="userSpaceOnUse"><g id="trees-2_1_" class="icon"><path class="ipa0" d="M172.6 178.3c-11 0-20-9-20-20s9-20 20-20 20 9 20 20-9 20-20 20zm0-38c-9.9 0-18 8.1-18 18s8.1 18 18 18 18-8.1 18-18-8.1-18-18-18z"/><path class="ipa0" d="M172.1 206c-.6 0-1-.4-1-1v-35c0-.6.4-1 1-1s1 .4 1 1v35c0 .6-.5 1-1 1z"/><path class="ipa0" d="M172.6 171.4c-.3 0-.7-.2-.9-.5l-5.5-9.5c-.3-.5-.1-1.1.4-1.4.5-.3 1.1-.1 1.4.4l5.5 9.5c.3.5.1 1.1-.4 1.4-.2 0-.3.1-.5.1z"/><path class="ipa0" d="M172.6 171.4c-.2 0-.3 0-.5-.1-.5-.3-.6-.9-.4-1.4l8.6-14.7c.3-.5.9-.6 1.4-.4.5.3.6.9.4 1.4l-8.6 14.7c-.2.3-.6.5-.9.5z"/><path class="ipa0" d="M205.1 192.2c-5.8 0-10.5-4.7-10.5-10.5s4.7-10.5 10.5-10.5 10.5 4.7 10.5 10.5-4.7 10.5-10.5 10.5zm0-19c-4.7 0-8.5 3.8-8.5 8.5s3.8 8.5 8.5 8.5 8.5-3.8 8.5-8.5-3.8-8.5-8.5-8.5z"/><path class="ipa0" d="M205.1 206c-.6 0-1-.4-1-1v-17c0-.6.4-1 1-1s1 .4 1 1v17c0 .6-.5 1-1 1z"/><path class="ipa0" d="M205.1 188.7c-.3 0-.7-.2-.9-.5l-2.7-4.7c-.3-.5-.1-1.1.4-1.4.5-.3 1.1-.1 1.4.4l2.7 4.7c.3.5.1 1.1-.4 1.4-.1.1-.3.1-.5.1z"/><path class="ipa0" d="M205.1 188.7c-.2 0-.4-.1-.5-.2-.5-.3-.6-.9-.3-1.4l4.3-6.7c.3-.5.9-.6 1.4-.3.5.3.6.9.3 1.4l-4.3 6.7c-.2.4-.5.5-.9.5z"/></g><g id="forest_2_" class="icon"><path class="ipa0" d="M381.1 120c-.6 0-1-.4-1-1V82c0-.6.4-1 1-1s1 .4 1 1v37c0 .6-.5 1-1 1z"/><path class="ipa0" d="M373.9 90.1c-.6 0-1-.4-1-1s.4-1 1-1c3.5 0 6.3-2.8 6.3-6.3 0-.6.4-1 1-1s1 .4 1 1c.1 4.5-3.7 8.3-8.3 8.3z"/><path class="ipa0" d="M373.9 96.2c-.6 0-1-.4-1-1s.4-1 1-1c3.5 0 6.3-2.8 6.3-6.3 0-.6.4-1 1-1s1 .4 1 1c.1 4.6-3.7 8.3-8.3 8.3z"/><path class="ipa0" d="M373.9 102.4c-.6 0-1-.4-1-1s.4-1 1-1c3.5 0 6.3-2.8 6.3-6.3 0-.6.4-1 1-1s1 .4 1 1c.1 4.6-3.7 8.3-8.3 8.3z"/><path class="ipa0" d="M373.9 108.6c-.6 0-1-.4-1-1s.4-1 1-1c3.5 0 6.3-2.8 6.3-6.3 0-.6.4-1 1-1s1 .4 1 1c.1 4.5-3.7 8.3-8.3 8.3z"/><path class="ipa0" d="M388.6 90.1c-4.6 0-8.3-3.7-8.3-8.3 0-.6.4-1 1-1s1 .4 1 1c0 3.5 2.8 6.3 6.3 6.3.6 0 1 .4 1 1s-.5 1-1 1z"/><path class="ipa0" d="M388.6 96.2c-4.6 0-8.3-3.7-8.3-8.3 0-.6.4-1 1-1s1 .4 1 1c0 3.5 2.8 6.3 6.3 6.3.6 0 1 .4 1 1s-.5 1-1 1z"/><path class="ipa0" d="M388.6 102.4c-4.6 0-8.3-3.7-8.3-8.3 0-.6.4-1 1-1s1 .4 1 1c0 3.5 2.8 6.3 6.3 6.3.6 0 1 .4 1 1s-.5 1-1 1z"/><path class="ipa0" d="M388.6 108.6c-4.6 0-8.3-3.7-8.3-8.3 0-.6.4-1 1-1s1 .4 1 1c0 3.5 2.8 6.3 6.3 6.3.6 0 1 .4 1 1s-.5 1-1 1z"/><path class="ipa0" d="M417.1 120c-.6 0-1-.4-1-1V82c0-.6.4-1 1-1s1 .4 1 1v37c0 .6-.5 1-1 1z"/><path class="ipa0" d="M410.3 90.1c-.6 0-1-.4-1-1s.4-1 1-1c3.5 0 6.3-2.8 6.3-6.3 0-.6.4-1 1-1s1 .4 1 1c0 4.5-3.7 8.3-8.3 8.3z"/><path class="ipa0" d="M410.3 96.2c-.6 0-1-.4-1-1s.4-1 1-1c3.5 0 6.3-2.8 6.3-6.3 0-.6.4-1 1-1s1 .4 1 1c0 4.6-3.7 8.3-8.3 8.3z"/><path class="ipa0" d="M410.3 102.4c-.6 0-1-.4-1-1s.4-1 1-1c3.5 0 6.3-2.8 6.3-6.3 0-.6.4-1 1-1s1 .4 1 1c0 4.6-3.7 8.3-8.3 8.3z"/><path class="ipa0" d="M410.3 108.6c-.6 0-1-.4-1-1s.4-1 1-1c3.5 0 6.3-2.8 6.3-6.3 0-.6.4-1 1-1s1 .4 1 1c0 4.5-3.7 8.3-8.3 8.3z"/><path class="ipa0" d="M425 90.1c-4.6 0-8.3-3.7-8.3-8.3 0-.6.4-1 1-1s1 .4 1 1c0 3.5 2.8 6.3 6.3 6.3.6 0 1 .4 1 1s-.5 1-1 1z"/><path class="ipa0" d="M425 96.2c-4.6 0-8.3-3.7-8.3-8.3 0-.6.4-1 1-1s1 .4 1 1c0 3.5 2.8 6.3 6.3 6.3.6 0 1 .4 1 1s-.5 1-1 1z"/><path class="ipa0" d="M425 102.4c-4.6 0-8.3-3.7-8.3-8.3 0-.6.4-1 1-1s1 .4 1 1c0 3.5 2.8 6.3 6.3 6.3.6 0 1 .4 1 1s-.5 1-1 1z"/><path class="ipa0" d="M425 108.6c-4.6 0-8.3-3.7-8.3-8.3 0-.6.4-1 1-1s1 .4 1 1c0 3.5 2.8 6.3 6.3 6.3.6 0 1 .4 1 1s-.5 1-1 1z"/><g><path class="ipa0" d="M399.1 120c-.6 0-1-.4-1-1V82c0-.6.4-1 1-1s1 .4 1 1v37c0 .6-.5 1-1 1z"/><path class="ipa0" d="M392 90.1c-.6 0-1-.4-1-1s.4-1 1-1c3.5 0 6.3-2.8 6.3-6.3 0-.6.4-1 1-1s1 .4 1 1c.1 4.5-3.7 8.3-8.3 8.3z"/><path class="ipa0" d="M392 96.2c-.6 0-1-.4-1-1s.4-1 1-1c3.5 0 6.3-2.8 6.3-6.3 0-.6.4-1 1-1s1 .4 1 1c.1 4.6-3.7 8.3-8.3 8.3z"/><path class="ipa0" d="M392 102.4c-.6 0-1-.4-1-1s.4-1 1-1c3.5 0 6.3-2.8 6.3-6.3 0-.6.4-1 1-1s1 .4 1 1c.1 4.6-3.7 8.3-8.3 8.3z"/><path class="ipa0" d="M392 108.6c-.6 0-1-.4-1-1s.4-1 1-1c3.5 0 6.3-2.8 6.3-6.3 0-.6.4-1 1-1s1 .4 1 1c.1 4.5-3.7 8.3-8.3 8.3z"/><path class="ipa0" d="M406.7 90.1c-4.6 0-8.3-3.7-8.3-8.3 0-.6.4-1 1-1s1 .4 1 1c0 3.5 2.8 6.3 6.3 6.3.6 0 1 .4 1 1s-.5 1-1 1z"/><path class="ipa0" d="M406.7 96.2c-4.6 0-8.3-3.7-8.3-8.3 0-.6.4-1 1-1s1 .4 1 1c0 3.5 2.8 6.3 6.3 6.3.6 0 1 .4 1 1s-.5 1-1 1z"/><path class="ipa0" d="M406.7 102.4c-4.6 0-8.3-3.7-8.3-8.3 0-.6.4-1 1-1s1 .4 1 1c0 3.5 2.8 6.3 6.3 6.3.6 0 1 .4 1 1s-.5 1-1 1z"/><path class="ipa0" d="M406.7 108.6c-4.6 0-8.3-3.7-8.3-8.3 0-.6.4-1 1-1s1 .4 1 1c0 3.5 2.8 6.3 6.3 6.3.6 0 1 .4 1 1s-.5 1-1 1z"/></g></g><g id="tractor_1_" class="icon"><path class="ipa0" d="M309.8 191.5c-8.6 0-15.6-7-15.6-15.6s7-15.6 15.6-15.6 15.6 7 15.6 15.6-6.9 15.6-15.6 15.6zm0-29.2c-7.5 0-13.6 6.1-13.6 13.6s6.1 13.6 13.6 13.6 13.6-6.1 13.6-13.6c.1-7.5-6-13.6-13.6-13.6z"/><path class="ipa0" d="M350 192c-5.2 0-9.5-4.3-9.5-9.5s4.3-9.5 9.5-9.5 9.5 4.3 9.5 9.5-4.2 9.5-9.5 9.5zm0-17c-4.1 0-7.5 3.4-7.5 7.5s3.4 7.5 7.5 7.5 7.5-3.4 7.5-7.5-3.3-7.5-7.5-7.5z"/><path class="ipa0" d="M309.8 185.4c-5.2 0-9.5-4.3-9.5-9.5s4.3-9.5 9.5-9.5 9.5 4.3 9.5 9.5-4.2 9.5-9.5 9.5zm0-17c-4.1 0-7.5 3.4-7.5 7.5s3.4 7.5 7.5 7.5 7.5-3.4 7.5-7.5c.1-4.1-3.3-7.5-7.5-7.5z"/><path class="ipa0" d="M350 187.7c-2.9 0-5.3-2.4-5.3-5.3s2.4-5.3 5.3-5.3 5.3 2.4 5.3 5.3c0 3-2.4 5.3-5.3 5.3zm0-8.5c-1.8 0-3.3 1.5-3.3 3.3s1.5 3.3 3.3 3.3 3.3-1.5 3.3-3.3-1.5-3.3-3.3-3.3z"/><path class="ipa0" d="M341.1 183h-18c-.6 0-1-.4-1-1s.4-1 1-1h18c.6 0 1 .4 1 1s-.5 1-1 1z"/><path class="ipa0" d="M350.1 175c-.6 0-1-.4-1-1v-8h-29c-.6 0-1-.4-1-1s.4-1 1-1h30c.6 0 1 .4 1 1v9c0 .6-.5 1-1 1z"/><path class="ipa0" d="M346.1 166c-.6 0-1-.4-1-1v-11c0-.6.4-1 1-1s1 .4 1 1v11c0 .6-.5 1-1 1z"/><path class="ipa0" d="M310.1 162c-.6 0-1-.4-1-1v-7c0-.6.4-1 1-1s1 .4 1 1v7c0 .6-.5 1-1 1z"/><path class="ipa0" d="M313.1 155h-8c-.6 0-1-.4-1-1s.4-1 1-1h8c.6 0 1 .4 1 1s-.5 1-1 1z"/><path class="ipa0" d="M350.1 171h-21c-.6 0-1-.4-1-1s.4-1 1-1h21c.6 0 1 .4 1 1s-.5 1-1 1z"/><path class="ipa0" d="M350.1 175h-15c-.6 0-1-.4-1-1s.4-1 1-1h15c.6 0 1 .4 1 1s-.5 1-1 1z"/></g><g id="sunflower_1_" class="icon"><path class="ipa0" d="M472.1 199c-.6 0-1-.4-1-1v-24c0-.6.4-1 1-1s1 .4 1 1v24c0 .6-.5 1-1 1z"/><path class="ipa0" d="M472.2 174.8c-5.9 0-10.8-4.8-10.8-10.8s4.8-10.8 10.8-10.8S483 158.1 483 164s-4.8 10.8-10.8 10.8zm0-19.5c-4.8 0-8.8 3.9-8.8 8.8s3.9 8.8 8.8 8.8 8.8-3.9 8.8-8.8-3.9-8.8-8.8-8.8z"/><path class="ipa0" d="M472.3 194.5c-.6 0-1-.4-1-1 0-4.8-3.9-8.8-8.8-8.8-.6 0-1-.4-1-1s.4-1 1-1c5.9 0 10.8 4.8 10.8 10.8 0 .6-.5 1-1 1z"/><path class="ipa0" d="M472.3 194.5c-.6 0-1-.4-1-1 0-5.9 4.8-10.8 10.8-10.8.6 0 1 .4 1 1s-.4 1-1 1c-4.8 0-8.8 3.9-8.8 8.8 0 .6-.5 1-1 1z"/><path class="ipa0" d="M472.1 155c-.6 0-1-.4-1-1v-9c0-.6.4-1 1-1s1 .4 1 1v9c0 .6-.5 1-1 1z"/><path class="ipa0" d="M462.1 165h-9c-.6 0-1-.4-1-1s.4-1 1-1h9c.6 0 1 .4 1 1s-.5 1-1 1z"/><path class="ipa0" d="M491.1 165h-9c-.6 0-1-.4-1-1s.4-1 1-1h9c.6 0 1 .4 1 1s-.5 1-1 1z"/><path class="ipa0" d="M465.5 158.2c-.3 0-.5-.1-.7-.3l-6.9-6.9c-.4-.4-.4-1 0-1.4s1-.4 1.4 0l6.9 6.9c.4.4.4 1 0 1.4-.2.2-.5.3-.7.3z"/><path class="ipa0" d="M485.9 178.6c-.3 0-.5-.1-.7-.3l-6.9-6.9c-.4-.4-.4-1 0-1.4s1-.4 1.4 0l6.9 6.9c.4.4.4 1 0 1.4-.2.2-.4.3-.7.3z"/><path class="ipa0" d="M458.6 178.6c-.3 0-.5-.1-.7-.3-.4-.4-.4-1 0-1.4l6.9-6.9c.4-.4 1-.4 1.4 0s.4 1 0 1.4l-6.9 6.9c-.2.2-.5.3-.7.3z"/><path class="ipa0" d="M479 158.2c-.3 0-.5-.1-.7-.3-.4-.4-.4-1 0-1.4l6.9-6.9c.4-.4 1-.4 1.4 0s.4 1 0 1.4l-6.9 6.9c-.1.2-.4.3-.7.3z"/></g><g id="health-2_2_" class="icon"><path class="ipa0" d="M276.1 123h-42c-.6 0-1-.4-1-1V86c0-.6.4-1 1-1h42c.6 0 1 .4 1 1v36c0 .6-.5 1-1 1zm-41-2h40V87h-40v34z"/><path class="ipa0" d="M262.7 87h-15.1c-.6 0-1-.4-1-1 0-4.6 3.9-8.6 8.6-8.6s8.6 3.9 8.6 8.6c-.1.6-.5 1-1.1 1zm-14-2h12.9c-.5-3.1-3.3-5.6-6.5-5.6s-5.9 2.5-6.4 5.6z"/><path class="ipa0" d="M255.1 114c-.6 0-1-.4-1-1V95c0-.6.4-1 1-1s1 .4 1 1v18c0 .6-.5 1-1 1z"/><path class="ipa0" d="M264.1 105h-18c-.6 0-1-.4-1-1s.4-1 1-1h18c.6 0 1 .4 1 1s-.5 1-1 1z"/></g><g id="weight-2_2_" class="icon"><path class="ipa0" d="M494.1 33h-43c-.6 0-1-.4-1-1s.4-1 1-1h43c.6 0 1 .4 1 1s-.5 1-1 1z"/><path class="ipa0" d="M494.1 26h-43c-.6 0-1-.4-1-1s.4-1 1-1h43c.6 0 1 .4 1 1s-.5 1-1 1z"/><path class="ipa0" d="M446.6 46c-3 0-5.5-2.5-5.5-5.5v-24c0-3 2.5-5.5 5.5-5.5s5.5 2.5 5.5 5.5v24c0 3-2.5 5.5-5.5 5.5zm0-33c-1.9 0-3.5 1.6-3.5 3.5v24c0 1.9 1.6 3.5 3.5 3.5s3.5-1.6 3.5-3.5v-24c0-1.9-1.6-3.5-3.5-3.5z"/><path class="ipa0" d="M439.8 37h-.4c-1.8 0-3.3-1.5-3.3-3.3V22.3c0-1.8 1.5-3.3 3.3-3.3h.4c1.8 0 3.3 1.5 3.3 3.3v11.4c0 1.8-1.5 3.3-3.3 3.3zm-.4-16c-.7 0-1.3.6-1.3 1.3v11.4c0 .7.6 1.3 1.3 1.3h.4c.7 0 1.3-.6 1.3-1.3V22.3c0-.7-.6-1.3-1.3-1.3h-.4z"/><path class="ipa0" d="M498.6 46c-3 0-5.5-2.5-5.5-5.5v-24c0-3 2.5-5.5 5.5-5.5s5.5 2.5 5.5 5.5v24c0 3-2.5 5.5-5.5 5.5zm0-33c-1.9 0-3.5 1.6-3.5 3.5v24c0 1.9 1.6 3.5 3.5 3.5s3.5-1.6 3.5-3.5v-24c0-1.9-1.6-3.5-3.5-3.5z"/><path class="ipa0" d="M437.1 33.7c-3.2 0-5.1-1.9-5.1-5.1s1.9-5.1 5.1-5.1c.6 0 1 .4 1 1v8.2c0 .6-.5 1-1 1zm-1-8c-1.4.3-2.1 1.3-2.1 3s.7 2.7 2.1 3v-6z"/><path class="ipa0" d="M505.8 37h-.4c-1.8 0-3.3-1.5-3.3-3.3V22.3c0-1.8 1.5-3.3 3.3-3.3h.4c1.8 0 3.3 1.5 3.3 3.3v11.4c0 1.8-1.5 3.3-3.3 3.3zm-.4-16c-.7 0-1.3.6-1.3 1.3v11.4c0 .7.6 1.3 1.3 1.3h.4c.7 0 1.3-.6 1.3-1.3V22.3c0-.7-.6-1.3-1.3-1.3h-.4z"/><path class="ipa0" d="M508.1 33.7c-.6 0-1-.4-1-1v-8.2c0-.6.4-1 1-1 2.4 0 5.1 2.2 5.1 5.1s-2.7 5.1-5.1 5.1zm1-7.9v5.8c1.1-.4 2.1-1.5 2.1-2.9s-1-2.5-2.1-2.9z"/></g><g id="cup_2_" class="icon"><path class="ipa0" d="M542.9 89c-.6 0-1-.4-1-1 0-4.8-3.9-8.8-8.8-8.8-.6 0-1-.4-1-1s.4-1 1-1c5.9 0 10.8 4.8 10.8 10.8 0 .6-.5 1-1 1z"/><path class="ipa0" d="M548.5 123h-11.2c-.5 0-.9-.3-1-.8l-8.4-34c-.1-.3 0-.6.2-.9s.5-.4.8-.4H557c.3 0 .6.1.8.4s.3.6.2.9l-8.4 34c-.2.5-.6.8-1.1.8zm-10.4-2h9.7l7.9-32h-25.5l7.9 32z"/><path class="ipa0" d="M543.1 93c-.6 0-1-.4-1-1v-4c0-.6.4-1 1-1s1 .4 1 1v4c0 .6-.5 1-1 1z"/><path class="ipa0" d="M556.1 94h-26c-.6 0-1-.4-1-1s.4-1 1-1h26c.6 0 1 .4 1 1s-.5 1-1 1z"/></g><g id="graph-3_2_" class="icon"><path class="ipa0" d="M188.3 49c-.4 0-.7-.2-.9-.5l-15.6-26.9c-.3-.5-.1-1.1.4-1.4.5-.3 1.1-.1 1.4.4L188.3 46l16.3-28.2c.3-.5.9-.6 1.4-.4.5.3.6.9.4 1.4l-17.1 29.7c-.3.3-.6.5-1 .5z"/><path class="ipa0" d="M162.8 35.1c-.2 0-.3 0-.5-.1-.5-.3-.6-.9-.4-1.4l7.5-13.1c.3-.5.9-.6 1.4-.4.5.3.6.9.4 1.4l-7.5 13.1c-.2.3-.6.5-.9.5z"/><path class="ipa0" d="M160.4 44.1c-3.2 0-5.8-2.6-5.8-5.8s2.6-5.8 5.8-5.8 5.8 2.6 5.8 5.8-2.6 5.8-5.8 5.8zm0-9.6c-2.1 0-3.8 1.7-3.8 3.8s1.7 3.8 3.8 3.8c2.1 0 3.8-1.7 3.8-3.8s-1.7-3.8-3.8-3.8z"/><path class="ipa0" d="M208 20c-3.2 0-5.8-2.6-5.8-5.8s2.6-5.8 5.8-5.8 5.8 2.6 5.8 5.8-2.6 5.8-5.8 5.8zm0-9.7c-2.1 0-3.8 1.7-3.8 3.8s1.7 3.8 3.8 3.8c2.1 0 3.8-1.7 3.8-3.8s-1.7-3.8-3.8-3.8z"/><path class="ipa0" d="M171.5 22.4c-1.9 0-3.4-1.5-3.4-3.4s1.5-3.4 3.4-3.4 3.4 1.5 3.4 3.4-1.5 3.4-3.4 3.4zm0-4.9c-.8 0-1.4.6-1.4 1.4s.6 1.4 1.4 1.4 1.4-.6 1.4-1.4-.6-1.4-1.4-1.4z"/></g><g id="barn-2_2_" class="icon"><path class="ipa0" d="M126.1 121h-31c-.6 0-1-.4-1-1V93c0-.6.4-1 1-1s1 .4 1 1v26h29V93c0-.6.4-1 1-1s1 .4 1 1v27c0 .6-.5 1-1 1z"/><path class="ipa0" d="M130.8 102.4c-.3 0-.7-.2-.9-.5l-8.1-14.1-11.1-4.5-11.1 4.5-8.1 14.1c-.3.5-.9.6-1.4.4-.5-.3-.6-.9-.4-1.4L98 86.5c.1-.2.3-.3.5-.4l11.8-4.7c.2-.1.5-.1.7 0l11.8 4.7c.2.1.4.2.5.4l8.3 14.4c.3.5.1 1.1-.4 1.4 0 0-.2.1-.4.1z"/><path class="ipa0" d="M118.1 121h-15c-.6 0-1-.4-1-1V94c0-.6.4-1 1-1h15c.6 0 1 .4 1 1v26c0 .6-.5 1-1 1zm-14-2h13V95h-13v24z"/><path class="ipa0" d="M118.1 108h-15c-.6 0-1-.4-1-1s.4-1 1-1h15c.6 0 1 .4 1 1s-.5 1-1 1z"/><path class="ipa0" d="M103 121c-.3 0-.6-.1-.8-.4-.4-.4-.3-1.1.1-1.4l15.5-13.2c.4-.4 1.1-.3 1.4.1.4.4.3 1.1-.1 1.4l-15.5 13.2c-.2.2-.4.3-.6.3z"/><path class="ipa0" d="M103 121c-.3 0-.6-.1-.8-.4-.4-.4-.3-1.1.1-1.4l15.5-13.2c.4-.4 1.1-.3 1.4.1.4.4.3 1.1-.1 1.4l-15.5 13.2c-.2.2-.4.3-.6.3z"/><path class="ipa0" d="M118.5 121c-.2 0-.5-.1-.6-.2l-15.5-13.2c-.4-.4-.5-1-.1-1.4.4-.4 1-.5 1.4-.1l15.5 13.2c.4.4.5 1 .1 1.4-.3.2-.6.3-.8.3z"/></g><g id="pin-3" class="icon"><path class="ipa0" d="M40.1 58.1c-.4 0-.7-.2-.9-.5L17.5 20.1c-.2-.3-.2-.7 0-1L28.4.5c.2-.3.5-.5.8-.5h21.7c.4 0 .7.2.9.5l10.8 18.7c.2.3.2.7 0 1L40.9 57.6c-.1.3-.5.5-.8.5zM19.6 19.6l20.5 35.5 20.5-35.4L50.3 2H29.8L19.6 19.6z"/><path class="ipa0" d="M40.1 28.7c-5.2 0-9.5-4.3-9.5-9.5s4.3-9.5 9.5-9.5 9.5 4.3 9.5 9.5-4.3 9.5-9.5 9.5zm0-17c-4.1 0-7.5 3.4-7.5 7.5s3.4 7.5 7.5 7.5 7.5-3.4 7.5-7.5-3.4-7.5-7.5-7.5z"/></g><g id="crops_1_" class="icon"><path class="ipa0" d="M40.1 194c-.6 0-1-.4-1-1v-32c0-.6.4-1 1-1s1 .4 1 1v32c0 .6-.5 1-1 1z"/><path class="ipa0" d="M40.1 190.3c-4.6 0-8.3-3.7-8.3-8.3 0-.6.4-1 1-1 4.6 0 8.3 3.7 8.3 8.3 0 .6-.5 1-1 1zm-6.2-7.2c.5 2.6 2.5 4.7 5.1 5.1-.5-2.6-2.5-4.6-5.1-5.1z"/><path class="ipa0" d="M40.1 175.7c-4.6 0-8.3-3.7-8.3-8.3 0-.6.4-1 1-1 4.6 0 8.3 3.7 8.3 8.3 0 .6-.5 1-1 1zm-6.2-7.2c.5 2.6 2.5 4.7 5.1 5.1-.5-2.6-2.5-4.7-5.1-5.1z"/><path class="ipa0" d="M40.1 161.6c-4.6 0-8.3-3.7-8.3-8.3 0-.6.4-1 1-1 4.6 0 8.3 3.7 8.3 8.3 0 .5-.5 1-1 1zm-6.2-7.2c.5 2.6 2.5 4.7 5.1 5.1-.5-2.6-2.5-4.7-5.1-5.1z"/><path class="ipa0" d="M40.1 186.7c-.6 0-1-.4-1-1 0-4.6 3.7-8.3 8.3-8.3.6 0 1 .4 1 1 0 4.6-3.7 8.3-8.3 8.3zm6.2-7.2c-2.6.5-4.7 2.5-5.1 5.1 2.6-.5 4.6-2.5 5.1-5.1z"/><path class="ipa0" d="M40.1 172c-.6 0-1-.4-1-1 0-4.6 3.7-8.3 8.3-8.3.6 0 1 .4 1 1 0 4.6-3.7 8.3-8.3 8.3zm6.2-7.2c-2.6.5-4.7 2.5-5.1 5.1 2.6-.4 4.6-2.5 5.1-5.1z"/><path class="ipa0" d="M16.1 194c-.6 0-1-.4-1-1v-32c0-.6.4-1 1-1s1 .4 1 1v32c0 .6-.5 1-1 1z"/><path class="ipa0" d="M15.8 190.3c-4.6 0-8.3-3.7-8.3-8.3 0-.3.1-.5.3-.7s.4-.3.7-.3c4.6 0 8.3 3.7 8.3 8.3 0 .6-.5 1-1 1zm-6.2-7.2c.5 2.6 2.5 4.7 5.1 5.1-.5-2.6-2.5-4.6-5.1-5.1z"/><path class="ipa0" d="M15.8 175.7c-4.6 0-8.3-3.7-8.3-8.3 0-.3.1-.5.3-.7s.4-.3.7-.3c4.6 0 8.3 3.7 8.3 8.3 0 .6-.5 1-1 1zm-6.2-7.2c.5 2.6 2.5 4.7 5.1 5.1-.5-2.6-2.5-4.7-5.1-5.1z"/><path class="ipa0" d="M15.8 161.6c-4.6 0-8.3-3.7-8.3-8.3 0-.3.1-.5.3-.7s.4-.3.7-.3c4.6 0 8.3 3.7 8.3 8.3 0 .5-.5 1-1 1zm-6.2-7.2c.5 2.6 2.5 4.7 5.1 5.1-.5-2.6-2.5-4.7-5.1-5.1z"/><path class="ipa0" d="M15.8 186.7c-.6 0-1-.4-1-1 0-4.6 3.7-8.3 8.3-8.3.6 0 1 .4 1 1 0 4.6-3.7 8.3-8.3 8.3zm6.2-7.2c-2.6.5-4.7 2.5-5.1 5.1 2.6-.5 4.7-2.5 5.1-5.1z"/><path class="ipa0" d="M15.8 172c-.6 0-1-.4-1-1 0-4.6 3.7-8.3 8.3-8.3.6 0 1 .4 1 1 0 4.6-3.7 8.3-8.3 8.3zm6.2-7.2c-2.6.5-4.7 2.5-5.1 5.1 2.6-.4 4.7-2.5 5.1-5.1z"/><g><path class="ipa0" d="M62.1 194c-.6 0-1-.4-1-1v-32c0-.6.4-1 1-1s1 .4 1 1v32c0 .6-.5 1-1 1z"/><path class="ipa0" d="M61.7 190.3c-.6 0-1-.4-1-1 0-4.6 3.7-8.3 8.3-8.3.6 0 1 .4 1 1 .1 4.6-3.7 8.3-8.3 8.3zm6.3-7.2c-2.6.5-4.7 2.5-5.1 5.1 2.5-.4 4.6-2.5 5.1-5.1z"/><path class="ipa0" d="M61.7 175.7c-.6 0-1-.4-1-1 0-4.6 3.7-8.3 8.3-8.3.6 0 1 .4 1 1 .1 4.6-3.7 8.3-8.3 8.3zm6.3-7.2c-2.6.5-4.7 2.5-5.1 5.1 2.5-.4 4.6-2.5 5.1-5.1z"/><path class="ipa0" d="M61.7 186.7c-4.6 0-8.3-3.7-8.3-8.3 0-.6.4-1 1-1 4.6 0 8.3 3.7 8.3 8.3 0 .5-.4 1-1 1zm-6.2-7.2c.5 2.6 2.5 4.7 5.1 5.1-.4-2.6-2.5-4.7-5.1-5.1z"/><path class="ipa0" d="M61.7 172c-4.6 0-8.3-3.7-8.3-8.3 0-.6.4-1 1-1 4.6 0 8.3 3.7 8.3 8.3 0 .6-.4 1-1 1zm-6.2-7.2c.5 2.6 2.5 4.7 5.1 5.1-.4-2.6-2.5-4.6-5.1-5.1z"/><path class="ipa0" d="M61.7 161.6c-.6 0-1-.4-1-1 0-4.6 3.7-8.3 8.3-8.3.6 0 1 .4 1 1 .1 4.5-3.7 8.3-8.3 8.3zm6.3-7.2c-2.6.5-4.7 2.5-5.1 5.1 2.5-.5 4.6-2.5 5.1-5.1z"/></g></g><g id="waves_2_" class="icon"><path class="ipa0" d="M324 23.1c-.5 0-1-.4-1-1s.4-1 1-1c2.2 0 4-1.8 4-4 0-.5.4-1 1-1 .5 0 1 .4 1 1-.1 3.3-2.8 6-6 6z"/><path class="ipa0" d="M334 23.1c-3.3 0-6-2.7-6-6 0-.5.4-1 1-1 .5 0 1 .4 1 1 0 2.2 1.8 4 4 4 .5 0 1 .4 1 1s-.5 1-1 1z"/><path class="ipa0" d="M334 23.1c-.5 0-1-.4-1-1s.4-1 1-1c2.2 0 4-1.8 4-4 0-.5.4-1 1-1s1 .4 1 1c-.1 3.3-2.7 6-6 6z"/><path class="ipa0" d="M344 23.1c-3.3 0-6-2.7-6-6 0-.5.4-1 1-1s1 .4 1 1c0 2.2 1.8 4 4 4 .5 0 1 .4 1 1s-.5 1-1 1z"/><path class="ipa0" d="M344 23.1c-.5 0-1-.4-1-1s.4-1 1-1c2.2 0 4-1.8 4-4 0-.5.4-1 1-1 .5 0 1 .4 1 1 0 3.3-2.7 6-6 6z"/><path class="ipa0" d="M354 23.1c-3.3 0-6-2.7-6-6 0-.5.4-1 1-1 .5 0 1 .4 1 1 0 2.2 1.8 4 4 4 .5 0 1 .4 1 1s-.5 1-1 1z"/><path class="ipa0" d="M354 23.1c-.5 0-1-.4-1-1s.4-1 1-1c2.2 0 4-1.8 4-4 0-.5.4-1 1-1 .5 0 1 .4 1 1 0 3.3-2.7 6-6 6z"/><path class="ipa0" d="M364 23.1c-3.3 0-6-2.7-6-6 0-.5.4-1 1-1 .5 0 1 .4 1 1 0 2.2 1.8 4 4 4 .5 0 1 .4 1 1s-.5 1-1 1z"/><path class="ipa0" d="M364 23.1c-.5 0-1-.4-1-1s.4-1 1-1c2.2 0 4-1.8 4-4 0-.5.4-1 1-1 .5 0 1 .4 1 1 0 3.3-2.7 6-6 6z"/><path class="ipa0" d="M374 23.1c-3.3 0-6-2.7-6-6 0-.5.4-1 1-1 .5 0 1 .4 1 1 0 2.2 1.8 4 4 4 .5 0 1 .4 1 1s-.5 1-1 1z"/><path class="ipa0" d="M282.2 42.5c-.5 0-1-.4-1-1s.4-1 1-1c2.2 0 4-1.8 4-4 0-.5.4-1 1-1s1 .4 1 1c0 3.3-2.7 6-6 6z"/><path class="ipa0" d="M292.3 42.5c-3.3 0-6-2.7-6-6 0-.5.4-1 1-1s1 .4 1 1c0 2.2 1.8 4 4 4 .5 0 1 .4 1 1s-.5 1-1 1z"/><path class="ipa0" d="M292.3 42.5c-.5 0-1-.4-1-1s.4-1 1-1c2.2 0 4-1.8 4-4 0-.5.4-1 1-1 .5 0 1 .4 1 1-.1 3.3-2.8 6-6 6z"/><path class="ipa0" d="M302.3 42.5c-3.3 0-6-2.7-6-6 0-.5.4-1 1-1 .5 0 1 .4 1 1 0 2.2 1.8 4 4 4 .5 0 1 .4 1 1s-.5 1-1 1z"/><path class="ipa0" d="M302.3 42.5c-.5 0-1-.4-1-1s.4-1 1-1c2.2 0 4-1.8 4-4 0-.5.4-1 1-1 .5 0 1 .4 1 1-.1 3.3-2.7 6-6 6z"/><path class="ipa0" d="M312.3 42.5c-3.3 0-6-2.7-6-6 0-.5.4-1 1-1 .5 0 1 .4 1 1 0 2.2 1.8 4 4 4 .5 0 1 .4 1 1s-.5 1-1 1z"/><path class="ipa0" d="M312.3 42.5c-.5 0-1-.4-1-1s.4-1 1-1c2.2 0 4-1.8 4-4 0-.5.4-1 1-1 .5 0 1 .4 1 1 0 3.3-2.7 6-6 6z"/><path class="ipa0" d="M322.3 42.5c-3.3 0-6-2.7-6-6 0-.5.4-1 1-1 .5 0 1 .4 1 1 0 2.2 1.8 4 4 4 .5 0 1 .4 1 1s-.5 1-1 1z"/><path class="ipa0" d="M322.3 42.5c-.5 0-1-.4-1-1s.4-1 1-1c2.2 0 4-1.8 4-4 0-.5.4-1 1-1s1 .4 1 1c0 3.3-2.7 6-6 6z"/><path class="ipa0" d="M332.3 42.5c-3.3 0-6-2.7-6-6 0-.5.4-1 1-1s1 .4 1 1c0 2.2 1.8 4 4 4 .5 0 1 .4 1 1s-.5 1-1 1z"/></g><g id="trees-2" class="icon"><path class="ipa0" d="M244.6 394.3c-11 0-20-9-20-20s9-20 20-20 20 9 20 20-9 20-20 20zm0-38c-9.9 0-18 8.1-18 18s8.1 18 18 18 18-8.1 18-18-8.1-18-18-18z"/><path class="ipa0" d="M244.1 422c-.6 0-1-.4-1-1v-35c0-.6.4-1 1-1s1 .4 1 1v35c0 .6-.5 1-1 1z"/><path class="ipa0" d="M244.6 387.4c-.3 0-.7-.2-.9-.5l-5.5-9.5c-.3-.5-.1-1.1.4-1.4.5-.3 1.1-.1 1.4.4l5.5 9.5c.3.5.1 1.1-.4 1.4-.2 0-.3.1-.5.1z"/><path class="ipa0" d="M244.6 387.4c-.2 0-.3 0-.5-.1-.5-.3-.6-.9-.4-1.4l8.6-14.7c.3-.5.9-.6 1.4-.4.5.3.6.9.4 1.4l-8.6 14.7c-.2.3-.6.5-.9.5z"/><path class="ipa0" d="M277.1 408.2c-5.8 0-10.5-4.7-10.5-10.5s4.7-10.5 10.5-10.5 10.5 4.7 10.5 10.5c.1 5.8-4.7 10.5-10.5 10.5zm0-19c-4.7 0-8.5 3.8-8.5 8.5s3.8 8.5 8.5 8.5 8.5-3.8 8.5-8.5-3.8-8.5-8.5-8.5z"/><path class="ipa0" d="M277.1 422c-.6 0-1-.4-1-1v-17c0-.6.4-1 1-1s1 .4 1 1v17c0 .6-.5 1-1 1z"/><path class="ipa0" d="M277.1 404.7c-.3 0-.7-.2-.9-.5l-2.7-4.7c-.3-.5-.1-1.1.4-1.4s1.1-.1 1.4.4l2.7 4.7c.3.5.1 1.1-.4 1.4-.1.1-.3.1-.5.1z"/><path class="ipa0" d="M277.1 404.7c-.2 0-.4-.1-.5-.2-.5-.3-.6-.9-.3-1.4l4.3-6.7c.3-.5.9-.6 1.4-.3.5.3.6.9.3 1.4l-4.3 6.7c-.2.4-.5.5-.9.5z"/></g><g id="forest_1_" class="icon"><path class="ipa0" d="M453.1 336c-.6 0-1-.4-1-1v-37c0-.6.4-1 1-1s1 .4 1 1v37c0 .6-.5 1-1 1z"/><path class="ipa0" d="M445.9 306.1c-.6 0-1-.4-1-1s.4-1 1-1c3.5 0 6.3-2.8 6.3-6.3 0-.6.4-1 1-1s1 .4 1 1c.1 4.5-3.7 8.3-8.3 8.3z"/><path class="ipa0" d="M445.9 312.2c-.6 0-1-.4-1-1s.4-1 1-1c3.5 0 6.3-2.8 6.3-6.3 0-.6.4-1 1-1s1 .4 1 1c.1 4.6-3.7 8.3-8.3 8.3z"/><path class="ipa0" d="M445.9 318.4c-.6 0-1-.4-1-1s.4-1 1-1c3.5 0 6.3-2.8 6.3-6.3 0-.6.4-1 1-1s1 .4 1 1c.1 4.6-3.7 8.3-8.3 8.3z"/><path class="ipa0" d="M445.9 324.6c-.6 0-1-.4-1-1s.4-1 1-1c3.5 0 6.3-2.8 6.3-6.3 0-.6.4-1 1-1s1 .4 1 1c.1 4.5-3.7 8.3-8.3 8.3z"/><path class="ipa0" d="M460.6 306.1c-4.6 0-8.3-3.7-8.3-8.3 0-.6.4-1 1-1s1 .4 1 1c0 3.5 2.8 6.3 6.3 6.3.6 0 1 .4 1 1s-.5 1-1 1z"/><path class="ipa0" d="M460.6 312.2c-4.6 0-8.3-3.7-8.3-8.3 0-.6.4-1 1-1s1 .4 1 1c0 3.5 2.8 6.3 6.3 6.3.6 0 1 .4 1 1s-.5 1-1 1z"/><path class="ipa0" d="M460.6 318.4c-4.6 0-8.3-3.7-8.3-8.3 0-.6.4-1 1-1s1 .4 1 1c0 3.5 2.8 6.3 6.3 6.3.6 0 1 .4 1 1s-.5 1-1 1z"/><path class="ipa0" d="M460.6 324.6c-4.6 0-8.3-3.7-8.3-8.3 0-.6.4-1 1-1s1 .4 1 1c0 3.5 2.8 6.3 6.3 6.3.6 0 1 .4 1 1s-.5 1-1 1z"/><path class="ipa0" d="M489.1 336c-.6 0-1-.4-1-1v-37c0-.6.4-1 1-1s1 .4 1 1v37c0 .6-.5 1-1 1z"/><path class="ipa0" d="M482.3 306.1c-.6 0-1-.4-1-1s.4-1 1-1c3.5 0 6.3-2.8 6.3-6.3 0-.6.4-1 1-1s1 .4 1 1c0 4.5-3.7 8.3-8.3 8.3z"/><path class="ipa0" d="M482.3 312.2c-.6 0-1-.4-1-1s.4-1 1-1c3.5 0 6.3-2.8 6.3-6.3 0-.6.4-1 1-1s1 .4 1 1c0 4.6-3.7 8.3-8.3 8.3z"/><path class="ipa0" d="M482.3 318.4c-.6 0-1-.4-1-1s.4-1 1-1c3.5 0 6.3-2.8 6.3-6.3 0-.6.4-1 1-1s1 .4 1 1c0 4.6-3.7 8.3-8.3 8.3z"/><path class="ipa0" d="M482.3 324.6c-.6 0-1-.4-1-1s.4-1 1-1c3.5 0 6.3-2.8 6.3-6.3 0-.6.4-1 1-1s1 .4 1 1c0 4.5-3.7 8.3-8.3 8.3z"/><path class="ipa0" d="M497 306.1c-4.6 0-8.3-3.7-8.3-8.3 0-.6.4-1 1-1s1 .4 1 1c0 3.5 2.8 6.3 6.3 6.3.6 0 1 .4 1 1s-.5 1-1 1z"/><path class="ipa0" d="M497 312.2c-4.6 0-8.3-3.7-8.3-8.3 0-.6.4-1 1-1s1 .4 1 1c0 3.5 2.8 6.3 6.3 6.3.6 0 1 .4 1 1s-.5 1-1 1z"/><path class="ipa0" d="M497 318.4c-4.6 0-8.3-3.7-8.3-8.3 0-.6.4-1 1-1s1 .4 1 1c0 3.5 2.8 6.3 6.3 6.3.6 0 1 .4 1 1s-.5 1-1 1z"/><path class="ipa0" d="M497 324.6c-4.6 0-8.3-3.7-8.3-8.3 0-.6.4-1 1-1s1 .4 1 1c0 3.5 2.8 6.3 6.3 6.3.6 0 1 .4 1 1s-.5 1-1 1z"/><g><path class="ipa0" d="M471.1 336c-.6 0-1-.4-1-1v-37c0-.6.4-1 1-1s1 .4 1 1v37c0 .6-.5 1-1 1z"/><path class="ipa0" d="M464 306.1c-.6 0-1-.4-1-1s.4-1 1-1c3.5 0 6.3-2.8 6.3-6.3 0-.6.4-1 1-1s1 .4 1 1c.1 4.5-3.7 8.3-8.3 8.3z"/><path class="ipa0" d="M464 312.2c-.6 0-1-.4-1-1s.4-1 1-1c3.5 0 6.3-2.8 6.3-6.3 0-.6.4-1 1-1s1 .4 1 1c.1 4.6-3.7 8.3-8.3 8.3z"/><path class="ipa0" d="M464 318.4c-.6 0-1-.4-1-1s.4-1 1-1c3.5 0 6.3-2.8 6.3-6.3 0-.6.4-1 1-1s1 .4 1 1c.1 4.6-3.7 8.3-8.3 8.3z"/><path class="ipa0" d="M464 324.6c-.6 0-1-.4-1-1s.4-1 1-1c3.5 0 6.3-2.8 6.3-6.3 0-.6.4-1 1-1s1 .4 1 1c.1 4.5-3.7 8.3-8.3 8.3z"/><path class="ipa0" d="M478.7 306.1c-4.6 0-8.3-3.7-8.3-8.3 0-.6.4-1 1-1s1 .4 1 1c0 3.5 2.8 6.3 6.3 6.3.6 0 1 .4 1 1s-.5 1-1 1z"/><path class="ipa0" d="M478.7 312.2c-4.6 0-8.3-3.7-8.3-8.3 0-.6.4-1 1-1s1 .4 1 1c0 3.5 2.8 6.3 6.3 6.3.6 0 1 .4 1 1s-.5 1-1 1z"/><path class="ipa0" d="M478.7 318.4c-4.6 0-8.3-3.7-8.3-8.3 0-.6.4-1 1-1s1 .4 1 1c0 3.5 2.8 6.3 6.3 6.3.6 0 1 .4 1 1s-.5 1-1 1z"/><path class="ipa0" d="M478.7 324.6c-4.6 0-8.3-3.7-8.3-8.3 0-.6.4-1 1-1s1 .4 1 1c0 3.5 2.8 6.3 6.3 6.3.6 0 1 .4 1 1s-.5 1-1 1z"/></g></g><g id="tractor" class="icon"><path class="ipa0" d="M381.8 407.5c-8.6 0-15.6-7-15.6-15.6s7-15.6 15.6-15.6 15.6 7 15.6 15.6-6.9 15.6-15.6 15.6zm0-29.2c-7.5 0-13.6 6.1-13.6 13.6s6.1 13.6 13.6 13.6 13.6-6.1 13.6-13.6-6-13.6-13.6-13.6z"/><path class="ipa0" d="M422 408c-5.2 0-9.5-4.3-9.5-9.5s4.3-9.5 9.5-9.5 9.5 4.3 9.5 9.5-4.2 9.5-9.5 9.5zm0-17c-4.1 0-7.5 3.4-7.5 7.5s3.4 7.5 7.5 7.5 7.5-3.4 7.5-7.5c0-4.2-3.3-7.5-7.5-7.5z"/><path class="ipa0" d="M381.8 401.4c-5.2 0-9.5-4.3-9.5-9.5s4.3-9.5 9.5-9.5 9.5 4.3 9.5 9.5c.1 5.3-4.2 9.5-9.5 9.5zm0-17c-4.1 0-7.5 3.4-7.5 7.5s3.4 7.5 7.5 7.5 7.5-3.4 7.5-7.5c.1-4.1-3.3-7.5-7.5-7.5z"/><path class="ipa0" d="M422 403.7c-2.9 0-5.3-2.4-5.3-5.3s2.4-5.3 5.3-5.3 5.3 2.4 5.3 5.3-2.4 5.3-5.3 5.3zm0-8.5c-1.8 0-3.3 1.5-3.3 3.3 0 1.8 1.5 3.3 3.3 3.3s3.3-1.5 3.3-3.3c0-1.8-1.5-3.3-3.3-3.3z"/><path class="ipa0" d="M413.1 399h-18c-.6 0-1-.4-1-1s.4-1 1-1h18c.6 0 1 .4 1 1s-.5 1-1 1z"/><path class="ipa0" d="M422.1 391c-.6 0-1-.4-1-1v-8h-29c-.6 0-1-.4-1-1s.4-1 1-1h30c.6 0 1 .4 1 1v9c0 .6-.5 1-1 1z"/><path class="ipa0" d="M418.1 382c-.6 0-1-.4-1-1v-11c0-.6.4-1 1-1s1 .4 1 1v11c0 .6-.5 1-1 1z"/><path class="ipa0" d="M382.1 378c-.6 0-1-.4-1-1v-7c0-.6.4-1 1-1s1 .4 1 1v7c0 .6-.5 1-1 1z"/><path class="ipa0" d="M385.1 371h-8c-.6 0-1-.4-1-1s.4-1 1-1h8c.6 0 1 .4 1 1s-.5 1-1 1z"/><path class="ipa0" d="M422.1 387h-21c-.6 0-1-.4-1-1s.4-1 1-1h21c.6 0 1 .4 1 1s-.5 1-1 1z"/><path class="ipa0" d="M422.1 391h-15c-.6 0-1-.4-1-1s.4-1 1-1h15c.6 0 1 .4 1 1s-.5 1-1 1z"/></g><g id="sunflower" class="icon"><path class="ipa0" d="M544.1 415c-.6 0-1-.4-1-1v-24c0-.6.4-1 1-1s1 .4 1 1v24c0 .6-.5 1-1 1z"/><path class="ipa0" d="M544.2 390.8c-5.9 0-10.8-4.8-10.8-10.8 0-5.9 4.8-10.8 10.8-10.8S555 374.1 555 380c0 6-4.8 10.8-10.8 10.8zm0-19.5c-4.8 0-8.8 3.9-8.8 8.8 0 4.8 3.9 8.8 8.8 8.8s8.8-3.9 8.8-8.8-3.9-8.8-8.8-8.8z"/><path class="ipa0" d="M544.3 410.5c-.6 0-1-.4-1-1 0-4.8-3.9-8.8-8.8-8.8-.6 0-1-.4-1-1s.4-1 1-1c5.9 0 10.8 4.8 10.8 10.8 0 .6-.5 1-1 1z"/><path class="ipa0" d="M544.3 410.5c-.6 0-1-.4-1-1 0-5.9 4.8-10.8 10.8-10.8.6 0 1 .4 1 1s-.4 1-1 1c-4.8 0-8.8 3.9-8.8 8.8 0 .6-.5 1-1 1z"/><path class="ipa0" d="M544.1 371c-.6 0-1-.4-1-1v-9c0-.6.4-1 1-1s1 .4 1 1v9c0 .6-.5 1-1 1z"/><path class="ipa0" d="M534.1 381h-9c-.6 0-1-.4-1-1s.4-1 1-1h9c.6 0 1 .4 1 1s-.5 1-1 1z"/><path class="ipa0" d="M563.1 381h-9c-.6 0-1-.4-1-1s.4-1 1-1h9c.6 0 1 .4 1 1s-.5 1-1 1z"/><path class="ipa0" d="M537.5 374.2c-.3 0-.5-.1-.7-.3l-6.9-6.9c-.4-.4-.4-1 0-1.4s1-.4 1.4 0l6.9 6.9c.4.4.4 1 0 1.4-.2.2-.5.3-.7.3z"/><path class="ipa0" d="M557.9 394.6c-.3 0-.5-.1-.7-.3l-6.9-6.9c-.4-.4-.4-1 0-1.4s1-.4 1.4 0l6.9 6.9c.4.4.4 1 0 1.4-.2.2-.4.3-.7.3z"/><path class="ipa0" d="M530.6 394.6c-.3 0-.5-.1-.7-.3-.4-.4-.4-1 0-1.4l6.9-6.9c.4-.4 1-.4 1.4 0s.4 1 0 1.4l-6.9 6.9c-.2.2-.5.3-.7.3z"/><path class="ipa0" d="M551 374.2c-.3 0-.5-.1-.7-.3-.4-.4-.4-1 0-1.4l6.9-6.9c.4-.4 1-.4 1.4 0s.4 1 0 1.4l-6.9 6.9c-.1.2-.4.3-.7.3z"/></g><g id="health-2_1_" class="icon"><path class="ipa0" d="M348.1 339h-42c-.6 0-1-.4-1-1v-36c0-.6.4-1 1-1h42c.6 0 1 .4 1 1v36c0 .6-.5 1-1 1zm-41-2h40v-34h-40v34z"/><path class="ipa0" d="M334.7 303h-15.1c-.6 0-1-.4-1-1 0-4.6 3.9-8.6 8.6-8.6s8.6 3.9 8.6 8.6c-.1.6-.5 1-1.1 1zm-14-2h12.9c-.5-3.1-3.3-5.6-6.5-5.6s-5.9 2.5-6.4 5.6z"/><path class="ipa0" d="M327.1 330c-.6 0-1-.4-1-1v-18c0-.6.4-1 1-1s1 .4 1 1v18c0 .6-.5 1-1 1z"/><path class="ipa0" d="M336.1 321h-18c-.6 0-1-.4-1-1s.4-1 1-1h18c.6 0 1 .4 1 1s-.5 1-1 1z"/></g><g id="weight-2_1_" class="icon"><path class="ipa0" d="M566.1 249h-43c-.6 0-1-.4-1-1s.4-1 1-1h43c.6 0 1 .4 1 1s-.5 1-1 1z"/><path class="ipa0" d="M566.1 242h-43c-.6 0-1-.4-1-1s.4-1 1-1h43c.6 0 1 .4 1 1s-.5 1-1 1z"/><path class="ipa0" d="M518.6 262c-3 0-5.5-2.5-5.5-5.5v-24c0-3 2.5-5.5 5.5-5.5s5.5 2.5 5.5 5.5v24c0 3-2.5 5.5-5.5 5.5zm0-33c-1.9 0-3.5 1.6-3.5 3.5v24c0 1.9 1.6 3.5 3.5 3.5s3.5-1.6 3.5-3.5v-24c0-1.9-1.6-3.5-3.5-3.5z"/><path class="ipa0" d="M511.8 253h-.4c-1.8 0-3.3-1.5-3.3-3.3v-11.4c0-1.8 1.5-3.3 3.3-3.3h.4c1.8 0 3.3 1.5 3.3 3.3v11.4c0 1.8-1.5 3.3-3.3 3.3zm-.4-16c-.7 0-1.3.6-1.3 1.3v11.4c0 .7.6 1.3 1.3 1.3h.4c.7 0 1.3-.6 1.3-1.3v-11.4c0-.7-.6-1.3-1.3-1.3h-.4z"/><path class="ipa0" d="M570.6 262c-3 0-5.5-2.5-5.5-5.5v-24c0-3 2.5-5.5 5.5-5.5s5.5 2.5 5.5 5.5v24c0 3-2.5 5.5-5.5 5.5zm0-33c-1.9 0-3.5 1.6-3.5 3.5v24c0 1.9 1.6 3.5 3.5 3.5s3.5-1.6 3.5-3.5v-24c0-1.9-1.6-3.5-3.5-3.5z"/><path class="ipa0" d="M509.1 249.7c-3.2 0-5.1-1.9-5.1-5.1s1.9-5.1 5.1-5.1c.6 0 1 .4 1 1v8.2c0 .6-.5 1-1 1zm-1-8c-1.4.3-2.1 1.3-2.1 3s.7 2.7 2.1 3v-6z"/><path class="ipa0" d="M577.8 253h-.4c-1.8 0-3.3-1.5-3.3-3.3v-11.4c0-1.8 1.5-3.3 3.3-3.3h.4c1.8 0 3.3 1.5 3.3 3.3v11.4c0 1.8-1.5 3.3-3.3 3.3zm-.4-16c-.7 0-1.3.6-1.3 1.3v11.4c0 .7.6 1.3 1.3 1.3h.4c.7 0 1.3-.6 1.3-1.3v-11.4c0-.7-.6-1.3-1.3-1.3h-.4z"/><path class="ipa0" d="M580.1 249.7c-.6 0-1-.4-1-1v-8.2c0-.6.4-1 1-1 2.4 0 5.1 2.2 5.1 5.1s-2.7 5.1-5.1 5.1zm1-7.9v5.8c1.1-.4 2.1-1.5 2.1-2.9s-1-2.5-2.1-2.9z"/></g><g id="cup_1_" class="icon"><path class="ipa0" d="M39.9 305c-.6 0-1-.4-1-1 0-4.8-3.9-8.8-8.8-8.8-.6 0-1-.4-1-1s.4-1 1-1c5.9 0 10.8 4.8 10.8 10.8 0 .6-.5 1-1 1z"/><path class="ipa0" d="M45.5 339H34.3c-.5 0-.9-.3-1-.8l-8.4-34c-.1-.3 0-.6.2-.9s.5-.4.8-.4H54c.3 0 .6.1.8.4s.3.6.2.9l-8.4 34c-.2.5-.6.8-1.1.8zm-10.4-2h9.7l7.9-32H27.2l7.9 32z"/><path class="ipa0" d="M40.1 309c-.6 0-1-.4-1-1v-4c0-.6.4-1 1-1s1 .4 1 1v4c0 .6-.5 1-1 1z"/><path class="ipa0" d="M53.1 310h-26c-.6 0-1-.4-1-1s.4-1 1-1h26c.6 0 1 .4 1 1s-.5 1-1 1z"/></g><g id="graph-3_1_" class="icon"><path class="ipa0" d="M260.3 265c-.4 0-.7-.2-.9-.5l-15.6-26.9c-.3-.5-.1-1.1.4-1.4.5-.3 1.1-.1 1.4.4l14.7 25.4 16.3-28.2c.3-.5.9-.6 1.4-.4.5.3.6.9.4 1.4l-17.1 29.7c-.3.3-.6.5-1 .5z"/><path class="ipa0" d="M234.8 251.1c-.2 0-.3 0-.5-.1-.5-.3-.6-.9-.4-1.4l7.5-13.1c.3-.5.9-.6 1.4-.4.5.3.6.9.4 1.4l-7.5 13.1c-.2.3-.6.5-.9.5z"/><path class="ipa0" d="M232.4 260.1c-3.2 0-5.8-2.6-5.8-5.8s2.6-5.8 5.8-5.8 5.8 2.6 5.8 5.8-2.6 5.8-5.8 5.8zm0-9.6c-2.1 0-3.8 1.7-3.8 3.8s1.7 3.8 3.8 3.8c2.1 0 3.8-1.7 3.8-3.8s-1.7-3.8-3.8-3.8z"/><path class="ipa0" d="M280 236c-3.2 0-5.8-2.6-5.8-5.8s2.6-5.8 5.8-5.8 5.8 2.6 5.8 5.8-2.6 5.8-5.8 5.8zm0-9.7c-2.1 0-3.8 1.7-3.8 3.8s1.7 3.8 3.8 3.8c2.1 0 3.8-1.7 3.8-3.8s-1.7-3.8-3.8-3.8z"/><path class="ipa0" d="M243.5 238.4c-1.9 0-3.4-1.5-3.4-3.4s1.5-3.4 3.4-3.4 3.4 1.5 3.4 3.4-1.5 3.4-3.4 3.4zm0-4.9c-.8 0-1.4.6-1.4 1.4s.6 1.4 1.4 1.4 1.4-.6 1.4-1.4-.6-1.4-1.4-1.4z"/></g><g id="barn-2_1_" class="icon"><path class="ipa0" d="M198.1 337h-31c-.6 0-1-.4-1-1v-27c0-.6.4-1 1-1s1 .4 1 1v26h29v-26c0-.6.4-1 1-1s1 .4 1 1v27c0 .6-.5 1-1 1z"/><path class="ipa0" d="M202.8 318.4c-.3 0-.7-.2-.9-.5l-8.1-14.1-11.1-4.5-11.1 4.5-8.1 14.1c-.3.5-.9.6-1.4.4-.5-.3-.6-.9-.4-1.4l8.3-14.4c.1-.2.3-.3.5-.4l11.8-4.7c.2-.1.5-.1.7 0l11.8 4.7c.2.1.4.2.5.4l8.3 14.4c.3.5.1 1.1-.4 1.4 0 0-.2.1-.4.1z"/><path class="ipa0" d="M190.1 337h-15c-.6 0-1-.4-1-1v-26c0-.6.4-1 1-1h15c.6 0 1 .4 1 1v26c0 .6-.5 1-1 1zm-14-2h13v-24h-13v24z"/><path class="ipa0" d="M190.1 324h-15c-.6 0-1-.4-1-1s.4-1 1-1h15c.6 0 1 .4 1 1s-.5 1-1 1z"/><path class="ipa0" d="M175 337c-.3 0-.6-.1-.8-.4-.4-.4-.3-1.1.1-1.4l15.5-13.2c.4-.4 1.1-.3 1.4.1s.3 1.1-.1 1.4l-15.5 13.2c-.2.2-.4.3-.6.3z"/><path class="ipa0" d="M175 337c-.3 0-.6-.1-.8-.4-.4-.4-.3-1.1.1-1.4l15.5-13.2c.4-.4 1.1-.3 1.4.1s.3 1.1-.1 1.4l-15.5 13.2c-.2.2-.4.3-.6.3z"/><path class="ipa0" d="M190.5 337c-.2 0-.5-.1-.6-.2l-15.5-13.2c-.4-.4-.5-1-.1-1.4.4-.4 1-.5 1.4-.1l15.5 13.2c.4.4.5 1 .1 1.4-.3.2-.6.3-.8.3z"/></g><g id="pin-3_2_" class="icon"><path class="ipa0" d="M112.1 274.1c-.4 0-.7-.2-.9-.5l-21.7-37.5c-.2-.3-.2-.7 0-1l10.8-18.6c.2-.3.5-.5.9-.5h21.7c.4 0 .7.2.9.5l10.8 18.7c.2.3.2.7 0 1l-21.7 37.4c-.1.3-.5.5-.8.5zm-20.5-38.5l20.5 35.5 20.5-35.4-10.3-17.7h-20.5l-10.2 17.6z"/><path class="ipa0" d="M112.1 244.7c-5.2 0-9.5-4.3-9.5-9.5s4.3-9.5 9.5-9.5 9.5 4.3 9.5 9.5-4.3 9.5-9.5 9.5zm0-17c-4.1 0-7.5 3.4-7.5 7.5s3.4 7.5 7.5 7.5 7.5-3.4 7.5-7.5-3.4-7.5-7.5-7.5z"/></g><g id="crops" class="icon"><path class="ipa0" d="M112.1 410c-.6 0-1-.4-1-1v-32c0-.6.4-1 1-1s1 .4 1 1v32c0 .6-.5 1-1 1z"/><path class="ipa0" d="M112.1 406.3c-4.6 0-8.3-3.7-8.3-8.3 0-.6.4-1 1-1 4.6 0 8.3 3.7 8.3 8.3 0 .6-.5 1-1 1zm-6.2-7.2c.5 2.6 2.5 4.7 5.1 5.1-.5-2.6-2.5-4.6-5.1-5.1z"/><path class="ipa0" d="M112.1 391.7c-4.6 0-8.3-3.7-8.3-8.3 0-.6.4-1 1-1 4.6 0 8.3 3.7 8.3 8.3 0 .6-.5 1-1 1zm-6.2-7.2c.5 2.6 2.5 4.7 5.1 5.1-.5-2.6-2.5-4.7-5.1-5.1z"/><path class="ipa0" d="M112.1 377.6c-4.6 0-8.3-3.7-8.3-8.3 0-.6.4-1 1-1 4.6 0 8.3 3.7 8.3 8.3 0 .5-.5 1-1 1zm-6.2-7.2c.5 2.6 2.5 4.7 5.1 5.1-.5-2.6-2.5-4.7-5.1-5.1z"/><path class="ipa0" d="M112.1 402.7c-.6 0-1-.4-1-1 0-4.6 3.7-8.3 8.3-8.3.6 0 1 .4 1 1 0 4.6-3.7 8.3-8.3 8.3zm6.2-7.2c-2.6.5-4.7 2.5-5.1 5.1 2.6-.5 4.6-2.5 5.1-5.1z"/><path class="ipa0" d="M112.1 388c-.6 0-1-.4-1-1 0-4.6 3.7-8.3 8.3-8.3.6 0 1 .4 1 1 0 4.6-3.7 8.3-8.3 8.3zm6.2-7.2c-2.6.5-4.7 2.5-5.1 5.1 2.6-.4 4.6-2.5 5.1-5.1z"/><path class="ipa0" d="M88.1 410c-.6 0-1-.4-1-1v-32c0-.6.4-1 1-1s1 .4 1 1v32c0 .6-.5 1-1 1z"/><path class="ipa0" d="M87.8 406.3c-4.6 0-8.3-3.7-8.3-8.3 0-.3.1-.5.3-.7s.4-.3.7-.3c4.6 0 8.3 3.7 8.3 8.3 0 .6-.5 1-1 1zm-6.2-7.2c.5 2.6 2.5 4.7 5.1 5.1-.5-2.6-2.5-4.6-5.1-5.1z"/><path class="ipa0" d="M87.8 391.7c-4.6 0-8.3-3.7-8.3-8.3 0-.3.1-.5.3-.7s.4-.3.7-.3c4.6 0 8.3 3.7 8.3 8.3 0 .6-.5 1-1 1zm-6.2-7.2c.5 2.6 2.5 4.7 5.1 5.1-.5-2.6-2.5-4.7-5.1-5.1z"/><path class="ipa0" d="M87.8 377.6c-4.6 0-8.3-3.7-8.3-8.3 0-.3.1-.5.3-.7s.4-.3.7-.3c4.6 0 8.3 3.7 8.3 8.3 0 .5-.5 1-1 1zm-6.2-7.2c.5 2.6 2.5 4.7 5.1 5.1-.5-2.6-2.5-4.7-5.1-5.1z"/><path class="ipa0" d="M87.8 402.7c-.6 0-1-.4-1-1 0-4.6 3.7-8.3 8.3-8.3.6 0 1 .4 1 1 0 4.6-3.7 8.3-8.3 8.3zm6.2-7.2c-2.6.5-4.7 2.5-5.1 5.1 2.6-.5 4.7-2.5 5.1-5.1z"/><path class="ipa0" d="M87.8 388c-.6 0-1-.4-1-1 0-4.6 3.7-8.3 8.3-8.3.6 0 1 .4 1 1 0 4.6-3.7 8.3-8.3 8.3zm6.2-7.2c-2.6.5-4.7 2.5-5.1 5.1 2.6-.4 4.7-2.5 5.1-5.1z"/><g><path class="ipa0" d="M134.1 410c-.6 0-1-.4-1-1v-32c0-.6.4-1 1-1s1 .4 1 1v32c0 .6-.5 1-1 1z"/><path class="ipa0" d="M133.7 406.3c-.6 0-1-.4-1-1 0-4.6 3.7-8.3 8.3-8.3.6 0 1 .4 1 1 .1 4.6-3.7 8.3-8.3 8.3zm6.3-7.2c-2.6.5-4.7 2.5-5.1 5.1 2.5-.4 4.6-2.5 5.1-5.1z"/><path class="ipa0" d="M133.7 391.7c-.6 0-1-.4-1-1 0-4.6 3.7-8.3 8.3-8.3.6 0 1 .4 1 1 .1 4.6-3.7 8.3-8.3 8.3zm6.3-7.2c-2.6.5-4.7 2.5-5.1 5.1 2.5-.4 4.6-2.5 5.1-5.1z"/><path class="ipa0" d="M133.7 402.7c-4.6 0-8.3-3.7-8.3-8.3 0-.6.4-1 1-1 4.6 0 8.3 3.7 8.3 8.3 0 .5-.4 1-1 1zm-6.2-7.2c.5 2.6 2.5 4.7 5.1 5.1-.4-2.6-2.5-4.7-5.1-5.1z"/><path class="ipa0" d="M133.7 388c-4.6 0-8.3-3.7-8.3-8.3 0-.6.4-1 1-1 4.6 0 8.3 3.7 8.3 8.3 0 .6-.4 1-1 1zm-6.2-7.2c.5 2.6 2.5 4.7 5.1 5.1-.4-2.6-2.5-4.6-5.1-5.1z"/><path class="ipa0" d="M133.7 377.6c-.6 0-1-.4-1-1 0-4.6 3.7-8.3 8.3-8.3.6 0 1 .4 1 1 .1 4.5-3.7 8.3-8.3 8.3zm6.3-7.2c-2.6.5-4.7 2.5-5.1 5.1 2.5-.5 4.6-2.5 5.1-5.1z"/></g></g><g id="waves_1_" class="icon"><path class="ipa0" d="M396 239.1c-.5 0-1-.4-1-1 0-.5.4-1 1-1 2.2 0 4-1.8 4-4 0-.5.4-1 1-1 .5 0 1 .4 1 1-.1 3.3-2.8 6-6 6z"/><path class="ipa0" d="M406 239.1c-3.3 0-6-2.7-6-6 0-.5.4-1 1-1 .5 0 1 .4 1 1 0 2.2 1.8 4 4 4 .5 0 1 .4 1 1-.1.6-.5 1-1 1z"/><path class="ipa0" d="M406 239.1c-.5 0-1-.4-1-1 0-.5.4-1 1-1 2.2 0 4-1.8 4-4 0-.5.4-1 1-1s1 .4 1 1c-.1 3.3-2.7 6-6 6z"/><path class="ipa0" d="M416 239.1c-3.3 0-6-2.7-6-6 0-.5.4-1 1-1s1 .4 1 1c0 2.2 1.8 4 4 4 .5 0 1 .4 1 1-.1.6-.5 1-1 1z"/><path class="ipa0" d="M416 239.1c-.5 0-1-.4-1-1 0-.5.4-1 1-1 2.2 0 4-1.8 4-4 0-.5.4-1 1-1 .5 0 1 .4 1 1 0 3.3-2.7 6-6 6z"/><path class="ipa0" d="M426 239.1c-3.3 0-6-2.7-6-6 0-.5.4-1 1-1 .5 0 1 .4 1 1 0 2.2 1.8 4 4 4 .5 0 1 .4 1 1s-.5 1-1 1z"/><path class="ipa0" d="M426 239.1c-.5 0-1-.4-1-1 0-.5.4-1 1-1 2.2 0 4-1.8 4-4 0-.5.4-1 1-1 .5 0 1 .4 1 1 0 3.3-2.7 6-6 6z"/><path class="ipa0" d="M436 239.1c-3.3 0-6-2.7-6-6 0-.5.4-1 1-1 .5 0 1 .4 1 1 0 2.2 1.8 4 4 4 .5 0 1 .4 1 1s-.5 1-1 1z"/><path class="ipa0" d="M436 239.1c-.5 0-1-.4-1-1 0-.5.4-1 1-1 2.2 0 4-1.8 4-4 0-.5.4-1 1-1 .5 0 1 .4 1 1 0 3.3-2.7 6-6 6z"/><path class="ipa0" d="M446 239.1c-3.3 0-6-2.7-6-6 0-.5.4-1 1-1 .5 0 1 .4 1 1 0 2.2 1.8 4 4 4 .5 0 1 .4 1 1s-.5 1-1 1z"/><path class="ipa0" d="M354.2 258.5c-.5 0-1-.4-1-1 0-.5.4-1 1-1 2.2 0 4-1.8 4-4 0-.5.4-1 1-1s1 .4 1 1c0 3.3-2.7 6-6 6z"/><path class="ipa0" d="M364.3 258.5c-3.3 0-6-2.7-6-6 0-.5.4-1 1-1s1 .4 1 1c0 2.2 1.8 4 4 4 .5 0 1 .4 1 1-.1.6-.5 1-1 1z"/><path class="ipa0" d="M364.3 258.5c-.5 0-1-.4-1-1 0-.5.4-1 1-1 2.2 0 4-1.8 4-4 0-.5.4-1 1-1 .5 0 1 .4 1 1-.1 3.3-2.8 6-6 6z"/><path class="ipa0" d="M374.3 258.5c-3.3 0-6-2.7-6-6 0-.5.4-1 1-1 .5 0 1 .4 1 1 0 2.2 1.8 4 4 4 .5 0 1 .4 1 1-.1.6-.5 1-1 1z"/><path class="ipa0" d="M374.3 258.5c-.5 0-1-.4-1-1 0-.5.4-1 1-1 2.2 0 4-1.8 4-4 0-.5.4-1 1-1 .5 0 1 .4 1 1-.1 3.3-2.7 6-6 6z"/><path class="ipa0" d="M384.3 258.5c-3.3 0-6-2.7-6-6 0-.5.4-1 1-1 .5 0 1 .4 1 1 0 2.2 1.8 4 4 4 .5 0 1 .4 1 1-.1.6-.5 1-1 1z"/><path class="ipa0" d="M384.3 258.5c-.5 0-1-.4-1-1 0-.5.4-1 1-1 2.2 0 4-1.8 4-4 0-.5.4-1 1-1 .5 0 1 .4 1 1 0 3.3-2.7 6-6 6z"/><path class="ipa0" d="M394.3 258.5c-3.3 0-6-2.7-6-6 0-.5.4-1 1-1 .5 0 1 .4 1 1 0 2.2 1.8 4 4 4 .5 0 1 .4 1 1s-.5 1-1 1z"/><path class="ipa0" d="M394.3 258.5c-.5 0-1-.4-1-1 0-.5.4-1 1-1 2.2 0 4-1.8 4-4 0-.5.4-1 1-1s1 .4 1 1c0 3.3-2.7 6-6 6z"/><path class="ipa0" d="M404.3 258.5c-3.3 0-6-2.7-6-6 0-.5.4-1 1-1s1 .4 1 1c0 2.2 1.8 4 4 4 .5 0 1 .4 1 1s-.5 1-1 1z"/></g><g id="forest" class="icon"><path class="ipa0" d="M525.1 553c-.6 0-1-.4-1-1v-37c0-.6.4-1 1-1s1 .4 1 1v37c0 .6-.5 1-1 1z"/><path class="ipa0" d="M517.9 523.1c-.6 0-1-.4-1-1s.4-1 1-1c3.5 0 6.3-2.8 6.3-6.3 0-.6.4-1 1-1s1 .4 1 1c.1 4.5-3.7 8.3-8.3 8.3z"/><path class="ipa0" d="M517.9 529.2c-.6 0-1-.4-1-1s.4-1 1-1c3.5 0 6.3-2.8 6.3-6.3 0-.6.4-1 1-1s1 .4 1 1c.1 4.6-3.7 8.3-8.3 8.3z"/><path class="ipa0" d="M517.9 535.4c-.6 0-1-.4-1-1s.4-1 1-1c3.5 0 6.3-2.8 6.3-6.3 0-.6.4-1 1-1s1 .4 1 1c.1 4.6-3.7 8.3-8.3 8.3z"/><path class="ipa0" d="M517.9 541.6c-.6 0-1-.4-1-1s.4-1 1-1c3.5 0 6.3-2.8 6.3-6.3 0-.6.4-1 1-1s1 .4 1 1c.1 4.5-3.7 8.3-8.3 8.3z"/><path class="ipa0" d="M532.6 523.1c-4.6 0-8.3-3.7-8.3-8.3 0-.6.4-1 1-1s1 .4 1 1c0 3.5 2.8 6.3 6.3 6.3.6 0 1 .4 1 1s-.5 1-1 1z"/><path class="ipa0" d="M532.6 529.2c-4.6 0-8.3-3.7-8.3-8.3 0-.6.4-1 1-1s1 .4 1 1c0 3.5 2.8 6.3 6.3 6.3.6 0 1 .4 1 1s-.5 1-1 1z"/><path class="ipa0" d="M532.6 535.4c-4.6 0-8.3-3.7-8.3-8.3 0-.6.4-1 1-1s1 .4 1 1c0 3.5 2.8 6.3 6.3 6.3.6 0 1 .4 1 1s-.5 1-1 1z"/><path class="ipa0" d="M532.6 541.6c-4.6 0-8.3-3.7-8.3-8.3 0-.6.4-1 1-1s1 .4 1 1c0 3.5 2.8 6.3 6.3 6.3.6 0 1 .4 1 1s-.5 1-1 1z"/><path class="ipa0" d="M561.1 553c-.6 0-1-.4-1-1v-37c0-.6.4-1 1-1s1 .4 1 1v37c0 .6-.5 1-1 1z"/><path class="ipa0" d="M554.3 523.1c-.6 0-1-.4-1-1s.4-1 1-1c3.5 0 6.3-2.8 6.3-6.3 0-.6.4-1 1-1s1 .4 1 1c0 4.5-3.7 8.3-8.3 8.3z"/><path class="ipa0" d="M554.3 529.2c-.6 0-1-.4-1-1s.4-1 1-1c3.5 0 6.3-2.8 6.3-6.3 0-.6.4-1 1-1s1 .4 1 1c0 4.6-3.7 8.3-8.3 8.3z"/><path class="ipa0" d="M554.3 535.4c-.6 0-1-.4-1-1s.4-1 1-1c3.5 0 6.3-2.8 6.3-6.3 0-.6.4-1 1-1s1 .4 1 1c0 4.6-3.7 8.3-8.3 8.3z"/><path class="ipa0" d="M554.3 541.6c-.6 0-1-.4-1-1s.4-1 1-1c3.5 0 6.3-2.8 6.3-6.3 0-.6.4-1 1-1s1 .4 1 1c0 4.5-3.7 8.3-8.3 8.3z"/><path class="ipa0" d="M569 523.1c-4.6 0-8.3-3.7-8.3-8.3 0-.6.4-1 1-1s1 .4 1 1c0 3.5 2.8 6.3 6.3 6.3.6 0 1 .4 1 1s-.5 1-1 1z"/><path class="ipa0" d="M569 529.2c-4.6 0-8.3-3.7-8.3-8.3 0-.6.4-1 1-1s1 .4 1 1c0 3.5 2.8 6.3 6.3 6.3.6 0 1 .4 1 1s-.5 1-1 1z"/><path class="ipa0" d="M569 535.4c-4.6 0-8.3-3.7-8.3-8.3 0-.6.4-1 1-1s1 .4 1 1c0 3.5 2.8 6.3 6.3 6.3.6 0 1 .4 1 1s-.5 1-1 1z"/><path class="ipa0" d="M569 541.6c-4.6 0-8.3-3.7-8.3-8.3 0-.6.4-1 1-1s1 .4 1 1c0 3.5 2.8 6.3 6.3 6.3.6 0 1 .4 1 1s-.5 1-1 1z"/><g><path class="ipa0" d="M543.1 553c-.6 0-1-.4-1-1v-37c0-.6.4-1 1-1s1 .4 1 1v37c0 .6-.5 1-1 1z"/><path class="ipa0" d="M536 523.1c-.6 0-1-.4-1-1s.4-1 1-1c3.5 0 6.3-2.8 6.3-6.3 0-.6.4-1 1-1s1 .4 1 1c.1 4.5-3.7 8.3-8.3 8.3z"/><path class="ipa0" d="M536 529.2c-.6 0-1-.4-1-1s.4-1 1-1c3.5 0 6.3-2.8 6.3-6.3 0-.6.4-1 1-1s1 .4 1 1c.1 4.6-3.7 8.3-8.3 8.3z"/><path class="ipa0" d="M536 535.4c-.6 0-1-.4-1-1s.4-1 1-1c3.5 0 6.3-2.8 6.3-6.3 0-.6.4-1 1-1s1 .4 1 1c.1 4.6-3.7 8.3-8.3 8.3z"/><path class="ipa0" d="M536 541.6c-.6 0-1-.4-1-1s.4-1 1-1c3.5 0 6.3-2.8 6.3-6.3 0-.6.4-1 1-1s1 .4 1 1c.1 4.5-3.7 8.3-8.3 8.3z"/><path class="ipa0" d="M550.7 523.1c-4.6 0-8.3-3.7-8.3-8.3 0-.6.4-1 1-1s1 .4 1 1c0 3.5 2.8 6.3 6.3 6.3.6 0 1 .4 1 1s-.5 1-1 1z"/><path class="ipa0" d="M550.7 529.2c-4.6 0-8.3-3.7-8.3-8.3 0-.6.4-1 1-1s1 .4 1 1c0 3.5 2.8 6.3 6.3 6.3.6 0 1 .4 1 1s-.5 1-1 1z"/><path class="ipa0" d="M550.7 535.4c-4.6 0-8.3-3.7-8.3-8.3 0-.6.4-1 1-1s1 .4 1 1c0 3.5 2.8 6.3 6.3 6.3.6 0 1 .4 1 1s-.5 1-1 1z"/><path class="ipa0" d="M550.7 541.6c-4.6 0-8.3-3.7-8.3-8.3 0-.6.4-1 1-1s1 .4 1 1c0 3.5 2.8 6.3 6.3 6.3.6 0 1 .4 1 1s-.5 1-1 1z"/></g></g><g id="health-2" class="icon"><path class="ipa0" d="M420.1 556h-42c-.6 0-1-.4-1-1v-36c0-.6.4-1 1-1h42c.6 0 1 .4 1 1v36c0 .6-.5 1-1 1zm-41-2h40v-34h-40v34z"/><path class="ipa0" d="M406.7 520h-15.1c-.6 0-1-.4-1-1 0-4.6 3.9-8.6 8.6-8.6s8.6 3.9 8.6 8.6c-.1.6-.5 1-1.1 1zm-14-2h12.9c-.5-3.1-3.3-5.6-6.5-5.6s-5.9 2.5-6.4 5.6z"/><path class="ipa0" d="M399.1 547c-.6 0-1-.4-1-1v-18c0-.6.4-1 1-1s1 .4 1 1v18c0 .6-.5 1-1 1z"/><path class="ipa0" d="M408.1 538h-18c-.6 0-1-.4-1-1s.4-1 1-1h18c.6 0 1 .4 1 1s-.5 1-1 1z"/></g><g id="weight-2" class="icon"><path class="ipa0" d="M62.1 466h-43c-.6 0-1-.4-1-1s.4-1 1-1h43c.6 0 1 .4 1 1s-.5 1-1 1z"/><path class="ipa0" d="M62.1 459h-43c-.6 0-1-.4-1-1s.4-1 1-1h43c.6 0 1 .4 1 1s-.5 1-1 1z"/><path class="ipa0" d="M14.6 479c-3 0-5.5-2.5-5.5-5.5v-24c0-3 2.5-5.5 5.5-5.5s5.5 2.5 5.5 5.5v24c0 3-2.5 5.5-5.5 5.5zm0-33c-1.9 0-3.5 1.6-3.5 3.5v24c0 1.9 1.6 3.5 3.5 3.5s3.5-1.6 3.5-3.5v-24c0-1.9-1.6-3.5-3.5-3.5z"/><path class="ipa0" d="M7.8 470h-.4c-1.8 0-3.3-1.5-3.3-3.3v-11.4c0-1.8 1.5-3.3 3.3-3.3h.4c1.8 0 3.3 1.5 3.3 3.3v11.4c0 1.8-1.5 3.3-3.3 3.3zm-.4-16c-.7 0-1.3.6-1.3 1.3v11.4c0 .7.6 1.3 1.3 1.3h.4c.7 0 1.3-.6 1.3-1.3v-11.4c0-.7-.6-1.3-1.3-1.3h-.4z"/><path class="ipa0" d="M66.6 479c-3 0-5.5-2.5-5.5-5.5v-24c0-3 2.5-5.5 5.5-5.5s5.5 2.5 5.5 5.5v24c0 3-2.5 5.5-5.5 5.5zm0-33c-1.9 0-3.5 1.6-3.5 3.5v24c0 1.9 1.6 3.5 3.5 3.5s3.5-1.6 3.5-3.5v-24c0-1.9-1.6-3.5-3.5-3.5z"/><path class="ipa0" d="M5.1 466.7c-3.2 0-5.1-1.9-5.1-5.1 0-3.2 1.9-5.1 5.1-5.1.6 0 1 .4 1 1v8.2c0 .6-.5 1-1 1zm-1-8c-1.4.3-2.1 1.3-2.1 3s.7 2.7 2.1 3v-6z"/><path class="ipa0" d="M73.8 470h-.4c-1.8 0-3.3-1.5-3.3-3.3v-11.4c0-1.8 1.5-3.3 3.3-3.3h.4c1.8 0 3.3 1.5 3.3 3.3v11.4c0 1.8-1.5 3.3-3.3 3.3zm-.4-16c-.7 0-1.3.6-1.3 1.3v11.4c0 .7.6 1.3 1.3 1.3h.4c.7 0 1.3-.6 1.3-1.3v-11.4c0-.7-.6-1.3-1.3-1.3h-.4z"/><path class="ipa0" d="M76.1 466.7c-.6 0-1-.4-1-1v-8.2c0-.6.4-1 1-1 2.4 0 5.1 2.2 5.1 5.1 0 3-2.7 5.1-5.1 5.1zm1-7.9v5.8c1.1-.4 2.1-1.5 2.1-2.9s-1-2.5-2.1-2.9z"/></g><g id="cup" class="icon"><path class="ipa0" d="M111.9 522c-.6 0-1-.4-1-1 0-4.8-3.9-8.8-8.8-8.8-.6 0-1-.4-1-1s.4-1 1-1c5.9 0 10.8 4.8 10.8 10.8 0 .6-.5 1-1 1z"/><path class="ipa0" d="M117.5 556h-11.2c-.5 0-.9-.3-1-.8l-8.4-34c-.1-.3 0-.6.2-.9s.5-.4.8-.4H126c.3 0 .6.1.8.4s.3.6.2.9l-8.4 34c-.2.5-.6.8-1.1.8zm-10.4-2h9.7l7.9-32H99.2l7.9 32z"/><path class="ipa0" d="M112.1 526c-.6 0-1-.4-1-1v-4c0-.6.4-1 1-1s1 .4 1 1v4c0 .6-.5 1-1 1z"/><path class="ipa0" d="M125.1 527h-26c-.6 0-1-.4-1-1s.4-1 1-1h26c.6 0 1 .4 1 1s-.5 1-1 1z"/></g><g id="graph-3" class="icon"><path class="ipa0" d="M332.3 482c-.4 0-.7-.2-.9-.5l-15.6-26.9c-.3-.5-.1-1.1.4-1.4.5-.3 1.1-.1 1.4.4l14.7 25.4 16.3-28.2c.3-.5.9-.6 1.4-.4.5.3.6.9.4 1.4l-17.1 29.7c-.3.3-.6.5-1 .5z"/><path class="ipa0" d="M306.8 468.1c-.2 0-.3 0-.5-.1-.5-.3-.6-.9-.4-1.4l7.5-13.1c.3-.5.9-.6 1.4-.4.5.3.6.9.4 1.4l-7.5 13.1c-.2.3-.6.5-.9.5z"/><path class="ipa0" d="M304.4 477.1c-3.2 0-5.8-2.6-5.8-5.8s2.6-5.8 5.8-5.8 5.8 2.6 5.8 5.8-2.6 5.8-5.8 5.8zm0-9.6c-2.1 0-3.8 1.7-3.8 3.8s1.7 3.8 3.8 3.8c2.1 0 3.8-1.7 3.8-3.8s-1.7-3.8-3.8-3.8z"/><path class="ipa0" d="M352 453c-3.2 0-5.8-2.6-5.8-5.8s2.6-5.8 5.8-5.8 5.8 2.6 5.8 5.8-2.6 5.8-5.8 5.8zm0-9.7c-2.1 0-3.8 1.7-3.8 3.8s1.7 3.8 3.8 3.8c2.1 0 3.8-1.7 3.8-3.8s-1.7-3.8-3.8-3.8z"/><path class="ipa0" d="M315.5 455.4c-1.9 0-3.4-1.5-3.4-3.4s1.5-3.4 3.4-3.4 3.4 1.5 3.4 3.4c.1 1.8-1.5 3.4-3.4 3.4zm0-4.9c-.8 0-1.4.6-1.4 1.4 0 .8.6 1.4 1.4 1.4s1.4-.6 1.4-1.4c.1-.7-.6-1.4-1.4-1.4z"/></g><g id="barn-2" class="icon"><path class="ipa0" d="M270.1 554h-31c-.6 0-1-.4-1-1v-27c0-.6.4-1 1-1s1 .4 1 1v26h29v-26c0-.6.4-1 1-1s1 .4 1 1v27c0 .6-.5 1-1 1z"/><path class="ipa0" d="M274.8 535.4c-.3 0-.7-.2-.9-.5l-8.1-14.1-11.1-4.5-11.1 4.5-8.1 14.1c-.3.5-.9.6-1.4.4-.5-.3-.6-.9-.4-1.4l8.3-14.4c.1-.2.3-.3.5-.4l11.8-4.7c.2-.1.5-.1.7 0l11.8 4.7c.2.1.4.2.5.4l8.3 14.4c.3.5.1 1.1-.4 1.4 0 0-.2.1-.4.1z"/><path class="ipa0" d="M262.1 554h-15c-.6 0-1-.4-1-1v-26c0-.6.4-1 1-1h15c.6 0 1 .4 1 1v26c0 .6-.5 1-1 1zm-14-2h13v-24h-13v24z"/><path class="ipa0" d="M262.1 541h-15c-.6 0-1-.4-1-1s.4-1 1-1h15c.6 0 1 .4 1 1s-.5 1-1 1z"/><path class="ipa0" d="M247 554c-.3 0-.6-.1-.8-.4-.4-.4-.3-1.1.1-1.4l15.5-13.2c.4-.4 1.1-.3 1.4.1.4.4.3 1.1-.1 1.4l-15.5 13.2c-.2.2-.4.3-.6.3z"/><path class="ipa0" d="M247 554c-.3 0-.6-.1-.8-.4-.4-.4-.3-1.1.1-1.4l15.5-13.2c.4-.4 1.1-.3 1.4.1.4.4.3 1.1-.1 1.4l-15.5 13.2c-.2.2-.4.3-.6.3z"/><path class="ipa0" d="M262.5 554c-.2 0-.5-.1-.6-.2l-15.5-13.2c-.4-.4-.5-1-.1-1.4.4-.4 1-.5 1.4-.1l15.5 13.2c.4.4.5 1 .1 1.4-.3.2-.6.3-.8.3z"/></g><g id="pin-3_1_" class="icon"><path class="ipa0" d="M184.1 491.1c-.4 0-.7-.2-.9-.5l-21.7-37.5c-.2-.3-.2-.7 0-1l10.8-18.6c.2-.3.5-.5.9-.5h21.7c.4 0 .7.2.9.5l10.8 18.7c.2.3.2.7 0 1l-21.7 37.4c-.1.3-.5.5-.8.5zm-20.5-38.5l20.5 35.5 20.5-35.4-10.3-17.7h-20.5l-10.2 17.6z"/><path class="ipa0" d="M184.1 461.7c-5.2 0-9.5-4.3-9.5-9.5s4.3-9.5 9.5-9.5 9.5 4.3 9.5 9.5c0 5.3-4.3 9.5-9.5 9.5zm0-17c-4.1 0-7.5 3.4-7.5 7.5s3.4 7.5 7.5 7.5 7.5-3.4 7.5-7.5-3.4-7.5-7.5-7.5z"/></g><g id="waves" class="icon"><path class="ipa0" d="M468 456.1c-.5 0-1-.4-1-1 0-.5.4-1 1-1 2.2 0 4-1.8 4-4 0-.5.4-1 1-1 .5 0 1 .4 1 1-.1 3.3-2.8 6-6 6z"/><path class="ipa0" d="M478 456.1c-3.3 0-6-2.7-6-6 0-.5.4-1 1-1 .5 0 1 .4 1 1 0 2.2 1.8 4 4 4 .5 0 1 .4 1 1-.1.6-.5 1-1 1z"/><path class="ipa0" d="M478 456.1c-.5 0-1-.4-1-1 0-.5.4-1 1-1 2.2 0 4-1.8 4-4 0-.5.4-1 1-1s1 .4 1 1c-.1 3.3-2.7 6-6 6z"/><path class="ipa0" d="M488 456.1c-3.3 0-6-2.7-6-6 0-.5.4-1 1-1s1 .4 1 1c0 2.2 1.8 4 4 4 .5 0 1 .4 1 1-.1.6-.5 1-1 1z"/><path class="ipa0" d="M488 456.1c-.5 0-1-.4-1-1 0-.5.4-1 1-1 2.2 0 4-1.8 4-4 0-.5.4-1 1-1 .5 0 1 .4 1 1 0 3.3-2.7 6-6 6z"/><path class="ipa0" d="M498 456.1c-3.3 0-6-2.7-6-6 0-.5.4-1 1-1 .5 0 1 .4 1 1 0 2.2 1.8 4 4 4 .5 0 1 .4 1 1s-.5 1-1 1z"/><path class="ipa0" d="M498 456.1c-.5 0-1-.4-1-1 0-.5.4-1 1-1 2.2 0 4-1.8 4-4 0-.5.4-1 1-1 .5 0 1 .4 1 1 0 3.3-2.7 6-6 6z"/><path class="ipa0" d="M508 456.1c-3.3 0-6-2.7-6-6 0-.5.4-1 1-1 .5 0 1 .4 1 1 0 2.2 1.8 4 4 4 .5 0 1 .4 1 1s-.5 1-1 1z"/><path class="ipa0" d="M508 456.1c-.5 0-1-.4-1-1 0-.5.4-1 1-1 2.2 0 4-1.8 4-4 0-.5.4-1 1-1s1 .4 1 1c0 3.3-2.7 6-6 6z"/><path class="ipa0" d="M518 456.1c-3.3 0-6-2.7-6-6 0-.5.4-1 1-1s1 .4 1 1c0 2.2 1.8 4 4 4 .5 0 1 .4 1 1s-.5 1-1 1z"/><path class="ipa0" d="M426.2 475.5c-.5 0-1-.4-1-1 0-.5.4-1 1-1 2.2 0 4-1.8 4-4 0-.5.4-1 1-1s1 .4 1 1c0 3.3-2.7 6-6 6z"/><path class="ipa0" d="M436.3 475.5c-3.3 0-6-2.7-6-6 0-.5.4-1 1-1s1 .4 1 1c0 2.2 1.8 4 4 4 .5 0 1 .4 1 1-.1.6-.5 1-1 1z"/><path class="ipa0" d="M436.3 475.5c-.5 0-1-.4-1-1 0-.5.4-1 1-1 2.2 0 4-1.8 4-4 0-.5.4-1 1-1 .5 0 1 .4 1 1-.1 3.3-2.8 6-6 6z"/><path class="ipa0" d="M446.3 475.5c-3.3 0-6-2.7-6-6 0-.5.4-1 1-1 .5 0 1 .4 1 1 0 2.2 1.8 4 4 4 .5 0 1 .4 1 1-.1.6-.5 1-1 1z"/><path class="ipa0" d="M446.3 475.5c-.5 0-1-.4-1-1 0-.5.4-1 1-1 2.2 0 4-1.8 4-4 0-.5.4-1 1-1 .5 0 1 .4 1 1-.1 3.3-2.7 6-6 6z"/><path class="ipa0" d="M456.3 475.5c-3.3 0-6-2.7-6-6 0-.5.4-1 1-1 .5 0 1 .4 1 1 0 2.2 1.8 4 4 4 .5 0 1 .4 1 1-.1.6-.5 1-1 1z"/><path class="ipa0" d="M456.3 475.5c-.5 0-1-.4-1-1 0-.5.4-1 1-1 2.2 0 4-1.8 4-4 0-.5.4-1 1-1 .5 0 1 .4 1 1 0 3.3-2.7 6-6 6z"/><path class="ipa0" d="M466.3 475.5c-3.3 0-6-2.7-6-6 0-.5.4-1 1-1 .5 0 1 .4 1 1 0 2.2 1.8 4 4 4 .5 0 1 .4 1 1s-.5 1-1 1z"/><path class="ipa0" d="M466.3 475.5c-.5 0-1-.4-1-1 0-.5.4-1 1-1 2.2 0 4-1.8 4-4 0-.5.4-1 1-1s1 .4 1 1c0 3.3-2.7 6-6 6z"/><path class="ipa0" d="M476.3 475.5c-3.3 0-6-2.7-6-6 0-.5.4-1 1-1s1 .4 1 1c0 2.2 1.8 4 4 4 .5 0 1 .4 1 1s-.5 1-1 1z"/></g></pattern></defs></svg>