<?xml version="1.0" encoding="utf-8"?>
<!-- Generator: Adobe Illustrator 19.1.0, SVG Export Plug-In . SVG Version: 6.00 Build 0)  -->
<svg version="1.1" id="Layer_1" xmlns="http://www.w3.org/2000/svg" xmlns:xlink="http://www.w3.org/1999/xlink" x="0px" y="0px"
	 viewBox="0 0 828.8 178" style="enable-background:new 0 0 828.8 178;" xml:space="preserve">
<style type="text/css">
	.st0{fill:#FFFFFF;}
	.st1{fill:#ECE83C;}
</style>
<g id="words">
	<path class="st0" d="M365.8,110.8c-10.8-2.7-10.8-7-10.8-8.8c0-4.7,3.8-8.5,8.4-8.5s8.4,3.8,8.4,8.5h20c0-15.7-12.7-28.5-28.4-28.5
		c-15.7,0-28.4,12.8-28.4,28.5c0,7.6,2.9,14.3,8.4,19.4c4.3,4,10.2,6.9,17.5,8.8c5.8,1.4,15.4,5.1,15.4,13.3c0,7.2-5.8,13-13,13
		s-13-5.8-13-13h-20c0,18.2,14.8,33,33,33s33-14.8,33-33C396.3,127.8,384.9,115.6,365.8,110.8z"/>
	<path class="st0" d="M290.3,75h-30v100l20,0v-45h10c15.2,0,27.5-12.3,27.5-27.5S305.5,75,290.3,75z M290.3,110h-10V95h10
		c4.1,0,7.5,3.4,7.5,7.5S294.5,110,290.3,110z"/>
	<polygon class="st0" points="103.8,72 65.7,138 27.6,72 0,175 20.7,175 34.4,123.8 65.7,178 97,123.8 110.7,175 131.4,175 	"/>
	<path class="st0" d="M171.4,150h43.9l14.4,25h23.1L193.4,72l-59.5,103H157L171.4,150z M193.4,112l10.4,18H183L193.4,112z"/>
	<path class="st0" d="M462.8,163.2c-21,0-38.2-17.1-38.2-38.2s17.1-38.2,38.2-38.2c6.3,0,12.3,1.5,17.5,4.3V76.6
		c-5.5-2-11.4-3.1-17.5-3.1c-28.4,0-51.5,23.1-51.5,51.5s23.1,51.5,51.5,51.5c6.1,0,12-1.1,17.5-3.1v-14.5
		C475.1,161.6,469.1,163.2,462.8,163.2z"/>
	<path class="st0" d="M797.3,176.5c-17.4,0-31.5-14.1-31.5-31.5h13.3c0,10,8.2,18.2,18.2,18.2s18.2-8.2,18.2-18.2
		c0-11.7-12.4-16.5-19.8-18.4c-21.7-5.4-24.9-18.9-24.9-26.5c0-14.7,11.9-26.7,26.5-26.7s26.5,12,26.5,26.7h-13.3
		c0-7.3-5.9-13.3-13.2-13.3c-7.3,0-13.2,6-13.2,13.3c0,2.4,0,9.8,14.8,13.5c19,4.8,29.9,16.2,29.9,31.3
		C828.8,162.4,814.6,176.5,797.3,176.5z"/>
	<path class="st0" d="M546.8,86.8c21,0,38.2,17.1,38.2,38.2s-17.1,38.2-38.2,38.2S508.7,146,508.7,125S525.8,86.8,546.8,86.8
		 M546.8,73.5c-28.4,0-51.5,23.1-51.5,51.5s23.1,51.5,51.5,51.5c28.4,0,51.5-23.1,51.5-51.5S575.3,73.5,546.8,73.5L546.8,73.5z"/>
	<path class="st0" d="M669.2,99.2c0-13.3-10.8-24.2-24.2-24.2l-26.7,0v100h13.3v-51.7L675,175h17.4l-43.6-52
		C660.3,121.2,669.2,111.2,669.2,99.2z M631.7,88.3H645c6,0,10.8,4.9,10.8,10.8c0,6-4.9,10.8-10.8,10.8h-13.3V88.3z"/>
	<path class="st0" d="M729.1,75l-26.7,0v100h13.3v-51.7l13.3,0c13.3,0,24.2-10.8,24.2-24.2S742.4,75,729.1,75z M729.1,110h-13.3
		V88.3h13.3c6,0,10.8,4.9,10.8,10.8C739.9,105.1,735,110,729.1,110z"/>
</g>
<path id="pin" class="st1" d="M80.7,0h-30l-15,26l30,52l30-52L80.7,0z M65.7,35.7c-5.4,0-9.7-4.3-9.7-9.7c0-5.4,4.3-9.7,9.7-9.7
	c5.4,0,9.7,4.3,9.7,9.7C75.4,31.4,71.1,35.7,65.7,35.7z"/>
<g>
</g>
<g>
</g>
<g>
</g>
<g>
</g>
<g>
</g>
<g>
</g>
</svg>
