<?xml version="1.0" encoding="utf-8"?>
<!-- Generator: Adobe Illustrator 19.1.0, SVG Export Plug-In . SVG Version: 6.00 Build 0)  -->
<svg version="1.1" id="Layer_1" xmlns="http://www.w3.org/2000/svg" xmlns:xlink="http://www.w3.org/1999/xlink" x="0px" y="0px"
	 viewBox="0 0 1375.2 214" style="enable-background:new 0 0 1375.2 214;" xml:space="preserve">
<style type="text/css">
	.st0{fill:none;stroke:#363469;stroke-width:2;stroke-linecap:round;stroke-linejoin:round;stroke-miterlimit:10;}
	.st1{fill:none;stroke:#4C4A79;stroke-width:3;stroke-linecap:round;stroke-linejoin:round;stroke-miterlimit:10;}
	.st2{fill:none;stroke:#4C4A79;stroke-width:2.5;stroke-linecap:round;stroke-linejoin:round;stroke-miterlimit:10;}
	.st3{fill:#4C4A79;}
</style>
<path class="st0" d="M288.8,28.3c-1.7,0-3.3,0.8-4.3,2c-1.6-6.7-7.6-11.7-14.8-11.7c-5.7,0-10.7,3.1-13.3,7.8
	c-1.6-1.2-3.6-1.9-5.8-1.9c-5.2,0-9.4,4.5-9.4,9.5h13.2h5.6h23.2h1.7h9.5C294.4,31,291.9,28.3,288.8,28.3z"/>
<g>
	<path class="st0" d="M399.6,5.5c3.3-0.9,6.9,0,9.5,2.5c2.6,2.6,3.4,6.2,2.5,9.5"/>
	<path class="st0" d="M431.3,19.8c-0.7-4.3-4.3-7.7-8.7-8.2c-4.7-0.5-8.8,2.4-10.3,6.5c-0.1,0.3-0.5,0.4-0.5,0.4s-0.3-0.1-0.4-0.4
		c-1.5-4.1-5.5-7-10.3-6.5c-4.4,0.4-7.9,3.8-8.7,8.2c-1.6,13.8,9.1,26.4,14.7,26.4c1.3,0,2.4-0.5,3.3-1.4c0.4-0.4,0.8-0.6,1.3-0.6
		c0.5,0,1,0.2,1.4,0.6c0.9,0.9,2,1.4,3.4,1.4C422.2,46.2,432.9,33.6,431.3,19.8z"/>
	<path class="st0" d="M410,41.2c-0.6,0.5-1.2,0.9-1.9,0.9c-1.2,0-3.5-1.2-6-4c-1.3-1.5-2.7-3.4-3.8-5.5"/>
	<path class="st0" d="M426.7,28.6c-1.3,3.4-3.2,6.4-5.1,8.6c-2.5,2.8-4.8,4-6,4c-0.9,0-1.6-0.5-1.9-0.9"/>
	<g>
		<path class="st0" d="M421.5,16.1c2.6-2.6,3.4-6.2,2.5-9.5c-3.3-0.9-6.9,0-9.5,2.5c-2.6,2.6-3.4,6.2-2.5,9.5
			C415.3,19.5,418.9,18.7,421.5,16.1z"/>
		<line class="st0" x1="412" y1="18.6" x2="419.4" y2="11.2"/>
	</g>
</g>
<g>
	<line class="st0" x1="520" y1="44" x2="520" y2="38"/>
	<path class="st0" d="M526.2,27.1L526.2,27.1c1.3,1.3,1.3,3.5,0,4.8l-7.5,7.5c-1.3,1.3-3.5,1.3-4.8,0v0c-1.3-1.3-1.3-3.5,0-4.8
		l7.5-7.5C522.7,25.8,524.9,25.8,526.2,27.1z"/>
	<path class="st0" d="M526.2,39.4L526.2,39.4c-1.3,1.3-3.5,1.3-4.8,0l-7.5-7.5c-1.3-1.3-1.3-3.5,0-4.8v0c1.3-1.3,3.5-1.3,4.8,0
		l7.5,7.5C527.5,35.9,527.5,38.1,526.2,39.4z"/>
	<line class="st0" x1="565" y1="44" x2="565" y2="38"/>
	<path class="st0" d="M571.2,27.1L571.2,27.1c1.3,1.3,1.3,3.5,0,4.8l-7.5,7.5c-1.3,1.3-3.5,1.3-4.8,0v0c-1.3-1.3-1.3-3.5,0-4.8
		l7.5-7.5C567.7,25.8,569.9,25.8,571.2,27.1z"/>
	<path class="st0" d="M571.2,39.4L571.2,39.4c-1.3,1.3-3.5,1.3-4.8,0l-7.5-7.5c-1.3-1.3-1.3-3.5,0-4.8v0c1.3-1.3,3.5-1.3,4.8,0
		l7.5,7.5C572.5,35.9,572.5,38.1,571.2,39.4z"/>
	<line class="st0" x1="542" y1="19" x2="542" y2="13"/>
	<path class="st0" d="M548.2,2.1L548.2,2.1c1.3,1.3,1.3,3.5,0,4.8l-7.5,7.5c-1.3,1.3-3.5,1.3-4.8,0v0c-1.3-1.3-1.3-3.5,0-4.8
		l7.5-7.5C544.7,0.8,546.9,0.8,548.2,2.1z"/>
	<path class="st0" d="M548.2,14.4L548.2,14.4c-1.3,1.3-3.5,1.3-4.8,0l-7.5-7.5c-1.3-1.3-1.3-3.5,0-4.8v0c1.3-1.3,3.5-1.3,4.8,0
		l7.5,7.5C549.5,10.9,549.5,13.1,548.2,14.4z"/>
	<line class="st0" x1="587" y1="19" x2="587" y2="13"/>
	<path class="st0" d="M593.2,2.1L593.2,2.1c1.3,1.3,1.3,3.5,0,4.8l-7.5,7.5c-1.3,1.3-3.5,1.3-4.8,0v0c-1.3-1.3-1.3-3.5,0-4.8
		l7.5-7.5C589.7,0.8,591.9,0.8,593.2,2.1z"/>
	<path class="st0" d="M593.2,14.4L593.2,14.4c-1.3,1.3-3.5,1.3-4.8,0l-7.5-7.5c-1.3-1.3-1.3-3.5,0-4.8v0c1.3-1.3,3.5-1.3,4.8,0
		l7.5,7.5C594.5,10.9,594.5,13.1,593.2,14.4z"/>
</g>
<g>
	<path class="st1" d="M134.7,1.5h-19.1L106.1,18l19.1,33.1L144.3,18L134.7,1.5z"/>
	<circle class="st2" cx="125.2" cy="17.8" r="7.5"/>
</g>
<path class="st0" d="M863.8,28.3c-1.7,0-3.3,0.8-4.3,2c-1.6-6.7-7.6-11.7-14.8-11.7c-5.7,0-10.7,3.1-13.3,7.8
	c-1.6-1.2-3.6-1.9-5.8-1.9c-5.2,0-9.4,4.5-9.4,9.5h13.2h5.6h23.2h1.7h9.5C869.4,31,866.9,28.3,863.8,28.3z"/>
<g>
	<path class="st0" d="M974.6,5.5c3.3-0.9,6.9,0,9.5,2.5c2.6,2.6,3.4,6.2,2.5,9.5"/>
	<path class="st0" d="M1006.3,19.8c-0.7-4.3-4.3-7.7-8.7-8.2c-4.7-0.5-8.8,2.4-10.3,6.5c-0.1,0.3-0.5,0.4-0.5,0.4s-0.3-0.1-0.4-0.4
		c-1.5-4.1-5.5-7-10.3-6.5c-4.4,0.4-7.9,3.8-8.7,8.2c-1.6,13.8,9.1,26.4,14.7,26.4c1.3,0,2.4-0.5,3.3-1.4c0.4-0.4,0.8-0.6,1.3-0.6
		c0.5,0,1,0.2,1.4,0.6c0.9,0.9,2,1.4,3.4,1.4C997.2,46.2,1007.9,33.6,1006.3,19.8z"/>
	<path class="st0" d="M985,41.2c-0.6,0.5-1.2,0.9-1.9,0.9c-1.2,0-3.5-1.2-6-4c-1.3-1.5-2.7-3.4-3.8-5.5"/>
	<path class="st0" d="M1001.7,28.6c-1.3,3.4-3.2,6.4-5.1,8.6c-2.5,2.8-4.8,4-6,4c-0.9,0-1.6-0.5-1.9-0.9"/>
	<g>
		<path class="st0" d="M996.5,16.1c2.6-2.6,3.4-6.2,2.5-9.5c-3.3-0.9-6.9,0-9.5,2.5c-2.6,2.6-3.4,6.2-2.5,9.5
			C990.3,19.5,993.9,18.7,996.5,16.1z"/>
		<line class="st0" x1="987" y1="18.6" x2="994.4" y2="11.2"/>
	</g>
</g>
<g>
	<line class="st0" x1="1095" y1="44" x2="1095" y2="38"/>
	<path class="st0" d="M1101.2,27.1L1101.2,27.1c1.3,1.3,1.3,3.5,0,4.8l-7.5,7.5c-1.3,1.3-3.5,1.3-4.8,0v0c-1.3-1.3-1.3-3.5,0-4.8
		l7.5-7.5C1097.7,25.8,1099.9,25.8,1101.2,27.1z"/>
	<path class="st0" d="M1101.2,39.4L1101.2,39.4c-1.3,1.3-3.5,1.3-4.8,0l-7.5-7.5c-1.3-1.3-1.3-3.5,0-4.8v0c1.3-1.3,3.5-1.3,4.8,0
		l7.5,7.5C1102.5,35.9,1102.5,38.1,1101.2,39.4z"/>
	<line class="st0" x1="1140" y1="44" x2="1140" y2="38"/>
	<path class="st0" d="M1146.2,27.1L1146.2,27.1c1.3,1.3,1.3,3.5,0,4.8l-7.5,7.5c-1.3,1.3-3.5,1.3-4.8,0v0c-1.3-1.3-1.3-3.5,0-4.8
		l7.5-7.5C1142.7,25.8,1144.9,25.8,1146.2,27.1z"/>
	<path class="st0" d="M1146.2,39.4L1146.2,39.4c-1.3,1.3-3.5,1.3-4.8,0l-7.5-7.5c-1.3-1.3-1.3-3.5,0-4.8v0c1.3-1.3,3.5-1.3,4.8,0
		l7.5,7.5C1147.5,35.9,1147.5,38.1,1146.2,39.4z"/>
	<line class="st0" x1="1117" y1="19" x2="1117" y2="13"/>
	<path class="st0" d="M1123.2,2.1L1123.2,2.1c1.3,1.3,1.3,3.5,0,4.8l-7.5,7.5c-1.3,1.3-3.5,1.3-4.8,0v0c-1.3-1.3-1.3-3.5,0-4.8
		l7.5-7.5C1119.7,0.8,1121.9,0.8,1123.2,2.1z"/>
	<path class="st0" d="M1123.2,14.4L1123.2,14.4c-1.3,1.3-3.5,1.3-4.8,0l-7.5-7.5c-1.3-1.3-1.3-3.5,0-4.8v0c1.3-1.3,3.5-1.3,4.8,0
		l7.5,7.5C1124.5,10.9,1124.5,13.1,1123.2,14.4z"/>
	<line class="st0" x1="1162" y1="19" x2="1162" y2="13"/>
	<path class="st0" d="M1168.2,2.1L1168.2,2.1c1.3,1.3,1.3,3.5,0,4.8l-7.5,7.5c-1.3,1.3-3.5,1.3-4.8,0v0c-1.3-1.3-1.3-3.5,0-4.8
		l7.5-7.5C1164.7,0.8,1166.9,0.8,1168.2,2.1z"/>
	<path class="st0" d="M1168.2,14.4L1168.2,14.4c-1.3,1.3-3.5,1.3-4.8,0l-7.5-7.5c-1.3-1.3-1.3-3.5,0-4.8v0c1.3-1.3,3.5-1.3,4.8,0
		l7.5,7.5C1169.5,10.9,1169.5,13.1,1168.2,14.4z"/>
</g>
<g>
	<path class="st1" d="M709.7,1.5h-19.1L681.1,18l19.1,33.1L719.3,18L709.7,1.5z"/>
	<circle class="st2" cx="700.2" cy="17.8" r="7.5"/>
</g>
<g>
	<path class="st1" d="M1285.7,1.5h-19.1l-9.6,16.5l19.1,33.1l19.1-33.1L1285.7,1.5z"/>
	<circle class="st2" cx="1276.2" cy="17.8" r="7.5"/>
</g>
<g>
	<line class="st0" x1="412" y1="128" x2="412" y2="139"/>
	<line class="st0" x1="406" y1="162" x2="406" y2="212"/>
	<line class="st0" x1="418" y1="162" x2="418" y2="212"/>
	<line class="st0" x1="413.1" y1="173.9" x2="418.6" y2="183.4"/>
	<line class="st0" x1="411.5" y1="173.9" x2="405.9" y2="183.5"/>
	<line class="st0" x1="413.4" y1="183.5" x2="430.1" y2="212.4"/>
	<line class="st0" x1="411.2" y1="183.5" x2="394.9" y2="211.8"/>
	<line class="st0" x1="413.1" y1="202.6" x2="418.6" y2="212.1"/>
	<line class="st0" x1="411.5" y1="202.6" x2="405.9" y2="212.1"/>
	<line class="st0" x1="413.1" y1="202.5" x2="418.6" y2="193"/>
	<line class="st0" x1="411.5" y1="202.5" x2="405.9" y2="193"/>
	<line class="st0" x1="406" y1="183" x2="412" y2="183"/>
	<line class="st0" x1="412" y1="183" x2="418" y2="183"/>
	<line class="st0" x1="400" y1="203" x2="412" y2="203"/>
	<line class="st0" x1="412" y1="203" x2="424" y2="203"/>
	<path class="st0" d="M412.3,173.9c6.6,0,11.9-4.9,11.9-11.9h-23.8C400.3,169,405.7,173.9,412.3,173.9z"/>
	<path class="st0" d="M412.3,138.1c-6.6,0-11.9,5.9-11.9,11.9h23.8C424.2,144,418.8,138.1,412.3,138.1z"/>
	<rect x="400" y="150" class="st0" width="25" height="12"/>
	<line class="st0" x1="400" y1="159" x2="425" y2="159"/>
	<line class="st0" x1="403" y1="159" x2="403" y2="162"/>
	<line class="st0" x1="407" y1="159" x2="407" y2="162"/>
	<line class="st0" x1="409" y1="159" x2="409" y2="162"/>
	<line class="st0" x1="412" y1="159" x2="412" y2="162"/>
	<line class="st0" x1="415" y1="159" x2="415" y2="162"/>
	<line class="st0" x1="422" y1="159" x2="422" y2="162"/>
	<line class="st0" x1="418" y1="159" x2="418" y2="162"/>
	<line class="st0" x1="412" y1="174" x2="412" y2="212"/>
</g>
<g>
	<line class="st0" x1="246" y1="213" x2="246" y2="178"/>
	<line class="st0" x1="253" y1="212" x2="253" y2="178"/>
	<line class="st0" x1="262" y1="191" x2="262" y2="178"/>
	<line class="st0" x1="269" y1="184" x2="269" y2="178"/>
	<line class="st0" x1="277" y1="191" x2="277" y2="178"/>
	<line class="st0" x1="285" y1="212" x2="285" y2="178"/>
	<line class="st0" x1="293" y1="212" x2="293" y2="178"/>
	<polygon class="st0" points="258,212.5 257.7,212.3 257.4,212 281,212 281,191.2 280.9,191.1 280.8,191 258,191 	"/>
	<polyline class="st0" points="283,149 283,135.7 282.9,135.3 282.7,135 256,135 256,149 	"/>
	<rect x="238" y="178" class="st0" width="62" height="34"/>
	<g>
		<path class="st0" d="M300.4,177.6L300.4,177.6c0-17.3-14-31.3-31.3-31.3s-31.3,14-31.3,31.3l0,0L300.4,177.6z"/>
	</g>
	<g>
		<path class="st0" d="M275.9,191L275.9,191c0,0-3-6.8-6.8-6.8c-3.7,0-6.8,2.8-6.8,6.8l0,0H275.9z"/>
	</g>
	<g>
		<path class="st0" d="M272.6,144L272.6,144c0,0-1.5-3.4-3.4-3.4c-1.9,0-3.4,1.4-3.4,3.4l0,0H272.6z"/>
	</g>
	<line class="st0" x1="269" y1="191" x2="269" y2="212"/>
	<rect x="263" y="159" class="st0" width="12" height="11"/>
	<line class="st0" x1="257.4" y1="191.2" x2="280.8" y2="212.5"/>
	<line class="st0" x1="280.8" y1="191.2" x2="257.4" y2="212.5"/>
	<polygon class="st0" points="255.6,135 269.1,124.4 282.7,135 	"/>
</g>
<g>
	<rect x="520" y="148" class="st0" width="74" height="43"/>
	<path class="st0" d="M581.9,147.7c0,3.4,2.8,6.2,6.2,6.2h0v0c3.4,0,6.2-2.8,6.2-6.2v0"/>
	<path class="st0" d="M557,147.7c0,3.4,2.8,6.2,6.2,6.2h0v0c3.4,0,6.2-2.8,6.2-6.2v0"/>
	<path class="st0" d="M563,169.2c0-3.4-2.8-6.2-6.2-6.2h0v0c-3.4,0-6.2,2.8-6.2,6.2v0"/>
	<path class="st0" d="M544.6,147.7c0,3.4,2.8,6.2,6.2,6.2h0v0c3.4,0,6.2-2.8,6.2-6.2v0"/>
	<path class="st0" d="M519.7,147.7c0,3.4,2.8,6.2,6.2,6.2h0v0c3.4,0,6.2-2.8,6.2-6.2v0"/>
	<path class="st0" d="M532.1,147.7c0,3.4,2.8,6.2,6.2,6.2h0v0c3.4,0,6.2-2.8,6.2-6.2v0"/>
	<path class="st0" d="M569.5,147.7c0,3.4,2.8,6.2,6.2,6.2h0v0c3.4,0,6.2-2.8,6.2-6.2v0"/>
	<polygon class="st0" points="550.6,169 550.8,169.1 551,169.2 551,191 563,191 563,190.9 563,190.8 563,169 	"/>
	<polygon class="st0" points="532.1,169 532.6,169.1 533,169.2 533,180 544.6,180 544.3,180 544,180 544,169 	"/>
	<polygon class="st0" points="569.5,169 569.7,169.1 570,169.2 570,180 581.9,180 581.9,180 582,180 582,169 	"/>
	<line class="st0" x1="563" y1="180" x2="550.6" y2="180"/>
	<line class="st0" x1="553.7" y1="163.9" x2="556.8" y2="169.2"/>
	<line class="st0" x1="556.8" y1="169.2" x2="559.9" y2="163.9"/>
	<rect x="533" y="167" class="st0" width="11" height="2"/>
	<rect x="570" y="167" class="st0" width="12" height="2"/>
</g>
<g>
	<path class="st0" d="M584.7,97.5c0,1.4,1.2,2.6,2.6,2.6"/>
	<path class="st0" d="M587.2,100c1.4,0,2.6-1.2,2.6-2.6"/>
	<path class="st0" d="M589.8,97.5c0,1.4,1.2,2.6,2.6,2.6"/>
	<path class="st0" d="M592.4,100c1.4,0,2.6-1.2,2.6-2.6"/>
	<path class="st0" d="M595,97.5c0,1.4,1.2,2.6,2.6,2.6"/>
	<path class="st0" d="M597.5,100c1.4,0,2.6-1.2,2.6-2.6"/>
	<path class="st0" d="M600.1,97.5c0,1.4,1.2,2.6,2.6,2.6"/>
	<g>
		<path class="st0" d="M663,111.6c1.4,0,2.6-1.2,2.6-2.6"/>
		<path class="st0" d="M673.3,111.6c1.4,0,2.6-1.2,2.6-2.6"/>
		<path class="st0" d="M665.6,109c0,1.4,1.2,2.6,2.6,2.6"/>
		<path class="st0" d="M675.9,109c0,1.4,1.2,2.6,2.6,2.6"/>
		<path class="st0" d="M670.7,109c0,1.4,1.2,2.6,2.6,2.6"/>
		<path class="st0" d="M668.2,111.6c1.4,0,2.6-1.2,2.6-2.6"/>
	</g>
	<path class="st0" d="M647.6,91c1.4,0,2.6-1.2,2.6-2.6"/>
	<path class="st0" d="M650.2,88.5c0,1.4,1.2,2.6,2.6,2.6"/>
	<path class="st0" d="M652.8,91c1.4,0,2.6-1.2,2.6-2.6"/>
	<path class="st0" d="M655.3,88.5c0,1.4,1.2,2.6,2.6,2.6"/>
	<path class="st0" d="M602.8,111.6c1.4,0,2.6-1.2,2.6-2.6"/>
	<path class="st0" d="M605.3,109c0,1.4,1.2,2.6,2.6,2.6"/>
	<path class="st0" d="M607.9,111.6c1.4,0,2.6-1.2,2.6-2.6"/>
	<path class="st0" d="M610.5,109c0,1.4,1.2,2.6,2.6,2.6"/>
	<path class="st0" d="M609.1,93.6c1.4,0,2.6-1.2,2.6-2.6"/>
	<path class="st0" d="M611.6,91c0,1.4,1.2,2.6,2.6,2.6"/>
	<path class="st0" d="M614.2,93.6c1.4,0,2.6-1.2,2.6-2.6"/>
	<path class="st0" d="M616.8,91c0,1.4,1.2,2.6,2.6,2.6"/>
	<path class="st0" d="M619.4,93.6c1.4,0,2.6-1.2,2.6-2.6"/>
	<path class="st0" d="M621.9,91c0,1.4,1.2,2.6,2.6,2.6"/>
	<g>
		<path class="st0" d="M631.8,106.3c1.5,0,2.7-1.2,2.7-2.7"/>
		<path class="st0" d="M634.5,103.7c0,1.5,1.2,2.7,2.7,2.7"/>
		<path class="st0" d="M637.1,106.3c1.5,0,2.7-1.2,2.7-2.7"/>
		<path class="st0" d="M639.8,103.7c0,1.4,1.2,2.6,2.6,2.6"/>
		<path class="st0" d="M642.4,106.3c1.4,0,2.6-1.2,2.6-2.6"/>
		<path class="st0" d="M644.9,103.7c0,1.4,1.2,2.6,2.6,2.6"/>
	</g>
	<g>
		<path class="st0" d="M656.6,100c1.4,0,2.6-1.2,2.6-2.6"/>
		<path class="st0" d="M659.2,97.5c0,1.4,1.2,2.6,2.6,2.6"/>
		<path class="st0" d="M661.7,100c1.4,0,2.6-1.2,2.6-2.6"/>
		<path class="st0" d="M664.3,97.5c0,1.4,1.2,2.6,2.6,2.6"/>
		<path class="st0" d="M666.9,100c1.4,0,2.6-1.2,2.6-2.6"/>
		<path class="st0" d="M669.5,97.5c0,1.4,1.2,2.6,2.6,2.6"/>
	</g>
	<path class="st0" d="M624.5,93.6c1.4,0,2.6-1.2,2.6-2.6"/>
	<path class="st0" d="M627.1,91c0,1.4,1.2,2.6,2.6,2.6"/>
	<path class="st0" d="M629.6,93.6c1.4,0,2.6-1.2,2.6-2.6"/>
	<path class="st0" d="M632.2,91c0,1.4,1.2,2.6,2.6,2.6"/>
	<g>
		<circle class="st0" cx="622.8" cy="115.2" r="4.7"/>
		<line class="st0" x1="623" y1="127" x2="623" y2="118"/>
		<line class="st0" x1="621.5" y1="116" x2="622.9" y2="118.3"/>
		<line class="st0" x1="625" y1="114.9" x2="622.8" y2="118.6"/>
	</g>
	<g>
		<line class="st0" x1="664" y1="83" x2="664" y2="64"/>
		<path class="st0" d="M660.3,67.8c2,0,3.7-1.6,3.7-3.7"/>
		<path class="st0" d="M660.3,70.8c2,0,3.7-1.6,3.7-3.7"/>
		<path class="st0" d="M660.3,73.9c2,0,3.7-1.6,3.7-3.7"/>
		<path class="st0" d="M660.3,77c2,0,3.7-1.6,3.7-3.7"/>
		<path class="st0" d="M667.6,67.8c-2,0-3.7-1.6-3.7-3.7"/>
		<path class="st0" d="M667.6,70.8c-2,0-3.7-1.6-3.7-3.7"/>
		<path class="st0" d="M667.6,73.9c-2,0-3.7-1.6-3.7-3.7"/>
		<path class="st0" d="M667.6,77c-2,0-3.7-1.6-3.7-3.7"/>
	</g>
	<g>
		<line class="st0" x1="593" y1="83" x2="593" y2="64"/>
		<path class="st0" d="M589,67.8c2,0,3.7-1.6,3.7-3.7"/>
		<path class="st0" d="M589,70.9c2,0,3.7-1.6,3.7-3.7"/>
		<path class="st0" d="M589,74c2,0,3.7-1.6,3.7-3.7"/>
		<path class="st0" d="M589,77c2,0,3.7-1.6,3.7-3.7"/>
		<path class="st0" d="M596.4,67.8c-2,0-3.7-1.6-3.7-3.7"/>
		<path class="st0" d="M596.4,70.9c-2,0-3.7-1.6-3.7-3.7"/>
		<path class="st0" d="M596.4,74c-2,0-3.7-1.6-3.7-3.7"/>
		<path class="st0" d="M596.4,77c-2,0-3.7-1.6-3.7-3.7"/>
	</g>
	<path class="st0" d="M619,119h-25.6c-10.1,0-18.4-8.8-18.4-18.9V100c0-10.1,8.4-18,18.4-18h70.9c10.1,0,17.7,7.9,17.7,18v0.1
		c0,10.1-7.7,18.9-17.7,18.9H626"/>
	<g>
		<line class="st0" x1="630" y1="83" x2="630" y2="76"/>
		<circle class="st0" cx="629.5" cy="73.7" r="2.4"/>
		<line class="st0" x1="630" y1="72" x2="630" y2="68"/>
		<line class="st0" x1="627" y1="74" x2="625" y2="74"/>
		<line class="st0" x1="635" y1="74" x2="632" y2="74"/>
		<line class="st0" x1="627.9" y1="72" x2="626.1" y2="70.2"/>
		<line class="st0" x1="633" y1="77.1" x2="631.2" y2="75.3"/>
		<line class="st0" x1="627.9" y1="75.3" x2="626.1" y2="77.1"/>
		<line class="st0" x1="633" y1="70.2" x2="631.2" y2="72"/>
	</g>
</g>
<g>
	<path class="st0" d="M10.7,97.5c0,1.4,1.2,2.6,2.6,2.6"/>
	<path class="st0" d="M13.2,100c1.4,0,2.6-1.2,2.6-2.6"/>
	<path class="st0" d="M15.8,97.5c0,1.4,1.2,2.6,2.6,2.6"/>
	<path class="st0" d="M18.4,100c1.4,0,2.6-1.2,2.6-2.6"/>
	<path class="st0" d="M21,97.5c0,1.4,1.2,2.6,2.6,2.6"/>
	<path class="st0" d="M23.5,100c1.4,0,2.6-1.2,2.6-2.6"/>
	<path class="st0" d="M26.1,97.5c0,1.4,1.2,2.6,2.6,2.6"/>
	<g>
		<path class="st0" d="M89,111.6c1.4,0,2.6-1.2,2.6-2.6"/>
		<path class="st0" d="M99.3,111.6c1.4,0,2.6-1.2,2.6-2.6"/>
		<path class="st0" d="M91.6,109c0,1.4,1.2,2.6,2.6,2.6"/>
		<path class="st0" d="M101.9,109c0,1.4,1.2,2.6,2.6,2.6"/>
		<path class="st0" d="M96.7,109c0,1.4,1.2,2.6,2.6,2.6"/>
		<path class="st0" d="M94.2,111.6c1.4,0,2.6-1.2,2.6-2.6"/>
	</g>
	<path class="st0" d="M73.6,91c1.4,0,2.6-1.2,2.6-2.6"/>
	<path class="st0" d="M76.2,88.5c0,1.4,1.2,2.6,2.6,2.6"/>
	<path class="st0" d="M78.8,91c1.4,0,2.6-1.2,2.6-2.6"/>
	<path class="st0" d="M81.3,88.5c0,1.4,1.2,2.6,2.6,2.6"/>
	<path class="st0" d="M28.8,111.6c1.4,0,2.6-1.2,2.6-2.6"/>
	<path class="st0" d="M31.3,109c0,1.4,1.2,2.6,2.6,2.6"/>
	<path class="st0" d="M33.9,111.6c1.4,0,2.6-1.2,2.6-2.6"/>
	<path class="st0" d="M36.5,109c0,1.4,1.2,2.6,2.6,2.6"/>
	<path class="st0" d="M35.1,93.6c1.4,0,2.6-1.2,2.6-2.6"/>
	<path class="st0" d="M37.6,91c0,1.4,1.2,2.6,2.6,2.6"/>
	<path class="st0" d="M40.2,93.6c1.4,0,2.6-1.2,2.6-2.6"/>
	<path class="st0" d="M42.8,91c0,1.4,1.2,2.6,2.6,2.6"/>
	<path class="st0" d="M45.4,93.6c1.4,0,2.6-1.2,2.6-2.6"/>
	<path class="st0" d="M47.9,91c0,1.4,1.2,2.6,2.6,2.6"/>
	<g>
		<path class="st0" d="M57.8,106.3c1.5,0,2.7-1.2,2.7-2.7"/>
		<path class="st0" d="M60.5,103.7c0,1.5,1.2,2.7,2.7,2.7"/>
		<path class="st0" d="M63.1,106.3c1.5,0,2.7-1.2,2.7-2.7"/>
		<path class="st0" d="M65.8,103.7c0,1.4,1.2,2.6,2.6,2.6"/>
		<path class="st0" d="M68.4,106.3c1.4,0,2.6-1.2,2.6-2.6"/>
		<path class="st0" d="M70.9,103.7c0,1.4,1.2,2.6,2.6,2.6"/>
	</g>
	<g>
		<path class="st0" d="M82.6,100c1.4,0,2.6-1.2,2.6-2.6"/>
		<path class="st0" d="M85.2,97.5c0,1.4,1.2,2.6,2.6,2.6"/>
		<path class="st0" d="M87.7,100c1.4,0,2.6-1.2,2.6-2.6"/>
		<path class="st0" d="M90.3,97.5c0,1.4,1.2,2.6,2.6,2.6"/>
		<path class="st0" d="M92.9,100c1.4,0,2.6-1.2,2.6-2.6"/>
		<path class="st0" d="M95.5,97.5c0,1.4,1.2,2.6,2.6,2.6"/>
	</g>
	<path class="st0" d="M50.5,93.6c1.4,0,2.6-1.2,2.6-2.6"/>
	<path class="st0" d="M53.1,91c0,1.4,1.2,2.6,2.6,2.6"/>
	<path class="st0" d="M55.6,93.6c1.4,0,2.6-1.2,2.6-2.6"/>
	<path class="st0" d="M58.2,91c0,1.4,1.2,2.6,2.6,2.6"/>
	<g>
		<circle class="st0" cx="48.8" cy="115.2" r="4.7"/>
		<line class="st0" x1="49" y1="127" x2="49" y2="118"/>
		<line class="st0" x1="47.5" y1="116" x2="48.9" y2="118.3"/>
		<line class="st0" x1="51" y1="114.9" x2="48.8" y2="118.6"/>
	</g>
	<g>
		<line class="st0" x1="90" y1="83" x2="90" y2="64"/>
		<path class="st0" d="M86.3,67.8c2,0,3.7-1.6,3.7-3.7"/>
		<path class="st0" d="M86.3,70.8c2,0,3.7-1.6,3.7-3.7"/>
		<path class="st0" d="M86.3,73.9c2,0,3.7-1.6,3.7-3.7"/>
		<path class="st0" d="M86.3,77c2,0,3.7-1.6,3.7-3.7"/>
		<path class="st0" d="M93.6,67.8c-2,0-3.7-1.6-3.7-3.7"/>
		<path class="st0" d="M93.6,70.8c-2,0-3.7-1.6-3.7-3.7"/>
		<path class="st0" d="M93.6,73.9c-2,0-3.7-1.6-3.7-3.7"/>
		<path class="st0" d="M93.6,77c-2,0-3.7-1.6-3.7-3.7"/>
	</g>
	<g>
		<line class="st0" x1="19" y1="83" x2="19" y2="64"/>
		<path class="st0" d="M15,67.8c2,0,3.7-1.6,3.7-3.7"/>
		<path class="st0" d="M15,70.9c2,0,3.7-1.6,3.7-3.7"/>
		<path class="st0" d="M15,74c2,0,3.7-1.6,3.7-3.7"/>
		<path class="st0" d="M15,77c2,0,3.7-1.6,3.7-3.7"/>
		<path class="st0" d="M22.4,67.8c-2,0-3.7-1.6-3.7-3.7"/>
		<path class="st0" d="M22.4,70.9c-2,0-3.7-1.6-3.7-3.7"/>
		<path class="st0" d="M22.4,74c-2,0-3.7-1.6-3.7-3.7"/>
		<path class="st0" d="M22.4,77c-2,0-3.7-1.6-3.7-3.7"/>
	</g>
	<path class="st0" d="M45,119H19.4C9.4,119,1,110.2,1,100.1V100C1,90,9.4,82,19.4,82h70.9c10.1,0,17.7,7.9,17.7,18v0.1
		c0,10.1-7.7,18.9-17.7,18.9H52"/>
	<g>
		<line class="st0" x1="56" y1="83" x2="56" y2="76"/>
		<circle class="st0" cx="55.5" cy="73.7" r="2.4"/>
		<line class="st0" x1="56" y1="72" x2="56" y2="68"/>
		<line class="st0" x1="53" y1="74" x2="51" y2="74"/>
		<line class="st0" x1="61" y1="74" x2="58" y2="74"/>
		<line class="st0" x1="53.9" y1="72" x2="52.1" y2="70.2"/>
		<line class="st0" x1="59" y1="77.1" x2="57.2" y2="75.3"/>
		<line class="st0" x1="53.9" y1="75.3" x2="52.1" y2="77.1"/>
		<line class="st0" x1="59" y1="70.2" x2="57.2" y2="72"/>
	</g>
</g>
<g>
	<path class="st0" d="M683.1,174c1.3,0,2.5,0.3,3.6,0.7c0-0.2,0-0.4,0-0.7c0-9.6,7.7-17.3,17.3-17.3s17.3,7.7,17.3,17.2
		c5.5,0,10,5,10,10h-13.3h-6.8h-18.1h-3.2H673C673,179,677.5,174,683.1,174z"/>
	<path class="st0" d="M721.3,174.1c0,3.9-3.2,7-7,7"/>
	<path class="st0" d="M686.9,174.8c0-4.8,3.9-8.7,8.7-8.7c4.8,0,8.7,3.9,8.7,8.7"/>
</g>
<g>
	<g>
		<path class="st0" d="M308.4,109.4c0.7-3,3-5.3,5.8-6.2"/>
		<path class="st0" d="M308.4,109.4c-0.7-3-3-5.3-5.8-6.2"/>
		<circle class="st0" cx="308.5" cy="98" r="4.6"/>
	</g>
	<g>
		<path class="st0" d="M352.4,109.4c0.7-3,3-5.3,5.8-6.2"/>
		<path class="st0" d="M352.3,109.4c-0.7-3-3-5.3-5.8-6.2"/>
		<circle class="st0" cx="352.4" cy="98" r="4.6"/>
	</g>
	<g>
		<path class="st0" d="M330.4,101.4c0.7-3,3-5.3,5.8-6.2"/>
		<path class="st0" d="M330.4,101.4c-0.7-3-3-5.3-5.8-6.2"/>
		<circle class="st0" cx="330.5" cy="90" r="4.6"/>
	</g>
	<g>
		<path class="st0" d="M374.3,101.4c0.7-3,3-5.3,5.8-6.2"/>
		<path class="st0" d="M374.3,101.4c-0.7-3-3-5.3-5.8-6.2"/>
		<circle class="st0" cx="374.4" cy="90" r="4.6"/>
	</g>
</g>
<g>
	<polyline class="st2" points="469.4,88.1 490.2,124.2 513.2,84.4 	"/>
	<line class="st2" x1="456" y1="105.6" x2="466.1" y2="88.1"/>
	<circle class="st2" cx="452.8" cy="111.2" r="6.5"/>
	<circle class="st2" cx="516.5" cy="78.9" r="6.5"/>
	<circle class="st2" cx="467.8" cy="85.3" r="3.2"/>
</g>
<g>
	<g>
		<path class="st3" d="M215.9,116.7c-0.3,0-0.5-0.1-0.7-0.3l-5.1-5.1c-0.4-0.4-0.4-1,0-1.4c0.4-0.4,1-0.4,1.4,0l5.1,5.1
			c0.4,0.4,0.4,1,0,1.4C216.4,116.6,216.2,116.7,215.9,116.7z"/>
	</g>
	<g>
		<path class="st3" d="M185.6,86.4c-0.3,0-0.5-0.1-0.7-0.3l-5.1-5.1c-0.4-0.4-0.4-1,0-1.4c0.4-0.4,1-0.4,1.4,0l5.1,5.1
			c0.4,0.4,0.4,1,0,1.4C186.1,86.3,185.8,86.4,185.6,86.4z"/>
	</g>
	<g>
		<path class="st3" d="M210.8,86.4c-0.3,0-0.5-0.1-0.7-0.3c-0.4-0.4-0.4-1,0-1.4l5.1-5.1c0.4-0.4,1-0.4,1.4,0c0.4,0.4,0.4,1,0,1.4
			l-5.1,5.1C211.3,86.3,211,86.4,210.8,86.4z"/>
	</g>
	<g>
		<path class="st3" d="M180.5,116.7c-0.3,0-0.5-0.1-0.7-0.3c-0.4-0.4-0.4-1,0-1.4l5.1-5.1c0.4-0.4,1-0.4,1.4,0c0.4,0.4,0.4,1,0,1.4
			l-5.1,5.1C181,116.6,180.7,116.7,180.5,116.7z"/>
	</g>
	<g>
		<path class="st3" d="M223.3,99H216c-0.5,0-1-0.5-1-1s0.4-1,1-1h7.3c0.5,0,1,0.5,1,1S223.8,99,223.3,99z"/>
	</g>
	<g>
		<path class="st3" d="M180.4,99h-7.3c-0.5,0-1-0.5-1-1s0.4-1,1-1h7.3c0.5,0,1,0.5,1,1S180.9,99,180.4,99z"/>
	</g>
	<g>
		<path class="st3" d="M198,81.2c-0.5,0-1-0.4-1-1v-7.3c0-0.5,0.5-1,1-1s1,0.4,1,1v7.3C199,80.8,198.5,81.2,198,81.2z"/>
	</g>
	<g>
		<path class="st3" d="M198,124.1c-0.5,0-1-0.4-1-1v-7.3c0-0.5,0.5-1,1-1s1,0.4,1,1v7.3C199,123.6,198.5,124.1,198,124.1z"/>
	</g>
	<g>
		<path class="st3" d="M214.6,92.1c-0.4,0-0.8-0.2-0.9-0.6c-0.2-0.5,0-1.1,0.5-1.3l6.7-2.8c0.5-0.2,1.1,0,1.3,0.5
			c0.2,0.5,0,1.1-0.5,1.3l-6.7,2.8C214.9,92.1,214.7,92.1,214.6,92.1z"/>
	</g>
	<g>
		<path class="st3" d="M175,108.7c-0.4,0-0.8-0.2-0.9-0.6c-0.2-0.5,0-1.1,0.5-1.3l6.7-2.8c0.5-0.2,1.1,0,1.3,0.5
			c0.2,0.5,0,1.1-0.5,1.3l-6.7,2.8C175.3,108.6,175.2,108.7,175,108.7z"/>
	</g>
	<g>
		<path class="st3" d="M191.3,82.6c-0.4,0-0.8-0.2-0.9-0.6l-2.8-6.7c-0.2-0.5,0-1.1,0.5-1.3c0.5-0.2,1.1,0,1.3,0.5l2.8,6.7
			c0.2,0.5,0,1.1-0.5,1.3C191.6,82.5,191.5,82.6,191.3,82.6z"/>
	</g>
	<g>
		<path class="st3" d="M207.8,122.1c-0.4,0-0.8-0.2-0.9-0.6l-2.8-6.7c-0.2-0.5,0-1.1,0.5-1.3c0.5-0.2,1.1,0,1.3,0.5l2.8,6.7
			c0.2,0.5,0,1.1-0.5,1.3C208.1,122.1,208,122.1,207.8,122.1z"/>
	</g>
	<g>
		<path class="st3" d="M205,82.5c-0.1,0-0.3,0-0.4-0.1c-0.5-0.2-0.7-0.8-0.5-1.3l2.8-6.7c0.2-0.5,0.8-0.7,1.3-0.5
			c0.5,0.2,0.7,0.8,0.5,1.3l-2.8,6.7C205.7,82.3,205.3,82.5,205,82.5z"/>
	</g>
	<g>
		<path class="st3" d="M188.7,122.2c-0.1,0-0.3,0-0.4-0.1c-0.5-0.2-0.7-0.8-0.5-1.3l2.8-6.7c0.2-0.5,0.8-0.7,1.3-0.5
			c0.5,0.2,0.7,0.8,0.5,1.3l-2.8,6.7C189.4,122,189,122.2,188.7,122.2z"/>
	</g>
	<g>
		<path class="st3" d="M181.7,92.2c-0.1,0-0.3,0-0.4-0.1l-6.7-2.8c-0.5-0.2-0.7-0.8-0.5-1.3c0.2-0.5,0.8-0.7,1.3-0.5l6.7,2.8
			c0.5,0.2,0.7,0.8,0.5,1.3C182.5,92,182.1,92.2,181.7,92.2z"/>
	</g>
	<g>
		<path class="st3" d="M221.4,108.5c-0.1,0-0.3,0-0.4-0.1l-6.7-2.8c-0.5-0.2-0.7-0.8-0.5-1.3c0.2-0.5,0.8-0.7,1.3-0.5l6.7,2.8
			c0.5,0.2,0.7,0.8,0.5,1.3C222.1,108.3,221.8,108.5,221.4,108.5z"/>
	</g>
	<g>
		<path class="st3" d="M198.2,116.8c-10.4,0-18.8-8.4-18.8-18.8s8.4-18.8,18.8-18.8c10.4,0,18.8,8.4,18.8,18.8
			S208.5,116.8,198.2,116.8z M198.2,81.2c-9.3,0-16.8,7.5-16.8,16.8s7.5,16.8,16.8,16.8c9.3,0,16.8-7.5,16.8-16.8
			S207.5,81.2,198.2,81.2z"/>
	</g>
</g>
<g>
	<line class="st0" x1="987" y1="128" x2="987" y2="139"/>
	<line class="st0" x1="981" y1="162" x2="981" y2="212"/>
	<line class="st0" x1="993" y1="162" x2="993" y2="212"/>
	<line class="st0" x1="988.1" y1="173.9" x2="993.6" y2="183.4"/>
	<line class="st0" x1="986.5" y1="173.9" x2="980.9" y2="183.5"/>
	<line class="st0" x1="988.4" y1="183.5" x2="1005.1" y2="212.4"/>
	<line class="st0" x1="986.2" y1="183.5" x2="969.9" y2="211.8"/>
	<line class="st0" x1="988.1" y1="202.6" x2="993.6" y2="212.1"/>
	<line class="st0" x1="986.5" y1="202.6" x2="980.9" y2="212.1"/>
	<line class="st0" x1="988.1" y1="202.5" x2="993.6" y2="193"/>
	<line class="st0" x1="986.5" y1="202.5" x2="980.9" y2="193"/>
	<line class="st0" x1="981" y1="183" x2="987" y2="183"/>
	<line class="st0" x1="987" y1="183" x2="993" y2="183"/>
	<line class="st0" x1="975" y1="203" x2="987" y2="203"/>
	<line class="st0" x1="987" y1="203" x2="999" y2="203"/>
	<path class="st0" d="M987.3,173.9c6.6,0,11.9-4.9,11.9-11.9h-23.8C975.3,169,980.7,173.9,987.3,173.9z"/>
	<path class="st0" d="M987.3,138.1c-6.6,0-11.9,5.9-11.9,11.9h23.8C999.2,144,993.8,138.1,987.3,138.1z"/>
	<rect x="975" y="150" class="st0" width="25" height="12"/>
	<line class="st0" x1="975" y1="159" x2="1000" y2="159"/>
	<line class="st0" x1="978" y1="159" x2="978" y2="162"/>
	<line class="st0" x1="982" y1="159" x2="982" y2="162"/>
	<line class="st0" x1="984" y1="159" x2="984" y2="162"/>
	<line class="st0" x1="987" y1="159" x2="987" y2="162"/>
	<line class="st0" x1="990" y1="159" x2="990" y2="162"/>
	<line class="st0" x1="997" y1="159" x2="997" y2="162"/>
	<line class="st0" x1="993" y1="159" x2="993" y2="162"/>
	<line class="st0" x1="987" y1="174" x2="987" y2="212"/>
</g>
<g>
	<line class="st0" x1="821" y1="213" x2="821" y2="178"/>
	<line class="st0" x1="828" y1="212" x2="828" y2="178"/>
	<line class="st0" x1="837" y1="191" x2="837" y2="178"/>
	<line class="st0" x1="844" y1="184" x2="844" y2="178"/>
	<line class="st0" x1="852" y1="191" x2="852" y2="178"/>
	<line class="st0" x1="860" y1="212" x2="860" y2="178"/>
	<line class="st0" x1="868" y1="212" x2="868" y2="178"/>
	<polygon class="st0" points="833,212.5 832.7,212.3 832.4,212 856,212 856,191.2 855.9,191.1 855.8,191 833,191 	"/>
	<polyline class="st0" points="858,149 858,135.7 857.9,135.3 857.7,135 831,135 831,149 	"/>
	<rect x="813" y="178" class="st0" width="62" height="34"/>
	<g>
		<path class="st0" d="M875.4,177.6L875.4,177.6c0-17.3-14-31.3-31.3-31.3c-17.3,0-31.3,14-31.3,31.3l0,0L875.4,177.6z"/>
	</g>
	<g>
		<path class="st0" d="M850.9,191L850.9,191c0,0-3-6.8-6.8-6.8c-3.7,0-6.8,2.8-6.8,6.8l0,0H850.9z"/>
	</g>
	<g>
		<path class="st0" d="M847.6,144L847.6,144c0,0-1.5-3.4-3.4-3.4c-1.9,0-3.4,1.4-3.4,3.4l0,0H847.6z"/>
	</g>
	<line class="st0" x1="844" y1="191" x2="844" y2="212"/>
	<rect x="838" y="159" class="st0" width="12" height="11"/>
	<line class="st0" x1="832.4" y1="191.2" x2="855.8" y2="212.5"/>
	<line class="st0" x1="855.8" y1="191.2" x2="832.4" y2="212.5"/>
	<polygon class="st0" points="830.6,135 844.1,124.4 857.7,135 	"/>
</g>
<g>
	<rect x="1095" y="148" class="st0" width="74" height="43"/>
	<path class="st0" d="M1156.9,147.7c0,3.4,2.8,6.2,6.2,6.2h0v0c3.4,0,6.2-2.8,6.2-6.2v0"/>
	<path class="st0" d="M1132,147.7c0,3.4,2.8,6.2,6.2,6.2h0v0c3.4,0,6.2-2.8,6.2-6.2v0"/>
	<path class="st0" d="M1138,169.2c0-3.4-2.8-6.2-6.2-6.2h0v0c-3.4,0-6.2,2.8-6.2,6.2v0"/>
	<path class="st0" d="M1119.6,147.7c0,3.4,2.8,6.2,6.2,6.2h0v0c3.4,0,6.2-2.8,6.2-6.2v0"/>
	<path class="st0" d="M1094.7,147.7c0,3.4,2.8,6.2,6.2,6.2h0v0c3.4,0,6.2-2.8,6.2-6.2v0"/>
	<path class="st0" d="M1107.1,147.7c0,3.4,2.8,6.2,6.2,6.2h0v0c3.4,0,6.2-2.8,6.2-6.2v0"/>
	<path class="st0" d="M1144.5,147.7c0,3.4,2.8,6.2,6.2,6.2h0v0c3.4,0,6.2-2.8,6.2-6.2v0"/>
	<polygon class="st0" points="1125.6,169 1125.8,169.1 1126,169.2 1126,191 1138,191 1138,190.9 1138,190.8 1138,169 	"/>
	<polygon class="st0" points="1107.1,169 1107.6,169.1 1108,169.2 1108,180 1119.6,180 1119.3,180 1119,180 1119,169 	"/>
	<polygon class="st0" points="1144.5,169 1144.7,169.1 1145,169.2 1145,180 1156.9,180 1156.9,180 1157,180 1157,169 	"/>
	<line class="st0" x1="1138" y1="180" x2="1125.6" y2="180"/>
	<line class="st0" x1="1128.7" y1="163.9" x2="1131.8" y2="169.2"/>
	<line class="st0" x1="1131.8" y1="169.2" x2="1134.9" y2="163.9"/>
	<rect x="1108" y="167" class="st0" width="11" height="2"/>
	<rect x="1145" y="167" class="st0" width="12" height="2"/>
</g>
<g>
	<path class="st0" d="M1159.7,97.5c0,1.4,1.2,2.6,2.6,2.6"/>
	<path class="st0" d="M1162.2,100c1.4,0,2.6-1.2,2.6-2.6"/>
	<path class="st0" d="M1164.8,97.5c0,1.4,1.2,2.6,2.6,2.6"/>
	<path class="st0" d="M1167.4,100c1.4,0,2.6-1.2,2.6-2.6"/>
	<path class="st0" d="M1170,97.5c0,1.4,1.2,2.6,2.6,2.6"/>
	<path class="st0" d="M1172.5,100c1.4,0,2.6-1.2,2.6-2.6"/>
	<path class="st0" d="M1175.1,97.5c0,1.4,1.2,2.6,2.6,2.6"/>
	<g>
		<path class="st0" d="M1238,111.6c1.4,0,2.6-1.2,2.6-2.6"/>
		<path class="st0" d="M1248.3,111.6c1.4,0,2.6-1.2,2.6-2.6"/>
		<path class="st0" d="M1240.6,109c0,1.4,1.2,2.6,2.6,2.6"/>
		<path class="st0" d="M1250.9,109c0,1.4,1.2,2.6,2.6,2.6"/>
		<path class="st0" d="M1245.7,109c0,1.4,1.2,2.6,2.6,2.6"/>
		<path class="st0" d="M1243.2,111.6c1.4,0,2.6-1.2,2.6-2.6"/>
	</g>
	<path class="st0" d="M1222.6,91c1.4,0,2.6-1.2,2.6-2.6"/>
	<path class="st0" d="M1225.2,88.5c0,1.4,1.2,2.6,2.6,2.6"/>
	<path class="st0" d="M1227.8,91c1.4,0,2.6-1.2,2.6-2.6"/>
	<path class="st0" d="M1230.3,88.5c0,1.4,1.2,2.6,2.6,2.6"/>
	<path class="st0" d="M1177.8,111.6c1.4,0,2.6-1.2,2.6-2.6"/>
	<path class="st0" d="M1180.3,109c0,1.4,1.2,2.6,2.6,2.6"/>
	<path class="st0" d="M1182.9,111.6c1.4,0,2.6-1.2,2.6-2.6"/>
	<path class="st0" d="M1185.5,109c0,1.4,1.2,2.6,2.6,2.6"/>
	<path class="st0" d="M1184.1,93.6c1.4,0,2.6-1.2,2.6-2.6"/>
	<path class="st0" d="M1186.6,91c0,1.4,1.2,2.6,2.6,2.6"/>
	<path class="st0" d="M1189.2,93.6c1.4,0,2.6-1.2,2.6-2.6"/>
	<path class="st0" d="M1191.8,91c0,1.4,1.2,2.6,2.6,2.6"/>
	<path class="st0" d="M1194.4,93.6c1.4,0,2.6-1.2,2.6-2.6"/>
	<path class="st0" d="M1196.9,91c0,1.4,1.2,2.6,2.6,2.6"/>
	<g>
		<path class="st0" d="M1206.8,106.3c1.5,0,2.7-1.2,2.7-2.7"/>
		<path class="st0" d="M1209.5,103.7c0,1.5,1.2,2.7,2.7,2.7"/>
		<path class="st0" d="M1212.1,106.3c1.5,0,2.7-1.2,2.7-2.7"/>
		<path class="st0" d="M1214.8,103.7c0,1.4,1.2,2.6,2.6,2.6"/>
		<path class="st0" d="M1217.4,106.3c1.4,0,2.6-1.2,2.6-2.6"/>
		<path class="st0" d="M1219.9,103.7c0,1.4,1.2,2.6,2.6,2.6"/>
	</g>
	<g>
		<path class="st0" d="M1231.6,100c1.4,0,2.6-1.2,2.6-2.6"/>
		<path class="st0" d="M1234.2,97.5c0,1.4,1.2,2.6,2.6,2.6"/>
		<path class="st0" d="M1236.7,100c1.4,0,2.6-1.2,2.6-2.6"/>
		<path class="st0" d="M1239.3,97.5c0,1.4,1.2,2.6,2.6,2.6"/>
		<path class="st0" d="M1241.9,100c1.4,0,2.6-1.2,2.6-2.6"/>
		<path class="st0" d="M1244.5,97.5c0,1.4,1.2,2.6,2.6,2.6"/>
	</g>
	<path class="st0" d="M1199.5,93.6c1.4,0,2.6-1.2,2.6-2.6"/>
	<path class="st0" d="M1202.1,91c0,1.4,1.2,2.6,2.6,2.6"/>
	<path class="st0" d="M1204.6,93.6c1.4,0,2.6-1.2,2.6-2.6"/>
	<path class="st0" d="M1207.2,91c0,1.4,1.2,2.6,2.6,2.6"/>
	<g>
		<circle class="st0" cx="1197.8" cy="115.2" r="4.7"/>
		<line class="st0" x1="1198" y1="127" x2="1198" y2="118"/>
		<line class="st0" x1="1196.5" y1="116" x2="1197.9" y2="118.3"/>
		<line class="st0" x1="1200" y1="114.9" x2="1197.8" y2="118.6"/>
	</g>
	<g>
		<line class="st0" x1="1239" y1="83" x2="1239" y2="64"/>
		<path class="st0" d="M1235.3,67.8c2,0,3.7-1.6,3.7-3.7"/>
		<path class="st0" d="M1235.3,70.8c2,0,3.7-1.6,3.7-3.7"/>
		<path class="st0" d="M1235.3,73.9c2,0,3.7-1.6,3.7-3.7"/>
		<path class="st0" d="M1235.3,77c2,0,3.7-1.6,3.7-3.7"/>
		<path class="st0" d="M1242.6,67.8c-2,0-3.7-1.6-3.7-3.7"/>
		<path class="st0" d="M1242.6,70.8c-2,0-3.7-1.6-3.7-3.7"/>
		<path class="st0" d="M1242.6,73.9c-2,0-3.7-1.6-3.7-3.7"/>
		<path class="st0" d="M1242.6,77c-2,0-3.7-1.6-3.7-3.7"/>
	</g>
	<g>
		<line class="st0" x1="1168" y1="83" x2="1168" y2="64"/>
		<path class="st0" d="M1164,67.8c2,0,3.7-1.6,3.7-3.7"/>
		<path class="st0" d="M1164,70.9c2,0,3.7-1.6,3.7-3.7"/>
		<path class="st0" d="M1164,74c2,0,3.7-1.6,3.7-3.7"/>
		<path class="st0" d="M1164,77c2,0,3.7-1.6,3.7-3.7"/>
		<path class="st0" d="M1171.4,67.8c-2,0-3.7-1.6-3.7-3.7"/>
		<path class="st0" d="M1171.4,70.9c-2,0-3.7-1.6-3.7-3.7"/>
		<path class="st0" d="M1171.4,74c-2,0-3.7-1.6-3.7-3.7"/>
		<path class="st0" d="M1171.4,77c-2,0-3.7-1.6-3.7-3.7"/>
	</g>
	<path class="st0" d="M1194,119h-25.6c-10.1,0-18.4-8.8-18.4-18.9V100c0-10.1,8.4-18,18.4-18h70.9c10.1,0,17.7,7.9,17.7,18v0.1
		c0,10.1-7.7,18.9-17.7,18.9H1201"/>
	<g>
		<line class="st0" x1="1205" y1="83" x2="1205" y2="76"/>
		<circle class="st0" cx="1204.5" cy="73.7" r="2.4"/>
		<line class="st0" x1="1205" y1="72" x2="1205" y2="68"/>
		<line class="st0" x1="1202" y1="74" x2="1200" y2="74"/>
		<line class="st0" x1="1210" y1="74" x2="1207" y2="74"/>
		<line class="st0" x1="1202.9" y1="72" x2="1201.1" y2="70.2"/>
		<line class="st0" x1="1208" y1="77.1" x2="1206.2" y2="75.3"/>
		<line class="st0" x1="1202.9" y1="75.3" x2="1201.1" y2="77.1"/>
		<line class="st0" x1="1208" y1="70.2" x2="1206.2" y2="72"/>
	</g>
</g>
<g>
	<path class="st0" d="M1258.1,174c1.3,0,2.5,0.3,3.6,0.7c0-0.2,0-0.4,0-0.7c0-9.6,7.7-17.3,17.3-17.3c9.6,0,17.3,7.7,17.3,17.2
		c5.5,0,10,5,10,10h-13.3h-6.8h-18.1h-3.2H1248C1248,179,1252.5,174,1258.1,174z"/>
	<path class="st0" d="M1296.3,174.1c0,3.9-3.2,7-7,7"/>
	<path class="st0" d="M1261.9,174.8c0-4.8,3.9-8.7,8.7-8.7c4.8,0,8.7,3.9,8.7,8.7"/>
</g>
<g>
	<path class="st0" d="M107.1,174c1.3,0,2.5,0.3,3.6,0.7c0-0.2,0-0.4,0-0.7c0-9.6,7.7-17.3,17.3-17.3s17.3,7.7,17.3,17.2
		c5.5,0,10,5,10,10h-13.3h-6.8h-18.1h-3.2H97C97,179,101.5,174,107.1,174z"/>
	<path class="st0" d="M145.3,174.1c0,3.9-3.2,7-7,7"/>
	<path class="st0" d="M110.9,174.8c0-4.8,3.9-8.7,8.7-8.7s8.7,3.9,8.7,8.7"/>
</g>
<g>
	<g>
		<path class="st0" d="M883.4,109.4c0.7-3,3-5.3,5.8-6.2"/>
		<path class="st0" d="M883.4,109.4c-0.7-3-3-5.3-5.8-6.2"/>
		<circle class="st0" cx="883.5" cy="98" r="4.6"/>
	</g>
	<g>
		<path class="st0" d="M927.4,109.4c0.7-3,3-5.3,5.8-6.2"/>
		<path class="st0" d="M927.3,109.4c-0.7-3-3-5.3-5.8-6.2"/>
		<circle class="st0" cx="927.4" cy="98" r="4.6"/>
	</g>
	<g>
		<path class="st0" d="M905.4,101.4c0.7-3,3-5.3,5.8-6.2"/>
		<path class="st0" d="M905.4,101.4c-0.7-3-3-5.3-5.8-6.2"/>
		<circle class="st0" cx="905.5" cy="90" r="4.6"/>
	</g>
	<g>
		<path class="st0" d="M949.3,101.4c0.7-3,3-5.3,5.8-6.2"/>
		<path class="st0" d="M949.3,101.4c-0.7-3-3-5.3-5.8-6.2"/>
		<circle class="st0" cx="949.4" cy="90" r="4.6"/>
	</g>
</g>
<g>
	<polyline class="st2" points="1044.4,88.1 1065.2,124.2 1088.2,84.4 	"/>
	<line class="st2" x1="1031" y1="105.6" x2="1041.1" y2="88.1"/>
	<circle class="st2" cx="1027.8" cy="111.2" r="6.5"/>
	<circle class="st2" cx="1091.5" cy="78.9" r="6.5"/>
	<circle class="st2" cx="1042.8" cy="85.3" r="3.2"/>
</g>
<g>
	<g>
		<path class="st3" d="M790.9,116.7c-0.3,0-0.5-0.1-0.7-0.3l-5.1-5.1c-0.4-0.4-0.4-1,0-1.4c0.4-0.4,1-0.4,1.4,0l5.1,5.1
			c0.4,0.4,0.4,1,0,1.4C791.4,116.6,791.2,116.7,790.9,116.7z"/>
	</g>
	<g>
		<path class="st3" d="M760.6,86.4c-0.3,0-0.5-0.1-0.7-0.3l-5.1-5.1c-0.4-0.4-0.4-1,0-1.4c0.4-0.4,1-0.4,1.4,0l5.1,5.1
			c0.4,0.4,0.4,1,0,1.4C761.1,86.3,760.8,86.4,760.6,86.4z"/>
	</g>
	<g>
		<path class="st3" d="M785.8,86.4c-0.3,0-0.5-0.1-0.7-0.3c-0.4-0.4-0.4-1,0-1.4l5.1-5.1c0.4-0.4,1-0.4,1.4,0c0.4,0.4,0.4,1,0,1.4
			l-5.1,5.1C786.3,86.3,786,86.4,785.8,86.4z"/>
	</g>
	<g>
		<path class="st3" d="M755.5,116.7c-0.3,0-0.5-0.1-0.7-0.3c-0.4-0.4-0.4-1,0-1.4l5.1-5.1c0.4-0.4,1-0.4,1.4,0c0.4,0.4,0.4,1,0,1.4
			l-5.1,5.1C756,116.6,755.7,116.7,755.5,116.7z"/>
	</g>
	<g>
		<path class="st3" d="M798.3,99H791c-0.5,0-1-0.5-1-1s0.4-1,1-1h7.3c0.5,0,1,0.5,1,1S798.8,99,798.3,99z"/>
	</g>
	<g>
		<path class="st3" d="M755.4,99h-7.3c-0.5,0-1-0.5-1-1s0.4-1,1-1h7.3c0.5,0,1,0.5,1,1S755.9,99,755.4,99z"/>
	</g>
	<g>
		<path class="st3" d="M773,81.2c-0.5,0-1-0.4-1-1v-7.3c0-0.5,0.5-1,1-1s1,0.4,1,1v7.3C774,80.8,773.5,81.2,773,81.2z"/>
	</g>
	<g>
		<path class="st3" d="M773,124.1c-0.5,0-1-0.4-1-1v-7.3c0-0.5,0.5-1,1-1s1,0.4,1,1v7.3C774,123.6,773.5,124.1,773,124.1z"/>
	</g>
	<g>
		<path class="st3" d="M789.6,92.1c-0.4,0-0.8-0.2-0.9-0.6c-0.2-0.5,0-1.1,0.5-1.3l6.7-2.8c0.5-0.2,1.1,0,1.3,0.5
			c0.2,0.5,0,1.1-0.5,1.3l-6.7,2.8C789.9,92.1,789.7,92.1,789.6,92.1z"/>
	</g>
	<g>
		<path class="st3" d="M750,108.7c-0.4,0-0.8-0.2-0.9-0.6c-0.2-0.5,0-1.1,0.5-1.3l6.7-2.8c0.5-0.2,1.1,0,1.3,0.5
			c0.2,0.5,0,1.1-0.5,1.3l-6.7,2.8C750.3,108.6,750.2,108.7,750,108.7z"/>
	</g>
	<g>
		<path class="st3" d="M766.3,82.6c-0.4,0-0.8-0.2-0.9-0.6l-2.8-6.7c-0.2-0.5,0-1.1,0.5-1.3c0.5-0.2,1.1,0,1.3,0.5l2.8,6.7
			c0.2,0.5,0,1.1-0.5,1.3C766.6,82.5,766.5,82.6,766.3,82.6z"/>
	</g>
	<g>
		<path class="st3" d="M782.8,122.1c-0.4,0-0.8-0.2-0.9-0.6l-2.8-6.7c-0.2-0.5,0-1.1,0.5-1.3c0.5-0.2,1.1,0,1.3,0.5l2.8,6.7
			c0.2,0.5,0,1.1-0.5,1.3C783.1,122.1,783,122.1,782.8,122.1z"/>
	</g>
	<g>
		<path class="st3" d="M780,82.5c-0.1,0-0.3,0-0.4-0.1c-0.5-0.2-0.7-0.8-0.5-1.3l2.8-6.7c0.2-0.5,0.8-0.7,1.3-0.5
			c0.5,0.2,0.7,0.8,0.5,1.3l-2.8,6.7C780.7,82.3,780.3,82.5,780,82.5z"/>
	</g>
	<g>
		<path class="st3" d="M763.7,122.2c-0.1,0-0.3,0-0.4-0.1c-0.5-0.2-0.7-0.8-0.5-1.3l2.8-6.7c0.2-0.5,0.8-0.7,1.3-0.5
			c0.5,0.2,0.7,0.8,0.5,1.3l-2.8,6.7C764.4,122,764,122.2,763.7,122.2z"/>
	</g>
	<g>
		<path class="st3" d="M756.7,92.2c-0.1,0-0.3,0-0.4-0.1l-6.7-2.8c-0.5-0.2-0.7-0.8-0.5-1.3c0.2-0.5,0.8-0.7,1.3-0.5l6.7,2.8
			c0.5,0.2,0.7,0.8,0.5,1.3C757.5,92,757.1,92.2,756.7,92.2z"/>
	</g>
	<g>
		<path class="st3" d="M796.4,108.5c-0.1,0-0.3,0-0.4-0.1l-6.7-2.8c-0.5-0.2-0.7-0.8-0.5-1.3c0.2-0.5,0.8-0.7,1.3-0.5l6.7,2.8
			c0.5,0.2,0.7,0.8,0.5,1.3C797.1,108.3,796.8,108.5,796.4,108.5z"/>
	</g>
	<g>
		<path class="st3" d="M773.2,116.8c-10.4,0-18.8-8.4-18.8-18.8s8.4-18.8,18.8-18.8c10.4,0,18.8,8.4,18.8,18.8
			S783.5,116.8,773.2,116.8z M773.2,81.2c-9.3,0-16.8,7.5-16.8,16.8s7.5,16.8,16.8,16.8c9.3,0,16.8-7.5,16.8-16.8
			S782.5,81.2,773.2,81.2z"/>
	</g>
</g>
<g>
	<g>
		<path class="st3" d="M1366.9,116.7c-0.3,0-0.5-0.1-0.7-0.3l-5.1-5.1c-0.4-0.4-0.4-1,0-1.4c0.4-0.4,1-0.4,1.4,0l5.1,5.1
			c0.4,0.4,0.4,1,0,1.4C1367.4,116.6,1367.2,116.7,1366.9,116.7z"/>
	</g>
	<g>
		<path class="st3" d="M1336.6,86.4c-0.3,0-0.5-0.1-0.7-0.3l-5.1-5.1c-0.4-0.4-0.4-1,0-1.4c0.4-0.4,1-0.4,1.4,0l5.1,5.1
			c0.4,0.4,0.4,1,0,1.4C1337.1,86.3,1336.8,86.4,1336.6,86.4z"/>
	</g>
	<g>
		<path class="st3" d="M1361.8,86.4c-0.3,0-0.5-0.1-0.7-0.3c-0.4-0.4-0.4-1,0-1.4l5.1-5.1c0.4-0.4,1-0.4,1.4,0c0.4,0.4,0.4,1,0,1.4
			l-5.1,5.1C1362.3,86.3,1362,86.4,1361.8,86.4z"/>
	</g>
	<g>
		<path class="st3" d="M1331.5,116.7c-0.3,0-0.5-0.1-0.7-0.3c-0.4-0.4-0.4-1,0-1.4l5.1-5.1c0.4-0.4,1-0.4,1.4,0c0.4,0.4,0.4,1,0,1.4
			l-5.1,5.1C1332,116.6,1331.7,116.7,1331.5,116.7z"/>
	</g>
	<g>
		<path class="st3" d="M1374.3,99h-7.3c-0.5,0-1-0.5-1-1s0.4-1,1-1h7.3c0.5,0,1,0.5,1,1S1374.8,99,1374.3,99z"/>
	</g>
	<g>
		<path class="st3" d="M1331.4,99h-7.3c-0.5,0-1-0.5-1-1s0.4-1,1-1h7.3c0.5,0,1,0.5,1,1S1331.9,99,1331.4,99z"/>
	</g>
	<g>
		<path class="st3" d="M1349,81.2c-0.5,0-1-0.4-1-1v-7.3c0-0.5,0.5-1,1-1s1,0.4,1,1v7.3C1350,80.8,1349.5,81.2,1349,81.2z"/>
	</g>
	<g>
		<path class="st3" d="M1349,124.1c-0.5,0-1-0.4-1-1v-7.3c0-0.5,0.5-1,1-1s1,0.4,1,1v7.3C1350,123.6,1349.5,124.1,1349,124.1z"/>
	</g>
	<g>
		<path class="st3" d="M1365.6,92.1c-0.4,0-0.8-0.2-0.9-0.6c-0.2-0.5,0-1.1,0.5-1.3l6.7-2.8c0.5-0.2,1.1,0,1.3,0.5
			c0.2,0.5,0,1.1-0.5,1.3l-6.7,2.8C1365.9,92.1,1365.7,92.1,1365.6,92.1z"/>
	</g>
	<g>
		<path class="st3" d="M1326,108.7c-0.4,0-0.8-0.2-0.9-0.6c-0.2-0.5,0-1.1,0.5-1.3l6.7-2.8c0.5-0.2,1.1,0,1.3,0.5
			c0.2,0.5,0,1.1-0.5,1.3l-6.7,2.8C1326.3,108.6,1326.2,108.7,1326,108.7z"/>
	</g>
	<g>
		<path class="st3" d="M1342.3,82.6c-0.4,0-0.8-0.2-0.9-0.6l-2.8-6.7c-0.2-0.5,0-1.1,0.5-1.3c0.5-0.2,1.1,0,1.3,0.5l2.8,6.7
			c0.2,0.5,0,1.1-0.5,1.3C1342.6,82.5,1342.5,82.6,1342.3,82.6z"/>
	</g>
	<g>
		<path class="st3" d="M1358.8,122.1c-0.4,0-0.8-0.2-0.9-0.6l-2.8-6.7c-0.2-0.5,0-1.1,0.5-1.3c0.5-0.2,1.1,0,1.3,0.5l2.8,6.7
			c0.2,0.5,0,1.1-0.5,1.3C1359.1,122.1,1359,122.1,1358.8,122.1z"/>
	</g>
	<g>
		<path class="st3" d="M1356,82.5c-0.1,0-0.3,0-0.4-0.1c-0.5-0.2-0.7-0.8-0.5-1.3l2.8-6.7c0.2-0.5,0.8-0.7,1.3-0.5
			c0.5,0.2,0.7,0.8,0.5,1.3l-2.8,6.7C1356.7,82.3,1356.3,82.5,1356,82.5z"/>
	</g>
	<g>
		<path class="st3" d="M1339.7,122.2c-0.1,0-0.3,0-0.4-0.1c-0.5-0.2-0.7-0.8-0.5-1.3l2.8-6.7c0.2-0.5,0.8-0.7,1.3-0.5
			c0.5,0.2,0.7,0.8,0.5,1.3l-2.8,6.7C1340.4,122,1340,122.2,1339.7,122.2z"/>
	</g>
	<g>
		<path class="st3" d="M1332.7,92.2c-0.1,0-0.3,0-0.4-0.1l-6.7-2.8c-0.5-0.2-0.7-0.8-0.5-1.3c0.2-0.5,0.8-0.7,1.3-0.5l6.7,2.8
			c0.5,0.2,0.7,0.8,0.5,1.3C1333.5,92,1333.1,92.2,1332.7,92.2z"/>
	</g>
	<g>
		<path class="st3" d="M1372.4,108.5c-0.1,0-0.3,0-0.4-0.1l-6.7-2.8c-0.5-0.2-0.7-0.8-0.5-1.3c0.2-0.5,0.8-0.7,1.3-0.5l6.7,2.8
			c0.5,0.2,0.7,0.8,0.5,1.3C1373.1,108.3,1372.8,108.5,1372.4,108.5z"/>
	</g>
	<g>
		<path class="st3" d="M1349.2,116.8c-10.4,0-18.8-8.4-18.8-18.8s8.4-18.8,18.8-18.8c10.4,0,18.8,8.4,18.8,18.8
			S1359.5,116.8,1349.2,116.8z M1349.2,81.2c-9.3,0-16.8,7.5-16.8,16.8s7.5,16.8,16.8,16.8c9.3,0,16.8-7.5,16.8-16.8
			S1358.5,81.2,1349.2,81.2z"/>
	</g>
</g>
<g>
</g>
<g>
</g>
<g>
</g>
<g>
</g>
<g>
</g>
<g>
</g>
</svg>
