<svg id="Layer_1" xmlns="http://www.w3.org/2000/svg" viewBox="0 0 1118 239.7"><style>.bst0{fill:#242156}.bst1{fill:#ef3d69}.bst2{fill:#ece83d}.bst3{fill:#ef3c68}</style><path class="bst0" d="M721 164.7h110v11H721z"/><path class="bst0" d="M831 176.7H721c-.6 0-1-.4-1-1v-11c0-.6.4-1 1-1h110c.6 0 1 .4 1 1v11c0 .5-.4 1-1 1zm-109-2h108v-9H722v9z"/><path class="bst1" d="M721 175.7h110v5H721z"/><path class="bst0" d="M831 181.7H721c-.6 0-1-.4-1-1v-5c0-.6.4-1 1-1h110c.6 0 1 .4 1 1v5c0 .5-.4 1-1 1zm-109-2h108v-3H722v3z"/><path class="bst1" d="M721 165.7H593c-.6 0-1-.4-1-1v-5c0-.6.4-1 1-1h128c.6 0 1 .4 1 1v5c0 .5-.4 1-1 1zm-127-2h126v-3H594v3z"/><path class="bst0" d="M593 133.7h128v26H593z"/><path class="bst0" d="M721 160.7H593c-.6 0-1-.4-1-1v-26c0-.6.4-1 1-1h128c.6 0 1 .4 1 1v26c0 .5-.4 1-1 1zm-127-2h126v-24H594v24zm-111 6h110v11H483z"/><path class="bst0" d="M593 176.7H483c-.6 0-1-.4-1-1v-11c0-.6.4-1 1-1h110c.6 0 1 .4 1 1v11c0 .5-.4 1-1 1zm-109-2h108v-9H484v9z"/><path class="bst1" d="M715 139.7H599c-.6 0-1-.4-1-1s.4-1 1-1h116c.6 0 1 .4 1 1s-.4 1-1 1z"/><path class="bst0" d="M721 238.7H593c-.6 0-1-.4-1-1v-78c0-.6.4-1 1-1h128c.6 0 1 .4 1 1v78c0 .5-.4 1-1 1zm-127-2h126v-76H594v76z"/><path class="bst0" d="M831 239.7H721c-.6 0-1-.4-1-1v-58c0-.6.4-1 1-1h110c.6 0 1 .4 1 1v58c0 .5-.4 1-1 1zm-109-2h108v-56H722v56z"/><path class="bst1" d="M639 196.7h36v31h-36z"/><path class="bst0" d="M675 228.7h-36c-.6 0-1-.4-1-1v-31c0-.6.4-1 1-1h36c.6 0 1 .4 1 1v31c0 .5-.4 1-1 1zm-35-2h34v-29h-34v29z"/><path class="bst0" d="M657 228.7c-.6 0-1-.4-1-1v-31c0-.6.4-1 1-1s1 .4 1 1v31c0 .5-.4 1-1 1z"/><path class="bst0" d="M675 231.7h-36c-.6 0-1-.4-1-1v-3c0-.6.4-1 1-1h36c.6 0 1 .4 1 1v3c0 .5-.4 1-1 1zm-35-2h34v-1h-34v1z"/><path class="bst0" d="M678 235.7h-43c-.6 0-1-.4-1-1v-4c0-.6.4-1 1-1h43c.6 0 1 .4 1 1v4c0 .5-.4 1-1 1zm-42-2h41v-2h-41v2z"/><path class="bst0" d="M682 238.7h-50c-.6 0-1-.4-1-1v-3c0-.6.4-1 1-1h50c.6 0 1 .4 1 1v3c0 .5-.4 1-1 1zm-49-2h48v-1h-48v1zm206-5h-8c-.6 0-1-.4-1-1v-3c0-.6.4-1 1-1h8c.6 0 1 .4 1 1v3c0 .5-.4 1-1 1zm-7-2h6v-1h-6v1z"/><path class="bst0" d="M846 235.7h-15c-.6 0-1-.4-1-1v-4c0-.6.4-1 1-1h15c.6 0 1 .4 1 1v4c0 .5-.4 1-1 1zm-14-2h13v-2h-13v2z"/><path class="bst0" d="M854 238.7h-23c-.6 0-1-.4-1-1v-3c0-.6.4-1 1-1h23c.6 0 1 .4 1 1v3c0 .5-.4 1-1 1zm-22-2h21v-1h-21v1zm-204-21h-27c-.6 0-1-.4-1-1v-18c0-.6.4-1 1-1h27c.6 0 1 .4 1 1v18c0 .5-.4 1-1 1zm-26-2h25v-16h-25v16zm110 2h-27c-.6 0-1-.4-1-1v-18c0-.6.4-1 1-1h27c.6 0 1 .4 1 1v18c0 .5-.4 1-1 1zm-26-2h25v-16h-25v16z"/><path class="bst1" d="M601 209.7h27v5h-27z"/><path class="bst0" d="M628 215.7h-27c-.6 0-1-.4-1-1v-5c0-.6.4-1 1-1h27c.6 0 1 .4 1 1v5c0 .5-.4 1-1 1zm-26-2h25v-3h-25v3z"/><path class="bst1" d="M685 209.7h27v5h-27z"/><path class="bst0" d="M712 215.7h-27c-.6 0-1-.4-1-1v-5c0-.6.4-1 1-1h27c.6 0 1 .4 1 1v5c0 .5-.4 1-1 1zm-26-2h25v-3h-25v3zm85 2h-40c-.6 0-1-.4-1-1v-18c0-.6.4-1 1-1h40c.6 0 1 .4 1 1v18c0 .5-.4 1-1 1zm-39-2h38v-16h-38v16z"/><path class="bst1" d="M758 215.7h-27c-.6 0-1-.4-1-1v-5c0-.6.4-1 1-1h27c.6 0 1 .4 1 1v5c0 .5-.4 1-1 1zm-26-2h25v-3h-25v3z"/><path class="bst1" d="M771 215.7h-27c-.6 0-1-.4-1-1v-5c0-.6.4-1 1-1h27c.6 0 1 .4 1 1v5c0 .5-.4 1-1 1zm-26-2h25v-3h-25v3z"/><path class="bst0" d="M821 215.7h-40c-.6 0-1-.4-1-1v-18c0-.6.4-1 1-1h40c.6 0 1 .4 1 1v18c0 .5-.4 1-1 1zm-39-2h38v-16h-38v16z"/><path class="bst1" d="M808 215.7h-27c-.6 0-1-.4-1-1v-5c0-.6.4-1 1-1h27c.6 0 1 .4 1 1v5c0 .5-.4 1-1 1zm-26-2h25v-3h-25v3z"/><path class="bst1" d="M821 215.7h-27c-.6 0-1-.4-1-1v-5c0-.6.4-1 1-1h27c.6 0 1 .4 1 1v5c0 .5-.4 1-1 1zm-26-2h25v-3h-25v3zM656.9 124l71.3 36.7H585.6z"/><path class="bst0" d="M728.2 161.7H585.6c-.5 0-.9-.3-1-.8-.1-.4.1-.9.5-1.1l71.3-36.7c.3-.1.6-.1.9 0l71.3 36.7c.4.2.6.7.5 1.1 0 .5-.4.8-.9.8zm-138.5-2H724l-67.2-34.5-67.1 34.5z"/><circle class="bst2" cx="656.9" cy="141.1" r="7.4"/><path class="bst0" d="M656.9 149.5c-4.6 0-8.4-3.8-8.4-8.4 0-4.6 3.8-8.4 8.4-8.4 4.6 0 8.4 3.8 8.4 8.4-.1 4.6-3.8 8.4-8.4 8.4zm0-14.8c-3.5 0-6.4 2.9-6.4 6.4s2.9 6.4 6.4 6.4 6.4-2.9 6.4-6.4-2.9-6.4-6.4-6.4z"/><path class="bst1" d="M657 141.7c-.6 0-1-.4-1-1v-4c0-.6.4-1 1-1s1 .4 1 1v4c0 .5-.4 1-1 1z"/><path class="bst1" d="M659.5 144.9c-.3 0-.5-.1-.7-.3l-2.6-2.8c-.4-.4-.3-1 .1-1.4.4-.4 1-.4 1.4.1l2.6 2.8c.4.4.3 1-.1 1.4-.2.1-.5.2-.7.2z"/><path class="bst0" d="M675 197.7h-36.2c-.6 0-1-.4-1-1 0-10.5 8.6-19.1 19.1-19.1S676 186 676 196.5v.2c0 .5-.5 1-1 1zm-35.2-2H674c-.4-9-7.9-16.1-17.1-16.1-9.1 0-16.6 7.1-17.1 16.1z"/><path class="bst0" d="M656.9 197.3c-.3 0-.5-.1-.7-.3l-12.6-12.6c-.4-.4-.4-1 0-1.4s1-.4 1.4 0l12.6 12.6c.4.4.4 1 0 1.4-.2.2-.5.3-.7.3z"/><path class="bst0" d="M656.9 197.3c-.3 0-.5-.1-.7-.3-.4-.4-.4-1 0-1.4l12.9-12.9c.4-.4 1-.4 1.4 0s.4 1 0 1.4L657.6 197c-.2.2-.5.3-.7.3zm81.7 39.7c-5.2 0-9.5-4.2-9.5-9.5s4.2-9.5 9.5-9.5 9.5 4.2 9.5 9.5-4.3 9.5-9.5 9.5zm0-16.9c-4.1 0-7.5 3.3-7.5 7.5 0 4.1 3.3 7.5 7.5 7.5 4.1 0 7.5-3.3 7.5-7.5-.1-4.2-3.4-7.5-7.5-7.5z"/><path class="bst1" d="M738.6 233.8c-.6 0-1-.4-1-1 0-1.2-1-2.2-2.2-2.2-.6 0-1-.4-1-1s.4-1 1-1c2.3 0 4.2 1.9 4.2 4.2 0 .6-.5 1-1 1z"/><path class="bst1" d="M738.6 233.8c-.6 0-1-.4-1-1 0-2.3 1.9-4.2 4.2-4.2.6 0 1 .4 1 1s-.4 1-1 1c-1.2 0-2.2 1-2.2 2.2 0 .6-.5 1-1 1z"/><path class="bst1" d="M739 238.7c-.6 0-1-.4-1-1v-5c0-.6.4-1 1-1s1 .4 1 1v5c0 .5-.4 1-1 1z"/><path class="bst1" d="M739 233.7c-.6 0-1-.4-1-1v-5c0-.6.4-1 1-1s1 .4 1 1v5c0 .5-.4 1-1 1z"/><path class="bst0" d="M762.7 237c-5.2 0-9.5-4.2-9.5-9.5s4.2-9.5 9.5-9.5 9.5 4.2 9.5 9.5-4.3 9.5-9.5 9.5zm0-16.9c-4.1 0-7.5 3.3-7.5 7.5 0 4.1 3.3 7.5 7.5 7.5 4.1 0 7.5-3.3 7.5-7.5-.1-4.2-3.4-7.5-7.5-7.5z"/><path class="bst1" d="M762.7 233.8c-.6 0-1-.4-1-1 0-1.2-1-2.2-2.2-2.2-.6 0-1-.4-1-1s.4-1 1-1c2.3 0 4.2 1.9 4.2 4.2 0 .6-.5 1-1 1z"/><path class="bst1" d="M762.7 233.8c-.6 0-1-.4-1-1 0-2.3 1.9-4.2 4.2-4.2.6 0 1 .4 1 1s-.4 1-1 1c-1.2 0-2.2 1-2.2 2.2 0 .6-.5 1-1 1z"/><path class="bst1" d="M763 238.7c-.6 0-1-.4-1-1v-5c0-.6.4-1 1-1s1 .4 1 1v5c0 .5-.4 1-1 1z"/><path class="bst1" d="M763 233.7c-.6 0-1-.4-1-1v-5c0-.6.4-1 1-1s1 .4 1 1v5c0 .5-.4 1-1 1z"/><path class="bst0" d="M789.3 237c-5.2 0-9.5-4.2-9.5-9.5s4.2-9.5 9.5-9.5 9.5 4.2 9.5 9.5-4.3 9.5-9.5 9.5zm0-16.9c-4.1 0-7.5 3.3-7.5 7.5 0 4.1 3.3 7.5 7.5 7.5 4.1 0 7.5-3.3 7.5-7.5-.1-4.2-3.4-7.5-7.5-7.5z"/><path class="bst1" d="M789.3 233.8c-.6 0-1-.4-1-1 0-1.2-1-2.2-2.2-2.2-.6 0-1-.4-1-1s.4-1 1-1c2.3 0 4.2 1.9 4.2 4.2 0 .6-.5 1-1 1z"/><path class="bst1" d="M789.3 233.8c-.6 0-1-.4-1-1 0-2.3 1.9-4.2 4.2-4.2.6 0 1 .4 1 1s-.4 1-1 1c-1.2 0-2.2 1-2.2 2.2 0 .6-.5 1-1 1z"/><path class="bst1" d="M789 238.7c-.6 0-1-.4-1-1v-5c0-.6.4-1 1-1s1 .4 1 1v5c0 .5-.4 1-1 1z"/><path class="bst1" d="M789 233.7c-.6 0-1-.4-1-1v-5c0-.6.4-1 1-1s1 .4 1 1v5c0 .5-.4 1-1 1z"/><path class="bst0" d="M812.5 237c-5.2 0-9.5-4.2-9.5-9.5s4.2-9.5 9.5-9.5 9.5 4.2 9.5 9.5-4.3 9.5-9.5 9.5zm0-16.9c-4.1 0-7.5 3.3-7.5 7.5 0 4.1 3.3 7.5 7.5 7.5 4.1 0 7.5-3.3 7.5-7.5s-3.4-7.5-7.5-7.5z"/><path class="bst1" d="M812.5 233.8c-.6 0-1-.4-1-1 0-1.2-1-2.2-2.2-2.2-.6 0-1-.4-1-1s.4-1 1-1c2.3 0 4.2 1.9 4.2 4.2 0 .6-.4 1-1 1z"/><path class="bst1" d="M812.5 233.8c-.6 0-1-.4-1-1 0-2.3 1.9-4.2 4.2-4.2.6 0 1 .4 1 1s-.4 1-1 1c-1.2 0-2.2 1-2.2 2.2 0 .6-.4 1-1 1z"/><path class="bst1" d="M813 238.7c-.6 0-1-.4-1-1v-5c0-.6.4-1 1-1s1 .4 1 1v5c0 .5-.4 1-1 1z"/><path class="bst1" d="M813 233.7c-.6 0-1-.4-1-1v-5c0-.6.4-1 1-1s1 .4 1 1v5c0 .5-.4 1-1 1z"/><path class="bst0" d="M708 156.7H605c-.6 0-1-.4-1-1s.4-1 1-1h103c.6 0 1 .4 1 1s-.4 1-1 1zm-33 16h-36c-.6 0-1-.4-1-1v-7c0-.6.4-1 1-1h36c.6 0 1 .4 1 1v7c0 .5-.4 1-1 1zm-35-2h34v-5h-34v5z"/><path class="bst1" d="M731 188.7h40v8h-40z"/><path class="bst0" d="M771 197.7h-40c-.6 0-1-.4-1-1v-8c0-.6.4-1 1-1h40c.6 0 1 .4 1 1v8c0 .5-.4 1-1 1zm-39-2h38v-6h-38v6z"/><path class="bst1" d="M781 188.7h40v8h-40z"/><path class="bst0" d="M821 197.7h-40c-.6 0-1-.4-1-1v-8c0-.6.4-1 1-1h40c.6 0 1 .4 1 1v8c0 .5-.4 1-1 1zm-39-2h38v-6h-38v6z"/><path class="bst1" d="M483 175.7h110v5H483z"/><path class="bst0" d="M593 181.7H483c-.6 0-1-.4-1-1v-5c0-.6.4-1 1-1h110c.6 0 1 .4 1 1v5c0 .5-.4 1-1 1zm-109-2h108v-3H484v3z"/><path class="bst0" d="M593 239.7H483c-.6 0-1-.4-1-1v-58c0-.6.4-1 1-1h110c.6 0 1 .4 1 1v58c0 .5-.4 1-1 1zm-109-2h108v-56H484v56z"/><path class="bst0" d="M583 215.7h-40c-.6 0-1-.4-1-1v-18c0-.6.4-1 1-1h40c.6 0 1 .4 1 1v18c0 .5-.4 1-1 1zm-39-2h38v-16h-38v16z"/><path class="bst1" d="M583 215.7h-27c-.6 0-1-.4-1-1v-5c0-.6.4-1 1-1h27c.6 0 1 .4 1 1v5c0 .5-.4 1-1 1zm-26-2h25v-3h-25v3z"/><path class="bst1" d="M569 215.7h-26c-.6 0-1-.4-1-1v-5c0-.6.4-1 1-1h26c.6 0 1 .4 1 1v5c0 .5-.4 1-1 1zm-25-2h24v-3h-24v3z"/><path class="bst0" d="M533 215.7h-40c-.6 0-1-.4-1-1v-18c0-.6.4-1 1-1h40c.6 0 1 .4 1 1v18c0 .5-.4 1-1 1zm-39-2h38v-16h-38v16z"/><path class="bst1" d="M533 215.7h-27c-.6 0-1-.4-1-1v-5c0-.6.4-1 1-1h27c.6 0 1 .4 1 1v5c0 .5-.4 1-1 1zm-26-2h25v-3h-25v3z"/><path class="bst1" d="M520 215.7h-27c-.6 0-1-.4-1-1v-5c0-.6.4-1 1-1h27c.6 0 1 .4 1 1v5c0 .5-.4 1-1 1zm-26-2h25v-3h-25v3z"/><path class="bst0" d="M575.2 237c-5.2 0-9.5-4.2-9.5-9.5s4.2-9.5 9.5-9.5 9.5 4.2 9.5 9.5-4.3 9.5-9.5 9.5zm0-16.9c-4.1 0-7.5 3.3-7.5 7.5 0 4.1 3.3 7.5 7.5 7.5s7.5-3.3 7.5-7.5c-.1-4.2-3.4-7.5-7.5-7.5z"/><path class="bst1" d="M575.2 233.8c-.6 0-1-.4-1-1 0-2.3 1.9-4.2 4.2-4.2.6 0 1 .4 1 1s-.4 1-1 1c-1.2 0-2.2 1-2.2 2.2 0 .6-.5 1-1 1z"/><path class="bst1" d="M575.2 233.8c-.6 0-1-.4-1-1 0-1.2-1-2.2-2.2-2.2-.6 0-1-.4-1-1s.4-1 1-1c2.3 0 4.2 1.9 4.2 4.2 0 .6-.5 1-1 1z"/><path class="bst1" d="M575 238.7c-.6 0-1-.4-1-1v-5c0-.6.4-1 1-1s1 .4 1 1v5c0 .5-.4 1-1 1z"/><path class="bst1" d="M575 233.7c-.6 0-1-.4-1-1v-5c0-.6.4-1 1-1s1 .4 1 1v5c0 .5-.4 1-1 1z"/><path class="bst0" d="M551.1 237c-5.2 0-9.5-4.2-9.5-9.5s4.2-9.5 9.5-9.5c5.2 0 9.5 4.2 9.5 9.5s-4.3 9.5-9.5 9.5zm0-16.9c-4.1 0-7.5 3.3-7.5 7.5 0 4.1 3.3 7.5 7.5 7.5s7.5-3.3 7.5-7.5-3.4-7.5-7.5-7.5z"/><path class="bst1" d="M551.1 233.8c-.6 0-1-.4-1-1 0-2.3 1.9-4.2 4.2-4.2.6 0 1 .4 1 1s-.4 1-1 1c-1.2 0-2.2 1-2.2 2.2 0 .6-.4 1-1 1z"/><path class="bst1" d="M551.1 233.8c-.6 0-1-.4-1-1 0-1.2-1-2.2-2.2-2.2-.6 0-1-.4-1-1s.4-1 1-1c2.3 0 4.2 1.9 4.2 4.2 0 .6-.4 1-1 1z"/><path class="bst1" d="M551 238.7c-.6 0-1-.4-1-1v-5c0-.6.4-1 1-1s1 .4 1 1v5c0 .5-.4 1-1 1z"/><path class="bst1" d="M551 233.7c-.6 0-1-.4-1-1v-5c0-.6.4-1 1-1s1 .4 1 1v5c0 .5-.4 1-1 1z"/><path class="bst0" d="M524.5 237c-5.2 0-9.5-4.2-9.5-9.5s4.2-9.5 9.5-9.5 9.5 4.2 9.5 9.5-4.3 9.5-9.5 9.5zm0-16.9c-4.1 0-7.5 3.3-7.5 7.5 0 4.1 3.3 7.5 7.5 7.5s7.5-3.3 7.5-7.5c-.1-4.2-3.4-7.5-7.5-7.5z"/><path class="bst1" d="M524.5 233.8c-.6 0-1-.4-1-1 0-2.3 1.9-4.2 4.2-4.2.6 0 1 .4 1 1s-.4 1-1 1c-1.2 0-2.2 1-2.2 2.2 0 .6-.5 1-1 1z"/><path class="bst1" d="M524.5 233.8c-.6 0-1-.4-1-1 0-1.2-1-2.2-2.2-2.2-.6 0-1-.4-1-1s.4-1 1-1c2.3 0 4.2 1.9 4.2 4.2 0 .6-.5 1-1 1z"/><path class="bst1" d="M524 238.7c-.6 0-1-.4-1-1v-5c0-.6.4-1 1-1s1 .4 1 1v5c0 .5-.4 1-1 1z"/><path class="bst1" d="M524 233.7c-.6 0-1-.4-1-1v-5c0-.6.4-1 1-1s1 .4 1 1v5c0 .5-.4 1-1 1z"/><path class="bst0" d="M501.2 237c-5.2 0-9.5-4.2-9.5-9.5s4.2-9.5 9.5-9.5 9.5 4.2 9.5 9.5-4.2 9.5-9.5 9.5zm0-16.9c-4.1 0-7.5 3.3-7.5 7.5 0 4.1 3.3 7.5 7.5 7.5s7.5-3.3 7.5-7.5-3.4-7.5-7.5-7.5z"/><path class="bst1" d="M501.2 233.8c-.6 0-1-.4-1-1 0-2.3 1.9-4.2 4.2-4.2.6 0 1 .4 1 1s-.4 1-1 1c-1.2 0-2.2 1-2.2 2.2 0 .6-.4 1-1 1z"/><path class="bst1" d="M501.2 233.8c-.6 0-1-.4-1-1 0-1.2-1-2.2-2.2-2.2-.6 0-1-.4-1-1s.4-1 1-1c2.3 0 4.2 1.9 4.2 4.2 0 .6-.4 1-1 1z"/><path class="bst1" d="M501 238.7c-.6 0-1-.4-1-1v-5c0-.6.4-1 1-1s1 .4 1 1v5c0 .5-.4 1-1 1z"/><path class="bst1" d="M501 233.7c-.6 0-1-.4-1-1v-5c0-.6.4-1 1-1s1 .4 1 1v5c0 .5-.4 1-1 1zm42-45h40v8h-40z"/><path class="bst0" d="M583 197.7h-40c-.6 0-1-.4-1-1v-8c0-.6.4-1 1-1h40c.6 0 1 .4 1 1v8c0 .5-.4 1-1 1zm-39-2h38v-6h-38v6z"/><path class="bst1" d="M493 188.7h40v8h-40z"/><path class="bst0" d="M533 197.7h-40c-.6 0-1-.4-1-1v-8c0-.6.4-1 1-1h40c.6 0 1 .4 1 1v8c0 .5-.4 1-1 1zm-39-2h38v-6h-38v6z"/><path class="bst1" d="M670 168.7h-26c-.6 0-1-.4-1-1s.4-1 1-1h26c.6 0 1 .4 1 1s-.4 1-1 1zm-47 13h-17c-.6 0-1-.4-1-1s.4-1 1-1h17c.6 0 1 .4 1 1s-.4 1-1 1z"/><path class="bst1" d="M615 189.7c-.6 0-1-.4-1-1v-17c0-.6.4-1 1-1s1 .4 1 1v17c0 .5-.4 1-1 1zm91-8h-16c-.6 0-1-.4-1-1s.4-1 1-1h16c.6 0 1 .4 1 1s-.4 1-1 1z"/><path class="bst1" d="M698 189.7c-.6 0-1-.4-1-1v-17c0-.6.4-1 1-1s1 .4 1 1v17c0 .5-.4 1-1 1z"/><path class="bst0" d="M614.7 189.9c-5.2 0-9.5-4.2-9.5-9.5s4.2-9.5 9.5-9.5 9.5 4.2 9.5 9.5-4.3 9.5-9.5 9.5zm0-16.9c-4.1 0-7.5 3.3-7.5 7.5 0 4.1 3.3 7.5 7.5 7.5s7.5-3.3 7.5-7.5-3.4-7.5-7.5-7.5zm83.5 16.9c-5.2 0-9.5-4.2-9.5-9.5s4.2-9.5 9.5-9.5 9.5 4.2 9.5 9.5-4.3 9.5-9.5 9.5zm0-16.9c-4.1 0-7.5 3.3-7.5 7.5 0 4.1 3.3 7.5 7.5 7.5s7.5-3.3 7.5-7.5c-.1-4.2-3.4-7.5-7.5-7.5z"/><path class="bst2" d="M661 200.7h11v9h-11z"/><path class="bst0" d="M672 210.7h-11c-.6 0-1-.4-1-1v-9c0-.6.4-1 1-1h11c.6 0 1 .4 1 1v9c0 .5-.4 1-1 1zm-10-2h9v-7h-9v7z"/><path class="bst2" d="M642 200.7h12v9h-12z"/><path class="bst0" d="M654 210.7h-12c-.6 0-1-.4-1-1v-9c0-.6.4-1 1-1h12c.6 0 1 .4 1 1v9c0 .5-.4 1-1 1zm-11-2h10v-7h-10v7z"/><path class="bst2" d="M654 218.7c-.6 0-1-.4-1-1v-3c0-.6.4-1 1-1s1 .4 1 1v3c0 .5-.4 1-1 1zm7 0c-.6 0-1-.4-1-1v-3c0-.6.4-1 1-1s1 .4 1 1v3c0 .5-.4 1-1 1z"/><path class="bst0" d="M593 231.7h39v6h-39z"/><path class="bst0" d="M632 238.7h-39c-.6 0-1-.4-1-1v-6c0-.6.4-1 1-1h39c.6 0 1 .4 1 1v6c0 .5-.4 1-1 1zm-38-2h37v-4h-37v4zm88-5h39v6h-39z"/><path class="bst0" d="M721 238.7h-39c-.6 0-1-.4-1-1v-6c0-.6.4-1 1-1h39c.6 0 1 .4 1 1v6c0 .5-.4 1-1 1zm-38-2h37v-4h-37v4z"/><path class="bst2" d="M587 170.7h-98c-.6 0-1-.4-1-1s.4-1 1-1h98c.6 0 1 .4 1 1s-.4 1-1 1zm238 0h-98c-.6 0-1-.4-1-1s.4-1 1-1h98c.6 0 1 .4 1 1s-.4 1-1 1z"/><path class="bst1" d="M803 143.7h-15c-.6 0-1-.4-1-1s.4-1 1-1h15c.6 0 1 .4 1 1s-.4 1-1 1zm0-6h-15c-.6 0-1-.4-1-1s.4-1 1-1h15c.6 0 1 .4 1 1s-.4 1-1 1zm0 3h-15c-.6 0-1-.4-1-1s.4-1 1-1h15c.6 0 1 .4 1 1s-.4 1-1 1zm0 6h-27c-.6 0-1-.4-1-1s.4-1 1-1h27c.6 0 1 .4 1 1s-.4 1-1 1zm0 3h-27c-.6 0-1-.4-1-1s.4-1 1-1h27c.6 0 1 .4 1 1s-.4 1-1 1z"/><path class="bst0" d="M803 152.7h-27c-.6 0-1-.4-1-1v-18c0-.6.4-1 1-1h27c.6 0 1 .4 1 1v18c0 .5-.4 1-1 1zm-26-2h25v-16h-25v16z"/><path class="bst0" d="M776 239.7c-.6 0-1-.4-1-1v-105c0-.6.4-1 1-1s1 .4 1 1v105c0 .5-.4 1-1 1z"/><path class="bst0" d="M776 133.7h14v9h-14z"/><path class="bst0" d="M790 143.7h-14c-.6 0-1-.4-1-1v-9c0-.6.4-1 1-1h14c.6 0 1 .4 1 1v9c0 .5-.4 1-1 1zm-13-2h12v-7h-12v7zm-450-39c-.6 0-1-.4-1-1v-12c0-.6.4-1 1-1s1 .4 1 1v12c0 .5-.4 1-1 1z"/><circle class="bst1" cx="327" cy="89.7" r="3"/><path class="bst0" d="M327 93.7c-2.2 0-4-1.8-4-4s1.8-4 4-4 4 1.8 4 4-1.8 4-4 4zm0-6c-1.1 0-2 .9-2 2s.9 2 2 2 2-.9 2-2-.9-2-2-2z"/><path class="bst1" d="M326.9 100.6c-18.3 0-33.1 15.1-33.1 33.1h66.1c0-18-14.8-33.1-33-33.1z"/><path class="bst0" d="M359.9 134.7h-66.1c-.6 0-1-.4-1-1 0-18.8 15.3-34.1 34.1-34.1s34.1 15.3 34.1 34.1c-.1.5-.5 1-1.1 1zm-65.1-2h64.1c-.5-17.2-14.7-31.1-32-31.1s-31.5 13.9-32.1 31.1zm18 94.1c-5.2 0-9.5-4.2-9.5-9.5s4.2-9.5 9.5-9.5c5.2 0 9.5 4.2 9.5 9.5s-4.3 9.5-9.5 9.5zm0-16.9c-4.1 0-7.5 3.3-7.5 7.5 0 4.1 3.3 7.5 7.5 7.5s7.5-3.3 7.5-7.5c-.1-4.2-3.4-7.5-7.5-7.5z"/><path class="bst1" d="M312.8 223.6c-.6 0-1-.4-1-1 0-1.2-1-2.2-2.2-2.2-.6 0-1-.4-1-1s.4-1 1-1c2.3 0 4.2 1.9 4.2 4.2 0 .5-.5 1-1 1z"/><path class="bst1" d="M312.8 223.6c-.6 0-1-.4-1-1 0-2.3 1.9-4.2 4.2-4.2.6 0 1 .4 1 1s-.4 1-1 1c-1.2 0-2.2 1-2.2 2.2 0 .5-.5 1-1 1z"/><path class="bst1" d="M313 235.7c-.6 0-1-.4-1-1v-12c0-.6.4-1 1-1s1 .4 1 1v12c0 .5-.4 1-1 1z"/><path class="bst1" d="M313 223.7c-.6 0-1-.4-1-1v-5c0-.6.4-1 1-1s1 .4 1 1v5c0 .5-.4 1-1 1z"/><path class="bst0" d="M341.7 226.8c-5.2 0-9.5-4.2-9.5-9.5s4.2-9.5 9.5-9.5 9.5 4.2 9.5 9.5-4.3 9.5-9.5 9.5zm0-16.9c-4.1 0-7.5 3.3-7.5 7.5 0 4.1 3.3 7.5 7.5 7.5s7.5-3.3 7.5-7.5c-.1-4.2-3.4-7.5-7.5-7.5z"/><path class="bst1" d="M341.7 223.6c-.6 0-1-.4-1-1 0-1.2-1-2.2-2.2-2.2-.6 0-1-.4-1-1s.4-1 1-1c2.3 0 4.2 1.9 4.2 4.2 0 .5-.5 1-1 1z"/><path class="bst1" d="M341.7 223.6c-.6 0-1-.4-1-1 0-2.3 1.9-4.2 4.2-4.2.6 0 1 .4 1 1s-.4 1-1 1c-1.2 0-2.2 1-2.2 2.2 0 .5-.5 1-1 1z"/><path class="bst1" d="M342 235.7c-.6 0-1-.4-1-1v-12c0-.6.4-1 1-1s1 .4 1 1v12c0 .5-.4 1-1 1z"/><path class="bst1" d="M342 223.7c-.6 0-1-.4-1-1v-5c0-.6.4-1 1-1s1 .4 1 1v5c0 .5-.4 1-1 1zm-96-109c-.6 0-1-.4-1-1v-21c0-.6.4-1 1-1s1 .4 1 1v21c0 .5-.4 1-1 1zm29 0c-.6 0-1-.4-1-1v-21c0-.6.4-1 1-1s1 .4 1 1v21c0 .5-.4 1-1 1z"/><path class="bst0" d="M255.7 114.7c-.5 0-1-.3-1-.9l-.2-12.3c-.1-4.4-3.8-8-8.2-8-4.5 0-8.1 3.7-8.2 8.2 0 .2-.1.4-.2.6v11.4c0 .6-.4 1-1 1s-1-.4-1-1v-12c0-.2.1-.4.2-.6.4-5.3 4.8-9.5 10.2-9.5 5.5 0 10.1 4.5 10.2 10l.2 12.2c0 .5-.4.9-1 .9zm28.2 0c-.5 0-1-.3-1-.9l-.1-12.3c-.1-4.4-3.7-8-8.1-8-4.4 0-8.1 3.7-8.1 8.2 0 .4-.2.7-.6.9v11.1c0 .6-.4 1-1 1s-1-.4-1-1v-12c0-.4.3-.8.6-.9.5-5.2 4.9-9.2 10.1-9.2 5.5 0 10.1 4.5 10.1 10l.1 12.2c0 .6-.4.9-1 .9z"/><path class="bst1" d="M260.7 179.7h-.2c-6.8 0-12.5 5.4-12.5 12.2v32.8h25v-32.8c0-6.8-5.5-12.2-12.3-12.2z"/><path class="bst0" d="M273 225.7h-25c-.6 0-1-.4-1-1v-32.8c0-7.3 6.1-13.2 13.5-13.2h.2c7.5 0 13.3 5.8 13.3 13.2v32.8c0 .5-.4 1-1 1zm-24-2h23v-31.8c0-6.3-5-11.2-11.3-11.2h-.2c-6.4 0-11.5 5-11.5 11.2v31.8zM260.6 1l30 79.7h-60l30-79.7"/><path class="bst0" d="M290.6 81.7h-60.1c-.3 0-.6-.2-.8-.4-.2-.3-.2-.6-.1-.9l30-79.7c.1-.4.5-.6.9-.6s.8.3.9.6l30 79.7c.1.3.1.7-.1.9-.1.2-.4.4-.7.4zm-58.6-2h57.2L260.6 3.8 232 79.7z"/><path class="bst0" d="M293 239.7h-65c-.6 0-1-.4-1-1v-158c0-.6.4-1 1-1h65c.6 0 1 .4 1 1v158c0 .5-.4 1-1 1zm-64-2h63v-156h-63v156z"/><path class="bst0" d="M276 232.7h-31c-.6 0-1-.4-1-1v-7c0-.6.4-1 1-1h31c.6 0 1 .4 1 1v7c0 .5-.4 1-1 1zm-30-2h29v-5h-29v5z"/><circle class="bst1" cx="260.8" cy="149.8" r="16.7"/><path class="bst0" d="M260.8 167.5c-9.8 0-17.7-7.9-17.7-17.7s7.9-17.7 17.7-17.7 17.7 7.9 17.7 17.7-8 17.7-17.7 17.7zm0-33.4c-8.7 0-15.7 7-15.7 15.7s7 15.7 15.7 15.7 15.7-7 15.7-15.7-7.1-15.7-15.7-15.7z"/><circle class="bst1" cx="260.8" cy="149.8" r="16.7"/><path class="bst0" d="M260.8 167.5c-9.8 0-17.7-7.9-17.7-17.7s7.9-17.7 17.7-17.7 17.7 7.9 17.7 17.7-8 17.7-17.7 17.7zm0-33.4c-8.7 0-15.7 7-15.7 15.7s7 15.7 15.7 15.7 15.7-7 15.7-15.7-7.1-15.7-15.7-15.7z"/><path class="bst0" d="M260.8 171.2c-11.8 0-21.5-9.6-21.5-21.5 0-11.8 9.6-21.5 21.5-21.5s21.5 9.6 21.5 21.5-9.7 21.5-21.5 21.5zm0-40.9c-10.7 0-19.5 8.7-19.5 19.5 0 10.7 8.7 19.5 19.5 19.5s19.5-8.7 19.5-19.5-8.8-19.5-19.5-19.5zm132.4 40.9c-11.8 0-21.5-9.6-21.5-21.5 0-11.8 9.6-21.5 21.5-21.5s21.5 9.6 21.5 21.5-9.7 21.5-21.5 21.5zm0-40.9c-10.7 0-19.5 8.7-19.5 19.5 0 10.7 8.7 19.5 19.5 19.5s19.5-8.7 19.5-19.5-8.8-19.5-19.5-19.5z"/><path class="bst0" d="M260.8 158.8c-5 0-9-4-9-9s4-9 9-9 9 4 9 9-4.1 9-9 9zm0-16c-3.9 0-7 3.1-7 7s3.1 7 7 7 7-3.1 7-7-3.2-7-7-7z"/><path class="bst0" d="M260.8 142.8c-2.9 0-5.3-2.4-5.3-5.3s2.4-5.3 5.3-5.3 5.3 2.4 5.3 5.3-2.4 5.3-5.3 5.3zm0-8.7c-1.8 0-3.3 1.5-3.3 3.3 0 1.8 1.5 3.3 3.3 3.3s3.3-1.5 3.3-3.3c0-1.8-1.5-3.3-3.3-3.3zm0 33.4c-2.9 0-5.3-2.4-5.3-5.3s2.4-5.3 5.3-5.3 5.3 2.4 5.3 5.3-2.4 5.3-5.3 5.3zm0-8.7c-1.8 0-3.3 1.5-3.3 3.3 0 1.8 1.5 3.3 3.3 3.3s3.3-1.5 3.3-3.3c0-1.8-1.5-3.3-3.3-3.3zm12.3-3.7c-2.9 0-5.3-2.4-5.3-5.3s2.4-5.3 5.3-5.3 5.3 2.4 5.3 5.3-2.3 5.3-5.3 5.3zm0-8.7c-1.8 0-3.3 1.5-3.3 3.3s1.5 3.3 3.3 3.3 3.3-1.5 3.3-3.3-1.4-3.3-3.3-3.3zm-24.7 8.7c-2.9 0-5.3-2.4-5.3-5.3s2.4-5.3 5.3-5.3 5.3 2.4 5.3 5.3-2.3 5.3-5.3 5.3zm0-8.7c-1.8 0-3.3 1.5-3.3 3.3s1.5 3.3 3.3 3.3 3.3-1.5 3.3-3.3-1.4-3.3-3.3-3.3zm24.6 46.3h-25c-.6 0-1-.4-1-1s.4-1 1-1h25c.6 0 1 .4 1 1s-.4 1-1 1z"/><path class="bst0" d="M261 225.7c-.6 0-1-.4-1-1v-45c0-.6.4-1 1-1s1 .4 1 1v45c0 .5-.4 1-1 1zm19 14h-38c-.6 0-1-.4-1-1v-7c0-.6.4-1 1-1h38c.6 0 1 .4 1 1v7c0 .5-.4 1-1 1zm-37-2h36v-5h-36v5zm50-6h68v7h-68z"/><path class="bst0" d="M361 239.7h-68c-.6 0-1-.4-1-1v-7c0-.6.4-1 1-1h68c.6 0 1 .4 1 1v7c0 .5-.4 1-1 1zm-67-2h66v-5h-66v5z"/><path class="bst1" d="M228 231.7h14v7h-14z"/><path class="bst0" d="M242 239.7h-14c-.6 0-1-.4-1-1v-7c0-.6.4-1 1-1h14c.6 0 1 .4 1 1v7c0 .5-.4 1-1 1zm-13-2h12v-5h-12v5z"/><path class="bst1" d="M280 231.7h13v7h-13z"/><path class="bst0" d="M293 239.7h-13c-.6 0-1-.4-1-1v-7c0-.6.4-1 1-1h13c.6 0 1 .4 1 1v7c0 .5-.4 1-1 1zm-12-2h11v-5h-11v5z"/><path class="bst1" d="M361 231.7h13v7h-13z"/><path class="bst0" d="M374 239.7h-13c-.6 0-1-.4-1-1v-7c0-.6.4-1 1-1h13c.6 0 1 .4 1 1v7c0 .5-.4 1-1 1zm-12-2h11v-5h-11v5z"/><path class="bst1" d="M412 231.7h14v7h-14z"/><path class="bst0" d="M426 239.7h-14c-.6 0-1-.4-1-1v-7c0-.6.4-1 1-1h14c.6 0 1 .4 1 1v7c0 .5-.4 1-1 1zm-13-2h12v-5h-12v5z"/><path class="bst1" d="M293 121.7h-65c-.6 0-1-.4-1-1v-7c0-.6.4-1 1-1h65c.6 0 1 .4 1 1v7c0 .5-.4 1-1 1zm-64-2h63v-5h-63v5zm150-5c-.6 0-1-.4-1-1v-21c0-.6.4-1 1-1s1 .4 1 1v21c0 .5-.4 1-1 1zm28 0c-.6 0-1-.4-1-1v-21c0-.6.4-1 1-1s1 .4 1 1v21c0 .5-.4 1-1 1z"/><path class="bst0" d="M387.9 114.7c-.5 0-1-.3-1-.9l-.1-12.3c-.1-4.4-3.8-8-8.1-8-4.4 0-8.1 3.7-8.1 8.2 0 .3-.2.7-.4.8v11.2c0 .6-.4 1-1 1s-1-.4-1-1v-12c0-.4.2-.7.5-.9.5-5.2 4.9-9.3 10.1-9.3 5.5 0 10.1 4.5 10.1 10l.1 12.2c-.1.6-.6 1-1.1 1zm28.7 0c-.5 0-1-.3-1-.9l-.3-12.3c-.1-4.4-3.8-8-8.2-8-4.3 0-7.9 3.4-8.2 7.6.1.1.1.3.1.5v12c0 .6-.4 1-1 1s-1-.4-1-1v-11.5c-.1-.2-.2-.4-.2-.6.1-5.6 4.6-10.1 10.2-10.1 5.5 0 10.2 4.6 10.2 10l.3 12.2c.1.7-.4 1.1-.9 1.1z"/><path class="bst1" d="M392.9 179.7h.2c-6.8 0-12.1 5.4-12.1 12.2v32.8h24v-32.8c0-6.8-5.3-12.2-12.1-12.2z"/><path class="bst0" d="M405 225.7h-24c-.6 0-1-.4-1-1v-32.8c0-7.3 5.6-13 12.8-13.2h.4c7.2.2 12.8 5.9 12.8 13.2v32.8c0 .5-.4 1-1 1zm-23-2h22v-31.8c0-6.2-4.8-11.1-11-11.2-6.2.1-11 5-11 11.2v31.8zM392.9 1l30 79.7h-60.1L392.9 1"/><path class="bst0" d="M422.9 81.7h-60.1c-.3 0-.6-.2-.8-.4-.2-.3-.2-.6-.1-.9l30-79.7c.1-.4.5-.6.9-.6s.8.3.9.6l30 79.7c.1.3.1.7-.1.9-.1.2-.4.4-.7.4zm-58.6-2h57.2L392.9 3.8l-28.6 75.9z"/><path class="bst0" d="M426 239.7h-65c-.6 0-1-.4-1-1v-158c0-.6.4-1 1-1h65c.6 0 1 .4 1 1v158c0 .5-.4 1-1 1zm-64-2h63v-156h-63v156z"/><path class="bst0" d="M409 232.7h-32c-.6 0-1-.4-1-1v-7c0-.6.4-1 1-1h32c.6 0 1 .4 1 1v7c0 .5-.4 1-1 1zm-31-2h30v-5h-30v5z"/><circle class="bst1" cx="393.1" cy="149.8" r="16.7"/><path class="bst0" d="M393.1 167.5c-9.8 0-17.7-7.9-17.7-17.7s7.9-17.7 17.7-17.7 17.7 7.9 17.7 17.7-8 17.7-17.7 17.7zm0-33.4c-8.7 0-15.7 7-15.7 15.7s7 15.7 15.7 15.7 15.7-7 15.7-15.7-7.1-15.7-15.7-15.7z"/><path class="bst0" d="M393.1 158.8c-5 0-9-4-9-9s4-9 9-9 9 4 9 9-4.1 9-9 9zm0-16c-3.9 0-7 3.1-7 7s3.1 7 7 7 7-3.1 7-7-3.2-7-7-7z"/><path class="bst0" d="M393.1 142.8c-2.9 0-5.3-2.4-5.3-5.3s2.4-5.3 5.3-5.3 5.3 2.4 5.3 5.3-2.4 5.3-5.3 5.3zm0-8.7c-1.8 0-3.3 1.5-3.3 3.3 0 1.8 1.5 3.3 3.3 3.3s3.3-1.5 3.3-3.3c0-1.8-1.5-3.3-3.3-3.3zm0 33.4c-2.9 0-5.3-2.4-5.3-5.3s2.4-5.3 5.3-5.3 5.3 2.4 5.3 5.3-2.4 5.3-5.3 5.3zm0-8.7c-1.8 0-3.3 1.5-3.3 3.3 0 1.8 1.5 3.3 3.3 3.3s3.3-1.5 3.3-3.3c0-1.8-1.5-3.3-3.3-3.3zm12.3-3.7c-2.9 0-5.3-2.4-5.3-5.3s2.4-5.3 5.3-5.3 5.3 2.4 5.3 5.3-2.3 5.3-5.3 5.3zm0-8.7c-1.8 0-3.3 1.5-3.3 3.3s1.5 3.3 3.3 3.3 3.3-1.5 3.3-3.3-1.5-3.3-3.3-3.3zm-24.7 8.7c-2.9 0-5.3-2.4-5.3-5.3s2.4-5.3 5.3-5.3 5.3 2.4 5.3 5.3-2.4 5.3-5.3 5.3zm0-8.7c-1.8 0-3.3 1.5-3.3 3.3s1.5 3.3 3.3 3.3 3.3-1.5 3.3-3.3-1.5-3.3-3.3-3.3zm24.3 46.3h-24c-.6 0-1-.4-1-1s.4-1 1-1h24c.6 0 1 .4 1 1s-.4 1-1 1z"/><path class="bst0" d="M393 225.7c-.6 0-1-.4-1-1v-45c0-.6.4-1 1-1s1 .4 1 1v45c0 .5-.4 1-1 1zm19 14h-38c-.6 0-1-.4-1-1v-7c0-.6.4-1 1-1h38c.6 0 1 .4 1 1v7c0 .5-.4 1-1 1zm-37-2h36v-5h-36v5z"/><path class="bst1" d="M426 121.7h-65c-.6 0-1-.4-1-1v-7c0-.6.4-1 1-1h65c.6 0 1 .4 1 1v7c0 .5-.4 1-1 1zm-64-2h63v-5h-63v5z"/><path class="bst0" d="M313 195.7c-.6 0-1-.4-1-1v-31c0-.6.4-1 1-1s1 .4 1 1v31c0 .5-.4 1-1 1z"/><path class="bst0" d="M320 195.7c-.6 0-1-.4-1-1v-31.1c0-3.2-2.8-5.9-6-5.9h-.1c-3.2 0-5.8 2.6-5.8 5.9v31.1c0 .6-.4 1-1 1s-1-.4-1-1v-31.1c0-4.3 3.5-7.9 7.8-7.9h.1c4.4 0 8 3.5 8 7.9v31.1c0 .5-.4 1-1 1z"/><path class="bst1" d="M322 195.7h-19c-.6 0-1-.4-1-1s.4-1 1-1h19c.6 0 1 .4 1 1s-.4 1-1 1z"/><path class="bst0" d="M320 164.7h-14c-.6 0-1-.4-1-1s.4-1 1-1h14c.6 0 1 .4 1 1s-.4 1-1 1zm22 31c-.6 0-1-.4-1-1v-31c0-.6.4-1 1-1s1 .4 1 1v31c0 .5-.4 1-1 1z"/><path class="bst0" d="M349 195.7c-.6 0-1-.4-1-1v-31.1c0-3.2-2.8-5.9-6.1-5.9h-.1c-3.3 0-5.8 2.6-5.8 5.9v31.1c0 .6-.4 1-1 1s-1-.4-1-1v-31.1c0-4.3 3.5-7.9 7.8-7.9h.1c4.4 0 8.1 3.5 8.1 7.9v31.1c0 .5-.4 1-1 1z"/><path class="bst1" d="M351 195.7h-19c-.6 0-1-.4-1-1s.4-1 1-1h19c.6 0 1 .4 1 1s-.4 1-1 1z"/><path class="bst0" d="M349 164.7h-14c-.6 0-1-.4-1-1s.4-1 1-1h14c.6 0 1 .4 1 1s-.4 1-1 1z"/><path class="bst0" d="M361 239.7h-68c-.6 0-1-.4-1-1v-106c0-.6.4-1 1-1h68c.6 0 1 .4 1 1v106c0 .5-.4 1-1 1zm-67-2h66v-104h-66v104z"/><circle class="bst1" cx="298.1" cy="133.1" r="4.8"/><path class="bst0" d="M298.1 138.9c-3.2 0-5.8-2.6-5.8-5.8s2.6-5.8 5.8-5.8 5.8 2.6 5.8 5.8-2.6 5.8-5.8 5.8zm0-9.6c-2.1 0-3.8 1.7-3.8 3.8s1.7 3.8 3.8 3.8 3.8-1.7 3.8-3.8-1.7-3.8-3.8-3.8z"/><circle class="bst1" cx="307.7" cy="133.1" r="4.8"/><path class="bst0" d="M307.7 138.9c-3.2 0-5.8-2.6-5.8-5.8s2.6-5.8 5.8-5.8 5.8 2.6 5.8 5.8-2.6 5.8-5.8 5.8zm0-9.6c-2.1 0-3.8 1.7-3.8 3.8s1.7 3.8 3.8 3.8 3.8-1.7 3.8-3.8-1.7-3.8-3.8-3.8z"/><circle class="bst1" cx="317.4" cy="133.1" r="4.8"/><path class="bst0" d="M317.4 138.9c-3.2 0-5.8-2.6-5.8-5.8s2.6-5.8 5.8-5.8c3.2 0 5.8 2.6 5.8 5.8s-2.6 5.8-5.8 5.8zm0-9.6c-2.1 0-3.8 1.7-3.8 3.8s1.7 3.8 3.8 3.8 3.8-1.7 3.8-3.8-1.7-3.8-3.8-3.8z"/><circle class="bst1" cx="327" cy="133.1" r="4.8"/><path class="bst0" d="M327 138.9c-3.2 0-5.8-2.6-5.8-5.8s2.6-5.8 5.8-5.8 5.8 2.6 5.8 5.8-2.6 5.8-5.8 5.8zm0-9.6c-2.1 0-3.8 1.7-3.8 3.8s1.7 3.8 3.8 3.8 3.8-1.7 3.8-3.8-1.7-3.8-3.8-3.8z"/><circle class="bst1" cx="336.6" cy="133.1" r="4.8"/><path class="bst0" d="M336.6 138.9c-3.2 0-5.8-2.6-5.8-5.8s2.6-5.8 5.8-5.8 5.8 2.6 5.8 5.8-2.6 5.8-5.8 5.8zm0-9.6c-2.1 0-3.8 1.7-3.8 3.8s1.7 3.8 3.8 3.8 3.8-1.7 3.8-3.8-1.7-3.8-3.8-3.8z"/><circle class="bst1" cx="346.3" cy="133.1" r="4.8"/><path class="bst0" d="M346.3 138.9c-3.2 0-5.8-2.6-5.8-5.8s2.6-5.8 5.8-5.8 5.8 2.6 5.8 5.8-2.6 5.8-5.8 5.8zm0-9.6c-2.1 0-3.8 1.7-3.8 3.8s1.7 3.8 3.8 3.8 3.8-1.7 3.8-3.8-1.7-3.8-3.8-3.8z"/><circle class="bst1" cx="355.9" cy="133.1" r="4.8"/><path class="bst0" d="M355.9 138.9c-3.2 0-5.8-2.6-5.8-5.8s2.6-5.8 5.8-5.8 5.8 2.6 5.8 5.8-2.6 5.8-5.8 5.8zm0-9.6c-2.1 0-3.8 1.7-3.8 3.8s1.7 3.8 3.8 3.8 3.8-1.7 3.8-3.8-1.7-3.8-3.8-3.8z"/><circle class="bst1" cx="363.9" cy="80.9" r="4.8"/><path class="bst0" d="M363.9 86.7c-3.2 0-5.8-2.6-5.8-5.8s2.6-5.8 5.8-5.8 5.8 2.6 5.8 5.8-2.5 5.8-5.8 5.8zm0-9.6c-2.1 0-3.8 1.7-3.8 3.8s1.7 3.8 3.8 3.8 3.8-1.7 3.8-3.8-1.6-3.8-3.8-3.8z"/><circle class="bst1" cx="373.6" cy="80.9" r="4.8"/><path class="bst0" d="M373.6 86.7c-3.2 0-5.8-2.6-5.8-5.8s2.6-5.8 5.8-5.8c3.2 0 5.8 2.6 5.8 5.8s-2.6 5.8-5.8 5.8zm0-9.6c-2.1 0-3.8 1.7-3.8 3.8s1.7 3.8 3.8 3.8 3.8-1.7 3.8-3.8-1.7-3.8-3.8-3.8z"/><circle class="bst1" cx="383.2" cy="80.9" r="4.8"/><path class="bst0" d="M383.2 86.7c-3.2 0-5.8-2.6-5.8-5.8s2.6-5.8 5.8-5.8 5.8 2.6 5.8 5.8-2.6 5.8-5.8 5.8zm0-9.6c-2.1 0-3.8 1.7-3.8 3.8s1.7 3.8 3.8 3.8 3.8-1.7 3.8-3.8-1.7-3.8-3.8-3.8z"/><circle class="bst1" cx="392.9" cy="80.9" r="4.8"/><path class="bst0" d="M392.9 86.7c-3.2 0-5.8-2.6-5.8-5.8s2.6-5.8 5.8-5.8 5.8 2.6 5.8 5.8-2.6 5.8-5.8 5.8zm0-9.6c-2.1 0-3.8 1.7-3.8 3.8s1.7 3.8 3.8 3.8 3.8-1.7 3.8-3.8-1.7-3.8-3.8-3.8z"/><circle class="bst1" cx="402.5" cy="80.9" r="4.8"/><path class="bst0" d="M402.5 86.7c-3.2 0-5.8-2.6-5.8-5.8s2.6-5.8 5.8-5.8 5.8 2.6 5.8 5.8-2.6 5.8-5.8 5.8zm0-9.6c-2.1 0-3.8 1.7-3.8 3.8s1.7 3.8 3.8 3.8 3.8-1.7 3.8-3.8-1.7-3.8-3.8-3.8z"/><circle class="bst1" cx="412.1" cy="80.9" r="4.8"/><path class="bst0" d="M412.1 86.7c-3.2 0-5.8-2.6-5.8-5.8s2.6-5.8 5.8-5.8 5.8 2.6 5.8 5.8-2.6 5.8-5.8 5.8zm0-9.6c-2.1 0-3.8 1.7-3.8 3.8s1.7 3.8 3.8 3.8 3.8-1.7 3.8-3.8-1.7-3.8-3.8-3.8z"/><circle class="bst1" cx="421.8" cy="80.9" r="4.8"/><path class="bst0" d="M421.8 86.7c-3.2 0-5.8-2.6-5.8-5.8s2.6-5.8 5.8-5.8 5.8 2.6 5.8 5.8-2.6 5.8-5.8 5.8zm0-9.6c-2.1 0-3.8 1.7-3.8 3.8s1.7 3.8 3.8 3.8 3.8-1.7 3.8-3.8-1.7-3.8-3.8-3.8z"/><circle class="bst1" cx="231.7" cy="80.9" r="4.8"/><path class="bst0" d="M231.7 86.7c-3.2 0-5.8-2.6-5.8-5.8s2.6-5.8 5.8-5.8 5.8 2.6 5.8 5.8-2.6 5.8-5.8 5.8zm0-9.6c-2.1 0-3.8 1.7-3.8 3.8s1.7 3.8 3.8 3.8 3.8-1.7 3.8-3.8-1.7-3.8-3.8-3.8z"/><circle class="bst1" cx="241.3" cy="80.9" r="4.8"/><path class="bst0" d="M241.3 86.7c-3.2 0-5.8-2.6-5.8-5.8s2.6-5.8 5.8-5.8 5.8 2.6 5.8 5.8-2.6 5.8-5.8 5.8zm0-9.6c-2.1 0-3.8 1.7-3.8 3.8s1.7 3.8 3.8 3.8 3.8-1.7 3.8-3.8-1.7-3.8-3.8-3.8z"/><circle class="bst1" cx="250.9" cy="80.9" r="4.8"/><path class="bst0" d="M250.9 86.7c-3.2 0-5.8-2.6-5.8-5.8s2.6-5.8 5.8-5.8 5.8 2.6 5.8 5.8-2.5 5.8-5.8 5.8zm0-9.6c-2.1 0-3.8 1.7-3.8 3.8s1.7 3.8 3.8 3.8 3.8-1.7 3.8-3.8-1.6-3.8-3.8-3.8z"/><circle class="bst1" cx="260.6" cy="80.9" r="4.8"/><path class="bst0" d="M260.6 86.7c-3.2 0-5.8-2.6-5.8-5.8s2.6-5.8 5.8-5.8c3.2 0 5.8 2.6 5.8 5.8s-2.6 5.8-5.8 5.8zm0-9.6c-2.1 0-3.8 1.7-3.8 3.8s1.7 3.8 3.8 3.8 3.8-1.7 3.8-3.8-1.7-3.8-3.8-3.8z"/><circle class="bst1" cx="270.2" cy="80.9" r="4.8"/><path class="bst0" d="M270.2 86.7c-3.2 0-5.8-2.6-5.8-5.8s2.6-5.8 5.8-5.8 5.8 2.6 5.8 5.8-2.6 5.8-5.8 5.8zm0-9.6c-2.1 0-3.8 1.7-3.8 3.8s1.7 3.8 3.8 3.8 3.8-1.7 3.8-3.8-1.7-3.8-3.8-3.8z"/><circle class="bst1" cx="279.9" cy="80.9" r="4.8"/><path class="bst0" d="M279.9 86.7c-3.2 0-5.8-2.6-5.8-5.8s2.6-5.8 5.8-5.8 5.8 2.6 5.8 5.8-2.6 5.8-5.8 5.8zm0-9.6c-2.1 0-3.8 1.7-3.8 3.8s1.7 3.8 3.8 3.8 3.8-1.7 3.8-3.8-1.7-3.8-3.8-3.8z"/><circle class="bst1" cx="289.5" cy="80.9" r="4.8"/><path class="bst0" d="M289.5 86.7c-3.2 0-5.8-2.6-5.8-5.8s2.6-5.8 5.8-5.8 5.8 2.6 5.8 5.8-2.6 5.8-5.8 5.8zm0-9.6c-2.1 0-3.8 1.7-3.8 3.8s1.7 3.8 3.8 3.8 3.8-1.7 3.8-3.8-1.7-3.8-3.8-3.8z"/><path class="bst2" d="M393 68.7c-.6 0-1-.4-1-1v-18c0-.6.4-1 1-1s1 .4 1 1v18c0 .5-.4 1-1 1z"/><path class="bst1" d="M399 50.7h-12c-.6 0-1-.4-1-1s.4-1 1-1h12c.6 0 1 .4 1 1s-.4 1-1 1z"/><path class="bst2" d="M399 68.7c-.6 0-1-.4-1-1V49.2c0-2.5-2.2-4.5-4.9-4.5-.6 0-1-.4-1-1s.4-1 1-1c3.9 0 6.9 2.9 6.9 6.5v18.5c0 .5-.4 1-1 1z"/><path class="bst2" d="M387 68.7c-.6 0-1-.4-1-1V49.2c0-3.7 3-6.5 6.9-6.5.6 0 1 .4 1 1s-.4 1-1 1c-2.8 0-4.9 2-4.9 4.5v18.5c0 .5-.4 1-1 1z"/><path class="bst1" d="M401 68.7h-16c-.6 0-1-.4-1-1s.4-1 1-1h16c.6 0 1 .4 1 1s-.4 1-1 1z"/><path class="bst2" d="M261 68.7c-.6 0-1-.4-1-1v-18c0-.6.4-1 1-1s1 .4 1 1v18c0 .5-.4 1-1 1z"/><path class="bst1" d="M267 50.7h-12c-.6 0-1-.4-1-1s.4-1 1-1h12c.6 0 1 .4 1 1s-.4 1-1 1z"/><path class="bst2" d="M267 68.7c-.6 0-1-.4-1-1V49.2c0-2.5-2.2-4.5-5-4.5-.6 0-1-.4-1-1s.4-1 1-1c3.8 0 7 2.9 7 6.5v18.5c0 .5-.4 1-1 1z"/><path class="bst2" d="M255 68.7c-.6 0-1-.4-1-1V49.2c0-3.7 3-6.5 6.9-6.5.6 0 1 .4 1 1s-.4 1-1 1c-2.7 0-4.9 2-4.9 4.5v18.5c0 .5-.4 1-1 1z"/><path class="bst1" d="M269 68.7h-17c-.6 0-1-.4-1-1s.4-1 1-1h17c.6 0 1 .4 1 1s-.4 1-1 1z"/><path class="bst3" d="M976 203.7h13v34h-13z"/><path class="bst0" d="M989 238.7h-13c-.6 0-1-.4-1-1v-34c0-.6.4-1 1-1h13c.6 0 1 .4 1 1v34c0 .5-.4 1-1 1zm-12-2h11v-32h-11v32z"/><path class="bst1" d="M982.4 144.1l6.2 3.6h-12.3z"/><path class="bst0" d="M988.6 148.7h-12.2c-.5 0-.8-.3-1-.7-.1-.4.1-.9.5-1.1l6.1-3.5c.3-.2.7-.2 1 0l6.1 3.5c.4.2.6.7.5 1.1-.2.4-.6.7-1 .7zm-8.6-2h4.8l-2.4-1.4-2.4 1.4zm-14.9 57.2c1.2 0 2.2-.2 2.2-2.2h-4.4c0 2 .9 2.2 2.2 2.2z"/><path class="bst1" d="M965.1 204.9c-.9 0-3.2 0-3.2-3.2 0-.6.4-1 1-1h4.4c.6 0 1 .4 1 1 0 3.2-2.4 3.2-3.2 3.2zm-1-2.2c.2.2.5.2 1 .2s.8 0 1-.2h-2z"/><path class="bst0" d="M960.7 203.9c1.2 0 2.2-.2 2.2-2.2h-4.4c0 2 1 2.2 2.2 2.2z"/><path class="bst1" d="M960.7 204.9c-.9 0-3.2 0-3.2-3.2 0-.6.4-1 1-1h4.4c.6 0 1 .4 1 1 0 3.2-2.3 3.2-3.2 3.2zm-1-2.2c.2.2.5.2 1 .2s.8 0 1-.2h-2z"/><path class="bst0" d="M956.4 203.9c1.2 0 2.2-.2 2.2-2.2h-4.4c0 2 1 2.2 2.2 2.2z"/><path class="bst1" d="M956.4 204.9c-.9 0-3.2 0-3.2-3.2 0-.6.4-1 1-1h4.4c.6 0 1 .4 1 1 0 3.2-2.3 3.2-3.2 3.2zm-1-2.2c.2.2.5.2 1 .2s.8 0 1-.2h-2z"/><path class="bst0" d="M952.1 203.9c1.2 0 2.2-.2 2.2-2.2h-4.4c0 2 1 2.2 2.2 2.2z"/><path class="bst1" d="M952.1 204.9c-.9 0-3.2 0-3.2-3.2 0-.6.4-1 1-1h4.4c.6 0 1 .4 1 1 0 3.2-2.3 3.2-3.2 3.2zm-1-2.2c.2.2.5.2 1 .2s.8 0 1-.2h-2z"/><path class="bst0" d="M947.8 203.9c1.2 0 2.2-.2 2.2-2.2h-4.4c0 2 1 2.2 2.2 2.2z"/><path class="bst1" d="M947.8 204.9c-.9 0-3.2 0-3.2-3.2 0-.6.4-1 1-1h4.4c.6 0 1 .4 1 1 0 3.2-2.4 3.2-3.2 3.2zm-1-2.2c.2.2.5.2 1 .2s.8 0 1-.2h-2z"/><path class="bst0" d="M943.4 203.9c1.2 0 2.2-.2 2.2-2.2h-4.4c0 2 1 2.2 2.2 2.2z"/><path class="bst1" d="M943.4 204.9c-.9 0-3.2 0-3.2-3.2 0-.6.4-1 1-1h4.4c.6 0 1 .4 1 1 0 3.2-2.3 3.2-3.2 3.2zm-1-2.2c.2.2.5.2 1 .2s.8 0 1-.2h-2z"/><path class="bst0" d="M939.1 203.9c1.2 0 2.2-.2 2.2-2.2h-4.4c0 2 1 2.2 2.2 2.2z"/><path class="bst1" d="M939.1 204.9c-.9 0-3.2 0-3.2-3.2 0-.6.4-1 1-1h4.4c.6 0 1 .4 1 1 0 3.2-2.3 3.2-3.2 3.2zm-1-2.2c.2.2.5.2 1 .2s.8 0 1-.2h-2z"/><path class="bst0" d="M934.8 203.9c1.2 0 2.2-.2 2.2-2.2h-4.4c0 2 1 2.2 2.2 2.2z"/><path class="bst1" d="M934.8 204.9c-.9 0-3.2 0-3.2-3.2 0-.6.4-1 1-1h4.4c.6 0 1 .4 1 1 0 3.2-2.3 3.2-3.2 3.2zm-1-2.2c.2.2.5.2 1 .2s.8 0 1-.2h-2z"/><path class="bst0" d="M930.5 203.9c1.2 0 2.2-.2 2.2-2.2h-4.4c0 2 1 2.2 2.2 2.2z"/><path class="bst1" d="M930.5 204.9c-.9 0-3.2 0-3.2-3.2 0-.6.4-1 1-1h4.4c.6 0 1 .4 1 1 0 3.2-2.4 3.2-3.2 3.2zm-1-2.2c.2.2.5.2 1 .2s.8 0 1-.2h-2z"/><path class="bst0" d="M926.2 203.9c1.2 0 2.2-.2 2.2-2.2H924c0 2 .9 2.2 2.2 2.2z"/><path class="bst1" d="M926.2 204.9c-.9 0-3.2 0-3.2-3.2 0-.6.4-1 1-1h4.4c.6 0 1 .4 1 1-.1 3.2-2.4 3.2-3.2 3.2zm-1-2.2c.2.2.5.2 1 .2s.8 0 1-.2h-2z"/><path class="bst0" d="M921.8 203.9c1.2 0 2.2-.2 2.2-2.2h-4.4c0 2 1 2.2 2.2 2.2z"/><path class="bst1" d="M921.8 204.9c-.9 0-3.2 0-3.2-3.2 0-.6.4-1 1-1h4.4c.6 0 1 .4 1 1 0 3.2-2.3 3.2-3.2 3.2zm-1-2.2c.2.2.5.2 1 .2s.8 0 1-.2h-2z"/><path class="bst0" d="M1051 239.7H914c-.6 0-1-.4-1-1v-48c0-.6.4-1 1-1h137c.6 0 1 .4 1 1v48c0 .5-.4 1-1 1zm-136-2h135v-46H915v46z"/><path class="bst0" d="M968.2 222.7h-48.6c-.3 0-.5-.1-.7-.3s-.3-.4-.3-.7v-21c0-.6.4-1 1-1h48.6c.3 0 .5.1.7.3s.3.4.3.7v21c0 .5-.5 1-1 1zm-47.6-2h46.6v-19h-46.6v19zm122-16.8c1.2 0 2.2-.2 2.2-2.2h-4.4c0 2 1 2.2 2.2 2.2z"/><path class="bst1" d="M1042.6 204.9c-.9 0-3.2 0-3.2-3.2 0-.6.4-1 1-1h4.4c.6 0 1 .4 1 1 0 3.2-2.3 3.2-3.2 3.2zm-1-2.2c.2.2.5.2 1 .2s.8 0 1-.2h-2z"/><path class="bst0" d="M1038.3 203.9c1.2 0 2.2-.2 2.2-2.2h-4.4c0 2 1 2.2 2.2 2.2z"/><path class="bst1" d="M1038.3 204.9c-.9 0-3.2 0-3.2-3.2 0-.6.4-1 1-1h4.4c.6 0 1 .4 1 1 0 3.2-2.3 3.2-3.2 3.2zm-1-2.2c.2.2.5.2 1 .2s.8 0 1-.2h-2z"/><path class="bst0" d="M1034 203.9c1.2 0 2.2-.2 2.2-2.2h-4.4c0 2 1 2.2 2.2 2.2z"/><path class="bst1" d="M1034 204.9c-.9 0-3.2 0-3.2-3.2 0-.6.4-1 1-1h4.4c.6 0 1 .4 1 1 0 3.2-2.3 3.2-3.2 3.2zm-1-2.2c.2.2.5.2 1 .2s.8 0 1-.2h-2z"/><path class="bst0" d="M1029.7 203.9c1.2 0 2.2-.2 2.2-2.2h-4.4c0 2 .9 2.2 2.2 2.2z"/><path class="bst1" d="M1029.7 204.9c-.9 0-3.2 0-3.2-3.2 0-.6.4-1 1-1h4.4c.6 0 1 .4 1 1 0 3.2-2.4 3.2-3.2 3.2zm-1-2.2c.2.2.5.2 1 .2s.8 0 1-.2h-2z"/><path class="bst0" d="M1025.3 203.9c1.2 0 2.2-.2 2.2-2.2h-4.4c0 2 1 2.2 2.2 2.2z"/><path class="bst1" d="M1025.3 204.9c-.9 0-3.2 0-3.2-3.2 0-.6.4-1 1-1h4.4c.6 0 1 .4 1 1 0 3.2-2.3 3.2-3.2 3.2zm-1-2.2c.2.2.5.2 1 .2s.8 0 1-.2h-2z"/><path class="bst0" d="M1021 203.9c1.2 0 2.2-.2 2.2-2.2h-4.4c0 2 1 2.2 2.2 2.2z"/><path class="bst1" d="M1021 204.9c-.9 0-3.2 0-3.2-3.2 0-.6.4-1 1-1h4.4c.6 0 1 .4 1 1 0 3.2-2.3 3.2-3.2 3.2zm-1-2.2c.2.2.5.2 1 .2s.8 0 1-.2h-2z"/><path class="bst0" d="M1016.7 203.9c1.2 0 2.2-.2 2.2-2.2h-4.4c0 2 1 2.2 2.2 2.2z"/><path class="bst1" d="M1016.7 204.9c-.9 0-3.2 0-3.2-3.2 0-.6.4-1 1-1h4.4c.6 0 1 .4 1 1 0 3.2-2.3 3.2-3.2 3.2zm-1-2.2c.2.2.5.2 1 .2s.8 0 1-.2h-2z"/><path class="bst0" d="M1012.4 203.9c1.2 0 2.2-.2 2.2-2.2h-4.4c0 2 1 2.2 2.2 2.2z"/><path class="bst1" d="M1012.4 204.9c-.9 0-3.2 0-3.2-3.2 0-.6.4-1 1-1h4.4c.6 0 1 .4 1 1 0 3.2-2.4 3.2-3.2 3.2zm-1-2.2c.2.2.5.2 1 .2s.8 0 1-.2h-2z"/><path class="bst0" d="M1008 203.9c1.2 0 2.2-.2 2.2-2.2h-4.4c0 2 1 2.2 2.2 2.2z"/><path class="bst1" d="M1008 204.9c-.9 0-3.2 0-3.2-3.2 0-.6.4-1 1-1h4.4c.6 0 1 .4 1 1 0 3.2-2.3 3.2-3.2 3.2zm-1-2.2c.2.2.5.2 1 .2s.8 0 1-.2h-2z"/><path class="bst0" d="M1003.7 203.9c1.2 0 2.2-.2 2.2-2.2h-4.4c0 2 1 2.2 2.2 2.2z"/><path class="bst1" d="M1003.7 204.9c-.9 0-3.2 0-3.2-3.2 0-.6.4-1 1-1h4.4c.6 0 1 .4 1 1 0 3.2-2.3 3.2-3.2 3.2zm-1-2.2c.2.2.5.2 1 .2s.8 0 1-.2h-2z"/><path class="bst0" d="M999.4 203.9c1.2 0 2.2-.2 2.2-2.2h-4.4c0 2 1 2.2 2.2 2.2z"/><path class="bst1" d="M999.4 204.9c-.9 0-3.2 0-3.2-3.2 0-.6.4-1 1-1h4.4c.6 0 1 .4 1 1 0 3.2-2.3 3.2-3.2 3.2zm-1-2.2c.2.2.5.2 1 .2s.8 0 1-.2h-2z"/><path class="bst0" d="M1045.8 222.7h-48.6c-.3 0-.5-.1-.7-.3s-.3-.4-.3-.7v-21c0-.6.4-1 1-1h48.6c.3 0 .5.1.7.3s.3.4.3.7v21c0 .5-.5 1-1 1zm-47.6-2h46.6v-19h-46.6v19z"/><path class="bst2" d="M985 222.7c-.6 0-1-.4-1-1v-6c0-.6.4-1 1-1s1 .4 1 1v6c0 .5-.4 1-1 1z"/><path class="bst1" d="M976 200.7h13v3h-13z"/><path class="bst0" d="M989 204.7h-13c-.6 0-1-.4-1-1v-3c0-.6.4-1 1-1h13c.6 0 1 .4 1 1v3c0 .5-.4 1-1 1zm-12-2h11v-1h-11v1zm74-21H913c-.6 0-1-.4-1-1v-58c0-.6.4-1 1-1h138c.6 0 1 .4 1 1v58c0 .5-.4 1-1 1zm-137-2h136v-56H914v56z"/><path class="bst1" d="M919 128.7h14v3h-14z"/><path class="bst0" d="M933 132.7h-14c-.6 0-1-.4-1-1v-3c0-.6.4-1 1-1h14c.6 0 1 .4 1 1v3c0 .5-.4 1-1 1zm-13-2h12v-1h-12v1zm-1 15h14v3h-14z"/><path class="bst0" d="M933 149.7h-14c-.6 0-1-.4-1-1v-3c0-.6.4-1 1-1h14c.6 0 1 .4 1 1v3c0 .5-.4 1-1 1zm-13-2h12v-1h-12v1z"/><path class="bst0" d="M933 146.7h-14c-.6 0-1-.4-1-1v-14c0-.6.4-1 1-1h14c.6 0 1 .4 1 1v14c0 .5-.4 1-1 1zm-13-2h12v-12h-12v12zm18 1h14v3h-14z"/><path class="bst0" d="M952 149.7h-14c-.6 0-1-.4-1-1v-3c0-.6.4-1 1-1h14c.6 0 1 .4 1 1v3c0 .5-.4 1-1 1zm-13-2h12v-1h-12v1z"/><path class="bst0" d="M952 146.7h-14c-.6 0-1-.4-1-1v-14c0-.6.4-1 1-1h14c.6 0 1 .4 1 1v14c0 .5-.4 1-1 1zm-13-2h12v-12h-12v12zm19 1h14v3h-14z"/><path class="bst0" d="M972 149.7h-14c-.6 0-1-.4-1-1v-3c0-.6.4-1 1-1h14c.6 0 1 .4 1 1v3c0 .5-.4 1-1 1zm-13-2h12v-1h-12v1z"/><path class="bst0" d="M972 146.7h-14c-.6 0-1-.4-1-1v-14c0-.6.4-1 1-1h14c.6 0 1 .4 1 1v14c0 .5-.4 1-1 1zm-13-2h12v-12h-12v12z"/><path class="bst1" d="M938 128.7h14v3h-14z"/><path class="bst0" d="M952 132.7h-14c-.6 0-1-.4-1-1v-3c0-.6.4-1 1-1h14c.6 0 1 .4 1 1v3c0 .5-.4 1-1 1zm-13-2h12v-1h-12v1z"/><path class="bst1" d="M958 128.7h14v3h-14z"/><path class="bst0" d="M972 132.7h-14c-.6 0-1-.4-1-1v-3c0-.6.4-1 1-1h14c.6 0 1 .4 1 1v3c0 .5-.4 1-1 1zm-13-2h12v-1h-12v1z"/><path class="bst1" d="M919 154.7h14v3h-14z"/><path class="bst0" d="M933 158.7h-14c-.6 0-1-.4-1-1v-3c0-.6.4-1 1-1h14c.6 0 1 .4 1 1v3c0 .5-.4 1-1 1zm-13-2h12v-1h-12v1zm-7 34h-4c-.6 0-1-.4-1-1v-9c0-.6.4-1 1-1h4c.6 0 1 .4 1 1v9c0 .5-.4 1-1 1zm-3-2h2v-7h-2v7zm9-17h14v3h-14z"/><path class="bst0" d="M933 175.7h-14c-.6 0-1-.4-1-1v-3c0-.6.4-1 1-1h14c.6 0 1 .4 1 1v3c0 .5-.4 1-1 1zm-13-2h12v-1h-12v1z"/><path class="bst0" d="M933 172.7h-14c-.6 0-1-.4-1-1v-14c0-.6.4-1 1-1h14c.6 0 1 .4 1 1v14c0 .5-.4 1-1 1zm-13-2h12v-12h-12v12z"/><path class="bst1" d="M938 154.7h14v3h-14z"/><path class="bst0" d="M952 158.7h-14c-.6 0-1-.4-1-1v-3c0-.6.4-1 1-1h14c.6 0 1 .4 1 1v3c0 .5-.4 1-1 1zm-13-2h12v-1h-12v1zm-1 15h14v3h-14z"/><path class="bst0" d="M952 175.7h-14c-.6 0-1-.4-1-1v-3c0-.6.4-1 1-1h14c.6 0 1 .4 1 1v3c0 .5-.4 1-1 1zm-13-2h12v-1h-12v1z"/><path class="bst0" d="M952 172.7h-14c-.6 0-1-.4-1-1v-14c0-.6.4-1 1-1h14c.6 0 1 .4 1 1v14c0 .5-.4 1-1 1zm-13-2h12v-12h-12v12z"/><path class="bst1" d="M958 154.7h14v3h-14z"/><path class="bst0" d="M972 158.7h-14c-.6 0-1-.4-1-1v-3c0-.6.4-1 1-1h14c.6 0 1 .4 1 1v3c0 .5-.4 1-1 1zm-13-2h12v-1h-12v1zm-1 15h14v3h-14z"/><path class="bst0" d="M972 175.7h-14c-.6 0-1-.4-1-1v-3c0-.6.4-1 1-1h14c.6 0 1 .4 1 1v3c0 .5-.4 1-1 1zm-13-2h12v-1h-12v1z"/><path class="bst0" d="M972 172.7h-14c-.6 0-1-.4-1-1v-14c0-.6.4-1 1-1h14c.6 0 1 .4 1 1v14c0 .5-.4 1-1 1zm-13-2h12v-12h-12v12z"/><path class="bst1" d="M993 128.7h14v3h-14z"/><path class="bst0" d="M1007 132.7h-14c-.6 0-1-.4-1-1v-3c0-.6.4-1 1-1h14c.6 0 1 .4 1 1v3c0 .5-.4 1-1 1zm-13-2h12v-1h-12v1zm-1 15h14v3h-14z"/><path class="bst0" d="M1007 149.7h-14c-.6 0-1-.4-1-1v-3c0-.6.4-1 1-1h14c.6 0 1 .4 1 1v3c0 .5-.4 1-1 1zm-13-2h12v-1h-12v1zm-18 7h13v3h-13z"/><path class="bst0" d="M989 158.7h-13c-.6 0-1-.4-1-1v-3c0-.6.4-1 1-1h13c.6 0 1 .4 1 1v3c0 .5-.4 1-1 1zm-12-2h11v-1h-11v1zm30-10h-14c-.6 0-1-.4-1-1v-14c0-.6.4-1 1-1h14c.6 0 1 .4 1 1v14c0 .5-.4 1-1 1zm-13-2h12v-12h-12v12zm19 1h14v3h-14z"/><path class="bst0" d="M1027 149.7h-14c-.6 0-1-.4-1-1v-3c0-.6.4-1 1-1h14c.6 0 1 .4 1 1v3c0 .5-.4 1-1 1zm-13-2h12v-1h-12v1z"/><path class="bst0" d="M1027 146.7h-14c-.6 0-1-.4-1-1v-14c0-.6.4-1 1-1h14c.6 0 1 .4 1 1v14c0 .5-.4 1-1 1zm-13-2h12v-12h-12v12zm18 1h14v3h-14z"/><path class="bst0" d="M1046 149.7h-14c-.6 0-1-.4-1-1v-3c0-.6.4-1 1-1h14c.6 0 1 .4 1 1v3c0 .5-.4 1-1 1zm-13-2h12v-1h-12v1z"/><path class="bst0" d="M1046 146.7h-14c-.6 0-1-.4-1-1v-14c0-.6.4-1 1-1h14c.6 0 1 .4 1 1v14c0 .5-.4 1-1 1zm-13-2h12v-12h-12v12z"/><path class="bst1" d="M1013 128.7h14v3h-14z"/><path class="bst0" d="M1027 132.7h-14c-.6 0-1-.4-1-1v-3c0-.6.4-1 1-1h14c.6 0 1 .4 1 1v3c0 .5-.4 1-1 1zm-13-2h12v-1h-12v1z"/><path class="bst1" d="M1032 128.7h14v3h-14z"/><path class="bst0" d="M1046 132.7h-14c-.6 0-1-.4-1-1v-3c0-.6.4-1 1-1h14c.6 0 1 .4 1 1v3c0 .5-.4 1-1 1zm-13-2h12v-1h-12v1z"/><path class="bst1" d="M993 154.7h14v3h-14z"/><path class="bst0" d="M1007 158.7h-14c-.6 0-1-.4-1-1v-3c0-.6.4-1 1-1h14c.6 0 1 .4 1 1v3c0 .5-.4 1-1 1zm-13-2h12v-1h-12v1zm-1 15h14v3h-14z"/><path class="bst0" d="M1007 175.7h-14c-.6 0-1-.4-1-1v-3c0-.6.4-1 1-1h14c.6 0 1 .4 1 1v3c0 .5-.4 1-1 1zm-13-2h12v-1h-12v1z"/><path class="bst0" d="M1007 172.7h-14c-.6 0-1-.4-1-1v-14c0-.6.4-1 1-1h14c.6 0 1 .4 1 1v14c0 .5-.4 1-1 1zm-13-2h12v-12h-12v12z"/><path class="bst1" d="M1013 154.7h14v3h-14z"/><path class="bst0" d="M1027 158.7h-14c-.6 0-1-.4-1-1v-3c0-.6.4-1 1-1h14c.6 0 1 .4 1 1v3c0 .5-.4 1-1 1zm-13-2h12v-1h-12v1zm-1 15h14v3h-14z"/><path class="bst0" d="M1027 175.7h-14c-.6 0-1-.4-1-1v-3c0-.6.4-1 1-1h14c.6 0 1 .4 1 1v3c0 .5-.4 1-1 1zm-13-2h12v-1h-12v1z"/><path class="bst0" d="M1027 172.7h-14c-.6 0-1-.4-1-1v-14c0-.6.4-1 1-1h14c.6 0 1 .4 1 1v14c0 .5-.4 1-1 1zm-13-2h12v-12h-12v12z"/><path class="bst1" d="M1032 154.7h14v3h-14z"/><path class="bst0" d="M1046 158.7h-14c-.6 0-1-.4-1-1v-3c0-.6.4-1 1-1h14c.6 0 1 .4 1 1v3c0 .5-.4 1-1 1zm-13-2h12v-1h-12v1zm-1 15h14v3h-14z"/><path class="bst0" d="M1046 175.7h-14c-.6 0-1-.4-1-1v-3c0-.6.4-1 1-1h14c.6 0 1 .4 1 1v3c0 .5-.4 1-1 1zm-13-2h12v-1h-12v1z"/><path class="bst0" d="M1046 172.7h-14c-.6 0-1-.4-1-1v-14c0-.6.4-1 1-1h14c.6 0 1 .4 1 1v14c0 .5-.4 1-1 1zm-13-2h12v-12h-12v12zm-33-25c-.6 0-1-.4-1-1v-13c0-.6.4-1 1-1s1 .4 1 1v13c0 .5-.4 1-1 1zm-17.5 12.8c-.6 0-1-.4-1-1v-12.6c0-.6.4-1 1-1s1 .4 1 1v12.6c0 .6-.5 1-1 1zm37.5-12.8c-.6 0-1-.4-1-1v-13c0-.6.4-1 1-1s1 .4 1 1v13c0 .5-.4 1-1 1zm19 0c-.6 0-1-.4-1-1v-13c0-.6.4-1 1-1s1 .4 1 1v13c0 .5-.4 1-1 1zm-39 27c-.6 0-1-.4-1-1v-14c0-.6.4-1 1-1s1 .4 1 1v14c0 .5-.4 1-1 1zm20 0c-.6 0-1-.4-1-1v-14c0-.6.4-1 1-1s1 .4 1 1v14c0 .5-.4 1-1 1z"/><path class="bst0" d="M1039 172.7c-.6 0-1-.4-1-1v-14c0-.6.4-1 1-1s1 .4 1 1v14c0 .5-.4 1-1 1zm-113-27c-.6 0-1-.4-1-1v-13c0-.6.4-1 1-1s1 .4 1 1v13c0 .5-.4 1-1 1zm20 0c-.6 0-1-.4-1-1v-13c0-.6.4-1 1-1s1 .4 1 1v13c0 .5-.4 1-1 1zm19 0c-.6 0-1-.4-1-1v-13c0-.6.4-1 1-1s1 .4 1 1v13c0 .5-.4 1-1 1zm-39 27c-.6 0-1-.4-1-1v-14c0-.6.4-1 1-1s1 .4 1 1v14c0 .5-.4 1-1 1zm20 0c-.6 0-1-.4-1-1v-14c0-.6.4-1 1-1s1 .4 1 1v14c0 .5-.4 1-1 1zm19 0c-.6 0-1-.4-1-1v-14c0-.6.4-1 1-1s1 .4 1 1v14c0 .5-.4 1-1 1zm-45 49h48v2h-48z"/><path class="bst0" d="M968 224.7h-48c-.6 0-1-.4-1-1v-2c0-.6.4-1 1-1h48c.6 0 1 .4 1 1v2c0 .5-.4 1-1 1zm-47-2h46-46zm76-1h49v2h-49z"/><path class="bst0" d="M1046 224.7h-49c-.6 0-1-.4-1-1v-2c0-.6.4-1 1-1h49c.6 0 1 .4 1 1v2c0 .5-.4 1-1 1zm-48-2h47-47zm-84-42h137v9H914z"/><path class="bst0" d="M1051 190.7H914c-.6 0-1-.4-1-1v-9c0-.6.4-1 1-1h137c.6 0 1 .4 1 1v9c0 .5-.4 1-1 1zm-136-2h135v-7H915v7zm-1 44h62v5h-62z"/><path class="bst0" d="M976 238.7h-62c-.6 0-1-.4-1-1v-5c0-.6.4-1 1-1h62c.6 0 1 .4 1 1v5c0 .5-.4 1-1 1zm-61-2h60v-3h-60v3zm75-4h61v5h-61z"/><path class="bst0" d="M1051 238.7h-61c-.6 0-1-.4-1-1v-5c0-.6.4-1 1-1h61c.6 0 1 .4 1 1v5c0 .5-.4 1-1 1zm-60-2h59v-3h-59v3z"/><path class="bst0" d="M1051 232.7h6v5h-6z"/><path class="bst0" d="M1057 238.7h-6c-.6 0-1-.4-1-1v-5c0-.6.4-1 1-1h6c.6 0 1 .4 1 1v5c0 .5-.4 1-1 1zm-5-2h4v-3h-4v3z"/><path class="bst1" d="M1052 165.7h5v4h-5z"/><path class="bst0" d="M1057 170.7h-5c-.6 0-1-.4-1-1v-4c0-.6.4-1 1-1h5c.6 0 1 .4 1 1v4c0 .5-.4 1-1 1zm-4-2h3v-2h-3v2z"/><path class="bst0" d="M1063 170.7h-6c-.6 0-1-.4-1-1v-4c0-.6.4-1 1-1h6c.6 0 1 .4 1 1v4c0 .5-.4 1-1 1zm-5-2h4v-2h-4v2z"/><path class="bst1" d="M1063 165.7h6v4h-6z"/><path class="bst0" d="M1069 170.7h-6c-.6 0-1-.4-1-1v-4c0-.6.4-1 1-1h6c.6 0 1 .4 1 1v4c0 .5-.4 1-1 1zm-5-2h4v-2h-4v2z"/><path class="bst0" d="M1075 170.7h-6c-.6 0-1-.4-1-1v-4c0-.6.4-1 1-1h6c.6 0 1 .4 1 1v4c0 .5-.4 1-1 1zm-5-2h4v-2h-4v2z"/><path class="bst1" d="M1075 165.7h6v4h-6z"/><path class="bst0" d="M1081 170.7h-6c-.6 0-1-.4-1-1v-4c0-.6.4-1 1-1h6c.6 0 1 .4 1 1v4c0 .5-.4 1-1 1zm-5-2h4v-2h-4v2z"/><path class="bst0" d="M1087 170.7h-6c-.6 0-1-.4-1-1v-4c0-.6.4-1 1-1h6c.6 0 1 .4 1 1v4c0 .5-.4 1-1 1zm-5-2h4v-2h-4v2z"/><path class="bst1" d="M1087 165.7h6v4h-6z"/><path class="bst0" d="M1093 170.7h-6c-.6 0-1-.4-1-1v-4c0-.6.4-1 1-1h6c.6 0 1 .4 1 1v4c0 .5-.4 1-1 1zm-5-2h4v-2h-4v2z"/><path class="bst0" d="M1099 170.7h-6c-.6 0-1-.4-1-1v-4c0-.6.4-1 1-1h6c.6 0 1 .4 1 1v4c0 .5-.4 1-1 1zm-5-2h4v-2h-4v2z"/><path class="bst1" d="M1099 165.7h6v4h-6z"/><path class="bst0" d="M1105 170.7h-6c-.6 0-1-.4-1-1v-4c0-.6.4-1 1-1h6c.6 0 1 .4 1 1v4c0 .5-.4 1-1 1zm-5-2h4v-2h-4v2z"/><path class="bst0" d="M1111 170.7h-6c-.6 0-1-.4-1-1v-4c0-.6.4-1 1-1h6c.6 0 1 .4 1 1v4c0 .5-.4 1-1 1zm-5-2h4v-2h-4v2z"/><path class="bst1" d="M1111 165.7h6v4h-6z"/><path class="bst0" d="M1117 170.7h-6c-.6 0-1-.4-1-1v-4c0-.6.4-1 1-1h6c.6 0 1 .4 1 1v4c0 .5-.4 1-1 1zm-5-2h4v-2h-4v2zm-40 64h45v5h-45z"/><path class="bst0" d="M1117 238.7h-45c-.6 0-1-.4-1-1v-5c0-.6.4-1 1-1h45c.6 0 1 .4 1 1v5c0 .5-.4 1-1 1zm-44-2h43v-3h-43v3z"/><circle class="bst1" cx="915.2" cy="191.8" r="1.5"/><path class="bst0" d="M915.2 194.3c-1.4 0-2.5-1.1-2.5-2.5s1.1-2.5 2.5-2.5 2.5 1.1 2.5 2.5-1.1 2.5-2.5 2.5zm0-3c-.3 0-.5.2-.5.5s.2.5.5.5.5-.2.5-.5-.2-.5-.5-.5z"/><circle class="bst1" cx="918.3" cy="191.8" r="1.5"/><path class="bst0" d="M918.3 194.3c-1.4 0-2.5-1.1-2.5-2.5s1.1-2.5 2.5-2.5 2.5 1.1 2.5 2.5-1.2 2.5-2.5 2.5zm0-3c-.3 0-.5.2-.5.5s.2.5.5.5.5-.2.5-.5-.3-.5-.5-.5z"/><circle class="bst1" cx="921.3" cy="191.8" r="1.5"/><path class="bst0" d="M921.3 194.3c-1.4 0-2.5-1.1-2.5-2.5s1.1-2.5 2.5-2.5 2.5 1.1 2.5 2.5-1.1 2.5-2.5 2.5zm0-3c-.3 0-.5.2-.5.5s.2.5.5.5.5-.2.5-.5-.2-.5-.5-.5z"/><circle class="bst1" cx="924.4" cy="191.8" r="1.5"/><path class="bst0" d="M924.4 194.3c-1.4 0-2.5-1.1-2.5-2.5s1.1-2.5 2.5-2.5 2.5 1.1 2.5 2.5-1.1 2.5-2.5 2.5zm0-3c-.3 0-.5.2-.5.5s.2.5.5.5.5-.2.5-.5-.2-.5-.5-.5z"/><circle class="bst1" cx="927.4" cy="191.8" r="1.5"/><path class="bst0" d="M927.4 194.3c-1.4 0-2.5-1.1-2.5-2.5s1.1-2.5 2.5-2.5 2.5 1.1 2.5 2.5c.1 1.4-1.1 2.5-2.5 2.5zm0-3c-.3 0-.5.2-.5.5s.2.5.5.5.5-.2.5-.5-.2-.5-.5-.5z"/><circle class="bst1" cx="930.5" cy="191.8" r="1.5"/><path class="bst0" d="M930.5 194.3c-1.4 0-2.5-1.1-2.5-2.5s1.1-2.5 2.5-2.5 2.5 1.1 2.5 2.5-1.1 2.5-2.5 2.5zm0-3c-.3 0-.5.2-.5.5s.2.5.5.5.5-.2.5-.5-.2-.5-.5-.5z"/><circle class="bst1" cx="933.5" cy="191.8" r="1.5"/><path class="bst0" d="M933.5 194.3c-1.4 0-2.5-1.1-2.5-2.5s1.1-2.5 2.5-2.5 2.5 1.1 2.5 2.5c.1 1.4-1.1 2.5-2.5 2.5zm0-3c-.3 0-.5.2-.5.5s.2.5.5.5.5-.2.5-.5-.2-.5-.5-.5z"/><circle class="bst1" cx="936.6" cy="191.8" r="1.5"/><path class="bst0" d="M936.6 194.3c-1.4 0-2.5-1.1-2.5-2.5s1.1-2.5 2.5-2.5 2.5 1.1 2.5 2.5-1.1 2.5-2.5 2.5zm0-3c-.3 0-.5.2-.5.5s.2.5.5.5.5-.2.5-.5-.2-.5-.5-.5z"/><circle class="bst1" cx="939.7" cy="191.8" r="1.5"/><path class="bst0" d="M939.7 194.3c-1.4 0-2.5-1.1-2.5-2.5s1.1-2.5 2.5-2.5 2.5 1.1 2.5 2.5-1.1 2.5-2.5 2.5zm0-3c-.3 0-.5.2-.5.5s.2.5.5.5.5-.2.5-.5-.2-.5-.5-.5z"/><circle class="bst1" cx="942.7" cy="191.8" r="1.5"/><path class="bst0" d="M942.7 194.3c-1.4 0-2.5-1.1-2.5-2.5s1.1-2.5 2.5-2.5 2.5 1.1 2.5 2.5c.1 1.4-1.1 2.5-2.5 2.5zm0-3c-.3 0-.5.2-.5.5s.2.5.5.5.5-.2.5-.5-.2-.5-.5-.5z"/><circle class="bst1" cx="945.8" cy="191.8" r="1.5"/><path class="bst0" d="M945.8 194.3c-1.4 0-2.5-1.1-2.5-2.5s1.1-2.5 2.5-2.5 2.5 1.1 2.5 2.5-1.1 2.5-2.5 2.5zm0-3c-.3 0-.5.2-.5.5s.2.5.5.5.5-.2.5-.5-.2-.5-.5-.5z"/><circle class="bst1" cx="948.8" cy="191.8" r="1.5"/><path class="bst0" d="M948.8 194.3c-1.4 0-2.5-1.1-2.5-2.5s1.1-2.5 2.5-2.5 2.5 1.1 2.5 2.5c.1 1.4-1.1 2.5-2.5 2.5zm0-3c-.3 0-.5.2-.5.5s.2.5.5.5.5-.2.5-.5-.2-.5-.5-.5z"/><circle class="bst1" cx="951.9" cy="191.8" r="1.5"/><path class="bst0" d="M951.9 194.3c-1.4 0-2.5-1.1-2.5-2.5s1.1-2.5 2.5-2.5 2.5 1.1 2.5 2.5-1.1 2.5-2.5 2.5zm0-3c-.3 0-.5.2-.5.5s.2.5.5.5.5-.2.5-.5-.2-.5-.5-.5z"/><circle class="bst1" cx="955" cy="191.8" r="1.5"/><path class="bst0" d="M955 194.3c-1.4 0-2.5-1.1-2.5-2.5s1.1-2.5 2.5-2.5 2.5 1.1 2.5 2.5-1.1 2.5-2.5 2.5zm0-3c-.3 0-.5.2-.5.5s.2.5.5.5.5-.2.5-.5-.2-.5-.5-.5z"/><circle class="bst1" cx="958" cy="191.8" r="1.5"/><path class="bst0" d="M958 194.3c-1.4 0-2.5-1.1-2.5-2.5s1.1-2.5 2.5-2.5 2.5 1.1 2.5 2.5c.1 1.4-1.1 2.5-2.5 2.5zm0-3c-.3 0-.5.2-.5.5s.2.5.5.5.5-.2.5-.5-.2-.5-.5-.5z"/><circle class="bst1" cx="961.1" cy="191.8" r="1.5"/><path class="bst0" d="M961.1 194.3c-1.4 0-2.5-1.1-2.5-2.5s1.1-2.5 2.5-2.5 2.5 1.1 2.5 2.5-1.1 2.5-2.5 2.5zm0-3c-.3 0-.5.2-.5.5s.2.5.5.5.5-.2.5-.5-.2-.5-.5-.5z"/><circle class="bst1" cx="964.1" cy="191.8" r="1.5"/><path class="bst0" d="M964.1 194.3c-1.4 0-2.5-1.1-2.5-2.5s1.1-2.5 2.5-2.5 2.5 1.1 2.5 2.5c.1 1.4-1.1 2.5-2.5 2.5zm0-3c-.3 0-.5.2-.5.5s.2.5.5.5.5-.2.5-.5-.2-.5-.5-.5z"/><circle class="bst1" cx="967.2" cy="191.8" r="1.5"/><path class="bst0" d="M967.2 194.3c-1.4 0-2.5-1.1-2.5-2.5s1.1-2.5 2.5-2.5 2.5 1.1 2.5 2.5-1.1 2.5-2.5 2.5zm0-3c-.3 0-.5.2-.5.5s.2.5.5.5.5-.2.5-.5-.2-.5-.5-.5z"/><circle class="bst1" cx="970.3" cy="191.8" r="1.5"/><path class="bst0" d="M970.3 194.3c-1.4 0-2.5-1.1-2.5-2.5s1.1-2.5 2.5-2.5 2.5 1.1 2.5 2.5-1.1 2.5-2.5 2.5zm0-3c-.3 0-.5.2-.5.5s.2.5.5.5.5-.2.5-.5-.2-.5-.5-.5z"/><circle class="bst1" cx="973.3" cy="191.8" r="1.5"/><path class="bst0" d="M973.3 194.3c-1.4 0-2.5-1.1-2.5-2.5s1.1-2.5 2.5-2.5 2.5 1.1 2.5 2.5c.1 1.4-1.1 2.5-2.5 2.5zm0-3c-.3 0-.5.2-.5.5s.2.5.5.5.5-.2.5-.5-.2-.5-.5-.5z"/><circle class="bst1" cx="976.4" cy="191.8" r="1.5"/><path class="bst0" d="M976.4 194.3c-1.4 0-2.5-1.1-2.5-2.5s1.1-2.5 2.5-2.5 2.5 1.1 2.5 2.5-1.1 2.5-2.5 2.5zm0-3c-.3 0-.5.2-.5.5s.2.5.5.5.5-.2.5-.5-.2-.5-.5-.5z"/><circle class="bst1" cx="979.4" cy="191.8" r="1.5"/><path class="bst0" d="M979.4 194.3c-1.4 0-2.5-1.1-2.5-2.5s1.1-2.5 2.5-2.5 2.5 1.1 2.5 2.5c.1 1.4-1.1 2.5-2.5 2.5zm0-3c-.3 0-.5.2-.5.5s.2.5.5.5.5-.2.5-.5-.2-.5-.5-.5z"/><circle class="bst1" cx="982.5" cy="191.8" r="1.5"/><path class="bst0" d="M982.5 194.3c-1.4 0-2.5-1.1-2.5-2.5s1.1-2.5 2.5-2.5 2.5 1.1 2.5 2.5-1.1 2.5-2.5 2.5zm0-3c-.3 0-.5.2-.5.5s.2.5.5.5.5-.2.5-.5-.2-.5-.5-.5z"/><circle class="bst1" cx="985.6" cy="191.8" r="1.5"/><path class="bst0" d="M985.6 194.3c-1.4 0-2.5-1.1-2.5-2.5s1.1-2.5 2.5-2.5 2.5 1.1 2.5 2.5-1.1 2.5-2.5 2.5zm0-3c-.3 0-.5.2-.5.5s.2.5.5.5.5-.2.5-.5-.2-.5-.5-.5z"/><circle class="bst1" cx="988.6" cy="191.8" r="1.5"/><path class="bst0" d="M988.6 194.3c-1.4 0-2.5-1.1-2.5-2.5s1.1-2.5 2.5-2.5 2.5 1.1 2.5 2.5c.1 1.4-1.1 2.5-2.5 2.5zm0-3c-.3 0-.5.2-.5.5s.2.5.5.5.5-.2.5-.5-.2-.5-.5-.5z"/><circle class="bst1" cx="991.7" cy="191.8" r="1.5"/><path class="bst0" d="M991.7 194.3c-1.4 0-2.5-1.1-2.5-2.5s1.1-2.5 2.5-2.5 2.5 1.1 2.5 2.5-1.1 2.5-2.5 2.5zm0-3c-.3 0-.5.2-.5.5s.2.5.5.5.5-.2.5-.5-.2-.5-.5-.5z"/><circle class="bst1" cx="994.7" cy="191.8" r="1.5"/><path class="bst0" d="M994.7 194.3c-1.4 0-2.5-1.1-2.5-2.5s1.1-2.5 2.5-2.5 2.5 1.1 2.5 2.5c.1 1.4-1.1 2.5-2.5 2.5zm0-3c-.3 0-.5.2-.5.5s.2.5.5.5.5-.2.5-.5-.2-.5-.5-.5z"/><circle class="bst1" cx="997.8" cy="191.8" r="1.5"/><path class="bst0" d="M997.8 194.3c-1.4 0-2.5-1.1-2.5-2.5s1.1-2.5 2.5-2.5 2.5 1.1 2.5 2.5-1.1 2.5-2.5 2.5zm0-3c-.3 0-.5.2-.5.5s.2.5.5.5.5-.2.5-.5-.2-.5-.5-.5z"/><circle class="bst1" cx="1000.9" cy="191.8" r="1.5"/><path class="bst0" d="M1000.9 194.3c-1.4 0-2.5-1.1-2.5-2.5s1.1-2.5 2.5-2.5 2.5 1.1 2.5 2.5-1.1 2.5-2.5 2.5zm0-3c-.3 0-.5.2-.5.5s.2.5.5.5.5-.2.5-.5-.2-.5-.5-.5z"/><circle class="bst1" cx="1003.9" cy="191.8" r="1.5"/><path class="bst0" d="M1003.9 194.3c-1.4 0-2.5-1.1-2.5-2.5s1.1-2.5 2.5-2.5 2.5 1.1 2.5 2.5c.1 1.4-1.1 2.5-2.5 2.5zm0-3c-.3 0-.5.2-.5.5s.2.5.5.5.5-.2.5-.5-.2-.5-.5-.5z"/><circle class="bst1" cx="1007" cy="191.8" r="1.5"/><path class="bst0" d="M1007 194.3c-1.4 0-2.5-1.1-2.5-2.5s1.1-2.5 2.5-2.5 2.5 1.1 2.5 2.5-1.1 2.5-2.5 2.5zm0-3c-.3 0-.5.2-.5.5s.2.5.5.5.5-.2.5-.5-.2-.5-.5-.5z"/><circle class="bst1" cx="1010" cy="191.8" r="1.5"/><path class="bst0" d="M1010 194.3c-1.4 0-2.5-1.1-2.5-2.5s1.1-2.5 2.5-2.5 2.5 1.1 2.5 2.5c.1 1.4-1.1 2.5-2.5 2.5zm0-3c-.3 0-.5.2-.5.5s.2.5.5.5.5-.2.5-.5-.2-.5-.5-.5z"/><circle class="bst1" cx="1013.1" cy="191.8" r="1.5"/><path class="bst0" d="M1013.1 194.3c-1.4 0-2.5-1.1-2.5-2.5s1.1-2.5 2.5-2.5 2.5 1.1 2.5 2.5-1.1 2.5-2.5 2.5zm0-3c-.3 0-.5.2-.5.5s.2.5.5.5.5-.2.5-.5-.2-.5-.5-.5z"/><circle class="bst1" cx="1016.2" cy="191.8" r="1.5"/><path class="bst0" d="M1016.2 194.3c-1.4 0-2.5-1.1-2.5-2.5s1.1-2.5 2.5-2.5 2.5 1.1 2.5 2.5-1.1 2.5-2.5 2.5zm0-3c-.3 0-.5.2-.5.5s.2.5.5.5.5-.2.5-.5-.2-.5-.5-.5z"/><circle class="bst1" cx="1019.2" cy="191.8" r="1.5"/><path class="bst0" d="M1019.2 194.3c-1.4 0-2.5-1.1-2.5-2.5s1.1-2.5 2.5-2.5 2.5 1.1 2.5 2.5-1.1 2.5-2.5 2.5zm0-3c-.3 0-.5.2-.5.5s.2.5.5.5.5-.2.5-.5-.2-.5-.5-.5z"/><circle class="bst1" cx="1022.3" cy="191.8" r="1.5"/><path class="bst0" d="M1022.3 194.3c-1.4 0-2.5-1.1-2.5-2.5s1.1-2.5 2.5-2.5 2.5 1.1 2.5 2.5-1.1 2.5-2.5 2.5zm0-3c-.3 0-.5.2-.5.5s.2.5.5.5.5-.2.5-.5-.2-.5-.5-.5z"/><circle class="bst1" cx="1025.3" cy="191.8" r="1.5"/><path class="bst0" d="M1025.3 194.3c-1.4 0-2.5-1.1-2.5-2.5s1.1-2.5 2.5-2.5 2.5 1.1 2.5 2.5c.1 1.4-1.1 2.5-2.5 2.5zm0-3c-.3 0-.5.2-.5.5s.2.5.5.5.5-.2.5-.5-.2-.5-.5-.5z"/><circle class="bst1" cx="1028.4" cy="191.8" r="1.5"/><path class="bst0" d="M1028.4 194.3c-1.4 0-2.5-1.1-2.5-2.5s1.1-2.5 2.5-2.5 2.5 1.1 2.5 2.5-1.1 2.5-2.5 2.5zm0-3c-.3 0-.5.2-.5.5s.2.5.5.5.5-.2.5-.5-.2-.5-.5-.5z"/><circle class="bst1" cx="1031.5" cy="191.8" r="1.5"/><path class="bst0" d="M1031.5 194.3c-1.4 0-2.5-1.1-2.5-2.5s1.1-2.5 2.5-2.5 2.5 1.1 2.5 2.5-1.1 2.5-2.5 2.5zm0-3c-.3 0-.5.2-.5.5s.2.5.5.5.5-.2.5-.5-.3-.5-.5-.5z"/><circle class="bst1" cx="1034.5" cy="191.8" r="1.5"/><path class="bst0" d="M1034.5 194.3c-1.4 0-2.5-1.1-2.5-2.5s1.1-2.5 2.5-2.5 2.5 1.1 2.5 2.5-1.1 2.5-2.5 2.5zm0-3c-.3 0-.5.2-.5.5s.2.5.5.5.5-.2.5-.5-.2-.5-.5-.5z"/><circle class="bst1" cx="1037.6" cy="191.8" r="1.5"/><path class="bst0" d="M1037.6 194.3c-1.4 0-2.5-1.1-2.5-2.5s1.1-2.5 2.5-2.5 2.5 1.1 2.5 2.5-1.1 2.5-2.5 2.5zm0-3c-.3 0-.5.2-.5.5s.2.5.5.5.5-.2.5-.5-.2-.5-.5-.5z"/><circle class="bst1" cx="1040.6" cy="191.8" r="1.5"/><path class="bst0" d="M1040.6 194.3c-1.4 0-2.5-1.1-2.5-2.5s1.1-2.5 2.5-2.5 2.5 1.1 2.5 2.5c.1 1.4-1.1 2.5-2.5 2.5zm0-3c-.3 0-.5.2-.5.5s.2.5.5.5.5-.2.5-.5-.2-.5-.5-.5z"/><circle class="bst1" cx="1043.7" cy="191.8" r="1.5"/><path class="bst0" d="M1043.7 194.3c-1.4 0-2.5-1.1-2.5-2.5s1.1-2.5 2.5-2.5 2.5 1.1 2.5 2.5-1.1 2.5-2.5 2.5zm0-3c-.3 0-.5.2-.5.5s.2.5.5.5.5-.2.5-.5-.2-.5-.5-.5z"/><circle class="bst1" cx="1046.8" cy="191.8" r="1.5"/><path class="bst0" d="M1046.8 194.3c-1.4 0-2.5-1.1-2.5-2.5s1.1-2.5 2.5-2.5 2.5 1.1 2.5 2.5-1.1 2.5-2.5 2.5zm0-3c-.3 0-.5.2-.5.5s.2.5.5.5.5-.2.5-.5-.3-.5-.5-.5z"/><circle class="bst1" cx="1049.8" cy="191.8" r="1.5"/><path class="bst0" d="M1049.8 194.3c-1.4 0-2.5-1.1-2.5-2.5s1.1-2.5 2.5-2.5 2.5 1.1 2.5 2.5-1.1 2.5-2.5 2.5zm0-3c-.3 0-.5.2-.5.5s.2.5.5.5.5-.2.5-.5-.2-.5-.5-.5z"/><path class="bst1" d="M1051.5 122.7h-138l-3-6h144z"/><path class="bst0" d="M1051.5 123.7h-138c-.4 0-.7-.2-.9-.6l-2.9-6c-.2-.3-.1-.7 0-1s.5-.5.8-.5h144c.3 0 .7.2.8.5s.2.7 0 1l-2.9 6c-.1.4-.5.6-.9.6zm-137.4-2h136.8l2-4H912.1l2 4z"/><path class="bst1" d="M909 181.4l-4.4 4.3v-3.6l4.4-4.3zm0 7.9l-4.4 4.3v-3.7l4.4-4.3z"/><path class="bst0" d="M907 195.7c-1.7 0-3-1.3-3-3v-14c0-1.7 1.3-3 3-3s3 1.3 3 3v14c0 1.6-1.3 3-3 3zm0-18c-.6 0-1 .4-1 1v14c0 .6.4 1 1 1s1-.4 1-1v-14c0-.6-.4-1-1-1zm210 62h-65c-.6 0-1-.4-1-1v-69c0-.6.4-1 1-1h65c.6 0 1 .4 1 1v69c0 .5-.4 1-1 1zm-64-2h63v-67h-63v67z"/><path class="bst1" d="M1081 200.7h30v3h-30z"/><path class="bst0" d="M1111 204.7h-30c-.6 0-1-.4-1-1v-3c0-.6.4-1 1-1h30c.6 0 1 .4 1 1v3c0 .5-.4 1-1 1zm-29-2h28v-1h-28v1z"/><path class="bst0" d="M1111.5 224.7h-30.6c-.3 0-.4-.1-.6-.3s-.2-.4-.2-.7v-20c0-.6.3-1 .8-1h30.6c.3 0 .5.1.7.3s.3.4.3.7v20c0 .5-.5 1-1 1zm-29.5-2h28.5v-18H1082v18z"/><path class="bst3" d="M1057 203.7h15v35h-15z"/><path class="bst0" d="M1072 239.7h-15c-.6 0-1-.4-1-1v-35c0-.6.4-1 1-1h15c.6 0 1 .4 1 1v35c0 .5-.4 1-1 1zm-14-2h13v-33h-13v33z"/><path class="bst2" d="M1057 200.7h15v3h-15z"/><path class="bst0" d="M1072 204.7h-15c-.6 0-1-.4-1-1v-3c0-.6.4-1 1-1h15c.6 0 1 .4 1 1v3c0 .5-.4 1-1 1zm-14-2h13v-1h-13v1zm59-32h-65c-.6 0-1-.4-1-1v-4c0-.6.4-1 1-1h65c.6 0 1 .4 1 1v4c0 .5-.4 1-1 1zm-64-2h63v-2h-63v2zm19 53h-15c-.6 0-1-.4-1-1s.4-1 1-1h15c.6 0 1 .4 1 1s-.4 1-1 1zm0 10h-15c-.6 0-1-.4-1-1s.4-1 1-1h15c.6 0 1 .4 1 1s-.4 1-1 1zm-83-73h-13c-.6 0-1-.4-1-1v-9c0-.6.4-1 1-1h13c.6 0 1 .4 1 1v9c0 .5-.4 1-1 1zm-12-2h11v-7h-11v7zm80 33h54v3h-54z"/><path class="bst0" d="M1111 193.7h-54c-.6 0-1-.4-1-1v-3c0-.6.4-1 1-1h54c.6 0 1 .4 1 1v3c0 .5-.4 1-1 1zm-53-2h52v-1h-52v1z"/><path class="bst0" d="M1099 191c-.6 0-1-.4-1-1v-13c0-.6.4-1 1-1s1 .4 1 1v13c0 .6-.4 1-1 1zm-13.9 0c-.6 0-1-.4-1-1v-13c0-.6.4-1 1-1s1 .4 1 1v13c0 .6-.5 1-1 1zm-14 0c-.6 0-1-.4-1-1v-13c0-.6.4-1 1-1s1 .4 1 1v13c0 .6-.4 1-1 1z"/><path class="bst0" d="M1111 193.7h-54c-.6 0-1-.4-1-1v-16c0-.6.4-1 1-1h54c.6 0 1 .4 1 1v16c0 .5-.4 1-1 1zm-53-2h52v-14h-52v14zm-75.5-82.2l72 7.2h-144z"/><path class="bst0" d="M1054.5 117.7h-144c-.5 0-1-.4-1-.9s.4-1 .9-1l72-7.2h.2l72 7.2c.5.1.9.5.9 1s-.5.9-1 .9zm-124-2h104.1l-52-5.2-52.1 5.2z"/><path class="bst1" d="M1046 187.7H919c-.6 0-1-.4-1-1s.4-1 1-1h127c.6 0 1 .4 1 1s-.4 1-1 1zm65-7h-54c-.6 0-1-.4-1-1s.4-1 1-1h54c.6 0 1 .4 1 1s-.4 1-1 1zm-11 35h-7c-1.1 0-2-.9-2-2s.9-2 2-2h7c1.1 0 2 .9 2 2s-.9 2-2 2z"/><path class="bst1" d="M1090.5 218.3c-2.3 0-2.5-1.3-2.5-1.9v-5.2c0-.6.2-1.9 2.5-1.9s2.5 1.3 2.5 1.9v5.2c0 .6-.2 1.9-2.5 1.9zm.5-1.9h1-1zm-1-.2h1v-4.8h-1v4.8zm12.5 2.1c-1.4 0-2.5-.8-2.5-1.9v-5.2c0-1 1.1-1.9 2.5-1.9s2.5.8 2.5 1.9v5.2c0 1.1-1.1 1.9-2.5 1.9zm-.5-2.1c.2.1.8.1 1 0v-4.7c-.2-.1-.8-.1-1 0v4.7z"/><path class="bst1" d="M1087.9 215.7c-1.1 0-1.9-.7-1.9-1.9s.8-1.9 1.9-1.9c.6 0 1.1.4 1.1 1v1.7c0 .7-.5 1.1-1.1 1.1zm17 0c-.6 0-.9-.4-.9-1V213c0-.6.4-1 .9-1 1.1 0 1.9.7 1.9 1.9s-.7 1.8-1.9 1.8z"/><path class="bst2" d="M1069 218.5c-.6 0-1-.4-1-1v-1.7c0-.6.4-1 1-1s1 .4 1 1v1.7c0 .5-.4 1-1 1z"/><path class="bst1" d="M41 226.7h127v5H41z"/><path class="bst0" d="M168 232.7H41c-.6 0-1-.4-1-1v-5c0-.6.4-1 1-1h127c.6 0 1 .4 1 1v5c0 .5-.4 1-1 1zm-126-2h125v-3H42v3zm9-53h107v5H51z"/><path class="bst0" d="M158 183.7H51c-.6 0-1-.4-1-1v-5c0-.6.4-1 1-1h107c.6 0 1 .4 1 1v5c0 .5-.4 1-1 1zm-106-2h105v-3H52v3zm-38-4h18v5H14z"/><path class="bst0" d="M32 183.7H14c-.6 0-1-.4-1-1v-5c0-.6.4-1 1-1h18c.6 0 1 .4 1 1v5c0 .5-.4 1-1 1zm-17-2h16v-3H15v3zm1-41h14v5H16z"/><path class="bst0" d="M30 146.7H16c-.6 0-1-.4-1-1v-5c0-.6.4-1 1-1h14c.6 0 1 .4 1 1v5c0 .5-.4 1-1 1zm-13-2h12v-3H17v3zm76.4 63H51.6c-.6 0-1-.4-1-1 0-9 10.2-16.9 21.9-16.9s21.9 7.9 21.9 16.9c0 .5-.5 1-1 1zm-40.8-2h39.7c-.8-8-10.8-13.9-19.8-13.9s-19.1 5.9-19.9 13.9z"/><path class="bst0" d="M168 238.7H41c-.6 0-1-.4-1-1v-98c0-.6.4-1 1-1h127c.6 0 1 .4 1 1v98c0 .5-.4 1-1 1zm-126-2h125v-96H42v96z"/><path class="bst1" d="M52 161.7h13v3H52z"/><path class="bst0" d="M65 165.7H52c-.6 0-1-.4-1-1v-3c0-.6.4-1 1-1h13c.6 0 1 .4 1 1v3c0 .5-.4 1-1 1zm-12-2h11v-1H53v1zm0 14h14v4H53z"/><path class="bst0" d="M67 182.7H53c-.6 0-1-.4-1-1v-4c0-.6.4-1 1-1h14c.6 0 1 .4 1 1v4c0 .5-.4 1-1 1zm-13-2h12v-2H54v2z"/><path class="bst0" d="M65 178.7H52c-.6 0-1-.4-1-1v-13c0-.6.4-1 1-1h13c.6 0 1 .4 1 1v13c0 .5-.4 1-1 1zm-12-2h11v-11H53v11z"/><path class="bst0" d="M59 178.7c-.6 0-1-.4-1-1v-13c0-.6.4-1 1-1s1 .4 1 1v13c0 .5-.4 1-1 1z"/><path class="bst1" d="M16 123.7h14v3H16z"/><path class="bst0" d="M30 127.7H16c-.6 0-1-.4-1-1v-3c0-.6.4-1 1-1h14c.6 0 1 .4 1 1v3c0 .5-.4 1-1 1zm-13-2h12v-1H17v1z"/><path class="bst0" d="M30 141.7H16c-.6 0-1-.4-1-1v-14c0-.6.4-1 1-1h14c.6 0 1 .4 1 1v14c0 .5-.4 1-1 1zm-13-2h12v-12H17v12z"/><path class="bst0" d="M23 141.7c-.6 0-1-.4-1-1v-13c0-.6.4-1 1-1s1 .4 1 1v13c0 .5-.4 1-1 1z"/><path class="bst1" d="M79 161.7h14v3H79z"/><path class="bst0" d="M93 165.7H79c-.6 0-1-.4-1-1v-3c0-.6.4-1 1-1h14c.6 0 1 .4 1 1v3c0 .5-.4 1-1 1zm-13-2h12v-1H80v1zm1 14h14v4H81z"/><path class="bst0" d="M95 182.7H81c-.6 0-1-.4-1-1v-4c0-.6.4-1 1-1h14c.6 0 1 .4 1 1v4c0 .5-.4 1-1 1zm-13-2h12v-2H82v2z"/><path class="bst0" d="M93 178.7H79c-.6 0-1-.4-1-1v-13c0-.6.4-1 1-1h14c.6 0 1 .4 1 1v13c0 .5-.4 1-1 1zm-13-2h12v-11H80v11z"/><path class="bst0" d="M86 178.7c-.6 0-1-.4-1-1v-13c0-.6.4-1 1-1s1 .4 1 1v13c0 .5-.4 1-1 1zm-27 29c-.6 0-1-.4-1-1v-11c0-.6.4-1 1-1s1 .4 1 1v11c0 .5-.4 1-1 1zm6 0c-.6 0-1-.4-1-1v-15c0-.6.4-1 1-1s1 .4 1 1v15c0 .5-.4 1-1 1zm7.5-16.8l-.1 41.7m0 1.1c-.6 0-1-.5-1-1l.1-41.8c0-.6.4-1.1 1-1.1s1 .6 1 1.1l-.1 41.8c0 .4-.5 1-1 1zm6.6-26c-.6 0-1-.4-1-1v-15c0-.6.4-1 1-1s1 .4 1 1v15c0 .5-.4 1-1 1zm7 0c-.6 0-1-.4-1-1v-12c0-.6.4-1 1-1s1 .4 1 1v12c0 .5-.4 1-1 1z"/><path class="bst1" d="M52 206.7h20v31H52z"/><path class="bst0" d="M72 238.7H52c-.6 0-1-.4-1-1v-31c0-.6.4-1 1-1h20c.6 0 1 .4 1 1v31c0 .5-.4 1-1 1zm-19-2h18v-29H53v29z"/><path class="bst1" d="M72 206.7h21v31H72z"/><path class="bst0" d="M93 238.7H72c-.6 0-1-.4-1-1v-31c0-.6.4-1 1-1h21c.6 0 1 .4 1 1v31c0 .5-.4 1-1 1zm-20-2h19v-29H73v29z"/><path class="bst0" d="M52 233.7h41v4H52z"/><path class="bst0" d="M93 238.7H52c-.6 0-1-.4-1-1v-4c0-.6.4-1 1-1h41c.6 0 1 .4 1 1v4c0 .5-.4 1-1 1zm-40-2h39v-2H53v2z"/><path class="bst1" d="M41 134.7h127v5H41z"/><path class="bst0" d="M168 140.7H41c-.6 0-1-.4-1-1v-5c0-.6.4-1 1-1h127c.6 0 1 .4 1 1v5c0 .5-.4 1-1 1zm-126-2h125v-3H42v3z"/><path class="bst0" d="M52 129.7h106v5H52z"/><path class="bst0" d="M158 135.7H52c-.6 0-1-.4-1-1v-5c0-.6.4-1 1-1h106c.6 0 1 .4 1 1v5c0 .5-.4 1-1 1zm-105-2h104v-3H53v3zm34 63H58c-.6 0-1-.4-1-1s.4-1 1-1h29c.6 0 1 .4 1 1s-.4 1-1 1zm5 6H53c-.6 0-1-.4-1-1s.4-1 1-1h39c.6 0 1 .4 1 1s-.4 1-1 1zm-16-51h-8c-.6 0-1-.4-1-1s.4-1 1-1h8c.6 0 1 .4 1 1s-.4 1-1 1z"/><path class="bst0" d="M72 156.7c-.6 0-1-.4-1-1v-9c0-.6.4-1 1-1s1 .4 1 1v9c0 .5-.4 1-1 1z"/><path class="bst0" d="M72.3 156.3c-2.9 0-5.3-2.4-5.3-5.2 0-2.9 2.4-5.3 5.3-5.3s5.3 2.4 5.3 5.3c0 2.8-2.4 5.2-5.3 5.2zm0-8.5c-1.8 0-3.3 1.5-3.3 3.3 0 1.8 1.5 3.2 3.3 3.2s3.3-1.5 3.3-3.2c0-1.9-1.5-3.3-3.3-3.3zm36.7 3.9h-9c-.6 0-1-.4-1-1s.4-1 1-1h9c.6 0 1 .4 1 1s-.4 1-1 1z"/><path class="bst0" d="M105 156.7c-.6 0-1-.4-1-1v-9c0-.6.4-1 1-1s1 .4 1 1v9c0 .5-.4 1-1 1z"/><path class="bst0" d="M104.7 156.3c-2.9 0-5.3-2.4-5.3-5.2 0-2.9 2.4-5.3 5.3-5.3s5.3 2.4 5.3 5.3c-.1 2.8-2.4 5.2-5.3 5.2zm0-8.5c-1.8 0-3.3 1.5-3.3 3.3 0 1.8 1.5 3.2 3.3 3.2s3.3-1.5 3.3-3.2c-.1-1.9-1.5-3.3-3.3-3.3z"/><path class="bst1" d="M14 196.7h18v31H14z"/><path class="bst0" d="M32 228.7H14c-.6 0-1-.4-1-1v-31c0-.6.4-1 1-1h18c.6 0 1 .4 1 1v31c0 .5-.4 1-1 1zm-17-2h16v-29H15v29z"/><path class="bst0" d="M36 232.7H10c-.6 0-1-.4-1-1v-4c0-.6.4-1 1-1h26c.6 0 1 .4 1 1v4c0 .5-.4 1-1 1zm-25-2h24v-2H11v2z"/><path class="bst0" d="M39 235.7H7c-.6 0-1-.4-1-1v-3c0-.6.4-1 1-1h32c.6 0 1 .4 1 1v3c0 .5-.4 1-1 1zm-31-2h30v-1H8v1z"/><path class="bst0" d="M41 239.7H5c-.6 0-1-.4-1-1v-4c0-.6.4-1 1-1h36c.6 0 1 .4 1 1v4c0 .5-.4 1-1 1zm-35-2h34v-2H6v2z"/><path class="bst2" d="M17 200.7h12v9H17z"/><path class="bst0" d="M29 210.7H17c-.6 0-1-.4-1-1v-9c0-.6.4-1 1-1h12c.6 0 1 .4 1 1v9c0 .5-.4 1-1 1zm-11-2h10v-7H18v7z"/><path class="bst1" d="M131 109.7h-14c-.6 0-1-.4-1-1s.4-1 1-1h14c.6 0 1 .4 1 1s-.4 1-1 1zm0-6h-14c-.6 0-1-.4-1-1s.4-1 1-1h14c.6 0 1 .4 1 1s-.4 1-1 1zm0 3h-14c-.6 0-1-.4-1-1s.4-1 1-1h14c.6 0 1 .4 1 1s-.4 1-1 1zm0 6h-26c-.6 0-1-.4-1-1s.4-1 1-1h26c.6 0 1 .4 1 1s-.4 1-1 1zm0 3h-26c-.6 0-1-.4-1-1s.4-1 1-1h26c.6 0 1 .4 1 1s-.4 1-1 1z"/><path class="bst0" d="M131 118.7h-26c-.6 0-1-.4-1-1v-18c0-.6.4-1 1-1h26c.6 0 1 .4 1 1v18c0 .5-.4 1-1 1zm-25-2h24v-16h-24v16z"/><path class="bst0" d="M105 238.7c-.6 0-1-.4-1-1v-138c0-.6.4-1 1-1s1 .4 1 1v138c0 .5-.4 1-1 1z"/><path class="bst0" d="M105 99.7h13v9h-13z"/><path class="bst0" d="M118 109.7h-13c-.6 0-1-.4-1-1v-9c0-.6.4-1 1-1h13c.6 0 1 .4 1 1v9c0 .5-.4 1-1 1zm-12-2h11v-7h-11v7z"/><path class="bst1" d="M41 163.7H5c-.6 0-1-.4-1-1v-7c0-.6.4-1 1-1h36c.6 0 1 .4 1 1v7c0 .5-.4 1-1 1zm-35-2h34v-5H6v5z"/><path class="bst0" d="M22.9 102.7l18.2 14H4.8z"/><path class="bst0" d="M41.1 117.7H4.8c-.4 0-.8-.3-.9-.7-.1-.4 0-.9.3-1.1l18.2-14c.4-.3.9-.3 1.2 0l18.2 14c.3.3.5.7.3 1.1-.2.4-.5.7-1 .7zm-33.4-2h30.5L22.9 104 7.7 115.7z"/><path class="bst0" d="M41 238.7H5c-.6 0-1-.4-1-1v-121c0-.6.4-1 1-1h36c.6 0 1 .4 1 1v121c0 .5-.4 1-1 1zm-35-2h34v-119H6v119zm151.8-29H116c-.6 0-1-.4-1-1 0-9 10.2-16.9 21.9-16.9s21.9 7.9 21.9 16.9c0 .5-.5 1-1 1zm-40.8-2h39.7c-.8-8-10.8-13.9-19.8-13.9s-19.1 5.9-19.9 13.9z"/><path class="bst1" d="M116 161.7h14v3h-14z"/><path class="bst0" d="M130 165.7h-14c-.6 0-1-.4-1-1v-3c0-.6.4-1 1-1h14c.6 0 1 .4 1 1v3c0 .5-.4 1-1 1zm-13-2h12v-1h-12v1zm-1 14h14v4h-14z"/><path class="bst0" d="M130 182.7h-14c-.6 0-1-.4-1-1v-4c0-.6.4-1 1-1h14c.6 0 1 .4 1 1v4c0 .5-.4 1-1 1zm-13-2h12v-2h-12v2z"/><path class="bst0" d="M130 178.7h-14c-.6 0-1-.4-1-1v-13c0-.6.4-1 1-1h14c.6 0 1 .4 1 1v13c0 .5-.4 1-1 1zm-13-2h12v-11h-12v11z"/><path class="bst0" d="M123 178.7c-.6 0-1-.4-1-1v-13c0-.6.4-1 1-1s1 .4 1 1v13c0 .5-.4 1-1 1z"/><path class="bst1" d="M144 161.7h14v3h-14z"/><path class="bst0" d="M158 165.7h-14c-.6 0-1-.4-1-1v-3c0-.6.4-1 1-1h14c.6 0 1 .4 1 1v3c0 .5-.4 1-1 1zm-13-2h12v-1h-12v1zm-1 14h14v4h-14z"/><path class="bst0" d="M158 182.7h-14c-.6 0-1-.4-1-1v-4c0-.6.4-1 1-1h14c.6 0 1 .4 1 1v4c0 .5-.4 1-1 1zm-13-2h12v-2h-12v2zm-21-1.5c0 .8-.7 1.5-1.5 1.5h-11c-.8 0-1.5-.7-1.5-1.5s.7-1.5 1.5-1.5h11c.8 0 1.5.7 1.5 1.5z"/><path class="bst0" d="M122.5 181.7h-11c-1.4 0-2.5-1.1-2.5-2.5s1.1-2.5 2.5-2.5h11c1.4 0 2.5 1.1 2.5 2.5s-1.1 2.5-2.5 2.5zm-11-3c-.3 0-.5.2-.5.5s.2.5.5.5h11c.3 0 .5-.2.5-.5s-.2-.5-.5-.5h-11zm46.5 0h-14c-.6 0-1-.4-1-1v-13c0-.6.4-1 1-1h14c.6 0 1 .4 1 1v13c0 .5-.4 1-1 1zm-13-2h12v-11h-12v11z"/><path class="bst0" d="M151 178.7c-.6 0-1-.4-1-1v-13c0-.6.4-1 1-1s1 .4 1 1v13c0 .5-.4 1-1 1zm-28 29c-.6 0-1-.4-1-1v-11c0-.6.4-1 1-1s1 .4 1 1v11c0 .5-.4 1-1 1zm7 0c-.6 0-1-.4-1-1v-15c0-.6.4-1 1-1s1 .4 1 1v15c0 .5-.4 1-1 1zm6.9-16.8l-.1 41.7m0 1.1c-.6 0-1-.5-1-1l.1-41.8c0-.6.4-1.1 1-1.1s1 .6 1 1.1l-.1 41.8c0 .4-.5 1-1 1zm7.2-26c-.6 0-1-.4-1-1v-15c0-.6.4-1 1-1s1 .4 1 1v15c0 .5-.4 1-1 1zm7 0c-.6 0-1-.4-1-1v-12c0-.6.4-1 1-1s1 .4 1 1v12c0 .5-.4 1-1 1z"/><path class="bst1" d="M116 206.7h21v31h-21z"/><path class="bst0" d="M137 238.7h-21c-.6 0-1-.4-1-1v-31c0-.6.4-1 1-1h21c.6 0 1 .4 1 1v31c0 .5-.4 1-1 1zm-20-2h19v-29h-19v29z"/><path class="bst1" d="M137 206.7h21v31h-21z"/><path class="bst0" d="M158 238.7h-21c-.6 0-1-.4-1-1v-31c0-.6.4-1 1-1h21c.6 0 1 .4 1 1v31c0 .5-.4 1-1 1zm-20-2h19v-29h-19v29z"/><path class="bst0" d="M116 233.7h42v4h-42z"/><path class="bst0" d="M158 238.7h-42c-.6 0-1-.4-1-1v-4c0-.6.4-1 1-1h42c.6 0 1 .4 1 1v4c0 .5-.4 1-1 1zm-41-2h40v-2h-40v2zm34-40h-29c-.6 0-1-.4-1-1s.4-1 1-1h29c.6 0 1 .4 1 1s-.4 1-1 1zm5 6h-39c-.6 0-1-.4-1-1s.4-1 1-1h39c.6 0 1 .4 1 1s-.4 1-1 1zm-15-51h-9c-.6 0-1-.4-1-1s.4-1 1-1h9c.6 0 1 .4 1 1s-.4 1-1 1z"/><path class="bst0" d="M137 156.7c-.6 0-1-.4-1-1v-9c0-.6.4-1 1-1s1 .4 1 1v9c0 .5-.4 1-1 1z"/><path class="bst0" d="M136.7 156.3c-2.9 0-5.3-2.4-5.3-5.2 0-2.9 2.4-5.3 5.3-5.3s5.3 2.4 5.3 5.3c0 2.8-2.4 5.2-5.3 5.2zm0-8.5c-1.8 0-3.3 1.5-3.3 3.3 0 1.8 1.5 3.2 3.3 3.2s3.3-1.5 3.3-3.2c0-1.9-1.5-3.3-3.3-3.3zm6.3 68.9h8v3h-8z"/><path class="bst0" d="M151 220.7h-8c-.6 0-1-.4-1-1v-3c0-.6.4-1 1-1h8c.6 0 1 .4 1 1v3c0 .5-.4 1-1 1zm-7-2h6v-1h-6v1zm-22-2h9v3h-9z"/><path class="bst0" d="M131 220.7h-9c-.6 0-1-.4-1-1v-3c0-.6.4-1 1-1h9c.6 0 1 .4 1 1v3c0 .5-.4 1-1 1zm-8-2h7v-1h-7v1zm-44-2h8v3h-8z"/><path class="bst0" d="M87 220.7h-8c-.6 0-1-.4-1-1v-3c0-.6.4-1 1-1h8c.6 0 1 .4 1 1v3c0 .5-.4 1-1 1zm-7-2h6v-1h-6v1zm-22-2h8v3h-8z"/><path class="bst0" d="M66 220.7h-8c-.6 0-1-.4-1-1v-3c0-.6.4-1 1-1h8c.6 0 1 .4 1 1v3c0 .5-.4 1-1 1zm-7-2h6v-1h-6v1z"/><path class="bst1" d="M1 112.7h44v5H1z"/><path class="bst0" d="M45 118.7H1c-.6 0-1-.4-1-1v-5c0-.6.4-1 1-1h44c.6 0 1 .4 1 1v5c0 .5-.4 1-1 1zm-43-2h42v-3H2v3z"/></svg>