<svg id="history-pattern" xmlns="http://www.w3.org/2000/svg" viewBox="0 0 610 584"><defs><style>.hpa0{fill:#ffffff}</style><pattern id="historyPatternAnimated" width="610" height="584" patternUnits="userSpaceOnUse"><g id="eight"><g id="tower_2_" class="icon"><path class="hpa0" d="M412 510c-.6 0-1-.4-1-1v-11c0-.6.4-1 1-1s1 .4 1 1v11c0 .6-.4 1-1 1z"/><path class="hpa0" d="M406 583c-.6 0-1-.4-1-1v-50c0-.6.4-1 1-1s1 .4 1 1v50c0 .6-.4 1-1 1z"/><path class="hpa0" d="M418 583c-.6 0-1-.4-1-1v-50c0-.6.4-1 1-1s1 .4 1 1v50c0 .6-.4 1-1 1z"/><path class="hpa0" d="M418.6 554.4c-.3 0-.7-.2-.9-.5l-5.5-9.5c-.3-.5-.1-1.1.4-1.4.5-.3 1.1-.1 1.4.4l5.5 9.5c.3.5.1 1.1-.4 1.4-.2.1-.3.1-.5.1z"/><path class="hpa0" d="M405.9 554.5c-.2 0-.3 0-.5-.1-.5-.3-.6-.9-.4-1.4l5.5-9.5c.3-.5.9-.6 1.4-.4.5.3.6.9.4 1.4l-5.5 9.5c-.2.3-.5.5-.9.5z"/><path class="hpa0" d="M430.1 583.4c-.3 0-.7-.2-.9-.5L412.5 554c-.3-.5-.1-1.1.4-1.4.5-.3 1.1-.1 1.4.4l16.7 28.9c.3.5.1 1.1-.4 1.4-.2 0-.4.1-.5.1z"/><path class="hpa0" d="M394.9 582.8c-.2 0-.3 0-.5-.1-.5-.3-.6-.9-.4-1.4l16.4-28.3c.3-.5.9-.6 1.4-.4.5.3.6.9.4 1.4l-16.4 28.3c-.3.3-.6.5-.9.5z"/><path class="hpa0" d="M418.6 583.1c-.3 0-.7-.2-.9-.5l-5.5-9.5c-.3-.5-.1-1.1.4-1.4.5-.3 1.1-.1 1.4.4l5.5 9.5c.3.5.1 1.1-.4 1.4-.2 0-.3.1-.5.1z"/><path class="hpa0" d="M405.9 583.1c-.2 0-.3 0-.5-.1-.5-.3-.6-.9-.4-1.4l5.5-9.5c.3-.5.9-.6 1.4-.4.5.3.6.9.4 1.4l-5.5 9.5c-.2.3-.5.5-.9.5z"/><path class="hpa0" d="M413.1 573.5c-.2 0-.3 0-.5-.1-.5-.3-.6-.9-.4-1.4l5.5-9.5c.3-.5.9-.6 1.4-.4.5.3.6.9.4 1.4L414 573c-.2.3-.6.5-.9.5z"/><path class="hpa0" d="M411.5 573.5c-.3 0-.7-.2-.9-.5l-5.5-9.5c-.3-.5-.1-1.1.4-1.4.5-.3 1.1-.1 1.4.4l5.5 9.5c.3.5.1 1.1-.4 1.4-.2.1-.4.1-.5.1z"/><path class="hpa0" d="M412 554h-6c-.6 0-1-.4-1-1s.4-1 1-1h6c.6 0 1 .4 1 1s-.4 1-1 1z"/><path class="hpa0" d="M418 554h-6c-.6 0-1-.4-1-1s.4-1 1-1h6c.6 0 1 .4 1 1s-.4 1-1 1z"/><path class="hpa0" d="M412 574h-12c-.6 0-1-.4-1-1s.4-1 1-1h12c.6 0 1 .4 1 1s-.4 1-1 1z"/><path class="hpa0" d="M424 574h-12c-.6 0-1-.4-1-1s.4-1 1-1h12c.6 0 1 .4 1 1s-.4 1-1 1z"/><path class="hpa0" d="M412.3 544.9c-7.4 0-12.9-5.6-12.9-12.9 0-.6.4-1 1-1h23.8c.6 0 1 .4 1 1 0 7.4-5.6 12.9-12.9 12.9zM401.4 533c.5 5.7 5 9.9 10.9 9.9s10.4-4.2 10.9-9.9h-21.8z"/><path class="hpa0" d="M424.2 521h-23.8c-.6 0-1-.4-1-1 0-6.9 6-12.9 12.9-12.9s12.9 6 12.9 12.9c0 .6-.5 1-1 1zm-22.8-2h21.7c-.5-4.9-5-9.9-10.9-9.9s-10.3 5-10.8 9.9z"/><path class="hpa0" d="M425 533h-25c-.6 0-1-.4-1-1v-12c0-.6.4-1 1-1h25c.6 0 1 .4 1 1v12c0 .6-.4 1-1 1zm-24-2h23v-10h-23v10z"/><path class="hpa0" d="M425 530h-25c-.6 0-1-.4-1-1s.4-1 1-1h25c.6 0 1 .4 1 1s-.4 1-1 1z"/><path class="hpa0" d="M403 533c-.6 0-1-.4-1-1v-3c0-.6.4-1 1-1s1 .4 1 1v3c0 .6-.4 1-1 1z"/><path class="hpa0" d="M407 533c-.6 0-1-.4-1-1v-3c0-.6.4-1 1-1s1 .4 1 1v3c0 .6-.4 1-1 1z"/><path class="hpa0" d="M409 533c-.6 0-1-.4-1-1v-3c0-.6.4-1 1-1s1 .4 1 1v3c0 .6-.4 1-1 1z"/><path class="hpa0" d="M412 533c-.6 0-1-.4-1-1v-3c0-.6.4-1 1-1s1 .4 1 1v3c0 .6-.4 1-1 1z"/><path class="hpa0" d="M415 533c-.6 0-1-.4-1-1v-3c0-.6.4-1 1-1s1 .4 1 1v3c0 .6-.4 1-1 1z"/><path class="hpa0" d="M422 533c-.6 0-1-.4-1-1v-3c0-.6.4-1 1-1s1 .4 1 1v3c0 .6-.4 1-1 1z"/><path class="hpa0" d="M418 533c-.6 0-1-.4-1-1v-3c0-.6.4-1 1-1s1 .4 1 1v3c0 .6-.4 1-1 1z"/><path class="hpa0" d="M412 583c-.6 0-1-.4-1-1v-38c0-.6.4-1 1-1s1 .4 1 1v38c0 .6-.4 1-1 1z"/></g><g id="barn_2_" class="icon"><path class="hpa0" d="M246 584c-.6 0-1-.4-1-1v-35c0-.6.4-1 1-1s1 .4 1 1v35c0 .6-.4 1-1 1z"/><path class="hpa0" d="M253 583c-.6 0-1-.4-1-1v-34c0-.6.4-1 1-1s1 .4 1 1v34c0 .6-.4 1-1 1z"/><path class="hpa0" d="M262 562c-.6 0-1-.4-1-1v-13c0-.6.4-1 1-1s1 .4 1 1v13c0 .6-.4 1-1 1z"/><path class="hpa0" d="M269 555c-.6 0-1-.4-1-1v-6c0-.6.4-1 1-1s1 .4 1 1v6c0 .6-.4 1-1 1z"/><path class="hpa0" d="M277 562c-.6 0-1-.4-1-1v-13c0-.6.4-1 1-1s1 .4 1 1v13c0 .6-.4 1-1 1z"/><path class="hpa0" d="M285 583c-.6 0-1-.4-1-1v-34c0-.6.4-1 1-1s1 .4 1 1v34c0 .6-.4 1-1 1z"/><path class="hpa0" d="M293 583c-.6 0-1-.4-1-1v-34c0-.6.4-1 1-1s1 .4 1 1v34c0 .6-.4 1-1 1z"/><path class="hpa0" d="M258 583.5c-.2 0-.5-.1-.6-.2l-.6-.5c-.3-.3-.4-.7-.3-1.1.1-.3.3-.5.6-.6V561c0-.6.4-1 1-1h22.8c.3 0 .6.1.7.3l.2.2c.2.2.3.4.3.7V582c0 .6-.4 1-1 1H259c-.1.2-.3.3-.5.4-.2.1-.4.1-.5.1zm1-2.5h21v-19h-21v19z"/><path class="hpa0" d="M283 520c-.6 0-1-.4-1-1v-13h-25v13c0 .6-.4 1-1 1s-1-.4-1-1v-14c0-.6.4-1 1-1h26.7c.4 0 .8.2.9.6l.3.7c.1.1.1.3.1.4V519c0 .6-.4 1-1 1z"/><path class="hpa0" d="M300 583h-62c-.6 0-1-.4-1-1v-34c0-.6.4-1 1-1h62c.6 0 1 .4 1 1v34c0 .6-.4 1-1 1zm-61-2h60v-32h-60v32z"/><path class="hpa0" d="M237.9 548.6c-.3 0-.5-.1-.7-.3s-.3-.6-.3-.9c0-17.8 14.5-32.4 32.3-32.4 8.6 0 16.7 3.5 22.8 9.6 6.1 6.1 9.4 14.3 9.4 22.9 0 .6-.4 1-1 1l-62.5.1zm31.2-31.6c-16.3 0-29.7 13.2-30.2 29.4l60.5.1c-.2-7.7-3.4-15-8.8-20.5-5.8-5.7-13.4-9-21.5-9z"/><path class="hpa0" d="M275.9 562h-13.6c-.6 0-1-.4-1-1 0-4.4 3.3-7.8 7.8-7.8 4.3 0 7.4 6.6 7.7 7.4.1.3.1.7-.1 1-.1.2-.4.4-.8.4zm-12.4-2h10.8c-1.1-2-3.2-4.8-5.1-4.8-3 0-5.3 2-5.7 4.8z"/><path class="hpa0" d="M272.6 515h-6.8c-.6 0-1-.3-1-.8 0-2.5 1.9-4.2 4.4-4.2 2.4 0 4 3.1 4.3 3.8.1.3.1.6-.1.9-.2.2-.5.3-.8.3zm-5.6-2h3.9c-.5-.8-1.2-1.4-1.7-1.4-1.1 0-1.9.6-2.2 1.4z"/><path class="hpa0" d="M269 583c-.6 0-1-.4-1-1v-21c0-.6.4-1 1-1s1 .4 1 1v21c0 .6-.4 1-1 1z"/><path class="hpa0" d="M275 541h-12c-.6 0-1-.4-1-1v-11c0-.6.4-1 1-1h12c.6 0 1 .4 1 1v11c0 .6-.4 1-1 1zm-11-2h10v-9h-10v9z"/><path class="hpa0" d="M280.8 583.5c-.2 0-.5-.1-.7-.3l-23.4-21.3c-.4-.4-.4-1-.1-1.4.4-.4 1-.4 1.4-.1l23.4 21.3c.4.4.4 1 .1 1.4-.1.3-.4.4-.7.4z"/><path class="hpa0" d="M257.4 583.5c-.3 0-.5-.1-.7-.3-.4-.4-.3-1 .1-1.4l23.4-21.3c.4-.4 1-.3 1.4.1.4.4.3 1-.1 1.4L258 583.3c-.1.1-.4.2-.6.2z"/><path class="hpa0" d="M282.7 506h-27.1c-.4 0-.8-.3-.9-.7-.1-.4 0-.8.3-1.1l13.5-10.6c.4-.3.9-.3 1.2 0l13.6 10.6c.3.3.5.7.3 1.1-.1.4-.5.7-.9.7zm-24.2-2h21.3l-10.7-8.4-10.6 8.4z"/></g><g id="store_2_" class="icon"><path class="hpa0" d="M594 562h-74c-.6 0-1-.4-1-1v-43c0-.6.4-1 1-1h74c.6 0 1 .4 1 1v43c0 .6-.4 1-1 1zm-73-2h72v-41h-72v41z"/><path class="hpa0" d="M588.1 524.9c-4 0-7.2-3.2-7.2-7.2 0-.6.4-1 1-1s1 .4 1 1c0 2.9 2.3 5.2 5.2 5.2 2.9 0 5.2-2.3 5.2-5.2 0-.6.4-1 1-1s1 .4 1 1c0 4-3.2 7.2-7.2 7.2z"/><path class="hpa0" d="M563.2 524.9c-4 0-7.2-3.2-7.2-7.2 0-.6.4-1 1-1s1 .4 1 1c0 2.9 2.3 5.2 5.2 5.2 2.9 0 5.2-2.3 5.2-5.2 0-.6.4-1 1-1s1 .4 1 1c0 4-3.2 7.2-7.2 7.2z"/><path class="hpa0" d="M550.6 540.2c-.6 0-1-.4-1-1 0-4 3.2-7.2 7.2-7.2s7.2 3.2 7.2 7.2c0 .6-.4 1-1 1s-1-.4-1-1c0-2.9-2.3-5.2-5.2-5.2-2.9 0-5.2 2.3-5.2 5.2 0 .6-.5 1-1 1z"/><path class="hpa0" d="M550.8 524.9c-4 0-7.2-3.2-7.2-7.2 0-.6.4-1 1-1s1 .4 1 1c0 2.9 2.3 5.2 5.2 5.2 2.9 0 5.2-2.3 5.2-5.2 0-.6.4-1 1-1s1 .4 1 1c0 4-3.2 7.2-7.2 7.2z"/><path class="hpa0" d="M525.9 524.9c-4 0-7.2-3.2-7.2-7.2 0-.6.4-1 1-1s1 .4 1 1c0 2.9 2.3 5.2 5.2 5.2 2.9 0 5.2-2.3 5.2-5.2 0-.6.4-1 1-1s1 .4 1 1c0 4-3.2 7.2-7.2 7.2z"/><path class="hpa0" d="M538.3 524.9c-4 0-7.2-3.2-7.2-7.2 0-.6.4-1 1-1s1 .4 1 1c0 2.9 2.3 5.2 5.2 5.2 2.9 0 5.2-2.3 5.2-5.2 0-.6.4-1 1-1s1 .4 1 1c0 4-3.2 7.2-7.2 7.2z"/><path class="hpa0" d="M575.7 524.9c-4 0-7.2-3.2-7.2-7.2 0-.6.4-1 1-1s1 .4 1 1c0 2.9 2.3 5.2 5.2 5.2 2.9 0 5.2-2.3 5.2-5.2 0-.6.4-1 1-1s1 .4 1 1c0 4-3.2 7.2-7.2 7.2z"/><path class="hpa0" d="M563 562h-12c-.6 0-1-.4-1-1v-21.2c-.3-.2-.5-.7-.4-1.1.1-.4.5-.7 1-.7H563c.6 0 1 .4 1 1v22.1c0 .5-.5.9-1 .9zm-11-2h10v-20h-10v20z"/><path class="hpa0" d="M544 551h-11c-.6 0-1-.4-1-1v-10h-.1c-.5-.1-.8-.6-.7-1.1s.5-.9 1-.9H544c.6 0 1 .4 1 1v10.1c.3.2.6.5.6.9 0 .5-.4 1-1 1h-.6zm-10-2h9v-9h-9v9z"/><path class="hpa0" d="M582 551h-12c-.6 0-1-.4-1-1v-10.1c-.4-.2-.6-.7-.5-1.1.1-.5.5-.8 1-.8H582c.6 0 1 .4 1 1v11c0 .3-.1.5-.3.7-.2.2-.4.3-.7.3zm-11-2h10v-9h-10v9z"/><path class="hpa0" d="M550.6 551c-.6 0-1-.4-1-1s.4-1 1-1H563c.6 0 1 .4 1 1s-.4 1-1 1h-12.4z"/><path class="hpa0" d="M556.8 540.2c-.3 0-.7-.2-.9-.5l-3.1-5.4c-.3-.5-.1-1.1.4-1.4.5-.3 1.1-.1 1.4.4l3.1 5.4c.3.5.1 1.1-.4 1.4-.2.1-.4.1-.5.1z"/><path class="hpa0" d="M556.8 540.2c-.2 0-.3 0-.5-.1-.5-.3-.6-.9-.4-1.4l3.1-5.4c.3-.5.9-.6 1.4-.4.5.3.6.9.4 1.4l-3.1 5.4c-.2.4-.6.5-.9.5z"/><path class="hpa0" d="M544 540h-11c-.6 0-1-.4-1-1v-2c0-.6.4-1 1-1h11c.6 0 1 .4 1 1v2c0 .6-.4 1-1 1zm-10-2h9-9z"/><path class="hpa0" d="M582 540h-12c-.6 0-1-.4-1-1v-2c0-.6.4-1 1-1h12c.6 0 1 .4 1 1v2c0 .6-.4 1-1 1zm-11-2h10-10z"/></g><g id="cloud_2_" class="icon"><path class="hpa0" d="M155.3 555H97c-.6 0-1-.4-1-1 0-5.8 5.2-11 11-11 .9 0 1.7.1 2.6.4.4-9.8 8.4-17.6 18.3-17.6 9.8 0 17.8 7.7 18.3 17.3 5.5.5 10.1 5.4 10.1 10.9 0 .6-.4 1-1 1zm-57.2-2h56.1c-.5-3.9-4.2-8-9-8-.6 0-1-.4-1-1 0-8.9-7.3-16.2-16.3-16.2s-16.3 7.3-16.3 16.3v.6c0 .3-.1.7-.4.9-.3.2-.6.3-.9.1-6.3-2.4-11.5 2.5-12.2 7.3z"/><path class="hpa0" d="M138.2 552.2c-.6 0-1-.4-1-1s.4-1 1-1c3.3 0 6-2.7 6-6 0-.6.4-1 1-1s1 .4 1 1c.1 4.4-3.5 8-8 8z"/><path class="hpa0" d="M128.3 545.8c-.6 0-1-.4-1-1 0-4.2-3.5-7.7-7.7-7.7s-7.7 3.5-7.7 7.7c0 .6-.4 1-1 1s-1-.4-1-1c0-5.3 4.3-9.7 9.7-9.7s9.7 4.3 9.7 9.7c0 .6-.4 1-1 1z"/></g></g><g id="seven"><g id="lake_2_" class="icon"><path class="hpa0" d="M13.2 471c-2 0-3.6-1.6-3.6-3.6 0-.6.4-1 1-1s1 .4 1 1c0 .9.7 1.6 1.6 1.6.6 0 1 .4 1 1s-.4 1-1 1z"/><path class="hpa0" d="M13.2 471c-.6 0-1-.4-1-1s.4-1 1-1c.9 0 1.6-.7 1.6-1.6 0-.6.4-1 1-1s1 .4 1 1c0 2-1.6 3.6-3.6 3.6z"/><path class="hpa0" d="M18.4 471c-2 0-3.6-1.6-3.6-3.6 0-.6.4-1 1-1s1 .4 1 1c0 .9.7 1.6 1.6 1.6.6 0 1 .4 1 1s-.5 1-1 1z"/><path class="hpa0" d="M18.4 471c-.6 0-1-.4-1-1s.4-1 1-1c.9 0 1.6-.7 1.6-1.6 0-.6.4-1 1-1s1 .4 1 1c0 2-1.7 3.6-3.6 3.6z"/><path class="hpa0" d="M23.5 471c-2 0-3.6-1.6-3.6-3.6 0-.6.4-1 1-1s1 .4 1 1c0 .9.7 1.6 1.6 1.6.6 0 1 .4 1 1s-.4 1-1 1z"/><path class="hpa0" d="M23.5 471c-.6 0-1-.4-1-1s.4-1 1-1c.9 0 1.6-.7 1.6-1.6 0-.6.4-1 1-1s1 .4 1 1c0 2-1.6 3.6-3.6 3.6z"/><path class="hpa0" d="M28.7 471c-2 0-3.6-1.6-3.6-3.6 0-.6.4-1 1-1s1 .4 1 1c0 .9.7 1.6 1.6 1.6.6 0 1 .4 1 1s-.5 1-1 1z"/><path class="hpa0" d="M89 482.6c-.6 0-1-.4-1-1s.4-1 1-1c.9 0 1.6-.7 1.6-1.6 0-.6.4-1 1-1s1 .4 1 1c0 2-1.6 3.6-3.6 3.6z"/><path class="hpa0" d="M99.3 482.6c-.6 0-1-.4-1-1s.4-1 1-1c.9 0 1.6-.7 1.6-1.6 0-.6.4-1 1-1s1 .4 1 1c0 2-1.6 3.6-3.6 3.6z"/><path class="hpa0" d="M94.2 482.6c-2 0-3.6-1.6-3.6-3.6 0-.6.4-1 1-1s1 .4 1 1c0 .9.7 1.6 1.6 1.6.6 0 1 .4 1 1s-.5 1-1 1z"/><path class="hpa0" d="M104.5 482.6c-2 0-3.6-1.6-3.6-3.6 0-.6.4-1 1-1s1 .4 1 1c0 .9.7 1.6 1.6 1.6.6 0 1 .4 1 1s-.5 1-1 1z"/><path class="hpa0" d="M99.3 482.6c-2 0-3.6-1.6-3.6-3.6 0-.6.4-1 1-1s1 .4 1 1c0 .9.7 1.6 1.6 1.6.6 0 1 .4 1 1s-.4 1-1 1z"/><path class="hpa0" d="M94.2 482.6c-.6 0-1-.4-1-1s.4-1 1-1c.9 0 1.6-.7 1.6-1.6 0-.6.4-1 1-1s1 .4 1 1c-.1 2-1.7 3.6-3.6 3.6z"/><path class="hpa0" d="M73.6 462c-.6 0-1-.4-1-1s.4-1 1-1c.9 0 1.6-.7 1.6-1.6 0-.6.4-1 1-1s1 .4 1 1c0 2-1.6 3.6-3.6 3.6z"/><path class="hpa0" d="M78.8 462c-2 0-3.6-1.6-3.6-3.6 0-.6.4-1 1-1s1 .4 1 1c0 .9.7 1.6 1.6 1.6.6 0 1 .4 1 1s-.5 1-1 1z"/><path class="hpa0" d="M78.8 462c-.6 0-1-.4-1-1s.4-1 1-1c.9 0 1.6-.7 1.6-1.6 0-.6.4-1 1-1s1 .4 1 1c-.1 2-1.7 3.6-3.6 3.6z"/><path class="hpa0" d="M83.9 462c-2 0-3.6-1.6-3.6-3.6 0-.6.4-1 1-1s1 .4 1 1c0 .9.7 1.6 1.6 1.6.6 0 1 .4 1 1s-.4 1-1 1z"/><path class="hpa0" d="M28.8 482.6c-.6 0-1-.4-1-1s.4-1 1-1c.9 0 1.6-.7 1.6-1.6 0-.6.4-1 1-1s1 .4 1 1c-.1 2-1.7 3.6-3.6 3.6z"/><path class="hpa0" d="M33.9 482.6c-2 0-3.6-1.6-3.6-3.6 0-.6.4-1 1-1s1 .4 1 1c0 .9.7 1.6 1.6 1.6.6 0 1 .4 1 1s-.4 1-1 1z"/><path class="hpa0" d="M33.9 482.6c-.6 0-1-.4-1-1s.4-1 1-1c.9 0 1.6-.7 1.6-1.6 0-.6.4-1 1-1s1 .4 1 1c0 2-1.6 3.6-3.6 3.6z"/><path class="hpa0" d="M39 482.6c-2 0-3.6-1.6-3.6-3.6 0-.6.4-1 1-1s1 .4 1 1c0 .9.7 1.6 1.6 1.6.6 0 1 .4 1 1s-.4 1-1 1z"/><path class="hpa0" d="M35.1 464.6c-.6 0-1-.4-1-1s.4-1 1-1c.9 0 1.6-.7 1.6-1.6 0-.6.4-1 1-1s1 .4 1 1c-.1 2-1.7 3.6-3.6 3.6z"/><path class="hpa0" d="M40.2 464.6c-2 0-3.6-1.6-3.6-3.6 0-.6.4-1 1-1s1 .4 1 1c0 .9.7 1.6 1.6 1.6.6 0 1 .4 1 1s-.4 1-1 1z"/><path class="hpa0" d="M40.2 464.6c-.6 0-1-.4-1-1s.4-1 1-1c.9 0 1.6-.7 1.6-1.6 0-.6.4-1 1-1s1 .4 1 1c0 2-1.6 3.6-3.6 3.6z"/><path class="hpa0" d="M45.4 464.6c-2 0-3.6-1.6-3.6-3.6 0-.6.4-1 1-1s1 .4 1 1c0 .9.7 1.6 1.6 1.6.6 0 1 .4 1 1s-.5 1-1 1z"/><path class="hpa0" d="M45.4 464.6c-.6 0-1-.4-1-1s.4-1 1-1c.9 0 1.6-.7 1.6-1.6 0-.6.4-1 1-1s1 .4 1 1c-.1 2-1.7 3.6-3.6 3.6z"/><path class="hpa0" d="M50.5 464.6c-2 0-3.6-1.6-3.6-3.6 0-.6.4-1 1-1s1 .4 1 1c0 .9.7 1.6 1.6 1.6.6 0 1 .4 1 1s-.4 1-1 1z"/><path class="hpa0" d="M57.8 477.3c-.6 0-1-.4-1-1s.4-1 1-1c.9 0 1.7-.7 1.7-1.7 0-.6.4-1 1-1s1 .4 1 1c0 2.1-1.7 3.7-3.7 3.7z"/><path class="hpa0" d="M63.1 477.3c-2 0-3.7-1.6-3.7-3.7 0-.6.4-1 1-1s1 .4 1 1c0 .9.7 1.7 1.7 1.7.6 0 1 .4 1 1s-.4 1-1 1z"/><path class="hpa0" d="M63.1 477.3c-.6 0-1-.4-1-1s.4-1 1-1c.9 0 1.7-.7 1.7-1.7 0-.6.4-1 1-1s1 .4 1 1c0 2.1-1.6 3.7-3.7 3.7z"/><path class="hpa0" d="M68.4 477.3c-2 0-3.6-1.6-3.6-3.6 0-.6.4-1 1-1s1 .4 1 1c0 .9.7 1.6 1.6 1.6.6 0 1 .4 1 1s-.5 1-1 1z"/><path class="hpa0" d="M68.4 477.3c-.6 0-1-.4-1-1s.4-1 1-1c.9 0 1.6-.7 1.6-1.6 0-.6.4-1 1-1s1 .4 1 1c-.1 2-1.7 3.6-3.6 3.6z"/><path class="hpa0" d="M73.5 477.3c-2 0-3.6-1.6-3.6-3.6 0-.6.4-1 1-1s1 .4 1 1c0 .9.7 1.6 1.6 1.6.6 0 1 .4 1 1s-.4 1-1 1z"/><g><path class="hpa0" d="M82.6 471c-.6 0-1-.4-1-1s.4-1 1-1c.9 0 1.6-.7 1.6-1.6 0-.6.4-1 1-1s1 .4 1 1c0 2-1.6 3.6-3.6 3.6z"/><path class="hpa0" d="M87.7 471c-2 0-3.6-1.6-3.6-3.6 0-.6.4-1 1-1s1 .4 1 1c0 .9.7 1.6 1.6 1.6.6 0 1 .4 1 1s-.4 1-1 1z"/><path class="hpa0" d="M87.7 471c-.6 0-1-.4-1-1s.4-1 1-1c.9 0 1.6-.7 1.6-1.6 0-.6.4-1 1-1s1 .4 1 1c0 2-1.6 3.6-3.6 3.6z"/><path class="hpa0" d="M92.9 471c-2 0-3.6-1.6-3.6-3.6 0-.6.4-1 1-1s1 .4 1 1c0 .9.7 1.6 1.6 1.6.6 0 1 .4 1 1s-.5 1-1 1z"/><path class="hpa0" d="M92.9 471c-.6 0-1-.4-1-1s.4-1 1-1c.9 0 1.6-.7 1.6-1.6 0-.6.4-1 1-1s1 .4 1 1c0 2-1.6 3.6-3.6 3.6z"/><path class="hpa0" d="M98 471c-2 0-3.6-1.6-3.6-3.6 0-.6.4-1 1-1s1 .4 1 1c0 .9.7 1.6 1.6 1.6.6 0 1 .4 1 1s-.4 1-1 1z"/></g><g><path class="hpa0" d="M50.5 464.6c-.6 0-1-.4-1-1s.4-1 1-1c.9 0 1.6-.7 1.6-1.6 0-.6.4-1 1-1s1 .4 1 1c0 2-1.6 3.6-3.6 3.6z"/></g><g><path class="hpa0" d="M55.6 464.6c-2 0-3.6-1.6-3.6-3.6 0-.6.4-1 1-1s1 .4 1 1c0 .9.7 1.6 1.6 1.6.6 0 1 .4 1 1s-.4 1-1 1z"/></g><g><path class="hpa0" d="M55.6 464.6c-.6 0-1-.4-1-1s.4-1 1-1c.9 0 1.6-.7 1.6-1.6 0-.6.4-1 1-1s1 .4 1 1c0 2-1.6 3.6-3.6 3.6z"/></g><g><path class="hpa0" d="M60.8 464.6c-2 0-3.6-1.6-3.6-3.6 0-.6.4-1 1-1s1 .4 1 1c0 .9.7 1.6 1.6 1.6.6 0 1 .4 1 1s-.5 1-1 1z"/></g><g><path class="hpa0" d="M48.8 490.9c-3.2 0-5.7-2.6-5.7-5.7s2.6-5.7 5.7-5.7 5.7 2.6 5.7 5.7-2.5 5.7-5.7 5.7zm0-9.5c-2.1 0-3.7 1.7-3.7 3.7s1.7 3.7 3.7 3.7c2.1 0 3.7-1.7 3.7-3.7s-1.6-3.7-3.7-3.7z"/><path class="hpa0" d="M49 498c-.6 0-1-.4-1-1v-9c0-.6.4-1 1-1s1 .4 1 1v9c0 .6-.4 1-1 1z"/><path class="hpa0" d="M48.9 489.3c-.3 0-.7-.2-.9-.5l-1.4-2.4c-.3-.5-.1-1.1.4-1.4.5-.3 1.1-.1 1.4.4l1.4 2.4c.3.5.1 1.1-.4 1.4-.2.1-.4.1-.5.1z"/><path class="hpa0" d="M48.8 489.6c-.2 0-.3 0-.5-.1-.5-.3-.6-.9-.4-1.4l2.1-3.7c.3-.5.9-.6 1.4-.4.5.3.6.9.4 1.4l-2.1 3.7c-.2.3-.5.5-.9.5z"/></g><g><path class="hpa0" d="M90 454c-.6 0-1-.4-1-1v-19c0-.6.4-1 1-1s1 .4 1 1v19c0 .6-.4 1-1 1z"/><path class="hpa0" d="M86.3 438.8c-.6 0-1-.4-1-1s.4-1 1-1c1.5 0 2.7-1.2 2.7-2.7 0-.6.4-1 1-1s1 .4 1 1c0 2.6-2.1 4.7-4.7 4.7z"/><path class="hpa0" d="M86.3 441.8c-.6 0-1-.4-1-1s.4-1 1-1c1.5 0 2.7-1.2 2.7-2.7 0-.6.4-1 1-1s1 .4 1 1c0 2.6-2.1 4.7-4.7 4.7z"/><path class="hpa0" d="M86.3 444.9c-.6 0-1-.4-1-1s.4-1 1-1c1.5 0 2.7-1.2 2.7-2.7 0-.6.4-1 1-1s1 .4 1 1c0 2.6-2.1 4.7-4.7 4.7z"/><path class="hpa0" d="M86.3 448c-.6 0-1-.4-1-1s.4-1 1-1c1.5 0 2.7-1.2 2.7-2.7 0-.6.4-1 1-1s1 .4 1 1c0 2.6-2.1 4.7-4.7 4.7z"/><path class="hpa0" d="M93.6 438.8c-2.6 0-4.7-2.1-4.7-4.7 0-.6.4-1 1-1s1 .4 1 1c0 1.5 1.2 2.7 2.7 2.7.6 0 1 .4 1 1s-.4 1-1 1z"/><path class="hpa0" d="M93.6 441.8c-2.6 0-4.7-2.1-4.7-4.7 0-.6.4-1 1-1s1 .4 1 1c0 1.5 1.2 2.7 2.7 2.7.6 0 1 .4 1 1s-.4 1-1 1z"/><path class="hpa0" d="M93.6 444.9c-2.6 0-4.7-2.1-4.7-4.7 0-.6.4-1 1-1s1 .4 1 1c0 1.5 1.2 2.7 2.7 2.7.6 0 1 .4 1 1s-.4 1-1 1z"/><path class="hpa0" d="M93.6 448c-2.6 0-4.7-2.1-4.7-4.7 0-.6.4-1 1-1s1 .4 1 1c0 1.5 1.2 2.7 2.7 2.7.6 0 1 .4 1 1s-.4 1-1 1z"/></g><g><path class="hpa0" d="M19 454c-.6 0-1-.4-1-1v-19c0-.6.4-1 1-1s1 .4 1 1v19c0 .6-.4 1-1 1z"/><path class="hpa0" d="M15 438.8c-.6 0-1-.4-1-1s.4-1 1-1c1.5 0 2.7-1.2 2.7-2.7 0-.6.4-1 1-1s1 .4 1 1c0 2.6-2.1 4.7-4.7 4.7z"/><path class="hpa0" d="M15 441.9c-.6 0-1-.4-1-1s.4-1 1-1c1.5 0 2.7-1.2 2.7-2.7 0-.6.4-1 1-1s1 .4 1 1c0 2.6-2.1 4.7-4.7 4.7z"/><path class="hpa0" d="M15 445c-.6 0-1-.4-1-1s.4-1 1-1c1.5 0 2.7-1.2 2.7-2.7 0-.6.4-1 1-1s1 .4 1 1c0 2.6-2.1 4.7-4.7 4.7z"/><path class="hpa0" d="M15 448c-.6 0-1-.4-1-1s.4-1 1-1c1.5 0 2.7-1.2 2.7-2.7 0-.6.4-1 1-1s1 .4 1 1c0 2.7-2.1 4.7-4.7 4.7z"/><path class="hpa0" d="M22.4 438.8c-2.6 0-4.7-2.1-4.7-4.7 0-.6.4-1 1-1s1 .4 1 1c0 1.5 1.2 2.7 2.7 2.7.6 0 1 .4 1 1s-.5 1-1 1z"/><path class="hpa0" d="M22.4 441.9c-2.6 0-4.7-2.1-4.7-4.7 0-.6.4-1 1-1s1 .4 1 1c0 1.5 1.2 2.7 2.7 2.7.6 0 1 .4 1 1s-.5 1-1 1z"/><path class="hpa0" d="M22.4 445c-2.6 0-4.7-2.1-4.7-4.7 0-.6.4-1 1-1s1 .4 1 1c0 1.5 1.2 2.7 2.7 2.7.6 0 1 .4 1 1s-.5 1-1 1z"/><path class="hpa0" d="M22.4 448c-2.6 0-4.7-2.1-4.7-4.7 0-.6.4-1 1-1s1 .4 1 1c0 1.5 1.2 2.7 2.7 2.7.6 0 1 .4 1 1s-.5 1-1 1z"/></g><g><path class="hpa0" d="M90.3 490H52c-.6 0-1-.4-1-1s.4-1 1-1h38.3c9.2 0 16.7-8 16.7-17.9v-.1c0-9.5-7.3-17-16.7-17H19.4C9.8 453 2 460.6 2 470v.1c0 9.7 8 17.9 17.4 17.9H45c.6 0 1 .4 1 1s-.4 1-1 1H19.4C8.9 490 0 480.9 0 470.1v-.1c0-10.5 8.7-19 19.4-19h70.9c10.5 0 18.7 8.3 18.7 19v.1c0 11-8.4 19.9-18.7 19.9z"/></g><g><path class="hpa0" d="M56 454c-.6 0-1-.4-1-1v-7c0-.6.4-1 1-1s1 .4 1 1v7c0 .6-.4 1-1 1z"/><path class="hpa0" d="M55.5 447.1c-1.9 0-3.4-1.5-3.4-3.4s1.5-3.4 3.4-3.4 3.4 1.5 3.4 3.4-1.5 3.4-3.4 3.4zm0-4.9c-.8 0-1.4.6-1.4 1.4s.6 1.4 1.4 1.4 1.4-.6 1.4-1.4-.6-1.4-1.4-1.4z"/><path class="hpa0" d="M56 443c-.6 0-1-.4-1-1v-4c0-.6.4-1 1-1s1 .4 1 1v4c0 .6-.4 1-1 1z"/><path class="hpa0" d="M53 445h-2c-.6 0-1-.4-1-1s.4-1 1-1h2c.6 0 1 .4 1 1s-.4 1-1 1z"/><path class="hpa0" d="M61 445h-3c-.6 0-1-.4-1-1s.4-1 1-1h3c.6 0 1 .4 1 1s-.4 1-1 1z"/><path class="hpa0" d="M53.9 443c-.3 0-.5-.1-.7-.3l-1.7-1.7c-.4-.4-.4-1 0-1.4s1-.4 1.4 0l1.7 1.7c.4.4.4 1 0 1.4-.2.2-.5.3-.7.3z"/><path class="hpa0" d="M59 448.1c-.3 0-.5-.1-.7-.3l-1.7-1.7c-.4-.4-.4-1 0-1.4s1-.4 1.4 0l1.7 1.7c.4.4.4 1 0 1.4-.2.2-.5.3-.7.3z"/><path class="hpa0" d="M52.1 448.1c-.3 0-.5-.1-.7-.3-.4-.4-.4-1 0-1.4l1.7-1.7c.4-.4 1-.4 1.4 0s.4 1 0 1.4l-1.7 1.7c-.1.2-.4.3-.7.3z"/><path class="hpa0" d="M57.2 443c-.3 0-.5-.1-.7-.3-.4-.4-.4-1 0-1.4l1.7-1.7c.4-.4 1-.4 1.4 0s.4 1 0 1.4l-1.7 1.7c-.1.2-.4.3-.7.3z"/></g></g><g id="flowers_2_" class="icon"><path class="hpa0" d="M308.4 480.4h-.2c-.5-.1-.9-.7-.7-1.2.8-3.2 3.3-5.9 6.5-6.9.5-.2 1.1.1 1.3.6.2.5-.1 1.1-.6 1.3-2.6.8-4.5 2.9-5.2 5.5-.2.4-.6.7-1.1.7z"/><path class="hpa0" d="M308.4 480.4c-.5 0-.9-.3-1-.8-.6-2.6-2.6-4.7-5.2-5.5-.5-.2-.8-.7-.6-1.3.2-.5.7-.8 1.3-.6 3.2 1 5.7 3.7 6.5 6.9.1.5-.2 1.1-.7 1.2-.1.1-.2.1-.3.1z"/><path class="hpa0" d="M308.5 473.6c-3.1 0-5.6-2.5-5.6-5.6s2.5-5.6 5.6-5.6 5.6 2.5 5.6 5.6-2.5 5.6-5.6 5.6zm0-9.1c-2 0-3.6 1.6-3.6 3.6s1.6 3.6 3.6 3.6 3.6-1.6 3.6-3.6-1.6-3.6-3.6-3.6z"/><path class="hpa0" d="M352.4 480.4h-.2c-.5-.1-.9-.7-.7-1.2.8-3.2 3.3-5.9 6.5-6.9.5-.2 1.1.1 1.3.6.2.5-.1 1.1-.6 1.3-2.6.8-4.5 2.9-5.2 5.5-.3.4-.7.7-1.1.7z"/><path class="hpa0" d="M352.3 480.4c-.5 0-.9-.3-1-.8-.6-2.6-2.6-4.7-5.2-5.5-.5-.2-.8-.7-.6-1.3.2-.5.7-.8 1.3-.6 3.2 1 5.7 3.7 6.5 6.9.1.5-.2 1.1-.7 1.2-.1.1-.2.1-.3.1z"/><path class="hpa0" d="M352.4 473.6c-3.1 0-5.6-2.5-5.6-5.6s2.5-5.6 5.6-5.6 5.6 2.5 5.6 5.6-2.5 5.6-5.6 5.6zm0-9.1c-2 0-3.6 1.6-3.6 3.6s1.6 3.6 3.6 3.6 3.6-1.6 3.6-3.6-1.6-3.6-3.6-3.6z"/><g><path class="hpa0" d="M330.4 472.4h-.2c-.5-.1-.9-.7-.7-1.2.8-3.2 3.3-5.9 6.5-6.9.5-.2 1.1.1 1.3.6s-.1 1.1-.6 1.3c-2.6.8-4.5 2.9-5.2 5.5-.2.4-.7.7-1.1.7z"/><path class="hpa0" d="M330.4 472.4c-.5 0-.9-.3-1-.8-.6-2.6-2.6-4.7-5.2-5.5-.5-.2-.8-.7-.6-1.3s.7-.8 1.3-.6c3.2 1 5.7 3.7 6.5 6.9.1.5-.2 1.1-.7 1.2-.2.1-.3.1-.3.1z"/><path class="hpa0" d="M330.5 465.5c-3.1 0-5.6-2.5-5.6-5.6 0-3.1 2.5-5.6 5.6-5.6s5.6 2.5 5.6 5.6c-.1 3.1-2.6 5.6-5.6 5.6zm0-9.1c-2 0-3.6 1.6-3.6 3.6s1.6 3.6 3.6 3.6 3.6-1.6 3.6-3.6-1.7-3.6-3.6-3.6z"/></g><g><path class="hpa0" d="M374.3 472.4h-.2c-.5-.1-.9-.7-.7-1.2.8-3.2 3.3-5.9 6.5-6.9.5-.2 1.1.1 1.3.6.2.5-.1 1.1-.6 1.3-2.6.8-4.5 2.9-5.2 5.5-.2.4-.6.7-1.1.7z"/><path class="hpa0" d="M374.3 472.4c-.5 0-.9-.3-1-.8-.6-2.6-2.6-4.7-5.2-5.5-.5-.2-.8-.7-.6-1.3s.7-.8 1.3-.6c3.2 1 5.7 3.7 6.5 6.9.1.5-.2 1.1-.7 1.2-.2.1-.2.1-.3.1z"/><path class="hpa0" d="M374.4 465.5c-3.1 0-5.6-2.5-5.6-5.6 0-3.1 2.5-5.6 5.6-5.6s5.6 2.5 5.6 5.6c-.1 3.1-2.5 5.6-5.6 5.6zm0-9.1c-2 0-3.6 1.6-3.6 3.6s1.6 3.6 3.6 3.6 3.6-1.6 3.6-3.6-1.6-3.6-3.6-3.6z"/></g></g><g id="graph_2_" class="icon"><path class="hpa0" d="M490.2 495.5c-.4 0-.9-.2-1.1-.6l-20.8-36.1c-.3-.6-.1-1.4.5-1.7.6-.3 1.4-.1 1.7.5l19.8 34.2 21.9-37.9c.3-.6 1.1-.8 1.7-.5.6.3.8 1.1.5 1.7l-23 39.8c-.3.3-.7.6-1.2.6z"/><path class="hpa0" d="M456 476.9c-.2 0-.4-.1-.6-.2-.6-.3-.8-1.1-.5-1.7l10.1-17.5c.3-.6 1.1-.8 1.7-.5.6.3.8 1.1.5 1.7l-10.1 17.5c-.2.5-.6.7-1.1.7z"/><path class="hpa0" d="M452.8 489c-4.3 0-7.7-3.5-7.7-7.7s3.5-7.7 7.7-7.7c4.3 0 7.7 3.5 7.7 7.7s-3.5 7.7-7.7 7.7zm0-13c-2.9 0-5.2 2.3-5.2 5.2s2.3 5.2 5.2 5.2c2.9 0 5.2-2.3 5.2-5.2s-2.3-5.2-5.2-5.2z"/><path class="hpa0" d="M516.5 456.6c-4.3 0-7.7-3.5-7.7-7.7s3.5-7.7 7.7-7.7c4.3 0 7.7 3.5 7.7 7.7s-3.4 7.7-7.7 7.7zm0-12.9c-2.9 0-5.2 2.3-5.2 5.2s2.3 5.2 5.2 5.2c2.9 0 5.2-2.3 5.2-5.2s-2.3-5.2-5.2-5.2z"/><path class="hpa0" d="M467.8 459.8c-2.5 0-4.5-2-4.5-4.5s2-4.5 4.5-4.5 4.5 2 4.5 4.5-2.1 4.5-4.5 4.5zm0-6.5c-1.1 0-2 .9-2 2s.9 2 2 2 2-.9 2-2-.9-2-2-2z"/></g><g id="sun_2_" class="icon"><path class="hpa0" d="M215.9 486.7c-.3 0-.5-.1-.7-.3l-5.1-5.1c-.4-.4-.4-1 0-1.4.4-.4 1-.4 1.4 0l5.1 5.1c.4.4.4 1 0 1.4-.2.2-.4.3-.7.3z"/><path class="hpa0" d="M185.6 456.4c-.3 0-.5-.1-.7-.3l-5.1-5.1c-.4-.4-.4-1 0-1.4.4-.4 1-.4 1.4 0l5.1 5.1c.4.4.4 1 0 1.4-.2.2-.5.3-.7.3z"/><path class="hpa0" d="M210.8 456.4c-.3 0-.5-.1-.7-.3-.4-.4-.4-1 0-1.4l5.1-5.1c.4-.4 1-.4 1.4 0 .4.4.4 1 0 1.4l-5.1 5.1c-.2.2-.5.3-.7.3z"/><path class="hpa0" d="M180.5 486.7c-.3 0-.5-.1-.7-.3-.4-.4-.4-1 0-1.4l5.1-5.1c.4-.4 1-.4 1.4 0 .4.4.4 1 0 1.4l-5.1 5.1c-.2.2-.5.3-.7.3z"/><path class="hpa0" d="M223.3 469H216c-.5 0-1-.5-1-1s.4-1 1-1h7.3c.5 0 1 .5 1 1s-.5 1-1 1z"/><path class="hpa0" d="M180.4 469h-7.3c-.5 0-1-.5-1-1s.4-1 1-1h7.3c.5 0 1 .5 1 1s-.5 1-1 1z"/><path class="hpa0" d="M198 451.2c-.5 0-1-.4-1-1v-7.3c0-.5.5-1 1-1s1 .4 1 1v7.3c0 .6-.5 1-1 1z"/><path class="hpa0" d="M198 494.1c-.5 0-1-.4-1-1v-7.3c0-.5.5-1 1-1s1 .4 1 1v7.3c0 .5-.5 1-1 1z"/><path class="hpa0" d="M214.6 462.1c-.4 0-.8-.2-.9-.6-.2-.5 0-1.1.5-1.3l6.7-2.8c.5-.2 1.1 0 1.3.5.2.5 0 1.1-.5 1.3L215 462c-.1.1-.3.1-.4.1z"/><path class="hpa0" d="M175 478.7c-.4 0-.8-.2-.9-.6-.2-.5 0-1.1.5-1.3l6.7-2.8c.5-.2 1.1 0 1.3.5.2.5 0 1.1-.5 1.3l-6.7 2.8c-.1 0-.2.1-.4.1z"/><path class="hpa0" d="M191.3 452.6c-.4 0-.8-.2-.9-.6l-2.8-6.7c-.2-.5 0-1.1.5-1.3.5-.2 1.1 0 1.3.5l2.8 6.7c.2.5 0 1.1-.5 1.3-.1 0-.2.1-.4.1z"/><path class="hpa0" d="M207.8 492.1c-.4 0-.8-.2-.9-.6l-2.8-6.7c-.2-.5 0-1.1.5-1.3.5-.2 1.1 0 1.3.5l2.8 6.7c.2.5 0 1.1-.5 1.3-.1.1-.2.1-.4.1z"/><path class="hpa0" d="M205 452.5c-.1 0-.3 0-.4-.1-.5-.2-.7-.8-.5-1.3l2.8-6.7c.2-.5.8-.7 1.3-.5.5.2.7.8.5 1.3l-2.8 6.7c-.2.4-.6.6-.9.6z"/><path class="hpa0" d="M188.7 492.2c-.1 0-.3 0-.4-.1-.5-.2-.7-.8-.5-1.3l2.8-6.7c.2-.5.8-.7 1.3-.5.5.2.7.8.5 1.3l-2.8 6.7c-.2.4-.6.6-.9.6z"/><path class="hpa0" d="M181.7 462.2c-.1 0-.3 0-.4-.1l-6.7-2.8c-.5-.2-.7-.8-.5-1.3.2-.5.8-.7 1.3-.5l6.7 2.8c.5.2.7.8.5 1.3-.1.4-.5.6-.9.6z"/><path class="hpa0" d="M221.4 478.5c-.1 0-.3 0-.4-.1l-6.7-2.8c-.5-.2-.7-.8-.5-1.3.2-.5.8-.7 1.3-.5l6.7 2.8c.5.2.7.8.5 1.3-.2.4-.5.6-.9.6z"/><path class="hpa0" d="M198.2 486.8c-10.4 0-18.8-8.4-18.8-18.8s8.4-18.8 18.8-18.8S217 457.6 217 468s-8.5 18.8-18.8 18.8zm0-35.6c-9.3 0-16.8 7.5-16.8 16.8s7.5 16.8 16.8 16.8S215 477.3 215 468s-7.5-16.8-16.8-16.8z"/></g></g><g id="six"><path class="hpa0" d="M294.4 405h-53.1c-.6 0-1-.4-1-1 0-5.7 4.8-10.5 10.4-10.5 2 0 3.9.5 5.5 1.5 3-4.6 8.1-7.4 13.6-7.4 7 0 13.1 4.4 15.3 10.9 1.1-.8 2.4-1.2 3.8-1.2 3.6 0 6.6 3 6.6 6.7-.1.6-.5 1-1.1 1zm-52.1-2h51c-.5-2.1-2.3-3.7-4.5-3.7-1.4 0-2.7.6-3.5 1.6-.2.3-.6.4-1 .3-.4-.1-.7-.4-.7-.7-1.5-6.4-7.2-10.9-13.8-10.9-5.2 0-9.9 2.8-12.4 7.3-.1.3-.4.4-.7.5-.3.1-.6 0-.8-.2-1.4-1.1-3.2-1.7-5.1-1.7-4.4 0-8 3.4-8.5 7.5z" id="cloud-2_1_"/><g id="apple_1_" class="icon"><path class="hpa0" d="M411.6 388.6h-.3c-.5-.1-.9-.7-.7-1.2.8-3.1-.1-6.3-2.3-8.6-2.2-2.2-5.5-3.1-8.6-2.3-.5.1-1.1-.2-1.2-.7-.1-.5.2-1.1.7-1.2 3.7-1 7.8.1 10.5 2.8 2.7 2.7 3.8 6.7 2.8 10.5 0 .4-.4.7-.9.7z"/><path class="hpa0" d="M416.6 417.2c-1.5 0-2.9-.6-4.1-1.7-.2-.2-.5-.3-.7-.3-.2 0-.4.1-.6.3-1.1 1.1-2.5 1.7-4 1.7-2.4 0-5.4-1.8-8.3-5-4.3-4.8-8.5-13.3-7.4-22.5.8-4.9 4.7-8.6 9.5-9 4.6-.5 8.9 2 10.8 6.1 2-4.1 6.3-6.5 10.9-6.1 4.8.5 8.8 4.2 9.6 9 1.1 9.3-3.1 17.7-7.4 22.5-2.9 3.2-5.9 5-8.3 5zm-4.8-4c.8 0 1.6.3 2.1.9.7.7 1.7 1.1 2.7 1.1 1.8 0 4.4-1.7 6.8-4.4 4-4.5 7.9-12.3 6.9-20.9-.7-3.9-3.9-6.9-7.8-7.3-4.1-.4-7.9 2-9.3 5.9-.2.7-.9.9-1.2 1-.2.1-.4.1-.7 0-.2-.1-.8-.3-1-1-1.4-3.9-5.1-6.3-9.2-5.9-3.9.4-7.1 3.4-7.8 7.3-1 8.5 2.9 16.4 6.9 20.9 2.4 2.7 5 4.4 6.8 4.4 1 0 1.8-.4 2.6-1.1.8-.6 1.4-.9 2.2-.9z"/><path class="hpa0" d="M408.2 413.1c-1.8 0-4.4-1.7-6.7-4.3-1.5-1.7-2.8-3.6-3.9-5.8-.3-.5-.1-1.1.4-1.3.5-.3 1.1-.1 1.3.4 1 2 2.3 3.8 3.6 5.3 2.4 2.7 4.4 3.7 5.2 3.7.3 0 .6-.1 1.2-.6.4-.4 1-.4 1.4 0 .4.4.4 1 0 1.4-.8.8-1.6 1.2-2.5 1.2z"/><path class="hpa0" d="M415.6 412.1c-1.4 0-2.3-.9-2.6-1.2-.4-.4-.4-1 0-1.4.4-.4 1-.4 1.4 0 .3.3.7.6 1.2.6.8 0 2.8-1 5.2-3.7 2-2.3 3.8-5.2 4.9-8.2.2-.5.8-.8 1.3-.6.5.2.8.8.6 1.3-1.2 3.3-3.1 6.4-5.3 8.9-2.3 2.7-4.9 4.3-6.7 4.3z"/><path class="hpa0" d="M414.5 390c-.9 0-1.9-.1-2.8-.4-.3-.1-.6-.4-.7-.7-1-3.7.1-7.8 2.8-10.5 2.7-2.7 6.7-3.8 10.5-2.8.3.1.6.4.7.7 1 3.7-.1 7.8-2.8 10.5-2 2.1-4.8 3.2-7.7 3.2zm-1.7-2.2c2.9.6 5.9-.3 8-2.4 2.1-2.1 3-5.1 2.4-8-2.9-.6-5.9.3-8 2.4-2 2.1-2.9 5.1-2.4 8z"/><path class="hpa0" d="M412 389.6c-.3 0-.5-.1-.7-.3-.4-.4-.4-1 0-1.4l7.5-7.5c.4-.4 1-.4 1.4 0s.4 1 0 1.4l-7.5 7.5c-.2.2-.5.3-.7.3z"/></g><g id="plants" class="icon"><path class="hpa0" d="M520 415c-.6 0-1-.4-1-1v-6c0-.6.4-1 1-1s1 .4 1 1v6c0 .6-.4 1-1 1z"/><path class="hpa0" d="M516.3 411.4c-1.1 0-2.2-.4-3.1-1.3-.8-.8-1.3-1.9-1.3-3.1 0-1.2.5-2.3 1.3-3.1l7.5-7.5c1.7-1.7 4.5-1.7 6.2 0 .8.8 1.3 1.9 1.3 3.1 0 1.2-.5 2.3-1.3 3.1l-7.5 7.5c-.9.8-2 1.3-3.1 1.3zm7.5-14.3c-.6 0-1.2.2-1.7.7l-7.5 7.5c-.4.4-.7 1-.7 1.7s.2 1.2.7 1.7c.9.9 2.4.9 3.4 0l7.5-7.5c.4-.4.7-1 .7-1.7s-.2-1.2-.7-1.7c-.5-.5-1.1-.7-1.7-.7z"/><path class="hpa0" d="M523.8 411.4c-1.2 0-2.3-.5-3.1-1.3l-7.5-7.5c-.8-.8-1.3-1.9-1.3-3.1 0-1.2.5-2.3 1.3-3.1.8-.8 1.9-1.3 3.1-1.3 1.2 0 2.3.5 3.1 1.3l7.5 7.5c1.7 1.7 1.7 4.5 0 6.2-.8.8-1.9 1.3-3.1 1.3zm-7.5-14.3c-.6 0-1.2.2-1.7.7-.4.4-.7 1-.7 1.7 0 .6.2 1.2.7 1.7l7.5 7.5c.9.9 2.5.9 3.4 0 .9-.9.9-2.4 0-3.4l-7.5-7.5c-.5-.5-1.1-.7-1.7-.7z"/><path class="hpa0" d="M565 415c-.6 0-1-.4-1-1v-6c0-.6.4-1 1-1s1 .4 1 1v6c0 .6-.4 1-1 1z"/><path class="hpa0" d="M561.3 411.4c-1.1 0-2.2-.4-3.1-1.3-.8-.8-1.3-1.9-1.3-3.1 0-1.2.5-2.3 1.3-3.1l7.5-7.5c1.7-1.7 4.5-1.7 6.2 0 .8.8 1.3 1.9 1.3 3.1 0 1.2-.5 2.3-1.3 3.1l-7.5 7.5c-.9.8-2 1.3-3.1 1.3zm7.5-14.3c-.6 0-1.2.2-1.7.7l-7.5 7.5c-.4.4-.7 1-.7 1.7s.2 1.2.7 1.7c.9.9 2.4.9 3.4 0l7.5-7.5c.4-.4.7-1 .7-1.7s-.2-1.2-.7-1.7c-.5-.5-1.1-.7-1.7-.7z"/><path class="hpa0" d="M568.8 411.4c-1.2 0-2.3-.5-3.1-1.3l-7.5-7.5c-.8-.8-1.3-1.9-1.3-3.1 0-1.2.5-2.3 1.3-3.1.8-.8 1.9-1.3 3.1-1.3 1.2 0 2.3.5 3.1 1.3l7.5 7.5c1.7 1.7 1.7 4.5 0 6.2-.8.8-1.9 1.3-3.1 1.3zm-7.5-14.3c-.6 0-1.2.2-1.7.7-.4.4-.7 1-.7 1.7 0 .6.2 1.2.7 1.7l7.5 7.5c.9.9 2.5.9 3.4 0 .9-.9.9-2.4 0-3.4l-7.5-7.5c-.5-.5-1.1-.7-1.7-.7z"/><path class="hpa0" d="M542 390c-.6 0-1-.4-1-1v-6c0-.6.4-1 1-1s1 .4 1 1v6c0 .6-.4 1-1 1z"/><path class="hpa0" d="M538.3 386.4c-1.1 0-2.2-.4-3.1-1.3-.8-.8-1.3-1.9-1.3-3.1 0-1.2.5-2.3 1.3-3.1l7.5-7.5c1.7-1.7 4.5-1.7 6.2 0 .8.8 1.3 1.9 1.3 3.1 0 1.2-.5 2.3-1.3 3.1l-7.5 7.5c-.9.8-2 1.3-3.1 1.3zm7.5-14.3c-.6 0-1.2.2-1.7.7l-7.5 7.5c-.4.4-.7 1-.7 1.7s.2 1.2.7 1.7c.9.9 2.4.9 3.4 0l7.5-7.5c.4-.4.7-1 .7-1.7s-.2-1.2-.7-1.7c-.5-.5-1.1-.7-1.7-.7z"/><path class="hpa0" d="M545.8 386.4c-1.2 0-2.3-.5-3.1-1.3l-7.5-7.5c-.8-.8-1.3-1.9-1.3-3.1 0-1.2.5-2.3 1.3-3.1.8-.8 1.9-1.3 3.1-1.3 1.2 0 2.3.5 3.1 1.3l7.5 7.5c1.7 1.7 1.7 4.5 0 6.2-.8.8-1.9 1.3-3.1 1.3zm-7.5-14.3c-.6 0-1.2.2-1.7.7-.4.4-.7 1-.7 1.7 0 .6.2 1.2.7 1.7l7.5 7.5c.9.9 2.5.9 3.4 0 .9-.9.9-2.4 0-3.4l-7.5-7.5c-.5-.5-1.1-.7-1.7-.7z"/><path class="hpa0" d="M587 390c-.6 0-1-.4-1-1v-6c0-.6.4-1 1-1s1 .4 1 1v6c0 .6-.4 1-1 1z"/><path class="hpa0" d="M583.3 386.4c-1.1 0-2.2-.4-3.1-1.3-.8-.8-1.3-1.9-1.3-3.1 0-1.2.5-2.3 1.3-3.1l7.5-7.5c1.7-1.7 4.5-1.7 6.2 0 .8.8 1.3 1.9 1.3 3.1 0 1.2-.5 2.3-1.3 3.1l-7.5 7.5c-.9.8-2 1.3-3.1 1.3zm7.5-14.3c-.6 0-1.2.2-1.7.7l-7.5 7.5c-.4.4-.7 1-.7 1.7s.2 1.2.7 1.7c.9.9 2.4.9 3.4 0l7.5-7.5c.4-.4.7-1 .7-1.7s-.2-1.2-.7-1.7c-.5-.5-1.1-.7-1.7-.7z"/><path class="hpa0" d="M590.8 386.4c-1.2 0-2.3-.5-3.1-1.3l-7.5-7.5c-.8-.8-1.3-1.9-1.3-3.1 0-1.2.5-2.3 1.3-3.1.8-.8 1.9-1.3 3.1-1.3 1.2 0 2.3.5 3.1 1.3l7.5 7.5c1.7 1.7 1.7 4.5 0 6.2-.8.8-1.9 1.3-3.1 1.3zm-7.5-14.3c-.6 0-1.2.2-1.7.7-.4.4-.7 1-.7 1.7 0 .6.2 1.2.7 1.7l7.5 7.5c.9.9 2.5.9 3.4 0 .9-.9.9-2.4 0-3.4l-7.5-7.5c-.5-.5-1.1-.7-1.7-.7z"/></g><g id="pin" class="icon"><path class="hpa0" d="M125.2 422.6c-.5 0-1-.3-1.3-.8l-19.1-33.1c-.3-.5-.3-1 0-1.5l9.6-16.5c.3-.5.8-.8 1.3-.8h19.1c.5 0 1 .3 1.3.8l9.6 16.5c.3.5.3 1 0 1.5l-19.1 33.1c-.4.6-.9.8-1.4.8zM107.8 388l17.4 30.1 17.4-30.1-8.7-15h-17.4l-8.7 15z"/><path class="hpa0" d="M125.2 396.6c-4.8 0-8.8-3.9-8.8-8.8s3.9-8.8 8.8-8.8 8.8 3.9 8.8 8.8-4 8.8-8.8 8.8zm0-15c-3.5 0-6.3 2.8-6.3 6.3s2.8 6.3 6.3 6.3 6.3-2.8 6.3-6.3-2.9-6.3-6.3-6.3z"/></g></g><g id="five"><g id="tower_1_" class="icon"><path class="hpa0" d="M339 294c-.6 0-1-.4-1-1v-11c0-.6.4-1 1-1s1 .4 1 1v11c0 .6-.4 1-1 1z"/><path class="hpa0" d="M333 367c-.6 0-1-.4-1-1v-50c0-.6.4-1 1-1s1 .4 1 1v50c0 .6-.4 1-1 1z"/><path class="hpa0" d="M345 367c-.6 0-1-.4-1-1v-50c0-.6.4-1 1-1s1 .4 1 1v50c0 .6-.4 1-1 1z"/><path class="hpa0" d="M345.6 338.4c-.3 0-.7-.2-.9-.5l-5.5-9.5c-.3-.5-.1-1.1.4-1.4.5-.3 1.1-.1 1.4.4l5.5 9.5c.3.5.1 1.1-.4 1.4-.2.1-.3.1-.5.1z"/><path class="hpa0" d="M332.9 338.5c-.2 0-.3 0-.5-.1-.5-.3-.6-.9-.4-1.4l5.5-9.5c.3-.5.9-.6 1.4-.4.5.3.6.9.4 1.4l-5.5 9.5c-.2.3-.5.5-.9.5z"/><path class="hpa0" d="M357.1 367.4c-.3 0-.7-.2-.9-.5L339.5 338c-.3-.5-.1-1.1.4-1.4.5-.3 1.1-.1 1.4.4l16.7 28.9c.3.5.1 1.1-.4 1.4-.2 0-.4.1-.5.1z"/><path class="hpa0" d="M321.9 366.8c-.2 0-.3 0-.5-.1-.5-.3-.6-.9-.4-1.4l16.4-28.3c.3-.5.9-.6 1.4-.4.5.3.6.9.4 1.4l-16.4 28.3c-.3.3-.6.5-.9.5z"/><path class="hpa0" d="M345.6 367.1c-.3 0-.7-.2-.9-.5l-5.5-9.5c-.3-.5-.1-1.1.4-1.4.5-.3 1.1-.1 1.4.4l5.5 9.5c.3.5.1 1.1-.4 1.4-.2 0-.3.1-.5.1z"/><path class="hpa0" d="M332.9 367.1c-.2 0-.3 0-.5-.1-.5-.3-.6-.9-.4-1.4l5.5-9.5c.3-.5.9-.6 1.4-.4.5.3.6.9.4 1.4l-5.5 9.5c-.2.3-.5.5-.9.5z"/><path class="hpa0" d="M340.1 357.5c-.2 0-.3 0-.5-.1-.5-.3-.6-.9-.4-1.4l5.5-9.5c.3-.5.9-.6 1.4-.4.5.3.6.9.4 1.4L341 357c-.2.3-.6.5-.9.5z"/><path class="hpa0" d="M338.5 357.5c-.3 0-.7-.2-.9-.5l-5.5-9.5c-.3-.5-.1-1.1.4-1.4s1.1-.1 1.4.4l5.5 9.5c.3.5.1 1.1-.4 1.4-.2.1-.4.1-.5.1z"/><path class="hpa0" d="M339 338h-6c-.6 0-1-.4-1-1s.4-1 1-1h6c.6 0 1 .4 1 1s-.4 1-1 1z"/><path class="hpa0" d="M345 338h-6c-.6 0-1-.4-1-1s.4-1 1-1h6c.6 0 1 .4 1 1s-.4 1-1 1z"/><path class="hpa0" d="M339 358h-12c-.6 0-1-.4-1-1s.4-1 1-1h12c.6 0 1 .4 1 1s-.4 1-1 1z"/><path class="hpa0" d="M351 358h-12c-.6 0-1-.4-1-1s.4-1 1-1h12c.6 0 1 .4 1 1s-.4 1-1 1z"/><path class="hpa0" d="M339.3 328.9c-7.4 0-12.9-5.6-12.9-12.9 0-.6.4-1 1-1h23.8c.6 0 1 .4 1 1 0 7.4-5.6 12.9-12.9 12.9zM328.4 317c.5 5.7 5 9.9 10.9 9.9s10.4-4.2 10.9-9.9h-21.8z"/><path class="hpa0" d="M351.2 305h-23.8c-.6 0-1-.4-1-1 0-6.9 6-12.9 12.9-12.9s12.9 6 12.9 12.9c0 .6-.5 1-1 1zm-22.8-2h21.7c-.5-4.9-5-9.9-10.9-9.9s-10.3 5-10.8 9.9z"/><path class="hpa0" d="M352 317h-25c-.6 0-1-.4-1-1v-12c0-.6.4-1 1-1h25c.6 0 1 .4 1 1v12c0 .6-.4 1-1 1zm-24-2h23v-10h-23v10z"/><path class="hpa0" d="M352 314h-25c-.6 0-1-.4-1-1s.4-1 1-1h25c.6 0 1 .4 1 1s-.4 1-1 1z"/><path class="hpa0" d="M330 317c-.6 0-1-.4-1-1v-3c0-.6.4-1 1-1s1 .4 1 1v3c0 .6-.4 1-1 1z"/><path class="hpa0" d="M334 317c-.6 0-1-.4-1-1v-3c0-.6.4-1 1-1s1 .4 1 1v3c0 .6-.4 1-1 1z"/><path class="hpa0" d="M336 317c-.6 0-1-.4-1-1v-3c0-.6.4-1 1-1s1 .4 1 1v3c0 .6-.4 1-1 1z"/><path class="hpa0" d="M339 317c-.6 0-1-.4-1-1v-3c0-.6.4-1 1-1s1 .4 1 1v3c0 .6-.4 1-1 1z"/><path class="hpa0" d="M342 317c-.6 0-1-.4-1-1v-3c0-.6.4-1 1-1s1 .4 1 1v3c0 .6-.4 1-1 1z"/><path class="hpa0" d="M349 317c-.6 0-1-.4-1-1v-3c0-.6.4-1 1-1s1 .4 1 1v3c0 .6-.4 1-1 1z"/><path class="hpa0" d="M345 317c-.6 0-1-.4-1-1v-3c0-.6.4-1 1-1s1 .4 1 1v3c0 .6-.4 1-1 1z"/><path class="hpa0" d="M339 367c-.6 0-1-.4-1-1v-38c0-.6.4-1 1-1s1 .4 1 1v38c0 .6-.4 1-1 1z"/></g><g id="barn_1_" class="icon"><path class="hpa0" d="M173 368c-.6 0-1-.4-1-1v-35c0-.6.4-1 1-1s1 .4 1 1v35c0 .6-.4 1-1 1z"/><path class="hpa0" d="M180 367c-.6 0-1-.4-1-1v-34c0-.6.4-1 1-1s1 .4 1 1v34c0 .6-.4 1-1 1z"/><path class="hpa0" d="M189 346c-.6 0-1-.4-1-1v-13c0-.6.4-1 1-1s1 .4 1 1v13c0 .6-.4 1-1 1z"/><path class="hpa0" d="M196 339c-.6 0-1-.4-1-1v-6c0-.6.4-1 1-1s1 .4 1 1v6c0 .6-.4 1-1 1z"/><path class="hpa0" d="M204 346c-.6 0-1-.4-1-1v-13c0-.6.4-1 1-1s1 .4 1 1v13c0 .6-.4 1-1 1z"/><path class="hpa0" d="M212 367c-.6 0-1-.4-1-1v-34c0-.6.4-1 1-1s1 .4 1 1v34c0 .6-.4 1-1 1z"/><path class="hpa0" d="M220 367c-.6 0-1-.4-1-1v-34c0-.6.4-1 1-1s1 .4 1 1v34c0 .6-.4 1-1 1z"/><path class="hpa0" d="M185 367.5c-.2 0-.5-.1-.6-.2l-.6-.5c-.3-.3-.4-.7-.3-1.1.1-.3.3-.5.6-.6V345c0-.6.4-1 1-1h22.8c.3 0 .6.1.7.3l.2.2c.2.2.3.4.3.7V366c0 .6-.4 1-1 1H186c-.1.2-.3.3-.5.4-.2.1-.4.1-.5.1zm1-2.5h21v-19h-21v19z"/><path class="hpa0" d="M210 304c-.6 0-1-.4-1-1v-13h-25v13c0 .6-.4 1-1 1s-1-.4-1-1v-14c0-.6.4-1 1-1h26.7c.4 0 .8.2.9.6l.3.7c.1.1.1.3.1.4V303c0 .6-.4 1-1 1z"/><path class="hpa0" d="M227 367h-62c-.6 0-1-.4-1-1v-34c0-.6.4-1 1-1h62c.6 0 1 .4 1 1v34c0 .6-.4 1-1 1zm-61-2h60v-32h-60v32z"/><path class="hpa0" d="M164.9 332.6c-.3 0-.5-.1-.7-.3s-.3-.6-.3-.9c0-17.8 14.5-32.4 32.3-32.4 8.6 0 16.7 3.5 22.8 9.6 6.1 6.1 9.4 14.3 9.4 22.9 0 .6-.4 1-1 1l-62.5.1zm31.2-31.6c-16.3 0-29.7 13.2-30.2 29.4l60.5.1c-.2-7.7-3.4-15-8.8-20.5-5.8-5.7-13.4-9-21.5-9z"/><path class="hpa0" d="M202.9 346h-13.6c-.6 0-1-.4-1-1 0-4.4 3.3-7.8 7.8-7.8 4.3 0 7.4 6.6 7.7 7.4.1.3.1.7-.1 1-.1.2-.4.4-.8.4zm-12.4-2h10.8c-1.1-2-3.2-4.8-5.1-4.8-3 0-5.3 2-5.7 4.8z"/><path class="hpa0" d="M199.6 299h-6.8c-.6 0-1-.3-1-.8 0-2.5 1.9-4.2 4.4-4.2 2.4 0 4 3.1 4.3 3.8.1.3.1.6-.1.9-.2.2-.5.3-.8.3zm-5.6-2h3.9c-.5-.8-1.2-1.4-1.7-1.4-1.1 0-1.9.6-2.2 1.4z"/><path class="hpa0" d="M196 367c-.6 0-1-.4-1-1v-21c0-.6.4-1 1-1s1 .4 1 1v21c0 .6-.4 1-1 1z"/><path class="hpa0" d="M202 325h-12c-.6 0-1-.4-1-1v-11c0-.6.4-1 1-1h12c.6 0 1 .4 1 1v11c0 .6-.4 1-1 1zm-11-2h10v-9h-10v9z"/><path class="hpa0" d="M207.8 367.5c-.2 0-.5-.1-.7-.3l-23.4-21.3c-.4-.4-.4-1-.1-1.4.4-.4 1-.4 1.4-.1l23.4 21.3c.4.4.4 1 .1 1.4-.1.3-.4.4-.7.4z"/><path class="hpa0" d="M184.4 367.5c-.3 0-.5-.1-.7-.3-.4-.4-.3-1 .1-1.4l23.4-21.3c.4-.4 1-.3 1.4.1.4.4.3 1-.1 1.4L185 367.3c-.1.1-.4.2-.6.2z"/><path class="hpa0" d="M209.7 290h-27.1c-.4 0-.8-.3-.9-.7-.1-.4 0-.8.3-1.1l13.5-10.6c.4-.3.9-.3 1.2 0l13.6 10.6c.3.3.5.7.3 1.1-.1.4-.5.7-.9.7zm-24.2-2h21.3l-10.7-8.4-10.6 8.4z"/></g><g id="store_1_" class="icon"><path class="hpa0" d="M521 346h-74c-.6 0-1-.4-1-1v-43c0-.6.4-1 1-1h74c.6 0 1 .4 1 1v43c0 .6-.4 1-1 1zm-73-2h72v-41h-72v41z"/><path class="hpa0" d="M515.1 308.9c-4 0-7.2-3.2-7.2-7.2 0-.6.4-1 1-1s1 .4 1 1c0 2.9 2.3 5.2 5.2 5.2 2.9 0 5.2-2.3 5.2-5.2 0-.6.4-1 1-1s1 .4 1 1c0 4-3.2 7.2-7.2 7.2z"/><path class="hpa0" d="M490.2 308.9c-4 0-7.2-3.2-7.2-7.2 0-.6.4-1 1-1s1 .4 1 1c0 2.9 2.3 5.2 5.2 5.2 2.9 0 5.2-2.3 5.2-5.2 0-.6.4-1 1-1s1 .4 1 1c0 4-3.2 7.2-7.2 7.2z"/><path class="hpa0" d="M477.6 324.2c-.6 0-1-.4-1-1 0-4 3.2-7.2 7.2-7.2s7.2 3.2 7.2 7.2c0 .6-.4 1-1 1s-1-.4-1-1c0-2.9-2.3-5.2-5.2-5.2-2.9 0-5.2 2.3-5.2 5.2 0 .6-.5 1-1 1z"/><path class="hpa0" d="M477.8 308.9c-4 0-7.2-3.2-7.2-7.2 0-.6.4-1 1-1s1 .4 1 1c0 2.9 2.3 5.2 5.2 5.2 2.9 0 5.2-2.3 5.2-5.2 0-.6.4-1 1-1s1 .4 1 1c0 4-3.2 7.2-7.2 7.2z"/><path class="hpa0" d="M452.9 308.9c-4 0-7.2-3.2-7.2-7.2 0-.6.4-1 1-1s1 .4 1 1c0 2.9 2.3 5.2 5.2 5.2 2.9 0 5.2-2.3 5.2-5.2 0-.6.4-1 1-1s1 .4 1 1c0 4-3.2 7.2-7.2 7.2z"/><path class="hpa0" d="M465.3 308.9c-4 0-7.2-3.2-7.2-7.2 0-.6.4-1 1-1s1 .4 1 1c0 2.9 2.3 5.2 5.2 5.2 2.9 0 5.2-2.3 5.2-5.2 0-.6.4-1 1-1s1 .4 1 1c0 4-3.2 7.2-7.2 7.2z"/><path class="hpa0" d="M502.7 308.9c-4 0-7.2-3.2-7.2-7.2 0-.6.4-1 1-1s1 .4 1 1c0 2.9 2.3 5.2 5.2 5.2 2.9 0 5.2-2.3 5.2-5.2 0-.6.4-1 1-1s1 .4 1 1c0 4-3.2 7.2-7.2 7.2z"/><path class="hpa0" d="M490 346h-12c-.6 0-1-.4-1-1v-21.2c-.3-.2-.5-.7-.4-1.1.1-.4.5-.7 1-.7H490c.6 0 1 .4 1 1v22.1c0 .5-.5.9-1 .9zm-11-2h10v-20h-10v20z"/><path class="hpa0" d="M471 335h-11c-.6 0-1-.4-1-1v-10h-.1c-.5-.1-.8-.6-.7-1.1s.5-.9 1-.9H471c.6 0 1 .4 1 1v10.1c.3.2.6.5.6.9 0 .5-.4 1-1 1h-.6zm-10-2h9v-9h-9v9z"/><path class="hpa0" d="M509 335h-12c-.6 0-1-.4-1-1v-10.1c-.4-.2-.6-.7-.5-1.1.1-.5.5-.8 1-.8H509c.6 0 1 .4 1 1v11c0 .3-.1.5-.3.7-.2.2-.4.3-.7.3zm-11-2h10v-9h-10v9z"/><path class="hpa0" d="M477.6 335c-.6 0-1-.4-1-1s.4-1 1-1H490c.6 0 1 .4 1 1s-.4 1-1 1h-12.4z"/><path class="hpa0" d="M483.8 324.2c-.3 0-.7-.2-.9-.5l-3.1-5.4c-.3-.5-.1-1.1.4-1.4.5-.3 1.1-.1 1.4.4l3.1 5.4c.3.5.1 1.1-.4 1.4-.2.1-.4.1-.5.1z"/><path class="hpa0" d="M483.8 324.2c-.2 0-.3 0-.5-.1-.5-.3-.6-.9-.4-1.4l3.1-5.4c.3-.5.9-.6 1.4-.4.5.3.6.9.4 1.4l-3.1 5.4c-.2.4-.6.5-.9.5z"/><path class="hpa0" d="M471 324h-11c-.6 0-1-.4-1-1v-2c0-.6.4-1 1-1h11c.6 0 1 .4 1 1v2c0 .6-.4 1-1 1zm-10-2h9-9z"/><path class="hpa0" d="M509 324h-12c-.6 0-1-.4-1-1v-2c0-.6.4-1 1-1h12c.6 0 1 .4 1 1v2c0 .6-.4 1-1 1zm-11-2h10-10z"/></g><g id="cloud_1_" class="icon"><path class="hpa0" d="M82.3 339H24c-.6 0-1-.4-1-1 0-5.8 5.2-11 11-11 .9 0 1.7.1 2.6.4.4-9.8 8.4-17.6 18.3-17.6 9.8 0 17.8 7.7 18.3 17.3 5.5.5 10.1 5.4 10.1 10.9 0 .6-.4 1-1 1zm-57.2-2h56.1c-.5-3.9-4.2-8-9-8-.6 0-1-.4-1-1 0-8.9-7.3-16.2-16.3-16.2s-16.3 7.3-16.3 16.3v.6c0 .3-.1.7-.4.9-.3.2-.6.3-.9.1-6.3-2.4-11.5 2.5-12.2 7.3z"/><path class="hpa0" d="M65.2 336.2c-.6 0-1-.4-1-1s.4-1 1-1c3.3 0 6-2.7 6-6 0-.6.4-1 1-1s1 .4 1 1c.1 4.4-3.5 8-8 8z"/><path class="hpa0" d="M55.3 329.8c-.6 0-1-.4-1-1 0-4.2-3.5-7.7-7.7-7.7s-7.7 3.5-7.7 7.7c0 .6-.4 1-1 1s-1-.4-1-1c0-5.3 4.3-9.7 9.7-9.7s9.7 4.3 9.7 9.7c0 .6-.4 1-1 1z"/></g></g><g id="four"><g id="lake_1_" class="icon"><path class="hpa0" d="M514.2 255c-2 0-3.6-1.6-3.6-3.6 0-.6.4-1 1-1s1 .4 1 1c0 .9.7 1.6 1.6 1.6.6 0 1 .4 1 1s-.4 1-1 1z"/><path class="hpa0" d="M514.2 255c-.6 0-1-.4-1-1s.4-1 1-1c.9 0 1.6-.7 1.6-1.6 0-.6.4-1 1-1s1 .4 1 1c0 2-1.6 3.6-3.6 3.6z"/><path class="hpa0" d="M519.4 255c-2 0-3.6-1.6-3.6-3.6 0-.6.4-1 1-1s1 .4 1 1c0 .9.7 1.6 1.6 1.6.6 0 1 .4 1 1s-.5 1-1 1z"/><path class="hpa0" d="M519.4 255c-.6 0-1-.4-1-1s.4-1 1-1c.9 0 1.6-.7 1.6-1.6 0-.6.4-1 1-1s1 .4 1 1c0 2-1.7 3.6-3.6 3.6z"/><path class="hpa0" d="M524.5 255c-2 0-3.6-1.6-3.6-3.6 0-.6.4-1 1-1s1 .4 1 1c0 .9.7 1.6 1.6 1.6.6 0 1 .4 1 1s-.4 1-1 1z"/><path class="hpa0" d="M524.5 255c-.6 0-1-.4-1-1s.4-1 1-1c.9 0 1.6-.7 1.6-1.6 0-.6.4-1 1-1s1 .4 1 1c0 2-1.6 3.6-3.6 3.6z"/><path class="hpa0" d="M529.7 255c-2 0-3.6-1.6-3.6-3.6 0-.6.4-1 1-1s1 .4 1 1c0 .9.7 1.6 1.6 1.6.6 0 1 .4 1 1s-.5 1-1 1z"/><path class="hpa0" d="M590 266.6c-.6 0-1-.4-1-1s.4-1 1-1c.9 0 1.6-.7 1.6-1.6 0-.6.4-1 1-1s1 .4 1 1c0 2-1.6 3.6-3.6 3.6z"/><path class="hpa0" d="M600.3 266.6c-.6 0-1-.4-1-1s.4-1 1-1c.9 0 1.6-.7 1.6-1.6 0-.6.4-1 1-1s1 .4 1 1c0 2-1.6 3.6-3.6 3.6z"/><path class="hpa0" d="M595.2 266.6c-2 0-3.6-1.6-3.6-3.6 0-.6.4-1 1-1s1 .4 1 1c0 .9.7 1.6 1.6 1.6.6 0 1 .4 1 1s-.5 1-1 1z"/><path class="hpa0" d="M605.5 266.6c-2 0-3.6-1.6-3.6-3.6 0-.6.4-1 1-1s1 .4 1 1c0 .9.7 1.6 1.6 1.6.6 0 1 .4 1 1s-.5 1-1 1z"/><path class="hpa0" d="M600.3 266.6c-2 0-3.6-1.6-3.6-3.6 0-.6.4-1 1-1s1 .4 1 1c0 .9.7 1.6 1.6 1.6.6 0 1 .4 1 1s-.4 1-1 1z"/><path class="hpa0" d="M595.2 266.6c-.6 0-1-.4-1-1s.4-1 1-1c.9 0 1.6-.7 1.6-1.6 0-.6.4-1 1-1s1 .4 1 1c-.1 2-1.7 3.6-3.6 3.6z"/><path class="hpa0" d="M574.6 246c-.6 0-1-.4-1-1s.4-1 1-1c.9 0 1.6-.7 1.6-1.6 0-.6.4-1 1-1s1 .4 1 1c0 2-1.6 3.6-3.6 3.6z"/><path class="hpa0" d="M579.8 246c-2 0-3.6-1.6-3.6-3.6 0-.6.4-1 1-1s1 .4 1 1c0 .9.7 1.6 1.6 1.6.6 0 1 .4 1 1s-.5 1-1 1z"/><path class="hpa0" d="M579.8 246c-.6 0-1-.4-1-1s.4-1 1-1c.9 0 1.6-.7 1.6-1.6 0-.6.4-1 1-1s1 .4 1 1c-.1 2-1.7 3.6-3.6 3.6z"/><path class="hpa0" d="M584.9 246c-2 0-3.6-1.6-3.6-3.6 0-.6.4-1 1-1s1 .4 1 1c0 .9.7 1.6 1.6 1.6.6 0 1 .4 1 1s-.4 1-1 1z"/><path class="hpa0" d="M529.8 266.6c-.6 0-1-.4-1-1s.4-1 1-1c.9 0 1.6-.7 1.6-1.6 0-.6.4-1 1-1s1 .4 1 1c-.1 2-1.7 3.6-3.6 3.6z"/><path class="hpa0" d="M534.9 266.6c-2 0-3.6-1.6-3.6-3.6 0-.6.4-1 1-1s1 .4 1 1c0 .9.7 1.6 1.6 1.6.6 0 1 .4 1 1s-.4 1-1 1z"/><path class="hpa0" d="M534.9 266.6c-.6 0-1-.4-1-1s.4-1 1-1c.9 0 1.6-.7 1.6-1.6 0-.6.4-1 1-1s1 .4 1 1c0 2-1.6 3.6-3.6 3.6z"/><path class="hpa0" d="M540 266.6c-2 0-3.6-1.6-3.6-3.6 0-.6.4-1 1-1s1 .4 1 1c0 .9.7 1.6 1.6 1.6.6 0 1 .4 1 1s-.4 1-1 1z"/><path class="hpa0" d="M536.1 248.6c-.6 0-1-.4-1-1s.4-1 1-1c.9 0 1.6-.7 1.6-1.6 0-.6.4-1 1-1s1 .4 1 1c-.1 2-1.7 3.6-3.6 3.6z"/><path class="hpa0" d="M541.2 248.6c-2 0-3.6-1.6-3.6-3.6 0-.6.4-1 1-1s1 .4 1 1c0 .9.7 1.6 1.6 1.6.6 0 1 .4 1 1s-.4 1-1 1z"/><path class="hpa0" d="M541.2 248.6c-.6 0-1-.4-1-1s.4-1 1-1c.9 0 1.6-.7 1.6-1.6 0-.6.4-1 1-1s1 .4 1 1c0 2-1.6 3.6-3.6 3.6z"/><path class="hpa0" d="M546.4 248.6c-2 0-3.6-1.6-3.6-3.6 0-.6.4-1 1-1s1 .4 1 1c0 .9.7 1.6 1.6 1.6.6 0 1 .4 1 1s-.5 1-1 1z"/><path class="hpa0" d="M546.4 248.6c-.6 0-1-.4-1-1s.4-1 1-1c.9 0 1.6-.7 1.6-1.6 0-.6.4-1 1-1s1 .4 1 1c-.1 2-1.7 3.6-3.6 3.6z"/><path class="hpa0" d="M551.5 248.6c-2 0-3.6-1.6-3.6-3.6 0-.6.4-1 1-1s1 .4 1 1c0 .9.7 1.6 1.6 1.6.6 0 1 .4 1 1s-.4 1-1 1z"/><path class="hpa0" d="M558.8 261.4c-.6 0-1-.4-1-1s.4-1 1-1c.9 0 1.7-.7 1.7-1.7 0-.6.4-1 1-1s1 .4 1 1c0 2-1.7 3.7-3.7 3.7z"/><path class="hpa0" d="M564.1 261.4c-2 0-3.7-1.6-3.7-3.7 0-.6.4-1 1-1s1 .4 1 1c0 .9.7 1.7 1.7 1.7.6 0 1 .4 1 1s-.4 1-1 1z"/><path class="hpa0" d="M564.1 261.4c-.6 0-1-.4-1-1s.4-1 1-1c.9 0 1.7-.7 1.7-1.7 0-.6.4-1 1-1s1 .4 1 1c0 2-1.6 3.7-3.7 3.7z"/><path class="hpa0" d="M569.4 261.3c-2 0-3.6-1.6-3.6-3.6 0-.6.4-1 1-1s1 .4 1 1c0 .9.7 1.6 1.6 1.6.6 0 1 .4 1 1s-.5 1-1 1z"/><path class="hpa0" d="M569.4 261.3c-.6 0-1-.4-1-1s.4-1 1-1c.9 0 1.6-.7 1.6-1.6 0-.6.4-1 1-1s1 .4 1 1c-.1 2-1.7 3.6-3.6 3.6z"/><path class="hpa0" d="M574.5 261.3c-2 0-3.6-1.6-3.6-3.6 0-.6.4-1 1-1s1 .4 1 1c0 .9.7 1.6 1.6 1.6.6 0 1 .4 1 1s-.4 1-1 1z"/><g><path class="hpa0" d="M583.6 255c-.6 0-1-.4-1-1s.4-1 1-1c.9 0 1.6-.7 1.6-1.6 0-.6.4-1 1-1s1 .4 1 1c0 2-1.6 3.6-3.6 3.6z"/><path class="hpa0" d="M588.7 255c-2 0-3.6-1.6-3.6-3.6 0-.6.4-1 1-1s1 .4 1 1c0 .9.7 1.6 1.6 1.6.6 0 1 .4 1 1s-.4 1-1 1z"/><path class="hpa0" d="M588.7 255c-.6 0-1-.4-1-1s.4-1 1-1c.9 0 1.6-.7 1.6-1.6 0-.6.4-1 1-1s1 .4 1 1c0 2-1.6 3.6-3.6 3.6z"/><path class="hpa0" d="M593.9 255c-2 0-3.6-1.6-3.6-3.6 0-.6.4-1 1-1s1 .4 1 1c0 .9.7 1.6 1.6 1.6.6 0 1 .4 1 1s-.5 1-1 1z"/><path class="hpa0" d="M593.9 255c-.6 0-1-.4-1-1s.4-1 1-1c.9 0 1.6-.7 1.6-1.6 0-.6.4-1 1-1s1 .4 1 1c0 2-1.6 3.6-3.6 3.6z"/><path class="hpa0" d="M599 255c-2 0-3.6-1.6-3.6-3.6 0-.6.4-1 1-1s1 .4 1 1c0 .9.7 1.6 1.6 1.6.6 0 1 .4 1 1s-.4 1-1 1z"/></g><g><path class="hpa0" d="M551.5 248.6c-.6 0-1-.4-1-1s.4-1 1-1c.9 0 1.6-.7 1.6-1.6 0-.6.4-1 1-1s1 .4 1 1c0 2-1.6 3.6-3.6 3.6z"/></g><g><path class="hpa0" d="M556.6 248.6c-2 0-3.6-1.6-3.6-3.6 0-.6.4-1 1-1s1 .4 1 1c0 .9.7 1.6 1.6 1.6.6 0 1 .4 1 1s-.4 1-1 1z"/></g><g><path class="hpa0" d="M556.6 248.6c-.6 0-1-.4-1-1s.4-1 1-1c.9 0 1.6-.7 1.6-1.6 0-.6.4-1 1-1s1 .4 1 1c0 2-1.6 3.6-3.6 3.6z"/></g><g><path class="hpa0" d="M561.8 248.6c-2 0-3.6-1.6-3.6-3.6 0-.6.4-1 1-1s1 .4 1 1c0 .9.7 1.6 1.6 1.6.6 0 1 .4 1 1s-.5 1-1 1z"/></g><g><path class="hpa0" d="M549.8 274.9c-3.2 0-5.7-2.6-5.7-5.7s2.6-5.7 5.7-5.7 5.7 2.6 5.7 5.7-2.5 5.7-5.7 5.7zm0-9.5c-2.1 0-3.7 1.7-3.7 3.7 0 2.1 1.7 3.7 3.7 3.7 2.1 0 3.7-1.7 3.7-3.7.1-2-1.6-3.7-3.7-3.7z"/><path class="hpa0" d="M550 282c-.6 0-1-.4-1-1v-9c0-.6.4-1 1-1s1 .4 1 1v9c0 .6-.4 1-1 1z"/><path class="hpa0" d="M549.9 273.3c-.3 0-.7-.2-.9-.5l-1.4-2.4c-.3-.5-.1-1.1.4-1.4.5-.3 1.1-.1 1.4.4l1.4 2.4c.3.5.1 1.1-.4 1.4-.2.1-.4.1-.5.1z"/><path class="hpa0" d="M549.8 273.6c-.2 0-.3 0-.5-.1-.5-.3-.6-.9-.4-1.4l2.1-3.7c.3-.5.9-.6 1.4-.4.5.3.6.9.4 1.4l-2.1 3.7c-.2.3-.5.5-.9.5z"/></g><g><path class="hpa0" d="M591 238c-.6 0-1-.4-1-1v-19c0-.6.4-1 1-1s1 .4 1 1v19c0 .6-.4 1-1 1z"/><path class="hpa0" d="M587.3 222.8c-.6 0-1-.4-1-1s.4-1 1-1c1.5 0 2.7-1.2 2.7-2.7 0-.6.4-1 1-1s1 .4 1 1c0 2.6-2.1 4.7-4.7 4.7z"/><path class="hpa0" d="M587.3 225.8c-.6 0-1-.4-1-1s.4-1 1-1c1.5 0 2.7-1.2 2.7-2.7 0-.6.4-1 1-1s1 .4 1 1c0 2.6-2.1 4.7-4.7 4.7z"/><path class="hpa0" d="M587.3 228.9c-.6 0-1-.4-1-1s.4-1 1-1c1.5 0 2.7-1.2 2.7-2.7 0-.6.4-1 1-1s1 .4 1 1c0 2.6-2.1 4.7-4.7 4.7z"/><path class="hpa0" d="M587.3 232c-.6 0-1-.4-1-1s.4-1 1-1c1.5 0 2.7-1.2 2.7-2.7 0-.6.4-1 1-1s1 .4 1 1c0 2.6-2.1 4.7-4.7 4.7z"/><path class="hpa0" d="M594.6 222.8c-2.6 0-4.7-2.1-4.7-4.7 0-.6.4-1 1-1s1 .4 1 1c0 1.5 1.2 2.7 2.7 2.7.6 0 1 .4 1 1s-.4 1-1 1z"/><path class="hpa0" d="M594.6 225.8c-2.6 0-4.7-2.1-4.7-4.7 0-.6.4-1 1-1s1 .4 1 1c0 1.5 1.2 2.7 2.7 2.7.6 0 1 .4 1 1s-.4 1-1 1z"/><path class="hpa0" d="M594.6 228.9c-2.6 0-4.7-2.1-4.7-4.7 0-.6.4-1 1-1s1 .4 1 1c0 1.5 1.2 2.7 2.7 2.7.6 0 1 .4 1 1s-.4 1-1 1z"/><path class="hpa0" d="M594.6 232c-2.6 0-4.7-2.1-4.7-4.7 0-.6.4-1 1-1s1 .4 1 1c0 1.5 1.2 2.7 2.7 2.7.6 0 1 .4 1 1s-.4 1-1 1z"/></g><g><path class="hpa0" d="M520 238c-.6 0-1-.4-1-1v-19c0-.6.4-1 1-1s1 .4 1 1v19c0 .6-.4 1-1 1z"/><path class="hpa0" d="M516 222.8c-.6 0-1-.4-1-1s.4-1 1-1c1.5 0 2.7-1.2 2.7-2.7 0-.6.4-1 1-1s1 .4 1 1c0 2.6-2.1 4.7-4.7 4.7z"/><path class="hpa0" d="M516 225.9c-.6 0-1-.4-1-1s.4-1 1-1c1.5 0 2.7-1.2 2.7-2.7 0-.6.4-1 1-1s1 .4 1 1c0 2.6-2.1 4.7-4.7 4.7z"/><path class="hpa0" d="M516 229c-.6 0-1-.4-1-1s.4-1 1-1c1.5 0 2.7-1.2 2.7-2.7 0-.6.4-1 1-1s1 .4 1 1c0 2.6-2.1 4.7-4.7 4.7z"/><path class="hpa0" d="M516 232c-.6 0-1-.4-1-1s.4-1 1-1c1.5 0 2.7-1.2 2.7-2.7 0-.6.4-1 1-1s1 .4 1 1c0 2.7-2.1 4.7-4.7 4.7z"/><path class="hpa0" d="M523.4 222.8c-2.6 0-4.7-2.1-4.7-4.7 0-.6.4-1 1-1s1 .4 1 1c0 1.5 1.2 2.7 2.7 2.7.6 0 1 .4 1 1s-.5 1-1 1z"/><path class="hpa0" d="M523.4 225.9c-2.6 0-4.7-2.1-4.7-4.7 0-.6.4-1 1-1s1 .4 1 1c0 1.5 1.2 2.7 2.7 2.7.6 0 1 .4 1 1s-.5 1-1 1z"/><path class="hpa0" d="M523.4 229c-2.6 0-4.7-2.1-4.7-4.7 0-.6.4-1 1-1s1 .4 1 1c0 1.5 1.2 2.7 2.7 2.7.6 0 1 .4 1 1s-.5 1-1 1z"/><path class="hpa0" d="M523.4 232c-2.6 0-4.7-2.1-4.7-4.7 0-.6.4-1 1-1s1 .4 1 1c0 1.5 1.2 2.7 2.7 2.7.6 0 1 .4 1 1s-.5 1-1 1z"/></g><g><path class="hpa0" d="M591.3 274H553c-.6 0-1-.4-1-1s.4-1 1-1h38.3c9.2 0 16.7-8 16.7-17.9v-.1c0-9.5-7.3-17-16.7-17h-70.9c-9.6 0-17.4 7.6-17.4 17v.1c0 9.7 8 17.9 17.4 17.9H546c.6 0 1 .4 1 1s-.4 1-1 1h-25.6c-10.5 0-19.4-9.1-19.4-19.9v-.1c0-10.5 8.7-19 19.4-19h70.9c10.5 0 18.7 8.3 18.7 19v.1c0 11-8.4 19.9-18.7 19.9z"/></g><g><path class="hpa0" d="M557 238c-.6 0-1-.4-1-1v-7c0-.6.4-1 1-1s1 .4 1 1v7c0 .6-.4 1-1 1z"/><path class="hpa0" d="M556.5 231.1c-1.9 0-3.4-1.5-3.4-3.4s1.5-3.4 3.4-3.4 3.4 1.5 3.4 3.4-1.5 3.4-3.4 3.4zm0-4.9c-.8 0-1.4.6-1.4 1.4s.6 1.4 1.4 1.4 1.4-.6 1.4-1.4-.6-1.4-1.4-1.4z"/><path class="hpa0" d="M557 227c-.6 0-1-.4-1-1v-4c0-.6.4-1 1-1s1 .4 1 1v4c0 .6-.4 1-1 1z"/><path class="hpa0" d="M554 229h-2c-.6 0-1-.4-1-1s.4-1 1-1h2c.6 0 1 .4 1 1s-.4 1-1 1z"/><path class="hpa0" d="M562 229h-3c-.6 0-1-.4-1-1s.4-1 1-1h3c.6 0 1 .4 1 1s-.4 1-1 1z"/><path class="hpa0" d="M554.9 227c-.3 0-.5-.1-.7-.3l-1.7-1.7c-.4-.4-.4-1 0-1.4s1-.4 1.4 0l1.7 1.7c.4.4.4 1 0 1.4-.2.2-.5.3-.7.3z"/><path class="hpa0" d="M560 232.1c-.3 0-.5-.1-.7-.3l-1.7-1.7c-.4-.4-.4-1 0-1.4s1-.4 1.4 0l1.7 1.7c.4.4.4 1 0 1.4-.2.2-.5.3-.7.3z"/><path class="hpa0" d="M553.1 232.1c-.3 0-.5-.1-.7-.3-.4-.4-.4-1 0-1.4l1.7-1.7c.4-.4 1-.4 1.4 0 .4.4.4 1 0 1.4l-1.7 1.7c-.1.2-.4.3-.7.3z"/><path class="hpa0" d="M558.2 227c-.3 0-.5-.1-.7-.3-.4-.4-.4-1 0-1.4l1.7-1.7c.4-.4 1-.4 1.4 0s.4 1 0 1.4l-1.7 1.7c-.1.2-.4.3-.7.3z"/></g></g><g id="flowers_1_" class="icon"><path class="hpa0" d="M235.4 264.4h-.2c-.5-.1-.9-.7-.7-1.2.8-3.2 3.3-5.9 6.5-6.9.5-.2 1.1.1 1.3.6.2.5-.1 1.1-.6 1.3-2.6.8-4.5 2.9-5.2 5.5-.2.4-.6.7-1.1.7z"/><path class="hpa0" d="M235.4 264.4c-.5 0-.9-.3-1-.8-.6-2.6-2.6-4.7-5.2-5.5-.5-.2-.8-.7-.6-1.3.2-.5.7-.8 1.3-.6 3.2 1 5.7 3.7 6.5 6.9.1.5-.2 1.1-.7 1.2-.1.1-.2.1-.3.1z"/><path class="hpa0" d="M235.5 257.6c-3.1 0-5.6-2.5-5.6-5.6s2.5-5.6 5.6-5.6 5.6 2.5 5.6 5.6-2.5 5.6-5.6 5.6zm0-9.1c-2 0-3.6 1.6-3.6 3.6s1.6 3.6 3.6 3.6 3.6-1.6 3.6-3.6c0-2.1-1.6-3.6-3.6-3.6z"/><path class="hpa0" d="M279.4 264.4h-.2c-.5-.1-.9-.7-.7-1.2.8-3.2 3.3-5.9 6.5-6.9.5-.2 1.1.1 1.3.6.2.5-.1 1.1-.6 1.3-2.6.8-4.5 2.9-5.2 5.5-.3.4-.7.7-1.1.7z"/><path class="hpa0" d="M279.3 264.4c-.5 0-.9-.3-1-.8-.6-2.6-2.6-4.7-5.2-5.5-.5-.2-.8-.7-.6-1.3.2-.5.7-.8 1.3-.6 3.2 1 5.7 3.7 6.5 6.9.1.5-.2 1.1-.7 1.2-.1.1-.2.1-.3.1z"/><path class="hpa0" d="M279.4 257.6c-3.1 0-5.6-2.5-5.6-5.6s2.5-5.6 5.6-5.6 5.6 2.5 5.6 5.6-2.5 5.6-5.6 5.6zm0-9.1c-2 0-3.6 1.6-3.6 3.6s1.6 3.6 3.6 3.6 3.6-1.6 3.6-3.6c0-2.1-1.6-3.6-3.6-3.6z"/><g><path class="hpa0" d="M257.4 256.4h-.2c-.5-.1-.9-.7-.7-1.2.8-3.2 3.3-5.9 6.5-6.9.5-.2 1.1.1 1.3.6.2.5-.1 1.1-.6 1.3-2.6.8-4.5 2.9-5.2 5.5-.2.4-.7.7-1.1.7z"/><path class="hpa0" d="M257.4 256.4c-.5 0-.9-.3-1-.8-.6-2.6-2.6-4.7-5.2-5.5-.5-.2-.8-.7-.6-1.3.2-.5.7-.8 1.3-.6 3.2 1 5.7 3.7 6.5 6.9.1.5-.2 1.1-.7 1.2-.2.1-.3.1-.3.1z"/><path class="hpa0" d="M257.5 249.5c-3.1 0-5.6-2.5-5.6-5.6s2.5-5.6 5.6-5.6 5.6 2.5 5.6 5.6-2.6 5.6-5.6 5.6zm0-9.1c-2 0-3.6 1.6-3.6 3.6s1.6 3.6 3.6 3.6 3.6-1.6 3.6-3.6c-.1-2-1.7-3.6-3.6-3.6z"/></g><g><path class="hpa0" d="M301.3 256.4h-.2c-.5-.1-.9-.7-.7-1.2.8-3.2 3.3-5.9 6.5-6.9.5-.2 1.1.1 1.3.6.2.5-.1 1.1-.6 1.3-2.6.8-4.5 2.9-5.2 5.5-.2.4-.6.7-1.1.7z"/><path class="hpa0" d="M301.3 256.4c-.5 0-.9-.3-1-.8-.6-2.6-2.6-4.7-5.2-5.5-.5-.2-.8-.7-.6-1.3.2-.5.7-.8 1.3-.6 3.2 1 5.7 3.7 6.5 6.9.1.5-.2 1.1-.7 1.2-.2.1-.2.1-.3.1z"/><path class="hpa0" d="M301.4 249.5c-3.1 0-5.6-2.5-5.6-5.6s2.5-5.6 5.6-5.6 5.6 2.5 5.6 5.6-2.5 5.6-5.6 5.6zm0-9.1c-2 0-3.6 1.6-3.6 3.6s1.6 3.6 3.6 3.6 3.6-1.6 3.6-3.6c-.1-2-1.6-3.6-3.6-3.6z"/></g></g><g id="graph_1_" class="icon"><path class="hpa0" d="M417.2 279.5c-.4 0-.9-.2-1.1-.6l-20.8-36.1c-.3-.6-.1-1.4.5-1.7.6-.3 1.4-.1 1.7.5l19.8 34.2 21.9-37.9c.3-.6 1.1-.8 1.7-.5.6.3.8 1.1.5 1.7l-23 39.8c-.3.3-.7.6-1.2.6z"/><path class="hpa0" d="M383 260.9c-.2 0-.4-.1-.6-.2-.6-.3-.8-1.1-.5-1.7l10.1-17.5c.3-.6 1.1-.8 1.7-.5.6.3.8 1.1.5 1.7l-10.1 17.5c-.2.5-.6.7-1.1.7z"/><path class="hpa0" d="M379.8 273c-4.3 0-7.7-3.5-7.7-7.7 0-4.3 3.5-7.7 7.7-7.7 4.3 0 7.7 3.5 7.7 7.7s-3.5 7.7-7.7 7.7zm0-13c-2.9 0-5.2 2.3-5.2 5.2 0 2.9 2.3 5.2 5.2 5.2 2.9 0 5.2-2.3 5.2-5.2 0-2.8-2.3-5.2-5.2-5.2z"/><path class="hpa0" d="M443.5 240.6c-4.3 0-7.7-3.5-7.7-7.7 0-4.3 3.5-7.7 7.7-7.7 4.3 0 7.7 3.5 7.7 7.7.1 4.3-3.4 7.7-7.7 7.7zm0-12.9c-2.9 0-5.2 2.3-5.2 5.2 0 2.9 2.3 5.2 5.2 5.2 2.9 0 5.2-2.3 5.2-5.2.1-2.9-2.3-5.2-5.2-5.2z"/><path class="hpa0" d="M394.8 243.8c-2.5 0-4.5-2-4.5-4.5s2-4.5 4.5-4.5 4.5 2 4.5 4.5c-.1 2.5-2.1 4.5-4.5 4.5zm0-6.5c-1.1 0-2 .9-2 2s.9 2 2 2 2-.9 2-2c-.1-1.1-.9-2-2-2z"/></g><g id="sun_1_" class="icon"><path class="hpa0" d="M142.9 270.7c-.3 0-.5-.1-.7-.3l-5.1-5.1c-.4-.4-.4-1 0-1.4.4-.4 1-.4 1.4 0l5.1 5.1c.4.4.4 1 0 1.4-.2.2-.4.3-.7.3z"/><path class="hpa0" d="M112.6 240.4c-.3 0-.5-.1-.7-.3l-5.1-5.1c-.4-.4-.4-1 0-1.4.4-.4 1-.4 1.4 0l5.1 5.1c.4.4.4 1 0 1.4-.2.2-.5.3-.7.3z"/><path class="hpa0" d="M137.8 240.4c-.3 0-.5-.1-.7-.3-.4-.4-.4-1 0-1.4l5.1-5.1c.4-.4 1-.4 1.4 0 .4.4.4 1 0 1.4l-5.1 5.1c-.2.2-.5.3-.7.3z"/><path class="hpa0" d="M107.5 270.7c-.3 0-.5-.1-.7-.3-.4-.4-.4-1 0-1.4l5.1-5.1c.4-.4 1-.4 1.4 0 .4.4.4 1 0 1.4l-5.1 5.1c-.2.2-.5.3-.7.3z"/><path class="hpa0" d="M150.3 253H143c-.5 0-1-.5-1-1s.4-1 1-1h7.3c.5 0 1 .5 1 1s-.5 1-1 1z"/><path class="hpa0" d="M107.4 253h-7.3c-.5 0-1-.5-1-1s.4-1 1-1h7.3c.5 0 1 .5 1 1s-.5 1-1 1z"/><path class="hpa0" d="M125 235.2c-.5 0-1-.4-1-1v-7.3c0-.5.5-1 1-1s1 .4 1 1v7.3c0 .6-.5 1-1 1z"/><path class="hpa0" d="M125 278.1c-.5 0-1-.4-1-1v-7.3c0-.5.5-1 1-1s1 .4 1 1v7.3c0 .5-.5 1-1 1z"/><path class="hpa0" d="M141.6 246.1c-.4 0-.8-.2-.9-.6-.2-.5 0-1.1.5-1.3l6.7-2.8c.5-.2 1.1 0 1.3.5.2.5 0 1.1-.5 1.3L142 246c-.1.1-.3.1-.4.1z"/><path class="hpa0" d="M102 262.7c-.4 0-.8-.2-.9-.6-.2-.5 0-1.1.5-1.3l6.7-2.8c.5-.2 1.1 0 1.3.5.2.5 0 1.1-.5 1.3l-6.7 2.8c-.1 0-.2.1-.4.1z"/><path class="hpa0" d="M118.3 236.6c-.4 0-.8-.2-.9-.6l-2.8-6.7c-.2-.5 0-1.1.5-1.3.5-.2 1.1 0 1.3.5l2.8 6.7c.2.5 0 1.1-.5 1.3-.1 0-.2.1-.4.1z"/><path class="hpa0" d="M134.8 276.1c-.4 0-.8-.2-.9-.6l-2.8-6.7c-.2-.5 0-1.1.5-1.3.5-.2 1.1 0 1.3.5l2.8 6.7c.2.5 0 1.1-.5 1.3-.1.1-.2.1-.4.1z"/><path class="hpa0" d="M132 236.5c-.1 0-.3 0-.4-.1-.5-.2-.7-.8-.5-1.3l2.8-6.7c.2-.5.8-.7 1.3-.5.5.2.7.8.5 1.3l-2.8 6.7c-.2.4-.6.6-.9.6z"/><path class="hpa0" d="M115.7 276.2c-.1 0-.3 0-.4-.1-.5-.2-.7-.8-.5-1.3l2.8-6.7c.2-.5.8-.7 1.3-.5.5.2.7.8.5 1.3l-2.8 6.7c-.2.4-.6.6-.9.6z"/><path class="hpa0" d="M108.7 246.2c-.1 0-.3 0-.4-.1l-6.7-2.8c-.5-.2-.7-.8-.5-1.3.2-.5.8-.7 1.3-.5l6.7 2.8c.5.2.7.8.5 1.3-.1.4-.5.6-.9.6z"/><path class="hpa0" d="M148.4 262.5c-.1 0-.3 0-.4-.1l-6.7-2.8c-.5-.2-.7-.8-.5-1.3.2-.5.8-.7 1.3-.5l6.7 2.8c.5.2.7.8.5 1.3-.2.4-.5.6-.9.6z"/><path class="hpa0" d="M125.2 270.8c-10.4 0-18.8-8.4-18.8-18.8s8.4-18.8 18.8-18.8S144 241.6 144 252s-8.5 18.8-18.8 18.8zm0-35.6c-9.3 0-16.8 7.5-16.8 16.8s7.5 16.8 16.8 16.8S142 261.3 142 252s-7.5-16.8-16.8-16.8z"/></g></g><g id="three"><path class="hpa0" d="M223.4 188h-53.1c-.6 0-1-.4-1-1 0-5.7 4.8-10.5 10.4-10.5 2 0 3.9.5 5.5 1.5 3-4.6 8.1-7.4 13.6-7.4 7 0 13.1 4.4 15.3 10.9 1.1-.8 2.4-1.2 3.8-1.2 3.6 0 6.6 3 6.6 6.7-.1.6-.5 1-1.1 1zm-52.1-2h51c-.5-2.1-2.3-3.7-4.5-3.7-1.4 0-2.7.6-3.5 1.6-.2.3-.6.4-1 .3-.4-.1-.7-.4-.7-.7-1.5-6.4-7.2-10.9-13.8-10.9-5.2 0-9.9 2.8-12.4 7.3-.1.3-.4.4-.7.5-.3.1-.6 0-.8-.2-1.4-1.1-3.2-1.7-5.1-1.7-4.4 0-8 3.4-8.5 7.5z" id="cloud-2"/><g id="apple" class="icon"><path class="hpa0" d="M340.6 171.6h-.3c-.5-.1-.9-.7-.7-1.2.8-3.1-.1-6.3-2.3-8.6s-5.5-3.1-8.6-2.3c-.5.1-1.1-.2-1.2-.7-.1-.5.2-1.1.7-1.2 3.7-1 7.8.1 10.5 2.8 2.7 2.7 3.8 6.7 2.8 10.5 0 .4-.4.7-.9.7z"/><path class="hpa0" d="M345.6 200.2c-1.5 0-2.9-.6-4.1-1.7-.2-.2-.5-.3-.7-.3-.2 0-.4.1-.6.3-1.1 1.1-2.5 1.7-4 1.7-2.4 0-5.4-1.8-8.3-5-4.3-4.8-8.5-13.3-7.4-22.5.8-4.9 4.7-8.6 9.5-9 4.6-.5 8.9 2 10.8 6.1 2-4.1 6.3-6.5 10.9-6.1 4.8.5 8.8 4.2 9.6 9 1.1 9.3-3.1 17.7-7.4 22.5-2.9 3.2-5.9 5-8.3 5zm-4.8-4c.8 0 1.6.3 2.1.9.7.7 1.7 1.1 2.7 1.1 1.8 0 4.4-1.7 6.8-4.4 4-4.5 7.9-12.3 6.9-20.9-.7-3.9-3.9-6.9-7.8-7.3-4.1-.4-7.9 2-9.3 5.9-.2.7-.9.9-1.2 1-.2.1-.4.1-.7 0-.2-.1-.8-.3-1-1-1.4-3.9-5.1-6.3-9.2-5.9-3.9.4-7.1 3.4-7.8 7.3-1 8.5 2.9 16.4 6.9 20.9 2.4 2.7 5 4.4 6.8 4.4 1 0 1.8-.4 2.6-1.1.8-.6 1.4-.9 2.2-.9z"/><path class="hpa0" d="M337.2 196.1c-1.8 0-4.4-1.7-6.7-4.3-1.5-1.7-2.8-3.6-3.9-5.8-.3-.5-.1-1.1.4-1.3.5-.3 1.1-.1 1.3.4 1 2 2.3 3.8 3.6 5.3 2.4 2.7 4.4 3.7 5.2 3.7.3 0 .6-.1 1.2-.6.4-.4 1-.4 1.4 0 .4.4.4 1 0 1.4-.8.8-1.6 1.2-2.5 1.2z"/><path class="hpa0" d="M344.6 195.1c-1.4 0-2.3-.9-2.6-1.2-.4-.4-.4-1 0-1.4.4-.4 1-.4 1.4 0 .3.3.7.6 1.2.6.8 0 2.8-1 5.2-3.7 2-2.3 3.8-5.2 4.9-8.2.2-.5.8-.8 1.3-.6.5.2.8.8.6 1.3-1.2 3.3-3.1 6.4-5.3 8.9-2.3 2.7-4.9 4.3-6.7 4.3z"/><path class="hpa0" d="M343.5 173c-.9 0-1.9-.1-2.8-.4-.3-.1-.6-.4-.7-.7-1-3.7.1-7.8 2.8-10.5 2.7-2.7 6.7-3.8 10.5-2.8.3.1.6.4.7.7 1 3.7-.1 7.8-2.8 10.5-2 2.1-4.8 3.2-7.7 3.2zm-1.7-2.2c2.9.6 5.9-.3 8-2.4 2.1-2.1 3-5.1 2.4-8-2.9-.6-5.9.3-8 2.4-2 2.1-2.9 5.1-2.4 8z"/><path class="hpa0" d="M341 172.6c-.3 0-.5-.1-.7-.3-.4-.4-.4-1 0-1.4l7.5-7.5c.4-.4 1-.4 1.4 0s.4 1 0 1.4l-7.5 7.5c-.2.2-.5.3-.7.3z"/></g><g id="plants_1_" class="icon"><path class="hpa0" d="M449 198c-.6 0-1-.4-1-1v-6c0-.6.4-1 1-1s1 .4 1 1v6c0 .6-.4 1-1 1z"/><path class="hpa0" d="M445.3 194.4c-1.1 0-2.2-.4-3.1-1.3-1.7-1.7-1.7-4.5 0-6.2l7.5-7.5c1.7-1.7 4.5-1.7 6.2 0 .8.8 1.3 1.9 1.3 3.1s-.5 2.3-1.3 3.1l-7.5 7.5c-.9.8-2 1.3-3.1 1.3zm7.5-14.3c-.6 0-1.2.2-1.7.7l-7.5 7.5c-.9.9-.9 2.4 0 3.4.9.9 2.4.9 3.4 0l7.5-7.5c.4-.4.7-1 .7-1.7s-.2-1.2-.7-1.7c-.5-.5-1.1-.7-1.7-.7z"/><path class="hpa0" d="M452.8 194.4c-1.1 0-2.2-.4-3.1-1.3l-7.5-7.5c-.8-.8-1.3-1.9-1.3-3.1s.5-2.3 1.3-3.1c1.7-1.7 4.5-1.7 6.2 0l7.5 7.5c1.7 1.7 1.7 4.5 0 6.2-.9.8-2 1.3-3.1 1.3zm-7.5-14.3c-.6 0-1.2.2-1.7.7-.4.4-.7 1-.7 1.7s.2 1.2.7 1.7l7.5 7.5c.9.9 2.4.9 3.4 0 .9-.9.9-2.4 0-3.4l-7.5-7.5c-.5-.5-1.1-.7-1.7-.7z"/><path class="hpa0" d="M494 198c-.6 0-1-.4-1-1v-6c0-.6.4-1 1-1s1 .4 1 1v6c0 .6-.4 1-1 1z"/><path class="hpa0" d="M490.3 194.4c-1.1 0-2.2-.4-3.1-1.3-1.7-1.7-1.7-4.5 0-6.2l7.5-7.5c1.7-1.7 4.5-1.7 6.2 0 .8.8 1.3 1.9 1.3 3.1s-.5 2.3-1.3 3.1l-7.5 7.5c-.9.8-2 1.3-3.1 1.3zm7.5-14.3c-.6 0-1.2.2-1.7.7l-7.5 7.5c-.9.9-.9 2.4 0 3.4.9.9 2.4.9 3.4 0l7.5-7.5c.4-.4.7-1 .7-1.7s-.2-1.2-.7-1.7c-.5-.5-1.1-.7-1.7-.7z"/><path class="hpa0" d="M497.8 194.4c-1.1 0-2.2-.4-3.1-1.3l-7.5-7.5c-.8-.8-1.3-1.9-1.3-3.1s.5-2.3 1.3-3.1c1.7-1.7 4.5-1.7 6.2 0l7.5 7.5c1.7 1.7 1.7 4.5 0 6.2-.9.8-2 1.3-3.1 1.3zm-7.5-14.3c-.6 0-1.2.2-1.7.7-.4.4-.7 1-.7 1.7s.2 1.2.7 1.7l7.5 7.5c.9.9 2.4.9 3.4 0 .9-.9.9-2.4 0-3.4l-7.5-7.5c-.5-.5-1.1-.7-1.7-.7z"/><path class="hpa0" d="M471 173c-.6 0-1-.4-1-1v-6c0-.6.4-1 1-1s1 .4 1 1v6c0 .6-.4 1-1 1z"/><path class="hpa0" d="M467.3 169.4c-1.1 0-2.2-.4-3.1-1.3-1.7-1.7-1.7-4.5 0-6.2l7.5-7.5c1.7-1.7 4.5-1.7 6.2 0 .8.8 1.3 1.9 1.3 3.1s-.5 2.3-1.3 3.1l-7.5 7.5c-.9.8-2 1.3-3.1 1.3zm7.5-14.3c-.6 0-1.2.2-1.7.7l-7.5 7.5c-.9.9-.9 2.4 0 3.4.9.9 2.4.9 3.4 0l7.5-7.5c.4-.4.7-1 .7-1.7s-.2-1.2-.7-1.7c-.5-.5-1.1-.7-1.7-.7z"/><path class="hpa0" d="M474.8 169.4c-1.1 0-2.2-.4-3.1-1.3l-7.5-7.5c-.8-.8-1.3-1.9-1.3-3.1s.5-2.3 1.3-3.1c1.7-1.7 4.5-1.7 6.2 0l7.5 7.5c1.7 1.7 1.7 4.5 0 6.2-.9.8-2 1.3-3.1 1.3zm-7.5-14.3c-.6 0-1.2.2-1.7.7-.4.4-.7 1-.7 1.7s.2 1.2.7 1.7l7.5 7.5c.9.9 2.4.9 3.4 0 .9-.9.9-2.4 0-3.4l-7.5-7.5c-.5-.5-1.1-.7-1.7-.7z"/><path class="hpa0" d="M516 173c-.6 0-1-.4-1-1v-6c0-.6.4-1 1-1s1 .4 1 1v6c0 .6-.4 1-1 1z"/><path class="hpa0" d="M512.3 169.4c-1.1 0-2.2-.4-3.1-1.3-1.7-1.7-1.7-4.5 0-6.2l7.5-7.5c1.7-1.7 4.5-1.7 6.2 0 .8.8 1.3 1.9 1.3 3.1s-.5 2.3-1.3 3.1l-7.5 7.5c-.9.8-2 1.3-3.1 1.3zm7.5-14.3c-.6 0-1.2.2-1.7.7l-7.5 7.5c-.9.9-.9 2.4 0 3.4.9.9 2.4.9 3.4 0l7.5-7.5c.4-.4.7-1 .7-1.7s-.2-1.2-.7-1.7c-.5-.5-1.1-.7-1.7-.7z"/><path class="hpa0" d="M519.8 169.4c-1.1 0-2.2-.4-3.1-1.3l-7.5-7.5c-.8-.8-1.3-1.9-1.3-3.1s.5-2.3 1.3-3.1c1.7-1.7 4.5-1.7 6.2 0l7.5 7.5c1.7 1.7 1.7 4.5 0 6.2-.9.8-2 1.3-3.1 1.3zm-7.5-14.3c-.6 0-1.2.2-1.7.7-.4.4-.7 1-.7 1.7s.2 1.2.7 1.7l7.5 7.5c.9.9 2.4.9 3.4 0 .9-.9.9-2.4 0-3.4l-7.5-7.5c-.5-.5-1.1-.7-1.7-.7z"/></g><g id="pin_1_" class="icon"><path class="hpa0" d="M54.2 205.6c-.5 0-1-.3-1.3-.8l-19.1-33.1c-.3-.5-.3-1 0-1.5l9.6-16.5c.3-.5.8-.7 1.3-.7h19.1c.5 0 1 .3 1.3.8l9.6 16.5c.3.5.3 1 0 1.5l-19.1 33.1c-.4.5-.9.7-1.4.7zM36.8 171l17.4 30.1L71.6 171l-8.7-15H45.5l-8.7 15z"/><path class="hpa0" d="M54.2 179.6c-4.8 0-8.8-3.9-8.8-8.8s3.9-8.8 8.8-8.8 8.8 3.9 8.8 8.8-4 8.8-8.8 8.8zm0-15c-3.5 0-6.3 2.8-6.3 6.3s2.8 6.3 6.3 6.3 6.3-2.8 6.3-6.3c-.1-3.5-2.9-6.3-6.3-6.3z"/></g></g><g id="two"><g id="cloud" class="icon"><path class="hpa0" d="M587.3 122H529c-.6 0-1-.4-1-1 0-5.8 5.2-11 11-11 .9 0 1.7.1 2.6.4.4-9.8 8.4-17.6 18.3-17.6 9.8 0 17.8 7.7 18.3 17.3 5.5.5 10.1 5.4 10.1 10.9 0 .6-.4 1-1 1zm-57.2-2h56.1c-.5-3.9-4.2-8-9-8-.6 0-1-.4-1-1 0-8.9-7.3-16.2-16.3-16.2s-16.3 7.3-16.3 16.3v.6c0 .3-.1.7-.4.9-.3.2-.6.3-.9.1-6.3-2.4-11.5 2.5-12.2 7.3z"/><path class="hpa0" d="M570.2 119.2c-.6 0-1-.4-1-1s.4-1 1-1c3.3 0 6-2.7 6-6 0-.6.4-1 1-1s1 .4 1 1c.1 4.4-3.5 8-8 8z"/><path class="hpa0" d="M560.3 112.8c-.6 0-1-.4-1-1 0-4.2-3.5-7.7-7.7-7.7s-7.7 3.5-7.7 7.7c0 .6-.4 1-1 1s-1-.4-1-1c0-5.3 4.3-9.7 9.7-9.7s9.7 4.3 9.7 9.7c0 .6-.4 1-1 1z"/></g><g id="store" class="icon"><path class="hpa0" d="M450 129h-74c-.6 0-1-.4-1-1V85c0-.6.4-1 1-1h74c.6 0 1 .4 1 1v43c0 .6-.4 1-1 1zm-73-2h72V86h-72v41z"/><path class="hpa0" d="M444.1 91.9c-1.9 0-3.7-.8-5.1-2.1-1.4-1.4-2.1-3.2-2.1-5.1 0-.6.4-1 1-1s1 .4 1 1c0 1.4.5 2.7 1.5 3.7s2.3 1.5 3.7 1.5c2.9 0 5.2-2.3 5.2-5.2 0-.6.4-1 1-1s1 .4 1 1c0 4-3.2 7.2-7.2 7.2z"/><path class="hpa0" d="M419.2 91.9c-1.9 0-3.7-.8-5.1-2.1-1.4-1.4-2.1-3.2-2.1-5.1 0-.6.4-1 1-1s1 .4 1 1c0 1.4.5 2.7 1.5 3.7s2.3 1.5 3.7 1.5c2.9 0 5.2-2.3 5.2-5.2 0-.6.4-1 1-1s1 .4 1 1c0 4-3.2 7.2-7.2 7.2z"/><path class="hpa0" d="M406.6 107.2c-.6 0-1-.4-1-1 0-4 3.2-7.2 7.2-7.2 1.9 0 3.7.8 5.1 2.1 1.4 1.4 2.1 3.2 2.1 5.1 0 .6-.4 1-1 1s-1-.4-1-1c0-1.4-.5-2.7-1.5-3.7s-2.3-1.5-3.7-1.5c-2.9 0-5.2 2.3-5.2 5.2 0 .6-.5 1-1 1z"/><path class="hpa0" d="M406.8 91.9c-1.9 0-3.7-.8-5.1-2.1-1.4-1.4-2.1-3.2-2.1-5.1 0-.6.4-1 1-1s1 .4 1 1c0 1.4.5 2.7 1.5 3.7s2.3 1.5 3.7 1.5c2.9 0 5.2-2.3 5.2-5.2 0-.6.4-1 1-1s1 .4 1 1c0 4-3.2 7.2-7.2 7.2z"/><path class="hpa0" d="M381.9 91.9c-1.9 0-3.7-.8-5.1-2.1-1.4-1.4-2.1-3.2-2.1-5.1 0-.6.4-1 1-1s1 .4 1 1c0 1.4.5 2.7 1.5 3.7s2.3 1.5 3.7 1.5c2.9 0 5.2-2.3 5.2-5.2 0-.6.4-1 1-1s1 .4 1 1c0 4-3.2 7.2-7.2 7.2z"/><path class="hpa0" d="M394.3 91.9c-1.9 0-3.7-.8-5.1-2.1-1.4-1.4-2.1-3.2-2.1-5.1 0-.6.4-1 1-1s1 .4 1 1c0 1.4.5 2.7 1.5 3.7s2.3 1.5 3.7 1.5c2.9 0 5.2-2.3 5.2-5.2 0-.6.4-1 1-1s1 .4 1 1c0 4-3.2 7.2-7.2 7.2z"/><path class="hpa0" d="M431.7 91.9c-1.9 0-3.7-.8-5.1-2.1-1.4-1.4-2.1-3.2-2.1-5.1 0-.6.4-1 1-1s1 .4 1 1c0 1.4.5 2.7 1.5 3.7s2.3 1.5 3.7 1.5c2.9 0 5.2-2.3 5.2-5.2 0-.6.4-1 1-1s1 .4 1 1c0 4-3.2 7.2-7.2 7.2z"/><path class="hpa0" d="M419 129h-12c-.6 0-1-.4-1-1v-21.2c-.3-.2-.5-.7-.4-1.1.1-.4.5-.7 1-.7H419c.6 0 1 .4 1 1v22.1c0 .5-.5.9-1 .9zm-11-2h10v-20h-10v20z"/><path class="hpa0" d="M400 118h-11c-.6 0-1-.4-1-1v-10h-.1c-.5-.1-.8-.6-.7-1.1s.5-.9 1-.9H400c.6 0 1 .4 1 1v10.1c.3.2.6.5.6.9 0 .5-.4 1-1 1h-.6zm-10-2h9v-9h-9v9z"/><path class="hpa0" d="M438 118s-.1 0 0 0h-12c-.6 0-1-.4-1-1v-10.1c-.4-.2-.6-.7-.5-1.1.1-.5.5-.8 1-.8H438c.6 0 1 .4 1 1v11c0 .3-.1.5-.3.7-.2.2-.5.3-.7.3zm-11-2h10v-9h-10v9z"/><path class="hpa0" d="M406.6 118c-.6 0-1-.4-1-1s.4-1 1-1H419c.6 0 1 .4 1 1s-.4 1-1 1h-12.4z"/><path class="hpa0" d="M412.8 107.2c-.3 0-.7-.2-.9-.5l-3.1-5.4c-.3-.5-.1-1.1.4-1.4.5-.3 1.1-.1 1.4.4l3.1 5.4c.3.5.1 1.1-.4 1.4-.2.1-.4.1-.5.1z"/><path class="hpa0" d="M412.8 107.2c-.2 0-.3 0-.5-.1-.5-.3-.6-.9-.4-1.4l3.1-5.4c.3-.5.9-.6 1.4-.4.5.3.6.9.4 1.4l-3.1 5.4c-.2.4-.6.5-.9.5z"/><path class="hpa0" d="M400 107h-11c-.6 0-1-.4-1-1v-2c0-.6.4-1 1-1h11c.6 0 1 .4 1 1v2c0 .6-.4 1-1 1zm-10-2h9-9z"/><path class="hpa0" d="M438 107h-12c-.6 0-1-.4-1-1v-2c0-.6.4-1 1-1h12c.6 0 1 .4 1 1v2c0 .6-.4 1-1 1zm-11-2h10-10z"/></g><g id="tower" class="icon"><path class="hpa0" d="M268 77c-.6 0-1-.4-1-1V65c0-.6.4-1 1-1s1 .4 1 1v11c0 .6-.4 1-1 1z"/><path class="hpa0" d="M262 150c-.6 0-1-.4-1-1V99c0-.6.4-1 1-1s1 .4 1 1v50c0 .6-.4 1-1 1z"/><path class="hpa0" d="M274 150c-.6 0-1-.4-1-1V99c0-.6.4-1 1-1s1 .4 1 1v50c0 .6-.4 1-1 1z"/><path class="hpa0" d="M274.6 121.4c-.3 0-.7-.2-.9-.5l-5.5-9.5c-.3-.5-.1-1.1.4-1.4.5-.3 1.1-.1 1.4.4l5.5 9.5c.3.5.1 1.1-.4 1.4-.2.1-.3.1-.5.1z"/><path class="hpa0" d="M261.9 121.5c-.2 0-.3 0-.5-.1-.5-.3-.6-.9-.4-1.4l5.5-9.5c.3-.5.9-.6 1.4-.4.5.3.6.9.4 1.4l-5.5 9.5c-.2.3-.5.5-.9.5z"/><path class="hpa0" d="M286.1 150.4c-.3 0-.7-.2-.9-.5L268.5 121c-.3-.5-.1-1.1.4-1.4.5-.3 1.1-.1 1.4.4l16.7 28.9c.3.5.1 1.1-.4 1.4-.2 0-.4.1-.5.1z"/><path class="hpa0" d="M250.9 149.8c-.2 0-.3 0-.5-.1-.5-.3-.6-.9-.4-1.4l16.4-28.3c.3-.5.9-.6 1.4-.4.5.3.6.9.4 1.4l-16.4 28.3c-.3.3-.6.5-.9.5z"/><path class="hpa0" d="M274.6 150.1c-.3 0-.7-.2-.9-.5l-5.5-9.5c-.3-.5-.1-1.1.4-1.4.5-.3 1.1-.1 1.4.4l5.5 9.5c.3.5.1 1.1-.4 1.4-.2 0-.3.1-.5.1z"/><path class="hpa0" d="M261.9 150.1c-.2 0-.3 0-.5-.1-.5-.3-.6-.9-.4-1.4l5.5-9.5c.3-.5.9-.6 1.4-.4.5.3.6.9.4 1.4l-5.5 9.5c-.2.3-.5.5-.9.5z"/><path class="hpa0" d="M269.1 140.5c-.2 0-.3 0-.5-.1-.5-.3-.6-.9-.4-1.4l5.5-9.5c.3-.5.9-.6 1.4-.4.5.3.6.9.4 1.4L270 140c-.2.3-.6.5-.9.5z"/><path class="hpa0" d="M267.5 140.5c-.3 0-.7-.2-.9-.5l-5.5-9.5c-.3-.5-.1-1.1.4-1.4.5-.3 1.1-.1 1.4.4l5.5 9.5c.3.5.1 1.1-.4 1.4-.2.1-.4.1-.5.1z"/><path class="hpa0" d="M268 121h-6c-.6 0-1-.4-1-1s.4-1 1-1h6c.6 0 1 .4 1 1s-.4 1-1 1z"/><path class="hpa0" d="M274 121h-6c-.6 0-1-.4-1-1s.4-1 1-1h6c.6 0 1 .4 1 1s-.4 1-1 1z"/><path class="hpa0" d="M268 141h-12c-.6 0-1-.4-1-1s.4-1 1-1h12c.6 0 1 .4 1 1s-.4 1-1 1z"/><path class="hpa0" d="M280 141h-12c-.6 0-1-.4-1-1s.4-1 1-1h12c.6 0 1 .4 1 1s-.4 1-1 1z"/><path class="hpa0" d="M268.3 111.9c-7.4 0-12.9-5.6-12.9-12.9 0-.6.4-1 1-1h23.8c.6 0 1 .4 1 1 0 7.4-5.6 12.9-12.9 12.9zM257.4 100c.5 5.7 5 9.9 10.9 9.9s10.4-4.2 10.9-9.9h-21.8z"/><path class="hpa0" d="M280.2 88h-23.8c-.6 0-1-.4-1-1 0-6.9 6-12.9 12.9-12.9s12.9 6 12.9 12.9c0 .6-.5 1-1 1zm-22.8-2h21.7c-.5-4.9-5-9.9-10.9-9.9s-10.3 5-10.8 9.9z"/><path class="hpa0" d="M281 100h-25c-.6 0-1-.4-1-1V87c0-.6.4-1 1-1h25c.6 0 1 .4 1 1v12c0 .6-.4 1-1 1zm-24-2h23V88h-23v10z"/><path class="hpa0" d="M281 97h-25c-.6 0-1-.4-1-1s.4-1 1-1h25c.6 0 1 .4 1 1s-.4 1-1 1z"/><path class="hpa0" d="M259 100c-.6 0-1-.4-1-1v-3c0-.6.4-1 1-1s1 .4 1 1v3c0 .6-.4 1-1 1z"/><path class="hpa0" d="M263 100c-.6 0-1-.4-1-1v-3c0-.6.4-1 1-1s1 .4 1 1v3c0 .6-.4 1-1 1z"/><path class="hpa0" d="M265 100c-.6 0-1-.4-1-1v-3c0-.6.4-1 1-1s1 .4 1 1v3c0 .6-.4 1-1 1z"/><path class="hpa0" d="M268 100c-.6 0-1-.4-1-1v-3c0-.6.4-1 1-1s1 .4 1 1v3c0 .6-.4 1-1 1z"/><path class="hpa0" d="M271 100c-.6 0-1-.4-1-1v-3c0-.6.4-1 1-1s1 .4 1 1v3c0 .6-.4 1-1 1z"/><path class="hpa0" d="M278 100c-.6 0-1-.4-1-1v-3c0-.6.4-1 1-1s1 .4 1 1v3c0 .6-.4 1-1 1z"/><path class="hpa0" d="M274 100c-.6 0-1-.4-1-1v-3c0-.6.4-1 1-1s1 .4 1 1v3c0 .6-.4 1-1 1z"/><path class="hpa0" d="M268 150c-.6 0-1-.4-1-1v-38c0-.6.4-1 1-1s1 .4 1 1v38c0 .6-.4 1-1 1z"/></g><g id="barn" class="icon"><path class="hpa0" d="M102 151c-.6 0-1-.4-1-1v-35c0-.6.4-1 1-1s1 .4 1 1v35c0 .6-.4 1-1 1z"/><path class="hpa0" d="M109 150c-.6 0-1-.4-1-1v-34c0-.6.4-1 1-1s1 .4 1 1v34c0 .6-.4 1-1 1z"/><path class="hpa0" d="M118 129c-.6 0-1-.4-1-1v-13c0-.6.4-1 1-1s1 .4 1 1v13c0 .6-.4 1-1 1z"/><path class="hpa0" d="M125 122c-.6 0-1-.4-1-1v-6c0-.6.4-1 1-1s1 .4 1 1v6c0 .6-.4 1-1 1z"/><path class="hpa0" d="M133 129c-.6 0-1-.4-1-1v-13c0-.6.4-1 1-1s1 .4 1 1v13c0 .6-.4 1-1 1z"/><path class="hpa0" d="M141 150c-.6 0-1-.4-1-1v-34c0-.6.4-1 1-1s1 .4 1 1v34c0 .6-.4 1-1 1z"/><path class="hpa0" d="M149 150c-.6 0-1-.4-1-1v-34c0-.6.4-1 1-1s1 .4 1 1v34c0 .6-.4 1-1 1z"/><path class="hpa0" d="M114 150.5c-.2 0-.5-.1-.6-.2l-.6-.5c-.3-.3-.4-.7-.3-1.1.1-.3.3-.5.6-.6V128c0-.6.4-1 1-1h22.8c.3 0 .6.1.7.3l.2.2c.2.2.3.4.3.7V149c0 .6-.4 1-1 1H115c-.1.2-.3.3-.5.4-.2.1-.4.1-.5.1zm1-2.5h21v-19h-21v19z"/><path class="hpa0" d="M139 87c-.6 0-1-.4-1-1V73h-25v13c0 .6-.4 1-1 1s-1-.4-1-1V72c0-.6.4-1 1-1h26.7c.4 0 .8.2.9.6l.3.7c.1.1.1.3.1.4V86c0 .6-.4 1-1 1z"/><path class="hpa0" d="M156 150H94c-.6 0-1-.4-1-1v-34c0-.6.4-1 1-1h62c.6 0 1 .4 1 1v34c0 .6-.4 1-1 1zm-61-2h60v-32H95v32z"/><path class="hpa0" d="M93.9 115.6c-.3 0-.5-.1-.7-.3s-.3-.6-.3-.9c0-17.8 14.5-32.4 32.3-32.4 8.6 0 16.7 3.5 22.8 9.6 6.1 6.1 9.4 14.3 9.4 22.9 0 .6-.4 1-1 1l-62.5.1zM125.1 84c-16.3 0-29.7 13.2-30.2 29.4l60.5.1c-.2-7.7-3.4-15-8.8-20.5-5.8-5.7-13.4-9-21.5-9z"/><path class="hpa0" d="M131.9 129h-13.6c-.6 0-1-.4-1-1 0-4.4 3.3-7.8 7.8-7.8 4.3 0 7.4 6.6 7.7 7.4.1.3.1.7-.1 1-.1.2-.4.4-.8.4zm-12.4-2h10.8c-1.1-2-3.2-4.8-5.1-4.8-3 0-5.3 2-5.7 4.8z"/><path class="hpa0" d="M128.6 82h-6.8c-.6 0-1-.4-1-1 0-2.5 1.9-4.4 4.4-4.4 2.4 0 4 3.3 4.3 4 .1.3.1.7-.1 1-.2.2-.5.4-.8.4zm-5.6-2h3.9c-.5-.8-1.2-1.4-1.7-1.4-1.1 0-1.9.6-2.2 1.4z"/><path class="hpa0" d="M125 150c-.6 0-1-.4-1-1v-21c0-.6.4-1 1-1s1 .4 1 1v21c0 .6-.4 1-1 1z"/><path class="hpa0" d="M131 108h-12c-.6 0-1-.4-1-1V96c0-.6.4-1 1-1h12c.6 0 1 .4 1 1v11c0 .6-.4 1-1 1zm-11-2h10v-9h-10v9z"/><path class="hpa0" d="M136.8 150.5c-.2 0-.5-.1-.7-.3l-23.4-21.3c-.4-.4-.4-1-.1-1.4.4-.4 1-.4 1.4-.1l23.4 21.3c.4.4.4 1 .1 1.4-.1.3-.4.4-.7.4z"/><path class="hpa0" d="M113.4 150.5c-.3 0-.5-.1-.7-.3-.4-.4-.3-1 .1-1.4l23.4-21.3c.4-.4 1-.3 1.4.1.4.4.3 1-.1 1.4L114 150.3c-.1.1-.4.2-.6.2z"/><path class="hpa0" d="M138.7 73h-27.1c-.4 0-.8-.3-.9-.7-.1-.4 0-.8.3-1.1l13.5-10.6c.4-.3.9-.3 1.2 0l13.6 10.6c.3.3.5.7.3 1.1-.1.4-.5.7-.9.7zm-24.2-2h21.3l-10.7-8.4-10.6 8.4z"/></g></g><g id="one"><g id="lake" class="icon"><path class="hpa0" d="M443.2 38c-2 0-3.6-1.6-3.6-3.6 0-.6.4-1 1-1s1 .4 1 1c0 .9.7 1.6 1.6 1.6.6 0 1 .4 1 1s-.4 1-1 1z"/><path class="hpa0" d="M443.2 38c-.6 0-1-.4-1-1s.4-1 1-1c.9 0 1.6-.7 1.6-1.6 0-.6.4-1 1-1s1 .4 1 1c0 2-1.6 3.6-3.6 3.6z"/><path class="hpa0" d="M448.4 38c-2 0-3.6-1.6-3.6-3.6 0-.6.4-1 1-1s1 .4 1 1c0 .9.7 1.6 1.6 1.6.6 0 1 .4 1 1s-.5 1-1 1z"/><path class="hpa0" d="M448.4 38c-.6 0-1-.4-1-1s.4-1 1-1c.9 0 1.6-.7 1.6-1.6 0-.6.4-1 1-1s1 .4 1 1c0 2-1.7 3.6-3.6 3.6z"/><path class="hpa0" d="M453.5 38c-2 0-3.6-1.6-3.6-3.6 0-.6.4-1 1-1s1 .4 1 1c0 .9.7 1.6 1.6 1.6.6 0 1 .4 1 1s-.4 1-1 1z"/><path class="hpa0" d="M453.5 38c-.6 0-1-.4-1-1s.4-1 1-1c.9 0 1.6-.7 1.6-1.6 0-.6.4-1 1-1s1 .4 1 1c0 2-1.6 3.6-3.6 3.6z"/><path class="hpa0" d="M458.7 38c-2 0-3.6-1.6-3.6-3.6 0-.6.4-1 1-1s1 .4 1 1c0 .9.7 1.6 1.6 1.6.6 0 1 .4 1 1s-.5 1-1 1z"/><path class="hpa0" d="M519 49.6c-.6 0-1-.4-1-1s.4-1 1-1c.9 0 1.6-.7 1.6-1.6 0-.6.4-1 1-1s1 .4 1 1c0 2-1.6 3.6-3.6 3.6z"/><path class="hpa0" d="M529.3 49.6c-.6 0-1-.4-1-1s.4-1 1-1c.9 0 1.6-.7 1.6-1.6 0-.6.4-1 1-1s1 .4 1 1c0 2-1.6 3.6-3.6 3.6z"/><path class="hpa0" d="M524.2 49.6c-2 0-3.6-1.6-3.6-3.6 0-.6.4-1 1-1s1 .4 1 1c0 .9.7 1.6 1.6 1.6.6 0 1 .4 1 1s-.5 1-1 1z"/><path class="hpa0" d="M534.5 49.6c-2 0-3.6-1.6-3.6-3.6 0-.6.4-1 1-1s1 .4 1 1c0 .9.7 1.6 1.6 1.6.6 0 1 .4 1 1s-.5 1-1 1z"/><path class="hpa0" d="M529.3 49.6c-2 0-3.6-1.6-3.6-3.6 0-.6.4-1 1-1s1 .4 1 1c0 .9.7 1.6 1.6 1.6.6 0 1 .4 1 1s-.4 1-1 1z"/><path class="hpa0" d="M524.2 49.6c-.6 0-1-.4-1-1s.4-1 1-1c.9 0 1.6-.7 1.6-1.6 0-.6.4-1 1-1s1 .4 1 1c-.1 2-1.7 3.6-3.6 3.6z"/><path class="hpa0" d="M503.6 29c-.6 0-1-.4-1-1s.4-1 1-1c.9 0 1.6-.7 1.6-1.6 0-.6.4-1 1-1s1 .4 1 1c0 2-1.6 3.6-3.6 3.6z"/><path class="hpa0" d="M508.8 29c-2 0-3.6-1.6-3.6-3.6 0-.6.4-1 1-1s1 .4 1 1c0 .9.7 1.6 1.6 1.6.6 0 1 .4 1 1s-.5 1-1 1z"/><path class="hpa0" d="M508.8 29c-.6 0-1-.4-1-1s.4-1 1-1c.9 0 1.6-.7 1.6-1.6 0-.6.4-1 1-1s1 .4 1 1c-.1 2-1.7 3.6-3.6 3.6z"/><path class="hpa0" d="M513.9 29c-2 0-3.6-1.6-3.6-3.6 0-.6.4-1 1-1s1 .4 1 1c0 .9.7 1.6 1.6 1.6.6 0 1 .4 1 1s-.4 1-1 1z"/><path class="hpa0" d="M458.8 49.6c-.6 0-1-.4-1-1s.4-1 1-1c.9 0 1.6-.7 1.6-1.6 0-.6.4-1 1-1s1 .4 1 1c-.1 2-1.7 3.6-3.6 3.6z"/><path class="hpa0" d="M463.9 49.6c-2 0-3.6-1.6-3.6-3.6 0-.6.4-1 1-1s1 .4 1 1c0 .9.7 1.6 1.6 1.6.6 0 1 .4 1 1s-.4 1-1 1z"/><path class="hpa0" d="M463.9 49.6c-.6 0-1-.4-1-1s.4-1 1-1c.9 0 1.6-.7 1.6-1.6 0-.6.4-1 1-1s1 .4 1 1c0 2-1.6 3.6-3.6 3.6z"/><path class="hpa0" d="M469 49.6c-2 0-3.6-1.6-3.6-3.6 0-.6.4-1 1-1s1 .4 1 1c0 .9.7 1.6 1.6 1.6.6 0 1 .4 1 1s-.4 1-1 1z"/><path class="hpa0" d="M465.1 31.6c-.6 0-1-.4-1-1s.4-1 1-1c.9 0 1.6-.7 1.6-1.6 0-.6.4-1 1-1s1 .4 1 1c-.1 2-1.7 3.6-3.6 3.6z"/><path class="hpa0" d="M470.2 31.6c-2 0-3.6-1.6-3.6-3.6 0-.6.4-1 1-1s1 .4 1 1c0 .9.7 1.6 1.6 1.6.6 0 1 .4 1 1s-.4 1-1 1z"/><path class="hpa0" d="M470.2 31.6c-.6 0-1-.4-1-1s.4-1 1-1c.9 0 1.6-.7 1.6-1.6 0-.6.4-1 1-1s1 .4 1 1c0 2-1.6 3.6-3.6 3.6z"/><path class="hpa0" d="M475.4 31.6c-2 0-3.6-1.6-3.6-3.6 0-.6.4-1 1-1s1 .4 1 1c0 .9.7 1.6 1.6 1.6.6 0 1 .4 1 1s-.5 1-1 1z"/><path class="hpa0" d="M475.4 31.6c-.6 0-1-.4-1-1s.4-1 1-1c.9 0 1.6-.7 1.6-1.6 0-.6.4-1 1-1s1 .4 1 1c-.1 2-1.7 3.6-3.6 3.6z"/><path class="hpa0" d="M480.5 31.6c-2 0-3.6-1.6-3.6-3.6 0-.6.4-1 1-1s1 .4 1 1c0 .9.7 1.6 1.6 1.6.6 0 1 .4 1 1s-.4 1-1 1z"/><path class="hpa0" d="M487.8 44.4c-.6 0-1-.4-1-1s.4-1 1-1c.9 0 1.7-.7 1.7-1.7 0-.6.4-1 1-1s1 .4 1 1c0 2-1.7 3.7-3.7 3.7z"/><path class="hpa0" d="M493.1 44.4c-2 0-3.7-1.6-3.7-3.7 0-.6.4-1 1-1s1 .4 1 1c0 .9.7 1.7 1.7 1.7.6 0 1 .4 1 1s-.4 1-1 1z"/><path class="hpa0" d="M493.1 44.4c-.6 0-1-.4-1-1s.4-1 1-1c.9 0 1.7-.7 1.7-1.7 0-.6.4-1 1-1s1 .4 1 1c0 2-1.6 3.7-3.7 3.7z"/><path class="hpa0" d="M498.4 44.3c-2 0-3.6-1.6-3.6-3.6 0-.6.4-1 1-1s1 .4 1 1c0 .9.7 1.6 1.6 1.6.6 0 1 .4 1 1s-.5 1-1 1z"/><path class="hpa0" d="M498.4 44.3c-.6 0-1-.4-1-1s.4-1 1-1c.9 0 1.6-.7 1.6-1.6 0-.6.4-1 1-1s1 .4 1 1c-.1 2-1.7 3.6-3.6 3.6z"/><path class="hpa0" d="M503.5 44.3c-2 0-3.6-1.6-3.6-3.6 0-.6.4-1 1-1s1 .4 1 1c0 .9.7 1.6 1.6 1.6.6 0 1 .4 1 1s-.4 1-1 1z"/><g><path class="hpa0" d="M512.6 38c-.6 0-1-.4-1-1s.4-1 1-1c.9 0 1.6-.7 1.6-1.6 0-.6.4-1 1-1s1 .4 1 1c0 2-1.6 3.6-3.6 3.6z"/><path class="hpa0" d="M517.7 38c-2 0-3.6-1.6-3.6-3.6 0-.6.4-1 1-1s1 .4 1 1c0 .9.7 1.6 1.6 1.6.6 0 1 .4 1 1s-.4 1-1 1z"/><path class="hpa0" d="M517.7 38c-.6 0-1-.4-1-1s.4-1 1-1c.9 0 1.6-.7 1.6-1.6 0-.6.4-1 1-1s1 .4 1 1c0 2-1.6 3.6-3.6 3.6z"/><path class="hpa0" d="M522.9 38c-2 0-3.6-1.6-3.6-3.6 0-.6.4-1 1-1s1 .4 1 1c0 .9.7 1.6 1.6 1.6.6 0 1 .4 1 1s-.5 1-1 1z"/><path class="hpa0" d="M522.9 38c-.6 0-1-.4-1-1s.4-1 1-1c.9 0 1.6-.7 1.6-1.6 0-.6.4-1 1-1s1 .4 1 1c0 2-1.6 3.6-3.6 3.6z"/><path class="hpa0" d="M528 38c-2 0-3.6-1.6-3.6-3.6 0-.6.4-1 1-1s1 .4 1 1c0 .9.7 1.6 1.6 1.6.6 0 1 .4 1 1s-.4 1-1 1z"/></g><g><path class="hpa0" d="M480.5 31.6c-.6 0-1-.4-1-1s.4-1 1-1c.9 0 1.6-.7 1.6-1.6 0-.6.4-1 1-1s1 .4 1 1c0 2-1.6 3.6-3.6 3.6z"/></g><g><path class="hpa0" d="M485.6 31.6c-2 0-3.6-1.6-3.6-3.6 0-.6.4-1 1-1s1 .4 1 1c0 .9.7 1.6 1.6 1.6.6 0 1 .4 1 1s-.4 1-1 1z"/></g><g><path class="hpa0" d="M485.6 31.6c-.6 0-1-.4-1-1s.4-1 1-1c.9 0 1.6-.7 1.6-1.6 0-.6.4-1 1-1s1 .4 1 1c0 2-1.6 3.6-3.6 3.6z"/></g><g><path class="hpa0" d="M490.8 31.6c-2 0-3.6-1.6-3.6-3.6 0-.6.4-1 1-1s1 .4 1 1c0 .9.7 1.6 1.6 1.6.6 0 1 .4 1 1s-.5 1-1 1z"/></g><g><path class="hpa0" d="M478.8 57.9c-3.2 0-5.7-2.6-5.7-5.7s2.6-5.7 5.7-5.7 5.7 2.6 5.7 5.7-2.5 5.7-5.7 5.7zm0-9.5c-2.1 0-3.7 1.7-3.7 3.7 0 2.1 1.7 3.7 3.7 3.7 2.1 0 3.7-1.7 3.7-3.7.1-2-1.6-3.7-3.7-3.7z"/><path class="hpa0" d="M479 65c-.6 0-1-.4-1-1v-9c0-.6.4-1 1-1s1 .4 1 1v9c0 .6-.4 1-1 1z"/><path class="hpa0" d="M478.9 56.3c-.3 0-.7-.2-.9-.5l-1.4-2.4c-.3-.5-.1-1.1.4-1.4.5-.3 1.1-.1 1.4.4l1.4 2.4c.3.5.1 1.1-.4 1.4-.2.1-.4.1-.5.1z"/><path class="hpa0" d="M478.8 56.6c-.2 0-.3 0-.5-.1-.5-.3-.6-.9-.4-1.4l2.1-3.7c.3-.5.9-.6 1.4-.4.5.3.6.9.4 1.4l-2.1 3.7c-.2.3-.5.5-.9.5z"/></g><g><path class="hpa0" d="M520 21c-.6 0-1-.4-1-1V1c0-.6.4-1 1-1s1 .4 1 1v19c0 .6-.4 1-1 1z"/><path class="hpa0" d="M516.3 5.8c-.6 0-1-.4-1-1s.4-1 1-1c1.5 0 2.7-1.2 2.7-2.7 0-.6.4-1 1-1s1 .4 1 1c0 2.6-2.1 4.7-4.7 4.7z"/><path class="hpa0" d="M516.3 8.8c-.6 0-1-.4-1-1s.4-1 1-1c1.5 0 2.7-1.2 2.7-2.7 0-.6.4-1 1-1s1 .4 1 1c0 2.6-2.1 4.7-4.7 4.7z"/><path class="hpa0" d="M516.3 11.9c-.6 0-1-.4-1-1s.4-1 1-1c1.5 0 2.7-1.2 2.7-2.7 0-.6.4-1 1-1s1 .4 1 1c0 2.6-2.1 4.7-4.7 4.7z"/><path class="hpa0" d="M516.3 15c-.6 0-1-.4-1-1s.4-1 1-1c1.5 0 2.7-1.2 2.7-2.7 0-.6.4-1 1-1s1 .4 1 1c0 2.6-2.1 4.7-4.7 4.7z"/><path class="hpa0" d="M523.6 5.8c-2.6 0-4.7-2.1-4.7-4.7 0-.6.4-1 1-1s1 .4 1 1c0 1.5 1.2 2.7 2.7 2.7.6 0 1 .4 1 1s-.4 1-1 1z"/><path class="hpa0" d="M523.6 8.8c-2.6 0-4.7-2.1-4.7-4.7 0-.6.4-1 1-1s1 .4 1 1c0 1.5 1.2 2.7 2.7 2.7.6 0 1 .4 1 1s-.4 1-1 1z"/><path class="hpa0" d="M523.6 11.9c-2.6 0-4.7-2.1-4.7-4.7 0-.6.4-1 1-1s1 .4 1 1c0 1.5 1.2 2.7 2.7 2.7.6 0 1 .4 1 1s-.4 1-1 1z"/><path class="hpa0" d="M523.6 15c-2.6 0-4.7-2.1-4.7-4.7 0-.6.4-1 1-1s1 .4 1 1c0 1.5 1.2 2.7 2.7 2.7.6 0 1 .4 1 1s-.4 1-1 1z"/></g><g><path class="hpa0" d="M449 21c-.6 0-1-.4-1-1V1c0-.6.4-1 1-1s1 .4 1 1v19c0 .6-.4 1-1 1z"/><path class="hpa0" d="M445 5.8c-.6 0-1-.4-1-1s.4-1 1-1c1.5 0 2.7-1.2 2.7-2.7 0-.6.4-1 1-1s1 .4 1 1c0 2.6-2.1 4.7-4.7 4.7z"/><path class="hpa0" d="M445 8.9c-.6 0-1-.4-1-1s.4-1 1-1c1.5 0 2.7-1.2 2.7-2.7 0-.6.4-1 1-1s1 .4 1 1c0 2.6-2.1 4.7-4.7 4.7z"/><path class="hpa0" d="M445 12c-.6 0-1-.4-1-1s.4-1 1-1c1.5 0 2.7-1.2 2.7-2.7 0-.6.4-1 1-1s1 .4 1 1c0 2.6-2.1 4.7-4.7 4.7z"/><path class="hpa0" d="M445 15c-.6 0-1-.4-1-1s.4-1 1-1c1.5 0 2.7-1.2 2.7-2.7 0-.6.4-1 1-1s1 .4 1 1c0 2.7-2.1 4.7-4.7 4.7z"/><path class="hpa0" d="M452.4 5.8c-2.6 0-4.7-2.1-4.7-4.7 0-.6.4-1 1-1s1 .4 1 1c0 1.5 1.2 2.7 2.7 2.7.6 0 1 .4 1 1s-.5 1-1 1z"/><path class="hpa0" d="M452.4 8.9c-2.6 0-4.7-2.1-4.7-4.7 0-.6.4-1 1-1s1 .4 1 1c0 1.5 1.2 2.7 2.7 2.7.6 0 1 .4 1 1s-.5 1-1 1z"/><path class="hpa0" d="M452.4 12c-2.6 0-4.7-2.1-4.7-4.7 0-.6.4-1 1-1s1 .4 1 1c0 1.5 1.2 2.7 2.7 2.7.6 0 1 .4 1 1s-.5 1-1 1z"/><path class="hpa0" d="M452.4 15c-2.6 0-4.7-2.1-4.7-4.7 0-.6.4-1 1-1s1 .4 1 1c0 1.5 1.2 2.7 2.7 2.7.6 0 1 .4 1 1s-.5 1-1 1z"/></g><g><path class="hpa0" d="M520.3 57H482c-.6 0-1-.4-1-1s.4-1 1-1h38.3c9.2 0 16.7-8 16.7-17.9V37c0-9.5-7.3-17-16.7-17h-70.9c-9.6 0-17.4 7.6-17.4 17v.1c0 9.7 8 17.9 17.4 17.9H475c.6 0 1 .4 1 1s-.4 1-1 1h-25.6c-10.5 0-19.4-9.1-19.4-19.9V37c0-10.5 8.7-19 19.4-19h70.9c10.5 0 18.7 8.3 18.7 19v.1c0 11-8.4 19.9-18.7 19.9z"/></g><g><path class="hpa0" d="M486 21c-.6 0-1-.4-1-1v-7c0-.6.4-1 1-1s1 .4 1 1v7c0 .6-.4 1-1 1z"/><path class="hpa0" d="M485.5 14.1c-1.9 0-3.4-1.5-3.4-3.4s1.5-3.4 3.4-3.4 3.4 1.5 3.4 3.4-1.5 3.4-3.4 3.4zm0-4.9c-.8 0-1.4.6-1.4 1.4s.6 1.4 1.4 1.4 1.4-.6 1.4-1.4-.6-1.4-1.4-1.4z"/><path class="hpa0" d="M486 10c-.6 0-1-.4-1-1V5c0-.6.4-1 1-1s1 .4 1 1v4c0 .6-.4 1-1 1z"/><path class="hpa0" d="M483 12h-2c-.6 0-1-.4-1-1s.4-1 1-1h2c.6 0 1 .4 1 1s-.4 1-1 1z"/><path class="hpa0" d="M491 12h-3c-.6 0-1-.4-1-1s.4-1 1-1h3c.6 0 1 .4 1 1s-.4 1-1 1z"/><path class="hpa0" d="M483.9 10c-.3 0-.5-.1-.7-.3L481.5 8c-.4-.4-.4-1 0-1.4s1-.4 1.4 0l1.7 1.7c.4.4.4 1 0 1.4-.2.2-.5.3-.7.3z"/><path class="hpa0" d="M489 15.1c-.3 0-.5-.1-.7-.3l-1.7-1.7c-.4-.4-.4-1 0-1.4s1-.4 1.4 0l1.7 1.7c.4.4.4 1 0 1.4-.2.2-.5.3-.7.3z"/><path class="hpa0" d="M482.1 15.1c-.3 0-.5-.1-.7-.3-.4-.4-.4-1 0-1.4l1.7-1.7c.4-.4 1-.4 1.4 0 .4.4.4 1 0 1.4l-1.7 1.7c-.1.2-.4.3-.7.3z"/><path class="hpa0" d="M487.2 10c-.3 0-.5-.1-.7-.3-.4-.4-.4-1 0-1.4l1.7-1.7c.4-.4 1-.4 1.4 0s.4 1 0 1.4L488 9.7c-.2.2-.5.3-.8.3z"/></g></g><g id="flowers" class="icon"><path class="hpa0" d="M164.4 47.4h-.2c-.5-.1-.9-.7-.7-1.2.8-3.2 3.3-5.9 6.5-6.9.5-.2 1.1.1 1.3.6.2.5-.1 1.1-.6 1.3-2.6.8-4.5 2.9-5.2 5.5-.2.4-.6.7-1.1.7z"/><path class="hpa0" d="M164.4 47.4c-.5 0-.9-.3-1-.8-.6-2.6-2.6-4.7-5.2-5.5-.5-.2-.8-.7-.6-1.3.2-.5.7-.8 1.3-.6 3.2 1 5.7 3.7 6.5 6.9.1.5-.2 1.1-.7 1.2-.1.1-.2.1-.3.1z"/><path class="hpa0" d="M164.5 40.6c-3.1 0-5.6-2.5-5.6-5.6s2.5-5.6 5.6-5.6 5.6 2.5 5.6 5.6-2.5 5.6-5.6 5.6zm0-9.1c-2 0-3.6 1.6-3.6 3.6s1.6 3.6 3.6 3.6 3.6-1.6 3.6-3.6c0-2.1-1.6-3.6-3.6-3.6z"/><path class="hpa0" d="M208.4 47.4h-.2c-.5-.1-.9-.7-.7-1.2.8-3.2 3.3-5.9 6.5-6.9.5-.2 1.1.1 1.3.6.2.5-.1 1.1-.6 1.3-2.6.8-4.5 2.9-5.2 5.5-.3.4-.7.7-1.1.7z"/><path class="hpa0" d="M208.3 47.4c-.5 0-.9-.3-1-.8-.6-2.6-2.6-4.7-5.2-5.5-.5-.2-.8-.7-.6-1.3.2-.5.7-.8 1.3-.6 3.2 1 5.7 3.7 6.5 6.9.1.5-.2 1.1-.7 1.2-.1.1-.2.1-.3.1z"/><path class="hpa0" d="M208.4 40.6c-3.1 0-5.6-2.5-5.6-5.6s2.5-5.6 5.6-5.6 5.6 2.5 5.6 5.6-2.5 5.6-5.6 5.6zm0-9.1c-2 0-3.6 1.6-3.6 3.6s1.6 3.6 3.6 3.6 3.6-1.6 3.6-3.6c0-2.1-1.6-3.6-3.6-3.6z"/><g><path class="hpa0" d="M186.4 39.4h-.2c-.5-.1-.9-.7-.7-1.2.8-3.2 3.3-5.9 6.5-6.9.5-.2 1.1.1 1.3.6.2.5-.1 1.1-.6 1.3-2.6.8-4.5 2.9-5.2 5.5-.2.4-.7.7-1.1.7z"/><path class="hpa0" d="M186.4 39.4c-.5 0-.9-.3-1-.8-.6-2.6-2.6-4.7-5.2-5.5-.5-.2-.8-.7-.6-1.3.2-.5.7-.8 1.3-.6 3.2 1 5.7 3.7 6.5 6.9.1.5-.2 1.1-.7 1.2-.2.1-.3.1-.3.1z"/><path class="hpa0" d="M186.5 32.5c-3.1 0-5.6-2.5-5.6-5.6s2.5-5.6 5.6-5.6 5.6 2.5 5.6 5.6-2.6 5.6-5.6 5.6zm0-9.1c-2 0-3.6 1.6-3.6 3.6s1.6 3.6 3.6 3.6 3.6-1.6 3.6-3.6c-.1-2-1.7-3.6-3.6-3.6z"/></g><g><path class="hpa0" d="M230.3 39.4h-.2c-.5-.1-.9-.7-.7-1.2.8-3.2 3.3-5.9 6.5-6.9.5-.2 1.1.1 1.3.6.2.5-.1 1.1-.6 1.3-2.6.8-4.5 2.9-5.2 5.5-.2.4-.6.7-1.1.7z"/><path class="hpa0" d="M230.3 39.4c-.5 0-.9-.3-1-.8-.6-2.6-2.6-4.7-5.2-5.5-.5-.2-.8-.7-.6-1.3.2-.5.7-.8 1.3-.6 3.2 1 5.7 3.7 6.5 6.9.1.5-.2 1.1-.7 1.2-.2.1-.2.1-.3.1z"/><path class="hpa0" d="M230.4 32.5c-3.1 0-5.6-2.5-5.6-5.6s2.5-5.6 5.6-5.6 5.6 2.5 5.6 5.6-2.5 5.6-5.6 5.6zm0-9.1c-2 0-3.6 1.6-3.6 3.6s1.6 3.6 3.6 3.6S234 29 234 27c-.1-2-1.6-3.6-3.6-3.6z"/></g></g><g id="graph" class="icon"><path class="hpa0" d="M346.2 62.5c-.4 0-.9-.2-1.1-.6l-20.8-36.1c-.3-.6-.1-1.4.5-1.7.6-.3 1.4-.1 1.7.5l19.8 34.2 21.9-37.9c.3-.6 1.1-.8 1.7-.5.6.3.8 1.1.5 1.7l-23 39.8c-.3.3-.7.6-1.2.6z"/><path class="hpa0" d="M312 43.9c-.2 0-.4-.1-.6-.2-.6-.3-.8-1.1-.5-1.7L321 24.5c.3-.6 1.1-.8 1.7-.5.6.3.8 1.1.5 1.7l-10.1 17.5c-.2.5-.6.7-1.1.7z"/><path class="hpa0" d="M308.8 56c-4.3 0-7.7-3.5-7.7-7.7 0-4.3 3.5-7.7 7.7-7.7 4.3 0 7.7 3.5 7.7 7.7S313 56 308.8 56zm0-13c-2.9 0-5.2 2.3-5.2 5.2 0 2.9 2.3 5.2 5.2 5.2 2.9 0 5.2-2.3 5.2-5.2 0-2.8-2.3-5.2-5.2-5.2z"/><path class="hpa0" d="M372.5 23.6c-4.3 0-7.7-3.5-7.7-7.7 0-4.3 3.5-7.7 7.7-7.7 4.3 0 7.7 3.5 7.7 7.7.1 4.3-3.4 7.7-7.7 7.7zm0-12.9c-2.9 0-5.2 2.3-5.2 5.2 0 2.9 2.3 5.2 5.2 5.2 2.9 0 5.2-2.3 5.2-5.2.1-2.9-2.3-5.2-5.2-5.2z"/><path class="hpa0" d="M323.8 26.8c-2.5 0-4.5-2-4.5-4.5s2-4.5 4.5-4.5 4.5 2 4.5 4.5c-.1 2.5-2.1 4.5-4.5 4.5zm0-6.5c-1.1 0-2 .9-2 2s.9 2 2 2 2-.9 2-2c-.1-1.1-.9-2-2-2z"/></g><g id="sun" class="icon"><path class="hpa0" d="M71.9 53.7c-.3 0-.5-.1-.7-.3l-5.1-5.1c-.4-.4-.4-1 0-1.4s1-.4 1.4 0l5.1 5.1c.4.4.4 1 0 1.4-.2.2-.4.3-.7.3z"/><path class="hpa0" d="M41.6 23.4c-.3 0-.5-.1-.7-.3L35.8 18c-.4-.4-.4-1 0-1.4.4-.4 1-.4 1.4 0l5.1 5.1c.4.4.4 1 0 1.4-.2.2-.5.3-.7.3z"/><path class="hpa0" d="M66.8 23.4c-.3 0-.5-.1-.7-.3-.4-.4-.4-1 0-1.4l5.1-5.1c.4-.4 1-.4 1.4 0 .4.4.4 1 0 1.4l-5.1 5.1c-.2.2-.5.3-.7.3z"/><path class="hpa0" d="M36.5 53.7c-.3 0-.5-.1-.7-.3-.4-.4-.4-1 0-1.4l5.1-5.1c.4-.4 1-.4 1.4 0 .4.4.4 1 0 1.4l-5.1 5.1c-.2.2-.5.3-.7.3z"/><path class="hpa0" d="M79.3 36H72c-.5 0-1-.5-1-1s.4-1 1-1h7.3c.5 0 1 .5 1 1s-.5 1-1 1z"/><path class="hpa0" d="M36.4 36h-7.3c-.5 0-1-.5-1-1s.4-1 1-1h7.3c.5 0 1 .5 1 1s-.5 1-1 1z"/><path class="hpa0" d="M54 18.2c-.5 0-1-.4-1-1V9.9c0-.5.5-1 1-1s1 .4 1 1v7.3c0 .6-.5 1-1 1z"/><path class="hpa0" d="M54 61.1c-.5 0-1-.4-1-1v-7.3c0-.5.5-1 1-1s1 .4 1 1v7.3c0 .5-.5 1-1 1z"/><path class="hpa0" d="M70.6 29.1c-.4 0-.8-.2-.9-.6-.2-.5 0-1.1.5-1.3l6.7-2.8c.5-.2 1.1 0 1.3.5.2.5 0 1.1-.5 1.3L71 29.1h-.4z"/><path class="hpa0" d="M31 45.7c-.4 0-.8-.2-.9-.6-.2-.5 0-1.1.5-1.3l6.7-2.8c.5-.2 1.1 0 1.3.5.2.5 0 1.1-.5 1.3l-6.7 2.8c-.1 0-.2.1-.4.1z"/><path class="hpa0" d="M47.3 19.6c-.4 0-.8-.2-.9-.6l-2.8-6.7c-.2-.5 0-1.1.5-1.3.5-.2 1.1 0 1.3.5l2.8 6.7c.2.5 0 1.1-.5 1.3-.1 0-.2.1-.4.1z"/><path class="hpa0" d="M63.8 59.1c-.4 0-.8-.2-.9-.6l-2.8-6.7c-.2-.5 0-1.1.5-1.3.5-.2 1.1 0 1.3.5l2.8 6.7c.2.5 0 1.1-.5 1.3-.1.1-.2.1-.4.1z"/><path class="hpa0" d="M61 19.5c-.1 0-.3 0-.4-.1-.5-.2-.7-.8-.5-1.3l2.8-6.7c.2-.5.8-.7 1.3-.5.5.2.7.8.5 1.3l-2.8 6.7c-.2.4-.6.6-.9.6z"/><path class="hpa0" d="M44.7 59.2c-.1 0-.3 0-.4-.1-.5-.2-.7-.8-.5-1.3l2.8-6.7c.2-.5.8-.7 1.3-.5.5.2.7.8.5 1.3l-2.8 6.7c-.2.4-.6.6-.9.6z"/><path class="hpa0" d="M37.7 29.2c-.1 0-.3 0-.4-.1l-6.7-2.8c-.5-.2-.7-.8-.5-1.3.2-.5.8-.7 1.3-.5l6.7 2.8c.5.2.7.8.5 1.3-.1.4-.5.6-.9.6z"/><path class="hpa0" d="M77.4 45.5c-.1 0-.3 0-.4-.1l-6.7-2.8c-.5-.2-.7-.8-.5-1.3.2-.5.8-.7 1.3-.5l6.7 2.8c.5.2.7.8.5 1.3-.2.4-.5.6-.9.6z"/><path class="hpa0" d="M54.2 53.8c-10.4 0-18.8-8.4-18.8-18.8s8.4-18.8 18.8-18.8C64.5 16.2 73 24.6 73 35s-8.5 18.8-18.8 18.8zm0-35.6c-9.3 0-16.8 7.5-16.8 16.8s7.5 16.8 16.8 16.8S71 44.3 71 35s-7.5-16.8-16.8-16.8z"/></g></g></pattern></defs></svg>