<?xml version="1.0" encoding="utf-8"?>
<!-- Generator: Adobe Illustrator 19.2.1, SVG Export Plug-In . SVG Version: 6.00 Build 0)  -->
<svg version="1.1" id="Layer_1" xmlns="http://www.w3.org/2000/svg" xmlns:xlink="http://www.w3.org/1999/xlink" x="0px" y="0px"
	 viewBox="0 0 36 34" style="enable-background:new 0 0 36 34;" xml:space="preserve">
<title>MAPS Icon -</title>
<g>
	<path d="M31.5,33H4.5c-1.7,0-3-1.3-3-3V10.2c0-1.7,1.3-3,3-3h26.9c1.7,0,3,1.3,3,3V30C34.5,31.7,33.1,33,31.5,33z M4.5,9.2
		c-0.6,0-1,0.4-1,1V30c0,0.6,0.4,1,1,1h26.9c0.6,0,1-0.4,1-1V10.2c0-0.6-0.4-1-1-1H4.5z"/>
</g>
<g>
	<path d="M24,9H12c-0.3,0-0.5-0.1-0.7-0.3S11,8.2,11,8c0.1-3.8,3.2-6.8,7-7c0,0,0,0,0.1,0c3.8,0.1,6.8,3.2,7,7
		c0,0.3-0.1,0.5-0.3,0.7S24.3,9,24,9z M13.1,7h9.7c-0.5-2.2-2.5-3.9-4.9-4C15.6,3.1,13.7,4.8,13.1,7z"/>
</g>
<g>
	<path d="M18,27.1c-0.6,0-1-0.4-1-1v-12c0-0.6,0.4-1,1-1s1,0.4,1,1v12C19,26.6,18.6,27.1,18,27.1z"/>
</g>
<g>
	<path d="M24,21.1H12c-0.6,0-1-0.4-1-1s0.4-1,1-1h12c0.6,0,1,0.4,1,1S24.6,21.1,24,21.1z"/>
</g>
</svg>
