<?xml version="1.0" encoding="utf-8"?>
<!-- Generator: Adobe Illustrator 19.2.1, SVG Export Plug-In . SVG Version: 6.00 Build 0)  -->
<svg version="1.1" id="Layer_1" xmlns="http://www.w3.org/2000/svg" xmlns:xlink="http://www.w3.org/1999/xlink" x="0px" y="0px"
	 viewBox="0 0 36 34" style="enable-background:new 0 0 36 34;" xml:space="preserve">
<title>MAPS Icon -</title>
<g>
	<path d="M18,33.5C8.9,33.5,1.5,26.1,1.5,17C1.5,7.9,8.9,0.5,18,0.5c9.1,0,16.5,7.4,16.5,16.5C34.5,26.1,27.1,33.5,18,33.5z M18,2.5
		C10,2.5,3.5,9,3.5,17S10,31.5,18,31.5S32.5,25,32.5,17S26,2.5,18,2.5z M18,26.7c-5.4,0-9.7-4.4-9.7-9.7c0-5.4,4.4-9.7,9.7-9.7
		c5.4,0,9.7,4.4,9.7,9.7C27.7,22.4,23.4,26.7,18,26.7z M18,9.3c-4.3,0-7.7,3.5-7.7,7.7s3.5,7.7,7.7,7.7s7.7-3.5,7.7-7.7
		S22.3,9.3,18,9.3z"/>
</g>
<g>
	<path d="M18.1,21.1c-2.2,0-4.1-1.8-4.1-4.1s1.8-4.1,4.1-4.1s4.1,1.8,4.1,4.1S20.3,21.1,18.1,21.1z M18.1,14.9
		c-1.1,0-2.1,0.9-2.1,2.1c0,1.1,0.9,2.1,2.1,2.1s2.1-0.9,2.1-2.1C20.2,15.9,19.2,14.9,18.1,14.9z"/>
</g>
<g>
	<path d="M18.1,14.6c-0.6,0-1-0.4-1-1V8.5c0-0.6,0.4-1,1-1s1,0.4,1,1v5.1C19.1,14.2,18.6,14.6,18.1,14.6z"/>
</g>
<g>
	<path d="M18.1,26.5c-0.6,0-1-0.4-1-1v-5.1c0-0.6,0.4-1,1-1s1,0.4,1,1v5.1C19.1,26,18.6,26.5,18.1,26.5z"/>
</g>
<g>
	<path d="M26.5,18h-5c-0.6,0-1-0.4-1-1s0.4-1,1-1h5c0.6,0,1,0.4,1,1S27,18,26.5,18z"/>
</g>
<g>
	<path d="M14.7,18H10c-0.6,0-1-0.4-1-1s0.4-1,1-1h4.7c0.6,0,1,0.4,1,1S15.2,18,14.7,18z"/>
</g>
<g>
	<path d="M15.3,15.4c-0.3,0-0.5-0.1-0.7-0.3l-3.2-3.2c-0.4-0.4-0.4-1,0-1.4s1-0.4,1.4,0l3.2,3.2c0.4,0.4,0.4,1,0,1.4
		C15.8,15.3,15.6,15.4,15.3,15.4z"/>
</g>
<g>
	<path d="M23.7,23.8c-0.3,0-0.5-0.1-0.7-0.3l-3.2-3.2c-0.4-0.4-0.4-1,0-1.4s1-0.4,1.4,0l3.2,3.2c0.4,0.4,0.4,1,0,1.4
		C24.2,23.7,24,23.8,23.7,23.8z"/>
</g>
<g>
	<path d="M20.9,15.4c-0.3,0-0.5-0.1-0.7-0.3c-0.4-0.4-0.4-1,0-1.4l3.2-3.2c0.4-0.4,1-0.4,1.4,0s0.4,1,0,1.4l-3.2,3.2
		C21.4,15.3,21.1,15.4,20.9,15.4z"/>
</g>
<g>
	<path d="M12.4,23.8c-0.3,0-0.5-0.1-0.7-0.3c-0.4-0.4-0.4-1,0-1.4l3.3-3.3c0.4-0.4,1-0.4,1.4,0c0.4,0.4,0.4,1,0,1.4l-3.3,3.3
		C13,23.8,12.7,23.8,12.4,23.8z"/>
</g>
</svg>
