<?xml version="1.0" encoding="utf-8"?>
<!-- Generator: Adobe Illustrator 19.2.1, SVG Export Plug-In . SVG Version: 6.00 Build 0)  -->
<svg version="1.1" id="Layer_1" xmlns="http://www.w3.org/2000/svg" xmlns:xlink="http://www.w3.org/1999/xlink" x="0px" y="0px"
	 viewBox="0 0 36 34" style="enable-background:new 0 0 36 34;" xml:space="preserve">
<title>MAPS Icon -</title>
<g>
	<path d="M24.8,33.7c-2.4,0-4.7-0.9-6.6-2.5c-2-1.8-3.2-4.2-3.4-6.9c0-0.1,0-0.2,0-0.4c0-0.6,0.4-1,1-1c0.5,0,1,0.4,1,1
		c0,0.1,0,0.2,0,0.3c0.1,2.1,1.1,4.1,2.7,5.5c1.6,1.4,3.7,2.1,5.8,2c4.2-0.4,7.5-4,7.5-8.3V10.7c0-0.6-0.4-1-1-1H20.2
		c-0.6,0-1-0.4-1-1s0.4-1,1-1h11.6c1.7,0,3,1.3,3,3v12.7c0.1,5.3-4,9.8-9.3,10.3C25.3,33.7,25,33.7,24.8,33.7z"/>
</g>
<g>
	<path d="M21.5,18.4c-0.5,0-1-0.2-1.4-0.6c-0.8-0.8-0.8-2,0-2.8c0.8-0.8,2-0.8,2.8,0c0.8,0.8,0.8,2,0,2.8
		C22.5,18.2,22,18.4,21.5,18.4z"/>
</g>
<g>
	<path d="M27.9,18.4c-0.5,0-1-0.2-1.4-0.6c-0.4-0.4-0.6-0.9-0.6-1.4c0-0.5,0.2-1,0.6-1.4l0,0l0,0c0,0,0,0,0,0c0.8-0.8,2-0.8,2.8,0
		c0.4,0.4,0.6,0.9,0.6,1.4c0,0.5-0.2,1-0.6,1.4C28.9,18.2,28.4,18.4,27.9,18.4z M27.2,15.7L27.2,15.7L27.2,15.7z"/>
</g>
<g>
	<path d="M20,25.7c-0.3,0-0.5-0.1-0.7-0.3c-0.4-0.4-0.4-1,0-1.4c1.5-1.5,3.4-2.3,5.5-2.3c0,0,0,0,0,0c2.1,0,4,0.8,5.5,2.3
		c0,0,0,0,0,0c0.4,0.4,0.4,1,0,1.4c-0.4,0.4-0.9,0.4-1.3,0.1c0,0-0.1-0.1-0.1-0.1c-1.1-1.1-2.6-1.7-4.1-1.7c0,0,0,0,0,0
		c-1.5,0-3,0.6-4.1,1.7C20.5,25.6,20.3,25.7,20,25.7z"/>
</g>
<g>
	<path d="M11.2,26.3c-5.2,0-9.6-4.1-10-9.3c0-0.2,0-0.5,0-0.7v-13c0-1.7,1.3-3,3-3h14c1.6,0,3,1.3,3,3c0,0,0,0,0,0V16
		c0.1,5.3-4,9.8-9.3,10.3C11.7,26.3,11.4,26.3,11.2,26.3z M4.2,2.3c-0.6,0-1,0.4-1,1v13c0,0.2,0,0.4,0,0.6c0.3,4.4,4.1,7.8,8.5,7.5
		c4.2-0.4,7.5-4,7.5-8.3V3.3c0-0.5-0.5-1-1-1H4.2z"/>
</g>
<g>
	<path d="M7.9,11c-0.5,0-1-0.2-1.4-0.6c-0.8-0.8-0.8-2,0-2.8c0.8-0.8,2-0.8,2.8,0c0.8,0.8,0.8,2,0,2.8C9,10.8,8.5,11,7.9,11z M7.9,9
		L7.9,9L7.9,9z M7.9,9L7.9,9L7.9,9z M7.9,9L7.9,9L7.9,9z M7.9,9L7.9,9C7.9,9,7.9,9,7.9,9z M7.9,9L7.9,9L7.9,9z M7.9,9L7.9,9
		C7.9,9,7.9,9,7.9,9z M7.9,9L7.9,9L7.9,9z"/>
</g>
<g>
	<path d="M14.3,11c-0.5,0-1-0.2-1.4-0.6c-0.8-0.8-0.8-2,0-2.8l0,0c0,0,0,0,0,0l0,0c0.8-0.8,2.1-0.8,2.8,0c0.8,0.8,0.8,2,0,2.8
		C15.4,10.7,14.8,11,14.3,11z M13.6,8.2L13.6,8.2L13.6,8.2z"/>
</g>
<g>
	<path d="M11.2,19.3c-2,0-4-0.8-5.5-2.3c-0.3-0.3-0.4-0.9-0.1-1.3c0.3-0.5,0.9-0.6,1.4-0.3c0.1,0.1,0.1,0.1,0.2,0.2
		c2.2,2.2,5.9,2.2,8.2-0.1c0.4-0.4,1-0.4,1.4,0c0.4,0.4,0.4,1,0,1.4C15.2,18.5,13.2,19.3,11.2,19.3z"/>
</g>
</svg>
