<?xml version="1.0" encoding="utf-8"?>
<!-- Generator: Adobe Illustrator 19.2.1, SVG Export Plug-In . SVG Version: 6.00 Build 0)  -->
<svg version="1.1" id="Layer_1" xmlns="http://www.w3.org/2000/svg" xmlns:xlink="http://www.w3.org/1999/xlink" x="0px" y="0px"
	 viewBox="0 0 36 34" style="enable-background:new 0 0 36 34;" xml:space="preserve">
<title>MAPS Icon -</title>
<g>
	<circle cx="16.7" cy="29.4" r="2"/>
</g>
<g>
	<circle cx="27.5" cy="29.4" r="2"/>
</g>
<g>
	<path d="M30.1,19.3C30.1,19.3,30.1,19.3,30.1,19.3l-17.4,0c-0.6,0-1-0.4-1-1c0-0.6,0.4-1,1-1h17.3c0.5,0,0.9-0.3,1-0.7l2.2-6.1
		c0.2-0.5-0.1-1.1-0.6-1.3c-0.1,0-0.2-0.1-0.3-0.1h-23c-0.6,0-1-0.4-1-1s0.4-1,1-1h23c0.3,0,0.7,0.1,1,0.2c1.6,0.5,2.4,2.2,1.9,3.8
		l-2.2,6.1C32.5,18.5,31.4,19.3,30.1,19.3z"/>
</g>
<g>
	<path d="M29.3,25.5h-13c-1.3,0-2.4-0.8-2.8-2L6.9,4.3c-0.1-0.4-0.5-0.7-1-0.7H1.8c-0.6,0-1-0.4-1-1s0.4-1,1-1h4.1
		c1.3,0,2.4,0.8,2.8,2.1l6.6,19.2c0.1,0.4,0.5,0.7,0.9,0.7h13c0.6,0,1,0.4,1,1S29.9,25.5,29.3,25.5z"/>
</g>
</svg>
