<?xml version="1.0" encoding="utf-8"?>
<!-- Generator: Adobe Illustrator 19.2.1, SVG Export Plug-In . SVG Version: 6.00 Build 0)  -->
<svg version="1.1" id="Layer_1" xmlns="http://www.w3.org/2000/svg" xmlns:xlink="http://www.w3.org/1999/xlink" x="0px" y="0px"
	 viewBox="0 0 36 34" style="enable-background:new 0 0 36 34;" xml:space="preserve">
<title>MAPS Icon -</title>
<g>
	<path d="M8.7,27.9c-0.1,0-0.3,0-0.4,0c-1.1-0.1-2.1-0.7-2.8-1.5s-1-2-0.9-3.1c0.1-1.1,0.7-2.1,1.5-2.8c0.9-0.7,2-1,3.1-0.9
		c2.3,0.2,4,2.3,3.7,4.6c-0.1,1.1-0.7,2.1-1.5,2.8C10.6,27.6,9.7,27.9,8.7,27.9z M8.7,21.6c-0.5,0-1,0.2-1.4,0.5
		c-0.4,0.4-0.7,0.9-0.8,1.5l0,0c-0.1,0.6,0.1,1.1,0.5,1.6s0.9,0.7,1.5,0.8c0.6,0.1,1.1-0.1,1.6-0.5c0.5-0.4,0.7-0.9,0.8-1.5
		c0.1-0.6-0.1-1.1-0.5-1.6c-0.4-0.5-0.9-0.7-1.5-0.8C8.9,21.6,8.8,21.6,8.7,21.6z M5.6,23.4L5.6,23.4L5.6,23.4z"/>
</g>
<g>
	<path d="M24.4,16.1c-0.2,0-0.4-0.1-0.6-0.2c-0.4-0.3-0.5-1-0.2-1.4l4.5-6.1c0.8-1,1.2-2.1,1.3-3.1c0-0.9-0.2-1.6-0.7-2
		c-0.4-0.3-0.5-1-0.2-1.4c0.3-0.4,1-0.5,1.4-0.2c1,0.8,1.6,2.1,1.5,3.7c-0.1,1.4-0.7,3-1.7,4.2l-4.5,6
		C25.1,15.9,24.8,16.1,24.4,16.1z"/>
</g>
<g>
	<path d="M11.8,25.7c-0.2,0-0.4-0.1-0.6-0.2c-0.4-0.3-0.5-1-0.2-1.4L28.5,1.9c0.3-0.4,1-0.5,1.4-0.2c0.4,0.3,0.5,1,0.2,1.4
		L12.6,25.3C12.4,25.6,12.1,25.7,11.8,25.7z"/>
</g>
<g>
	<path d="M27.3,27.9c-2.1,0-3.9-1.6-4.1-3.7C23,23,23.3,22,24,21.1c0.7-0.9,1.7-1.4,2.8-1.5c1.1-0.1,2.2,0.2,3.1,0.9
		c0.9,0.7,1.4,1.7,1.5,2.8c0.2,2.3-1.4,4.3-3.7,4.6C27.6,27.9,27.4,27.9,27.3,27.9z M27.3,21.5c-0.1,0-0.2,0-0.2,0
		c-0.6,0.1-1.1,0.3-1.5,0.8s-0.5,1-0.5,1.6c0.1,1.2,1.2,2.1,2.4,1.9c1.2-0.1,2.1-1.2,1.9-2.4c-0.1-0.6-0.3-1.1-0.8-1.5
		C28.3,21.7,27.8,21.5,27.3,21.5z"/>
</g>
<g>
	<path d="M27.8,32.5c-0.2,0-0.4-0.1-0.6-0.2c-1.8-1.5-2.1-4.1-0.6-5.9c0.3-0.4,1-0.5,1.4-0.1c0.4,0.3,0.5,1,0.1,1.4
		c-0.8,0.9-0.6,2.3,0.3,3.1c0.4,0.3,0.5,1,0.1,1.4C28.4,32.3,28.1,32.5,27.8,32.5z"/>
</g>
<g>
	<path d="M18.7,17c-0.2,0-0.4-0.1-0.6-0.2c-0.5-0.3-0.6-0.9-0.2-1.4c1.6-2.3,4.9-2.9,7.2-1.2c0.4,0.3,0.6,0.9,0.3,1.4
		c-0.3,0.5-0.9,0.6-1.4,0.3c-1.5-1-3.4-0.7-4.4,0.7C19.3,16.9,19,17,18.7,17z"/>
</g>
<g>
	<path d="M11.6,16.1c-0.3,0-0.6-0.1-0.8-0.4L6.2,9.6c-1-1.3-1.6-2.8-1.7-4.2C4.5,3.9,5,2.5,6,1.7c0.4-0.3,1.1-0.3,1.4,0.2
		c0.3,0.4,0.3,1.1-0.2,1.4c-0.5,0.4-0.8,1.1-0.7,2c0,1,0.5,2.1,1.3,3.1l4.6,6.1c0.3,0.4,0.2,1.1-0.2,1.4C12,16,11.8,16.1,11.6,16.1z
		"/>
</g>
<g>
	<path d="M24.2,25.7c-0.3,0-0.6-0.1-0.8-0.4L5.9,3.2C5.6,2.7,5.6,2.1,6.1,1.8c0.4-0.3,1.1-0.3,1.4,0.2L25,24.1
		c0.3,0.4,0.3,1.1-0.2,1.4C24.6,25.6,24.4,25.7,24.2,25.7z"/>
</g>
<g>
	<path d="M17.3,17c-0.3,0-0.6-0.1-0.8-0.4c-0.5-0.7-1.2-1.1-2-1.3c-0.8-0.1-1.7,0-2.4,0.5L11,14.2c1.1-0.8,2.5-1.1,3.8-0.9
		c1.4,0.2,2.5,1,3.3,2.1c0.3,0.5,0.2,1.1-0.2,1.4C17.7,16.9,17.5,17,17.3,17z"/>
</g>
</svg>
