<svg id="Layer_1" data-name="Layer 1" xmlns="http://www.w3.org/2000/svg" viewBox="0 0 36 34"><defs><style>.cls-1{fill:none;stroke:#49ce4f;stroke-linecap:round;stroke-linejoin:round;stroke-width:2px;}</style></defs><title>MAPS Icon - </title><path class="cls-1" d="M20.2,8.72H31.8a2,2,0,0,1,2,2V23.41a9.2,9.2,0,0,1-8.4,9.29A9,9,0,0,1,15.8,24"/><circle class="cls-1" cx="21.52" cy="16.4" r="1" transform="translate(-5.29 20.02) rotate(-45)"/><circle class="cls-1" cx="27.91" cy="16.4" r="1" transform="translate(-3.42 24.54) rotate(-45)"/><path class="cls-1" d="M20,24.71a6.8,6.8,0,0,1,9.62,0"/><path class="cls-1" d="M20.2,3.28V16a9.2,9.2,0,0,1-8.4,9.29,9,9,0,0,1-9.6-9v-13a2,2,0,0,1,2-2h14A2,2,0,0,1,20.2,3.28Z"/><circle class="cls-1" cx="7.93" cy="8.96" r="1" transform="translate(-4.01 8.23) rotate(-45)"/><circle class="cls-1" cx="14.31" cy="8.96" r="1" transform="translate(-2.14 12.74) rotate(-45)"/><path class="cls-1" d="M16,16.27a6.8,6.8,0,0,1-9.62,0"/></svg>