<?xml version="1.0" encoding="utf-8"?>
<!-- Generator: Adobe Illustrator 19.2.1, SVG Export Plug-In . SVG Version: 6.00 Build 0)  -->
<svg version="1.1" id="Layer_1" xmlns="http://www.w3.org/2000/svg" xmlns:xlink="http://www.w3.org/1999/xlink" x="0px" y="0px"
	 viewBox="0 0 36 34" style="enable-background:new 0 0 36 34;" xml:space="preserve">
<title>MAPS Icon -</title>
<g>
	<path d="M31.3,32.5H4.7c-1.7,0-3-1.3-3-3V4.5c0-1.7,1.3-3,3-3h26.7c1.7,0,3,1.3,3,3v24.9C34.3,31.1,33,32.5,31.3,32.5z M4.7,3.5
		c-0.6,0-1,0.4-1,1v24.9c0,0.6,0.4,1,1,1h26.7c0.6,0,1-0.4,1-1V4.5c0-0.6-0.4-1-1-1H4.7z"/>
</g>
<g>
	<path d="M33.3,7.8H2.7c-0.6,0-1-0.4-1-1s0.4-1,1-1h30.7c0.6,0,1,0.4,1,1S33.9,7.8,33.3,7.8z"/>
</g>
<g>
	<path d="M33.3,28.6H2.7c-0.6,0-1-0.4-1-1s0.4-1,1-1h30.7c0.6,0,1,0.4,1,1S33.9,28.6,33.3,28.6z"/>
</g>
<g>
	<path d="M2.9,24.2c-0.3,0-0.6-0.2-0.8-0.4c-0.3-0.5-0.2-1.1,0.3-1.4L26.5,6c0.5-0.3,1.1-0.2,1.4,0.3c0.3,0.5,0.2,1.1-0.3,1.4
		L3.4,24C3.2,24.1,3,24.2,2.9,24.2z"/>
</g>
<g>
	<path d="M8.9,28.6c-0.3,0-0.6-0.2-0.8-0.4c-0.3-0.5-0.2-1.1,0.3-1.4l24.3-16.5c0.5-0.3,1.1-0.2,1.4,0.3s0.2,1.1-0.3,1.4L9.4,28.4
		C9.2,28.6,9.1,28.6,8.9,28.6z"/>
</g>
<g>
	<path d="M10.3,19.1c-0.6,0-1-0.4-1-1V6.8c0-0.6,0.4-1,1-1s1,0.4,1,1v11.3C11.3,18.7,10.9,19.1,10.3,19.1z"/>
</g>
<g>
	<path d="M18,14c-0.6,0-1-0.4-1-1V6.8c0-0.6,0.4-1,1-1s1,0.4,1,1V13C19,13.5,18.6,14,18,14z"/>
</g>
<g>
	<path d="M18,28.6c-0.6,0-1-0.4-1-1v-6.1c0-0.6,0.4-1,1-1s1,0.4,1,1v6.1C19,28.2,18.6,28.6,18,28.6z"/>
</g>
<g>
	<path d="M25.7,28.6c-0.6,0-1-0.4-1-1V16.2c0-0.6,0.4-1,1-1s1,0.4,1,1v11.4C26.7,28.2,26.2,28.6,25.7,28.6z"/>
</g>
</svg>
