<?xml version="1.0" encoding="utf-8"?>
<!-- Generator: Adobe Illustrator 19.2.1, SVG Export Plug-In . SVG Version: 6.00 Build 0)  -->
<svg version="1.1" id="Layer_1" xmlns="http://www.w3.org/2000/svg" xmlns:xlink="http://www.w3.org/1999/xlink" x="0px" y="0px"
	 viewBox="0 0 36 34" style="enable-background:new 0 0 36 34;" xml:space="preserve">
<title>MAPS Icon -</title>
<g>
	<path d="M6.9,23.8c-0.6,0-1-0.4-1-1v-9.3c0-0.3,0.1-0.7,0.2-1l3.1-9.1c0.3-1.8,2-2.9,3.8-2.7c1.8,0.3,3,2,2.8,3.8
		c0,0.1,0,0.1,0,0.2L12.5,14c-0.2,0.5-0.7,0.8-1.3,0.6c-0.5-0.2-0.8-0.7-0.6-1.3l3.1-9.2c0.1-0.7-0.4-1.3-1.1-1.5
		c-0.7-0.1-1.4,0.4-1.5,1.1c0,0.1,0,0.1,0,0.2l-3.1,9.1c0,0.1-0.1,0.2-0.1,0.3v9.3C7.9,23.4,7.4,23.8,6.9,23.8z"/>
</g>
<g>
	<path d="M16.3,23.8c-0.6,0-1-0.4-1-1V14c0-0.7-0.6-1.3-1.3-1.3c-0.8,0-1.4,0.6-1.4,1.3v4.9c0,0.6-0.4,1-1,1s-1-0.4-1-1V14
		c0-1.8,1.5-3.3,3.3-3.3c1.9,0,3.3,1.5,3.3,3.3v8.8C17.3,23.4,16.8,23.8,16.3,23.8z"/>
</g>
<g>
	<path d="M8.4,33.3c-0.2,0-0.4,0-0.5-0.2c-0.5-0.3-0.6-0.9-0.3-1.4l2.6-4.3c0.2-0.3,0.5-0.5,0.8-0.5c2.3,0,4.2-1.9,4.2-4.2
		c0-0.5,0.5-1,1-1c0,0,0,0,0,0c0.6,0,1,0.5,1,1c0,3.2-2.5,5.9-5.7,6.2l-2.4,3.8C9.1,33.1,8.7,33.3,8.4,33.3z"/>
</g>
<g>
	<path d="M1.1,33c-0.2,0-0.4,0-0.5-0.2c-0.5-0.3-0.6-0.9-0.3-1.4L6,22.3c0.3-0.5,0.9-0.6,1.4-0.3c0.5,0.3,0.6,0.9,0.3,1.4L2,32.5
		C1.8,32.8,1.5,33,1.1,33z"/>
</g>
<g>
	<path d="M29,23.8c-0.6,0-1-0.4-1-1v-9.3c0-0.1,0-0.2-0.1-0.3L24.8,4c0-0.1,0-0.1,0-0.2c-0.1-0.3-0.3-0.7-0.5-0.9
		c-0.3-0.2-0.6-0.3-1-0.2c-0.7,0.1-1.2,0.8-1.1,1.5l3.1,9.2c0.2,0.5-0.1,1.1-0.6,1.3c-0.5,0.2-1.1-0.1-1.3-0.6l-3.1-9.3
		c0,0,0-0.1,0-0.2c-0.3-1.8,0.9-3.5,2.7-3.8c0.9-0.2,1.8,0,2.5,0.5c0.7,0.5,1.2,1.3,1.4,2.1l3.1,9c0.1,0.3,0.2,0.7,0.2,1v9.3
		C30,23.4,29.5,23.8,29,23.8z"/>
</g>
<g>
	<path d="M19.5,23.8c-0.6,0-1-0.4-1-1V14c0-1.8,1.5-3.3,3.3-3.3s3.3,1.5,3.3,3.3v4.9c0,0.6-0.4,1-1,1s-1-0.4-1-1V14
		c0-0.7-0.6-1.3-1.3-1.3s-1.3,0.6-1.3,1.3v8.8C20.5,23.4,20.1,23.8,19.5,23.8z"/>
</g>
<g>
	<path d="M27.4,33.2c-0.3,0-0.7-0.2-0.8-0.5L24.2,29c-3.2-0.3-5.6-2.9-5.7-6.2c0-0.6,0.4-1,1-1c0,0,0,0,0,0c0.5,0,1,0.4,1,1
		c0,2.3,1.9,4.2,4.2,4.2c0.3,0,0.7,0.2,0.8,0.5l2.6,4.2c0.3,0.5,0.2,1.1-0.3,1.4C27.8,33.2,27.6,33.2,27.4,33.2z"/>
</g>
<g>
	<path d="M34.9,33.3c-0.3,0-0.7-0.2-0.8-0.5l-5.9-9.4c-0.3-0.5-0.1-1.1,0.3-1.4c0.5-0.3,1.1-0.1,1.4,0.3l5.9,9.4
		c0.3,0.5,0.1,1.1-0.3,1.4C35.2,33.2,35,33.3,34.9,33.3z"/>
</g>
</svg>
