<?xml version="1.0" encoding="utf-8"?>
<!-- Generator: Adobe Illustrator 19.2.1, SVG Export Plug-In . SVG Version: 6.00 Build 0)  -->
<svg version="1.1" id="Layer_1" xmlns="http://www.w3.org/2000/svg" xmlns:xlink="http://www.w3.org/1999/xlink" x="0px" y="0px"
	 viewBox="0 0 36 34" style="enable-background:new 0 0 36 34;" xml:space="preserve">
<title>MAPS Icon -</title>
<g>
	<path d="M11,33.5c-0.6,0-1-0.4-1-1V9c0-0.6,0.4-1,1-1s1,0.4,1,1v23.5C12,33.1,11.6,33.5,11,33.5z"/>
</g>
<g>
	<path d="M15.7,33.5c-0.6,0-1-0.4-1-1V9c0-0.6,0.4-1,1-1s1,0.4,1,1v23.5C16.7,33.1,16.2,33.5,15.7,33.5z"/>
</g>
<g>
	<path d="M24.9,33.5c-0.6,0-1-0.4-1-1V25c0-0.6,0.4-1,1-1s1,0.4,1,1v7.5C25.9,33.1,25.4,33.5,24.9,33.5z"/>
</g>
<g>
	<path d="M29.5,33.5c-0.6,0-1-0.4-1-1V25c0-0.6,0.4-1,1-1s1,0.4,1,1v7.5C30.5,33.1,30.1,33.5,29.5,33.5z"/>
</g>
<g>
	<path d="M27.2,26.5c-3.9,0-7.1-3.2-7.1-7.1c0-2.8,1.6-5.3,4.1-6.4c0.3-0.1,0.7-0.1,1,0.1s0.5,0.5,0.5,0.8v4.8
		c0.1,0.6,0.6,1.2,1.4,1.3c0.8,0.1,1.6-0.5,1.6-1.4l0-4.7c0-0.3,0.2-0.7,0.5-0.8c0.3-0.2,0.6-0.2,1-0.1c2.5,1.2,4.1,3.7,4.2,6.4
		C34.3,23.3,31.1,26.5,27.2,26.5C27.2,26.5,27.2,26.5,27.2,26.5z M23.7,15.8c-1,0.9-1.5,2.3-1.5,3.6c0,2.8,2.3,5.1,5.1,5.1
		c0,0,0,0,0,0c2.8,0,5.1-2.3,5.1-5.1c0-1.4-0.6-2.7-1.6-3.7v3c-0.2,2-1.9,3.5-3.8,3.3c-1.7-0.2-3-1.5-3.2-3.2L23.7,15.8z"/>
</g>
<g>
	<path d="M2.7,16.6c-0.6,0-1-0.4-1-1c0-7.2,5.8-13.1,13-13.1c0,0,0,0,0,0c0.5,0,1,0.4,1,1c0,0.6-0.4,1-1,1c-6.1,0.1-11,5-11,11.1
		C3.7,16.2,3.3,16.6,2.7,16.6C2.7,16.6,2.7,16.6,2.7,16.6z"/>
</g>
<g>
	<path d="M24.8,11.1h-4.6c-0.6,0-1-0.4-1-1c0-0.6-0.4-1-1-1H5.4c-0.6,0-1-0.4-1-1s0.4-1,1-1h12.7c1.3,0,2.4,0.8,2.8,2h2.8V2.5h-2.8
		c-0.4,1.2-1.5,2-2.8,2h-3.6c-0.6,0-1-0.4-1-1s0.4-1,1-1h3.6c0.6,0,1-0.4,1-1c0-0.6,0.4-1,1-1h4.6c0.6,0,1,0.4,1,1v8.6
		C25.8,10.7,25.3,11.1,24.8,11.1z"/>
</g>
</svg>
