<svg id="Layer_1" data-name="Layer 1" xmlns="http://www.w3.org/2000/svg" viewBox="0 0 36 34"><defs><style>.cls-1,.cls-2{fill:none;stroke:#007187;stroke-width:2px;}.cls-1{stroke-miterlimit:10;}.cls-2{stroke-linecap:round;stroke-linejoin:round;}</style></defs><title>MAPS Icon - </title><path class="cls-1" d="M18,1.5A15.5,15.5,0,1,0,33.5,17,15.5,15.5,0,0,0,18,1.5Zm0,24.22A8.72,8.72,0,1,1,26.72,17,8.72,8.72,0,0,1,18,25.72Z"/><circle class="cls-2" cx="18.08" cy="17" r="3.07"/><line class="cls-2" x1="18.06" y1="13.6" x2="18.06" y2="8.51"/><line class="cls-2" x1="18.06" y1="20.4" x2="18.06" y2="25.49"/><line class="cls-2" x1="21.46" y1="17" x2="26.48" y2="17"/><line class="cls-2" x1="14.66" y1="17" x2="10.01" y2="17"/><line class="cls-2" x1="15.33" y1="14.36" x2="12.12" y2="11.15"/><line class="cls-2" x1="20.53" y1="19.56" x2="23.72" y2="22.75"/><line class="cls-2" x1="20.88" y1="14.4" x2="24.13" y2="11.15"/><line class="cls-2" x1="15.72" y1="19.56" x2="12.44" y2="22.85"/></svg>