<?xml version="1.0" encoding="utf-8"?>
<!-- Generator: Adobe Illustrator 19.2.1, SVG Export Plug-In . SVG Version: 6.00 Build 0)  -->
<svg version="1.1" id="Layer_1" xmlns="http://www.w3.org/2000/svg" xmlns:xlink="http://www.w3.org/1999/xlink" x="0px" y="0px"
	 viewBox="0 0 36 34" style="enable-background:new 0 0 36 34;" xml:space="preserve">
<title>MAPS Icon -</title>
<g>
	<path d="M20.5,25.9H6.7c-0.6,0-1-0.4-1-1V9.6c0-0.6,0.4-1,1-1h10.7c0.6,0,1,0.4,1,1s-0.4,1-1,1H7.7v13.4h12.8c0.6,0,1,0.4,1,1
		S21.1,25.9,20.5,25.9z"/>
</g>
<g>
	<path d="M31.3,21.9H19.5c-1.7,0-3-1.3-3-3V5.6c0-0.6,0.4-1,1-1h13.8c0.6,0,1,0.4,1,1v15.4C32.3,21.5,31.8,21.9,31.3,21.9z
		 M18.5,6.6v12.4c0,0.6,0.4,1,1,1h10.8V6.6H18.5z"/>
</g>
<g>
	<path d="M20.5,25.9c-0.6,0-1-0.4-1-1s0.4-1,1-1c0.6,0,1-0.4,1-1c0-0.6,0.4-1,1-1s1,0.4,1,1C23.5,24.6,22.2,25.9,20.5,25.9z"/>
</g>
<g>
	<path d="M22.5,23.9c-0.6,0-1-0.4-1-1c0-0.6-0.4-1-1-1c-0.6,0-1-0.4-1-1s0.4-1,1-1c1.7,0,3,1.3,3,3C23.5,23.5,23.1,23.9,22.5,23.9z"
		/>
</g>
<g>
	<path d="M6.7,33.4c-0.6,0-1-0.4-1-1V5.6c0-0.6,0.4-1,1-1s1,0.4,1,1v26.9C7.7,33,7.3,33.4,6.7,33.4z"/>
</g>
<g>
	<path d="M6.7,6.6c-1.7,0-3-1.3-3-3s1.3-3,3-3s3,1.3,3,3S8.4,6.6,6.7,6.6z M6.7,2.6c-0.6,0-1,0.4-1,1s0.4,1,1,1s1-0.4,1-1
		S7.3,2.6,6.7,2.6z"/>
</g>
<g>
	<path d="M17.5,18.2H6.7c-0.6,0-1-0.4-1-1s0.4-1,1-1h10.7c0.6,0,1,0.4,1,1S18,18.2,17.5,18.2z"/>
</g>
<g>
	<path d="M31.3,14.2H17.5c-0.6,0-1-0.4-1-1s0.4-1,1-1h13.8c0.6,0,1,0.4,1,1S31.8,14.2,31.3,14.2z"/>
</g>
</svg>
