<?xml version="1.0" encoding="utf-8"?>
<!-- Generator: Adobe Illustrator 19.2.1, SVG Export Plug-In . SVG Version: 6.00 Build 0)  -->
<svg version="1.1" id="Layer_1" xmlns="http://www.w3.org/2000/svg" xmlns:xlink="http://www.w3.org/1999/xlink" x="0px" y="0px"
	 viewBox="0 0 36 34" style="enable-background:new 0 0 36 34;" xml:space="preserve">
<title>MAPS Icon - Housing</title>
<g>
	<path d="M34.6,21.7c-0.6,0-1-0.4-1-1c0-5.1-8.1-13-15-18.2c-0.4-0.3-0.8-0.3-1.2,0c-2.5,1.9-15,11.5-15,18.2c0,0.6-0.4,1-1,1
		s-1-0.4-1-1c0-7.5,12.1-17.1,15.8-19.8c1.1-0.8,2.5-0.8,3.6,0c3.7,2.8,15.8,12.4,15.8,19.8C35.6,21.2,35.2,21.7,34.6,21.7z"/>
</g>
<g>
	<path d="M30,33.8H6c-0.6,0-1-0.4-1-1V12.1c0-0.6,0.4-1,1-1s1,0.4,1,1v19.7H29V12.1c0-0.6,0.4-1,1-1s1,0.4,1,1v20.7
		C31,33.3,30.6,33.8,30,33.8z"/>
</g>
<g>
	<path d="M22,33.8c-0.6,0-1-0.4-1-1v-9.6c0-1.7-1.3-3-3-3s-3,1.3-3,3v9.6c0,0.6-0.4,1-1,1s-1-0.4-1-1v-9.6c0-2.8,2.2-5,5-5
		s5,2.2,5,5v9.6C23,33.3,22.6,33.8,22,33.8z"/>
</g>
<g>
	<path d="M18,15.8c-2.3,0-4.2-1.9-4.2-4.2s1.9-4.2,4.2-4.2c2.3,0,4.2,1.9,4.2,4.2S20.3,15.8,18,15.8z M18,9.4c-1.2,0-2.2,1-2.2,2.2
		s1,2.2,2.2,2.2s2.2-1,2.2-2.2S19.2,9.4,18,9.4z"/>
</g>
</svg>
