<?xml version="1.0" encoding="utf-8"?>
<!-- Generator: Adobe Illustrator 19.2.1, SVG Export Plug-In . SVG Version: 6.00 Build 0)  -->
<svg version="1.1" id="Layer_1" xmlns="http://www.w3.org/2000/svg" xmlns:xlink="http://www.w3.org/1999/xlink" x="0px" y="0px"
	 viewBox="0 0 36 34" style="enable-background:new 0 0 36 34;" xml:space="preserve">
<title>MAPS Icon -</title>
<g>
	<path d="M20.7,28.1c-0.6,0-1-0.4-1-1V7.5c0-0.6,0.4-1,1-1s1,0.4,1,1v19.6C21.7,27.6,21.3,28.1,20.7,28.1z"/>
</g>
<g>
	<path d="M26.5,28.1c-0.6,0-1-0.4-1-1V7.5c0-0.6,0.4-1,1-1s1,0.4,1,1v19.6C27.5,27.6,27,28.1,26.5,28.1z"/>
</g>
<g>
	<path d="M15,28.1c-0.6,0-1-0.4-1-1V7.5c0-0.6,0.4-1,1-1s1,0.4,1,1v19.6C16,27.6,15.5,28.1,15,28.1z"/>
</g>
<g>
	<path d="M9.2,28.1c-0.6,0-1-0.4-1-1V7.5c0-0.6,0.4-1,1-1s1,0.4,1,1v19.6C10.2,27.6,9.8,28.1,9.2,28.1z"/>
</g>
<g>
	<path d="M32,3.4H4c-0.6,0-1-0.4-1-1s0.4-1,1-1h28c0.6,0,1,0.4,1,1S32.6,3.4,32,3.4z"/>
</g>
<g>
	<path d="M32,9.4c-0.6,0-1-0.4-1-1s0.4-1,1-1c1.1,0,2-0.9,2-2c0-0.5-0.2-1-0.6-1.4C33,3.6,32.5,3.4,32,3.4c-0.6,0-1-0.4-1-1
		c0-0.6,0.4-1,1-1l0,0c1.1,0,2.1,0.4,2.8,1.2C35.6,3.3,36,4.3,36,5.4C36,7.6,34.2,9.4,32,9.4L32,9.4z"/>
</g>
<g>
	<path d="M32,9.4L32,9.4c-1.1,0-2.1-0.4-2.8-1.2c-0.4-0.4-0.4-1,0-1.4c0.4-0.4,1-0.4,1.4,0C31,7.2,31.5,7.4,32,7.4c0.6,0,1,0.4,1,1
		C33,9,32.6,9.4,32,9.4z"/>
</g>
<g>
	<path d="M4,9.4c-0.6,0-1-0.4-1-1c0-0.6,0.4-1,1-1c0.5,0,1-0.2,1.4-0.6c0.4-0.4,1-0.4,1.4,0c0.4,0.4,0.4,1,0,1.4
		C6.1,9,5.1,9.4,4,9.4C4,9.4,4,9.4,4,9.4z"/>
</g>
<g>
	<path d="M6.1,8.5c-0.3,0-0.5-0.1-0.7-0.3C5,7.9,5,7.2,5.4,6.8C5.8,6.4,6,5.9,6,5.4c0-0.6,0.4-1,1-1c0,0,0,0,0,0c0.6,0,1,0.4,1,1
		c0,1.1-0.4,2.1-1.2,2.8C6.6,8.4,6.4,8.5,6.1,8.5z"/>
</g>
<g>
	<path d="M29.9,8.5c-0.3,0-0.5-0.1-0.7-0.3C28.4,7.5,28,6.5,28,5.4c0-0.6,0.4-1,1-1h0c0.6,0,1,0.4,1,1c0,0.5,0.2,1,0.6,1.4
		c0.4,0.4,0.4,1,0,1.4C30.4,8.4,30.1,8.5,29.9,8.5z"/>
</g>
<g>
	<path d="M4,9.4c-2.2,0-4-1.8-4-4s1.8-4,4-4c0.6,0,1,0.4,1,1s-0.4,1-1,1c-1.1,0-2,0.9-2,2s0.9,2,2,2c0.6,0,1,0.4,1,1S4.6,9.4,4,9.4z
		"/>
</g>
<g>
	<path d="M26.5,28.1H9.2c-0.6,0-1-0.4-1-1s0.4-1,1-1h17.2c0.6,0,1,0.4,1,1S27,28.1,26.5,28.1z"/>
</g>
<g>
	<path d="M31,32.6c-0.6,0-1-0.4-1-1c0-1.9-1.6-3.5-3.5-3.5c-0.6,0-1-0.4-1-1s0.4-1,1-1c3,0,5.5,2.5,5.5,5.5
		C32,32.1,31.5,32.6,31,32.6z"/>
</g>
<g>
	<path d="M4.8,32.6c-0.6,0-1-0.4-1-1c0-3,2.5-5.5,5.5-5.5c0.6,0,1,0.4,1,1s-0.4,1-1,1c-1.9,0-3.5,1.6-3.5,3.5
		C5.8,32.1,5.3,32.6,4.8,32.6z"/>
</g>
<g>
	<path d="M29.7,8.3H6.3c-0.6,0-1-0.4-1-1s0.4-1,1-1h23.4c0.6,0,1,0.4,1,1S30.3,8.3,29.7,8.3z"/>
</g>
<g>
	<path d="M26.5,28.1H9.2c-0.6,0-1-0.4-1-1s0.4-1,1-1h17.2c0.6,0,1,0.4,1,1S27,28.1,26.5,28.1z"/>
</g>
<g>
	<path d="M31,32.6H4.8c-0.6,0-1-0.4-1-1s0.4-1,1-1H31c0.6,0,1,0.4,1,1S31.5,32.6,31,32.6z"/>
</g>
</svg>
