<svg xmlns="http://www.w3.org/2000/svg" viewBox="0 0 22 32"><path d="M4.6 32c-.6 0-1-.4-1-1V1c0-.6.4-1 1-1s1 .4 1 1v30c0 .6-.4 1-1 1z"/><path d="M4.6 13.5C1.4 13.5 0 7 0 1c0-.6.4-1 1-1s1 .4 1 1c0 7 1.8 10.5 2.6 10.5S7.3 8 7.3 1c0-.6.4-1 1-1s1 .4 1 1c0 6-1.5 12.5-4.7 12.5zM17.4 32c-.6 0-1-.4-1-1V13.3c0-.6.4-1 1-1s1 .4 1 1V31c0 .6-.5 1-1 1z"/><path d="M17.5 13.6c-2.7 0-4.8-3-4.8-6.8S14.8 0 17.5 0c.6 0 1 .4 1 1s-.4 1-1 1c-1.5 0-2.8 2.2-2.8 4.8 0 2.6 1.3 4.8 2.8 4.8.6 0 1 .4 1 1s-.4 1-1 1z"/><path d="M17.2 13.6c-.6 0-1-.4-1-1s.4-1 1-1c1.5 0 2.8-2.2 2.8-4.8C20 4.2 18.7 2 17.2 2c-.6 0-1-.4-1-1s.4-1 1-1C19.9 0 22 3 22 6.8s-2.1 6.8-4.8 6.8z"/></svg>