<?xml version="1.0" encoding="utf-8"?>
<!-- Generator: Adobe Illustrator 19.2.1, SVG Export Plug-In . SVG Version: 6.00 Build 0)  -->
<svg version="1.1" id="Layer_1" xmlns="http://www.w3.org/2000/svg" xmlns:xlink="http://www.w3.org/1999/xlink" x="0px" y="0px"
	 viewBox="0 0 36 34" style="enable-background:new 0 0 36 34;" xml:space="preserve">
<title>MAPS Icon -</title>
<g>
	<path d="M27.9,33.5c-0.6,0-1-0.4-1-1V15.6c0-0.6,0.4-1,1-1s1,0.4,1,1v16.9C28.9,33.1,28.5,33.5,27.9,33.5z"/>
</g>
<g>
	<path d="M28,16.6c-2.3,0-4.1-2.7-4.1-6s1.8-6,4.1-6c2.3,0,4.1,2.7,4.1,6S30.3,16.6,28,16.6z M28,6.5c-1,0-2.1,1.7-2.1,4
		s1.1,4,2.1,4c1,0,2.1-1.7,2.1-4S29,6.5,28,6.5z"/>
</g>
<g>
	<path d="M8,33.5c-0.6,0-1-0.4-1-1V15.7c0-0.6,0.4-1,1-1s1,0.4,1,1v16.8C9,33.1,8.6,33.5,8,33.5z"/>
</g>
<g>
	<path d="M8,16.7c-2.3,0-4.1-2.6-4.1-6v-5c0-0.6,0.4-1,1-1s1,0.4,1,1v5c0,2.3,1.1,4,2.1,4c1,0,2.1-1.6,2.1-4v-5c0-0.6,0.4-1,1-1
		s1,0.4,1,1v5C12.2,14,10.3,16.7,8,16.7z"/>
</g>
<g>
	<path d="M8,11.5c-0.6,0-1-0.4-1-1v-5c0-0.6,0.4-1,1-1s1,0.4,1,1v5C9,11.1,8.6,11.5,8,11.5z"/>
</g>
<g>
	<path d="M8,17c-2.4,0-4.1-2.5-4.1-6c0-0.6,0.4-1,1-1h6.3c0.6,0,1,0.4,1,1C12.1,14.5,10.4,17,8,17z M5.9,12c0.2,1.9,1.2,3,2.1,3
		c0.9,0,1.8-1.1,2.1-3H5.9z"/>
</g>
<g>
	<path d="M20,23h-4c-0.3,0-0.5-0.1-0.7-0.3C15,22.5,14.9,22.2,15,22l0.3-15c0-3.5,2.2-6.5,4.8-6.5c0.6,0,1,0.4,1,1V22
		C21,22.6,20.6,23,20,23z M17,21h2V2.8c-1,0.7-1.8,2.2-1.8,4.2c0,0,0,0,0,0L17,21z M16.2,7L16.2,7L16.2,7z"/>
</g>
<g>
	<path d="M20,33.5c-0.6,0-1-0.4-1-1V13.2c0-0.6,0.4-1,1-1s1,0.4,1,1v19.3C21,33.1,20.6,33.5,20,33.5z"/>
</g>
</svg>
