<?xml version="1.0" encoding="utf-8"?>
<!-- Generator: Adobe Illustrator 19.2.1, SVG Export Plug-In . SVG Version: 6.00 Build 0)  -->
<svg version="1.1" id="Layer_1" xmlns="http://www.w3.org/2000/svg" xmlns:xlink="http://www.w3.org/1999/xlink" x="0px" y="0px"
	 viewBox="0 0 36 34" style="enable-background:new 0 0 36 34;" xml:space="preserve">
<title>MAPS Icon -</title>
<g>
	<path d="M27,20.3H9c-0.6,0-1-0.4-1-1c0-5.5,4.5-10,10-10c5.5,0,10,4.5,10,10C28,19.9,27.6,20.3,27,20.3z M10.1,18.3h15.9
		c-0.5-3.9-3.9-7-7.9-7S10.6,14.4,10.1,18.3z"/>
</g>
<g>
	<path d="M18,11.3c-0.6,0-1-0.4-1-1V3.6c0-0.6,0.4-1,1-1s1,0.4,1,1v6.7C19,10.9,18.5,11.3,18,11.3z"/>
</g>
<g>
	<path d="M9,33.3c-0.6,0-1-0.4-1-1v-9c0-0.6,0.4-1,1-1s1,0.4,1,1v9C10,32.9,9.5,33.3,9,33.3z"/>
</g>
<g>
	<path d="M27,33.3c-0.6,0-1-0.4-1-1v-8.8c0-0.6,0.4-1,1-1s1,0.4,1,1v8.8C28,32.9,27.5,33.3,27,33.3z"/>
</g>
<g>
	<path d="M21,33.3c-0.6,0-1-0.4-1-1v-9c0-0.6,0.4-1,1-1s1,0.4,1,1v9C22,32.9,21.5,33.3,21,33.3z"/>
</g>
<g>
	<path d="M15,33.3c-0.6,0-1-0.4-1-1v-9c0-0.6,0.4-1,1-1s1,0.4,1,1v9C16,32.9,15.5,33.3,15,33.3z"/>
</g>
<g>
	<path d="M27,23.9H9.1c-0.6,0-1-0.4-1-1s0.4-1,1-1H27c0.6,0,1,0.4,1,1S27.5,23.9,27,23.9z"/>
</g>
<g>
	<path d="M24,7h-6c-0.6,0-1-0.4-1-1V1.3c0-0.6,0.4-1,1-1h6c0.6,0,1,0.4,1,1V6C25,6.5,24.5,7,24,7z M19,5h4V2.3h-4V5z"/>
</g>
<g>
	<path d="M30.8,33.7H5.2c-0.6,0-1-0.4-1-1s0.4-1,1-1h25.5c0.6,0,1,0.4,1,1S31.3,33.7,30.8,33.7z"/>
</g>
<g>
	<path d="M27,20.3H9c-0.6,0-1-0.4-1-1s0.4-1,1-1h18c0.6,0,1,0.4,1,1S27.5,20.3,27,20.3z"/>
</g>
<g>
	<path d="M27,23.9c-0.6,0-1-0.4-1-1s0.4-1,1-1c0.4,0,0.8-0.3,0.8-0.8c0-0.4-0.3-0.8-0.8-0.8c-0.6,0-1-0.4-1-1s0.4-1,1-1
		c1.5,0,2.8,1.2,2.8,2.8S28.5,23.9,27,23.9z"/>
</g>
<g>
	<path d="M8.6,23.9c-1.5,0-2.8-1.2-2.8-2.8s1.2-2.8,2.8-2.8c0.6,0,1,0.4,1,1s-0.4,1-1,1c-0.4,0-0.8,0.3-0.8,0.8
		c0,0.4,0.3,0.8,0.8,0.8c0.6,0,1,0.4,1,1S9.2,23.9,8.6,23.9z"/>
</g>
</svg>
