<?xml version="1.0" encoding="utf-8"?>
<!-- Generator: Adobe Illustrator 19.2.1, SVG Export Plug-In . SVG Version: 6.00 Build 0)  -->
<svg version="1.1" id="Layer_1" xmlns="http://www.w3.org/2000/svg" xmlns:xlink="http://www.w3.org/1999/xlink" x="0px" y="0px"
	 viewBox="0 0 36 34" style="enable-background:new 0 0 36 34;" xml:space="preserve">
<title>MAPS Icon -</title>
<g>
	<path d="M18,31.8c-0.6,0-1.3-0.2-1.8-0.6C12.5,28.4,0.4,18.8,0.4,11.4c0-2,0.7-4,1.8-5.6c1.5-2,3.7-3.3,6.1-3.6
		c2.5-0.4,4.9,0.3,6.9,1.8c0.8,0.6,1.4,1.2,2,2c0.1,0.1,0.1,0.2,0.2,0.2c0.4,0.3,1,0.2,1.3-0.2c0.6-0.8,1.2-1.5,2-2
		c1.6-1.2,3.6-1.8,5.6-1.8c0,0,0,0,0,0c2.5,0,4.8,1,6.6,2.7s2.7,4.1,2.7,6.6c0,7.5-12.1,17.1-15.8,19.8C19.3,31.6,18.6,31.8,18,31.8
		z M9.7,4.1c-0.4,0-0.7,0-1.1,0.1C6.7,4.5,5,5.5,3.8,7.1c-0.9,1.3-1.5,2.8-1.4,4.4c0,5.1,8.1,13,15,18.2c0.4,0.3,0.8,0.3,1.2,0
		c6.9-5.1,15-13,15-18.2v0c0-1.9-0.8-3.8-2.1-5.2c-1.4-1.4-3.2-2.1-5.2-2.1c0,0,0,0,0,0c-1.6,0-3.1,0.5-4.4,1.4
		c-0.6,0.4-1.1,1-1.6,1.6c-0.9,1.3-2.7,1.6-4.1,0.7c-0.3-0.2-0.5-0.4-0.7-0.7c-0.4-0.6-1-1.1-1.5-1.6C12.8,4.6,11.3,4.1,9.7,4.1z"/>
</g>
<g>
	<path d="M11.4,18.2H3.5c-0.6,0-1-0.4-1-1s0.4-1,1-1h7.9c0.6,0,1,0.4,1,1S11.9,18.2,11.4,18.2z"/>
</g>
<g>
	<path d="M32.5,18h-7.7c-0.6,0-1-0.4-1-1s0.4-1,1-1h7.7c0.6,0,1,0.4,1,1S33.1,18,32.5,18z"/>
</g>
<g>
	<path d="M16.4,23c-0.4,0-0.8-0.3-0.9-0.7l-3.3-9.6c-0.2-0.5,0.1-1.1,0.6-1.3c0.5-0.2,1.1,0.1,1.3,0.6l3.3,9.6
		c0.2,0.5-0.1,1.1-0.6,1.3C16.6,23,16.5,23,16.4,23z"/>
</g>
<g>
	<path d="M23.1,23c-0.4,0-0.8-0.3-0.9-0.7l-3.3-9.6c-0.2-0.5,0.1-1.1,0.6-1.3c0.5-0.2,1.1,0.1,1.3,0.6l3.3,9.6
		c0.2,0.5-0.1,1.1-0.6,1.3C23.3,23,23.2,23,23.1,23z"/>
</g>
<g>
	<path d="M16.4,23c-0.4,0-0.8-0.3-0.9-0.7l-1.7-4.9c-0.2-0.5,0.1-1.1,0.6-1.3c0.5-0.2,1.1,0.1,1.3,0.6l1.7,4.9
		c0.2,0.5-0.1,1.1-0.6,1.3C16.6,23,16.5,23,16.4,23z"/>
</g>
<g>
	<path d="M16.4,23c-0.1,0-0.2,0-0.3-0.1c-0.5-0.2-0.8-0.7-0.6-1.3l3.3-9.6c0.2-0.5,0.7-0.8,1.3-0.6c0.5,0.2,0.8,0.7,0.6,1.3
		l-3.3,9.6C17.2,22.7,16.8,23,16.4,23z"/>
</g>
<g>
	<path d="M16.4,23c-0.1,0-0.2,0-0.3-0.1c-0.5-0.2-0.8-0.7-0.6-1.3l1.7-4.9c0.2-0.5,0.7-0.8,1.3-0.6c0.5,0.2,0.8,0.7,0.6,1.3
		l-1.7,4.9C17.2,22.7,16.8,23,16.4,23z"/>
</g>
<g>
	<path d="M11.4,18.2c-0.1,0-0.2,0-0.3-0.1c-0.5-0.2-0.8-0.7-0.6-1.3l1.7-4.9c0.2-0.5,0.7-0.8,1.3-0.6c0.5,0.2,0.8,0.7,0.6,1.3
		l-1.7,4.9C12.2,18,11.8,18.2,11.4,18.2z"/>
</g>
<g>
	<path d="M23.1,23c-0.1,0-0.2,0-0.3-0.1c-0.5-0.2-0.8-0.7-0.6-1.3l1.7-4.9c0.2-0.5,0.7-0.8,1.3-0.6c0.5,0.2,0.8,0.7,0.6,1.3
		l-1.7,4.9C23.9,22.7,23.5,23,23.1,23z"/>
</g>
</svg>
