<svg xmlns="http://www.w3.org/2000/svg" viewBox="0 0 28 15"><path d="M23.1 15c-1.9 0-3.4-1.2-3.4-2.6v-1.7H8.3v1.7c0 1.5-1.5 2.6-3.4 2.6s-3.4-1.2-3.4-2.6V9.9C.6 9.5 0 8.6 0 7.5 0 6.3.6 5.4 1.5 5V2.6C1.5 1.2 2.9 0 4.9 0c1.9 0 3.4 1.2 3.4 2.6v1.7h11.5V2.6c0-1.5 1.5-2.6 3.4-2.6s3.4 1.2 3.4 2.6V5c.8.4 1.4 1.3 1.4 2.5s-.6 2.1-1.5 2.4v2.5c0 1.4-1.4 2.6-3.4 2.6zm0-13c-.9 0-1.4.4-1.4.6v9.8c0 .2.5.6 1.4.6s1.4-.4 1.4-.6V2.6c0-.2-.4-.6-1.4-.6zM3.5 10.1v2.3c0 .2.5.6 1.4.6.9 0 1.4-.4 1.4-.6V2.6c0-.2-.5-.6-1.4-.6-1 0-1.4.4-1.4.6v7.5zm4.8-1.4h11.5V6.3H8.3v2.4z"/></svg>