<?xml version="1.0" encoding="utf-8"?>
<!-- Generator: Adobe Illustrator 19.2.1, SVG Export Plug-In . SVG Version: 6.00 Build 0)  -->
<svg version="1.1" id="Layer_1" xmlns="http://www.w3.org/2000/svg" xmlns:xlink="http://www.w3.org/1999/xlink" x="0px" y="0px"
	 viewBox="0 0 36 34" style="enable-background:new 0 0 36 34;" xml:space="preserve">
<title>MAPS Icon -</title>
<g>
	<path d="M18,31.3H1.1c-0.6,0-1-0.4-1-1V3.7c0-0.6,0.4-1,1-1H16c1.7,0,3,1.3,3,3v24.7C19,30.9,18.6,31.3,18,31.3z M2.1,29.3H17V5.7
		c0-0.6-0.4-1-1-1H2.1V29.3z"/>
</g>
<g>
	<path d="M14.2,26H5c-0.6,0-1-0.4-1-1s0.4-1,1-1h9.2c0.6,0,1,0.4,1,1S14.7,26,14.2,26z"/>
</g>
<g>
	<path d="M14.2,20.8H5c-0.6,0-1-0.4-1-1s0.4-1,1-1h9.2c0.6,0,1,0.4,1,1S14.7,20.8,14.2,20.8z"/>
</g>
<g>
	<path d="M34.9,31.3H18c-0.6,0-1-0.4-1-1V5.7c0-1.7,1.3-3,3-3h14.9c0.6,0,1,0.4,1,1v26.7C35.9,30.9,35.4,31.3,34.9,31.3z M19,29.3
		h14.9V4.7H20c-0.6,0-1,0.4-1,1V29.3z"/>
</g>
<g>
	<path d="M31,10.4h-7.3c-0.6,0-1-0.4-1-1s0.4-1,1-1H31c0.6,0,1,0.4,1,1S31.6,10.4,31,10.4z"/>
</g>
<g>
	<path d="M31,15.6h-7.3c-0.6,0-1-0.4-1-1s0.4-1,1-1H31c0.6,0,1,0.4,1,1S31.6,15.6,31,15.6z"/>
</g>
<g>
	<path d="M31,26h-7.3c-0.6,0-1-0.4-1-1s0.4-1,1-1H31c0.6,0,1,0.4,1,1S31.6,26,31,26z"/>
</g>
<g>
	<path d="M31,20.8h-7.3c-0.6,0-1-0.4-1-1s0.4-1,1-1H31c0.6,0,1,0.4,1,1S31.6,20.8,31,20.8z"/>
</g>
<g>
	<path d="M18,26c-0.3,0-0.5-0.1-0.7-0.3c-0.4-0.4-0.4-1,0-1.4l2.9-2.9c0.4-0.4,1-0.4,1.4,0s0.4,1,0,1.4l-2.9,2.9
		C18.6,25.9,18.3,26,18,26z"/>
</g>
<g>
	<path d="M23.8,26c-0.3,0-0.5-0.1-0.7-0.3l-2.8-2.9c-0.4-0.4-0.4-1,0-1.4c0.4-0.4,1-0.4,1.4,0l2.8,2.9c0.4,0.4,0.4,1,0,1.4
		C24.3,25.9,24,26,23.8,26z"/>
</g>
<g>
	<path d="M23.8,26c-0.6,0-1-0.4-1-1V4.2c0-0.6,0.4-1,1-1s1,0.4,1,1V25C24.8,25.5,24.3,26,23.8,26z"/>
</g>
<g>
	<path d="M9.6,15.4c-2.3,0-4.2-1.9-4.2-4.2s1.9-4.2,4.2-4.2c2.3,0,4.2,1.9,4.2,4.2S11.9,15.4,9.6,15.4z M9.6,9.1
		c-1.2,0-2.2,1-2.2,2.2s1,2.2,2.2,2.2c1.2,0,2.2-1,2.2-2.2S10.8,9.1,9.6,9.1z"/>
</g>
</svg>
