<svg id="statement-pattern" xmlns="http://www.w3.org/2000/svg" viewBox="0 0 601 587.1"><style>.sp0{fill:#79d1ec}</style><pattern id="statementPattern" width="601.047" height="587.088" patternUnits="userSpaceOnUse"><path class="sp0" d="M376.4 33.8c-9 0-17.9-3.4-24.8-10.2-.4-.4-.4-1 0-1.4s1-.4 1.4 0c12.9 12.9 33.8 12.9 46.7 0 .4-.4 1-.4 1.4 0s.4 1 0 1.4c-6.7 6.8-15.7 10.2-24.7 10.2z"/><path class="sp0" d="M328.2 33.8c-9 0-17.9-3.4-24.8-10.2-.4-.4-.4-1 0-1.4s1-.4 1.4 0c12.9 12.9 33.8 12.9 46.7 0 .4-.4 1-.4 1.4 0s.4 1 0 1.4c-6.8 6.8-15.7 10.2-24.7 10.2z"/><path class="sp0" d="M400.5 80.8c-.3 0-.5-.1-.7-.3-26.2-26.2-68.8-26.2-94.9 0-.4.4-1 .4-1.4 0s-.4-1 0-1.4c27-27 70.8-27 97.8 0 .4.4.4 1 0 1.4-.3.2-.6.3-.8.3z"/><path class="sp0" d="M352 24.7c-.6 0-1-.4-1-1v-14c0-.6.4-1 1-1s1 .4 1 1v14c0 .5-.4 1-1 1z"/><path class="sp0" d="M357 56.7c-.6 0-1-.4-1-1v-29c0-.6.4-1 1-1s1 .4 1 1v29c0 .5-.4 1-1 1z"/><path class="sp0" d="M361 56.7c-.6 0-1-.4-1-1v-27c0-.6.4-1 1-1s1 .4 1 1v27c0 .5-.4 1-1 1z"/><path class="sp0" d="M365 56.7c-.6 0-1-.4-1-1v-25c0-.6.4-1 1-1s1 .4 1 1v25c0 .5-.4 1-1 1z"/><path class="sp0" d="M370 56.7c-.6 0-1-.4-1-1v-23c0-.6.4-1 1-1s1 .4 1 1v23c0 .5-.4 1-1 1z"/><path class="sp0" d="M374 56.7c-.6 0-1-.4-1-1v-23c0-.6.4-1 1-1s1 .4 1 1v23c0 .5-.4 1-1 1z"/><path class="sp0" d="M379 56.7c-.6 0-1-.4-1-1v-23c0-.6.4-1 1-1s1 .4 1 1v23c0 .5-.4 1-1 1z"/><path class="sp0" d="M383 56.7c-.6 0-1-.4-1-1v-23c0-.6.4-1 1-1s1 .4 1 1v23c0 .5-.4 1-1 1z"/><path class="sp0" d="M387 56.7c-.6 0-1-.4-1-1v-24c0-.6.4-1 1-1s1 .4 1 1v24c0 .5-.4 1-1 1z"/><path class="sp0" d="M392 56.7c-.6 0-1-.4-1-1v-27c0-.6.4-1 1-1s1 .4 1 1v27c0 .5-.4 1-1 1z"/><path class="sp0" d="M396 56.7c-.6 0-1-.4-1-1v-29c0-.6.4-1 1-1s1 .4 1 1v29c0 .5-.4 1-1 1z"/><path class="sp0" d="M400 56.7c-.6 0-1-.4-1-1v-42c0-.6.4-1 1-1s1 .4 1 1v42c0 .5-.4 1-1 1z"/><path class="sp0" d="M348 56.7c-.6 0-1-.4-1-1v-29c0-.6.4-1 1-1s1 .4 1 1v29c0 .5-.4 1-1 1z"/><path class="sp0" d="M344 56.7c-.6 0-1-.4-1-1v-27c0-.6.4-1 1-1s1 .4 1 1v27c0 .5-.4 1-1 1z"/><path class="sp0" d="M339 56.7c-.6 0-1-.4-1-1v-25c0-.6.4-1 1-1s1 .4 1 1v25c0 .5-.4 1-1 1z"/><path class="sp0" d="M335 56.7c-.6 0-1-.4-1-1v-23c0-.6.4-1 1-1s1 .4 1 1v23c0 .5-.4 1-1 1z"/><path class="sp0" d="M330 56.7c-.6 0-1-.4-1-1v-23c0-.6.4-1 1-1s1 .4 1 1v23c0 .5-.4 1-1 1z"/><path class="sp0" d="M326 56.7c-.6 0-1-.4-1-1v-23c0-.6.4-1 1-1s1 .4 1 1v23c0 .5-.4 1-1 1z"/><path class="sp0" d="M322 56.7c-.6 0-1-.4-1-1v-23c0-.6.4-1 1-1s1 .4 1 1v23c0 .5-.4 1-1 1z"/><path class="sp0" d="M317 56.7c-.6 0-1-.4-1-1v-24c0-.6.4-1 1-1s1 .4 1 1v24c0 .5-.4 1-1 1z"/><path class="sp0" d="M313 56.7c-.6 0-1-.4-1-1v-27c0-.6.4-1 1-1s1 .4 1 1v27c0 .5-.4 1-1 1z"/><path class="sp0" d="M309 56.7c-.6 0-1-.4-1-1v-29c0-.6.4-1 1-1s1 .4 1 1v29c0 .5-.4 1-1 1z"/><path class="sp0" d="M304 56.7c-.6 0-1-.4-1-1v-42c0-.6.4-1 1-1s1 .4 1 1v42c0 .5-.4 1-1 1z"/><path class="sp0" d="M352.3 10.6c-2.9 0-5.3-2.4-5.3-5.3s2.4-5.3 5.3-5.3 5.3 2.4 5.3 5.3-2.3 5.3-5.3 5.3zm0-8.6c-1.8 0-3.3 1.5-3.3 3.3s1.5 3.3 3.3 3.3 3.3-1.5 3.3-3.3-1.4-3.3-3.3-3.3z"/><path class="sp0" d="M304.1 14.9c-1.7 0-3.2-1.4-3.2-3.2s1.4-3.2 3.2-3.2 3.2 1.4 3.2 3.2-1.4 3.2-3.2 3.2zm0-4.3c-.6 0-1.2.5-1.2 1.2 0 .6.5 1.2 1.2 1.2s1.2-.5 1.2-1.2-.5-1.2-1.2-1.2z"/><path class="sp0" d="M400.5 14.9c-1.7 0-3.2-1.4-3.2-3.2s1.4-3.2 3.2-3.2 3.2 1.4 3.2 3.2-1.5 3.2-3.2 3.2zm0-4.3c-.6 0-1.2.5-1.2 1.2 0 .6.5 1.2 1.2 1.2.6 0 1.2-.5 1.2-1.2-.1-.7-.6-1.2-1.2-1.2z"/><path class="sp0" d="M400 60.7h-96c-.6 0-1-.4-1-1v-4c0-.6.4-1 1-1h96c.6 0 1 .4 1 1v4c0 .5-.4 1-1 1zm-95-2h94v-2h-94v2z"/><path class="sp0" d="M304 83.7c-.6 0-1-.4-1-1v-23c0-.6.4-1 1-1s1 .4 1 1v23c0 .5-.4 1-1 1z"/><path class="sp0" d="M400 83.7c-.6 0-1-.4-1-1v-23c0-.6.4-1 1-1s1 .4 1 1v23c0 .5-.4 1-1 1z"/><path class="sp0" d="M226 206.2c-.3 0-.5-.1-.7-.3l-5.2-5.2c-.4-.4-.4-1 0-1.4s1-.4 1.4 0l5.2 5.2c.4.4.4 1 0 1.4-.2.2-.5.3-.7.3z"/><path class="sp0" d="M195.2 175.4c-.3 0-.5-.1-.7-.3l-5.2-5.2c-.4-.4-.4-1 0-1.4s1-.4 1.4 0l5.2 5.2c.4.4.4 1 0 1.4-.2.2-.4.3-.7.3z"/><path class="sp0" d="M220.8 175.4c-.3 0-.5-.1-.7-.3-.4-.4-.4-1 0-1.4l5.2-5.2c.4-.4 1-.4 1.4 0s.4 1 0 1.4l-5.2 5.2c-.2.2-.5.3-.7.3z"/><path class="sp0" d="M190 206.2c-.3 0-.5-.1-.7-.3-.4-.4-.4-1 0-1.4l5.2-5.2c.4-.4 1-.4 1.4 0s.4 1 0 1.4l-5.2 5.2c-.2.2-.4.3-.7.3z"/><path class="sp0" d="M233 188.7h-7c-.6 0-1-.4-1-1s.4-1 1-1h7c.6 0 1 .4 1 1s-.4 1-1 1z"/><path class="sp0" d="M190 188.7h-7c-.6 0-1-.4-1-1s.4-1 1-1h7c.6 0 1 .4 1 1s-.4 1-1 1z"/><path class="sp0" d="M208 169.7c-.6 0-1-.4-1-1v-7c0-.6.4-1 1-1s1 .4 1 1v7c0 .5-.4 1-1 1z"/><path class="sp0" d="M208 213.7c-.6 0-1-.4-1-1v-7c0-.6.4-1 1-1s1 .4 1 1v7c0 .5-.4 1-1 1z"/><path class="sp0" d="M224.7 181.2c-.4 0-.8-.2-.9-.6-.2-.5 0-1.1.5-1.3l6.8-2.8c.5-.2 1.1 0 1.3.5.2.5 0 1.1-.5 1.3l-6.8 2.8c-.2.1-.3.1-.4.1z"/><path class="sp0" d="M184.5 198c-.4 0-.8-.2-.9-.6-.2-.5 0-1.1.5-1.3l6.8-2.8c.5-.2 1.1 0 1.3.5.2.5 0 1.1-.5 1.3l-6.8 2.8c-.1.1-.2.1-.4.1z"/><g><path class="sp0" d="M201 171.5c-.4 0-.8-.2-.9-.6l-2.8-6.8c-.2-.5 0-1.1.5-1.3.5-.2 1.1 0 1.3.5l2.8 6.8c.2.5 0 1.1-.5 1.3-.1.1-.2.1-.4.1z"/><path class="sp0" d="M217.8 211.7c-.4 0-.8-.2-.9-.6l-2.8-6.8c-.2-.5 0-1.1.5-1.3.5-.2 1.1 0 1.3.5l2.8 6.8c.2.5 0 1.1-.5 1.3-.1 0-.3.1-.4.1z"/></g><g><path class="sp0" d="M214.9 171.5c-.1 0-.3 0-.4-.1-.5-.2-.8-.8-.5-1.3l2.8-6.8c.2-.5.8-.8 1.3-.5.5.2.8.8.5 1.3l-2.8 6.8c-.2.4-.5.6-.9.6z"/><path class="sp0" d="M198.3 211.7c-.1 0-.3 0-.4-.1-.5-.2-.8-.8-.5-1.3l2.8-6.8c.2-.5.8-.8 1.3-.5.5.2.8.8.5 1.3l-2.8 6.8c-.1.4-.5.6-.9.6z"/></g><g><path class="sp0" d="M191.3 181.3c-.1 0-.3 0-.4-.1l-6.8-2.8c-.5-.2-.8-.8-.5-1.3s.8-.8 1.3-.5l6.8 2.8c.5.2.8.8.5 1.3-.1.4-.5.6-.9.6z"/><path class="sp0" d="M231.5 197.9c-.1 0-.3 0-.4-.1l-6.8-2.8c-.5-.2-.8-.8-.5-1.3.2-.5.8-.8 1.3-.5l6.8 2.8c.5.2.8.8.5 1.3-.1.3-.5.6-.9.6z"/></g><g><path class="sp0" d="M208 206.3c-10.5 0-19.1-8.6-19.1-19.1s8.6-19.1 19.1-19.1 19.1 8.6 19.1 19.1-8.6 19.1-19.1 19.1zm0-36.2c-9.4 0-17.1 7.7-17.1 17.1s7.7 17.1 17.1 17.1 17.1-7.7 17.1-17.1-7.7-17.1-17.1-17.1z"/></g><g><path class="sp0" d="M442.3 123c-7.6 0-13.7-6.2-13.7-13.7s6.2-13.7 13.7-13.7 13.7 6.2 13.7 13.7-6.1 13.7-13.7 13.7zm0-25.4c-6.5 0-11.7 5.3-11.7 11.7s5.3 11.7 11.7 11.7 11.7-5.3 11.7-11.7-5.2-11.7-11.7-11.7z"/><path class="sp0" d="M442 134.7c-.6 0-1-.4-1-1v-18c0-.6.4-1 1-1s1 .4 1 1v18c0 .5-.4 1-1 1z"/><path class="sp0" d="M442.2 116.9c-.3 0-.7-.2-.9-.5l-5.3-8.6c-.3-.5-.1-1.1.3-1.4.5-.3 1.1-.1 1.4.3l5.3 8.6c.3.5.1 1.1-.3 1.4-.2.1-.4.2-.5.2z"/><path class="sp0" d="M448.3 114.4c-.3 0-.7-.2-.9-.5l-2.4-3.8c-.3-.5-.1-1.1.3-1.4.5-.3 1.1-.1 1.4.3l2.4 3.8c.3.5.1 1.1-.3 1.4-.2.1-.3.2-.5.2z"/><path class="sp0" d="M442.2 116.9c-.2 0-.3 0-.5-.1-.5-.3-.6-.9-.4-1.4l5.4-9.4c.3-.5.9-.6 1.4-.4.5.3.6.9.4 1.4l-5.4 9.4c-.3.3-.6.5-.9.5z"/><path class="sp0" d="M439.3 112.3c-.2 0-.3 0-.5-.1-.5-.3-.6-.9-.4-1.4l2.3-4c.3-.5.9-.6 1.4-.4.5.3.6.9.4 1.4l-2.3 4c-.2.4-.5.5-.9.5z"/><path class="sp0" d="M406.2 123c-7.6 0-13.7-6.2-13.7-13.7s6.2-13.7 13.7-13.7 13.7 6.2 13.7 13.7-6.2 13.7-13.7 13.7zm0-25.4c-6.5 0-11.7 5.3-11.7 11.7s5.3 11.7 11.7 11.7 11.7-5.3 11.7-11.7-5.3-11.7-11.7-11.7z"/><path class="sp0" d="M406 134.7c-.6 0-1-.4-1-1v-18c0-.6.4-1 1-1s1 .4 1 1v18c0 .5-.4 1-1 1z"/><path class="sp0" d="M406 116.9c-.3 0-.7-.2-.9-.5l-5.3-8.6c-.3-.5-.1-1.1.3-1.4.5-.3 1.1-.1 1.4.3l5.3 8.6c.3.5.1 1.1-.3 1.4-.1.1-.3.2-.5.2z"/><path class="sp0" d="M412.1 114.4c-.3 0-.7-.2-.9-.5l-2.4-3.8c-.3-.5-.1-1.1.3-1.4.5-.3 1.1-.1 1.4.3l2.4 3.8c.3.5.1 1.1-.3 1.4-.1.1-.3.2-.5.2z"/><path class="sp0" d="M406 116.9c-.2 0-.3 0-.5-.1-.5-.3-.6-.9-.4-1.4l5.4-9.4c.3-.5.9-.6 1.4-.4.5.3.6.9.4 1.4l-5.4 9.4c-.2.3-.6.5-.9.5z"/><path class="sp0" d="M403.2 112.3c-.2 0-.3 0-.5-.1-.5-.3-.6-.9-.4-1.4l2.3-4c.3-.5.9-.6 1.4-.4.5.3.6.9.4 1.4l-2.3 4c-.2.4-.6.5-.9.5z"/></g><g><path class="sp0" d="M35.7 30.2c-3.6 0-6.5-2.9-6.5-6.5s2.9-6.5 6.5-6.5 6.5 2.9 6.5 6.5-2.9 6.5-6.5 6.5zm0-11.1c-2.5 0-4.5 2-4.5 4.5s2 4.5 4.5 4.5 4.5-2 4.5-4.5-2-4.5-4.5-4.5z"/><path class="sp0" d="M36 38.7c-.6 0-1-.4-1-1v-11c0-.6.4-1 1-1s1 .4 1 1v11c0 .5-.4 1-1 1z"/><path class="sp0" d="M35.8 28.3c-.3 0-.7-.2-.9-.5L33.3 25c-.3-.5-.1-1.1.4-1.4s1.1-.1 1.4.4l1.6 2.8c.3.5.1 1.1-.4 1.4-.2 0-.4.1-.5.1z"/><path class="sp0" d="M35.8 28.6c-.2 0-.3 0-.5-.1-.5-.3-.6-.9-.4-1.4l2.5-4.3c.3-.5.9-.6 1.4-.4.5.3.6.9.4 1.4l-2.5 4.3c-.3.3-.6.5-.9.5z"/><g><path class="sp0" d="M63.9 30.2c-3.6 0-6.5-2.9-6.5-6.5s2.9-6.5 6.5-6.5 6.5 2.9 6.5 6.5-2.9 6.5-6.5 6.5zm0-11.1c-2.5 0-4.5 2-4.5 4.5s2 4.5 4.5 4.5 4.5-2 4.5-4.5-2-4.5-4.5-4.5z"/><path class="sp0" d="M64 38.7c-.6 0-1-.4-1-1v-11c0-.6.4-1 1-1s1 .4 1 1v11c0 .5-.4 1-1 1z"/><path class="sp0" d="M63.9 28.3c-.3 0-.7-.2-.9-.5L61.5 25c-.3-.5-.1-1.1.4-1.4.5-.3 1.1-.1 1.4.4l1.6 2.8c.3.5.1 1.1-.4 1.4-.2 0-.4.1-.6.1z"/><path class="sp0" d="M63.9 28.6c-.2 0-.3 0-.5-.1-.5-.3-.6-.9-.4-1.4l2.5-4.3c.3-.5.9-.6 1.4-.4.5.3.6.9.4 1.4l-2.5 4.3c-.2.3-.5.5-.9.5z"/></g><g><path class="sp0" d="M92.1 30.2c-3.6 0-6.5-2.9-6.5-6.5s2.9-6.5 6.5-6.5 6.5 2.9 6.5 6.5-2.9 6.5-6.5 6.5zm0-11.1c-2.5 0-4.5 2-4.5 4.5s2 4.5 4.5 4.5 4.5-2 4.5-4.5-2-4.5-4.5-4.5z"/><path class="sp0" d="M91 38.7c-.6 0-1-.4-1-1v-11c0-.6.4-1 1-1s1 .4 1 1v11c0 .5-.4 1-1 1z"/><path class="sp0" d="M92.1 28.3c-.3 0-.7-.2-.9-.5L89.7 25c-.3-.5-.1-1.1.4-1.4.5-.3 1.1-.1 1.4.4l1.6 2.8c.3.5.1 1.1-.4 1.4-.2 0-.4.1-.6.1z"/><path class="sp0" d="M92.1 28.6c-.2 0-.3 0-.5-.1-.5-.3-.6-.9-.4-1.4l2.5-4.3c.3-.5.9-.6 1.4-.4.5.3.6.9.4 1.4L93 28.1c-.2.3-.5.5-.9.5z"/></g><g><path class="sp0" d="M77.4 53.5c-.6 0-1-.4-1-1s.4-1 1-1c1.1 0 2-.9 2-2 0-.6.4-1 1-1s1 .4 1 1c0 2.2-1.7 4-4 4z"/><path class="sp0" d="M83.4 53.5c-2.2 0-4-1.8-4-4 0-.6.4-1 1-1s1 .4 1 1c0 1.1.9 2 2 2 .6 0 1 .4 1 1s-.4 1-1 1z"/><path class="sp0" d="M71.4 53.5c-.6 0-1-.4-1-1s.4-1 1-1c1.1 0 2-.9 2-2 0-.6.4-1 1-1s1 .4 1 1c0 2.2-1.7 4-4 4z"/><path class="sp0" d="M77.4 53.5c-2.2 0-4-1.8-4-4 0-.6.4-1 1-1s1 .4 1 1c0 1.1.9 2 2 2 .6 0 1 .4 1 1s-.4 1-1 1z"/><path class="sp0" d="M71.4 53.5c-2.2 0-4-1.8-4-4 0-.6.4-1 1-1s1 .4 1 1c0 1.1.9 2 2 2 .6 0 1 .4 1 1s-.4 1-1 1z"/><path class="sp0" d="M83.4 53.5c-.6 0-1-.4-1-1s.4-1 1-1c1.1 0 2-.9 2-2 0-.6.4-1 1-1s1 .4 1 1c0 2.2-1.7 4-4 4z"/><path class="sp0" d="M89.4 53.5c-2.2 0-4-1.8-4-4 0-.6.4-1 1-1s1 .4 1 1c0 1.1.9 2 2 2 .6 0 1 .4 1 1s-.4 1-1 1z"/><g><path class="sp0" d="M47.6 48.5c-.6 0-1-.4-1-1s.4-1 1-1c1.1 0 2-.9 2-2 0-.6.4-1 1-1s1 .4 1 1c0 2.2-1.8 4-4 4z"/><path class="sp0" d="M53.6 48.5c-2.2 0-4-1.8-4-4 0-.6.4-1 1-1s1 .4 1 1c0 1.1.9 2 2 2 .6 0 1 .4 1 1s-.4 1-1 1z"/><path class="sp0" d="M53.6 48.5c-.6 0-1-.4-1-1s.4-1 1-1c1.1 0 2-.9 2-2 0-.6.4-1 1-1s1 .4 1 1c0 2.2-1.8 4-4 4z"/><path class="sp0" d="M59.6 48.5c-2.2 0-4-1.8-4-4 0-.6.4-1 1-1s1 .4 1 1c0 1.1.9 2 2 2 .6 0 1 .4 1 1s-.4 1-1 1z"/></g><g><path class="sp0" d="M97.5 48.8c-.6 0-1-.4-1-1s.4-1 1-1c1.1 0 2-.9 2-2 0-.6.4-1 1-1s1 .4 1 1c0 2.2-1.8 4-4 4z"/><path class="sp0" d="M103.5 48.8c-2.2 0-4-1.8-4-4 0-.6.4-1 1-1s1 .4 1 1c0 1.1.9 2 2 2 .6 0 1 .4 1 1s-.4 1-1 1z"/><path class="sp0" d="M103.5 48.8c-.6 0-1-.4-1-1s.4-1 1-1c1.1 0 2-.9 2-2 0-.6.4-1 1-1s1 .4 1 1c0 2.2-1.8 4-4 4z"/><path class="sp0" d="M109.5 48.8c-2.2 0-4-1.8-4-4 0-.6.4-1 1-1s1 .4 1 1c0 1.1.9 2 2 2 .6 0 1 .4 1 1s-.4 1-1 1z"/><path class="sp0" d="M109.5 48.8c-.6 0-1-.4-1-1s.4-1 1-1c1.1 0 2-.9 2-2 0-.6.4-1 1-1s1 .4 1 1c0 2.2-1.8 4-4 4z"/><path class="sp0" d="M115.5 48.8c-2.2 0-4-1.8-4-4 0-.6.4-1 1-1s1 .4 1 1c0 1.1.9 2 2 2 .6 0 1 .4 1 1s-.4 1-1 1z"/></g><g><path class="sp0" d="M1.7 48.8c-.6 0-1-.4-1-1s.4-1 1-1c1.1 0 2-.9 2-2 0-.6.4-1 1-1s1 .4 1 1c0 2.2-1.8 4-4 4z"/><path class="sp0" d="M7.7 48.8c-2.2 0-4-1.8-4-4 0-.6.4-1 1-1s1 .4 1 1c0 1.1.9 2 2 2 .6 0 1 .4 1 1s-.4 1-1 1z"/><path class="sp0" d="M7.7 48.8c-.6 0-1-.4-1-1s.4-1 1-1c1.1 0 2-.9 2-2 0-.6.4-1 1-1s1 .4 1 1c0 2.2-1.8 4-4 4z"/><path class="sp0" d="M13.7 48.8c-2.2 0-4-1.8-4-4 0-.6.4-1 1-1s1 .4 1 1c0 1.1.9 2 2 2 .6 0 1 .4 1 1s-.4 1-1 1z"/><path class="sp0" d="M13.7 48.8c-.6 0-1-.4-1-1s.4-1 1-1c1.1 0 2-.9 2-2 0-.6.4-1 1-1s1 .4 1 1c0 2.2-1.8 4-4 4z"/><path class="sp0" d="M19.7 48.8c-2.2 0-4-1.8-4-4 0-.6.4-1 1-1s1 .4 1 1c0 1.1.9 2 2 2 .6 0 1 .4 1 1s-.4 1-1 1z"/><path class="sp0" d="M19.7 48.8c-.6 0-1-.4-1-1s.4-1 1-1c1.1 0 2-.9 2-2 0-.6.4-1 1-1s1 .4 1 1c0 2.2-1.8 4-4 4z"/><path class="sp0" d="M25.7 48.8c-2.2 0-4-1.8-4-4 0-.6.4-1 1-1s1 .4 1 1c0 1.1.9 2 2 2 .6 0 1 .4 1 1s-.4 1-1 1z"/><path class="sp0" d="M25.7 48.8c-.6 0-1-.4-1-1s.4-1 1-1c1.1 0 2-.9 2-2 0-.6.4-1 1-1s1 .4 1 1c0 2.2-1.8 4-4 4z"/><path class="sp0" d="M31.7 48.8c-2.2 0-4-1.8-4-4 0-.6.4-1 1-1s1 .4 1 1c0 1.1.9 2 2 2 .6 0 1 .4 1 1s-.4 1-1 1z"/></g><g><path class="sp0" d="M116.2 59.7H11.6c-3.1 0-6-1.2-8.2-3.5C1.2 53.9 0 51 0 47.9c0-6.3 5.1-11.2 11.6-11.2h104.6c6.6 0 11.8 4.9 11.8 11.1 0 6.5-5.4 11.9-11.8 11.9zm-104.6-21c-5.5 0-9.6 3.9-9.6 9.1 0 5.4 4.4 9.9 9.6 9.9h104.6c5.3 0 9.8-4.5 9.8-9.9 0-5.2-4.3-9.1-9.8-9.1H11.6z"/></g><g><path class="sp0" d="M39.5 59.5c-3.6 0-6.5-2.9-6.5-6.5s2.9-6.5 6.5-6.5S46 49.4 46 53s-2.9 6.5-6.5 6.5zm0-11.1c-2.5 0-4.5 2-4.5 4.5s2 4.5 4.5 4.5 4.5-2 4.5-4.5-2-4.5-4.5-4.5z"/><path class="sp0" d="M39 67.7c-.6 0-1-.4-1-1v-11c0-.6.4-1 1-1s1 .4 1 1v11c0 .5-.4 1-1 1z"/><path class="sp0" d="M39.6 57.6c-.3 0-.7-.2-.9-.5l-1.6-2.8c-.3-.5-.1-1.1.4-1.4.5-.3 1.1-.1 1.4.4l1.6 2.8c.3.5.1 1.1-.4 1.4-.2 0-.4.1-.5.1z"/><path class="sp0" d="M39.6 57.8c-.2 0-.3 0-.5-.1-.5-.3-.6-.9-.4-1.4l2.5-4.3c.3-.5.9-.6 1.4-.4.5.3.6.9.4 1.4l-2.5 4.3c-.3.4-.6.5-.9.5z"/></g></g></g><g><path class="sp0" d="M229 64.7h-42c-.6 0-1-.4-1-1v-36c0-.6.4-1 1-1h42c.6 0 1 .4 1 1v36c0 .5-.4 1-1 1zm-41-2h40v-34h-40v34z"/><path class="sp0" d="M215.6 28.7h-15.1c-.6 0-1-.4-1-1 0-4.6 3.9-8.6 8.6-8.6s8.6 3.9 8.6 8.6c-.1.5-.5 1-1.1 1zm-14-2h12.9c-.5-3.1-3.3-5.6-6.5-5.6s-5.9 2.5-6.4 5.6z"/><path class="sp0" d="M208 55.7c-.6 0-1-.4-1-1v-18c0-.6.4-1 1-1s1 .4 1 1v18c0 .5-.4 1-1 1z"/><path class="sp0" d="M217 46.7h-18c-.6 0-1-.4-1-1s.4-1 1-1h18c.6 0 1 .4 1 1s-.4 1-1 1z"/></g><g><path class="sp0" d="M285.2 134.7c-.4 0-.7-.2-.9-.5l-15.6-26.9c-.3-.5-.1-1.1.4-1.4.5-.3 1.1-.1 1.4.4l14.7 25.4 16.3-28.2c.3-.5.9-.6 1.4-.4.5.3.6.9.4 1.4l-17.1 29.7c-.3.3-.6.5-1 .5z"/><path class="sp0" d="M259.7 120.8c-.2 0-.3 0-.5-.1-.5-.3-.6-.9-.4-1.4l7.5-13.1c.3-.5.9-.6 1.4-.4.5.3.6.9.4 1.4l-7.5 13.1c-.2.3-.6.5-.9.5z"/><path class="sp0" d="M257.3 129.8c-3.2 0-5.8-2.6-5.8-5.8s2.6-5.8 5.8-5.8 5.8 2.6 5.8 5.8-2.6 5.8-5.8 5.8zm0-9.6c-2.1 0-3.8 1.7-3.8 3.8s1.7 3.8 3.8 3.8c2.1 0 3.8-1.7 3.8-3.8s-1.7-3.8-3.8-3.8z"/><path class="sp0" d="M304.9 105.7c-3.2 0-5.8-2.6-5.8-5.8s2.6-5.8 5.8-5.8 5.8 2.6 5.8 5.8-2.6 5.8-5.8 5.8zm0-9.7c-2.1 0-3.8 1.7-3.8 3.8s1.7 3.8 3.8 3.8c2.1 0 3.8-1.7 3.8-3.8S307 96 304.9 96z"/><path class="sp0" d="M268.4 108.1c-1.9 0-3.4-1.5-3.4-3.4s1.5-3.4 3.4-3.4 3.4 1.5 3.4 3.4-1.5 3.4-3.4 3.4zm0-4.9c-.8 0-1.4.6-1.4 1.4s.6 1.4 1.4 1.4 1.4-.6 1.4-1.4-.6-1.4-1.4-1.4z"/></g><g><path class="sp0" d="M568 143.8c-.4 0-.7-.2-.9-.5l-21.7-37.5c-.2-.3-.2-.7 0-1l10.8-18.6c.2-.3.5-.5.9-.5h21.7c.4 0 .7.2.9.5l10.8 18.7c.2.3.2.7 0 1l-21.7 37.4c-.1.3-.5.5-.8.5zm-20.5-38.5l20.5 35.5 20.5-35.4-10.3-17.7h-20.5l-10.2 17.6z"/><path class="sp0" d="M568 114.4c-5.2 0-9.5-4.3-9.5-9.5s4.3-9.5 9.5-9.5 9.5 4.3 9.5 9.5-4.3 9.5-9.5 9.5zm0-17c-4.1 0-7.5 3.4-7.5 7.5s3.4 7.5 7.5 7.5 7.5-3.4 7.5-7.5-3.4-7.5-7.5-7.5z"/></g><g><path class="sp0" d="M306 205.7c-2.3 0-4.1-1.8-4.1-4.1s1.8-4.1 4.1-4.1 4.1 1.8 4.1 4.1-1.8 4.1-4.1 4.1zm0-6.2c-1.2 0-2.1.9-2.1 2.1s.9 2.1 2.1 2.1 2.1-.9 2.1-2.1-.9-2.1-2.1-2.1z"/><path class="sp0" d="M320 205.7c-2.3 0-4.1-1.8-4.1-4.1s1.8-4.1 4.1-4.1 4.1 1.8 4.1 4.1-1.9 4.1-4.1 4.1zm0-6.2c-1.2 0-2.1.9-2.1 2.1s.9 2.1 2.1 2.1 2.1-.9 2.1-2.1-1-2.1-2.1-2.1z"/><path class="sp0" d="M403 199.7H298c-.6 0-1-.4-1-1v-25c0-2.9 2.3-5 5.3-5h96.5c3 0 5.2 2.1 5.2 5v25c0 .5-.4 1-1 1zm-104-2h103v-24c0-1.8-1.3-3-3.2-3h-96.5c-1.9 0-3.3 1.3-3.3 3v24z"/><path class="sp0" d="M309 185.7h-5c-1.1 0-2-.9-2-2v-9c0-1.1.9-2 2-2h5c1.1 0 2 .9 2 2v9c0 1.1-.9 2-2 2zm-5-11v9h5v-9h-5z"/><path class="sp0" d="M370 202.7h-42c-1.1 0-2-.9-2-2v-1c0-1.1.9-2 2-2h42c1.1 0 2 .9 2 2v1c0 1.1-.9 2-2 2zm-42-3v1h42v-1h-42z"/><path class="sp0" d="M323 185.7h-9c-1.1 0-2-.9-2-2v-9c0-1.1.9-2 2-2h9c1.1 0 2 .9 2 2v9c0 1.1-.9 2-2 2zm-9-11v9h9v-9h-9z"/><path class="sp0" d="M327 199.7c-.6 0-1-.4-1-1v-29c0-.6.4-1 1-1s1 .4 1 1v29c0 .5-.4 1-1 1z"/><path class="sp0" d="M319 184.7c-.6 0-1-.4-1-1v-10c0-.6.4-1 1-1s1 .4 1 1v10c0 .5-.4 1-1 1z"/><path class="sp0" d="M366 185.7h-9c-1.1 0-2-.9-2-2v-9c0-1.1.9-2 2-2h9c1.1 0 2 .9 2 2v9c0 1.1-.9 2-2 2zm-9-11v9h9v-9h-9z"/><path class="sp0" d="M381 185.7h-9c-1.1 0-2-.9-2-2v-9c0-1.1.9-2 2-2h9c1.1 0 2 .9 2 2v9c0 1.1-.9 2-2 2zm-9-11v9h9v-9h-9z"/><path class="sp0" d="M375 184.7c-.6 0-1-.4-1-1v-10c0-.6.4-1 1-1s1 .4 1 1v10c0 .5-.4 1-1 1z"/><path class="sp0" d="M396 185.7h-9c-1.1 0-2-.9-2-2v-9c0-1.1.9-2 2-2h9c1.1 0 2 .9 2 2v9c0 1.1-.9 2-2 2zm-9-11v9h9v-9h-9z"/><path class="sp0" d="M389 184.7c-.6 0-1-.4-1-1v-10c0-.6.4-1 1-1s1 .4 1 1v10c0 .5-.4 1-1 1z"/><path class="sp0" d="M352 199.7h-21c-.6 0-1-.4-1-1v-24.5c0-.7.4-1.5 2.5-1.5h19.3c.2 0 .7 0 1 .4.3.4.2.8.2 1v24.6c0 .5-.4 1-1 1zm-20-2h19v-23h-19v23z"/><path class="sp0" d="M342 199.7c-.6 0-1-.4-1-1v-25c0-.6.4-1 1-1s1 .4 1 1v25c0 .5-.4 1-1 1z"/><path class="sp0" d="M311 184.7h-6v-12h6v12zm-4-2h2v-8h-2v8z"/><path class="sp0" d="M327 188.7h-25c-.6 0-1-.4-1-1s.4-1 1-1h25c.6 0 1 .4 1 1s-.4 1-1 1z"/><path class="sp0" d="M327 192.7h-25c-.6 0-1-.4-1-1s.4-1 1-1h25c.6 0 1 .4 1 1s-.4 1-1 1z"/><path class="sp0" d="M327 195.7h-25c-.6 0-1-.4-1-1s.4-1 1-1h25c.6 0 1 .4 1 1s-.4 1-1 1z"/><path class="sp0" d="M403 188.7h-51c-.6 0-1-.4-1-1s.4-1 1-1h51c.6 0 1 .4 1 1s-.4 1-1 1z"/><path class="sp0" d="M403 192.7h-51c-.6 0-1-.4-1-1s.4-1 1-1h51c.6 0 1 .4 1 1s-.4 1-1 1z"/><path class="sp0" d="M403 195.7h-51c-.6 0-1-.4-1-1s.4-1 1-1h51c.6 0 1 .4 1 1s-.4 1-1 1z"/><path class="sp0" d="M337 187.7h-2c-1.1 0-2-.9-2-2v-8c0-1.1.9-2 2-2h2c1.1 0 2 .9 2 2v8c0 1.1-.9 2-2 2zm-2-10v8h2v-8h-2z"/><path class="sp0" d="M348 187.7h-2c-1.1 0-2-.9-2-2v-8c0-1.1.9-2 2-2h2c1.1 0 2 .9 2 2v8c0 1.1-.9 2-2 2zm-2-10v8h2v-8h-2z"/><path class="sp0" d="M366 177.7h-9c-1.1 0-2-.9-2-2v-1c0-1.1.9-2 2-2h9c1.1 0 2 .9 2 2v1c0 1.1-.9 2-2 2zm-9-3v1h9v-1h-9z"/><path class="sp0" d="M316 202.7h-7c-.6 0-1-.4-1-1s.4-1 1-1h7c.6 0 1 .4 1 1s-.4 1-1 1z"/><path class="sp0" d="M379.9 205.7c-2.3 0-4.1-1.8-4.1-4.1s1.8-4.1 4.1-4.1 4.1 1.8 4.1 4.1-1.8 4.1-4.1 4.1zm0-6.2c-1.2 0-2.1.9-2.1 2.1s.9 2.1 2.1 2.1 2.1-.9 2.1-2.1-.9-2.1-2.1-2.1z"/><path class="sp0" d="M393.9 205.7c-2.3 0-4.1-1.8-4.1-4.1s1.8-4.1 4.1-4.1 4.1 1.8 4.1 4.1-1.8 4.1-4.1 4.1zm0-6.2c-1.2 0-2.1.9-2.1 2.1s.9 2.1 2.1 2.1 2.1-.9 2.1-2.1-1-2.1-2.1-2.1z"/><path class="sp0" d="M390 202.7h-8c-.6 0-1-.4-1-1s.4-1 1-1h8c.6 0 1 .4 1 1s-.4 1-1 1z"/><path class="sp0" d="M404.6 193.6c-1.3 0-2.4-1.1-2.4-2.4s1.1-2.4 2.4-2.4 2.4 1.1 2.4 2.4-1.1 2.4-2.4 2.4zm0-2.7c-.2 0-.4.2-.4.4s.2.4.4.4.4-.2.4-.4c0-.3-.2-.4-.4-.4z"/></g><g><path class="sp0" d="M171 153.7h-71c-.6 0-1-.4-1-1v-57c0-.6.4-1 1-1h71c.6 0 1 .4 1 1v57c0 .5-.4 1-1 1zm-70-2h69v-55h-69v55z"/><path class="sp0" d="M130.7 117.7h-25c-.3 0-.5-.1-.7-.3s-.3-.4-.3-.7v-15c0-.6.4-1 1-1h25c.3 0 .7.1.9.3s.5.4.5.7v15c-.1.5-.9 1-1.4 1zm-24-2H130v-13h-23.3v13z"/><path class="sp0" d="M143 154.1h-15c-.6 0-1-.4-1-1v-30.6c0-.3.1-.5.3-.7s.4-.3.7-.3h15c.6 0 1 .4 1 1v30.6c0 .3-.1.5-.3.7s-.4.3-.7.3zm-14-2h13v-28.6h-13v28.6z"/><path class="sp0" d="M171.1 95.7H99.7c-.5 0-.9-.3-1-.8s.1-.9.5-1.1l35.7-17c.3-.1.6-.1.9 0l35.7 17c.4.2.6.7.5 1.1s-.5.8-.9.8zm-66.9-2h62.5l-31.2-14.9-31.3 14.9z"/><path class="sp0" d="M135.4 93.2c-3.2 0-5.8-2.6-5.8-5.8s2.6-5.8 5.8-5.8 5.8 2.6 5.8 5.8-2.6 5.8-5.8 5.8zm0-9.5c-2.1 0-3.8 1.7-3.8 3.8 0 2.1 1.7 3.8 3.8 3.8 2.1 0 3.8-1.7 3.8-3.8 0-2.1-1.7-3.8-3.8-3.8z"/><path class="sp0" d="M131 117.7h-25c-.6 0-1-.4-1-1v-5c0-.6.4-1 1-1h25c.6 0 1 .4 1 1v5c0 .5-.4 1-1 1zm-24-2h23v-3h-23v3z"/><path class="sp0" d="M105.7 113.1c-.4 0-.8-.2-.9-.6-.2-.5.1-1.1.6-1.3 5.4-2.1 9.4-5.6 12-10.3.3-.5.9-.7 1.4-.4.5.3.7.9.4 1.4-2.8 5.1-7.2 8.9-13 11.2-.3-.1-.4 0-.5 0z"/><path class="sp0" d="M130.1 113.1c-.1 0-.2 0-.4-.1-5.8-2.3-10.2-6-13-11.2-.3-.5-.1-1.1.4-1.4.5-.3 1.1-.1 1.4.4 2.6 4.7 6.6 8.2 12 10.3.5.2.8.8.6 1.3-.2.4-.6.7-1 .7z"/><path class="sp0" d="M122 138.8h-16c-.6 0-1-.4-1-1v-15.2c0-.3.1-.5.3-.7s.4-.3.7-.3h16c.6 0 1 .4 1 1v15.2c0 .3-.1.5-.3.7s-.4.3-.7.3zm-15-2h14v-13.2h-14v13.2z"/><path class="sp0" d="M165 138.8h-17c-.6 0-1-.4-1-1v-15.2c0-.3.1-.5.3-.7s.4-.3.7-.3h17c.6 0 1 .4 1 1v15.2c0 .3-.1.5-.3.7s-.4.3-.7.3zm-16-2h15v-13.2h-15v13.2z"/><path class="sp0" d="M164.8 117.7h-25c-.3 0-.4-.1-.6-.3s-.2-.4-.2-.7v-15c0-.6.3-1 .8-1h25c.3 0 .5.1.7.3s.3.4.3.7v15c0 .5-.5 1-1 1zm-23.8-2h22.8v-13H141v13z"/><path class="sp0" d="M165 117.7h-25c-.6 0-1-.4-1-1v-5c0-.6.4-1 1-1h25c.6 0 1 .4 1 1v5c0 .5-.4 1-1 1zm-24-2h23v-3h-23v3z"/><path class="sp0" d="M139.8 113.1c-.4 0-.8-.2-.9-.6-.2-.5.1-1.1.6-1.3 5.4-2.1 9.4-5.6 12-10.3.3-.5.9-.7 1.4-.4.5.3.7.9.4 1.4-2.8 5.1-7.2 8.9-13 11.2-.3-.1-.4 0-.5 0z"/><path class="sp0" d="M164.2 113.1c-.1 0-.2 0-.4-.1-5.8-2.3-10.2-6-13-11.2-.3-.5-.1-1.1.4-1.4.5-.3 1.1-.1 1.4.4 2.6 4.7 6.6 8.2 12 10.3.5.2.8.8.6 1.3-.2.4-.6.7-1 .7z"/><path class="sp0" d="M138.2 140.7c-1.5 0-2.6-1.2-2.6-2.6 0-1.5 1.2-2.6 2.6-2.6s2.6 1.2 2.6 2.6c0 1.4-1.2 2.6-2.6 2.6zm0-3.3c-.4 0-.6.3-.6.6s.3.6.6.6.6-.3.6-.6-.3-.6-.6-.6z"/><path class="sp0" d="M140 133.7h-9c-.6 0-1-.4-1-1v-7c0-.6.4-1 1-1h9c.6 0 1 .4 1 1v7c0 .5-.4 1-1 1zm-8-2h7v-5h-7v5z"/><path class="sp0" d="M122 135.7h-16c-.6 0-1-.4-1-1v-12c0-.6.4-1 1-1h16c.6 0 1 .4 1 1v12c0 .5-.4 1-1 1zm-15-2h14v-10h-14v10z"/><path class="sp0" d="M165 135.7h-16c-.6 0-1-.4-1-1v-12c0-.6.4-1 1-1h16c.6 0 1 .4 1 1v12c0 .5-.4 1-1 1zm-15-2h14v-10h-14v10z"/></g><g><path class="sp0" d="M85 191.7H42c-.6 0-1-.4-1-1s.4-1 1-1h43c.6 0 1 .4 1 1s-.4 1-1 1z"/><path class="sp0" d="M85 184.7H42c-.6 0-1-.4-1-1s.4-1 1-1h43c.6 0 1 .4 1 1s-.4 1-1 1z"/><path class="sp0" d="M37.5 204.7c-3 0-5.5-2.5-5.5-5.5v-24c0-3 2.5-5.5 5.5-5.5s5.5 2.5 5.5 5.5v24c0 3-2.5 5.5-5.5 5.5zm0-33c-1.9 0-3.5 1.6-3.5 3.5v24c0 1.9 1.6 3.5 3.5 3.5s3.5-1.6 3.5-3.5v-24c0-1.9-1.6-3.5-3.5-3.5z"/><path class="sp0" d="M30.7 195.7h-.4c-1.8 0-3.3-1.5-3.3-3.3V181c0-1.8 1.5-3.3 3.3-3.3h.4c1.8 0 3.3 1.5 3.3 3.3v11.4c0 1.8-1.5 3.3-3.3 3.3zm-.4-16c-.7 0-1.3.6-1.3 1.3v11.4c0 .7.6 1.3 1.3 1.3h.4c.7 0 1.3-.6 1.3-1.3V181c0-.7-.6-1.3-1.3-1.3h-.4z"/><path class="sp0" d="M89.5 204.7c-3 0-5.5-2.5-5.5-5.5v-24c0-3 2.5-5.5 5.5-5.5s5.5 2.5 5.5 5.5v24c0 3-2.5 5.5-5.5 5.5zm0-33c-1.9 0-3.5 1.6-3.5 3.5v24c0 1.9 1.6 3.5 3.5 3.5s3.5-1.6 3.5-3.5v-24c0-1.9-1.6-3.5-3.5-3.5z"/><path class="sp0" d="M28 192.4c-3.2 0-5.1-1.9-5.1-5.1s1.9-5.1 5.1-5.1c.6 0 1 .4 1 1v8.2c0 .6-.4 1-1 1zm-1-8c-1.4.3-2.1 1.3-2.1 3s.7 2.7 2.1 3v-6z"/><path class="sp0" d="M96.7 195.7h-.4c-1.8 0-3.3-1.5-3.3-3.3V181c0-1.8 1.5-3.3 3.3-3.3h.4c1.8 0 3.3 1.5 3.3 3.3v11.4c0 1.8-1.5 3.3-3.3 3.3zm-.4-16c-.7 0-1.3.6-1.3 1.3v11.4c0 .7.6 1.3 1.3 1.3h.4c.7 0 1.3-.6 1.3-1.3V181c0-.7-.6-1.3-1.3-1.3h-.4z"/><path class="sp0" d="M99 192.4c-.6 0-1-.4-1-1v-8.2c0-.6.4-1 1-1 2.4 0 5.1 2.2 5.1 5.1s-2.7 5.1-5.1 5.1zm1-7.9v5.8c1.1-.4 2.1-1.5 2.1-2.9s-1-2.5-2.1-2.9z"/></g><g><path class="sp0" d="M525.3 200.7H467c-.6 0-1-.4-1-1 0-5.8 5.2-11 11-11 .9 0 1.7.1 2.6.4.4-9.8 8.4-17.6 18.3-17.6 9.8 0 17.8 7.7 18.3 17.3 5.5.5 10.1 5.4 10.1 10.9 0 .5-.4 1-1 1zm-57.2-2h56.1c-.5-3.9-4.2-8-9-8-.6 0-1-.4-1-1 0-8.9-7.3-16.2-16.3-16.2s-16.3 7.3-16.3 16.3v.6c0 .3-.1.7-.4.9-.3.2-.6.3-.9.1-6.3-2.5-11.5 2.5-12.2 7.3z"/><path class="sp0" d="M508.2 197.9c-.6 0-1-.4-1-1s.4-1 1-1c3.3 0 6-2.7 6-6 0-.6.4-1 1-1s1 .4 1 1c.1 4.4-3.5 8-8 8z"/><path class="sp0" d="M498.3 191.5c-.6 0-1-.4-1-1 0-4.2-3.5-7.7-7.7-7.7s-7.7 3.5-7.7 7.7c0 .6-.4 1-1 1s-1-.4-1-1c0-5.3 4.3-9.7 9.7-9.7s9.7 4.3 9.7 9.7c0 .6-.4 1-1 1z"/></g><g><path class="sp0" d="M496.5 68.3c-11.1 0-20.1-9-20.1-20.1 0-11.1 9-20.1 20.1-20.1s20.1 9 20.1 20.1c-.1 11-9.1 20.1-20.1 20.1zm0-38.2c-10 0-18.1 8.1-18.1 18.1 0 10 8.1 18.1 18.1 18.1s18.1-8.1 18.1-18.1c-.1-10-8.2-18.1-18.1-18.1z"/><path class="sp0" d="M496.7 62.4c-1.3 0-2.7-.2-4.1-.7-.5-.2-.8-.8-.6-1.3.2-.5.8-.8 1.3-.6 4.3 1.6 8.7-.2 11.2-2.7s4.3-7.7 2.7-11.1c-.2-.5 0-1.1.5-1.3.5-.2 1.1 0 1.3.5 1.9 4.2-.1 10.3-3.1 13.4-2.1 2.1-5.5 3.8-9.2 3.8z"/><path class="sp0" d="M496.5 30.2c-.6 0-1-.4-1-1 0-7.3-6-13.3-13.3-13.3-.6 0-1-.4-1-1s.4-1 1-1c8.4 0 15.3 6.9 15.3 15.3 0 .5-.5 1-1 1z"/><path class="sp0" d="M496.5 30.1c-.6 0-1-.4-1-1 0-8.8 7.1-15.9 15.9-15.9.6 0 1 .4 1 1 0 8.7-7.2 15.9-15.9 15.9zm13.8-14.9c-6.8.5-12.3 6-12.8 12.8 6.8-.5 12.3-6 12.8-12.8z"/></g><g><path class="sp0" d="M448.4 249.8c-9 0-17.9-3.4-24.8-10.2-.4-.4-.4-1 0-1.4s1-.4 1.4 0c12.9 12.9 33.8 12.9 46.7 0 .4-.4 1-.4 1.4 0s.4 1 0 1.4c-6.7 6.8-15.7 10.2-24.7 10.2z"/><path class="sp0" d="M400.2 249.8c-9 0-17.9-3.4-24.8-10.2-.4-.4-.4-1 0-1.4s1-.4 1.4 0c12.9 12.9 33.8 12.9 46.7 0 .4-.4 1-.4 1.4 0s.4 1 0 1.4c-6.8 6.8-15.7 10.2-24.7 10.2z"/><path class="sp0" d="M472.5 296.8c-.3 0-.5-.1-.7-.3-26.2-26.2-68.8-26.2-94.9 0-.4.4-1 .4-1.4 0s-.4-1 0-1.4c27-27 70.8-26.9 97.8 0 .4.4.4 1 0 1.4-.3.2-.6.3-.8.3z"/><path class="sp0" d="M424 240.7c-.6 0-1-.4-1-1v-14c0-.6.4-1 1-1s1 .4 1 1v14c0 .5-.4 1-1 1z"/><path class="sp0" d="M429 272.7c-.6 0-1-.4-1-1v-29c0-.6.4-1 1-1s1 .4 1 1v29c0 .5-.4 1-1 1z"/><path class="sp0" d="M433 272.7c-.6 0-1-.4-1-1v-27c0-.6.4-1 1-1s1 .4 1 1v27c0 .5-.4 1-1 1z"/><path class="sp0" d="M437 272.7c-.6 0-1-.4-1-1v-25c0-.6.4-1 1-1s1 .4 1 1v25c0 .5-.4 1-1 1z"/><path class="sp0" d="M442 272.7c-.6 0-1-.4-1-1v-23c0-.6.4-1 1-1s1 .4 1 1v23c0 .5-.4 1-1 1z"/><path class="sp0" d="M446 272.7c-.6 0-1-.4-1-1v-23c0-.6.4-1 1-1s1 .4 1 1v23c0 .5-.4 1-1 1z"/><path class="sp0" d="M451 272.7c-.6 0-1-.4-1-1v-23c0-.6.4-1 1-1s1 .4 1 1v23c0 .5-.4 1-1 1z"/><path class="sp0" d="M455 272.7c-.6 0-1-.4-1-1v-23c0-.6.4-1 1-1s1 .4 1 1v23c0 .5-.4 1-1 1z"/><path class="sp0" d="M459 272.7c-.6 0-1-.4-1-1v-24c0-.6.4-1 1-1s1 .4 1 1v24c0 .5-.4 1-1 1z"/><path class="sp0" d="M464 272.7c-.6 0-1-.4-1-1v-27c0-.6.4-1 1-1s1 .4 1 1v27c0 .5-.4 1-1 1z"/><path class="sp0" d="M468 272.7c-.6 0-1-.4-1-1v-29c0-.6.4-1 1-1s1 .4 1 1v29c0 .5-.4 1-1 1z"/><path class="sp0" d="M472 272.7c-.6 0-1-.4-1-1v-42c0-.6.4-1 1-1s1 .4 1 1v42c0 .5-.4 1-1 1z"/><path class="sp0" d="M420 272.7c-.6 0-1-.4-1-1v-29c0-.6.4-1 1-1s1 .4 1 1v29c0 .5-.4 1-1 1z"/><path class="sp0" d="M416 272.7c-.6 0-1-.4-1-1v-27c0-.6.4-1 1-1s1 .4 1 1v27c0 .5-.4 1-1 1z"/><path class="sp0" d="M411 272.7c-.6 0-1-.4-1-1v-25c0-.6.4-1 1-1s1 .4 1 1v25c0 .5-.4 1-1 1z"/><path class="sp0" d="M407 272.7c-.6 0-1-.4-1-1v-23c0-.6.4-1 1-1s1 .4 1 1v23c0 .5-.4 1-1 1z"/><path class="sp0" d="M402 272.7c-.6 0-1-.4-1-1v-23c0-.6.4-1 1-1s1 .4 1 1v23c0 .5-.4 1-1 1z"/><path class="sp0" d="M398 272.7c-.6 0-1-.4-1-1v-23c0-.6.4-1 1-1s1 .4 1 1v23c0 .5-.4 1-1 1z"/><path class="sp0" d="M394 272.7c-.6 0-1-.4-1-1v-23c0-.6.4-1 1-1s1 .4 1 1v23c0 .5-.4 1-1 1z"/><path class="sp0" d="M389 272.7c-.6 0-1-.4-1-1v-24c0-.6.4-1 1-1s1 .4 1 1v24c0 .5-.4 1-1 1z"/><path class="sp0" d="M385 272.7c-.6 0-1-.4-1-1v-27c0-.6.4-1 1-1s1 .4 1 1v27c0 .5-.4 1-1 1z"/><path class="sp0" d="M381 272.7c-.6 0-1-.4-1-1v-29c0-.6.4-1 1-1s1 .4 1 1v29c0 .5-.4 1-1 1z"/><path class="sp0" d="M376 272.7c-.6 0-1-.4-1-1v-42c0-.6.4-1 1-1s1 .4 1 1v42c0 .5-.4 1-1 1z"/><path class="sp0" d="M424.3 226.6c-2.9 0-5.3-2.4-5.3-5.3s2.4-5.3 5.3-5.3 5.3 2.4 5.3 5.3-2.3 5.3-5.3 5.3zm0-8.6c-1.8 0-3.3 1.5-3.3 3.3s1.5 3.3 3.3 3.3 3.3-1.5 3.3-3.3-1.4-3.3-3.3-3.3z"/><path class="sp0" d="M376.1 230.9c-1.7 0-3.2-1.4-3.2-3.2s1.4-3.2 3.2-3.2 3.2 1.4 3.2 3.2-1.4 3.2-3.2 3.2zm0-4.3c-.6 0-1.2.5-1.2 1.2 0 .6.5 1.2 1.2 1.2s1.2-.5 1.2-1.2-.5-1.2-1.2-1.2z"/><path class="sp0" d="M472.5 230.9c-1.7 0-3.2-1.4-3.2-3.2s1.4-3.2 3.2-3.2 3.2 1.4 3.2 3.2-1.5 3.2-3.2 3.2zm0-4.3c-.6 0-1.2.5-1.2 1.2 0 .6.5 1.2 1.2 1.2.6 0 1.2-.5 1.2-1.2-.1-.7-.6-1.2-1.2-1.2z"/><path class="sp0" d="M472 276.7h-96c-.6 0-1-.4-1-1v-4c0-.6.4-1 1-1h96c.6 0 1 .4 1 1v4c0 .5-.4 1-1 1zm-95-2h94v-2h-94v2z"/><path class="sp0" d="M376 299.7c-.6 0-1-.4-1-1v-23c0-.6.4-1 1-1s1 .4 1 1v23c0 .5-.4 1-1 1z"/><path class="sp0" d="M472 299.7c-.6 0-1-.4-1-1v-23c0-.6.4-1 1-1s1 .4 1 1v23c0 .5-.4 1-1 1z"/></g><g><path class="sp0" d="M298 422.2c-.3 0-.5-.1-.7-.3l-5.2-5.2c-.4-.4-.4-1 0-1.4s1-.4 1.4 0l5.2 5.2c.4.4.4 1 0 1.4-.2.2-.5.3-.7.3z"/><path class="sp0" d="M267.2 391.4c-.3 0-.5-.1-.7-.3l-5.2-5.2c-.4-.4-.4-1 0-1.4s1-.4 1.4 0l5.2 5.2c.4.4.4 1 0 1.4-.2.2-.4.3-.7.3z"/><path class="sp0" d="M292.8 391.4c-.3 0-.5-.1-.7-.3-.4-.4-.4-1 0-1.4l5.2-5.2c.4-.4 1-.4 1.4 0s.4 1 0 1.4l-5.2 5.2c-.2.2-.5.3-.7.3z"/><path class="sp0" d="M262 422.2c-.3 0-.5-.1-.7-.3-.4-.4-.4-1 0-1.4l5.2-5.2c.4-.4 1-.4 1.4 0s.4 1 0 1.4l-5.2 5.2c-.2.2-.4.3-.7.3z"/><path class="sp0" d="M305 404.7h-7c-.6 0-1-.4-1-1s.4-1 1-1h7c.6 0 1 .4 1 1s-.4 1-1 1z"/><path class="sp0" d="M262 404.7h-7c-.6 0-1-.4-1-1s.4-1 1-1h7c.6 0 1 .4 1 1s-.4 1-1 1z"/><path class="sp0" d="M280 385.7c-.6 0-1-.4-1-1v-7c0-.6.4-1 1-1s1 .4 1 1v7c0 .5-.4 1-1 1z"/><path class="sp0" d="M280 429.7c-.6 0-1-.4-1-1v-7c0-.6.4-1 1-1s1 .4 1 1v7c0 .5-.4 1-1 1z"/><path class="sp0" d="M296.7 397.2c-.4 0-.8-.2-.9-.6-.2-.5 0-1.1.5-1.3l6.8-2.8c.5-.2 1.1 0 1.3.5.2.5 0 1.1-.5 1.3l-6.8 2.8c-.2.1-.3.1-.4.1z"/><path class="sp0" d="M256.5 414c-.4 0-.8-.2-.9-.6-.2-.5 0-1.1.5-1.3l6.8-2.8c.5-.2 1.1 0 1.3.5s0 1.1-.5 1.3l-6.8 2.8c-.1.1-.2.1-.4.1z"/><g><path class="sp0" d="M273 387.5c-.4 0-.8-.2-.9-.6l-2.8-6.8c-.2-.5 0-1.1.5-1.3.5-.2 1.1 0 1.3.5l2.8 6.8c.2.5 0 1.1-.5 1.3-.1.1-.2.1-.4.1z"/><path class="sp0" d="M289.8 427.7c-.4 0-.8-.2-.9-.6l-2.8-6.8c-.2-.5 0-1.1.5-1.3.5-.2 1.1 0 1.3.5l2.8 6.8c.2.5 0 1.1-.5 1.3-.1 0-.3.1-.4.1z"/></g><g><path class="sp0" d="M286.9 387.5c-.1 0-.3 0-.4-.1-.5-.2-.8-.8-.5-1.3l2.8-6.8c.2-.5.8-.8 1.3-.5.5.2.8.8.5 1.3l-2.8 6.8c-.2.4-.5.6-.9.6z"/><path class="sp0" d="M270.3 427.7c-.1 0-.3 0-.4-.1-.5-.2-.8-.8-.5-1.3l2.8-6.8c.2-.5.8-.8 1.3-.5.5.2.8.8.5 1.3l-2.8 6.8c-.1.4-.5.6-.9.6z"/></g><g><path class="sp0" d="M263.3 397.3c-.1 0-.3 0-.4-.1l-6.8-2.8c-.5-.2-.8-.8-.5-1.3s.8-.8 1.3-.5l6.8 2.8c.5.2.8.8.5 1.3-.1.4-.5.6-.9.6z"/><path class="sp0" d="M303.5 413.9c-.1 0-.3 0-.4-.1l-6.8-2.8c-.5-.2-.8-.8-.5-1.3s.8-.8 1.3-.5l6.8 2.8c.5.2.8.8.5 1.3-.1.3-.5.6-.9.6z"/></g><g><path class="sp0" d="M280 422.3c-10.5 0-19.1-8.6-19.1-19.1s8.6-19.1 19.1-19.1 19.1 8.6 19.1 19.1-8.6 19.1-19.1 19.1zm0-36.2c-9.4 0-17.1 7.7-17.1 17.1s7.7 17.1 17.1 17.1 17.1-7.7 17.1-17.1-7.7-17.1-17.1-17.1z"/></g></g><g><path class="sp0" d="M514.3 339c-7.6 0-13.7-6.2-13.7-13.7s6.2-13.7 13.7-13.7 13.7 6.2 13.7 13.7-6.1 13.7-13.7 13.7zm0-25.4c-6.5 0-11.7 5.3-11.7 11.7s5.3 11.7 11.7 11.7 11.7-5.3 11.7-11.7-5.2-11.7-11.7-11.7z"/><path class="sp0" d="M514 350.7c-.6 0-1-.4-1-1v-18c0-.6.4-1 1-1s1 .4 1 1v18c0 .5-.4 1-1 1z"/><path class="sp0" d="M514.2 332.9c-.3 0-.7-.2-.9-.5l-5.3-8.6c-.3-.5-.1-1.1.3-1.4.5-.3 1.1-.1 1.4.3l5.3 8.6c.3.5.1 1.1-.3 1.4-.2.1-.4.2-.5.2z"/><path class="sp0" d="M520.3 330.4c-.3 0-.7-.2-.9-.5l-2.4-3.8c-.3-.5-.1-1.1.3-1.4.5-.3 1.1-.1 1.4.3l2.4 3.8c.3.5.1 1.1-.3 1.4-.2.1-.3.2-.5.2z"/><path class="sp0" d="M514.2 332.9c-.2 0-.3 0-.5-.1-.5-.3-.6-.9-.4-1.4l5.4-9.4c.3-.5.9-.6 1.4-.4.5.3.6.9.4 1.4l-5.4 9.4c-.3.3-.6.5-.9.5z"/><path class="sp0" d="M511.3 328.3c-.2 0-.3 0-.5-.1-.5-.3-.6-.9-.4-1.4l2.3-4c.3-.5.9-.6 1.4-.4.5.3.6.9.4 1.4l-2.3 4c-.2.4-.5.5-.9.5z"/><path class="sp0" d="M478.2 339c-7.6 0-13.7-6.2-13.7-13.7s6.2-13.7 13.7-13.7 13.7 6.2 13.7 13.7-6.2 13.7-13.7 13.7zm0-25.4c-6.5 0-11.7 5.3-11.7 11.7s5.3 11.7 11.7 11.7 11.7-5.3 11.7-11.7-5.3-11.7-11.7-11.7z"/><path class="sp0" d="M478 350.7c-.6 0-1-.4-1-1v-18c0-.6.4-1 1-1s1 .4 1 1v18c0 .5-.4 1-1 1z"/><path class="sp0" d="M478 332.9c-.3 0-.7-.2-.9-.5l-5.3-8.6c-.3-.5-.1-1.1.3-1.4.5-.3 1.1-.1 1.4.3l5.3 8.6c.3.5.1 1.1-.3 1.4-.1.1-.3.2-.5.2z"/><path class="sp0" d="M484.1 330.4c-.3 0-.7-.2-.9-.5l-2.4-3.8c-.3-.5-.1-1.1.3-1.4.5-.3 1.1-.1 1.4.3l2.4 3.8c.3.5.1 1.1-.3 1.4-.1.1-.3.2-.5.2z"/><path class="sp0" d="M478 332.9c-.2 0-.3 0-.5-.1-.5-.3-.6-.9-.4-1.4l5.4-9.4c.3-.5.9-.6 1.4-.4.5.3.6.9.4 1.4l-5.4 9.4c-.2.3-.6.5-.9.5z"/><path class="sp0" d="M475.2 328.3c-.2 0-.3 0-.5-.1-.5-.3-.6-.9-.4-1.4l2.3-4c.3-.5.9-.6 1.4-.4.5.3.6.9.4 1.4l-2.3 4c-.2.4-.6.5-.9.5z"/></g><g><path class="sp0" d="M107.7 246.2c-3.6 0-6.5-2.9-6.5-6.5s2.9-6.5 6.5-6.5 6.5 2.9 6.5 6.5-2.9 6.5-6.5 6.5zm0-11.1c-2.5 0-4.5 2-4.5 4.5s2 4.5 4.5 4.5 4.5-2 4.5-4.5-2-4.5-4.5-4.5z"/><path class="sp0" d="M108 254.7c-.6 0-1-.4-1-1v-11c0-.6.4-1 1-1s1 .4 1 1v11c0 .5-.4 1-1 1z"/><path class="sp0" d="M107.8 244.3c-.3 0-.7-.2-.9-.5l-1.6-2.8c-.3-.5-.1-1.1.4-1.4.5-.3 1.1-.1 1.4.4l1.6 2.8c.3.5.1 1.1-.4 1.4-.2 0-.4.1-.5.1z"/><path class="sp0" d="M107.8 244.6c-.2 0-.3 0-.5-.1-.5-.3-.6-.9-.4-1.4l2.5-4.3c.3-.5.9-.6 1.4-.4.5.3.6.9.4 1.4l-2.5 4.3c-.3.3-.6.5-.9.5z"/><g><path class="sp0" d="M135.9 246.2c-3.6 0-6.5-2.9-6.5-6.5s2.9-6.5 6.5-6.5 6.5 2.9 6.5 6.5-2.9 6.5-6.5 6.5zm0-11.1c-2.5 0-4.5 2-4.5 4.5s2 4.5 4.5 4.5 4.5-2 4.5-4.5-2-4.5-4.5-4.5z"/><path class="sp0" d="M136 254.7c-.6 0-1-.4-1-1v-11c0-.6.4-1 1-1s1 .4 1 1v11c0 .5-.4 1-1 1z"/><path class="sp0" d="M135.9 244.3c-.3 0-.7-.2-.9-.5l-1.6-2.8c-.3-.5-.1-1.1.4-1.4.5-.3 1.1-.1 1.4.4l1.6 2.8c.3.5.1 1.1-.4 1.4-.1 0-.3.1-.5.1z"/><path class="sp0" d="M135.9 244.6c-.2 0-.3 0-.5-.1-.5-.3-.6-.9-.4-1.4l2.5-4.3c.3-.5.9-.6 1.4-.4.5.3.6.9.4 1.4l-2.5 4.3c-.2.3-.5.5-.9.5z"/></g><g><path class="sp0" d="M164.1 246.2c-3.6 0-6.5-2.9-6.5-6.5s2.9-6.5 6.5-6.5 6.5 2.9 6.5 6.5-2.9 6.5-6.5 6.5zm0-11.1c-2.5 0-4.5 2-4.5 4.5s2 4.5 4.5 4.5 4.5-2 4.5-4.5-2-4.5-4.5-4.5z"/><path class="sp0" d="M163 254.7c-.6 0-1-.4-1-1v-11c0-.6.4-1 1-1s1 .4 1 1v11c0 .5-.4 1-1 1z"/><path class="sp0" d="M164.1 244.3c-.3 0-.7-.2-.9-.5l-1.6-2.8c-.3-.5-.1-1.1.4-1.4.5-.3 1.1-.1 1.4.4l1.6 2.8c.3.5.1 1.1-.4 1.4-.1 0-.3.1-.5.1z"/><path class="sp0" d="M164.1 244.6c-.2 0-.3 0-.5-.1-.5-.3-.6-.9-.4-1.4l2.5-4.3c.3-.5.9-.6 1.4-.4.5.3.6.9.4 1.4l-2.5 4.3c-.2.3-.5.5-.9.5z"/></g><g><path class="sp0" d="M149.4 269.5c-.6 0-1-.4-1-1s.4-1 1-1c1.1 0 2-.9 2-2 0-.6.4-1 1-1s1 .4 1 1c0 2.2-1.7 4-4 4z"/><path class="sp0" d="M155.4 269.5c-2.2 0-4-1.8-4-4 0-.6.4-1 1-1s1 .4 1 1c0 1.1.9 2 2 2 .6 0 1 .4 1 1s-.4 1-1 1z"/><path class="sp0" d="M143.4 269.5c-.6 0-1-.4-1-1s.4-1 1-1c1.1 0 2-.9 2-2 0-.6.4-1 1-1s1 .4 1 1c0 2.2-1.7 4-4 4z"/><path class="sp0" d="M149.4 269.5c-2.2 0-4-1.8-4-4 0-.6.4-1 1-1s1 .4 1 1c0 1.1.9 2 2 2 .6 0 1 .4 1 1s-.4 1-1 1z"/><path class="sp0" d="M143.4 269.5c-2.2 0-4-1.8-4-4 0-.6.4-1 1-1s1 .4 1 1c0 1.1.9 2 2 2 .6 0 1 .4 1 1s-.4 1-1 1z"/><path class="sp0" d="M155.4 269.5c-.6 0-1-.4-1-1s.4-1 1-1c1.1 0 2-.9 2-2 0-.6.4-1 1-1s1 .4 1 1c0 2.2-1.7 4-4 4z"/><path class="sp0" d="M161.4 269.5c-2.2 0-4-1.8-4-4 0-.6.4-1 1-1s1 .4 1 1c0 1.1.9 2 2 2 .6 0 1 .4 1 1s-.4 1-1 1z"/><g><path class="sp0" d="M119.6 264.5c-.6 0-1-.4-1-1s.4-1 1-1c1.1 0 2-.9 2-2 0-.6.4-1 1-1s1 .4 1 1c0 2.2-1.8 4-4 4z"/><path class="sp0" d="M125.6 264.5c-2.2 0-4-1.8-4-4 0-.6.4-1 1-1s1 .4 1 1c0 1.1.9 2 2 2 .6 0 1 .4 1 1s-.4 1-1 1z"/><path class="sp0" d="M125.6 264.5c-.6 0-1-.4-1-1s.4-1 1-1c1.1 0 2-.9 2-2 0-.6.4-1 1-1s1 .4 1 1c0 2.2-1.8 4-4 4z"/><path class="sp0" d="M131.6 264.5c-2.2 0-4-1.8-4-4 0-.6.4-1 1-1s1 .4 1 1c0 1.1.9 2 2 2 .6 0 1 .4 1 1s-.4 1-1 1z"/></g><g><path class="sp0" d="M169.5 264.8c-.6 0-1-.4-1-1s.4-1 1-1c1.1 0 2-.9 2-2 0-.6.4-1 1-1s1 .4 1 1c0 2.2-1.8 4-4 4z"/><path class="sp0" d="M175.5 264.8c-2.2 0-4-1.8-4-4 0-.6.4-1 1-1s1 .4 1 1c0 1.1.9 2 2 2 .6 0 1 .4 1 1s-.4 1-1 1z"/><path class="sp0" d="M175.5 264.8c-.6 0-1-.4-1-1s.4-1 1-1c1.1 0 2-.9 2-2 0-.6.4-1 1-1s1 .4 1 1c0 2.2-1.8 4-4 4z"/><path class="sp0" d="M181.5 264.8c-2.2 0-4-1.8-4-4 0-.6.4-1 1-1s1 .4 1 1c0 1.1.9 2 2 2 .6 0 1 .4 1 1s-.4 1-1 1z"/><path class="sp0" d="M181.5 264.8c-.6 0-1-.4-1-1s.4-1 1-1c1.1 0 2-.9 2-2 0-.6.4-1 1-1s1 .4 1 1c0 2.2-1.8 4-4 4z"/><path class="sp0" d="M187.5 264.8c-2.2 0-4-1.8-4-4 0-.6.4-1 1-1s1 .4 1 1c0 1.1.9 2 2 2 .6 0 1 .4 1 1s-.4 1-1 1z"/></g><g><path class="sp0" d="M73.7 264.8c-.6 0-1-.4-1-1s.4-1 1-1c1.1 0 2-.9 2-2 0-.6.4-1 1-1s1 .4 1 1c0 2.2-1.8 4-4 4z"/><path class="sp0" d="M79.7 264.8c-2.2 0-4-1.8-4-4 0-.6.4-1 1-1s1 .4 1 1c0 1.1.9 2 2 2 .6 0 1 .4 1 1s-.4 1-1 1z"/><path class="sp0" d="M79.7 264.8c-.6 0-1-.4-1-1s.4-1 1-1c1.1 0 2-.9 2-2 0-.6.4-1 1-1s1 .4 1 1c0 2.2-1.8 4-4 4z"/><path class="sp0" d="M85.7 264.8c-2.2 0-4-1.8-4-4 0-.6.4-1 1-1s1 .4 1 1c0 1.1.9 2 2 2 .6 0 1 .4 1 1s-.4 1-1 1z"/><path class="sp0" d="M85.7 264.8c-.6 0-1-.4-1-1s.4-1 1-1c1.1 0 2-.9 2-2 0-.6.4-1 1-1s1 .4 1 1c0 2.2-1.8 4-4 4z"/><path class="sp0" d="M91.7 264.8c-2.2 0-4-1.8-4-4 0-.6.4-1 1-1s1 .4 1 1c0 1.1.9 2 2 2 .6 0 1 .4 1 1s-.4 1-1 1z"/><path class="sp0" d="M91.7 264.8c-.6 0-1-.4-1-1s.4-1 1-1c1.1 0 2-.9 2-2 0-.6.4-1 1-1s1 .4 1 1c0 2.2-1.8 4-4 4z"/><path class="sp0" d="M97.7 264.8c-2.2 0-4-1.8-4-4 0-.6.4-1 1-1s1 .4 1 1c0 1.1.9 2 2 2 .6 0 1 .4 1 1s-.4 1-1 1z"/><path class="sp0" d="M97.7 264.8c-.6 0-1-.4-1-1s.4-1 1-1c1.1 0 2-.9 2-2 0-.6.4-1 1-1s1 .4 1 1c0 2.2-1.8 4-4 4z"/><path class="sp0" d="M103.7 264.8c-2.2 0-4-1.8-4-4 0-.6.4-1 1-1s1 .4 1 1c0 1.1.9 2 2 2 .6 0 1 .4 1 1s-.4 1-1 1z"/></g><g><path class="sp0" d="M188.2 275.7H83.6c-3.1 0-6-1.2-8.2-3.5-2.2-2.2-3.4-5.2-3.4-8.3 0-6.3 5.1-11.2 11.6-11.2h104.6c6.6 0 11.8 4.9 11.8 11.1 0 6.5-5.4 11.9-11.8 11.9zm-104.6-21c-5.5 0-9.6 3.9-9.6 9.1 0 5.4 4.4 9.9 9.6 9.9h104.6c5.3 0 9.8-4.5 9.8-9.9 0-5.2-4.3-9.1-9.8-9.1H83.6z"/></g><g><path class="sp0" d="M111.5 275.5c-3.6 0-6.5-2.9-6.5-6.5s2.9-6.5 6.5-6.5 6.5 2.9 6.5 6.5-2.9 6.5-6.5 6.5zm0-11.1c-2.5 0-4.5 2-4.5 4.5s2 4.5 4.5 4.5 4.5-2 4.5-4.5-2-4.5-4.5-4.5z"/><path class="sp0" d="M111 283.7c-.6 0-1-.4-1-1v-11c0-.6.4-1 1-1s1 .4 1 1v11c0 .5-.4 1-1 1z"/><path class="sp0" d="M111.6 273.6c-.3 0-.7-.2-.9-.5l-1.6-2.8c-.3-.5-.1-1.1.4-1.4s1.1-.1 1.4.4l1.6 2.8c.3.5.1 1.1-.4 1.4-.2 0-.4.1-.5.1z"/><path class="sp0" d="M111.6 273.8c-.2 0-.3 0-.5-.1-.5-.3-.6-.9-.4-1.4l2.5-4.3c.3-.5.9-.6 1.4-.4s.6.9.4 1.4l-2.5 4.3c-.3.4-.6.5-.9.5z"/></g></g></g><g><path class="sp0" d="M301 280.7h-42c-.6 0-1-.4-1-1v-36c0-.6.4-1 1-1h42c.6 0 1 .4 1 1v36c0 .5-.4 1-1 1zm-41-2h40v-34h-40v34z"/><path class="sp0" d="M287.6 244.7h-15.1c-.6 0-1-.4-1-1 0-4.6 3.9-8.6 8.6-8.6s8.6 3.9 8.6 8.6c-.1.5-.5 1-1.1 1zm-14-2h12.9c-.5-3.1-3.3-5.6-6.5-5.6s-5.9 2.5-6.4 5.6z"/><path class="sp0" d="M280 271.7c-.6 0-1-.4-1-1v-18c0-.6.4-1 1-1s1 .4 1 1v18c0 .5-.4 1-1 1z"/><path class="sp0" d="M289 262.7h-18c-.6 0-1-.4-1-1s.4-1 1-1h18c.6 0 1 .4 1 1s-.4 1-1 1z"/></g><g><path class="sp0" d="M357.2 350.7c-.4 0-.7-.2-.9-.5l-15.6-26.9c-.3-.5-.1-1.1.4-1.4.5-.3 1.1-.1 1.4.4l14.7 25.4 16.3-28.2c.3-.5.9-.6 1.4-.4.5.3.6.9.4 1.4l-17.1 29.7c-.3.3-.6.5-1 .5z"/><path class="sp0" d="M331.7 336.8c-.2 0-.3 0-.5-.1-.5-.3-.6-.9-.4-1.4l7.5-13.1c.3-.5.9-.6 1.4-.4.5.3.6.9.4 1.4l-7.5 13.1c-.2.3-.6.5-.9.5z"/><path class="sp0" d="M329.3 345.8c-3.2 0-5.8-2.6-5.8-5.8s2.6-5.8 5.8-5.8 5.8 2.6 5.8 5.8-2.6 5.8-5.8 5.8zm0-9.6c-2.1 0-3.8 1.7-3.8 3.8s1.7 3.8 3.8 3.8c2.1 0 3.8-1.7 3.8-3.8s-1.7-3.8-3.8-3.8z"/><path class="sp0" d="M376.9 321.7c-3.2 0-5.8-2.6-5.8-5.8s2.6-5.8 5.8-5.8 5.8 2.6 5.8 5.8-2.6 5.8-5.8 5.8zm0-9.7c-2.1 0-3.8 1.7-3.8 3.8s1.7 3.8 3.8 3.8c2.1 0 3.8-1.7 3.8-3.8s-1.7-3.8-3.8-3.8z"/><path class="sp0" d="M340.4 324.1c-1.9 0-3.4-1.5-3.4-3.4s1.5-3.4 3.4-3.4 3.4 1.5 3.4 3.4c.1 1.8-1.5 3.4-3.4 3.4zm0-4.9c-.8 0-1.4.6-1.4 1.4 0 .8.6 1.4 1.4 1.4s1.4-.6 1.4-1.4c.1-.7-.6-1.4-1.4-1.4z"/></g><g><path class="sp0" d="M65 359.8c-.4 0-.7-.2-.9-.5l-21.7-37.5c-.2-.3-.2-.7 0-1l10.8-18.6c.2-.3.5-.5.9-.5h21.7c.4 0 .7.2.9.5l10.8 18.7c.2.3.2.7 0 1l-21.7 37.4c-.1.3-.5.5-.8.5zm-20.5-38.5L65 356.8l20.5-35.4-10.3-17.7H54.7l-10.2 17.6z"/><path class="sp0" d="M65 330.4c-5.2 0-9.5-4.3-9.5-9.5s4.3-9.5 9.5-9.5 9.5 4.3 9.5 9.5c0 5.3-4.3 9.5-9.5 9.5zm0-17c-4.1 0-7.5 3.4-7.5 7.5s3.4 7.5 7.5 7.5 7.5-3.4 7.5-7.5-3.4-7.5-7.5-7.5z"/></g><g><path class="sp0" d="M378 421.7c-2.3 0-4.1-1.8-4.1-4.1s1.8-4.1 4.1-4.1 4.1 1.8 4.1 4.1-1.8 4.1-4.1 4.1zm0-6.2c-1.2 0-2.1.9-2.1 2.1s.9 2.1 2.1 2.1 2.1-.9 2.1-2.1-.9-2.1-2.1-2.1z"/><path class="sp0" d="M392 421.7c-2.3 0-4.1-1.8-4.1-4.1s1.8-4.1 4.1-4.1 4.1 1.8 4.1 4.1-1.9 4.1-4.1 4.1zm0-6.2c-1.2 0-2.1.9-2.1 2.1s.9 2.1 2.1 2.1 2.1-.9 2.1-2.1-1-2.1-2.1-2.1z"/><path class="sp0" d="M475 415.7H370c-.6 0-1-.4-1-1v-25c0-2.9 2.3-5 5.3-5h96.5c3 0 5.2 2.1 5.2 5v25c0 .5-.4 1-1 1zm-104-2h103v-24c0-1.8-1.3-3-3.2-3h-96.5c-1.9 0-3.3 1.3-3.3 3v24z"/><path class="sp0" d="M381 401.7h-5c-1.1 0-2-.9-2-2v-9c0-1.1.9-2 2-2h5c1.1 0 2 .9 2 2v9c0 1.1-.9 2-2 2zm-5-11v9h5v-9h-5z"/><path class="sp0" d="M442 418.7h-42c-1.1 0-2-.9-2-2v-1c0-1.1.9-2 2-2h42c1.1 0 2 .9 2 2v1c0 1.1-.9 2-2 2zm-42-3v1h42v-1h-42z"/><path class="sp0" d="M395 401.7h-9c-1.1 0-2-.9-2-2v-9c0-1.1.9-2 2-2h9c1.1 0 2 .9 2 2v9c0 1.1-.9 2-2 2zm-9-11v9h9v-9h-9z"/><path class="sp0" d="M399 415.7c-.6 0-1-.4-1-1v-29c0-.6.4-1 1-1s1 .4 1 1v29c0 .5-.4 1-1 1z"/><path class="sp0" d="M391 400.7c-.6 0-1-.4-1-1v-10c0-.6.4-1 1-1s1 .4 1 1v10c0 .5-.4 1-1 1z"/><path class="sp0" d="M438 401.7h-9c-1.1 0-2-.9-2-2v-9c0-1.1.9-2 2-2h9c1.1 0 2 .9 2 2v9c0 1.1-.9 2-2 2zm-9-11v9h9v-9h-9z"/><path class="sp0" d="M453 401.7h-9c-1.1 0-2-.9-2-2v-9c0-1.1.9-2 2-2h9c1.1 0 2 .9 2 2v9c0 1.1-.9 2-2 2zm-9-11v9h9v-9h-9z"/><path class="sp0" d="M447 400.7c-.6 0-1-.4-1-1v-10c0-.6.4-1 1-1s1 .4 1 1v10c0 .5-.4 1-1 1z"/><path class="sp0" d="M468 401.7h-9c-1.1 0-2-.9-2-2v-9c0-1.1.9-2 2-2h9c1.1 0 2 .9 2 2v9c0 1.1-.9 2-2 2zm-9-11v9h9v-9h-9z"/><path class="sp0" d="M461 400.7c-.6 0-1-.4-1-1v-10c0-.6.4-1 1-1s1 .4 1 1v10c0 .5-.4 1-1 1z"/><path class="sp0" d="M424 415.7h-21c-.6 0-1-.4-1-1v-24.5c0-.7.4-1.5 2.5-1.5h19.3c.2 0 .7 0 1 .4.3.4.2.8.2 1v24.6c0 .5-.4 1-1 1zm-20-2h19v-23h-19v23z"/><path class="sp0" d="M414 415.7c-.6 0-1-.4-1-1v-25c0-.6.4-1 1-1s1 .4 1 1v25c0 .5-.4 1-1 1z"/><path class="sp0" d="M383 400.7h-6v-12h6v12zm-4-2h2v-8h-2v8z"/><path class="sp0" d="M399 404.7h-25c-.6 0-1-.4-1-1s.4-1 1-1h25c.6 0 1 .4 1 1s-.4 1-1 1z"/><path class="sp0" d="M399 408.7h-25c-.6 0-1-.4-1-1s.4-1 1-1h25c.6 0 1 .4 1 1s-.4 1-1 1z"/><path class="sp0" d="M399 411.7h-25c-.6 0-1-.4-1-1s.4-1 1-1h25c.6 0 1 .4 1 1s-.4 1-1 1z"/><path class="sp0" d="M475 404.7h-51c-.6 0-1-.4-1-1s.4-1 1-1h51c.6 0 1 .4 1 1s-.4 1-1 1z"/><path class="sp0" d="M475 408.7h-51c-.6 0-1-.4-1-1s.4-1 1-1h51c.6 0 1 .4 1 1s-.4 1-1 1z"/><path class="sp0" d="M475 411.7h-51c-.6 0-1-.4-1-1s.4-1 1-1h51c.6 0 1 .4 1 1s-.4 1-1 1z"/><path class="sp0" d="M409 403.7h-2c-1.1 0-2-.9-2-2v-8c0-1.1.9-2 2-2h2c1.1 0 2 .9 2 2v8c0 1.1-.9 2-2 2zm-2-10v8h2v-8h-2z"/><path class="sp0" d="M420 403.7h-2c-1.1 0-2-.9-2-2v-8c0-1.1.9-2 2-2h2c1.1 0 2 .9 2 2v8c0 1.1-.9 2-2 2zm-2-10v8h2v-8h-2z"/><path class="sp0" d="M438 393.7h-9c-1.1 0-2-.9-2-2v-1c0-1.1.9-2 2-2h9c1.1 0 2 .9 2 2v1c0 1.1-.9 2-2 2zm-9-3v1h9v-1h-9z"/><path class="sp0" d="M388 418.7h-7c-.6 0-1-.4-1-1s.4-1 1-1h7c.6 0 1 .4 1 1s-.4 1-1 1z"/><path class="sp0" d="M451.9 421.7c-2.3 0-4.1-1.8-4.1-4.1s1.8-4.1 4.1-4.1 4.1 1.8 4.1 4.1-1.8 4.1-4.1 4.1zm0-6.2c-1.2 0-2.1.9-2.1 2.1s.9 2.1 2.1 2.1 2.1-.9 2.1-2.1-.9-2.1-2.1-2.1z"/><path class="sp0" d="M465.9 421.7c-2.3 0-4.1-1.8-4.1-4.1s1.8-4.1 4.1-4.1 4.1 1.8 4.1 4.1-1.8 4.1-4.1 4.1zm0-6.2c-1.2 0-2.1.9-2.1 2.1s.9 2.1 2.1 2.1 2.1-.9 2.1-2.1-1-2.1-2.1-2.1z"/><path class="sp0" d="M462 418.7h-8c-.6 0-1-.4-1-1s.4-1 1-1h8c.6 0 1 .4 1 1s-.4 1-1 1z"/><path class="sp0" d="M476.6 409.6c-1.3 0-2.4-1.1-2.4-2.4s1.1-2.4 2.4-2.4 2.4 1.1 2.4 2.4-1.1 2.4-2.4 2.4zm0-2.7c-.2 0-.4.2-.4.4s.2.4.4.4.4-.2.4-.4c0-.3-.2-.4-.4-.4z"/></g><g><path class="sp0" d="M243 369.7h-71c-.6 0-1-.4-1-1v-57c0-.6.4-1 1-1h71c.6 0 1 .4 1 1v57c0 .5-.4 1-1 1zm-70-2h69v-55h-69v55z"/><path class="sp0" d="M202.7 333.7h-25c-.3 0-.5-.1-.7-.3s-.3-.4-.3-.7v-15c0-.6.4-1 1-1h25c.3 0 .7.1.9.3s.5.4.5.7v15c-.1.5-.9 1-1.4 1zm-24-2H202v-13h-23.3v13z"/><path class="sp0" d="M215 370.1h-15c-.6 0-1-.4-1-1v-30.6c0-.3.1-.5.3-.7s.4-.3.7-.3h15c.6 0 1 .4 1 1v30.6c0 .3-.1.5-.3.7s-.4.3-.7.3zm-14-2h13v-28.6h-13v28.6z"/><path class="sp0" d="M243.1 311.7h-71.3c-.5 0-.9-.3-1-.8-.1-.5.1-.9.5-1.1l35.7-17c.3-.1.6-.1.9 0l35.7 17c.4.2.6.7.5 1.1-.2.5-.6.8-1 .8zm-66.9-2h62.5l-31.2-14.9-31.3 14.9z"/><path class="sp0" d="M207.4 309.2c-3.2 0-5.8-2.6-5.8-5.8s2.6-5.8 5.8-5.8 5.8 2.6 5.8 5.8-2.6 5.8-5.8 5.8zm0-9.5c-2.1 0-3.8 1.7-3.8 3.8s1.7 3.8 3.8 3.8c2.1 0 3.8-1.7 3.8-3.8s-1.7-3.8-3.8-3.8z"/><path class="sp0" d="M203 333.7h-25c-.6 0-1-.4-1-1v-5c0-.6.4-1 1-1h25c.6 0 1 .4 1 1v5c0 .5-.4 1-1 1zm-24-2h23v-3h-23v3z"/><path class="sp0" d="M177.7 329.1c-.4 0-.8-.2-.9-.6-.2-.5.1-1.1.6-1.3 5.4-2.1 9.4-5.6 12-10.3.3-.5.9-.7 1.4-.4.5.3.7.9.4 1.4-2.8 5.1-7.2 8.9-13 11.2-.3-.1-.4 0-.5 0z"/><path class="sp0" d="M202.1 329.1c-.1 0-.2 0-.4-.1-5.8-2.3-10.2-6-13-11.2-.3-.5-.1-1.1.4-1.4.5-.3 1.1-.1 1.4.4 2.6 4.7 6.6 8.2 12 10.3.5.2.8.8.6 1.3-.2.4-.6.7-1 .7z"/><path class="sp0" d="M194 354.8h-16c-.6 0-1-.4-1-1v-15.2c0-.3.1-.5.3-.7s.4-.3.7-.3h16c.6 0 1 .4 1 1v15.2c0 .3-.1.5-.3.7s-.4.3-.7.3zm-15-2h14v-13.2h-14v13.2z"/><path class="sp0" d="M237 354.8h-17c-.6 0-1-.4-1-1v-15.2c0-.3.1-.5.3-.7s.4-.3.7-.3h17c.6 0 1 .4 1 1v15.2c0 .3-.1.5-.3.7s-.4.3-.7.3zm-16-2h15v-13.2h-15v13.2z"/><path class="sp0" d="M236.8 333.7h-25c-.3 0-.4-.1-.6-.3s-.2-.4-.2-.7v-15c0-.6.3-1 .8-1h25c.3 0 .5.1.7.3s.3.4.3.7v15c0 .5-.5 1-1 1zm-23.8-2h22.8v-13H213v13z"/><path class="sp0" d="M237 333.7h-25c-.6 0-1-.4-1-1v-5c0-.6.4-1 1-1h25c.6 0 1 .4 1 1v5c0 .5-.4 1-1 1zm-24-2h23v-3h-23v3z"/><path class="sp0" d="M211.8 329.1c-.4 0-.8-.2-.9-.6-.2-.5.1-1.1.6-1.3 5.4-2.1 9.4-5.6 12-10.3.3-.5.9-.7 1.4-.4.5.3.7.9.4 1.4-2.8 5.1-7.2 8.9-13 11.2-.3-.1-.4 0-.5 0z"/><path class="sp0" d="M236.2 329.1c-.1 0-.2 0-.4-.1-5.8-2.3-10.2-6-13-11.2-.3-.5-.1-1.1.4-1.4.5-.3 1.1-.1 1.4.4 2.6 4.7 6.6 8.2 12 10.3.5.2.8.8.6 1.3-.2.4-.6.7-1 .7z"/><path class="sp0" d="M210.2 356.7c-1.5 0-2.6-1.2-2.6-2.6 0-1.5 1.2-2.6 2.6-2.6s2.6 1.2 2.6 2.6c0 1.4-1.2 2.6-2.6 2.6zm0-3.3c-.4 0-.6.3-.6.6 0 .4.3.6.6.6s.6-.3.6-.6-.3-.6-.6-.6z"/><path class="sp0" d="M212 349.7h-9c-.6 0-1-.4-1-1v-7c0-.6.4-1 1-1h9c.6 0 1 .4 1 1v7c0 .5-.4 1-1 1zm-8-2h7v-5h-7v5z"/><path class="sp0" d="M194 351.7h-16c-.6 0-1-.4-1-1v-12c0-.6.4-1 1-1h16c.6 0 1 .4 1 1v12c0 .5-.4 1-1 1zm-15-2h14v-10h-14v10z"/><path class="sp0" d="M237 351.7h-16c-.6 0-1-.4-1-1v-12c0-.6.4-1 1-1h16c.6 0 1 .4 1 1v12c0 .5-.4 1-1 1zm-15-2h14v-10h-14v10z"/></g><g><path class="sp0" d="M157 407.7h-43c-.6 0-1-.4-1-1s.4-1 1-1h43c.6 0 1 .4 1 1s-.4 1-1 1z"/><path class="sp0" d="M157 400.7h-43c-.6 0-1-.4-1-1s.4-1 1-1h43c.6 0 1 .4 1 1s-.4 1-1 1z"/><path class="sp0" d="M109.5 420.7c-3 0-5.5-2.5-5.5-5.5v-24c0-3 2.5-5.5 5.5-5.5s5.5 2.5 5.5 5.5v24c0 3-2.5 5.5-5.5 5.5zm0-33c-1.9 0-3.5 1.6-3.5 3.5v24c0 1.9 1.6 3.5 3.5 3.5s3.5-1.6 3.5-3.5v-24c0-1.9-1.6-3.5-3.5-3.5z"/><path class="sp0" d="M102.7 411.7h-.4c-1.8 0-3.3-1.5-3.3-3.3V397c0-1.8 1.5-3.3 3.3-3.3h.4c1.8 0 3.3 1.5 3.3 3.3v11.4c0 1.8-1.5 3.3-3.3 3.3zm-.4-16c-.7 0-1.3.6-1.3 1.3v11.4c0 .7.6 1.3 1.3 1.3h.4c.7 0 1.3-.6 1.3-1.3V397c0-.7-.6-1.3-1.3-1.3h-.4z"/><path class="sp0" d="M161.5 420.7c-3 0-5.5-2.5-5.5-5.5v-24c0-3 2.5-5.5 5.5-5.5s5.5 2.5 5.5 5.5v24c0 3-2.5 5.5-5.5 5.5zm0-33c-1.9 0-3.5 1.6-3.5 3.5v24c0 1.9 1.6 3.5 3.5 3.5s3.5-1.6 3.5-3.5v-24c0-1.9-1.6-3.5-3.5-3.5z"/><path class="sp0" d="M100 408.4c-3.2 0-5.1-1.9-5.1-5.1 0-3.2 1.9-5.1 5.1-5.1.6 0 1 .4 1 1v8.2c0 .6-.4 1-1 1zm-1-8c-1.4.3-2.1 1.3-2.1 3s.7 2.7 2.1 3v-6z"/><path class="sp0" d="M168.7 411.7h-.4c-1.8 0-3.3-1.5-3.3-3.3V397c0-1.8 1.5-3.3 3.3-3.3h.4c1.8 0 3.3 1.5 3.3 3.3v11.4c0 1.8-1.5 3.3-3.3 3.3zm-.4-16c-.7 0-1.3.6-1.3 1.3v11.4c0 .7.6 1.3 1.3 1.3h.4c.7 0 1.3-.6 1.3-1.3V397c0-.7-.6-1.3-1.3-1.3h-.4z"/><path class="sp0" d="M171 408.4c-.6 0-1-.4-1-1v-8.2c0-.6.4-1 1-1 2.4 0 5.1 2.2 5.1 5.1 0 3-2.7 5.1-5.1 5.1zm1-7.9v5.8c1.1-.4 2.1-1.5 2.1-2.9s-1-2.5-2.1-2.9z"/></g><g><path class="sp0" d="M597.3 416.7H539c-.6 0-1-.4-1-1 0-5.8 5.2-11 11-11 .9 0 1.7.1 2.6.4.4-9.8 8.4-17.6 18.3-17.6 9.8 0 17.8 7.7 18.3 17.3 5.5.5 10.1 5.4 10.1 10.9 0 .5-.4 1-1 1zm-57.2-2h56.1c-.5-3.9-4.2-8-9-8-.6 0-1-.4-1-1 0-8.9-7.3-16.2-16.3-16.2s-16.3 7.3-16.3 16.3v.6c0 .3-.1.7-.4.9s-.6.3-.9.1c-6.3-2.4-11.5 2.5-12.2 7.3z"/><path class="sp0" d="M580.2 413.9c-.6 0-1-.4-1-1s.4-1 1-1c3.3 0 6-2.7 6-6 0-.6.4-1 1-1s1 .4 1 1c.1 4.4-3.5 8-8 8z"/><path class="sp0" d="M570.3 407.5c-.6 0-1-.4-1-1 0-4.2-3.5-7.7-7.7-7.7s-7.7 3.5-7.7 7.7c0 .6-.4 1-1 1s-1-.4-1-1c0-5.3 4.3-9.7 9.7-9.7s9.7 4.3 9.7 9.7c0 .6-.4 1-1 1z"/></g><g><path class="sp0" d="M568.5 284.3c-11.1 0-20.1-9-20.1-20.1 0-11.1 9-20.1 20.1-20.1s20.1 9 20.1 20.1c-.1 11-9.1 20.1-20.1 20.1zm0-38.2c-10 0-18.1 8.1-18.1 18.1 0 10 8.1 18.1 18.1 18.1s18.1-8.1 18.1-18.1c-.1-10-8.2-18.1-18.1-18.1z"/><path class="sp0" d="M568.7 278.4c-1.3 0-2.7-.2-4.1-.7-.5-.2-.8-.8-.6-1.3.2-.5.8-.8 1.3-.6 4.3 1.6 8.7-.2 11.2-2.7s4.3-7.7 2.7-11.1c-.2-.5 0-1.1.5-1.3.5-.2 1.1 0 1.3.5 1.9 4.2-.1 10.3-3.1 13.4-2.1 2.1-5.5 3.8-9.2 3.8z"/><path class="sp0" d="M568.5 246.2c-.6 0-1-.4-1-1 0-7.3-6-13.3-13.3-13.3-.6 0-1-.4-1-1s.4-1 1-1c8.4 0 15.3 6.9 15.3 15.3 0 .5-.5 1-1 1z"/><path class="sp0" d="M568.5 246.1c-.6 0-1-.4-1-1 0-8.8 7.1-15.9 15.9-15.9.6 0 1 .4 1 1 0 8.7-7.2 15.9-15.9 15.9zm13.8-14.9c-6.8.5-12.3 6-12.8 12.8 6.8-.5 12.3-6 12.8-12.8z"/></g><g><path class="sp0" d="M521.4 466.8c-9 0-17.9-3.4-24.8-10.2-.4-.4-.4-1 0-1.4s1-.4 1.4 0c12.9 12.9 33.8 12.9 46.7 0 .4-.4 1-.4 1.4 0s.4 1 0 1.4c-6.7 6.8-15.7 10.2-24.7 10.2z"/><path class="sp0" d="M473.2 466.8c-9 0-17.9-3.4-24.8-10.2-.4-.4-.4-1 0-1.4s1-.4 1.4 0c12.9 12.9 33.8 12.9 46.7 0 .4-.4 1-.4 1.4 0s.4 1 0 1.4c-6.8 6.8-15.7 10.2-24.7 10.2z"/><path class="sp0" d="M545.5 513.8c-.3 0-.5-.1-.7-.3-26.2-26.2-68.8-26.2-94.9 0-.4.4-1 .4-1.4 0s-.4-1 0-1.4c27-27 70.8-27 97.8 0 .4.4.4 1 0 1.4-.3.2-.6.3-.8.3z"/><path class="sp0" d="M497 457.7c-.6 0-1-.4-1-1v-14c0-.6.4-1 1-1s1 .4 1 1v14c0 .5-.4 1-1 1z"/><path class="sp0" d="M502 489.7c-.6 0-1-.4-1-1v-29c0-.6.4-1 1-1s1 .4 1 1v29c0 .5-.4 1-1 1z"/><path class="sp0" d="M506 489.7c-.6 0-1-.4-1-1v-27c0-.6.4-1 1-1s1 .4 1 1v27c0 .5-.4 1-1 1z"/><path class="sp0" d="M510 489.7c-.6 0-1-.4-1-1v-25c0-.6.4-1 1-1s1 .4 1 1v25c0 .5-.4 1-1 1z"/><path class="sp0" d="M515 489.7c-.6 0-1-.4-1-1v-23c0-.6.4-1 1-1s1 .4 1 1v23c0 .5-.4 1-1 1z"/><path class="sp0" d="M519 489.7c-.6 0-1-.4-1-1v-23c0-.6.4-1 1-1s1 .4 1 1v23c0 .5-.4 1-1 1z"/><path class="sp0" d="M524 489.7c-.6 0-1-.4-1-1v-23c0-.6.4-1 1-1s1 .4 1 1v23c0 .5-.4 1-1 1z"/><path class="sp0" d="M528 489.7c-.6 0-1-.4-1-1v-23c0-.6.4-1 1-1s1 .4 1 1v23c0 .5-.4 1-1 1z"/><path class="sp0" d="M532 489.7c-.6 0-1-.4-1-1v-24c0-.6.4-1 1-1s1 .4 1 1v24c0 .5-.4 1-1 1z"/><path class="sp0" d="M537 489.7c-.6 0-1-.4-1-1v-27c0-.6.4-1 1-1s1 .4 1 1v27c0 .5-.4 1-1 1z"/><path class="sp0" d="M541 489.7c-.6 0-1-.4-1-1v-29c0-.6.4-1 1-1s1 .4 1 1v29c0 .5-.4 1-1 1z"/><path class="sp0" d="M545 489.7c-.6 0-1-.4-1-1v-42c0-.6.4-1 1-1s1 .4 1 1v42c0 .5-.4 1-1 1z"/><path class="sp0" d="M493 489.7c-.6 0-1-.4-1-1v-29c0-.6.4-1 1-1s1 .4 1 1v29c0 .5-.4 1-1 1z"/><path class="sp0" d="M489 489.7c-.6 0-1-.4-1-1v-27c0-.6.4-1 1-1s1 .4 1 1v27c0 .5-.4 1-1 1z"/><path class="sp0" d="M484 489.7c-.6 0-1-.4-1-1v-25c0-.6.4-1 1-1s1 .4 1 1v25c0 .5-.4 1-1 1z"/><path class="sp0" d="M480 489.7c-.6 0-1-.4-1-1v-23c0-.6.4-1 1-1s1 .4 1 1v23c0 .5-.4 1-1 1z"/><path class="sp0" d="M475 489.7c-.6 0-1-.4-1-1v-23c0-.6.4-1 1-1s1 .4 1 1v23c0 .5-.4 1-1 1z"/><path class="sp0" d="M471 489.7c-.6 0-1-.4-1-1v-23c0-.6.4-1 1-1s1 .4 1 1v23c0 .5-.4 1-1 1z"/><path class="sp0" d="M467 489.7c-.6 0-1-.4-1-1v-23c0-.6.4-1 1-1s1 .4 1 1v23c0 .5-.4 1-1 1z"/><path class="sp0" d="M462 489.7c-.6 0-1-.4-1-1v-24c0-.6.4-1 1-1s1 .4 1 1v24c0 .5-.4 1-1 1z"/><path class="sp0" d="M458 489.7c-.6 0-1-.4-1-1v-27c0-.6.4-1 1-1s1 .4 1 1v27c0 .5-.4 1-1 1z"/><path class="sp0" d="M454 489.7c-.6 0-1-.4-1-1v-29c0-.6.4-1 1-1s1 .4 1 1v29c0 .5-.4 1-1 1z"/><path class="sp0" d="M449 489.7c-.6 0-1-.4-1-1v-42c0-.6.4-1 1-1s1 .4 1 1v42c0 .5-.4 1-1 1z"/><path class="sp0" d="M497.3 443.6c-2.9 0-5.3-2.4-5.3-5.3s2.4-5.3 5.3-5.3 5.3 2.4 5.3 5.3-2.3 5.3-5.3 5.3zm0-8.6c-1.8 0-3.3 1.5-3.3 3.3s1.5 3.3 3.3 3.3 3.3-1.5 3.3-3.3-1.4-3.3-3.3-3.3z"/><path class="sp0" d="M449.1 447.9c-1.7 0-3.2-1.4-3.2-3.2 0-1.7 1.4-3.2 3.2-3.2s3.2 1.4 3.2 3.2c0 1.8-1.4 3.2-3.2 3.2zm0-4.3c-.6 0-1.2.5-1.2 1.2s.5 1.2 1.2 1.2 1.2-.5 1.2-1.2-.5-1.2-1.2-1.2z"/><path class="sp0" d="M545.5 447.9c-1.7 0-3.2-1.4-3.2-3.2 0-1.7 1.4-3.2 3.2-3.2s3.2 1.4 3.2 3.2c-.1 1.8-1.5 3.2-3.2 3.2zm0-4.3c-.6 0-1.2.5-1.2 1.2s.5 1.2 1.2 1.2c.6 0 1.2-.5 1.2-1.2s-.6-1.2-1.2-1.2z"/><path class="sp0" d="M545 493.7h-96c-.6 0-1-.4-1-1v-4c0-.6.4-1 1-1h96c.6 0 1 .4 1 1v4c0 .5-.4 1-1 1zm-95-2h94v-2h-94v2z"/><path class="sp0" d="M449 516.7c-.6 0-1-.4-1-1v-23c0-.6.4-1 1-1s1 .4 1 1v23c0 .5-.4 1-1 1z"/><path class="sp0" d="M545 516.7c-.6 0-1-.4-1-1v-23c0-.6.4-1 1-1s1 .4 1 1v23c0 .5-.4 1-1 1z"/></g><g><path class="sp0" d="M587.3 556c-7.6 0-13.7-6.2-13.7-13.7s6.2-13.7 13.7-13.7 13.7 6.2 13.7 13.7-6.1 13.7-13.7 13.7zm0-25.4c-6.5 0-11.7 5.3-11.7 11.7s5.3 11.7 11.7 11.7 11.7-5.3 11.7-11.7-5.2-11.7-11.7-11.7z"/><path class="sp0" d="M587 567.7c-.6 0-1-.4-1-1v-18c0-.6.4-1 1-1s1 .4 1 1v18c0 .5-.4 1-1 1z"/><path class="sp0" d="M587.2 549.9c-.3 0-.7-.2-.9-.5l-5.3-8.6c-.3-.5-.1-1.1.3-1.4.5-.3 1.1-.1 1.4.3l5.3 8.6c.3.5.1 1.1-.3 1.4-.2.1-.4.2-.5.2z"/><path class="sp0" d="M593.3 547.4c-.3 0-.7-.2-.9-.5l-2.4-3.8c-.3-.5-.1-1.1.3-1.4.5-.3 1.1-.1 1.4.3l2.4 3.8c.3.5.1 1.1-.3 1.4-.2.1-.3.2-.5.2z"/><path class="sp0" d="M587.2 549.9c-.2 0-.3 0-.5-.1-.5-.3-.6-.9-.4-1.4l5.4-9.4c.3-.5.9-.6 1.4-.4.5.3.6.9.4 1.4l-5.4 9.4c-.3.3-.6.5-.9.5z"/><path class="sp0" d="M584.3 545.3c-.2 0-.3 0-.5-.1-.5-.3-.6-.9-.4-1.4l2.3-4c.3-.5.9-.6 1.4-.4.5.3.6.9.4 1.4l-2.3 4c-.2.4-.5.5-.9.5z"/><path class="sp0" d="M551.2 556c-7.6 0-13.7-6.2-13.7-13.7s6.2-13.7 13.7-13.7 13.7 6.2 13.7 13.7-6.2 13.7-13.7 13.7zm0-25.4c-6.5 0-11.7 5.3-11.7 11.7s5.3 11.7 11.7 11.7 11.7-5.3 11.7-11.7-5.3-11.7-11.7-11.7z"/><path class="sp0" d="M551 567.7c-.6 0-1-.4-1-1v-18c0-.6.4-1 1-1s1 .4 1 1v18c0 .5-.4 1-1 1z"/><path class="sp0" d="M551 549.9c-.3 0-.7-.2-.9-.5l-5.3-8.6c-.3-.5-.1-1.1.3-1.4.5-.3 1.1-.1 1.4.3l5.3 8.6c.3.5.1 1.1-.3 1.4-.1.1-.3.2-.5.2z"/><path class="sp0" d="M557.1 547.4c-.3 0-.7-.2-.9-.5l-2.4-3.8c-.3-.5-.1-1.1.3-1.4.5-.3 1.1-.1 1.4.3l2.4 3.8c.3.5.1 1.1-.3 1.4-.1.1-.3.2-.5.2z"/><path class="sp0" d="M551 549.9c-.2 0-.3 0-.5-.1-.5-.3-.6-.9-.4-1.4l5.4-9.4c.3-.5.9-.6 1.4-.4.5.3.6.9.4 1.4l-5.4 9.4c-.2.3-.6.5-.9.5z"/><path class="sp0" d="M548.2 545.3c-.2 0-.3 0-.5-.1-.5-.3-.6-.9-.4-1.4l2.3-4c.3-.5.9-.6 1.4-.4.5.3.6.9.4 1.4l-2.3 4c-.2.4-.6.5-.9.5z"/></g><g><path class="sp0" d="M180.7 463.2c-3.6 0-6.5-2.9-6.5-6.5s2.9-6.5 6.5-6.5 6.5 2.9 6.5 6.5-2.9 6.5-6.5 6.5zm0-11.1c-2.5 0-4.5 2-4.5 4.5s2 4.5 4.5 4.5 4.5-2 4.5-4.5-2-4.5-4.5-4.5z"/><path class="sp0" d="M181 471.7c-.6 0-1-.4-1-1v-11c0-.6.4-1 1-1s1 .4 1 1v11c0 .5-.4 1-1 1z"/><path class="sp0" d="M180.8 461.3c-.3 0-.7-.2-.9-.5l-1.6-2.8c-.3-.5-.1-1.1.4-1.4.5-.3 1.1-.1 1.4.4l1.6 2.8c.3.5.1 1.1-.4 1.4-.2 0-.4.1-.5.1z"/><path class="sp0" d="M180.8 461.6c-.2 0-.3 0-.5-.1-.5-.3-.6-.9-.4-1.4l2.5-4.3c.3-.5.9-.6 1.4-.4.5.3.6.9.4 1.4l-2.5 4.3c-.3.3-.6.5-.9.5z"/><g><path class="sp0" d="M208.9 463.2c-3.6 0-6.5-2.9-6.5-6.5s2.9-6.5 6.5-6.5 6.5 2.9 6.5 6.5-2.9 6.5-6.5 6.5zm0-11.1c-2.5 0-4.5 2-4.5 4.5s2 4.5 4.5 4.5 4.5-2 4.5-4.5-2-4.5-4.5-4.5z"/><path class="sp0" d="M209 471.7c-.6 0-1-.4-1-1v-11c0-.6.4-1 1-1s1 .4 1 1v11c0 .5-.4 1-1 1z"/><path class="sp0" d="M208.9 461.3c-.3 0-.7-.2-.9-.5l-1.6-2.8c-.3-.5-.1-1.1.4-1.4.5-.3 1.1-.1 1.4.4l1.6 2.8c.3.5.1 1.1-.4 1.4-.1 0-.3.1-.5.1z"/><path class="sp0" d="M208.9 461.6c-.2 0-.3 0-.5-.1-.5-.3-.6-.9-.4-1.4l2.5-4.3c.3-.5.9-.6 1.4-.4.5.3.6.9.4 1.4l-2.5 4.3c-.2.3-.5.5-.9.5z"/></g><g><path class="sp0" d="M237.1 463.2c-3.6 0-6.5-2.9-6.5-6.5s2.9-6.5 6.5-6.5 6.5 2.9 6.5 6.5-2.9 6.5-6.5 6.5zm0-11.1c-2.5 0-4.5 2-4.5 4.5s2 4.5 4.5 4.5 4.5-2 4.5-4.5-2-4.5-4.5-4.5z"/><path class="sp0" d="M236 471.7c-.6 0-1-.4-1-1v-11c0-.6.4-1 1-1s1 .4 1 1v11c0 .5-.4 1-1 1z"/><path class="sp0" d="M237.1 461.3c-.3 0-.7-.2-.9-.5l-1.6-2.8c-.3-.5-.1-1.1.4-1.4.5-.3 1.1-.1 1.4.4l1.6 2.8c.3.5.1 1.1-.4 1.4-.1 0-.3.1-.5.1z"/><path class="sp0" d="M237.1 461.6c-.2 0-.3 0-.5-.1-.5-.3-.6-.9-.4-1.4l2.5-4.3c.3-.5.9-.6 1.4-.4.5.3.6.9.4 1.4l-2.5 4.3c-.2.3-.5.5-.9.5z"/></g><g><path class="sp0" d="M222.4 486.5c-.6 0-1-.4-1-1s.4-1 1-1c1.1 0 2-.9 2-2 0-.6.4-1 1-1s1 .4 1 1c0 2.2-1.7 4-4 4z"/><path class="sp0" d="M228.4 486.5c-2.2 0-4-1.8-4-4 0-.6.4-1 1-1s1 .4 1 1c0 1.1.9 2 2 2 .6 0 1 .4 1 1s-.4 1-1 1z"/><path class="sp0" d="M216.4 486.5c-.6 0-1-.4-1-1s.4-1 1-1c1.1 0 2-.9 2-2 0-.6.4-1 1-1s1 .4 1 1c0 2.2-1.7 4-4 4z"/><path class="sp0" d="M222.4 486.5c-2.2 0-4-1.8-4-4 0-.6.4-1 1-1s1 .4 1 1c0 1.1.9 2 2 2 .6 0 1 .4 1 1s-.4 1-1 1z"/><path class="sp0" d="M216.4 486.5c-2.2 0-4-1.8-4-4 0-.6.4-1 1-1s1 .4 1 1c0 1.1.9 2 2 2 .6 0 1 .4 1 1s-.4 1-1 1z"/><path class="sp0" d="M228.4 486.5c-.6 0-1-.4-1-1s.4-1 1-1c1.1 0 2-.9 2-2 0-.6.4-1 1-1s1 .4 1 1c0 2.2-1.7 4-4 4z"/><path class="sp0" d="M234.4 486.5c-2.2 0-4-1.8-4-4 0-.6.4-1 1-1s1 .4 1 1c0 1.1.9 2 2 2 .6 0 1 .4 1 1s-.4 1-1 1z"/><g><path class="sp0" d="M192.6 481.5c-.6 0-1-.4-1-1s.4-1 1-1c1.1 0 2-.9 2-2 0-.6.4-1 1-1s1 .4 1 1c0 2.2-1.8 4-4 4z"/><path class="sp0" d="M198.6 481.5c-2.2 0-4-1.8-4-4 0-.6.4-1 1-1s1 .4 1 1c0 1.1.9 2 2 2 .6 0 1 .4 1 1s-.4 1-1 1z"/><path class="sp0" d="M198.6 481.5c-.6 0-1-.4-1-1s.4-1 1-1c1.1 0 2-.9 2-2 0-.6.4-1 1-1s1 .4 1 1c0 2.2-1.8 4-4 4z"/><path class="sp0" d="M204.6 481.5c-2.2 0-4-1.8-4-4 0-.6.4-1 1-1s1 .4 1 1c0 1.1.9 2 2 2 .6 0 1 .4 1 1s-.4 1-1 1z"/></g><g><path class="sp0" d="M242.5 481.8c-.6 0-1-.4-1-1s.4-1 1-1c1.1 0 2-.9 2-2 0-.6.4-1 1-1s1 .4 1 1c0 2.2-1.8 4-4 4z"/><path class="sp0" d="M248.5 481.8c-2.2 0-4-1.8-4-4 0-.6.4-1 1-1s1 .4 1 1c0 1.1.9 2 2 2 .6 0 1 .4 1 1s-.4 1-1 1z"/><path class="sp0" d="M248.5 481.8c-.6 0-1-.4-1-1s.4-1 1-1c1.1 0 2-.9 2-2 0-.6.4-1 1-1s1 .4 1 1c0 2.2-1.8 4-4 4z"/><path class="sp0" d="M254.5 481.8c-2.2 0-4-1.8-4-4 0-.6.4-1 1-1s1 .4 1 1c0 1.1.9 2 2 2 .6 0 1 .4 1 1s-.4 1-1 1z"/><path class="sp0" d="M254.5 481.8c-.6 0-1-.4-1-1s.4-1 1-1c1.1 0 2-.9 2-2 0-.6.4-1 1-1s1 .4 1 1c0 2.2-1.8 4-4 4z"/><path class="sp0" d="M260.5 481.8c-2.2 0-4-1.8-4-4 0-.6.4-1 1-1s1 .4 1 1c0 1.1.9 2 2 2 .6 0 1 .4 1 1s-.4 1-1 1z"/></g><g><path class="sp0" d="M146.7 481.8c-.6 0-1-.4-1-1s.4-1 1-1c1.1 0 2-.9 2-2 0-.6.4-1 1-1s1 .4 1 1c0 2.2-1.8 4-4 4z"/><path class="sp0" d="M152.7 481.8c-2.2 0-4-1.8-4-4 0-.6.4-1 1-1s1 .4 1 1c0 1.1.9 2 2 2 .6 0 1 .4 1 1s-.4 1-1 1z"/><path class="sp0" d="M152.7 481.8c-.6 0-1-.4-1-1s.4-1 1-1c1.1 0 2-.9 2-2 0-.6.4-1 1-1s1 .4 1 1c0 2.2-1.8 4-4 4z"/><path class="sp0" d="M158.7 481.8c-2.2 0-4-1.8-4-4 0-.6.4-1 1-1s1 .4 1 1c0 1.1.9 2 2 2 .6 0 1 .4 1 1s-.4 1-1 1z"/><path class="sp0" d="M158.7 481.8c-.6 0-1-.4-1-1s.4-1 1-1c1.1 0 2-.9 2-2 0-.6.4-1 1-1s1 .4 1 1c0 2.2-1.8 4-4 4z"/><path class="sp0" d="M164.7 481.8c-2.2 0-4-1.8-4-4 0-.6.4-1 1-1s1 .4 1 1c0 1.1.9 2 2 2 .6 0 1 .4 1 1s-.4 1-1 1z"/><path class="sp0" d="M164.7 481.8c-.6 0-1-.4-1-1s.4-1 1-1c1.1 0 2-.9 2-2 0-.6.4-1 1-1s1 .4 1 1c0 2.2-1.8 4-4 4z"/><path class="sp0" d="M170.7 481.8c-2.2 0-4-1.8-4-4 0-.6.4-1 1-1s1 .4 1 1c0 1.1.9 2 2 2 .6 0 1 .4 1 1s-.4 1-1 1z"/><path class="sp0" d="M170.7 481.8c-.6 0-1-.4-1-1s.4-1 1-1c1.1 0 2-.9 2-2 0-.6.4-1 1-1s1 .4 1 1c0 2.2-1.8 4-4 4z"/><path class="sp0" d="M176.7 481.8c-2.2 0-4-1.8-4-4 0-.6.4-1 1-1s1 .4 1 1c0 1.1.9 2 2 2 .6 0 1 .4 1 1s-.4 1-1 1z"/></g><g><path class="sp0" d="M261.2 492.7H156.6c-3.1 0-6-1.2-8.2-3.5-2.2-2.2-3.4-5.2-3.4-8.3 0-6.3 5.1-11.2 11.6-11.2h104.6c6.6 0 11.8 4.9 11.8 11.1 0 6.5-5.4 11.9-11.8 11.9zm-104.6-21c-5.5 0-9.6 3.9-9.6 9.1 0 5.4 4.4 9.9 9.6 9.9h104.6c5.3 0 9.8-4.5 9.8-9.9 0-5.2-4.3-9.1-9.8-9.1H156.6z"/></g><g><path class="sp0" d="M184.5 492.5c-3.6 0-6.5-2.9-6.5-6.5s2.9-6.5 6.5-6.5 6.5 2.9 6.5 6.5-2.9 6.5-6.5 6.5zm0-11.1c-2.5 0-4.5 2-4.5 4.5s2 4.5 4.5 4.5 4.5-2 4.5-4.5-2-4.5-4.5-4.5z"/><path class="sp0" d="M184 500.7c-.6 0-1-.4-1-1v-11c0-.6.4-1 1-1s1 .4 1 1v11c0 .5-.4 1-1 1z"/><path class="sp0" d="M184.6 490.6c-.3 0-.7-.2-.9-.5l-1.6-2.8c-.3-.5-.1-1.1.4-1.4.5-.3 1.1-.1 1.4.4l1.6 2.8c.3.5.1 1.1-.4 1.4-.2 0-.4.1-.5.1z"/><path class="sp0" d="M184.6 490.8c-.2 0-.3 0-.5-.1-.5-.3-.6-.9-.4-1.4l2.5-4.3c.3-.5.9-.6 1.4-.4.5.3.6.9.4 1.4l-2.5 4.3c-.3.4-.6.5-.9.5z"/></g></g></g><g><path class="sp0" d="M374 497.7h-42c-.6 0-1-.4-1-1v-36c0-.6.4-1 1-1h42c.6 0 1 .4 1 1v36c0 .5-.4 1-1 1zm-41-2h40v-34h-40v34z"/><path class="sp0" d="M360.6 461.7h-15.1c-.6 0-1-.4-1-1 0-4.6 3.9-8.6 8.6-8.6s8.6 3.9 8.6 8.6c-.1.5-.5 1-1.1 1zm-14-2h12.9c-.5-3.1-3.3-5.6-6.5-5.6s-5.9 2.5-6.4 5.6z"/><path class="sp0" d="M353 488.7c-.6 0-1-.4-1-1v-18c0-.6.4-1 1-1s1 .4 1 1v18c0 .5-.4 1-1 1z"/><path class="sp0" d="M362 479.7h-18c-.6 0-1-.4-1-1s.4-1 1-1h18c.6 0 1 .4 1 1s-.4 1-1 1z"/></g><g><path class="sp0" d="M430.2 567.7c-.4 0-.7-.2-.9-.5l-15.6-26.9c-.3-.5-.1-1.1.4-1.4.5-.3 1.1-.1 1.4.4l14.7 25.4 16.3-28.2c.3-.5.9-.6 1.4-.4.5.3.6.9.4 1.4l-17.1 29.7c-.3.3-.6.5-1 .5z"/><path class="sp0" d="M404.7 553.8c-.2 0-.3 0-.5-.1-.5-.3-.6-.9-.4-1.4l7.5-13.1c.3-.5.9-.6 1.4-.4.5.3.6.9.4 1.4l-7.5 13.1c-.2.3-.6.5-.9.5z"/><path class="sp0" d="M402.3 562.8c-3.2 0-5.8-2.6-5.8-5.8s2.6-5.8 5.8-5.8 5.8 2.6 5.8 5.8-2.6 5.8-5.8 5.8zm0-9.6c-2.1 0-3.8 1.7-3.8 3.8s1.7 3.8 3.8 3.8c2.1 0 3.8-1.7 3.8-3.8s-1.7-3.8-3.8-3.8z"/><path class="sp0" d="M449.9 538.7c-3.2 0-5.8-2.6-5.8-5.8s2.6-5.8 5.8-5.8 5.8 2.6 5.8 5.8-2.6 5.8-5.8 5.8zm0-9.7c-2.1 0-3.8 1.7-3.8 3.8s1.7 3.8 3.8 3.8c2.1 0 3.8-1.7 3.8-3.8s-1.7-3.8-3.8-3.8z"/><path class="sp0" d="M413.4 541.1c-1.9 0-3.4-1.5-3.4-3.4s1.5-3.4 3.4-3.4 3.4 1.5 3.4 3.4c.1 1.8-1.5 3.4-3.4 3.4zm0-4.9c-.8 0-1.4.6-1.4 1.4 0 .8.6 1.4 1.4 1.4s1.4-.6 1.4-1.4c.1-.7-.6-1.4-1.4-1.4z"/></g><g><path class="sp0" d="M138 576.8c-.4 0-.7-.2-.9-.5l-21.7-37.5c-.2-.3-.2-.7 0-1l10.8-18.6c.2-.3.5-.5.9-.5h21.7c.4 0 .7.2.9.5l10.8 18.7c.2.3.2.7 0 1l-21.7 37.4c-.1.3-.5.5-.8.5zm-20.5-38.5l20.5 35.5 20.5-35.4-10.3-17.7h-20.5l-10.2 17.6z"/><path class="sp0" d="M138 547.4c-5.2 0-9.5-4.3-9.5-9.5s4.3-9.5 9.5-9.5 9.5 4.3 9.5 9.5c0 5.3-4.3 9.5-9.5 9.5zm0-17c-4.1 0-7.5 3.4-7.5 7.5s3.4 7.5 7.5 7.5 7.5-3.4 7.5-7.5-3.4-7.5-7.5-7.5z"/></g><g><path class="sp0" d="M316 586.7h-71c-.6 0-1-.4-1-1v-57c0-.6.4-1 1-1h71c.6 0 1 .4 1 1v57c0 .5-.4 1-1 1zm-70-2h69v-55h-69v55z"/><path class="sp0" d="M275.7 550.7h-25c-.3 0-.5-.1-.7-.3s-.3-.4-.3-.7v-15c0-.6.4-1 1-1h25c.3 0 .7.1.9.3s.5.4.5.7v15c-.1.5-.9 1-1.4 1zm-24-2H275v-13h-23.3v13z"/><path class="sp0" d="M288 587.1h-15c-.6 0-1-.4-1-1v-30.6c0-.3.1-.5.3-.7s.4-.3.7-.3h15c.6 0 1 .4 1 1v30.6c0 .3-.1.5-.3.7s-.4.3-.7.3zm-14-2h13v-28.6h-13v28.6z"/><path class="sp0" d="M316.1 528.7h-71.3c-.5 0-.9-.3-1-.8-.1-.5.1-.9.5-1.1l35.7-17c.3-.1.6-.1.9 0l35.7 17c.4.2.6.7.5 1.1-.2.5-.6.8-1 .8zm-66.9-2h62.5l-31.2-14.9-31.3 14.9z"/><path class="sp0" d="M280.4 526.2c-3.2 0-5.8-2.6-5.8-5.8s2.6-5.8 5.8-5.8 5.8 2.6 5.8 5.8-2.6 5.8-5.8 5.8zm0-9.5c-2.1 0-3.8 1.7-3.8 3.8s1.7 3.8 3.8 3.8c2.1 0 3.8-1.7 3.8-3.8s-1.7-3.8-3.8-3.8z"/><path class="sp0" d="M276 550.7h-25c-.6 0-1-.4-1-1v-5c0-.6.4-1 1-1h25c.6 0 1 .4 1 1v5c0 .5-.4 1-1 1zm-24-2h23v-3h-23v3z"/><path class="sp0" d="M250.7 546.1c-.4 0-.8-.2-.9-.6-.2-.5.1-1.1.6-1.3 5.4-2.1 9.4-5.6 12-10.3.3-.5.9-.7 1.4-.4.5.3.7.9.4 1.4-2.8 5.1-7.2 8.9-13 11.2-.3-.1-.4 0-.5 0z"/><path class="sp0" d="M275.1 546.1c-.1 0-.2 0-.4-.1-5.8-2.3-10.2-6-13-11.2-.3-.5-.1-1.1.4-1.4.5-.3 1.1-.1 1.4.4 2.6 4.7 6.6 8.2 12 10.3.5.2.8.8.6 1.3-.2.4-.6.7-1 .7z"/><path class="sp0" d="M267 571.8h-16c-.6 0-1-.4-1-1v-15.2c0-.3.1-.5.3-.7s.4-.3.7-.3h16c.6 0 1 .4 1 1v15.2c0 .3-.1.5-.3.7s-.4.3-.7.3zm-15-2h14v-13.2h-14v13.2z"/><path class="sp0" d="M310 571.8h-17c-.6 0-1-.4-1-1v-15.2c0-.3.1-.5.3-.7s.4-.3.7-.3h17c.6 0 1 .4 1 1v15.2c0 .3-.1.5-.3.7s-.4.3-.7.3zm-16-2h15v-13.2h-15v13.2z"/><path class="sp0" d="M309.8 550.7h-25c-.3 0-.4-.1-.6-.3s-.2-.4-.2-.7v-15c0-.6.3-1 .8-1h25c.3 0 .5.1.7.3s.3.4.3.7v15c0 .5-.5 1-1 1zm-23.8-2h22.8v-13H286v13z"/><path class="sp0" d="M310 550.7h-25c-.6 0-1-.4-1-1v-5c0-.6.4-1 1-1h25c.6 0 1 .4 1 1v5c0 .5-.4 1-1 1zm-24-2h23v-3h-23v3z"/><path class="sp0" d="M284.8 546.1c-.4 0-.8-.2-.9-.6-.2-.5.1-1.1.6-1.3 5.4-2.1 9.4-5.6 12-10.3.3-.5.9-.7 1.4-.4.5.3.7.9.4 1.4-2.8 5.1-7.2 8.9-13 11.2-.3-.1-.4 0-.5 0z"/><path class="sp0" d="M309.2 546.1c-.1 0-.2 0-.4-.1-5.8-2.3-10.2-6-13-11.2-.3-.5-.1-1.1.4-1.4.5-.3 1.1-.1 1.4.4 2.6 4.7 6.6 8.2 12 10.3.5.2.8.8.6 1.3-.2.4-.6.7-1 .7z"/><path class="sp0" d="M283.2 573.7c-1.5 0-2.6-1.2-2.6-2.6 0-1.5 1.2-2.6 2.6-2.6s2.6 1.2 2.6 2.6c0 1.4-1.2 2.6-2.6 2.6zm0-3.3c-.4 0-.6.3-.6.6 0 .4.3.6.6.6s.6-.3.6-.6-.3-.6-.6-.6z"/><path class="sp0" d="M285 566.7h-9c-.6 0-1-.4-1-1v-7c0-.6.4-1 1-1h9c.6 0 1 .4 1 1v7c0 .5-.4 1-1 1zm-8-2h7v-5h-7v5z"/><path class="sp0" d="M267 568.7h-16c-.6 0-1-.4-1-1v-12c0-.6.4-1 1-1h16c.6 0 1 .4 1 1v12c0 .5-.4 1-1 1zm-15-2h14v-10h-14v10z"/><path class="sp0" d="M310 568.7h-16c-.6 0-1-.4-1-1v-12c0-.6.4-1 1-1h16c.6 0 1 .4 1 1v12c0 .5-.4 1-1 1zm-15-2h14v-10h-14v10z"/></g><g><path class="sp0" d="M64.5 501.3c-11.1 0-20.1-9-20.1-20.1s9-20.1 20.1-20.1 20.1 9 20.1 20.1-9.1 20.1-20.1 20.1zm0-38.2c-10 0-18.1 8.1-18.1 18.1 0 10 8.1 18.1 18.1 18.1s18.1-8.1 18.1-18.1c-.1-10-8.2-18.1-18.1-18.1z"/><path class="sp0" d="M64.7 495.4c-1.3 0-2.7-.2-4.1-.7-.5-.2-.8-.8-.6-1.3.2-.5.8-.8 1.3-.6 4.3 1.6 8.7-.2 11.2-2.7s4.3-7.7 2.7-11.1c-.2-.5 0-1.1.5-1.3.5-.2 1.1 0 1.3.5 1.9 4.2-.1 10.3-3.1 13.4-2.1 2.1-5.5 3.8-9.2 3.8z"/><path class="sp0" d="M64.5 463.2c-.6 0-1-.4-1-1 0-7.3-6-13.3-13.3-13.3-.6 0-1-.4-1-1s.4-1 1-1c8.4 0 15.3 6.9 15.3 15.3 0 .5-.5 1-1 1z"/><path class="sp0" d="M64.5 463.1c-.6 0-1-.4-1-1 0-8.8 7.1-15.9 15.9-15.9.6 0 1 .4 1 1 0 8.7-7.2 15.9-15.9 15.9zm13.8-14.9c-6.8.5-12.3 6-12.8 12.8 6.8-.5 12.3-6 12.8-12.8z"/></g></pattern></svg>